<?xml version="1.0" encoding="UTF-8" standalone="no"?>
<svg
   width="79"
   height="64"
   viewBox="0 0 316 256"
   version="1.1"
   id="svg56"
   sodipodi:docname="france_flag.svg"
   xmlns:inkscape="http://www.inkscape.org/namespaces/inkscape"
   xmlns:sodipodi="http://sodipodi.sourceforge.net/DTD/sodipodi-0.dtd"
   xmlns:xlink="http://www.w3.org/1999/xlink"
   xmlns="http://www.w3.org/2000/svg"
   xmlns:svg="http://www.w3.org/2000/svg">
  <sodipodi:namedview
     id="namedview58"
     pagecolor="#ffffff"
     bordercolor="#000000"
     borderopacity="0.25"
     inkscape:showpageshadow="2"
     inkscape:pageopacity="0.0"
     inkscape:pagecheckerboard="0"
     inkscape:deskcolor="#d1d1d1"
     showgrid="false" />
  <defs
     id="defs38">
    <linearGradient
       x1="87.397003"
       y1="141.97301"
       x2="240.94701"
       y2="141.97301"
       id="a"
       gradientUnits="userSpaceOnUse"
       gradientTransform="matrix(1.567692,0,0,1.567692,-129.3706,-94.56783)">
      <stop
         offset="0"
         stop-color="#fff"
         stop-opacity=".667"
         id="stop9" />
      <stop
         offset=".241"
         stop-color="#d7d7d7"
         stop-opacity=".219"
         id="stop11" />
      <stop
         offset=".459"
         stop-color="#4d4d4d"
         stop-opacity="0"
         id="stop13" />
      <stop
         offset=".719"
         stop-color="#fff"
         stop-opacity=".51"
         id="stop15" />
      <stop
         offset=".874"
         stop-color="#f2f2f2"
         stop-opacity=".4"
         id="stop17" />
      <stop
         offset="1"
         stop-color="#fff"
         stop-opacity=".624"
         id="stop19" />
    </linearGradient>
    <linearGradient
       x1="87.397003"
       y1="141.97301"
       x2="269.33301"
       y2="141.97301"
       id="c"
       xlink:href="#a"
       gradientUnits="userSpaceOnUse"
       gradientTransform="matrix(1.567692,0,0,1.567692,-101.3714,-94.56962)" />
    <linearGradient
       gradientTransform="matrix(-1.567692,0,0,-1.567692,385.3705,350.53)"
       x1="89.160004"
       y1="141.96001"
       x2="269.194"
       y2="141.96001"
       id="b"
       gradientUnits="userSpaceOnUse">
      <stop
         offset="0"
         stop-color="#ce1126"
         id="stop23" />
      <stop
         offset=".19"
         stop-color="#ce1126"
         id="stop25" />
      <stop
         offset=".3"
         stop-color="#fff"
         id="stop27" />
      <stop
         offset=".5"
         stop-color="#fff"
         id="stop29" />
      <stop
         offset=".625"
         stop-color="#002654"
         id="stop31" />
      <stop
         offset="1"
         stop-color="#002654"
         id="stop33" />
    </linearGradient>
    <linearGradient
       xlink:href="#a"
       id="e"
       gradientUnits="userSpaceOnUse"
       gradientTransform="matrix(1.567692,0,0,1.567692,-101.37137,-94.56962)"
       x1="87.397003"
       y1="141.97301"
       x2="269.33301"
       y2="141.97301" />
    <linearGradient
       xlink:href="#b"
       id="d"
       gradientUnits="userSpaceOnUse"
       gradientTransform="matrix(-1.567692,0,0,-1.567692,413.37053,350.53)"
       x1="89.160004"
       y1="141.96001"
       x2="269.194"
       y2="141.96001" />
  </defs>
  <path
     d="M 276.36,206.96 C 196.12,164.508 115.88,258.337 35.64,215.885 V 48.631 C 115.982,90.163 197.345,-2.03 276.36,40.115 Z"
     fill="url(#c)"
     id="path40"
     style="fill:url(#c)" />
  <path
     d="M 276.36,32.474 C 195.273,-10.428 114.185,85.85 33.096,40.006 30.281,38.42 28,39.214 28,42.031 v 171.941 c 0,2.81 2.281,6.575 5.095,8.162 81.937,46.323 163.874,-52.463 245.81,-6.14 2.814,1.586 5.095,0.795 5.095,-2.022 V 42.032 c 0,-2.812 -2.281,-6.58 -5.095,-8.166 a 103.08,103.08 0 0 0 -2.544,-1.392 z"
     fill="#616161"
     id="path42" />
  <path
     d="m 35.64,218.393 c 0,-1.853 14.891,10.205 37.309,11.055 22.416,2.352 52.355,-6.506 82.452,-15.427 30.097,-8.899 60.348,-17.89 83.388,-15.56 23.04,0.854 38.868,13.028 40.116,12.4 V 38.92 C 277.67,39.72 261.999,27.439 239.108,26.523 216.218,24.124 186.108,33.093 156,42.03 125.89,50.96 95.783,59.887 72.892,57.469 50.002,56.536 34.33,44.258 33.095,45.059 V 217 c 1.274,0.723 2.544,1.393 2.544,1.392 z"
     fill="url(#d)"
     id="path44"
     style="fill:url(#d)" />
  <path
     d="M 276.36,206.962 C 196.12,164.51 115.88,258.339 35.641,215.887 V 49.041 c 80.24,42.451 160.48,-51.377 240.72,-8.924 v 166.845 z"
     fill="#ffffff"
     id="path46" />
  <path
     d="m 115.804,56.179 c -26.721,6.023 -53.442,7 -80.163,-7.138 v 166.846 c 26.721,14.137 53.442,13.16 80.163,7.138 z"
     fill="#002654"
     id="path48" />
  <path
     d="m 196.2,199.825 c 26.72,-6.025 53.44,-7 80.16,7.137 V 40.117 C 249.64,25.979 222.92,26.955 196.2,32.977 Z"
     fill="#ce1126"
     id="path50" />
  <path
     fill="none"
     d="M 28,256 V 0 h 256 v 256"
     id="path52" />
  <path
     d="m 276.36003,206.96 c -80.24,-42.452 -160.48,51.377 -240.719997,8.925 V 48.631 C 115.98203,90.163 197.34503,-2.03 276.36003,40.115 Z"
     fill="url(#e)"
     id="path54"
     style="fill:url(#e)" />
</svg>
