<?xml version="1.0" encoding="UTF-8" standalone="no"?>
<svg
   version="1.1"
   preserveAspectRatio="none"
   x="0px"
   y="0px"
   width="264"
   height="283"
   viewBox="0 0 264 283"
   id="svg2861"
   sodipodi:docname="pony_female_walk_bg_0022.svg"
   xmlns:inkscape="http://www.inkscape.org/namespaces/inkscape"
   xmlns:sodipodi="http://sodipodi.sourceforge.net/DTD/sodipodi-0.dtd"
   xmlns="http://www.w3.org/2000/svg"
   xmlns:svg="http://www.w3.org/2000/svg">
  <sodipodi:namedview
     id="namedview2863"
     pagecolor="#ffffff"
     bordercolor="#000000"
     borderopacity="0.25"
     inkscape:showpageshadow="2"
     inkscape:pageopacity="0.0"
     inkscape:pagecheckerboard="0"
     inkscape:deskcolor="#d1d1d1"
     showgrid="false" />
  <defs
     id="defs2807">
    <filter
       id="Filter_1"
       x="0"
       y="0"
       width="1"
       height="1"
       color-interpolation-filters="sRGB">
      <feColorMatrix
         in="SourceGraphic"
         type="matrix"
         values="0 0 0 0 0 0 0 0 0 0.8 0 0 0 0 0.4 0 0 0 1 0"
         result="result1"
         id="feColorMatrix2774" />
    </filter>
  </defs>
  <path
     fill="#FFFFFF"
     id="path2865"
     d="m -4.6025326,-37.290619 c -0.6668148,0.699856 -1.2672552,1.616234 -1.8008295,2.74945 -1.0671557,2.299768 -1.3003371,4.600097 -0.7008298,6.90022 0.1833619,0.681056 0.4137664,1.320167 0.6929326,1.917929 -2.1098247,0.804938 -3.9435247,1.962037 -5.4942897,3.480825 -1.133552,1.033089 -2.250474,2.449385 -3.350856,4.249146 -0.833588,1.19982 -1.400225,2.249502 -1.700417,3.149436 -0.967163,2.333122 -1.784633,5.6334423 -2.452209,9.8999574 -0.333782,2.0999243 -0.568291,3.98248805 -0.70198,5.64912267 L -22.9615,3.0547602 c -1.933777,2.0995825 -2.900877,4.4835816 -2.901447,7.1502428 -5.34e-4,2.499994 0.849385,4.632876 2.549004,6.399902 1.233061,1.266928 2.765764,2.233676 4.598951,2.900733 l 10.0999034,0.552859 c 4.4667283,-0.332378 7.90020784,-0.898746 10.3003736,-1.698232 0.065781,-0.02191 0.1259135,-0.04525 0.1907942,-0.06735 l 3.7902012,10.443992 c -3.8600537,2.215562 -6.06775339,6.095711 -6.61691071,11.646493 -0.49493509,5.380627 0.69394449,9.484474 3.56736061,12.31114 0.7466298,0.732033 1.6756292,1.413342 2.7792322,2.045261 0.00985,0.485206 -0.00296,0.948755 -0.0445,1.387586 -0.069685,0.566312 -0.6263794,1.74674 -1.6692998,3.541239 l -3.18004431,5.73359 c -2.83053599,5.718428 -3.77400919,10.746455 -2.83041849,15.084941 0.3482039,1.53212 0.7438236,2.925715 1.1857762,4.181503 -0.4003158,1.356949 -0.7537856,2.646224 -1.0626424,3.871648 l -0.016591,-0.002 c -1.3963134,5.559394 -1.8683815,9.77387 -1.4169807,12.643022 1.2968062,0.60693 3.04459409,1.03299 5.243354,1.27804 0.8355675,0.0931 1.6725319,0.14894 2.5108972,0.16866 2.7400007,0.068 5.5015329,-0.26147 8.2848068,-0.98722 0.557561,-0.14521 1.115728,-0.30634 1.6745,-0.48331 0.279255,-0.0885 0.558725,-0.18038 0.838414,-0.27681 0.0097,-4.29845 0.09618,-8.211538 0.254089,-11.769259 1.895357,-0.825961 3.671444,-1.874942 5.325545,-3.152592 L 16.05429,77.88364 c 0.107381,-0.853062 0.221561,-1.669276 0.344094,-2.446633 0.772421,-5.075591 1.930501,-10.566939 3.461792,-16.461588 1.918896,0.232224 3.76376,0.329866 5.530881,0.284362 2.945157,-0.07584 5.613779,-0.50671 8.011963,-1.283623 0.948695,0.739867 1.925846,1.27315 2.931044,1.595833 l -0.03072,5.76892 c -0.03809,0.891997 -1.032102,2.855507 -2.981657,5.890911 -2.252177,3.52604 -3.750456,6.286691 -4.49444,8.282488 -0.879938,2.487321 -1.329546,5.577296 -1.349206,9.269054 -0.04333,1.876466 0.01486,3.506703 0.174149,4.892 4.094271,1.098599 8.461134,1.014919 13.101354,-0.25252 0.0554,-0.01502 0.107448,-0.03087 0.162359,-0.04601 -0.0039,0.04841 -0.0086,0.09291 -0.01247,0.141548 l -0.28595,6.749088 c 0.149585,0.0702 0.300059,0.13461 0.450112,0.20164 -3.43e-4,0.0502 -0.0015,0.10012 -0.0018,0.15039 4.455666,2.09046 9.118626,2.81505 13.988848,2.17431 2.401601,-0.28722 4.37044,-0.79332 5.907681,-1.51849 -0.428364,-0.93564 -0.821639,-2.237425 -1.17943,-3.906046 -0.130704,-0.108485 -0.257373,-0.21007 -0.386998,-0.316543 -0.754597,-3.4639 -0.904616,-7.690216 -0.443188,-12.688092 1.002348,-6.69486 1.424383,-10.793301 1.265704,-12.29419 -0.158501,-1.534223 -1.311681,-4.073854 -3.459533,-7.61873 -2.181541,-3.478388 -3.319406,-5.800833 -3.413193,-6.968033 -0.127475,-1.100712 0.368572,-3.448381 1.487745,-7.042527 1.08584,-3.594324 1.550006,-6.324993 1.39328,-8.192549 -0.284557,-2.901601 -1.703409,-5.592875 -4.256943,-8.073214 -2.417521,-2.303018 -5.192885,-3.633156 -8.322714,-3.997812 -1.354746,-0.593791 -2.712185,-0.875161 -4.072799,-0.840125 l -8.270388,1.213881 c -1.325555,0.200472 -2.562604,0.283628 -3.712402,0.253691 -0.201587,-0.750186 -0.496655,-1.582598 -0.891961,-2.504979 L 17.699743,2.3503313 C 17.524701,2.0923749 17.319357,1.8548585 17.088298,1.6350956 17.131947,0.80859325 17.099818,-0.11371709 16.989772,-1.1361906 16.224588,-8.0696729 15.091914,-13.420021 13.592722,-17.187 11.959752,-21.334831 9.8001393,-24.179562 7.1135584,-25.721309 6.7723035,-27.033626 6.1673259,-28.106849 5.2956736,-28.938315 4.7291221,-29.471769 2.6624942,-30.75595 -0.90373052,-32.790041 -3.3701,-34.157232 -4.6028816,-35.657289 -4.6025326,-37.290619 Z"
     style="filter:url(#Filter_1)"
     transform="matrix(1.999939,-0.01065063,0.01065063,1.9998169,60.1,76.5)" />
</svg>
