
<svg xmlns="http://www.w3.org/2000/svg" version="1.1" xmlns:xlink="http://www.w3.org/1999/xlink" preserveAspectRatio="none" x="0px" y="0px" width="268px" height="285px" viewBox="0 0 268 285">
<defs>
<filter id="Filter_1" x="-20%" y="-20%" width="140%" height="140%" color-interpolation-filters="sRGB">
<feColorMatrix in="SourceGraphic" type="matrix" values="0 0 0 0 1 0 0 0 0 0 0 0 0 0 0.4 0 0 0 1 0" result="result1"/>
</filter>

<g id="anims_pony_walk_anim_clean_flats_4_Layer0_0_FILL">
<path fill="#FFFFFF" stroke="none" d="
M 43.4 39.15
Q 43.4623046875 37.773046875 43.3 36.35 42.1 25.95 39.8 20.3 37.3171875 14.10859375 33.25 11.8 32.7623046875 9.851171875 31.45 8.6 30.6 7.8 25.2 4.8 21.5 2.75 21.5 0.3
L 19.7 3.05
Q 18.15 6.55 19.05 9.95 19.330078125 10.9666015625 19.75 11.85 17.3376953125 12.787109375 15.45 14.35 13.6 15.9 9.65 21.6 7.7 24.45 6.8 29 6.3 31.4 5.6 35 5.3 36.1 2.15 40.8 -0.6 44.9 -0.4 46.4 -0.1 48.9 0.85 52.2 2.1 56.15 3.35 57.4 4.8 58.8 8.65 60.4 12.55 61.9 14.6 61.95 17.15 62 19.8 60.55 23.05 58.8 24.05 55.7
L 28.35 56 30.15 60.9
Q 31.293359375 63.9435546875 32.1 66.1 26.29453125 69.4615234375 25.55 77.85 24.9 85.95 29.25 90.15 29.64140625 90.5234375 30.1 90.85 29.6806640625 93.638671875 28.6 95.95 25.5 102.8 24.55 105 22.1 111.1 20.65 116.7 19.5 121.2 19.05 126.2 18.7 130.5 18.95 134.05 21.15 135.05 24.5 135.45 29.1921875 135.9712890625 33.55 134.65 33.3923828125 136.854296875 33.65 138.3 33.5974609375 138.54921875 33.55 138.8
L 38.9 140.05
Q 45.65 140.8 52.05 138.35 51.95 126.65 51.55 117.1 51.3 111.45 50.15 104.4 49.301953125 99.1138671875 48.85 96.4 50.508984375 96.5060546875 52.05 96.45 55.426953125 96.3236328125 58.3 95.6 58.4337890625 95.750390625 58.55 95.9 60.25 98 61.95 99
L 62.55 106.35
Q 62.85 108.55 62.3 110.85 61.6 113.65 59.55 117.65 57.7 121.25 56.15 128.05 55.4 131.5 54.95 134.2 61.3 137 68.7 136.2 72.4 135.8 74.8 134.75 74.292578125 133.16953125 74.1 131.2
L 77.25 129.8
Q 77.9171875 129.5083984375 78.55 129.15 81.95 127.3 83.9 125.4 82.6 124.15 81.65 122.45 81.418359375 122.3900390625 81.2 122.3 79.67265625 118.8138671875 80.5 113.85 82.7 106.2 82.9 104.05 83.1 101.65 80.4 97.45 77.45 92.9 77.25 91.5 77.1 89.9 79.2 85.8 81.5 81.45 81.6 78.9 81.7 74.8 78.5 71.35 75.3306640625 67.9576171875 70.85 67.6 68.398046875 66.3310546875 65.95 66.4 60.55 67.3 57.7 67.7 55.84375 68.0064453125 54.2 68 53.8953125 66.8982421875 53.3 65.55 52.15 62.9 47.95 51.05
L 43.95 39.75
Q 43.7201171875 39.428125 43.4 39.15 Z"/>
</g>
</defs>

<g transform="matrix( 2, 0, 0, 1.9998779296875, 9.9,2.9) ">
<g transform="matrix( 1, 0, 0, 1, 0.2,0) ">
<g transform="matrix( 1, 0, 0, 1, 0,0) ">
<use filter="url(#Filter_1)" xlink:href="#anims_pony_walk_anim_clean_flats_4_Layer0_0_FILL"/>
</g>
</g>
</g>
</svg>
