
<svg xmlns="http://www.w3.org/2000/svg" version="1.1" xmlns:xlink="http://www.w3.org/1999/xlink" preserveAspectRatio="none" x="0px" y="0px" width="330px" height="358px" viewBox="50 364 330 358">
<defs>
<filter id="Filter_1" x="-20%" y="-20%" width="140%" height="140%" color-interpolation-filters="sRGB">
<feColorMatrix in="SourceGraphic" type="matrix" values="0 0 0 0 0.4 0 0 0 0 0.8 0 0 0 0 0.4 0 0 0 1 0" result="result1"/>
</filter>

<g id="Symbol_367_0_Layer0_0_FILL">
<path fill="#FFFFFF" stroke="none" d="
M 61.2 82.75
L 52.05 97.8
Q 47.45 102.15 49.55 108.75 51.7 115.55 59.05 114.65 54.25 118.5 53.05 122.5 51.95 126.1 51.65 130.55
L 51.6 134.3
Q 58.3 136.7 65.6 135.6 69.25 135.05 71.5 134 68.9 128.65 69.6 120.8
L 71.05 112.45
Q 71.35 110.55 70 108.85 68.4 106.95 64.9 105.65 69.05 101.85 70.85 99.6 74.5 95.2 74.15 92.25 73.75 88.5 70.3 85.65 66.45 82.55 61.2 82.75 Z"/>
</g>

<g id="Symbol_367_0_Layer0_1_FILL">
<path fill="#FFFFFF" stroke="none" d="
M 35.2 120.65
Q 37.75 119.1 39.9 114.7
L 41.5 110.7 31.7 102.15 28.35 107.05
Q 25.55 112.35 27.95 114.9 23.85 114.35 20.9 115.6 16.45 117.5 15.2 123.25 14.15 128.6 14.55 132.95
L 20.3 134.7
Q 27.1 136.4 33.2 135.65 33.15 131.3 32.5 125.45 32.3 123.7 32.7 122.8 33.2 121.8 35.2 120.65 Z"/>
</g>

<g id="Symbol_367_0_Layer0_2_FILL">
<path fill="#FFFFFF" stroke="none" d="
M 24.4 66.25
L 19.95 66.15
Q 15.1 67.25 13.55 73.1 12.2 77.8 14.85 81.2 16.35 83.3 18.8 84.45
L 41.5 96
Q 44.3 97.2 49.25 96.8 55.6 96.25 58.75 92.45 62 88.4 60.55 85.95 59.55 84.2 54.8 82.05
L 24.4 66.25 Z"/>
</g>

<g id="Symbol_367_0_Layer0_3_FILL">
<path fill="#FFFFFF" stroke="none" d="
M 33.1 82.4
Q 27.45 86.15 27.3 94.6 27.2 102.7 31.85 106.6 35.25 109.5 42.85 110.75
L 55.05 111.35
Q 64.35 110.35 69.6 105 72.2 102.3 74.55 97.35 76.5 93.3 77.35 89.65 78.35 85.35 74.05 82.5 70.35 80.05 66.8 80.4
L 58.65 82.25
Q 53.55 83.45 50.05 82.2 44.2 80.15 42.9 79.95 37.85 79.25 33.1 82.4 Z"/>
</g>

<g id="Symbol_367_0_Layer0_4_FILL">
<path fill="#FFFFFF" stroke="none" d="
M 78.55 84.15
Q 74.55 80.45 69.3 80.45
L 60.95 96.9
Q 56.6 101.6 59 109.1 61.5 116.85 68.85 116.15 64.25 120.25 63.2 124.7 62.3 128.65 62.25 133.6 62.2 136.1 62.4 137.8 69.2 140.8 76.4 139.9 80.05 139.4 82.25 138.35 79.4 132.25 79.65 123.5
L 80.7 114.15
Q 80.9 112.1 79.5 110.15 77.75 107.9 74.15 106.3 78.1 102.25 79.85 99.8 83.25 95.05 82.8 91.7 82.2 87.45 78.55 84.15 Z"/>
</g>

<g id="Symbol_367_0_Layer0_5_FILL">
<path fill="#FFFFFF" stroke="none" d="
M 45.1 138.6
L 42.35 127.1
Q 41.8 125.1 42.05 124 42.3 122.75 44 121.05 46.15 118.85 47.4 113.45
L 48.1 108.55 36.9 100.6 34.65 106.75
Q 33 113.4 35.85 115.85 31.75 116 29.15 117.95 25.25 120.9 25.2 127.75 25.25 133.95 26.5 138.85
L 32.4 139.85
Q 39.35 140.5 45.1 138.6 Z"/>
</g>

<g id="Symbol_367_0_Layer0_6_FILL">
<path fill="#FFFFFF" stroke="none" d="
M 8.55 48.9
Q 7.55 48.45 1.6 46.9 -2.55 45.85 -2.85 43.95 -3.8 44.9 -4.4 46.4 -5.7 49.35 -4.35 51.95 -0.9 58.15 11.55 56.2 11.8 54.9 11.55 53.35 11.05 50.2 8.55 48.9 Z"/>
</g>

<g id="Symbol_367_0_Layer0_7_FILL">
<path fill="#FFFFFF" stroke="none" d="
M 24.25 68.9
Q 21.8 60.9 18.75 56.8 13.45 49.7 5.15 50.95 -4.1 52.4 -8.7 57 -10.3 58.5 -11.7 60.9 -12.8 62.5 -13.1 63.65 -14.2 66.65 -14.5 71.85
L -14.5 76.4 -17.25 78.7
Q -19.9 81.7 -19.4 84.85 -18.95 87.8 -15.95 89.45 -13.8 90.65 -10.75 91 -7.6 91.35 -0.05 89.75 6.95 88.25 10.55 86.8 14.35 85.15 16.05 83.6 19.1 80.75 18.55 76.55 22.25 75.85 23.6 74.6 25.5 72.85 24.25 68.9 Z"/>
</g>
</defs>

<g transform="matrix( 2, 0, 0, 1.9998779296875, 100.1,433.95) ">
<g transform="matrix( 1, 0, 0, 1, 0,0) ">
<use filter="url(#Filter_1)" xlink:href="#Symbol_367_0_Layer0_0_FILL"/>
</g>

<g transform="matrix( 1, 0, 0, 1, 0,0) ">
<use filter="url(#Filter_1)" xlink:href="#Symbol_367_0_Layer0_1_FILL"/>
</g>

<g transform="matrix( 1, 0, 0, 1, 0,0) ">
<use filter="url(#Filter_1)" xlink:href="#Symbol_367_0_Layer0_2_FILL"/>
</g>

<g transform="matrix( 1, 0, 0, 1, 0,0) ">
<use filter="url(#Filter_1)" xlink:href="#Symbol_367_0_Layer0_3_FILL"/>
</g>

<g transform="matrix( 1, 0, 0, 1, 0,0) ">
<use filter="url(#Filter_1)" xlink:href="#Symbol_367_0_Layer0_4_FILL"/>
</g>

<g transform="matrix( 1, 0, 0, 1, 0,0) ">
<use filter="url(#Filter_1)" xlink:href="#Symbol_367_0_Layer0_5_FILL"/>
</g>

<g transform="matrix( 1, 0, 0, 1, 0,0) ">
<use filter="url(#Filter_1)" xlink:href="#Symbol_367_0_Layer0_6_FILL"/>
</g>

<g transform="matrix( 1, 0, 0, 1, 0,0) ">
<use filter="url(#Filter_1)" xlink:href="#Symbol_367_0_Layer0_7_FILL"/>
</g>
</g>
</svg>
