
<svg xmlns="http://www.w3.org/2000/svg" version="1.1" xmlns:xlink="http://www.w3.org/1999/xlink" preserveAspectRatio="none" x="0px" y="0px" width="268px" height="285px" viewBox="0 0 268 285">
<defs>
<filter id="Filter_1" x="-20%" y="-20%" width="140%" height="140%" color-interpolation-filters="sRGB">
<feColorMatrix in="SourceGraphic" type="matrix" values="0 0 0 0 1 0 0 0 0 0 0 0 0 0 0.4 0 0 0 1 0" result="result1"/>
</filter>

<g id="anims_pony_walk_anim_clean_flats_9_Layer0_0_FILL">
<path fill="#FFFFFF" stroke="none" d="
M 42.45 39.3
Q 42.4267578125 38.174609375 42.25 37 40.8 26.65 38.35 21.05 35.7111328125 14.8927734375 31.6 12.7 31.03125 10.76015625 29.7 9.55 28.8 8.8 23.4 5.9 19.6 3.95 19.55 1.5
L 17.8 4.35
Q 16.35 7.85 17.35 11.25 17.650390625 12.2470703125 18.05 13.1 15.7423828125 14.108984375 13.95 15.7 12.05 17.3 8.3 23.15 6.45 26 5.65 30.6 5.2 33 4.6 36.65 4.3 37.75 1.3 42.55 -1.3 46.7 -1.1 48.2 -0.75 50.7 0.3 54 1.65 57.9 2.95 59.1 4.4 60.45 8.3 61.95 12.25 63.35 14.3 63.35 16.85 63.3 19.45 61.85 22.65 60 23.55 56.85
L 27.85 57
Q 28.02578125 56.9890625 28.2 56.95
L 30.15 61.6
Q 31.2779296875 64.256640625 32.1 66.2 26.653515625 69.5115234375 25.75 77.5 24.85 85.6 29.1 89.9 29.92421875 90.72421875 31.05 91.45 31.03203125 92.997265625 30.8 94.2 27.65 104.05 25.5 112.4 21.2 128.55 22.8 135.1 24.8 136 28.15 136.35 34.75 137.05 41.25 134.7 41.230078125 134.4294921875 41.2 134.15 41.47578125 134.108203125 41.75 134.05 48.4 132.7 53.85 129.3 53.1474609375 127.9951171875 52.45 126.6 52.1923828125 125.56328125 51.5 124.5
L 51.45 124.45
Q 48.9244140625 118.9390625 46.6 112 45.6 109.1 47.15 101.8 47.787890625 98.784765625 48.15 96.7 49.993359375 96.8658203125 51.75 96.85 56.4486328125 96.799609375 60.2 95.55 60.341015625 95.6470703125 60.45 95.75 62.7 98 64.8 99
L 65.8 103.85
Q 65.541796875 106.5099609375 65.5 108.1 65.5 109.7 63.2 114.45 60.35 120.4 59.35 123.45 58.5693359375 125.86640625 57.85 128.55 56.45 133.400390625 55.7 138.65 55.8716796875 138.680078125 56.05 138.7 62.1130859375 140.53671875 69.2 139.7 72.8 139.3 75.15 138.5 75.05703125 137.47734375 75.05 136.3 75.198046875 136.3166015625 75.35 136.3 79 135.8 81.4 134.85 79.2 129.35 80.1 119.65 81.45 110.1 81.4 108.1 81.3 105.95 77.95 101.15 77.8142578125 100.9533203125 77.65 100.75 75.8935546875 96.6072265625 75.85 95.3 75.75 93.5 78.05 88.45 80.55 83.05 80.8 80.35 81.3 75.9 78.05 72.25 75.316015625 69.0923828125 71.1 68.35 68.8115234375 67.116796875 66.45 67.15 61 67.9 58.15 68.2 56.3041015625 68.4484375 54.7 68.4 54.3326171875 67.0392578125 53.45 65.25 52.2 62.6 47.45 50.95
L 42.95 39.85
Q 42.7294921875 39.5666015625 42.45 39.3 Z"/>
</g>
</defs>

<g transform="matrix( 2, 0, 0, 1.9998779296875, 9.9,2.9) ">
<g transform="matrix( 1, 0, 0, 1, 0.2,0) ">
<g transform="matrix( 1, 0, 0, 1, 0,0) ">
<use filter="url(#Filter_1)" xlink:href="#anims_pony_walk_anim_clean_flats_9_Layer0_0_FILL"/>
</g>
</g>
</g>
</svg>
