
<svg xmlns="http://www.w3.org/2000/svg" version="1.1" xmlns:xlink="http://www.w3.org/1999/xlink" preserveAspectRatio="none" x="0px" y="0px" width="330px" height="358px" viewBox="0 0 330 358">
<defs>
<filter id="Filter_1" x="-20%" y="-20%" width="140%" height="140%" color-interpolation-filters="sRGB">
<feColorMatrix in="SourceGraphic" type="matrix" values="0 0 0 0 1 0 0 0 0 0 0 0 0 0 0.4 0 0 0 1 0" result="result1"/>
</filter>

<g id="anims_pony_jump_anim_clean_flats_26_Layer0_0_FILL">
<path fill="#FFFFFF" stroke="none" d="
M 81.4 95.7
Q 83.55 91.05 83.5 88.7 83.55 85 80.05 81.95 76.3279296875 78.662890625 70.9 78.55 69.6611328125 78.3490234375 68.45 78.45 63.05 79.65 60.25 80.25 57.93984375 80.71640625 55.9 80.7 54.7546875 79.0818359375 52.25 77 49.65 74.75 38.65 64.5
L 28.5 55.05
Q 27.35 47.765625 25.2 43.6 22.5939453125 38.48203125 18.4 36.6 17.85078125 34.9630859375 16.5 33.95 15.6 33.3 10 30.8 6.15 29.15 6.1 27.15
L 4.3 29.4
Q 2.6 32.25 3.55 35.1 3.8396484375 35.9326171875 4.25 36.65 1.7859375 37.4294921875 -0.15 38.7 -2.15 39.95 -6.25 44.7 -8.3 47.05 -9.25 50.8 -9.75 52.75 -10.5 55.75 -10.85 56.65 -14.1 60.55 -16.95 63.95 -16.8 65.2 -16.45 67.25 -15.45 70 -14.2 73.25 -12.9 74.3 -11.35 75.4 -7.35 76.7 -3.25 78 -1.1 77.95 1.55 78 4.3 76.85 7.65 75.4 8.7 72.8
L 13.2 73.05
Q 17.2421875 72.9287109375 19.85 71.8 20.8103515625 73.41875 22.2 74.6
L 30.45 82.2
Q 30.792578125 82.510546875 31.1 82.8 28.590234375 86.2404296875 28.9 91.85 29.284765625 97.307421875 31.85 100.8 31.5544921875 101.5302734375 31.2 102.1 30.5 103.35 23.95 107.85 17.55 113.3 16.15 119.6 14.25 128.1 15.3 132.75
L 20.6 135.15
Q 23.0181640625 135.9376953125 25.4 136.3 25.7720703125 137.610546875 26.25 138.65
L 31.85 139.95
Q 38.8 140.85 45 138.75 43.5 132.7 42.05 126.1 41.5 123.75 41.95 121.3 42.2 119.25 43.25 116.35 45.1509765625 111.47578125 47 107.7 53.3724609375 108.6669921875 58.65 108.2 60.302734375 108.0513671875 61.8 107.75 61.516015625 109.8943359375 61.65 111.1 61.85 112.55 60.5 114.85 59.95 115.75 56.55 120.55 54.4 123.5 52.45 129.25 51.55 132.1 51 134.35 55.6943359375 136.021484375 61.1 136.1 60.8650390625 137.470703125 60.7 138.65 67.55 141.3 75.45 140.45 79.4 140.05 82.05 139.15 79.9 134.1 82.35 124.95 85.4 116.1 85.4 114.2 85.4 112.2 82.3 107.7 79.2 103.2 79.2 101.7 79.15 100.3 81.4 95.7 Z"/>
</g>
</defs>

<g transform="matrix( 2, 0, 0, 1.9998779296875, 55.6,72.4) ">
<g transform="matrix( 1, 0, 0, 1, 0.05,-3) ">
<g transform="matrix( 1, 0, 0, 1, 0,0) ">
<use filter="url(#Filter_1)" xlink:href="#anims_pony_jump_anim_clean_flats_26_Layer0_0_FILL"/>
</g>
</g>
</g>
</svg>
