
<svg xmlns="http://www.w3.org/2000/svg" version="1.1" xmlns:xlink="http://www.w3.org/1999/xlink" preserveAspectRatio="none" x="0px" y="0px" width="330px" height="358px" viewBox="50 364 330 358">
<defs>
<filter id="Filter_1" x="-20%" y="-20%" width="140%" height="140%" color-interpolation-filters="sRGB">
<feColorMatrix in="SourceGraphic" type="matrix" values="0 0 0 0 0.4 0 0 0 0 0.8 0 0 0 0 0.4 0 0 0 1 0" result="result1"/>
</filter>

<g id="Symbol_267_0_Layer0_0_FILL">
<path fill="#FFFFFF" stroke="none" d="
M 88.5 42.4
Q 87.05 37.05 82.6 34.3
L 68.4 45.4
Q 65.9 50.75 68.15 56.55 69.2 59.4 70.8 61.2
L 68.15 67.95
Q 67.75 68.95 62.65 71.45 57.3 74 55.7 77.25 53.95 80.8 52.25 87.2
L 50.95 92.9
Q 57.25 96.65 64.55 96.65 68.3 96.65 70.65 95.9 68.8 89.75 73 83.35 78 77.3 79 75.35 80.2 73.2 79.55 67.85 78.85 62.1 79.25 60.7 79.8 59.05 83.3 56.35 87.05 53.45 88.15 51.05 89.85 47.3 88.5 42.4 Z"/>
</g>

<g id="Symbol_267_0_Layer0_1_FILL">
<path fill="#FFFFFF" stroke="none" d="
M 46.35 42.05
L 43.2 45.8
Q 39.55 49.7 36.95 50.65
L 33 52.05
Q 29.6 53.3 26.75 54.85 18.05 59.6 15.3 67.3 11.85 77.4 11.95 82.9
L 16.45 85.55
Q 22.2 87.95 28.45 86.8
L 30.65 71.4
Q 31.05 67.95 31.5 66.95 32.45 64.75 34.75 65.05 39.15 65.7 43.25 62.2
L 46.55 58.5 46.35 42.05 Z"/>
</g>

<g id="Symbol_267_0_Layer0_2_FILL">
<path fill="#FFFFFF" stroke="none" d="
M 62.85 33.4
L 48.95 9.75
Q 47.75 8.55 45.6 8.3 41.4 7.85 36.95 12.8 33.35 16.8 33.35 20.75 33.3 23.15 34.5 25
L 45.05 42.4
Q 46.5 44.35 50.4 45.45 55.45 46.85 59.95 44.25 64.7 41.5 65 38.75 65.25 36.85 62.85 33.4 Z"/>
</g>

<g id="Symbol_267_0_Layer0_3_FILL">
<path fill="#FFFFFF" stroke="none" d="
M 86.2 40.15
Q 87.1 35.85 82.85 33 79.05 30.6 75.55 31.05
L 67.4 32.95
Q 62.35 34.2 58.8 33 52.95 31.05 51.6 30.9 46.55 30.2 41.85 33.45 36.3 37.25 36.2 45.75 36.2 53.85 40.9 57.65 44.35 60.5 52 61.65
L 64.2 62.1
Q 73.5 61 78.65 55.55 81.2 52.8 83.5 47.9 85.4 43.8 86.2 40.15 Z"/>
</g>

<g id="Symbol_267_0_Layer0_4_FILL">
<path fill="#FFFFFF" stroke="none" d="
M 90.6 46.45
Q 91.3 42.45 88.75 38.25 85.95 33.6 80.95 32.1
L 70 45.85
Q 69 51.5 72.6 56.35 74.4 58.75 76.4 60.05
L 75.55 67.05
Q 75.4 68.05 71.1 71.65 66.6 75.3 65.85 78.7 65 82.45 65.05 88.85
L 65.25 94.5
Q 72.3 96.5 79.4 94.7 82.95 93.85 85.1 92.55 81.75 87.25 84.15 80.25 87.45 73.45 87.95 71.35 88.5 69.1 86.55 64.25 84.35 59.05 84.45 57.6 84.55 55.95 87.25 52.55 90.15 48.95 90.6 46.45 Z"/>
</g>

<g id="Symbol_267_0_Layer0_5_FILL">
<path fill="#FFFFFF" stroke="none" d="
M 49.55 48.05
Q 44.95 45.1 43 45.7 41.6 46.15 41.45 48.85
L 41.45 53.25
Q 41.15 58.1 39.8 60.6 39.1 61.95 32.8 67.55 26.55 74.05 25.35 80.7 23.75 89.7 25 94.4
L 30.3 96.1
Q 36.95 97.4 43.35 95.55
L 42.55 82.25
Q 42.4 79.75 43.15 77.35 43.8 75.2 45.3 72.3 48 67.25 50.5 63.3
L 52.45 60.35
Q 53.45 58.35 53.55 55.85 53.75 50.8 49.55 48.05 Z"/>
</g>

<g id="Symbol_267_0_Layer0_6_FILL">
<path fill="#FFFFFF" stroke="none" d="
M 39.35 -20.15
L 33.75 -24.85
Q 30.4 -27.45 30.75 -29.85 29.6 -28.95 28.6 -27.4 26.5 -24.25 26.9 -20.65 27.9 -12.05 39.65 -10.35 40.35 -11.9 40.6 -13.85 41.2 -17.8 39.35 -20.15 Z"/>
</g>

<g id="Symbol_267_0_Layer0_7_FILL">
<path fill="#FFFFFF" stroke="none" d="
M 35.65 -18.8
Q 27 -20.05 21.4 -16 19.45 -14.75 17.45 -12.25 15.95 -10.7 15.3 -9.4 13.35 -6.15 11.45 0.05 10.55 3.05 10 5.55
L 6.8 7.4
Q 3.5 10.1 2.9 14.1 2.35 17.8 4.5 20.75 6.05 22.95 8.6 24.35 11.35 25.75 18.55 26.3 25.25 26.8 29 26.1 32.85 25.4 34.9 24 38.45 21.65 39.35 16.35 42.9 16.75 44.5 15.7 46.7 14.15 46.95 9 47.3 -1.45 45.85 -7.35 43.45 -17.7 35.65 -18.8 Z"/>
</g>
</defs>

<g transform="matrix( 2, 0, 0, 1.9998779296875, 100.1,433.95) ">
<g transform="matrix( 1, 0, 0, 1, 0,0) ">
<use filter="url(#Filter_1)" xlink:href="#Symbol_267_0_Layer0_0_FILL"/>
</g>

<g transform="matrix( 1, 0, 0, 1, 0,0) ">
<use filter="url(#Filter_1)" xlink:href="#Symbol_267_0_Layer0_1_FILL"/>
</g>

<g transform="matrix( 1, 0, 0, 1, 0,0) ">
<use filter="url(#Filter_1)" xlink:href="#Symbol_267_0_Layer0_2_FILL"/>
</g>

<g transform="matrix( 1, 0, 0, 1, 0,0) ">
<use filter="url(#Filter_1)" xlink:href="#Symbol_267_0_Layer0_3_FILL"/>
</g>

<g transform="matrix( 1, 0, 0, 1, 0,0) ">
<use filter="url(#Filter_1)" xlink:href="#Symbol_267_0_Layer0_4_FILL"/>
</g>

<g transform="matrix( 1, 0, 0, 1, 0,0) ">
<use filter="url(#Filter_1)" xlink:href="#Symbol_267_0_Layer0_5_FILL"/>
</g>

<g transform="matrix( 1, 0, 0, 1, 0,0) ">
<use filter="url(#Filter_1)" xlink:href="#Symbol_267_0_Layer0_6_FILL"/>
</g>

<g transform="matrix( 1, 0, 0, 1, 0,0) ">
<use filter="url(#Filter_1)" xlink:href="#Symbol_267_0_Layer0_7_FILL"/>
</g>
</g>
</svg>
