
<svg xmlns="http://www.w3.org/2000/svg" version="1.1" xmlns:xlink="http://www.w3.org/1999/xlink" preserveAspectRatio="none" x="0px" y="0px" width="268px" height="285px" viewBox="0 0 268 285">
<defs>
<filter id="Filter_1" x="-20%" y="-20%" width="140%" height="140%" color-interpolation-filters="sRGB">
<feColorMatrix in="SourceGraphic" type="matrix" values="0 0 0 0 1 0 0 0 0 0 0 0 0 0 0.4 0 0 0 1 0" result="result1"/>
</filter>

<g id="anims_pony_walk_anim_clean_flats_19_Layer0_0_FILL">
<path fill="#FFFFFF" stroke="none" d="
M 42.95 39.15
Q 42.9708984375 37.8982421875 42.8 36.6 41.5 26.2 39.15 20.6 36.5794921875 14.455859375 32.5 12.2 31.9677734375 10.2259765625 30.65 9 29.75 8.2 24.35 5.25 20.65 3.3 20.6 0.85
L 18.85 3.6
Q 17.3 7.1 18.25 10.5 18.5423828125 11.5171875 18.95 12.4 16.5923828125 13.3708984375 14.75 14.95 12.85 16.5 9.05 22.3 7.15 25.1 6.3 29.7 5.85 32.1 5.2 35.7 4.85 36.8 1.8 41.55 -0.9 45.7 -0.7 47.2 -0.35 49.7 0.65 53 1.9 56.9 3.2 58.15 4.65 59.55 8.55 61.05 12.4 62.55 14.45 62.55 17 62.55 19.65 61.1 22.85 59.3 23.8 56.2
L 28.1 56.4
Q 28.192578125 56.39609375 28.25 56.4
L 30.2 61.25
Q 31.2890625 64.0505859375 32.1 66.1 26.3828125 69.4798828125 25.6 77.7 24.85 85.8 29.15 90 30.1859375 91.0197265625 31.65 91.9 31.6900390625 96.753125 29.65 101.4 27.123046875 107.068359375 27 112.65 25.606640625 116.5556640625 24.65 120.25 23.94375 123.0134765625 23.5 125.95
L 23.3 125.95
Q 22.647265625 129.2138671875 22.85 132.75 22.7908203125 135.3404296875 22.95 137.6 25.15 138.6 28.5 139 33.5736328125 139.563671875 38.25 138 39.798046875 137.594140625 41.35 137 41.25 135.45 41.2 133.05 41.0716796875 132.9416015625 40.95 132.8 40.822265625 131.2451171875 40.7 129.75 45.648828125 128.3708984375 49.85 125.75 46 118.6 42.6 108.45 42.480859375 108.1046875 42.4 107.7 42.789453125 105.91875 43.25 104.3 44.5798828125 99.5546875 45.85 96.2 49.0296875 96.6283203125 51.9 96.55 57.7697265625 96.39296875 62.2 94.35 63.0052734375 94.8447265625 63.8 95.15 64.3404296875 95.8201171875 64.95 96.45 65.04921875 96.555859375 65.15 96.65
L 65.4 102.2
Q 65.45 103.15 61.7 107.5 57.75 112.05 57.55 115.3 57.35 118.95 58.35 124.75 58.9 127.6 59.45 129.8 63.0767578125 129.7505859375 66.55 128.85 65.887890625 133.3943359375 66 138.25 71.8357421875 140.943359375 78.35 140.5 78.6876953125 140.4716796875 79 140.4 79.4376953125 140.4005859375 79.85 140.35 83.5 139.85 85.9 138.8 83.7 132.85 84.6 122.3 85.95 112 85.9 109.8 85.8 107.5 82.45 102.3 79.1 97.05 79 95.35 78.95 93.7 80.7 88.35 82.35 82.95 82.3 80.15 82.15 75.55 78.9 71.85 75.6013671875 68.170703125 70.45 67.6 68.2640625 66.5376953125 66.05 66.6 60.65 67.45 57.8 67.85 55.96171875 68.1328125 54.35 68.1 54.015625 66.9453125 53.35 65.5 52.15 62.85 47.75 51.05
L 43.6 39.85
Q 43.33046875 39.47265625 42.95 39.15 Z"/>
</g>
</defs>

<g transform="matrix( 2, 0, 0, 1.9998779296875, 9.9,2.9) ">
<g transform="matrix( 1, 0, 0, 1, 0.2,0) ">
<g transform="matrix( 1, 0, 0, 1, 0,0) ">
<use filter="url(#Filter_1)" xlink:href="#anims_pony_walk_anim_clean_flats_19_Layer0_0_FILL"/>
</g>
</g>
</g>
</svg>
