<?xml version="1.0" encoding="UTF-8" standalone="no"?>
<svg
   version="1.1"
   preserveAspectRatio="none"
   x="0px"
   y="0px"
   width="264"
   height="283"
   viewBox="0 0 264 283"
   id="svg2661"
   sodipodi:docname="pony_female_walk_bg_0007.svg"
   xmlns:inkscape="http://www.inkscape.org/namespaces/inkscape"
   xmlns:sodipodi="http://sodipodi.sourceforge.net/DTD/sodipodi-0.dtd"
   xmlns="http://www.w3.org/2000/svg"
   xmlns:svg="http://www.w3.org/2000/svg">
  <sodipodi:namedview
     id="namedview2663"
     pagecolor="#ffffff"
     bordercolor="#000000"
     borderopacity="0.25"
     inkscape:showpageshadow="2"
     inkscape:pageopacity="0.0"
     inkscape:pagecheckerboard="0"
     inkscape:deskcolor="#d1d1d1"
     showgrid="false" />
  <defs
     id="defs2607">
    <filter
       id="Filter_1"
       x="0"
       y="0"
       width="1"
       height="1"
       color-interpolation-filters="sRGB">
      <feColorMatrix
         in="SourceGraphic"
         type="matrix"
         values="0 0 0 0 0 0 0 0 0 0.8 0 0 0 0 0.4 0 0 0 1 0"
         result="result1"
         id="feColorMatrix2574" />
    </filter>
  </defs>
  <path
     fill="#FFFFFF"
     id="path2665"
     d="m -4.0426749,-37.383637 c -0.6759461,0.691086 -1.2880465,1.599892 -1.8364346,2.726062 -1.0972199,2.285671 -1.3609322,4.582469 -0.7915797,6.890326 0.1744248,0.68339 0.3974997,1.324987 0.668806,1.92635 -2.120582,0.77727 -3.9704468,1.910641 -5.5412138,3.409221 -1.147024,1.01819 -2.281651,2.419559 -3.405547,4.204815 -0.849259,1.188839 -1.430809,2.23129 -1.742772,3.127245 -0.997669,2.320334 -1.857649,5.6092626 -2.581068,9.8668139 -0.361266,2.0954443 -0.619761,3.9753221 -0.77527,5.64011973 l -2.881377,2.31276407 c -1.961176,2.0741466 -2.959364,4.4444905 -2.994858,7.1110063 -0.03327,2.499859 0.788092,4.64421 2.464481,6.433405 1.216404,1.283012 2.737136,2.270056 4.561492,2.961089 l 10.0925289,0.684014 c 4.4708507,-0.273858 7.91098039,-0.794891 10.3214928,-1.562899 0.1165294,-0.03713 0.2244662,-0.0762 0.3382035,-0.113941 l 3.7073191,10.214165 c -3.8639694,2.125487 -6.14320701,5.932272 -6.8294032,11.427299 -0.6326739,5.366716 0.45107194,9.49959 3.2514115,12.399233 0.4053473,0.41832 0.8688812,0.821907 1.3857581,1.21201 -0.086189,1.09273 -0.24876,2.069309 -0.4962363,2.915799 -2.74393947,6.49527 -5.1248305,12.500502 -7.14186,18.015024 -3.9241485,10.665189 -5.5619737,18.190556 -4.9138763,22.57679 1.283376,0.635072 3.0215992,1.099136 5.2146634,1.392038 3.63569237,0.48854 7.3259763,0.266433 11.0698631,-0.661292 -0.093366,1.039459 -0.1335749,1.912559 -0.1176451,2.60949 1.2869899,0.50178 2.9963512,0.81477 5.1272845,0.93924 1.635067,0.0959 3.254179,0.0314 4.858031,-0.19266 3.008014,-0.16297 5.941561,-0.74225 8.800151,-1.738011 C 25.469374,93.1976 24.897578,86.611988 24.054264,79.585924 l -2.22694,-20.275947 c 0.937592,0.07288 1.856943,0.111015 2.757046,0.110905 2.610024,-3.19e-4 5.009954,-0.285862 7.204967,-0.847179 0.06079,0.07704 0.118889,0.155099 0.181307,0.231596 1.160475,1.478062 2.348439,2.57179 3.563084,3.281854 l 0.335241,2.409749 c 0.216561,1.852592 0.304658,3.501726 0.265467,4.947261 -0.08085,1.752192 -0.271876,3.255511 -0.572657,4.509281 -0.198694,0.870012 -0.476127,1.797075 -0.824602,2.774992 -1.255714,2.215511 -2.162482,4.063754 -2.701753,5.525353 -0.515467,1.467915 -0.901213,3.141972 -1.166525,5.008096 -0.287136,1.185502 -0.562879,2.462019 -0.824564,3.854654 l -0.967196,6.160579 c 0.370928,0.170026 0.744904,0.327695 1.120322,0.479828 0.005,0.03425 0.0095,0.0704 0.01477,0.10397 0.158993,0.03238 0.317675,0.06339 0.477189,0.09306 3.814546,1.458897 7.858,2.003518 12.131186,1.634286 2.47432,-0.240699 4.520584,-0.661508 6.13765,-1.264016 -0.255721,-0.702866 -0.463372,-1.458636 -0.624447,-2.265167 0.445769,-0.184973 0.864118,-0.375949 1.251474,-0.573805 -0.09109,-0.120419 -0.16155,-0.306225 -0.211623,-0.554851 -0.342555,-6.261391 0.586876,-15.086543 2.79526,-26.487796 0.312671,-1.6923 -0.111541,-3.888344 -1.272253,-6.5877 -1.321912,-2.903819 -1.985416,-4.855213 -1.991635,-5.855839 -0.03593,-1.134825 0.73462,-3.131701 2.312806,-5.990236 1.717807,-3.088189 2.700629,-5.512727 2.948458,-7.273481 0.40823,-2.756862 -0.472005,-5.331783 -2.641474,-7.725005 -1.940237,-2.13516 -4.333421,-3.40071 -7.175619,-3.802874 -1.590644,-0.892083 -3.196634,-1.338503 -4.818477,-1.338305 L 31.23124,30.87038 c -1.276601,0.159733 -2.469027,0.214035 -3.578397,0.165808 -0.200342,-0.807881 -0.516639,-1.718854 -0.952653,-2.736221 L 17.700076,2.3502204 C 17.538717,2.1124274 17.352582,1.8907187 17.14362,1.6853817 17.187231,0.894661 17.165675,0.01877568 17.074346,-0.94872158 16.400007,-7.8918679 15.338684,-13.255998 13.888904,-17.042419 c -1.578478,-4.168778 -3.700994,-7.040535 -6.3670416,-8.617444 -0.3239635,-1.31745 -0.9151631,-2.399017 -1.776232,-3.2422 -0.5595358,-0.540847 -2.6088023,-1.851632 -6.14820306,-3.932326 -2.44833644,-1.399424 -3.66184224,-2.916007 -3.64010224,-4.549248 z"
     style="filter:url(#Filter_1)"
     transform="matrix(1.9990845,-0.05419922,0.05419922,1.9989624,59.1,77.4)" />
</svg>
