
<svg xmlns="http://www.w3.org/2000/svg" version="1.1" xmlns:xlink="http://www.w3.org/1999/xlink" preserveAspectRatio="none" x="0px" y="0px" width="330px" height="358px" viewBox="0 0 330 358">
<defs>
<filter id="Filter_1" x="-20%" y="-20%" width="140%" height="140%" color-interpolation-filters="sRGB">
<feColorMatrix in="SourceGraphic" type="matrix" values="0 0 0 0 1 0 0 0 0 0 0 0 0 0 0.4 0 0 0 1 0" result="result1"/>
</filter>

<g id="anims_pony_jump_anim_clean_flats_24_Layer0_0_FILL">
<path fill="#FFFFFF" stroke="none" d="
M 6 48.45
Q 1.8 46.9 1.8 45.05
L -0.25 47.2
Q -2.05 49.8 -1 52.45 -0.694921875 53.209765625 -0.25 53.85 -2.937109375 54.5828125 -5.05 55.75 -7.2 56.95 -11.65 61.3 -13.85 63.45 -14.95 66.9 -15.5 68.75 -16.25 71.45 -16.65 72.3 -20.2 75.95 -23.3 79.05 -23.15 80.2 -22.75 82.1 -21.7 84.6 -20.35 87.6 -18.9 88.55 -17.25 89.6 -12.85 90.8 -8.45 92 -6.1 91.95 -3.2 92 -0.2 90.95 3.4 89.55 4.55 87.2
L 9.4 87.4
Q 14.269140625 87.266015625 17.3 86.05 18.309765625 86.9798828125 19.55 87.6
L 26.95 91.7
Q 26.3447265625 93.9912109375 26.45 96.8 26.7603515625 102.7345703125 29.9 106.2
L 28.35 108.4
Q 25.55 113.5 27.95 115.95 23.85 115.4 20.9 116.65 16.45 118.4 15.2 123.95 14.15 128.95 14.55 133.05
L 20.3 134.75
Q 23.1341796875 135.416796875 25.85 135.7 26.1169921875 137.259765625 26.5 138.7
L 32.4 139.7
Q 39.35 140.3 45.1 138.5 44.15 133.7 42.35 127.35 41.8 125.4 42.05 124.35 42.3 123.15 44 121.5 46.15 119.35 47.4 114.15
L 47.65 112.3
Q 49.114453125 112.42578125 50.5 112.45 53.021875 116.6880859375 59.05 115.95 54.25 119.6 53.05 123.35 51.95 126.7 51.65 130.85 51.5 132.95 51.6 134.35 56.75234375 136.11875 62.25 135.9 62.2955078125 136.98828125 62.4 137.85 69.2 140.75 76.4 139.9 80.05 139.4 82.25 138.4 79.4 132.55 79.65 124.15 80.6 116.25 80.7 115.2 80.9 113.2 79.5 111.3 77.75 109.2 74.15 107.65 78.1 103.7 79.85 101.4 83.25 96.85 82.8 93.6 82.2 89.55 78.55 86.35 74.55 82.8 69.3 82.8
L 69.25 82.85
Q 68.240625 82.79296875 67.25 82.9 61.7 84.15 58.8 84.75 57.1013671875 85.1345703125 55.55 85.25 54.0916015625 83.9884765625 51.25 82.6 48.2 81.1 35.35 73.8
L 25.55 68.3
Q 24.3185546875 63.340234375 22.45 60.25 19.6873046875 55.5408203125 15.1 53.8 14.5490234375 52.2984375 13.05 51.35 12.1 50.75 6 48.45 Z"/>
</g>
</defs>

<g transform="matrix( 2, 0, 0, 1.9998779296875, 55.6,72.4) ">
<g transform="matrix( 1, 0, 0, 1, 0.05,-3) ">
<g transform="matrix( 1, 0, 0, 1, 0,0) ">
<use filter="url(#Filter_1)" xlink:href="#anims_pony_jump_anim_clean_flats_24_Layer0_0_FILL"/>
</g>
</g>
</g>
</svg>
