
<svg xmlns="http://www.w3.org/2000/svg" version="1.1" xmlns:xlink="http://www.w3.org/1999/xlink" preserveAspectRatio="none" x="0px" y="0px" width="268px" height="285px" viewBox="0 0 268 285">
<defs>
<linearGradient id="Gradient_1" gradientUnits="userSpaceOnUse" x1="60.150000000000006" y1="130.75" x2="80.15" y2="122.05000000000001" spreadMethod="pad">
<stop  offset="23.529411764705884%" stop-color="#FFFFFF" stop-opacity="0.6980392156862745"/>

<stop  offset="98.43137254901961%" stop-color="#FFFFFF" stop-opacity="0"/>
</linearGradient>

<filter id="Filter_1" x="-20%" y="-20%" width="140%" height="140%" color-interpolation-filters="sRGB">
<feColorMatrix in="SourceGraphic" type="matrix" values="0 0 0 0 1 0 0 0 0 0 0 0 0 0 0.4 0 0 0 1 0" result="result1"/>
</filter>

<g id="anims_pony_walk_anim_clean_flats_6_Layer0_0_FILL">
<path fill="url(#Gradient_1)" stroke="none" d="
M 58.65 134.8
Q 58.6908203125 134.850390625 58.7 134.9 58.9349609375 134.9412109375 59.15 134.95 58.922265625 134.891796875 58.65 134.8 Z"/>

<path fill="#FFFFFF" stroke="none" d="
M 43.1 39.25
Q 43.130078125 37.91875 42.95 36.55 41.65 26.15 39.35 20.55 36.803125 14.3556640625 32.7 12.1 32.2013671875 10.1408203125 30.9 8.9 30 8.15 24.65 5.15 20.9 3.15 20.85 0.7
L 19.1 3.5
Q 17.55 6.95 18.5 10.4 18.784765625 11.4060546875 19.2 12.3 16.8134765625 13.2404296875 14.95 14.8 13.1 16.35 9.2 22.1 7.3 24.95 6.4 29.5 5.95 31.9 5.3 35.55 4.95 36.65 1.9 41.4 -0.8 45.5 -0.65 47 -0.3 49.5 0.7 52.8 1.95 56.75 3.2 57.95 4.65 59.35 8.55 60.9 12.45 62.4 14.5 62.4 17.05 62.4 19.7 61 22.95 59.2 23.9 56.05
L 28.2 56.3 28.25 56.3 30.15 61.2
Q 31.2625 64.044921875 32.05 66.1 26.430078125 69.447265625 25.6 77.7 24.9 85.75 29.2 90 29.8484375 90.63828125 30.65 91.2 30.5921875 92.8994140625 30.25 94.2 26.4 104.05 23.6 112.4 18.15 128.55 19.3 135.1 21.25 136 24.55 136.35 30.01953125 136.9345703125 35.6 135.4 35.49765625 136.9541015625 35.55 138 37.5 138.7 40.7 138.8 43.1578125 138.87734375 45.55 138.45 50.056640625 138.1083984375 54.3 136.5 53.6 127.3 52.05 116.8 50.8046875 108.4380859375 49.25 96.5 50.6267578125 96.5861328125 51.95 96.55 55.87890625 96.444921875 59.15 95.5 59.276953125 95.65703125 59.4 95.8 61.2 98 63.05 99
L 63.45 101.4
Q 63.85 104.15 63.85 106.35 63.8 108.95 63.4 110.85 63.1392578125 112.153515625 62.65 113.6 60.853125 117.024609375 60.1 119.25 59.374609375 121.509765625 59.05 124.35 58.6755859375 126.1220703125 58.35 128.15 57.8 131.6 57.55 134.35 58.112890625 134.5880859375 58.65 134.8 58.922265625 134.891796875 59.15 134.95 64.956640625 137.0005859375 71.35 136.3 75.05 135.8 77.45 134.85 77.038671875 133.807421875 76.75 132.6 77.426953125 132.3125 78 132 77.85390625 131.8173828125 77.75 131.4 77.691015625 130.48203125 77.65 129.45 77.65 129.3650390625 77.65 129.25 77.6302734375 128.65625 77.6 128 77.49140625 119.1326171875 79.85 104.9 80.25 102.35 78.4 98.35 76.3 94.05 76.25 92.55 76.15 90.85 78.4 86.5 80.85 81.8 81.15 79.15 81.65 75 78.3 71.5 75.3404296875 68.4154296875 71.1 67.9 68.6275390625 66.5287109375 66.1 66.6 60.65 67.45 57.8 67.8 55.925 68.0912109375 54.25 68.05 53.94921875 66.9412109375 53.3 65.55 52.15 62.85 47.75 51.05
L 43.6 39.8
Q 43.391796875 39.5041015625 43.1 39.25 Z"/>
</g>
</defs>

<g transform="matrix( 2, 0, 0, 1.9998779296875, 9.9,2.9) ">
<g transform="matrix( 1, 0, 0, 1, 0.2,0) ">
<g transform="matrix( 1, 0, 0, 1, 0,0) ">
<use filter="url(#Filter_1)" xlink:href="#anims_pony_walk_anim_clean_flats_6_Layer0_0_FILL"/>
</g>
</g>
</g>
</svg>
