
<svg xmlns="http://www.w3.org/2000/svg" version="1.1" xmlns:xlink="http://www.w3.org/1999/xlink" preserveAspectRatio="none" x="0px" y="0px" width="268px" height="285px" viewBox="0 0 268 285">
<defs>
<filter id="Filter_1" x="-20%" y="-20%" width="140%" height="140%" color-interpolation-filters="sRGB">
<feColorMatrix in="SourceGraphic" type="matrix" values="0 0 0 0 1 0 0 0 0 0 0 0 0 0 0.4 0 0 0 1 0" result="result1"/>
</filter>

<g id="anims_pony_walk_anim_clean_flats_5_Layer0_0_FILL">
<path fill="#FFFFFF" stroke="none" d="
M 43.3 39.2
Q 43.325 37.825390625 43.15 36.4 41.9 26.05 39.6 20.4 37.0892578125 14.2173828125 33.05 11.9 32.5119140625 9.9703125 31.2 8.75 30.3 7.95 24.95 4.95 21.2 2.9 21.2 0.45
L 19.45 3.25
Q 17.85 6.7 18.8 10.15 19.08046875 11.16171875 19.5 12.05 17.1109375 12.992578125 15.25 14.55 13.35 16.1 9.45 21.85 7.5 24.65 6.6 29.2 6.15 31.6 5.45 35.2 5.15 36.3 2.05 41.05 -0.7 45.2 -0.5 46.7 -0.2 49.15 0.8 52.45 2 56.4 3.3 57.65 4.75 59.05 8.6 60.6 12.5 62.1 14.55 62.15 17.15 62.15 19.75 60.75 23 58.95 23.95 55.85
L 28.25 56.1 28.3 56.1 30.15 61
Q 31.2474609375 63.9646484375 32.05 66.05 26.2904296875 69.4583984375 25.55 77.8 24.85 85.85 29.25 90.05 29.70625 90.4919921875 30.25 90.9 30.12421875 92.777734375 29.7 94.2 25.65 104.05 22.6 112.4 16.75 128.55 17.7 135.1 19.65 136 22.95 136.35 28.9611328125 136.9875 35.05 135.1 34.6765625 137.2236328125 34.95 138.4 34.9904296875 138.5873046875 35.05 138.75
L 40.1 139.95
Q 46.35 140.65 52.6 138.3 52.62734375 138.1873046875 52.65 138.05 53.6220703125 136.557421875 53.3 134.3 53.50390625 133.046484375 53.6 131.7 54.05 125.65 52.5 114.25 51.75 108.65 50 100.35
L 49.05 96.35
Q 50.6283203125 96.453125 52.1 96.4 55.576171875 96.269921875 58.5 95.5 58.7134765625 95.7255859375 58.9 95.95 60.6 98.05 62.3 99
L 62.65 101.4
Q 62.95 104.15 62.9 106.35 62.8 108.95 62.35 110.85 62.1291015625 111.869921875 61.75 113 60.217578125 115.5248046875 59.9 117.55 59.8921875 117.6611328125 59.85 117.75 58.15 121.3 56.9 128.15 56.25 131.6 55.95 134.35 62.35 137.1 69.7 136.3 73.4 135.8 75.8 134.85 75.02421875 132.7361328125 74.8 129.95 75.0888671875 129.841796875 75.35 129.7 75.7599609375 129.471484375 76.15 129.25 79.5072265625 127.4455078125 81.45 125.6 80.4 124.4 79.4 122.65 79.0791015625 122.5662109375 78.75 122.45 77.4609375 118.98515625 78.5 114.05 81.1 106.4 81.35 104.25 81.65 101.85 79.15 97.7 76.4 93.15 76.3 91.75 76.15 90.1 78.5 86 81 81.65 81.2 79.1 81.5 75 78.45 71.55 75.5845703125 68.2998046875 71.35 67.8 68.6828125 66.28671875 66 66.4 60.55 67.25 57.75 67.65 55.8314453125 67.963671875 54.15 67.95 53.839453125 66.8673828125 53.25 65.55 52.1 62.85 47.8 51.05
L 43.75 39.75
Q 43.5529296875 39.4595703125 43.3 39.2
M 38.9 105.9
Q 39.0873046875 112.4541015625 38.95 115.2 38.6373046875 120.8642578125 37.4 126.2 37.224609375 126.203125 37.05 126.2 36.9453125 127.4814453125 36.65 129.15 36.5267578125 129.6095703125 36.4 130.05 36.8875 117.084375 38.25 109.25 38.545703125 107.6015625 38.9 105.9 Z"/>
</g>
</defs>

<g transform="matrix( 2, 0, 0, 1.9998779296875, 9.9,2.9) ">
<g transform="matrix( 1, 0, 0, 1, 0.2,0) ">
<g transform="matrix( 1, 0, 0, 1, 0,0) ">
<use filter="url(#Filter_1)" xlink:href="#anims_pony_walk_anim_clean_flats_5_Layer0_0_FILL"/>
</g>
</g>
</g>
</svg>
