
<svg xmlns="http://www.w3.org/2000/svg" version="1.1" xmlns:xlink="http://www.w3.org/1999/xlink" preserveAspectRatio="none" x="0px" y="0px" width="330px" height="358px" viewBox="50 364 330 358">
<defs>
<filter id="Filter_1" x="-20%" y="-20%" width="140%" height="140%" color-interpolation-filters="sRGB">
<feColorMatrix in="SourceGraphic" type="matrix" values="0 0 0 0 0.4 0 0 0 0 0.8 0 0 0 0 0.4 0 0 0 1 0" result="result1"/>
</filter>

<g id="Symbol_141_0_Layer0_0_FILL">
<path fill="#FFFFFF" stroke="none" d="
M 71.35 50.65
L 61.5 62.5
Q 60.75 67.15 63.55 71.55 64.9 73.75 66.4 75
L 65.9 77.25
Q 65.4 79.75 65.45 81.25
L 64.9 86.05 63.65 92.85
Q 63.2 96 63.75 101.95 64.1 104.95 64.55 107.25 71.25 109 77.9 107.5 81.2 106.7 83.15 105.65 77.35 98 79.3 85.85 79.6 84.1 77.5 79.35 75.4 74.65 75.65 73.35 75.8 72.05 78.35 68.3 80.85 64.5 81.25 62.35 81.75 59.05 79.15 55.55 76.25 51.75 71.35 50.65 Z"/>
</g>

<g id="Symbol_141_0_Layer0_1_FILL">
<path fill="#FFFFFF" stroke="none" d="
M 40 57.35
Q 38.4 61.85 36.4 63.85
L 33.3 66.75
Q 30.45 69.3 28.6 71.7 22.5 79.3 23.65 86.1 25.05 95 27.8 98.95
L 33.4 98.7
Q 40.1 97.8 45.5 93.95
L 40.3 81.9
Q 39.15 79.05 39.05 77.8 38.9 76 40.3 75.7 45.2 74.3 47.45 70.65
L 48.65 67.3
Q 50.05 65.7 50.9 63.4 52.6 58.65 49.25 54.85 45.65 50.75 43.7 50.7 42.2 50.75 41.2 53.25
L 40 57.35 Z"/>
</g>

<g id="Symbol_141_0_Layer0_2_FILL">
<path fill="#FFFFFF" stroke="none" d="
M 67 43.95
Q 65.2 41.3 58.3 29.55
L 51.75 18.35
Q 50.45 17.05 48.25 16.6 43.95 15.85 39.6 20.6 36.05 24.4 36.3 28.5 36.35 30.9 37.6 32.9
L 49.1 51.8
Q 50.65 53.9 54.75 55.35 59.95 57.25 64.45 54.95 69.25 52.45 69.35 49.65 69.5 47.7 67 43.95 Z"/>
</g>

<g id="Symbol_141_0_Layer0_3_FILL">
<path fill="#FFFFFF" stroke="none" d="
M 84.55 60.65
Q 87 57 88.25 53.6 89.7 49.5 85.7 45.85 82.2 42.75 78.6 42.45
L 70.15 42.75
Q 64.85 42.95 61.45 41.05 55.75 37.9 54.45 37.5 49.4 35.85 44.3 38.1 38.2 40.75 37.1 49.05 36.15 57 40.4 61.7 43.55 65.15 51.15 67.9 57.75 70.3 63.4 70.75 72.9 71.5 78.8 67.2 81.7 65.05 84.55 60.65 Z"/>
</g>

<g id="Symbol_141_0_Layer0_4_FILL">
<path fill="#FFFFFF" stroke="none" d="
M 87.65 62.9
Q 90 58.2 90.25 55.6 90.65 51.6 87.9 47.7 84.85 43.4 79.9 42.55
L 70.45 57.5
Q 69.9 63.15 72.85 68.1 74.3 70.55 75.85 71.95
L 75.45 74.65
Q 75.05 77.7 75.2 79.4 75.3 81 74.8 85.25
L 73.8 93.4
Q 73.45 97.2 74.25 104.2 74.7 107.75 75.25 110.5 82.1 111.95 88.65 109.55 91.95 108.35 93.85 106.85 87.75 98.3 89.25 83.7 89.45 81.55 87.15 76.15 84.9 70.8 85.05 69.2 85.2 67.65 87.65 62.9 Z"/>
</g>

<g id="Symbol_141_0_Layer0_5_FILL">
<path fill="#FFFFFF" stroke="none" d="
M 40.4 65.55
L 37.9 69
Q 35.7 72.1 34.35 74.8 29.95 83.5 32.55 89.95 35.75 98.35 39.25 101.65
L 44.7 100.25
Q 51.05 97.95 55.55 93.1
L 47.95 82.3
Q 46.2 79.8 45.85 78.55 45.4 76.9 46.7 76.2 51.2 73.9 52.55 69.9
L 53.05 66.4
Q 54.15 64.55 54.5 62.05 55.15 57.05 51.1 54.05 46.7 50.75 44.75 51.15 43.35 51.45 42.9 54.15
L 42.55 58.45
Q 41.95 63.15 40.4 65.55 Z"/>
</g>

<g id="Symbol_141_0_Layer0_6_FILL">
<path fill="#FFFFFF" stroke="none" d="
M 39.85 -24.75
L 37.3 -22.65
Q 34.75 -19.8 34.6 -16.25 34.3 -7.6 45.65 -4.1 46.55 -5.55 47.1 -7.45 48.3 -11.3 46.85 -13.85 46.25 -14.85 42.05 -19.4 39.1 -22.4 39.85 -24.75 Z"/>
</g>

<g id="Symbol_141_0_Layer0_7_FILL">
<path fill="#FFFFFF" stroke="none" d="
M 28.45 -12.5
Q 26.4 -11.5 24 -9.45 22.25 -8.05 21.45 -6.9 19.05 -3.95 16.2 1.85
L 13.85 7.05 10.5 8.45
Q 6.75 10.6 5.6 14.45 4.5 18.05 6.15 21.3 7.35 23.7 9.7 25.45 12.2 27.3 19.2 28.9 25.75 30.4 29.55 30.35 33.5 30.2 35.7 29.15 39.65 27.35 41.3 22.2
L 46.45 22.4
Q 48.9 21.15 49.9 16.15 51.85 5.85 51.35 -0.2 50.5 -10.85 42.95 -13.15 34.6 -15.7 28.45 -12.5 Z"/>
</g>
</defs>

<g transform="matrix( 2, 0, 0, 1.9998779296875, 100.1,433.95) ">
<g transform="matrix( 1, 0, 0, 1, 0,0) ">
<use filter="url(#Filter_1)" xlink:href="#Symbol_141_0_Layer0_0_FILL"/>
</g>

<g transform="matrix( 1, 0, 0, 1, 0,0) ">
<use filter="url(#Filter_1)" xlink:href="#Symbol_141_0_Layer0_1_FILL"/>
</g>

<g transform="matrix( 1, 0, 0, 1, 0,0) ">
<use filter="url(#Filter_1)" xlink:href="#Symbol_141_0_Layer0_2_FILL"/>
</g>

<g transform="matrix( 1, 0, 0, 1, 0,0) ">
<use filter="url(#Filter_1)" xlink:href="#Symbol_141_0_Layer0_3_FILL"/>
</g>

<g transform="matrix( 1, 0, 0, 1, 0,0) ">
<use filter="url(#Filter_1)" xlink:href="#Symbol_141_0_Layer0_4_FILL"/>
</g>

<g transform="matrix( 1, 0, 0, 1, 0,0) ">
<use filter="url(#Filter_1)" xlink:href="#Symbol_141_0_Layer0_5_FILL"/>
</g>

<g transform="matrix( 1, 0, 0, 1, 0,0) ">
<use filter="url(#Filter_1)" xlink:href="#Symbol_141_0_Layer0_6_FILL"/>
</g>

<g transform="matrix( 1, 0, 0, 1, 0,0) ">
<use filter="url(#Filter_1)" xlink:href="#Symbol_141_0_Layer0_7_FILL"/>
</g>
</g>
</svg>
