
<svg xmlns="http://www.w3.org/2000/svg" version="1.1" xmlns:xlink="http://www.w3.org/1999/xlink" preserveAspectRatio="none" x="0px" y="0px" width="330px" height="358px" viewBox="0 0 330 358">
<defs>
<filter id="Filter_1" x="-20%" y="-20%" width="140%" height="140%" color-interpolation-filters="sRGB">
<feColorMatrix in="SourceGraphic" type="matrix" values="0 0 0 0 1 0 0 0 0 0 0 0 0 0 0.4 0 0 0 1 0" result="result1"/>
</filter>

<g id="anims_pony_jump_anim_clean_flats_2_Layer0_0_FILL">
<path fill="#FFFFFF" stroke="none" d="
M 93.75 93.65
Q 93.45 89.55 90.05 86.35 86.3 82.85 81.05 82.85
L 81 82.9
Q 75.6919921875 82.594921875 72.9 82.35 71.2068359375 82.2533203125 69.75 81.95 69.223828125 80.6759765625 68.1 79.05 66.55 76.7 60.35 66.05
L 54.45 55.85
Q 53.92890625 55.30625 53.2 54.95 54.43125 46.2255859375 53.8 40.95 53.0169921875 34.46640625 49.75 31.25 49.744140625 29.2728515625 48.8 27.75 48.2 26.75 43.8 22.55 40.75 19.7 41.4 17.4
L 38.95 19.55
Q 36.5 22.4 36.5 25.85 36.5 26.862109375 36.65 27.8 34.1064453125 28.058203125 31.9 29.05 29.65 30 24.35 34.4 21.75 36.55 19.65 40.6 18.55 42.7 16.95 45.95 16.3 46.85 12.05 50.5 8.35 53.65 8.1 55.1 7.75 57.55 7.8 60.9 7.95 64.9 8.8 66.45 9.85 68.1 13.2 70.55 16.55 73 18.5 73.55 20.95 74.25 23.85 73.65 27.45 72.8 29.2 70.1
L 33.3 71.5
Q 37.4703125 72.431640625 40.4 71.6
L 44 77.6
Q 40.9369140625 80.201171875 39.3 85.05 37.5935546875 90.418359375 38.75 94.45 37.7396484375 95.13671875 36.25 95.75 31.55 97.65 29.9 98.55 25.55 100.95 23.2 104.5 20.85 108 19.55 114.9 18.05 122.55 19.5 126.7
L 24.5 127.1
Q 24.6140625 129.037890625 25.1 130.55
L 31.55 131.15
Q 38.85 131.1 42.95 127.35 42.7 123.1 40.6 116.75 39.65 113.95 43.05 111.25 46.3 108.6 49.3 108.65 53.13125 108.72734375 55.1 106.85 56.9177734375 107.5037109375 58.65 107.95 58.0884765625 109.49609375 57.95 111.2 57.35 117.6 65 117 58.75 120.4 56 124.05 53.5 127.3 51.5 131.4 50.5 133.45 50 134.85 55.6 137.35 63.2 136.6 67 136.2 69.65 135.3 69.2640625 131.0111328125 71.9 125.1 71.8892578125 125.2265625 71.85 125.35 70.65 129.1 70.25 133.9 70.05 136.3 70.1 137.95 76.7 140.85 84 139.95 87.65 139.5 89.95 138.45 87.5 132.6 88.4 124.2 89.9 116.3 90.1 115.2 90.45 113.25 89.15 111.35 87.6 109.2 84.1 107.65 88.35 103.75 90.25 101.45 94 96.9 93.75 93.65
M 78.1 117.1
Q 75.6861328125 119.0705078125 74.1 121.1 75.6880859375 118.5859375 76.55 117.15 77.3029296875 117.175390625 78.1 117.1 Z"/>
</g>
</defs>

<g transform="matrix( 2, 0, 0, 1.9998779296875, 55.6,72.4) ">
<g transform="matrix( 1, 0, 0, 1, 0.05,-3) ">
<g transform="matrix( 1, 0, 0, 1, 0,0) ">
<use filter="url(#Filter_1)" xlink:href="#anims_pony_jump_anim_clean_flats_2_Layer0_0_FILL"/>
</g>
</g>
</g>
</svg>
