
<svg xmlns="http://www.w3.org/2000/svg" version="1.1" xmlns:xlink="http://www.w3.org/1999/xlink" preserveAspectRatio="none" x="0px" y="0px" width="330px" height="358px" viewBox="50 364 330 358">
<defs>
<filter id="Filter_1" x="-20%" y="-20%" width="140%" height="140%" color-interpolation-filters="sRGB">
<feColorMatrix in="SourceGraphic" type="matrix" values="0 0 0 0 0.4 0 0 0 0 0.8 0 0 0 0 0.4 0 0 0 1 0" result="result1"/>
</filter>

<g id="Symbol_437_0_Layer0_0_FILL">
<path fill="#FFFFFF" stroke="none" d="
M 65.9 72.55
L 55.7 87.85
Q 55.3 93.15 58.7 97.25 60.45 99.3 62.25 100.35
L 61.9 102.9
Q 61.5 105.8 61.65 107.35 61.85 109 60.5 111.65
L 56.55 118.2
Q 54.4 121.6 52.45 128.15 51.55 131.5 51 134.1 57.6 136.75 65.6 135.9 69.6 135.5 72.3 134.55 70.6 129.4 73.85 120.05 77.6 111 77.75 109 77.95 107 75.2 102.4 72.5 97.8 72.6 96.25 72.7 94.8 75.3 90.1 77.85 85.35 78.05 82.9 78.4 79.1 75.15 76 71.55 72.55 65.9 72.55 Z"/>
</g>

<g id="Symbol_437_0_Layer0_1_FILL">
<path fill="#FFFFFF" stroke="none" d="
M 31.25 89.15
L 31.3 93.3
Q 31.15 98.05 29.85 100.3 29.2 101.6 22.95 106.5 16.85 112.25 15.8 118.6 14.35 127.15 15.65 131.7
L 21.1 133.75
Q 27.8 135.6 34.25 134.4
L 33.1 121.5
Q 32.95 119.1 33.65 116.75 34.2 114.75 35.65 112.05 38.3 107.4 40.7 103.85
L 42.65 101.2
Q 43.65 99.35 43.7 96.9 43.8 92.05 39.45 89.1 34.65 85.85 32.8 86.3 31.35 86.6 31.25 89.15 Z"/>
</g>

<g id="Symbol_437_0_Layer0_2_FILL">
<path fill="#FFFFFF" stroke="none" d="
M 29.75 47.1
Q 28.1 46.1 26.05 46.3 21.95 46.85 19.95 53.3 18.25 58.45 19.95 62.75 20.9 65.3 22.8 67
L 40 83.4
Q 42.15 85.15 46.25 85.4 51.55 85.75 54.7 81.85 57.9 77.75 57.05 74.75 56.45 72.6 52.75 69.4
L 29.75 47.1 Z"/>
</g>

<g id="Symbol_437_0_Layer0_3_FILL">
<path fill="#FFFFFF" stroke="none" d="
M 27.3 83.45
Q 27.85 91.25 32.85 95.05 36.6 97.8 44.5 99.15
L 57.05 99.8
Q 66.5 98.95 71.55 93.8 74 91.25 76.05 86.5 77.75 82.6 78.35 79.15 79.1 74.95 74.5 72.15 70.45 69.75 66.85 70.05
L 58.65 71.85 49.75 71.6
Q 43.65 69.65 42.3 69.45 37 68.7 32.4 71.75 26.85 75.3 27.3 83.45 Z"/>
</g>

<g id="Symbol_437_0_Layer0_4_FILL">
<path fill="#FFFFFF" stroke="none" d="
M 81.9 88.4
Q 83.8 83.55 83.65 81.05 83.45 77.15 79.8 73.95 75.75 70.45 70.1 70.45
L 62 86.1
Q 62.3 91.55 66.3 95.75 68.35 97.85 70.3 98.9
L 70.3 101.55
Q 70.3 104.5 70.65 106.05 71.1 107.8 70.1 110.5
L 67.05 117.15
Q 65.35 120.65 64.35 127.4
L 63.7 133.45
Q 70.7 136.2 78.55 135.3 82.5 134.9 85.05 133.95 82.65 128.7 84.6 119.1 87.1 109.8 87 107.8 86.9 105.7 83.5 101 80.15 96.3 80.1 94.7 79.95 93.25 81.9 88.4 Z"/>
</g>

<g id="Symbol_437_0_Layer0_5_FILL">
<path fill="#FFFFFF" stroke="none" d="
M 34.35 84.85
L 35.15 89.9
Q 35.8 95.5 35 98.5 34.6 100.1 29.3 107 24.35 114.9 24.4 122.65 24.5 133.1 26.65 138.4
L 32.3 139.95
Q 39.3 141 45.4 138.5
L 41.95 123.25
Q 41.35 120.45 41.7 117.55 41.85 115 42.8 111.55 44.55 105.55 46.3 100.9
L 47.75 97.35
Q 48.35 95.05 48 92.1 47.25 86.25 42.45 83.45 37.15 80.35 35.4 81.2 34 81.75 34.35 84.85 Z"/>
</g>

<g id="Symbol_437_0_Layer0_6_FILL">
<path fill="#FFFFFF" stroke="none" d="
M 19.85 33.4
Q 20.25 32 20.25 30.3 20.25 26.85 18.1 25.1 17.25 24.4 11.9 21.8 8.2 20.1 8.2 18 7.2 18.9 6.4 20.35 4.85 23.3 5.75 26.25 8.05 33.45 19.85 33.4 Z"/>
</g>

<g id="Symbol_437_0_Layer0_7_FILL">
<path fill="#FFFFFF" stroke="none" d="
M 29.9 48.9
Q 28.7 40 26.45 35.15 22.5 26.65 14.65 26.7 5.9 26.75 0.95 30.95 -0.7 32.3 -2.35 34.6 -3.6 36.15 -4 37.3 -5.45 40.3 -6.4 45.8
L -7.1 50.65 -9.9 52.7
Q -12.8 55.4 -12.8 58.85 -12.75 62.05 -10.2 64.35 -8.35 65.9 -5.6 66.75
L 4.45 67.2
Q 11.15 66.75 14.75 65.7 18.45 64.6 20.25 63.2 23.4 60.65 23.5 56.05 27.1 56 28.5 54.85 30.5 53.3 29.9 48.9 Z"/>
</g>
</defs>

<g transform="matrix( 2, 0, 0, 1.9998779296875, 100.1,433.95) ">
<g transform="matrix( 1, 0, 0, 1, 0,0) ">
<use filter="url(#Filter_1)" xlink:href="#Symbol_437_0_Layer0_0_FILL"/>
</g>

<g transform="matrix( 1, 0, 0, 1, 0,0) ">
<use filter="url(#Filter_1)" xlink:href="#Symbol_437_0_Layer0_1_FILL"/>
</g>

<g transform="matrix( 1, 0, 0, 1, 0,0) ">
<use filter="url(#Filter_1)" xlink:href="#Symbol_437_0_Layer0_2_FILL"/>
</g>

<g transform="matrix( 1, 0, 0, 1, 0,0) ">
<use filter="url(#Filter_1)" xlink:href="#Symbol_437_0_Layer0_3_FILL"/>
</g>

<g transform="matrix( 1, 0, 0, 1, 0,0) ">
<use filter="url(#Filter_1)" xlink:href="#Symbol_437_0_Layer0_4_FILL"/>
</g>

<g transform="matrix( 1, 0, 0, 1, 0,0) ">
<use filter="url(#Filter_1)" xlink:href="#Symbol_437_0_Layer0_5_FILL"/>
</g>

<g transform="matrix( 1, 0, 0, 1, 0,0) ">
<use filter="url(#Filter_1)" xlink:href="#Symbol_437_0_Layer0_6_FILL"/>
</g>

<g transform="matrix( 1, 0, 0, 1, 0,0) ">
<use filter="url(#Filter_1)" xlink:href="#Symbol_437_0_Layer0_7_FILL"/>
</g>
</g>
</svg>
