<?xml version="1.0" encoding="UTF-8" standalone="no"?>
<svg
   version="1.1"
   preserveAspectRatio="none"
   x="0px"
   y="0px"
   width="264"
   height="283"
   viewBox="0 0 264 283"
   id="svg1938"
   sodipodi:docname="pony_female_walk_bg_0004.svg"
   xmlns:inkscape="http://www.inkscape.org/namespaces/inkscape"
   xmlns:sodipodi="http://sodipodi.sourceforge.net/DTD/sodipodi-0.dtd"
   xmlns="http://www.w3.org/2000/svg"
   xmlns:svg="http://www.w3.org/2000/svg">
  <sodipodi:namedview
     id="namedview1940"
     pagecolor="#ffffff"
     bordercolor="#000000"
     borderopacity="0.25"
     inkscape:showpageshadow="2"
     inkscape:pageopacity="0.0"
     inkscape:pagecheckerboard="0"
     inkscape:deskcolor="#d1d1d1"
     showgrid="false" />
  <defs
     id="defs1884">
    <filter
       id="Filter_1"
       x="0"
       y="0"
       width="1"
       height="1"
       color-interpolation-filters="sRGB">
      <feColorMatrix
         in="SourceGraphic"
         type="matrix"
         values="0 0 0 0 0 0 0 0 0 0.8 0 0 0 0 0.4 0 0 0 1 0"
         result="result1"
         id="feColorMatrix1851" />
    </filter>
  </defs>
  <path
     fill="#FFFFFF"
     id="path1942"
     d="m -4.4584781,-37.423423 c -0.6695567,0.697238 -1.2730136,1.610795 -1.8110298,2.741915 -1.0761702,2.295573 -1.3193337,4.594809 -0.7288489,6.897274 0.1807074,0.681836 0.4105535,1.3218 0.68741,1.920703 -2.1134011,0.796673 -3.9522022,1.946349 -5.5091672,3.459292 -1.137599,1.028639 -2.260153,2.440562 -3.367589,4.236001 -0.838289,1.196545 -1.409764,2.245067 -1.713484,3.14382 -0.976308,2.32932 -1.806077,5.6255869 -2.490383,9.8894667 -0.342015,2.0986068 -0.583172,3.9810842 -0.723397,5.64718778 l -2.859766,2.33804762 c -1.942004,2.09199 -2.918345,4.4712858 -2.929372,7.1379338 -0.01034,2.4999821 0.830097,4.6363591 2.522779,6.4100441 1.228087,1.271758 2.75808,2.245127 4.588644,2.919371 l 10.0978495,0.592018 c 4.4680138,-0.314859 7.90339597,-0.867044 10.3066873,-1.657113 0.076522,-0.02516 0.1467745,-0.05158 0.2220824,-0.07699 l 3.8084526,10.495154 c -3.8576824,2.23253 -6.05147092,6.125441 -6.574936,11.685033 -0.4694512,5.382828 0.73962837,9.480221 3.6263495,12.293211 0.1667978,0.161995 0.3453565,0.321393 0.5297829,0.478354 -0.3032725,2.119211 -0.8441032,3.904926 -1.6242679,5.355419 l -3.7359482,6.930642 c -1.3140598,2.726656 -2.5466046,5.920617 -3.6987969,9.581467 -0.610458,2.030254 -0.9919417,4.79536 -1.1432738,8.294685 -0.1161131,3.132829 -0.030278,5.849936 0.2578959,8.151486 1.3635854,0.607031 3.111453,1.032776 5.243593,1.277081 2.5493655,0.250381 5.0537609,0.07451 7.5136454,-0.520005 l -0.5783326,3.455351 c -0.2982204,2.124454 -0.3457795,3.82883 -0.1444657,5.113984 l -0.085045,0.58555 5.3441796,1.2776 c 4.464109,0.52297 8.849799,-0.0215 13.158211,-1.63268 0.606779,-7.797112 0.809874,-14.879952 0.60928,-21.247838 -0.147298,-3.767535 -0.574886,-8.052624 -1.283539,-12.85641 l -1.129503,-7.86688 c 1.221922,0.08339 2.414637,0.115148 3.570987,0.07989 2.106756,-0.06423 4.069479,-0.311689 5.894577,-0.733428 0.0844,0.119839 0.167649,0.240168 0.255975,0.358771 1.059235,1.451427 2.153507,2.534232 3.283205,3.247649 l 0.564283,7.063119 c 0.12574,1.477391 7.33e-4,2.984602 -0.373845,4.520952 -0.476318,1.874247 -1.437562,4.130596 -2.884505,6.76899 -1.245677,2.393305 -2.430228,5.863871 -3.553646,10.411391 l -1.231759,6.130946 c 4.157029,1.898075 8.704045,2.583098 13.640241,2.054704 2.468098,-0.264197 4.537425,-0.730619 6.207578,-1.398872 -0.25064,-0.793888 -0.436259,-1.659435 -0.563852,-2.589074 2.061792,-0.59269 4.081964,-1.429325 6.060933,-2.508125 0.294596,-0.155635 0.588471,-0.315507 0.881411,-0.48184 2.206349,-1.222023 3.946318,-2.463345 5.219502,-3.723501 -0.895717,-0.837964 -1.674583,-1.825711 -2.335424,-2.962476 -0.121024,-0.03172 -0.239823,-0.06179 -0.359886,-0.09268 -1.098334,-2.357063 -1.433333,-5.193674 -0.995308,-8.514687 1.359564,-5.093159 2.075973,-8.355674 2.15001,-9.788668 0.108228,-1.599491 -0.780659,-3.804146 -2.666266,-6.613926 -2.051075,-3.043971 -3.157155,-5.033615 -3.319023,-5.967809 -0.161182,-1.067527 0.431923,-2.964105 1.779316,-5.69059 1.481585,-2.892466 2.226944,-5.188543 2.235686,-6.888548 -0.01928,-2.733513 -1.140065,-5.256291 -3.361578,-7.567784 -2.096211,-2.235582 -4.608542,-3.495217 -7.537426,-3.781292 -1.647621,-0.876801 -3.296963,-1.291745 -4.948846,-1.241382 l -8.265482,1.252533 c -1.332514,0.207983 -2.575247,0.296914 -3.730999,0.270879 -0.200068,-0.708567 -0.476027,-1.484136 -0.843454,-2.341466 L 17.699977,2.3504119 c -0.177561,-0.2616691 -0.38707,-0.501601 -0.622272,-0.7239693 0.05003,-0.83605529 0.02252,-1.77246402 -0.08516,-2.8112421 -0.737991,-6.9364553 -1.849102,-12.2906905 -3.333516,-16.0635345 -1.616614,-4.154004 -3.7660903,-7.006015 -6.446422,-8.558346 -0.3360223,-1.314425 -0.936967,-2.391136 -1.80573,-3.226378 -0.5644572,-0.535673 -2.6251546,-1.826855 -6.183388,-3.874924 -2.4609979,-1.376858 -3.6887253,-2.882119 -3.6819711,-4.515441 z"
     style="filter:url(#Filter_1)"
     transform="matrix(1.999939,-0.01028442,0.01028442,1.9998169,60.2,76.55)" />
</svg>
