<?xml version="1.0" encoding="UTF-8" standalone="no"?>
<svg
   version="1.1"
   preserveAspectRatio="none"
   x="0px"
   y="0px"
   width="264"
   height="283"
   viewBox="0 0 264 283"
   id="svg2325"
   sodipodi:docname="pony_female_walk_bg_0020.svg"
   xmlns:inkscape="http://www.inkscape.org/namespaces/inkscape"
   xmlns:sodipodi="http://sodipodi.sourceforge.net/DTD/sodipodi-0.dtd"
   xmlns="http://www.w3.org/2000/svg"
   xmlns:svg="http://www.w3.org/2000/svg">
  <sodipodi:namedview
     id="namedview2327"
     pagecolor="#ffffff"
     bordercolor="#000000"
     borderopacity="0.25"
     inkscape:showpageshadow="2"
     inkscape:pageopacity="0.0"
     inkscape:pagecheckerboard="0"
     inkscape:deskcolor="#d1d1d1"
     showgrid="false" />
  <defs
     id="defs2271">
    <filter
       id="Filter_1"
       x="0"
       y="0"
       width="1"
       height="1"
       color-interpolation-filters="sRGB">
      <feColorMatrix
         in="SourceGraphic"
         type="matrix"
         values="0 0 0 0 0 0 0 0 0 0.8 0 0 0 0 0.4 0 0 0 1 0"
         result="result1"
         id="feColorMatrix2238" />
    </filter>
  </defs>
  <path
     fill="#FFFFFF"
     id="path2383"
     d="m -4.0236588,-37.388112 c -0.6760624,0.691013 -1.2880884,1.599959 -1.8366498,2.726085 -1.097571,2.285585 -1.3613897,4.582147 -0.7923427,6.89015 0.1743345,0.683435 0.3969252,1.325862 0.6681554,1.92728 -2.1204266,0.77699 -3.9698547,1.90931 -5.5406851,3.407532 -1.147199,1.018058 -2.282725,2.419571 -3.406903,4.204722 -0.849449,1.188756 -1.43051,2.231767 -1.742607,3.127706 -0.998022,2.320263 -1.858993,5.6092755 -2.583028,9.8668503 -0.361569,2.0954551 -0.620261,3.9750026 -0.776007,5.63982716 l -2.882038,2.31154434 c -1.961522,2.0739334 -2.959967,4.4444157 -2.995834,7.1110046 -0.03363,2.4999266 0.787809,4.6447406 2.463998,6.4342226 1.21626,1.283219 2.736947,2.270513 4.56126,2.96182 l 10.092237,0.685598 c 4.4710197,-0.273242 7.91152447,-0.793018 10.3222146,-1.560712 0.1128641,-0.03594 0.217584,-0.0735 0.3278293,-0.11002 l 3.667323,10.102892 c -3.8855497,2.106457 -6.18770177,5.906131 -6.899057,11.407813 -0.6560344,5.364016 0.40915819,9.502194 3.1969072,12.414052 0.6537842,0.680611 1.4555793,1.324439 2.4024448,1.932255 -0.09339,3.221536 -0.865518,6.355369 -2.3174752,9.402123 -1.80205792,3.727005 -2.80056335,7.447922 -2.9984693,11.16244 -1.0074272,2.576122 -1.871295,5.086061 -2.5846439,7.52638 -0.52778,1.826942 -0.9686115,3.719476 -1.3243824,5.677528 l -0.2015908,-0.02189 c -0.5014681,2.157009 -0.7116564,4.423534 -0.6350711,6.797312 -0.1096735,1.711381 -0.1353531,3.324846 -0.0759,4.83777 1.4454513,0.711937 3.2800987,1.236307 5.50435129,1.572187 3.37446311,0.48135 6.63893181,0.25015 9.79301771,-0.69277 1.0343918,-0.24387 2.0720718,-0.545678 3.1140258,-0.907903 l -0.02678,-3.95365 c -0.08144,-0.07319 -0.163556,-0.144493 -0.245377,-0.216741 -0.0517,-1.061575 -0.09158,-2.087621 -0.118547,-3.075054 3.303646,-0.833175 6.383018,-2.077848 9.236741,-3.737431 -2.417837,-4.844591 -4.65471,-10.684067 -6.710598,-17.518627 -0.07179,-0.231227 -0.130151,-0.48441 -0.17685,-0.755988 0.297529,-1.176612 0.61538,-2.302971 0.955765,-3.372003 0.979363,-3.118727 1.931464,-5.765116 2.857923,-7.956664 2.127218,0.352391 4.169158,0.538446 6.121495,0.546704 3.935327,0.01664 7.400886,-0.608248 10.398294,-1.871058 0.474977,0.290513 0.951321,0.539063 1.42868,0.752826 0.351762,0.458987 0.726513,0.911083 1.129567,1.354299 0.06414,0.07281 0.127816,0.140058 0.191807,0.211168 l 0.0794,5.532503 c 0.01328,0.646858 -1.273726,2.377012 -3.862554,5.190265 -2.726887,2.962883 -4.190792,5.519099 -4.390898,7.667707 -0.208698,2.425389 -0.04015,5.585345 0.505999,9.480974 l 0.944097,5.062921 c 2.419229,0.0447 4.797505,-0.19086 7.136489,-0.70389 -0.541883,3.005203 -0.826097,6.130693 -0.851923,9.376282 3.926869,1.99354 8.086534,2.86352 12.478207,2.61343 0.431588,-0.0194 0.86457,-0.0449 1.301263,-0.0847 2.442797,-0.25771 4.474575,-0.71152 6.095717,-1.36161 -1.343057,-4.010748 -1.605381,-9.522249 -0.787363,-16.534425 1.112739,-6.83626 1.675001,-10.987781 1.687189,-12.454952 -0.01907,-1.534848 -1.090287,-4.070072 -3.215248,-7.604788 -2.123927,-3.568038 -3.201838,-5.91921 -3.233315,-7.054202 8.1e-4,-1.100638 0.639883,-3.415973 1.916797,-6.945149 1.211306,-3.564567 1.828861,-6.280103 1.85346,-8.14713 -0.0048,-3.068663 -1.052272,-5.86983 -3.141619,-8.402839 -2.135754,-2.536295 -4.922093,-4.037127 -8.354352,-4.511179 -1.398068,-0.6949 -2.809349,-1.047906 -4.234506,-1.053934 l -8.304463,0.964707 c -1.251038,0.151008 -2.420043,0.200732 -3.509789,0.152942 -0.200339,-0.807937 -0.515765,-1.718958 -0.95182,-2.736421 L 17.700066,2.3502452 C 17.541988,2.117289 17.361228,1.9000218 17.157465,1.6982147 17.202144,0.90420849 17.181788,0.02448773 17.090106,-0.94820957 16.416716,-7.8916532 15.355149,-13.257267 13.905855,-17.044 c -1.577959,-4.169166 -3.700396,-7.041911 -6.3663415,-8.619228 -0.3238491,-1.31703 -0.9147715,-2.398709 -1.7755059,-3.2418 -0.5594767,-0.54094 -2.6090697,-1.852323 -6.14828349,-3.933572 -2.44821271,-1.399806 -3.66135161,-2.916226 -3.63938291,-4.549512 z"
     style="filter:url(#Filter_1)"
     transform="matrix(1.9987946,-0.06204224,0.06204224,1.9986725,58.95,77.6)" />
</svg>
