
<svg xmlns="http://www.w3.org/2000/svg" version="1.1" xmlns:xlink="http://www.w3.org/1999/xlink" preserveAspectRatio="none" x="0px" y="0px" width="330px" height="358px" viewBox="50 364 330 358">
<defs>
<filter id="Filter_1" x="-20%" y="-20%" width="140%" height="140%" color-interpolation-filters="sRGB">
<feColorMatrix in="SourceGraphic" type="matrix" values="0 0 0 0 0.4 0 0 0 0 0.8 0 0 0 0 0.4 0 0 0 1 0" result="result1"/>
</filter>

<g id="Symbol_309_0_Layer0_0_FILL">
<path fill="#FFFFFF" stroke="none" d="
M 82.5 60.4
Q 83.7 56.2 81.65 51.45 79.45 46.2 74.7 44.05
L 62.15 57.65
Q 60.35 63.5 63.4 69.05 64.85 71.85 66.75 73.45
L 64.95 80.8
Q 64.75 81.9 59.95 85.25 55.05 88.7 53.9 92.25 52.6 96.2 51.85 103.05
L 51.35 109.1
Q 58.1 112 65.4 110.8 69.05 110.25 71.3 109.05 68.6 103.05 71.9 95.85 76 88.85 76.8 86.7 77.6 84.35 76.25 78.95 74.8 73.15 75 71.7 75.3 69.9 78.4 66.55 81.75 63.05 82.5 60.4 Z"/>
</g>

<g id="Symbol_309_0_Layer0_1_FILL">
<path fill="#FFFFFF" stroke="none" d="
M 39.1 58.7
Q 36.05 63.45 33.75 64.9
L 30.1 67.05
Q 27 69 24.5 71.05 16.8 77.5 15.15 86.1 13.25 97.3 14 103.1
L 18.6 105.15
Q 24.45 106.7 30.35 104.4 30.55 96.5 30.4 87.8 30.35 84.1 30.65 83 31.25 80.5 33.55 80.45 37.8 80.35 41.25 75.95
L 43.95 71.55 41.6 54.25 39.1 58.7 Z"/>
</g>

<g id="Symbol_309_0_Layer0_2_FILL">
<path fill="#FFFFFF" stroke="none" d="
M 59.7 49.35
Q 59.6 47.4 56.65 44.45
L 38.8 23.65
Q 37.35 22.7 35.25 22.85 31 23.15 27.5 28.85 24.6 33.35 25.4 37.3 25.75 39.65 27.25 41.25
L 40.7 56.5
Q 42.5 58.1 46.55 58.55 51.75 58.95 55.75 55.65 59.95 52.05 59.7 49.35 Z"/>
</g>

<g id="Symbol_309_0_Layer0_3_FILL">
<path fill="#FFFFFF" stroke="none" d="
M 52.55 44.45
Q 46.65 42.6 45.3 42.5 40.2 42 35.6 45.3 30.1 49.3 30.35 57.8 30.55 65.9 35.3 69.55 38.85 72.3 46.55 73.3 53.2 74.15 58.7 73.35 67.95 72 73 66.4 75.45 63.65 77.6 58.65 79.45 54.5 80.15 50.8 80.9 46.45 76.55 43.8 72.75 41.5 69.25 42
L 61.1 44.2 52.55 44.45 Z"/>
</g>

<g id="Symbol_309_0_Layer0_4_FILL">
<path fill="#FFFFFF" stroke="none" d="
M 81.55 61.45
Q 83.9 57.45 84 54.9 84.05 50.85 80.95 47.1 77.5 42.85 72.35 42.15
L 63.55 57.4
Q 63.35 63.1 67.65 67.35 69.8 69.45 72 70.45
L 72.15 77.5
Q 72.2 78.5 68.4 82.7 64.55 86.95 64.3 90.45 64.05 94.3 65.05 100.6 65.5 103.8 66.05 106.2 73.35 107.1 80.05 104.3 83.45 102.9 85.4 101.3 81.25 96.55 82.6 89.3 84.9 82.05 85.05 79.9 85.25 77.6 82.6 73.1 79.7 68.25 79.55 66.9 79.4 65.15 81.55 61.45 Z"/>
</g>

<g id="Symbol_309_0_Layer0_5_FILL">
<path fill="#FFFFFF" stroke="none" d="
M 37.15 61.15
L 37.7 65.9
Q 38.05 71.2 37.05 74.2 36.55 75.8 31.05 82.95 25.75 91.05 25.4 98.6 25.05 108.65 26.85 113.6
L 32.4 114.6
Q 39.15 114.85 45.25 111.8 43.9 104.9 42.65 97.4 42.2 94.65 42.6 91.85 42.95 89.45 44.1 86.05 46.1 80.1 48.05 75.35
L 49.6 71.8
Q 50.3 69.45 50.1 66.7 49.65 61.15 45.05 58.85 40.1 56.4 38.25 57.35 36.95 58.15 37.15 61.15 Z"/>
</g>

<g id="Symbol_309_0_Layer0_6_FILL">
<path fill="#FFFFFF" stroke="none" d="
M 21 -3.35
Q 20.1 -4.1 14.45 -6.6 10.6 -8.25 10.35 -10.7 9.45 -9.55 8.85 -7.8 7.55 -4.25 8.8 -0.85 11.85 7.2 23.65 6.05 23.95 4.45 23.75 2.5 23.35 -1.5 21 -3.35 Z"/>
</g>

<g id="Symbol_309_0_Layer0_7_FILL">
<path fill="#FFFFFF" stroke="none" d="
M 35.35 23.15
Q 33.2 12.9 30.4 7.55 25.55 -1.95 17.7 -1.2 9 -0.35 4.55 4.95 3 6.65 1.65 9.5 0.55 11.45 0.25 12.8 -0.9 16.4 -1.25 22.9
L -1.45 28.6 -4 31.2
Q -6.6 34.65 -6.2 38.6 -5.85 42.35 -3.05 44.75 -1.05 46.4 1.8 47.15
L 11.9 46.7
Q 18.55 45.6 21.95 44.05 25.6 42.45 27.25 40.65 30.1 37.45 29.7 32.15 33.3 31.7 34.55 30.25 36.4 28.2 35.35 23.15 Z"/>
</g>
</defs>

<g transform="matrix( 2, 0, 0, 1.9998779296875, 100.1,433.95) ">
<g transform="matrix( 1, 0, 0, 1, 0,0) ">
<use filter="url(#Filter_1)" xlink:href="#Symbol_309_0_Layer0_0_FILL"/>
</g>

<g transform="matrix( 1, 0, 0, 1, 0,0) ">
<use filter="url(#Filter_1)" xlink:href="#Symbol_309_0_Layer0_1_FILL"/>
</g>

<g transform="matrix( 1, 0, 0, 1, 0,0) ">
<use filter="url(#Filter_1)" xlink:href="#Symbol_309_0_Layer0_2_FILL"/>
</g>

<g transform="matrix( 1, 0, 0, 1, 0,0) ">
<use filter="url(#Filter_1)" xlink:href="#Symbol_309_0_Layer0_3_FILL"/>
</g>

<g transform="matrix( 1, 0, 0, 1, 0,0) ">
<use filter="url(#Filter_1)" xlink:href="#Symbol_309_0_Layer0_4_FILL"/>
</g>

<g transform="matrix( 1, 0, 0, 1, 0,0) ">
<use filter="url(#Filter_1)" xlink:href="#Symbol_309_0_Layer0_5_FILL"/>
</g>

<g transform="matrix( 1, 0, 0, 1, 0,0) ">
<use filter="url(#Filter_1)" xlink:href="#Symbol_309_0_Layer0_6_FILL"/>
</g>

<g transform="matrix( 1, 0, 0, 1, 0,0) ">
<use filter="url(#Filter_1)" xlink:href="#Symbol_309_0_Layer0_7_FILL"/>
</g>
</g>
</svg>
