
<svg xmlns="http://www.w3.org/2000/svg" version="1.1" xmlns:xlink="http://www.w3.org/1999/xlink" preserveAspectRatio="none" x="0px" y="0px" width="330px" height="358px" viewBox="0 0 330 358">
<defs>
<filter id="Filter_1" x="-20%" y="-20%" width="140%" height="140%" color-interpolation-filters="sRGB">
<feColorMatrix in="SourceGraphic" type="matrix" values="0 0 0 0 1 0 0 0 0 0 0 0 0 0 0.4 0 0 0 1 0" result="result1"/>
</filter>

<g id="anims_pony_jump_anim_clean_flats_4_Layer0_0_FILL">
<path fill="#FFFFFF" stroke="none" d="
M 39.25 -9.7
Q 36.65 -6.85 36.55 -3.3 36.5134765625 -2.249609375 36.65 -1.3 34.090625 -1.1083984375 31.85 -0.2 29.55 0.75 24.1 5.05 21.45 7.1 19.15 11.2 18 13.35 16.3 16.6 15.65 17.55 11.25 21.1 7.4 24.25 7.15 25.7 6.7 28.2 6.65 31.6 6.65 35.75 7.45 37.35 8.4 39.05 11.65 41.75 14.95 44.35 16.85 45 19.3 45.8 22.2 45.25 25.85 44.5 27.75 41.85
L 31.75 43.4
Q 36.238671875 44.606640625 39.35 43.6 39.652734375 44.58359375 40.2 45.45
L 43.45 51.15
Q 41.3888671875 53.2181640625 39.85 56.4 36.35 63.7 38.9 69.15 39.421484375 70.2330078125 40.25 71.35 39.353125 73.51640625 38.3 74.75 37.8 75.35 35.3 77.85 32.8 80.55 31 83.15 25.5 91 27.05 97.8 29.2 106.55 32.2 110.25
L 34.2 110
Q 35.365234375 113.0783203125 36.7 114.85
L 41.75 113.75
Q 47.75 111.65 52.45 106.8 49.9 101.05 46.8 94.95 45.45 92.35 45.3 91.35 45 89.35 47.1 88 50.9189453125 85.6796875 52.7 80.85 55.4583984375 82.2943359375 58.1 83.2 61.6908203125 84.4171875 64.95 84.7 64.69921875 87.364453125 65.65 89.9 66.5 92.1 67.65 93.3
L 66.5 95.6
Q 65.3 98.25 64.95 99.75 64.6 101.1 62.95 104.65 60.5 109.95 59.85 111.55 58.4 114.9 57.45 120.95 56.9 123.95 56.7 126.3 63.15 127.85 70.45 126.15 72.82109375 125.6302734375 74.6 124.95 74.6361328125 125.0703125 74.65 125.2 75.05 128.9 75.5 131.75 82.6 133.25 89.55 130.75 92.9 129.5 94.95 127.9 88.85 119.05 90.5 103.5 90.7 101.2 88.55 95.5 86.25 89.8 86.45 88.05 86.65 86.45 89.15 81.5 91.75 76.5 92 73.8 92.5 69.55 89.7 65.5 86.8943359375 61.3146484375 82.25 60.2 81.98828125 60.0990234375 81.7 60 76.35 58.9 73.55 58.3 71.5099609375 57.8685546875 69.85 57.2 69.35234375 55.9751953125 68.35 54.45 66.8 52 60.8 41
L 55 30.45
Q 53.847265625 29.3453125 51.85 29 53.7982421875 18.778125 53.3 12.75 52.765625 6.0849609375 49.55 2.7 49.6876953125 0.6416015625 48.8 -0.95 48.25 -1.95 43.95 -6.4 41 -9.5 41.75 -11.85
L 39.25 -9.7 Z"/>
</g>
</defs>

<g transform="matrix( 2, 0, 0, 1.9998779296875, 55.6,72.4) ">
<g transform="matrix( 1, 0, 0, 1, 0.05,-3) ">
<g transform="matrix( 1, 0, 0, 1, 0,0) ">
<use filter="url(#Filter_1)" xlink:href="#anims_pony_jump_anim_clean_flats_4_Layer0_0_FILL"/>
</g>
</g>
</g>
</svg>
