
<svg xmlns="http://www.w3.org/2000/svg" version="1.1" xmlns:xlink="http://www.w3.org/1999/xlink" preserveAspectRatio="none" x="0px" y="0px" width="330px" height="358px" viewBox="50 364 330 358">
<defs>
<filter id="Filter_1" x="-20%" y="-20%" width="140%" height="140%" color-interpolation-filters="sRGB">
<feColorMatrix in="SourceGraphic" type="matrix" values="0 0 0 0 0.4 0 0 0 0 0.8 0 0 0 0 0.4 0 0 0 1 0" result="result1"/>
</filter>

<g id="Symbol_127_0_Layer0_0_FILL">
<path fill="#FFFFFF" stroke="none" d="
M 71.3 50.8
L 61.75 65.2
Q 61.2 70.9 64.1 76.25 65.5 78.95 67.1 80.5
L 66.65 83.2
Q 66.2 86.25 66.3 88.05
L 65.85 93.9 64.85 102.15
Q 64.45 106.05 65.25 113.25
L 66.15 119.8
Q 72.9 121.85 79.5 119.95 82.8 119.1 84.75 117.75 78.7 108.45 80.25 93.65 80.55 91.5 78.3 85.8 76.05 80.1 76.3 78.45 76.45 76.9 78.85 72.3 81.25 67.75 81.55 65.05 81.9 61 79.25 56.8 76.25 52.15 71.3 50.8 Z"/>
</g>

<g id="Symbol_127_0_Layer0_1_FILL">
<path fill="#FFFFFF" stroke="none" d="
M 39.45 55.6
L 39.1 59.9
Q 38.5 64.6 36.95 67
L 34.45 70.45
Q 32.25 73.55 30.9 76.25 26.5 84.95 29.1 91.4 32.3 99.8 35.8 103.1
L 41.25 101.7
Q 47.6 99.4 52.1 94.55
L 44.5 83.75
Q 42.75 81.25 42.4 80 41.95 78.35 43.25 77.65 47.75 75.35 49.1 71.35
L 49.6 67.85
Q 50.7 66 51.05 63.5 51.7 58.5 47.65 55.5 43.25 52.2 41.3 52.6 39.9 52.9 39.45 55.6 Z"/>
</g>

<g id="Symbol_127_0_Layer0_2_FILL">
<path fill="#FFFFFF" stroke="none" d="
M 65.6 45.65
L 52 19.15
Q 50.8 17.75 48.6 17.25 44.35 16.2 39.7 20.65 35.95 24.3 35.9 28.35 35.8 30.8 36.95 32.85
L 47.35 52.4
Q 48.75 54.65 52.7 56.3 57.85 58.45 62.45 56.45 67.3 54.25 67.65 51.5 67.95 49.55 65.6 45.65 Z"/>
</g>

<g id="Symbol_127_0_Layer0_3_FILL">
<path fill="#FFFFFF" stroke="none" d="
M 84.8 64.35
Q 86.95 60.65 83.9 56.15 81.2 52.25 77.85 51.1
L 69.95 49.35
Q 64.95 48.3 62.1 45.6 57.35 41.15 56.25 40.45 51.8 37.55 46.55 38.5 40.35 39.65 37.75 47.55 35.4 55.15 38.45 60.75 40.75 64.95 47.35 69.45 53.1 73.4 58.25 75.2 67.05 78.25 73.35 75.45 76.5 74 80.05 70.35 83.05 67.4 84.8 64.35 Z"/>
</g>

<g id="Symbol_127_0_Layer0_4_FILL">
<path fill="#FFFFFF" stroke="none" d="
M 88.95 65.15
Q 89 60.75 85.95 56.5 82.5 51.8 77.5 50.9
L 69.3 67.25
Q 69.25 73.35 72.6 78.85 74.25 81.55 76 83
L 75.8 85.95
Q 75.6 89.3 75.85 91.2 76.15 92.95 76 97.55
L 75.7 106.45
Q 75.7 110.65 77.1 118.35
L 78.6 125.15
Q 85.55 126.7 91.95 124.1 95.15 122.8 96.9 121.2 90.1 111.8 90.3 95.9 90.35 93.55 87.6 87.65 84.9 81.7 84.95 79.95 84.95 78.3 86.95 73.15 88.9 68 88.95 65.15 Z"/>
</g>

<g id="Symbol_127_0_Layer0_5_FILL">
<path fill="#FFFFFF" stroke="none" d="
M 38.7 73
Q 36.5 76.1 35.15 78.8 30.75 87.5 33.35 93.95 36.55 102.35 40.05 105.65
L 45.5 104.25
Q 51.85 101.95 56.35 97.1
L 48.75 86.3
Q 47 83.8 46.65 82.55 46.2 80.9 47.5 80.2 52 77.9 53.35 73.9
L 53.85 70.4
Q 54.95 68.55 55.3 66.05 55.95 61.05 51.9 58.05 47.5 54.75 45.55 55.15 44.15 55.45 43.7 58.15
L 43.35 62.45
Q 42.75 67.15 41.2 69.55
L 38.7 73 Z"/>
</g>

<g id="Symbol_127_0_Layer0_6_FILL">
<path fill="#FFFFFF" stroke="none" d="
M 39.85 -22.55
L 37.3 -20.45
Q 34.75 -17.6 34.6 -14.05 34.3 -5.4 45.65 -1.9 46.55 -3.35 47.1 -5.25 48.3 -9.1 46.85 -11.65 46.25 -12.65 42.05 -17.2 39.1 -20.2 39.85 -22.55 Z"/>
</g>

<g id="Symbol_127_0_Layer0_7_FILL">
<path fill="#FFFFFF" stroke="none" d="
M 28.45 -10.3
Q 26.4 -9.3 24 -7.25 22.25 -5.85 21.45 -4.7 19.05 -1.75 16.2 4.05
L 13.85 9.25 10.5 10.65
Q 6.75 12.8 5.6 16.65 4.5 20.25 6.15 23.5 7.35 25.9 9.7 27.65 12.2 29.5 19.2 31.1 25.75 32.6 29.55 32.55 33.5 32.4 35.7 31.35 39.65 29.55 41.3 24.4
L 46.45 24.6
Q 48.9 23.35 49.9 18.35 51.85 8.05 51.35 2 50.5 -8.65 42.95 -10.95 34.6 -13.5 28.45 -10.3 Z"/>
</g>
</defs>

<g transform="matrix( 2, 0, 0, 1.9998779296875, 100.1,433.95) ">
<g transform="matrix( 1, 0, 0, 1, 0,0) ">
<use filter="url(#Filter_1)" xlink:href="#Symbol_127_0_Layer0_0_FILL"/>
</g>

<g transform="matrix( 1, 0, 0, 1, 0,0) ">
<use filter="url(#Filter_1)" xlink:href="#Symbol_127_0_Layer0_1_FILL"/>
</g>

<g transform="matrix( 1, 0, 0, 1, 0,0) ">
<use filter="url(#Filter_1)" xlink:href="#Symbol_127_0_Layer0_2_FILL"/>
</g>

<g transform="matrix( 1, 0, 0, 1, 0,0) ">
<use filter="url(#Filter_1)" xlink:href="#Symbol_127_0_Layer0_3_FILL"/>
</g>

<g transform="matrix( 1, 0, 0, 1, 0,0) ">
<use filter="url(#Filter_1)" xlink:href="#Symbol_127_0_Layer0_4_FILL"/>
</g>

<g transform="matrix( 1, 0, 0, 1, 0,0) ">
<use filter="url(#Filter_1)" xlink:href="#Symbol_127_0_Layer0_5_FILL"/>
</g>

<g transform="matrix( 1, 0, 0, 1, 0,0) ">
<use filter="url(#Filter_1)" xlink:href="#Symbol_127_0_Layer0_6_FILL"/>
</g>

<g transform="matrix( 1, 0, 0, 1, 0,0) ">
<use filter="url(#Filter_1)" xlink:href="#Symbol_127_0_Layer0_7_FILL"/>
</g>
</g>
</svg>
