
<svg xmlns="http://www.w3.org/2000/svg" version="1.1" xmlns:xlink="http://www.w3.org/1999/xlink" preserveAspectRatio="none" x="0px" y="0px" width="330px" height="358px" viewBox="0 0 330 358">
<defs>
<filter id="Filter_1" x="-20%" y="-20%" width="140%" height="140%" color-interpolation-filters="sRGB">
<feColorMatrix in="SourceGraphic" type="matrix" values="0 0 0 0 1 0 0 0 0 0 0 0 0 0 0.4 0 0 0 1 0" result="result1"/>
</filter>

<g id="anims_pony_jump_anim_clean_flats_29_Layer0_0_FILL">
<path fill="#FFFFFF" stroke="none" d="
M 36.95 20.1
Q 34.4998046875 13.8802734375 30.45 11.55 29.9587890625 9.5978515625 28.65 8.35 27.8 7.55 22.45 4.5 18.75 2.45 18.75 0
L 16.95 2.75
Q 15.35 6.2 16.25 9.65 16.5220703125 10.6599609375 16.9 11.55 14.530859375 12.462890625 12.65 14 10.75 15.55 6.8 21.25 4.85 24.05 3.9 28.6 3.4 31 2.7 34.6 2.35 35.7 -0.8 40.4 -3.55 44.5 -3.4 46 -3.1 48.5 -2.15 51.8 -0.95 55.75 0.3 57 1.75 58.4 5.6 60 9.5 61.55 11.55 61.6 14.1 61.65 16.75 60.25 20 58.5 21 55.4
L 25.3 55.7
Q 25.765234375 55.685546875 26.2 55.65
L 28.6 60.2
Q 29.7318359375 62.3576171875 30.65 64.05 26.5671875 67.6287109375 25.9 74.8 25.3 83 29.5 87.3 29.8734375 87.679296875 30.3 88.05 30.219921875 88.8568359375 30.05 89.55 29.5 91.7 23.95 106.45 19 121.45 20.35 127.75
L 25.65 129.15
Q 26.316796875 129.2544921875 26.95 129.3 26.3787109375 135.265625 27.2 138.7
L 32.55 140
Q 39.2 140.8 45.65 138.2 44.35 121.15 44.95 111.45 45.35 105.4 46.55 97.25
L 47.1 93.65
Q 49.4306640625 93.8802734375 51.6 93.8 54.6263671875 93.6830078125 57.25 93 57.6369140625 93.705859375 58.1 94.35 59.7 96.55 61.4 97.55
L 61 100.35
Q 60.65 103.45 60.75 105.15 60.9 106.95 59.6 109.8 58.9 111.3 55.85 116.8 53.85 120.45 52 127.5 51.05 131.05 50.5 133.85 56.7 136.8 64.15 135.85 67.85 135.4 70.35 134.4 69.54453125 131.419921875 70.05 127.15 71.2564453125 130.416015625 72.25 132.9 79.55 132.8 85.6 128.7 88.6 126.65 90.15 124.65 85.2 120.2 85 112.2 85.7 104.05 85.45 101.75 85.2 99.3 81.65 94.85 77.85 90 77.4 88.55 76.85 86.75 78.2 82.4 79.65 77.8 79.2 75.1 78.5 70.75 74.6 67.15 70.35 63.1 65.15 63.1
L 65.1 63.15 65.1 63.15
Q 59.85 64.05 57.1 64.45 55.3279296875 64.751171875 53.75 64.75 53.2533203125 63.39453125 52.25 61.7 50.65 59 44.55 47.05
L 40.45 39.1
Q 40.5220703125 37.659375 40.35 36.15 39.2 25.75 36.95 20.1 Z"/>
</g>
</defs>

<g transform="matrix( 2, 0, 0, 1.9998779296875, 55.6,72.4) ">
<g transform="matrix( 1, 0, 0, 1, 0.05,-3) ">
<g transform="matrix( 1, 0, 0, 1, 0,0) ">
<use filter="url(#Filter_1)" xlink:href="#anims_pony_jump_anim_clean_flats_29_Layer0_0_FILL"/>
</g>
</g>
</g>
</svg>
