
<svg xmlns="http://www.w3.org/2000/svg" version="1.1" xmlns:xlink="http://www.w3.org/1999/xlink" preserveAspectRatio="none" x="0px" y="0px" width="330px" height="358px" viewBox="0 0 330 358">
<defs>
<filter id="Filter_1" x="-20%" y="-20%" width="140%" height="140%" color-interpolation-filters="sRGB">
<feColorMatrix in="SourceGraphic" type="matrix" values="0 0 0 0 1 0 0 0 0 0 0 0 0 0 0.4 0 0 0 1 0" result="result1"/>
</filter>

<g id="anims_pony_jump_anim_clean_flats_1_Layer0_0_FILL">
<path fill="#FFFFFF" stroke="none" d="
M 93.75 92.4
Q 93.45 88.2 90.05 84.95 86.3716796875 81.3697265625 81.25 81.3 75.75 80.95 72.9 80.7 71.133984375 80.5990234375 69.6 80.25 69.0974609375 79.0376953125 68.05 77.5 66.5 75.05 60.3 64.1
L 54.4 53.65
Q 53.89140625 53.1193359375 53.15 52.75 54.4349609375 43.7380859375 53.8 38.25 53.0169921875 31.6412109375 49.75 28.35 49.741015625 26.328515625 48.8 24.75 48.2 23.8 43.8 19.45 40.75 16.5 41.4 14.15
L 38.95 16.35
Q 36.5 19.3 36.5 22.8 36.5 23.864453125 36.65 24.85 34.1095703125 25.1068359375 31.9 26.1 29.65 27.1 24.35 31.55 21.75 33.75 19.65 37.9 18.55 40.15 16.95 43.4 16.3 44.4 12.05 48.1 8.35 51.4 8.1 52.9 7.75 55.35 7.8 58.8 7.95 62.9 8.8 64.45 9.85 66.15 13.2 68.7 16.55 71.2 18.5 71.8 20.95 72.5 23.85 71.85 27.45 71 29.2 68.25
L 33.3 69.65
Q 37.4205078125 70.614453125 40.35 69.75
L 43.95 75.9
Q 40.9189453125 78.5822265625 39.3 83.5 37.5658203125 89.063671875 38.8 93.25 37.759765625 93.8345703125 36.3 94.3 31.4 95.9 29.7 96.7 25.2 98.85 22.55 102.25 19.95 105.7 18.05 112.65 15.95 120.3 17.05 124.65
L 22.6 125.55
Q 22.6263671875 127.4224609375 23 128.9
L 29.4 129.95
Q 36.65 130.3 41.05 126.7 41.05 122.35 39.3 115.7 38.55 112.8 42.15 110.25 45.55 107.75 48.5 107.95 52.952734375 108.309765625 55.05 105.85 56.90390625 106.52421875 58.65 106.95 58.0908203125 108.5765625 57.95 110.35 57.35 116.9 65 116.3 58.75 119.8 56 123.55 53.5 126.85 51.5 131.05 50.5 133.15 50 134.6 55.6 137.15 63.2 136.4 67 135.95 69.65 135.1 69.255078125 130.579296875 72.05 124.25 71.9453125 124.5927734375 71.85 124.9 70.65 128.8 70.25 133.7 70.05 136.15 70.1 137.8 76.7 140.8 84 139.9 87.65 139.4 89.95 138.35 87.5 132.35 88.4 123.7 89.9 115.6 90.1 114.55 90.45 112.5 89.15 110.55 87.6 108.35 84.1 106.8 88.35 102.75 90.25 100.35 94 95.7 93.75 92.4
M 78.1 116.45
Q 75.4478515625 118.669140625 73.8 120.95 75.579296875 118.0974609375 76.55 116.5 77.2875 116.526953125 78.1 116.45 Z"/>
</g>
</defs>

<g transform="matrix( 2, 0, 0, 1.9998779296875, 55.6,72.4) ">
<g transform="matrix( 1, 0, 0, 1, 0.05,-3) ">
<g transform="matrix( 1, 0, 0, 1, 0,0) ">
<use filter="url(#Filter_1)" xlink:href="#anims_pony_jump_anim_clean_flats_1_Layer0_0_FILL"/>
</g>
</g>
</g>
</svg>
