
<svg xmlns="http://www.w3.org/2000/svg" version="1.1" xmlns:xlink="http://www.w3.org/1999/xlink" preserveAspectRatio="none" x="0px" y="0px" width="330px" height="358px" viewBox="0 0 330 358">
<defs>
<filter id="Filter_1" x="-20%" y="-20%" width="140%" height="140%" color-interpolation-filters="sRGB">
<feColorMatrix in="SourceGraphic" type="matrix" values="0 0 0 0 1 0 0 0 0 0 0 0 0 0 0.4 0 0 0 1 0" result="result1"/>
</filter>

<g id="anims_pony_jump_anim_clean_flats_16_Layer0_0_FILL">
<path fill="#FFFFFF" stroke="none" d="
M 18.85 -12.6
Q 16.8 -11.2 12.45 -5.85 10.25 -3.25 8.95 1.2 8.25 3.55 7.25 7.1 6.8 8.2 3.25 12.55 0.15 16.45 0.2 17.95 0.25 20.5 0.95 23.8 1.8 27.85 2.95 29.2 4.3 30.75 8 32.65 11.75 34.55 13.75 34.75 16.3 35 19.1 33.85 22.5 32.35 23.7 29.35
L 27.95 30
Q 31.3755859375 30.1765625 33.8 29.35
L 38.15 36.05
Q 38.532421875 36.6400390625 38.9 37.2 35.0080078125 41.0517578125 35.05 48.2 35.069140625 51.29140625 35.75 53.75 34.7587890625 54.1791015625 32.4 55.05 29.05 56.5 26.25 58.15 17.8 63.3 15.25 71.3 12.05 81.7 12.25 87.35
L 16.75 89.85
Q 20.5630859375 91.308984375 24.6 91.15 24.45625 95.5279296875 25.25 98.35
L 30.65 99.85
Q 37.3 100.95 43.65 98.9 42.95 92.45 42.55 85.3 42.35 82.8 43 80.3 43.6 78.05 45.05 75.05 47.6 69.85 50 65.75
L 51.05 64
Q 57.6466796875 64.944140625 63.1 64.25 66.4265625 63.820703125 69.2 62.85 69.5267578125 63.246484375 69.85 63.6
L 67.35 70.55
Q 67.05 71.6 61.95 74.25 56.7 77.05 55.15 80.35 53.5 84 52 90.55 51.25 93.9 50.85 96.4 57.25 100 64.6 99.7 68.25 99.6 70.65 98.7 70.49296875 98.22109375 70.35 97.75 74.9720703125 98.03125 79.55 96.7 83.05 95.75 85.15 94.35 81.65 89.2 83.85 82.1 86.95 75.15 87.35 73.05 87.9 70.8 85.75 66.05 83.45 60.8 83.5 59.45 83.4580078125 58.066015625 85.3 55.35 85.9763671875 54.56796875 86.4 53.8 88.9234375 50.500390625 89.3 48.1 89.85 44.1 87.15 40 84.7439453125 36.1419921875 80.85 34.6 77.383984375 32.640625 74.2 33.05 68.9 34.45 66.1 35.1 63.8166015625 35.68203125 61.85 35.75 61.7783203125 35.65703125 61.7 35.55 60 33.2 53.3 22.5
L 46.95 12.35
Q 46.039453125 11.47734375 44.55 11.2 44.2505859375 1.1373046875 42.55 -4.45 40.637109375 -10.8783203125 36.8 -13.55 36.4724609375 -15.5359375 35.25 -16.85 34.5 -17.75 29.4 -21.25 25.9 -23.6 26.1 -26.05
L 24.1 -23.45
Q 22.2 -20.15 22.8 -16.65 22.9876953125 -15.614453125 23.3 -14.7 20.8546875 -13.976953125 18.85 -12.6
M 34.8 68.25
Q 33.7076171875 69.3580078125 32.35 70.65 31.5275390625 71.5880859375 30.8 72.5 31.005078125 70.94296875 31.25 70.3 32.1 68 34.45 68.25 34.625 68.268359375 34.8 68.25 Z"/>
</g>
</defs>

<g transform="matrix( 2, 0, 0, 1.9998779296875, 55.6,72.4) ">
<g transform="matrix( 1, 0, 0, 1, 0.05,-3) ">
<g transform="matrix( 1, 0, 0, 1, 0,0) ">
<use filter="url(#Filter_1)" xlink:href="#anims_pony_jump_anim_clean_flats_16_Layer0_0_FILL"/>
</g>
</g>
</g>
</svg>
