<?xml version="1.0" encoding="UTF-8" standalone="no"?>
<svg
   version="1.1"
   preserveAspectRatio="none"
   x="0px"
   y="0px"
   width="264"
   height="283"
   viewBox="0 0 264 283"
   id="svg1120"
   sodipodi:docname="pony_female_walk_bg_0015.svg"
   xmlns:inkscape="http://www.inkscape.org/namespaces/inkscape"
   xmlns:sodipodi="http://sodipodi.sourceforge.net/DTD/sodipodi-0.dtd"
   xmlns="http://www.w3.org/2000/svg"
   xmlns:svg="http://www.w3.org/2000/svg">
  <sodipodi:namedview
     id="namedview1122"
     pagecolor="#ffffff"
     bordercolor="#000000"
     borderopacity="0.25"
     inkscape:showpageshadow="2"
     inkscape:pageopacity="0.0"
     inkscape:pagecheckerboard="0"
     inkscape:deskcolor="#d1d1d1"
     showgrid="false" />
  <defs
     id="defs1066">
    <filter
       id="Filter_1"
       x="0"
       y="0"
       width="1"
       height="1"
       color-interpolation-filters="sRGB">
      <feColorMatrix
         in="SourceGraphic"
         type="matrix"
         values="0 0 0 0 0 0 0 0 0 0.8 0 0 0 0 0.4 0 0 0 1 0"
         result="result1"
         id="feColorMatrix1033" />
    </filter>
  </defs>
  <path
     fill="#FFFFFF"
     id="path1124"
     d="m -3.352276,-37.464888 c -0.6849043,0.682305 -1.3083698,1.582741 -1.8713679,2.701773 -1.1268725,2.27139 -1.4210181,4.565337 -0.8816424,6.880525 0.1655414,0.685609 0.380077,1.330338 0.6435549,1.935185 -2.1302748,0.749747 -3.993932,1.858629 -5.5839126,3.336608 -1.160218,1.00329 -2.314142,2.390905 -3.461193,4.161545 -0.864676,1.177798 -1.458989,2.212396 -1.782577,3.104285 -1.027774,2.307343 -1.930646,5.5849287 -2.709329,9.8330014 -0.388464,2.0907114 -0.671289,3.9677128 -0.848411,5.63045582 l -2.911871,2.27438728 c -1.988063,2.0486646 -3.016523,4.4061572 -3.086637,7.0721523 -0.06573,2.4993702 0.728092,4.6539462 2.381214,6.4648422 1.19972,1.298759 2.707338,2.305398 4.522682,3.020076 l 10.0822641,0.815663 c 4.4743096,-0.215869 7.9225367,-0.692268 10.3429685,-1.428996 0.12635,-0.03846 0.243627,-0.07906 0.3667307,-0.118271 l 3.4479228,9.503068 c -3.7691645,1.860284 -6.20541685,5.394649 -7.305038,10.607523 -1.0792356,5.296565 -0.3444761,9.506616 2.20447206,12.630975 0.82945294,1.013237 1.94596684,1.978919 3.34882484,2.897177 0.1007549,1.722031 0.1252831,3.401928 0.082108,5.042809 -1.0435507,1.239368 -2.92428613,3.15111 -5.6595789,5.747747 -3.1751734,3.949783 -4.7280249,8.503872 -4.6585657,13.662483 0.00215,0.236054 0.00662,0.461718 0.010771,0.690071 l -0.5759996,0.06544 c 0.2441417,1.513953 0.5153505,2.907593 0.8123872,4.189377 0.075584,0.722709 0.1665749,1.385049 0.2765387,1.975005 0.3645022,2.038132 0.989304,3.762816 1.8746788,5.175413 l 0.4094156,0.01569 c 0.099056,0.17136 0.1985916,0.337148 0.3005548,0.495748 l 1.9031392,-0.02871 c -0.4500958,1.822661 -0.9134582,3.606795 -1.3947063,5.341547 l 5.2280489,1.692038 c 4.4437586,0.874361 8.8607003,0.676443 13.2501343,-0.595168 l 1.277254,-21.223826 c 0.148606,-3.768487 0.03678,-8.027245 -0.334698,-12.776195 l -0.18021,-2.53944 c 0.323988,-0.530856 0.620595,-1.067853 0.891845,-1.611406 1.740362,0.389417 3.432411,0.660371 5.068764,0.797376 3.951069,0.330805 7.476887,-0.02596 10.582017,-1.064866 0.249474,0.540735 0.526972,1.073029 0.838741,1.594706 1.004353,1.589868 2.041145,2.797485 3.10956,3.62315 l -0.06658,7.974261 c 0.02283,0.560363 0.0088,1.122317 -0.03734,1.684989 -1.122412,1.769064 -1.928113,3.165372 -2.412133,4.182813 -0.635155,1.399048 -1.033137,3.226567 -1.204941,5.463326 -0.118739,0.208799 -0.234934,0.415276 -0.359521,0.628644 -0.832517,1.432166 -1.664779,3.265755 -2.495842,5.473746 l -0.264498,-0.08393 c -1.422343,3.795564 -2.612057,7.811954 -3.56943,12.048005 2.559538,1.53741 5.307046,2.53859 8.242057,3.00538 1.775335,0.30835 3.618006,0.42811 5.529188,0.35659 2.483807,-0.093 4.553386,-0.43801 6.20952,-1.03531 -0.47515,-2.28855 -0.502373,-5.046141 -0.08513,-8.269311 0.418377,-0.122768 0.838932,-0.253584 1.26392,-0.401869 2.515486,-0.87 4.628299,-1.928039 6.338836,-3.17432 -2.188245,-4.630309 -2.999976,-9.114425 -2.435587,-13.452252 1.037075,-3.989395 1.530233,-6.681519 1.479781,-8.075403 -0.04788,-1.424549 -1.039891,-3.560855 -2.975948,-6.409797 -1.458881,-2.087167 -2.377149,-3.687551 -2.763393,-4.805816 0.436158,-1.257261 1.344753,-3.138106 2.736377,-5.65357 1.859658,-3.424313 2.899514,-6.0475 3.119157,-7.869372 0.303202,-2.818658 -0.521437,-5.547532 -2.475029,-8.187293 -1.87783,-2.542899 -4.281818,-4.078677 -7.209631,-4.609901 -1.209247,-0.658327 -2.450713,-1.042728 -3.725693,-1.149477 l -8.356703,0.303412 c -1.177699,0.04811 -2.276714,0.01392 -3.299998,-0.10014 -0.147136,-1.016327 -0.52715,-2.239345 -1.140216,-3.669833 L 17.700086,2.3499923 C 17.588436,2.1854549 17.46103,2.0314405 17.326589,1.8824421 c 0.05418,-0.7911383 0.04427,-1.66874893 -0.03463,-2.63899515 -0.584176,-6.95173475 -1.5767,-12.32959195 -2.977287,-16.13472895 -1.524318,-4.189156 -3.60955,-7.088742 -6.2550656,-8.700193 -0.3068726,-1.321459 -0.8837994,-2.411444 -1.733825,-3.265698 -0.5525015,-0.548091 -2.584867,-1.88524 -6.09717594,-4.011791 -2.43011366,-1.431144 -3.62382856,-2.963002 -3.58088346,-4.595924 z"
     style="filter:url(#Filter_1)"
     transform="matrix(1.9924469,-0.16699219,0.16702271,1.9923248,56.55,79.85)" />
</svg>
