<?xml version="1.0" encoding="UTF-8" standalone="no"?>
<svg
   version="1.1"
   preserveAspectRatio="none"
   x="0px"
   y="0px"
   width="264"
   height="283"
   viewBox="0 0 264 283"
   id="svg2620"
   sodipodi:docname="pony_female_walk_bg_0021.svg"
   xmlns:inkscape="http://www.inkscape.org/namespaces/inkscape"
   xmlns:sodipodi="http://sodipodi.sourceforge.net/DTD/sodipodi-0.dtd"
   xmlns="http://www.w3.org/2000/svg"
   xmlns:svg="http://www.w3.org/2000/svg">
  <sodipodi:namedview
     id="namedview2622"
     pagecolor="#ffffff"
     bordercolor="#000000"
     borderopacity="0.25"
     inkscape:showpageshadow="2"
     inkscape:pageopacity="0.0"
     inkscape:pagecheckerboard="0"
     inkscape:deskcolor="#d1d1d1"
     showgrid="false" />
  <defs
     id="defs2566">
    <filter
       id="Filter_1"
       x="0"
       y="0"
       width="1"
       height="1"
       color-interpolation-filters="sRGB">
      <feColorMatrix
         in="SourceGraphic"
         type="matrix"
         values="0 0 0 0 0 0 0 0 0 0.8 0 0 0 0 0.4 0 0 0 1 0"
         result="result1"
         id="feColorMatrix2533" />
    </filter>
  </defs>
  <path
     fill="#FFFFFF"
     id="path2624"
     d="m -4.211894,-37.372969 c -0.6724441,0.694514 -1.2799718,1.605953 -1.8226525,2.734904 -1.0856361,2.291236 -1.3379877,4.588849 -0.7569368,6.893823 0.1778896,0.68251 0.4043788,1.323821 0.6787351,1.923812 -2.116396,0.788014 -3.9595408,1.930289 -5.5225688,3.436693 -1.141864,1.024005 -2.270852,2.432136 -3.385701,4.223091 -0.843234,1.193146 -1.417873,2.238635 -1.725295,3.136174 -0.985909,2.325394 -1.830456,5.6184207 -2.532296,9.8796445 -0.350645,2.0972781 -0.599299,3.9790281 -0.74637,5.64461609 l -2.869326,2.32646371 c -1.950665,2.0840903 -2.936888,4.4594001 -2.958866,7.1260993 -0.0206,2.5000304 0.811933,4.6397804 2.497393,6.4204814 1.222909,1.276848 2.747768,2.256175 4.57563,2.937961 l 10.0955813,0.633393 c 4.4694684,-0.296521 7.90783315,-0.835096 10.314456,-1.615324 0.079523,-0.02578 0.1527371,-0.05285 0.2309544,-0.07891 L 5.5830623,28.5069 c -3.8706542,2.168695 -6.11950592,6.014687 -6.7387666,11.544365 -0.5643999,5.374132 0.57242315,9.493743 3.4092861,12.357459 0.8581706,0.863405 1.9629986,1.660681 3.3067001,2.394657 0.021104,0.508853 0.01032,0.987962 -0.03726,1.431402 -0.117832,0.998133 -1.4380096,3.991344 -3.9609376,8.980847 -1.87333776,4.612109 -2.6314571,8.81999 -2.28239935,12.62613 -0.0486376,0.125724 -0.1021559,0.258933 -0.15044255,0.38415 -4.0917575,10.696194 -5.8593598,18.232755 -5.3039814,22.61036 1.2891883,0.62314 3.0316139,1.07107 5.22726912,1.34364 1.10914342,0.13769 2.22103788,0.20973 3.33674818,0.21779 3.3740691,0.0482 6.788032,-0.49181 10.2413767,-1.62542 l 0.175427,-4.248137 c -0.06939,-0.06101 -0.13914,-0.121001 -0.208726,-0.181511 0.09336,-1.691819 0.19924,-3.303817 0.31244,-4.865015 3.228223,-0.966852 6.185119,-2.481365 8.869324,-4.546271 L 16.089807,75.07731 c -0.309253,-0.678855 -0.563287,-1.379174 -0.766464,-2.09828 0.944677,-4.416394 2.149324,-9.131371 3.601623,-14.135275 2.092197,0.304586 4.099524,0.448476 6.0173,0.423866 3.510544,-0.04505 6.639268,-0.593091 9.38603,-1.643612 0.811288,0.505277 1.629817,0.886255 2.456933,1.13303 l -0.166693,6.550733 c -0.01152,0.646004 -1.36013,2.407514 -4.045386,5.282928 -2.820774,2.996084 -4.367023,5.568222 -4.638757,7.717404 -0.343883,2.455613 -0.299644,5.626088 0.13116,9.511029 l 0.75981,5.044351 c 3.900849,0.02028 7.750181,-0.693293 11.54867,-2.13741 -0.135721,1.059526 -0.25864,2.183888 -0.368033,3.382137 l -0.370409,6.745399 c 3.388789,1.64197 6.909445,2.48355 10.560885,2.52995 1.26743,0.039 2.551406,-0.0182 3.850669,-0.17257 2.405153,-0.25716 4.380293,-0.7386 5.926582,-1.44452 -0.416646,-0.94099 -0.793623,-2.247677 -1.130526,-3.920747 -0.201196,-0.171292 -0.397064,-0.333639 -0.595714,-0.500033 -0.626939,-3.35242 -0.753874,-7.406742 -0.377724,-12.170515 0.890296,-6.919081 1.264916,-11.130256 1.125024,-12.633105 -0.139298,-1.53618 -1.210288,-4.089301 -3.213748,-7.659214 -2.03798,-3.503847 -3.096374,-5.839594 -3.175552,-7.007948 -0.113698,-1.102288 0.461131,-3.442827 1.725257,-7.021119 1.230795,-3.578888 1.779514,-6.302802 1.646163,-8.172287 -0.248239,-2.905113 -1.633385,-5.614097 -4.155834,-8.126353 -2.356634,-2.301955 -5.073245,-3.66206 -8.146816,-4.085988 -1.380402,-0.642696 -2.767834,-0.957673 -4.162932,-0.93977 l -8.286345,1.106427 c -1.291839,0.178344 -2.499063,0.248349 -3.621805,0.21085 -0.201665,-0.760341 -0.500733,-1.608467 -0.903021,-2.547139 L 17.699963,2.3500165 c -0.15501,-0.2284356 -0.33273,-0.4420499 -0.531669,-0.6405336 0.04886,-0.82171172 0.02328,-1.73801795 -0.07784,-2.7541612 -0.709532,-6.9397371 -1.798706,-12.2996197 -3.26768,-16.0786967 -1.599608,-4.16078 -3.736845,-7.021284 -6.4108864,-8.584682 -0.3306362,-1.315857 -0.9269956,-2.394287 -1.7923623,-3.233128 -0.5622779,-0.538011 -2.6182472,-1.83847 -6.16819876,-3.901226 -2.45543284,-1.387014 -3.67667834,-2.897204 -3.66321654,-4.530558 z"
     style="filter:url(#Filter_1)"
     transform="matrix(1.999527,-0.03567505,0.03567505,1.9994049,59.55,77.05)" />
</svg>
