
<svg xmlns="http://www.w3.org/2000/svg" version="1.1" xmlns:xlink="http://www.w3.org/1999/xlink" preserveAspectRatio="none" x="0px" y="0px" width="330px" height="358px" viewBox="0 0 330 358">
<defs>
<filter id="Filter_1" x="-20%" y="-20%" width="140%" height="140%" color-interpolation-filters="sRGB">
<feColorMatrix in="SourceGraphic" type="matrix" values="0 0 0 0 1 0 0 0 0 0 0 0 0 0 0.4 0 0 0 1 0" result="result1"/>
</filter>

<g id="anims_pony_jump_anim_clean_flats_0_Layer0_0_FILL">
<path fill="#FFFFFF" stroke="none" d="
M 84.6 95.45
Q 87.7 90.2 86.95 86.5 86.15 82.05 80.9 77.75 76.4724609375 74.1013671875 72.05 73.45 71.0314453125 73.0345703125 69.95 72.95 65.05 73.25 62.5 73.3 60.32578125 73.4388671875 58.5 73.1 58.362109375 72.644921875 58.15 72.15 57.05 69.45 53 57.55
L 49.15 46.2
Q 48.2 44.8 46.15 44.15 46.16796875 43.4810546875 46.15 42.8 45.9 32.35 44.15 26.5 42.234765625 20.0947265625 38.4 17.45 38.095703125 15.448828125 36.9 14.1 36.15 13.2 31.05 9.7 27.5 7.3 27.75 4.9
L 25.75 7.45
Q 23.85 10.75 24.45 14.3 24.62578125 15.330859375 24.95 16.25 22.4734375 16.9443359375 20.45 18.3 18.45 19.65 14 25.05 11.8 27.65 10.5 32.1 9.8 34.45 8.75 37.95 8.35 39.05 4.75 43.4 1.65 47.3 1.7 48.8 1.75 51.3 2.4 54.7 3.3 58.7 4.4 60.05 5.75 61.6 9.4 63.55 13.15 65.4 15.2 65.65 17.75 65.9 20.55 64.75 23.9 63.3 25.15 60.25
L 29.45 60.95
Q 31.2875 61.045703125 32.85 60.85
L 35.1 67.2
Q 35.9328125 69.531640625 36.6 71.35 33.7869140625 74.38203125 32.7 79.85 31.15 87.75 34.55 92.45 34.6439453125 92.5751953125 34.75 92.7 30.9185546875 94.5228515625 29.55 95.45 25.3 98.1 23.1 101.8 20.95 105.55 19.9 112.7 18.75 120.55 20.4 124.7
L 25.9 124.95
Q 25.900390625 129.59609375 26.95 132.45
L 32.4 133.9
Q 39.1 134.95 45.35 133.05 44.3 127.1 43.4 120.6 43.1 118.25 43.6 115.9 44.1 113.9 45.35 111.15 47.65 106.3 49.8 102.55
L 50.9 100.75
Q 52.566796875 101.1060546875 54.15 101.25 55.066015625 101.3267578125 55.95 101.35 55.9544921875 109.9890625 63.45 109.2 57.5 113.9 55 118.95 52.75 123.45 51.1 129.15 50.25 132 49.85 133.95 55.65 137.4 63.2 136.35 66.9041015625 135.8138671875 69.4 134.65 69.539453125 136.2302734375 69.7 137.45 76.75 140.75 83.9 139.75 87.5 139.2 89.65 138.05 86.35 131.3 86.05 121.6 86.4 112.55 86.45 111.3 86.5 109.05 84.95 106.85 83.05 104.4 79.35 102.65 83.05 98.15 84.6 95.45 Z"/>
</g>
</defs>

<g transform="matrix( 2, 0, 0, 1.9998779296875, 55.6,72.4) ">
<g transform="matrix( 1, 0, 0, 1, 0.05,-3) ">
<g transform="matrix( 1, 0, 0, 1, 0,0) ">
<use filter="url(#Filter_1)" xlink:href="#anims_pony_jump_anim_clean_flats_0_Layer0_0_FILL"/>
</g>
</g>
</g>
</svg>
