
<svg xmlns="http://www.w3.org/2000/svg" version="1.1" xmlns:xlink="http://www.w3.org/1999/xlink" preserveAspectRatio="none" x="0px" y="0px" width="330px" height="358px" viewBox="50 364 330 358">
<defs>
<filter id="Filter_1" x="-20%" y="-20%" width="140%" height="140%" color-interpolation-filters="sRGB">
<feColorMatrix in="SourceGraphic" type="matrix" values="0 0 0 0 0.4 0 0 0 0 0.8 0 0 0 0 0.4 0 0 0 1 0" result="result1"/>
</filter>

<g id="Symbol_395_0_Layer0_0_FILL">
<path fill="#FFFFFF" stroke="none" d="
M 74.15 94.95
Q 73.75 91.45 70.3 88.8 66.45 85.85 61.2 86.05
L 52.05 100.15
Q 47.45 104.3 49.55 110.4 51.7 116.85 59.05 115.95 54.25 119.6 53.05 123.35 51.95 126.7 51.65 130.85
L 51.6 134.35
Q 58.3 136.65 65.6 135.65 69.25 135.05 71.5 134.1 68.9 129.1 69.6 121.7
L 71.05 113.85
Q 71.35 112.15 70 110.55 68.4 108.75 64.9 107.55 69.05 103.95 70.85 101.85 74.5 97.75 74.15 94.95 Z"/>
</g>

<g id="Symbol_395_0_Layer0_1_FILL">
<path fill="#FFFFFF" stroke="none" d="
M 35.2 121.4
Q 37.75 119.9 39.9 115.75
L 41.5 111.9 31.7 103.8 28.35 108.4
Q 25.55 113.5 27.95 115.95 23.85 115.4 20.9 116.65 16.45 118.4 15.2 123.95 14.15 128.95 14.55 133.05
L 20.3 134.75
Q 27.1 136.35 33.2 135.7 33.15 131.55 32.5 126 32.3 124.3 32.7 123.45 33.2 122.45 35.2 121.4 Z"/>
</g>

<g id="Symbol_395_0_Layer0_2_FILL">
<path fill="#FFFFFF" stroke="none" d="
M 35.35 73.8
L 23.1 66.9 19.1 67.1
Q 14.85 68.55 13.95 75.2 13.2 80.55 15.75 84.25 17.25 86.45 19.55 87.6
L 40.55 99
Q 43.15 100.25 47.5 99.45 53.05 98.5 55.6 94.05 58.2 89.3 56.75 86.65 55.65 84.75 51.25 82.6 48.2 81.1 35.35 73.8 Z"/>
</g>

<g id="Symbol_395_0_Layer0_3_FILL">
<path fill="#FFFFFF" stroke="none" d="
M 31.85 85.15
Q 26.15 88.8 26.45 96.8 26.85 104.45 32 108.05 35.75 110.75 43.9 111.85
L 56.75 112.3
Q 66.45 111.25 71.7 106.1 74.3 103.55 76.45 98.85 78.3 94.95 78.95 91.55 79.7 87.45 75.05 84.75 70.95 82.5 67.25 82.9
L 58.8 84.75
Q 53.5 85.95 49.7 84.75 43.4 82.85 42 82.7 36.65 82.1 31.85 85.15 Z"/>
</g>

<g id="Symbol_395_0_Layer0_4_FILL">
<path fill="#FFFFFF" stroke="none" d="
M 78.55 86.35
Q 74.55 82.8 69.3 82.8
L 60.95 98.6
Q 56.6 103.15 59 110.3 61.5 117.75 68.85 117.05 64.25 121.05 63.2 125.3 62.3 129.05 62.25 133.85 62.2 136.2 62.4 137.85 69.2 140.75 76.4 139.9 80.05 139.4 82.25 138.4 79.4 132.55 79.65 124.15
L 80.7 115.2
Q 80.9 113.2 79.5 111.3 77.75 109.2 74.15 107.65 78.1 103.7 79.85 101.4 83.25 96.85 82.8 93.6 82.2 89.55 78.55 86.35 Z"/>
</g>

<g id="Symbol_395_0_Layer0_5_FILL">
<path fill="#FFFFFF" stroke="none" d="
M 45.1 138.5
L 42.35 127.35
Q 41.8 125.4 42.05 124.35 42.3 123.15 44 121.5 46.15 119.35 47.4 114.15
L 48.1 109.4 36.9 101.7 34.65 107.65
Q 33 114.1 35.85 116.45 31.75 116.6 29.15 118.5 25.25 121.35 25.2 127.95 25.25 134 26.5 138.7
L 32.4 139.7
Q 39.35 140.3 45.1 138.5 Z"/>
</g>

<g id="Symbol_395_0_Layer0_6_FILL">
<path fill="#FFFFFF" stroke="none" d="
M 5.9 48.45
Q 1.75 46.9 1.75 45 0.6 45.85 -0.3 47.15 -2.05 49.8 -1.05 52.4 1.5 58.75 14.95 58.65 15.45 57.45 15.45 55.95 15.45 52.9 13 51.3 12.05 50.7 5.9 48.45 Z"/>
</g>

<g id="Symbol_395_0_Layer0_7_FILL">
<path fill="#FFFFFF" stroke="none" d="
M 26.35 72.4
Q 25 64.5 22.45 60.2 18 52.75 9.05 52.8 -0.9 52.85 -6.5 56.5 -8.4 57.75 -10.25 59.8 -11.65 61.15 -12.15 62.2 -13.8 64.85 -14.9 69.75
L -15.7 74.05 -18.9 75.85
Q -22.2 78.25 -22.15 81.3 -22.15 84.15 -19.25 86.2 -17.15 87.55 -14.05 88.35
L -2.6 88.7 9.05 87.35
Q 13.3 86.35 15.35 85.1 19 82.9 19.05 78.8 23.15 78.7 24.7 77.7 27 76.3 26.35 72.4 Z"/>
</g>
</defs>

<g transform="matrix( 2, 0, 0, 1.9998779296875, 100.1,433.95) ">
<g transform="matrix( 1, 0, 0, 1, 0,0) ">
<use filter="url(#Filter_1)" xlink:href="#Symbol_395_0_Layer0_0_FILL"/>
</g>

<g transform="matrix( 1, 0, 0, 1, 0,0) ">
<use filter="url(#Filter_1)" xlink:href="#Symbol_395_0_Layer0_1_FILL"/>
</g>

<g transform="matrix( 1, 0, 0, 1, 0,0) ">
<use filter="url(#Filter_1)" xlink:href="#Symbol_395_0_Layer0_2_FILL"/>
</g>

<g transform="matrix( 1, 0, 0, 1, 0,0) ">
<use filter="url(#Filter_1)" xlink:href="#Symbol_395_0_Layer0_3_FILL"/>
</g>

<g transform="matrix( 1, 0, 0, 1, 0,0) ">
<use filter="url(#Filter_1)" xlink:href="#Symbol_395_0_Layer0_4_FILL"/>
</g>

<g transform="matrix( 1, 0, 0, 1, 0,0) ">
<use filter="url(#Filter_1)" xlink:href="#Symbol_395_0_Layer0_5_FILL"/>
</g>

<g transform="matrix( 1, 0, 0, 1, 0,0) ">
<use filter="url(#Filter_1)" xlink:href="#Symbol_395_0_Layer0_6_FILL"/>
</g>

<g transform="matrix( 1, 0, 0, 1, 0,0) ">
<use filter="url(#Filter_1)" xlink:href="#Symbol_395_0_Layer0_7_FILL"/>
</g>
</g>
</svg>
