<?xml version="1.0" encoding="UTF-8" standalone="no"?>
<svg
   version="1.1"
   preserveAspectRatio="none"
   x="0px"
   y="0px"
   width="264"
   height="283"
   viewBox="0 0 264 283"
   id="svg397"
   sodipodi:docname="pony_female_walk_bg_0012.svg"
   xmlns:inkscape="http://www.inkscape.org/namespaces/inkscape"
   xmlns:sodipodi="http://sodipodi.sourceforge.net/DTD/sodipodi-0.dtd"
   xmlns="http://www.w3.org/2000/svg"
   xmlns:svg="http://www.w3.org/2000/svg">
  <sodipodi:namedview
     id="namedview399"
     pagecolor="#ffffff"
     bordercolor="#000000"
     borderopacity="0.25"
     inkscape:showpageshadow="2"
     inkscape:pageopacity="0.0"
     inkscape:pagecheckerboard="0"
     inkscape:deskcolor="#d1d1d1"
     showgrid="false" />
  <defs
     id="defs343">
    <filter
       id="Filter_1"
       x="0"
       y="0"
       width="1"
       height="1"
       color-interpolation-filters="sRGB">
      <feColorMatrix
         in="SourceGraphic"
         type="matrix"
         values="0 0 0 0 0 0 0 0 0 0.8 0 0 0 0 0.4 0 0 0 1 0"
         result="result1"
         id="feColorMatrix310" />
    </filter>
  </defs>
  <path
     fill="#FFFFFF"
     id="path401"
     d="m -3.1157307,-37.545533 c -0.6875419,0.679649 -1.3148987,1.577403 -1.8822259,2.694249 -1.1356598,2.267013 -1.4384377,4.559663 -0.9080287,6.876927 0.1629227,0.686401 0.375685,1.331568 0.6369006,1.93755 -2.1335146,0.741497 -4.0019346,1.843401 -5.5978363,3.315409 -1.164096,0.998792 -2.322526,2.380943 -3.476425,4.147131 -0.869231,1.174444 -1.4675,2.207398 -1.79454,3.09803 -1.036701,2.30335 -1.953219,5.5773656 -2.748344,9.8223992 -0.396556,2.0891954 -0.686579,3.9645606 -0.870137,5.62660843 L -22.675596,2.236369 c -1.995983,2.0409555 -3.034981,4.3947608 -3.115417,7.0604693 -0.07541,2.4991017 0.710192,4.6566787 2.356293,6.4739657 1.194684,1.303396 2.69809,2.31613 4.510657,3.037832 l 10.0799756,0.853932 c 4.4751189,-0.198543 7.92474659,-0.661167 10.3480164,-1.38852 0.1131313,-0.03396 0.2181112,-0.06983 0.3286483,-0.104403 l 3.4786077,9.586504 c -3.7338454,1.886067 -6.13505107,5.427261 -7.20241,10.625386 -1.0507031,5.30205 -0.29328,9.507775 2.27230964,12.618247 0.60056816,0.725644 1.35060866,1.425965 2.24763056,2.100866 -0.044339,2.181592 -0.2720673,4.148931 -0.6857711,5.897889 -0.453865,1.937487 -2.17799325,7.252951 -5.1716231,15.946775 -2.7766926,8.911611 -4.1485073,15.910927 -4.1149959,20.997299 l 5.2371378,1.666427 c 4.4146536,0.849925 8.8295002,0.630284 13.2457881,-0.66018 l 0.328572,-3.76732 c 2.958598,-0.688122 5.700609,-1.865387 8.224465,-3.534474 l -0.307647,-0.67101 c 0.109493,-0.07695 0.220146,-0.15212 0.328821,-0.230798 l -1.70721,-3.7966 C 17.821278,84.8817 17.636511,84.816095 17.451568,84.751055 l -2.809011,-6.138291 c -0.734692,-1.754243 -1.238393,-3.238879 -1.513228,-4.454497 l 0.48132,-5.517153 c 0.16943,-0.343161 0.366236,-0.677023 0.593295,-0.999745 1.99052,-2.890041 3.382041,-5.653309 4.178606,-8.290663 1.35739,0.257987 2.683682,0.44271 3.975464,0.543875 3.664349,0.286973 6.959345,-0.01705 9.89036,-0.903308 0.01474,0.01519 0.02863,0.03039 0.04344,0.04556 0.561157,0.568625 1.118869,1.08348 1.674094,1.54607 0.900317,1.471893 1.841945,2.595642 2.825763,3.367441 l 0.022,0.317267 -0.525129,2.607278 c -0.369883,2.144786 -0.552567,3.819495 -0.547254,5.023955 6.8e-5,1.270938 -0.492344,2.854116 -1.478029,4.749651 l -4.167621,7.046062 c -1.500851,2.490364 -3.027244,6.149816 -4.578701,10.977379 l -1.919556,6.520804 c 3.110001,1.8607 6.527855,2.91889 10.250861,3.18392 1.245798,0.11969 2.525147,0.14872 3.839265,0.0843 2.519127,-0.13574 4.620767,-0.48826 6.304533,-1.0578 -0.169352,-0.93044 -0.264639,-1.95456 -0.288929,-3.06933 0.310797,-0.008 0.622709,-0.0212 0.935962,-0.0398 2.41981,-0.14867 4.421417,-0.515 6.006064,-1.099968 -1.407167,-3.784318 -1.560447,-8.828914 -0.461161,-15.131919 1.45039,-6.090099 2.147072,-9.831078 2.089789,-11.224666 -0.05486,-1.424265 -1.034224,-3.848259 -2.938196,-7.27048 -1.305695,-2.261368 -2.165286,-3.994313 -2.59991,-5.224197 0.0038,-0.05761 0.0079,-0.115001 0.01516,-0.167348 0.153014,-1.091634 1.16758,-3.353229 3.043626,-6.783918 1.842808,-3.433311 2.886195,-6.06021 3.130138,-7.880474 0.422329,-2.80956 -0.287175,-5.474573 -2.128552,-7.994462 -1.732174,-2.334837 -3.976438,-3.779585 -6.727036,-4.342505 -1.452348,-0.930067 -2.950127,-1.457502 -4.494492,-1.578449 l -8.355313,0.349238 c -1.215255,0.05619 -2.346817,0.02282 -3.398499,-0.09464 -0.158661,-0.992659 -0.531492,-2.174757 -1.12108,-3.550462 L 17.70001,2.3502703 C 17.609718,2.2172079 17.510106,2.0902638 17.404908,1.9673641 17.469161,1.1546354 17.464503,0.24828497 17.386657,-0.75725045 16.829398,-7.7112076 15.857501,-13.093364 14.471655,-16.903902 c -1.508091,-4.195035 -3.582387,-7.102317 -6.2216492,-8.724001 -0.3016997,-1.323042 -0.8742207,-2.414731 -1.7211248,-3.272465 -0.5503762,-0.550226 -2.57696,-1.89565 -6.08101509,-4.035788 -2.42455861,-1.440545 -3.61286351,-2.97663 -3.56359661,-4.609377 z"
     style="filter:url(#Filter_1)"
     transform="matrix(1.9932861,-0.15722656,0.15725708,1.9931641,56.65,79.7)" />
</svg>
