
<svg xmlns="http://www.w3.org/2000/svg" version="1.1" xmlns:xlink="http://www.w3.org/1999/xlink" preserveAspectRatio="none" x="0px" y="0px" width="330px" height="358px" viewBox="0 0 330 358">
<defs>
<filter id="Filter_1" x="-20%" y="-20%" width="140%" height="140%" color-interpolation-filters="sRGB">
<feColorMatrix in="SourceGraphic" type="matrix" values="0 0 0 0 1 0 0 0 0 0 0 0 0 0 0.4 0 0 0 1 0" result="result1"/>
</filter>

<g id="anims_pony_jump_anim_clean_flats_19_Layer0_0_FILL">
<path fill="#FFFFFF" stroke="none" d="
M 81.3 96.2
Q 82.65 88.7 82.55 86.6 82.45 84.25 79.3 80.1 75.8 75.65 75.45 74.35 75.365625 73.9912109375 75.35 73.5 77.373046875 70.4482421875 77.7 68.2 77.91640625 66.959375 77.85 65.7 78.504296875 63.4748046875 78.35 61.9 77.95 57.9 74.35 54.55 70.4 50.75 65.15 50.7
L 64.95 51.15
Q 64.6740234375 51.2068359375 64.4 51.25 59.1 52.8 56.35 53.55 54.146875 54.1826171875 52.2 54.3 51.7759765625 53.942578125 51.25 53.55 48.95 51.8 39.5 43.5
L 30.5 35.6
Q 28.95 34.85 26.85 35.3 26.458984375 35.390625 26.05 35.5 26.0658203125 35.4892578125 26.05 35.45 22.25 25.75 18.65 20.8 14.659375 15.4267578125 10.15 14.25 9.1564453125 12.4791015625 7.55 11.6 6.55 11.1 0.55 9.5 -3.5 8.45 -4.15 6.1
L -5.2 9.25
Q -5.85 13 -4.05 16.1 -3.5330078125 17.0015625 -2.9 17.75 -5.012890625 19.26640625 -6.45 21.25 -7.9 23.25 -10.2 29.75 -11.4 32.95 -11.1 37.6 -11 40.05 -10.7 43.7 -10.75 44.85 -12.6 50.25 -14.2 54.9 -13.65 56.3 -12.7 58.65 -10.95 61.6 -8.75 65.05 -7.2 65.95 -5.45 66.9 -1.3 67.45 2.85 67.95 4.85 67.5 7.3 66.85 9.5 64.85 12.2 62.3 12.35 59.05
L 16.6 58.2
Q 20.23125 57.134375 22.3 55.25
L 27.15 59.4
Q 25.5095703125 62.7521484375 25.65 67.5 25.89765625 74.1875 29.25 77.85 28.584765625 78.3404296875 27.7 79 24.85 81.35 22.6 83.75 15.85 91.25 15.35 100.25 14.7 111.8 16.2 117.55
L 21 119.05
Q 23.9248046875 119.4712890625 26.75 118.9 27.6453125 125.1837890625 29.3 128.7
L 34.85 129
Q 41.6 128.5 47.3 124.5 45.2 117.3 43.1 109.35 42.3 106.5 42.4 103.5 42.45 100.8 43.2 97 44.5 90.4 45.9 85.1
L 46.45 83.15
Q 50.6140625 83.344921875 54.25 82.75 57.984375 82.161328125 61 80.85 62.2806640625 82.3265625 63.6 83.25
L 62.7 90.8
Q 62.6 92 58.3 95.9 53.8 100 53.05 103.7 52.25 107.75 52.3 114.75 52.3 118.3 52.5 120.95 59.55 123 66.65 120.95 70.2 119.95 72.35 118.5 71.28515625 116.740625 70.75 114.8 76.0140625 114.0859375 80.65 111.4 83.85 109.65 85.55 107.8 80.85 103.6 81.3 96.2
M 30.15 94.75
Q 30.3650390625 93.305078125 31.3 92.65 30.770703125 93.658984375 30.15 94.75 Z"/>
</g>
</defs>

<g transform="matrix( 2, 0, 0, 1.9998779296875, 55.6,72.4) ">
<g transform="matrix( 1, 0, 0, 1, 0.05,-3) ">
<g transform="matrix( 1, 0, 0, 1, 0,0) ">
<use filter="url(#Filter_1)" xlink:href="#anims_pony_jump_anim_clean_flats_19_Layer0_0_FILL"/>
</g>
</g>
</g>
</svg>
