
<svg xmlns="http://www.w3.org/2000/svg" version="1.1" xmlns:xlink="http://www.w3.org/1999/xlink" preserveAspectRatio="none" x="0px" y="0px" width="330px" height="358px" viewBox="50 364 330 358">
<defs>
<filter id="Filter_1" x="-20%" y="-20%" width="140%" height="140%" color-interpolation-filters="sRGB">
<feColorMatrix in="SourceGraphic" type="matrix" values="0 0 0 0 0.4 0 0 0 0 0.8 0 0 0 0 0.4 0 0 0 1 0" result="result1"/>
</filter>

<g id="Symbol_71_0_Layer0_0_FILL">
<path fill="#FFFFFF" stroke="none" d="
M 88.55 95.65
Q 89.65 92.1 87.3 89.3 84.75 86.15 79.5 86.15
L 64.7 100.05
Q 58.45 104.05 57.95 110.35 57.35 116.9 65 116.3 58.75 119.8 56 123.55 53.5 126.85 51.5 131.05 50.5 133.15 50 134.6 55.6 137.15 63.2 136.4
L 69.65 135.1
Q 69.2 129.95 72.9 122.5
L 77.65 114.65
Q 78.65 112.9 78 111.25 77.15 109.35 74.2 108
L 82.45 102.5
Q 87.7 98.5 88.55 95.65 Z"/>
</g>

<g id="Symbol_71_0_Layer0_1_FILL">
<path fill="#FFFFFF" stroke="none" d="
M 36.3 94.3
Q 31.4 95.9 29.7 96.7 25.2 98.85 22.55 102.25 19.95 105.7 18.05 112.65 15.95 120.3 17.05 124.65
L 23.45 125.7
Q 30.7 126.05 35.1 122.45 35.1 118.1 33.35 111.45 32.6 108.55 36.2 106 39.6 103.5 42.55 103.7 47.5 104.1 49.55 101
L 50.65 97.85 41.35 89.75 40.9 91.4
Q 39.75 93.2 36.3 94.3 Z"/>
</g>

<g id="Symbol_71_0_Layer0_2_FILL">
<path fill="#FFFFFF" stroke="none" d="
M 38.65 64.55
Q 38.6 66.9 39.75 68.75
L 44.5 76.85
Q 49.35 85.2 50.15 86.3 51.55 88.25 55.45 89.4 60.55 90.85 65.05 88.3 69.85 85.6 70.15 82.9 70.4 80.95 68.05 77.5
L 54.4 53.65
Q 53.25 52.45 51.05 52.15 46.85 51.7 42.35 56.6 38.65 60.55 38.65 64.55 Z"/>
</g>

<g id="Symbol_71_0_Layer0_3_FILL">
<path fill="#FFFFFF" stroke="none" d="
M 87.55 85.4
Q 84.75 81.95 81.25 81.3
L 72.9 80.7
Q 67.65 80.4 64.7 78.15 59.7 74.5 58.5 74 53.85 71.8 48.4 73.45 41.95 75.45 39.3 83.5 36.9 91.2 40.2 96.25 42.65 100 49.55 103.4 55.6 106.5 61 107.5 70.2 109.25 76.8 105.6 80.05 103.8 83.75 99.75 86.8 96.4 88.6 93.25 90.85 89.35 87.55 85.4 Z"/>
</g>

<g id="Symbol_71_0_Layer0_4_FILL">
<path fill="#FFFFFF" stroke="none" d="
M 90.05 84.95
Q 86.3 81.3 81.05 81.3
L 71.55 97.5
Q 66.85 102.15 68.75 109.5 70.7 117.15 78.1 116.45 73.2 120.55 71.85 124.9 70.65 128.8 70.25 133.7
L 70.1 137.8
Q 76.7 140.8 84 139.9 87.65 139.4 89.95 138.35 87.5 132.35 88.4 123.7
L 90.1 114.55
Q 90.45 112.5 89.15 110.55 87.6 108.35 84.1 106.8 88.35 102.75 90.25 100.35 94 95.7 93.75 92.4 93.45 88.2 90.05 84.95 Z"/>
</g>

<g id="Symbol_71_0_Layer0_5_FILL">
<path fill="#FFFFFF" stroke="none" d="
M 47.3 94
L 46.85 95.65
Q 45.7 97.45 42.25 98.55
L 35.65 100.95
Q 31.15 103.1 28.5 106.5 25.9 109.95 24 116.9 21.9 124.55 23 128.9
L 29.4 129.95
Q 36.65 130.3 41.05 126.7 41.05 122.35 39.3 115.7 38.55 112.8 42.15 110.25 45.55 107.75 48.5 107.95 53.45 108.35 55.5 105.25
L 56.6 102.1 52 98.2
Q 47.4 94.3 47.3 94 Z"/>
</g>

<g id="Symbol_71_0_Layer0_6_FILL">
<path fill="#FFFFFF" stroke="none" d="
M 47.9 34.55
L 49.3 31.2
Q 50.3 27.3 48.75 24.8 48.15 23.8 43.8 19.45 40.7 16.55 41.35 14.15 40.15 14.95 38.9 16.4 36.45 19.25 36.45 22.85 36.45 31.5 47.9 34.55 Z"/>
</g>

<g id="Symbol_71_0_Layer0_7_FILL">
<path fill="#FFFFFF" stroke="none" d="
M 53.75 38.3
Q 52.5 27.75 44.9 25.7 36.45 23.45 30.4 26.8 28.35 27.85 26.05 30.05 24.4 31.45 23.6 32.65 21.3 35.65 18.7 41.55 17.35 44.5 16.6 46.9
L 13.2 48.4
Q 9.55 50.7 8.5 54.55 7.55 58.2 9.35 61.4 10.6 63.7 13.05 65.4 15.6 67.15 22.65 68.5 29.25 69.8 33.05 69.55 37 69.3 39.15 68.2 43 66.25 44.5 61.05 47.95 61.9 49.65 61 52.1 59.7 52.85 54.7 54.45 44.35 53.75 38.3 Z"/>
</g>
</defs>

<g transform="matrix( 2, 0, 0, 1.9998779296875, 100.1,433.95) ">
<g transform="matrix( 1, 0, 0, 1, 0,0) ">
<use filter="url(#Filter_1)" xlink:href="#Symbol_71_0_Layer0_0_FILL"/>
</g>

<g transform="matrix( 1, 0, 0, 1, 0,0) ">
<use filter="url(#Filter_1)" xlink:href="#Symbol_71_0_Layer0_1_FILL"/>
</g>

<g transform="matrix( 1, 0, 0, 1, 0,0) ">
<use filter="url(#Filter_1)" xlink:href="#Symbol_71_0_Layer0_2_FILL"/>
</g>

<g transform="matrix( 1, 0, 0, 1, 0,0) ">
<use filter="url(#Filter_1)" xlink:href="#Symbol_71_0_Layer0_3_FILL"/>
</g>

<g transform="matrix( 1, 0, 0, 1, 0,0) ">
<use filter="url(#Filter_1)" xlink:href="#Symbol_71_0_Layer0_4_FILL"/>
</g>

<g transform="matrix( 1, 0, 0, 1, 0,0) ">
<use filter="url(#Filter_1)" xlink:href="#Symbol_71_0_Layer0_5_FILL"/>
</g>

<g transform="matrix( 1, 0, 0, 1, 0,0) ">
<use filter="url(#Filter_1)" xlink:href="#Symbol_71_0_Layer0_6_FILL"/>
</g>

<g transform="matrix( 1, 0, 0, 1, 0,0) ">
<use filter="url(#Filter_1)" xlink:href="#Symbol_71_0_Layer0_7_FILL"/>
</g>
</g>
</svg>
