
<svg xmlns="http://www.w3.org/2000/svg" version="1.1" xmlns:xlink="http://www.w3.org/1999/xlink" preserveAspectRatio="none" x="0px" y="0px" width="330px" height="358px" viewBox="50 364 330 358">
<defs>
<linearGradient id="Gradient_1" gradientUnits="userSpaceOnUse" x1="25.3875" y1="89.23750000000001" x2="35.4125" y2="66.5625" spreadMethod="pad">
<stop  offset="9.803921568627452%" stop-color="#FFFFFF" stop-opacity="0"/>

<stop  offset="43.13725490196079%" stop-color="#FFFFFF" stop-opacity="0.6980392156862745"/>

<stop  offset="61.96078431372549%" stop-color="#FFFFFF" stop-opacity="0.6980392156862745"/>

<stop  offset="92.94117647058823%" stop-color="#FFFFFF" stop-opacity="0"/>
</linearGradient>

<filter id="Filter_1" x="-20%" y="-20%" width="140%" height="140%" color-interpolation-filters="sRGB">
<feColorMatrix in="SourceGraphic" type="matrix" values="0 0 0 0 0.4 0 0 0 0 0.8 0 0 0 0 0.4 0 0 0 1 0" result="result1"/>
</filter>

<g id="Symbol_339_0_Layer0_0_FILL">
<path fill="#FFFFFF" stroke="none" d="
M 58.05 72.15
Q 56.9 73.35 57.55 76.05
L 58.5 80.35
Q 59.4 85.25 58.9 88.45 58.6 91.05 54.25 108.8 50.5 126.8 52.25 133.8
L 57.5 134.45
Q 64 134.45 70.2 131.15 68.6 113.65 69.1 103.6 69.35 97.3 70.35 88.65
L 71.3 81.3
Q 71.6 78.85 70.9 76.3 69.6 71.3 64.8 70.9 59.65 70.5 58.05 72.15 Z"/>
</g>

<g id="Symbol_339_0_Layer0_1_FILL">
<path fill="#FFFFFF" stroke="none" d="
M 29.5 81
L 29.7 85.25
Q 29.65 90 28.6 92.85 27.8 95.15 20.3 110.7 13.25 126.55 13.75 133.4
L 18.9 135.2
Q 25.4 136.65 32.25 134.95 33.8 118.35 36.05 109.15 37.55 103.35 40.05 95.55
L 42.35 88.9
Q 43.05 86.75 42.85 84.25 42.4 79.3 37.75 77.9 32.65 76.4 30.7 77.5 29.3 78.35 29.5 81 Z"/>
</g>

<g id="Symbol_339_0_Layer0_2_FILL">
<path fill="#FFFFFF" stroke="none" d="
M 27.3 44.8
Q 25.8 44.1 23.65 44.5 19.55 45.5 16.95 51.65 14.8 56.6 16.1 60.35 16.85 62.55 18.55 63.95
L 34.2 77
Q 36.15 78.4 40.2 78.2 45.5 77.85 48.9 73.95 52.5 69.75 51.9 67.1 51.5 65.2 48.15 62.7
L 27.3 44.8 Z"/>
</g>

<g id="Symbol_339_0_Layer0_3_FILL">
<path fill="#FFFFFF" stroke="none" d="
M 37 65.15
Q 31.95 65.8 28.2 70.05 23.7 75.15 25.75 83.4 27.8 91.25 33.25 93.8 37.3 95.65 45.05 94.95 51.75 94.35 56.95 92.35 65.65 88.95 69.3 82.4 71.1 79.1 72.1 73.75 72.95 69.3 72.85 65.55 72.65 61.15 67.75 59.55
L 60.25 59.35 52.85 63.3
Q 48.25 65.75 44.5 65.4
L 37 65.15
M 28.45 69.95
L 30.95 67.65
Q 32.5 66.15 34.55 66.35 36.7 66.5 35.8 68.35
L 33.95 70.45
Q 32.45 71.7 31.7 72.5 28.75 75.35 27.95 80.95 27.65 83.85 29 87.9 29.65 89.95 30.35 91.4 28.35 89.1 26.7 85.25 25.05 81.5 25.45 77.3 25.9 72.9 28.45 69.95 Z"/>

<path fill="url(#Gradient_1)" stroke="none" d="
M 30.95 67.65
L 28.45 69.95
Q 25.9 72.9 25.45 77.3 25.05 81.5 26.7 85.25 28.35 89.1 30.35 91.4 29.65 89.95 29 87.9 27.65 83.85 27.95 80.95 28.75 75.35 31.7 72.5 32.45 71.7 33.95 70.45
L 35.8 68.35
Q 36.7 66.5 34.55 66.35 32.5 66.15 30.95 67.65 Z"/>
</g>

<g id="Symbol_339_0_Layer0_4_FILL">
<path fill="#FFFFFF" stroke="none" d="
M 83 97.95
Q 83.45 95.35 83.3 94.1 83 91.75 79.4 87.7 75.65 83.35 75.2 82 74.65 80.35 76 76.15 77.45 71.6 76.95 69.05 76.2 64.9 72.35 61.75 68.15 58.25 62.9 58.65
L 57.5 75.95
Q 58.55 81.8 63.65 85.15 66.15 86.8 68.5 87.35
L 70.15 94.4
Q 70.5 95.65 67.55 99.3 64.25 103.3 64 106.3 63.6 110.3 65.05 114.85
L 66.55 118.6
Q 73.75 119.05 79.55 116.45 82.45 115.15 83.95 113.8 81.3 109.4 82.2 102.8
L 83 97.95 Z"/>
</g>

<g id="Symbol_339_0_Layer0_5_FILL">
<path fill="#FFFFFF" stroke="none" d="
M 37.3 87.9
L 37.85 91.9
Q 38.25 96.4 37.45 99.2 36.85 101.45 30.7 116.9 25.1 132.65 26.2 139.05
L 31.45 140.25
Q 38.05 140.95 44.7 138.65 44.8 122.8 46.25 113.85 47.2 108.25 49.05 100.6
L 50.75 94.1
Q 51.3 91.95 50.85 89.6 50 84.95 45.2 84.1 40 83.2 38.2 84.45 36.9 85.4 37.3 87.9 Z"/>
</g>

<g id="Symbol_339_0_Layer0_6_FILL">
<path fill="#FFFFFF" stroke="none" d="
M 6.9 31.75
Q 6.8 30.1 6.15 28.25 4.75 24.5 2.05 23.3
L -5.1 21.8
Q -9.3 21.15 -10.15 18.85 -10.7 20.15 -10.85 22.05 -11.15 25.85 -9.2 28.75 -4.2 35.8 6.9 31.75 Z"/>
</g>

<g id="Symbol_339_0_Layer0_7_FILL">
<path fill="#FFFFFF" stroke="none" d="
M 22.5 45.45
Q 17.9 36.05 13.9 31.5 6.8 23.55 -0.6 26.25 -8.85 29.25 -11.85 35.45 -12.9 37.5 -13.55 40.6 -14.1 42.75 -14.05 44.15 -14.2 47.95 -13 54.3
L -11.7 59.85 -13.55 63
Q -15.2 67 -13.85 70.75 -12.55 74.25 -9.25 75.85 -6.85 77.05 -3.95 77.05 -0.85 77 5.7 74.1 11.85 71.35 14.85 68.95 17.9 66.55 19.05 64.3 21.05 60.55 19.35 55.45 22.7 54.15 23.55 52.45 24.8 50 22.5 45.45 Z"/>
</g>
</defs>

<g transform="matrix( 2, 0, 0, 1.9998779296875, 100.1,433.95) ">
<g transform="matrix( 1, 0, 0, 1, 0,0) ">
<use filter="url(#Filter_1)" xlink:href="#Symbol_339_0_Layer0_0_FILL"/>
</g>

<g transform="matrix( 1, 0, 0, 1, 0,0) ">
<use filter="url(#Filter_1)" xlink:href="#Symbol_339_0_Layer0_1_FILL"/>
</g>

<g transform="matrix( 1, 0, 0, 1, 0,0) ">
<use filter="url(#Filter_1)" xlink:href="#Symbol_339_0_Layer0_2_FILL"/>
</g>

<g transform="matrix( 1, 0, 0, 1, 0,0) ">
<use filter="url(#Filter_1)" xlink:href="#Symbol_339_0_Layer0_3_FILL"/>
</g>

<g transform="matrix( 1, 0, 0, 1, 0,0) ">
<use filter="url(#Filter_1)" xlink:href="#Symbol_339_0_Layer0_4_FILL"/>
</g>

<g transform="matrix( 1, 0, 0, 1, 0,0) ">
<use filter="url(#Filter_1)" xlink:href="#Symbol_339_0_Layer0_5_FILL"/>
</g>

<g transform="matrix( 1, 0, 0, 1, 0,0) ">
<use filter="url(#Filter_1)" xlink:href="#Symbol_339_0_Layer0_6_FILL"/>
</g>

<g transform="matrix( 1, 0, 0, 1, 0,0) ">
<use filter="url(#Filter_1)" xlink:href="#Symbol_339_0_Layer0_7_FILL"/>
</g>
</g>
</svg>
