
<svg xmlns="http://www.w3.org/2000/svg" version="1.1" xmlns:xlink="http://www.w3.org/1999/xlink" preserveAspectRatio="none" x="0px" y="0px" width="330px" height="358px" viewBox="50 364 330 358">
<defs>
<filter id="Filter_1" x="-20%" y="-20%" width="140%" height="140%" color-interpolation-filters="sRGB">
<feColorMatrix in="SourceGraphic" type="matrix" values="0 0 0 0 0.4 0 0 0 0 0.8 0 0 0 0 0.4 0 0 0 1 0" result="result1"/>
</filter>

<g id="Symbol_451_0_Layer0_0_FILL">
<path fill="#FFFFFF" stroke="none" d="
M 73.6 67.55
Q 70.3 63.65 65.05 63.65
L 55.35 81.05
Q 54.9 87.1 58.1 91.8 59.7 94.15 61.4 95.25
L 61 98.2
Q 60.65 101.45 60.75 103.25 60.9 105.15 59.6 108.15
L 55.85 115.6
Q 53.85 119.45 52 126.95
L 50.5 133.65
Q 56.7 136.75 64.15 135.75 67.85 135.3 70.35 134.25 68.85 128.35 71.95 117.7 75.5 107.35 75.65 105.1 75.85 102.75 73.35 97.5 70.9 92.3 71 90.6 71.15 88.95 73.6 83.55 76.05 78.15 76.25 75.4 76.6 71.1 73.6 67.55 Z"/>
</g>

<g id="Symbol_451_0_Layer0_1_FILL">
<path fill="#FFFFFF" stroke="none" d="
M 28.95 77.8
L 29.35 82.1
Q 29.55 86.9 28.65 89.85
L 21.2 108.4
Q 15 125 15.85 131.9
L 21.05 133.4
Q 27.6 134.5 34.35 132.4 35.1 115.45 36.9 105.95 38.05 100.05 40.2 91.95
L 42.15 85.1
Q 42.8 82.85 42.4 80.3 41.75 75.3 37 74.15 31.8 72.9 29.95 74.15 28.65 75.1 28.95 77.8 Z"/>
</g>

<g id="Symbol_451_0_Layer0_2_FILL">
<path fill="#FFFFFF" stroke="none" d="
M 31.85 34.05
Q 30.35 33.05 28.25 33.15 24 33.5 20.7 39.55 17.95 44.5 18.85 48.75 19.35 51.25 20.95 52.95
L 35.2 69.65
Q 37.05 71.45 41.15 71.9 46.5 72.45 50.4 68.85 54.45 65.05 54.15 62.1 53.95 60 50.8 56.8
L 31.85 34.05 Z"/>
</g>

<g id="Symbol_451_0_Layer0_3_FILL">
<path fill="#FFFFFF" stroke="none" d="
M 29.2 85.3
Q 32.25 88.9 39.55 91.15 45.85 93.05 51.2 92.85 60.15 92.5 65.6 86.65 68.25 83.75 70.8 78.15 73 73.55 74 69.35 75.25 64.4 71.3 60.65 67.9 57.4 64.45 57.55
L 56.55 59
Q 51.5 60 48.25 58.15 42.75 55.2 41.5 54.9 36.7 53.65 31.95 56.95 26.25 60.85 25.6 70.8 25 80.35 29.2 85.3 Z"/>
</g>

<g id="Symbol_451_0_Layer0_4_FILL">
<path fill="#FFFFFF" stroke="none" d="
M 74.6 61.85
Q 70.35 57.55 65.15 57.55
L 59.7 76.65
Q 60.7 83.25 65.75 87.45 68.25 89.6 70.6 90.4
L 72.3 98.45
Q 72.55 99.7 69.75 105.1 66.8 110.75 67.3 114.75 67.8 119.3 70.05 126.5
L 72.25 132.75
Q 79.55 132.65 85.6 128.25 88.6 126.05 90.15 123.9 85.2 119.1 85 110.45 85.7 101.65 85.45 99.2 85.2 96.5 81.65 91.75 77.85 86.55 77.4 84.95 76.85 83 78.2 78.35 79.65 73.35 79.2 70.45 78.5 65.75 74.6 61.85 Z"/>
</g>

<g id="Symbol_451_0_Layer0_5_FILL">
<path fill="#FFFFFF" stroke="none" d="
M 33.65 81
L 34.55 85.55
Q 35.35 90.65 34.8 93.8 34.4 96.3 29.65 113.75 25.55 131.55 27.2 138.75
L 32.55 140.1
Q 39.2 140.9 45.65 138.25 44.35 120.4 44.95 110.25 45.35 103.9 46.55 95.35
L 47.65 88.05
Q 48 85.6 47.4 82.95 46.15 77.7 41.25 76.7 35.9 75.65 34.25 77.1 33 78.15 33.65 81 Z"/>
</g>

<g id="Symbol_451_0_Layer0_6_FILL">
<path fill="#FFFFFF" stroke="none" d="
M 23.9 15.85
Q 24.35 14.25 24.35 12.2 24.35 8.15 22.2 6.1 21.35 5.25 16 2.15 12.3 0.1 12.3 -2.4 11.3 -1.35 10.5 0.4 8.9 3.9 9.8 7.4 12.05 15.85 23.9 15.85 Z"/>
</g>

<g id="Symbol_451_0_Layer0_7_FILL">
<path fill="#FFFFFF" stroke="none" d="
M 33.9 34.25
Q 32.75 23.7 30.5 18 26.6 7.95 18.7 7.95 9.95 7.95 5 12.85 3.3 14.45 1.65 17.2 0.4 19 -0.05 20.35 -1.5 23.9 -2.5 30.4
L -3.2 36.15 -6.05 38.5
Q -8.95 41.7 -8.95 45.75 -8.95 49.55 -6.4 52.25 -4.55 54.2 -1.8 55.2
L 8.3 55.75
Q 15 55.25 18.6 54.05 22.35 52.75 24.15 51.1 27.35 48.15 27.45 42.75 31.05 42.65 32.45 41.3 34.45 39.45 33.9 34.25 Z"/>
</g>
</defs>

<g transform="matrix( 2, 0, 0, 1.9998779296875, 100.1,433.95) ">
<g transform="matrix( 1, 0, 0, 1, 0,0) ">
<use filter="url(#Filter_1)" xlink:href="#Symbol_451_0_Layer0_0_FILL"/>
</g>

<g transform="matrix( 1, 0, 0, 1, 0,0) ">
<use filter="url(#Filter_1)" xlink:href="#Symbol_451_0_Layer0_1_FILL"/>
</g>

<g transform="matrix( 1, 0, 0, 1, 0,0) ">
<use filter="url(#Filter_1)" xlink:href="#Symbol_451_0_Layer0_2_FILL"/>
</g>

<g transform="matrix( 1, 0, 0, 1, 0,0) ">
<use filter="url(#Filter_1)" xlink:href="#Symbol_451_0_Layer0_3_FILL"/>
</g>

<g transform="matrix( 1, 0, 0, 1, 0,0) ">
<use filter="url(#Filter_1)" xlink:href="#Symbol_451_0_Layer0_4_FILL"/>
</g>

<g transform="matrix( 1, 0, 0, 1, 0,0) ">
<use filter="url(#Filter_1)" xlink:href="#Symbol_451_0_Layer0_5_FILL"/>
</g>

<g transform="matrix( 1, 0, 0, 1, 0,0) ">
<use filter="url(#Filter_1)" xlink:href="#Symbol_451_0_Layer0_6_FILL"/>
</g>

<g transform="matrix( 1, 0, 0, 1, 0,0) ">
<use filter="url(#Filter_1)" xlink:href="#Symbol_451_0_Layer0_7_FILL"/>
</g>
</g>
</svg>
