
<svg xmlns="http://www.w3.org/2000/svg" version="1.1" xmlns:xlink="http://www.w3.org/1999/xlink" preserveAspectRatio="none" x="0px" y="0px" width="268px" height="285px" viewBox="0 0 268 285">
<defs>
<filter id="Filter_1" x="-20%" y="-20%" width="140%" height="140%" color-interpolation-filters="sRGB">
<feColorMatrix in="SourceGraphic" type="matrix" values="0 0 0 0 1 0 0 0 0 0 0 0 0 0 0.4 0 0 0 1 0" result="result1"/>
</filter>

<g id="anims_pony_walk_anim_clean_flats_21_Layer0_0_FILL">
<path fill="#FFFFFF" stroke="none" d="
M 81.45 87.6
Q 83.05 82.2 82.8 79.4 82.35 75.05 78.5 71.35 74.910546875 67.966796875 70.3 67.4 68.1748046875 66.46015625 66.05 66.55 60.6 67.4 57.75 67.8 55.794140625 68.10390625 54.1 68.05 53.782421875 66.958984375 53.2 65.6 52.1 62.9 47.95 51.05
L 44.05 39.7
Q 43.8310546875 39.3771484375 43.55 39.1 43.574609375 37.7220703125 43.4 36.3 42.2 25.9 39.9 20.25 37.421875 14.0705078125 33.4 11.75 32.85859375 9.7978515625 31.55 8.55 30.7 7.75 25.35 4.75 21.65 2.7 21.6 0.25
L 19.85 3
Q 18.25 6.45 19.15 9.9 19.4298828125 10.916015625 19.85 11.8 17.4603515625 12.74296875 15.6 14.3 13.7 15.85 9.75 21.55 7.85 24.35 6.9 28.95 6.4 31.35 5.75 34.95 5.4 36.05 2.25 40.75 -0.45 44.85 -0.3 46.35 0 48.85 1 52.15 2.2 56.1 3.45 57.35 4.9 58.75 8.75 60.3 12.7 61.85 14.75 61.9 17.3 61.95 19.9 60.5 23.15 58.75 24.15 55.65
L 28.3 55.9 30.1 60.75
Q 31.25390625 63.9322265625 32.05 66.15 26.33828125 69.47421875 25.55 77.8 24.85 85.9 29.2 90.05 30.344140625 91.1583984375 32.05 92.1 32.0609375 92.8673828125 32 93.55 31.9 94.4 30.35 97.1 28 101.25 27.2 102.85 23 111.45 24.45 117.95 24.9849609375 120.246875 25.65 122.1 25.0728515625 124.1626953125 24.6 126
L 24.6 126
Q 22.55 134.35 23.25 138.65 23.7529296875 138.8822265625 24.35 139.05
L 28.5 139.9 28.55 139.9
Q 35.1 140.6 41.8 138.25 41.796484375 137.107421875 41.8 136
L 41.8 134
Q 41.8419921875 130.003515625 41.95 126.5 44.823828125 125.2337890625 47.3 123.3 45.43203125 120.2396484375 42.8 115.35 42.965625 114.012109375 43.15 112.8 44.2734375 105.14375 46.55 96.25 49.38125 96.570703125 52 96.5 56.384765625 96.359375 59.95 95.15 61.4326171875 96.3529296875 63 96.85
L 63 102.6
Q 62.95 103.95 60.05 108.5 56.7 113.8 55.6 116.8 54.3 120.55 54.3 126.1 54.25 128.9 54.5 131 60.65 132.6 67.6 130.65 67.6810546875 130.628125 67.75 130.6 67.7552734375 130.677734375 67.75 130.75 67.5 134.55 67.5 137.5 67.7248046875 137.60390625 67.95 137.7 67.95 137.7765625 67.95 137.85 74.65 140.95 81.95 139.95 85.55 139.5 87.85 138.4 87.2 137 86.65 134.5 86.4515625 134.337109375 86.25 134.15 85.0986328125 128.9912109375 85.75 121.5 87.2 111.45 86.95 109.2 86.7 106.9 83.45 101.6 80.15 96.4 80 94.65 79.8 93 81.45 87.6 Z"/>
</g>
</defs>

<g transform="matrix( 2, 0, 0, 1.9998779296875, 9.9,2.9) ">
<g transform="matrix( 1, 0, 0, 1, 0.2,0) ">
<g transform="matrix( 1, 0, 0, 1, 0,0) ">
<use filter="url(#Filter_1)" xlink:href="#anims_pony_walk_anim_clean_flats_21_Layer0_0_FILL"/>
</g>
</g>
</g>
</svg>
