
<svg xmlns="http://www.w3.org/2000/svg" version="1.1" xmlns:xlink="http://www.w3.org/1999/xlink" preserveAspectRatio="none" x="0px" y="0px" width="268px" height="285px" viewBox="0 0 268 285">
<defs>
<filter id="Filter_1" x="-20%" y="-20%" width="140%" height="140%" color-interpolation-filters="sRGB">
<feColorMatrix in="SourceGraphic" type="matrix" values="0 0 0 0 1 0 0 0 0 0 0 0 0 0 0.4 0 0 0 1 0" result="result1"/>
</filter>

<g id="anims_pony_walk_anim_clean_flats_16_Layer0_0_FILL">
<path fill="#FFFFFF" stroke="none" d="
M 42.35 39.5
Q 42.3466796875 38.2576171875 42.15 36.95 40.55 26.65 38.1 21.05 35.3912109375 14.9078125 31.25 12.75 30.70546875 10.8341796875 29.4 9.65 28.5 8.9 23 6.05 19.25 4.15 19.15 1.7
L 17.45 4.5
Q 16 8.05 17.05 11.45 17.3576171875 12.4455078125 17.8 13.3 15.425 14.327734375 13.6 15.95 11.75 17.55 8.05 23.4 6.2 26.3 5.45 30.9 5 33.3 4.45 36.95 4.15 38 1.2 42.8 -1.4 47 -1.2 48.5 -0.8 51 0.3 54.25 1.65 58.15 2.95 59.35 4.45 60.7 8.35 62.15 12.35 63.55 14.4 63.55 16.95 63.5 19.55 61.95 22.7 60.1 23.6 56.95
L 27.9 57.1
Q 28.011328125 57.091796875 28.1 57.05
L 30.2 61.85
Q 31.2966796875 64.3388671875 32.1 66.2 26.6521484375 69.5025390625 25.7 77.5 24.8 85.55 29.05 89.85 30.409765625 91.2537109375 32.6 92.45 33.15 94.86875 33.45 96.75 33.36796875 96.9935546875 33.25 97.2 32.2 99.05 28.6 103.85 25.4 109.1 24.75 115.7 24 123.35 25.45 129.2 27.6 130 30.95 130 31.3630859375 130 31.75 129.95 31.765625 132.17578125 31.9 134.25 34 134.85 37.35 135 44.1 135.3 50.3 132.95 49.6 123.75 48.05 113.25 47.051953125 106.54921875 45.85 97.55 46.0904296875 97.0447265625 46.3 96.55 49.0779296875 96.9232421875 51.65 96.9 57.9322265625 96.86640625 62.6 94.65 63.1908203125 95.60859375 63.9 96.5 65.7 98.85 67.55 99.95
L 67.95 102.55
Q 68.003125 102.9478515625 68.05 103.3 67.34453125 104.7572265625 65.25 107.55 61.8 112.1 61.9 115.35 62 119 63.65 124.85 63.77734375 125.303515625 63.9 125.75 63.329296875 128.3044921875 62.85 131.55 62.3 135.3 62.05 138.25 65.928125 140.0400390625 70.1 140.4 71.409765625 140.551171875 72.75 140.55 73.131640625 140.5515625 73.5 140.55 74.8904296875 140.523828125 76.3 140.35 80 139.85 82.4 138.8 81.7 136.75 81.5 134.95 81.223046875 134.7072265625 80.95 134.45 80.441796875 130.4294921875 81.05 125 82.8138671875 123.8361328125 83.95 122.7 82.6716796875 121.60625 81.8 120.25 83.444921875 111.77265625 83.4 109.8 83.3603515625 107.9787109375 81.35 104.35 81.5 103.3583984375 81.5 102.8 81.5 100.6 78.4 96.75 77.626953125 95.7806640625 77 94.95 77.2 93.1427734375 79.35 88.35 81.65 82.95 81.6 80.15 81.5 75.85 78.3 72.3 75.2984375 69.00234375 71.1 68.5 68.79453125 67.25 66.45 67.25 61 68 58.15 68.3 56.4255859375 68.5322265625 54.9 68.5 54.5486328125 67.0705078125 53.55 65.15 52.25 62.55 47.4 50.95
L 42.75 39.95
Q 42.5779296875 39.7287109375 42.35 39.5 Z"/>
</g>
</defs>

<g transform="matrix( 2, 0, 0, 1.9998779296875, 9.9,2.9) ">
<g transform="matrix( 1, 0, 0, 1, 0.2,0) ">
<g transform="matrix( 1, 0, 0, 1, 0,0) ">
<use filter="url(#Filter_1)" xlink:href="#anims_pony_walk_anim_clean_flats_16_Layer0_0_FILL"/>
</g>
</g>
</g>
</svg>
