
<svg xmlns="http://www.w3.org/2000/svg" version="1.1" xmlns:xlink="http://www.w3.org/1999/xlink" preserveAspectRatio="none" x="0px" y="0px" width="330px" height="358px" viewBox="0 0 330 358">
<defs>
<filter id="Filter_1" x="-20%" y="-20%" width="140%" height="140%" color-interpolation-filters="sRGB">
<feColorMatrix in="SourceGraphic" type="matrix" values="0 0 0 0 1 0 0 0 0 0 0 0 0 0 0.4 0 0 0 1 0" result="result1"/>
</filter>

<g id="anims_pony_jump_anim_clean_flats_18_Layer0_0_FILL">
<path fill="#FFFFFF" stroke="none" d="
M 8.9 -7.75
Q 7.65 -4.15 8.85 -0.85 9.2189453125 0.1359375 9.7 0.95 7.418359375 2.131640625 5.7 3.85 3.95 5.6 0.6 11.6 -1.1 14.6 -1.6 19.25 -1.9 21.65 -2.25 25.3 -2.5 26.45 -5.15 31.4 -7.5 35.75 -7.2 37.25 -6.65 39.7 -5.4 42.85 -3.8 46.7 -2.5 47.85 -0.9 49.1 3.1 50.3 7.15 51.45 9.15 51.3 11.7 51.1 14.2 49.5 17.3 47.45 17.95 44.25
L 22.3 44.15
Q 25.8443359375 43.6650390625 28.15 42.3
L 33 47.8
Q 30.1681640625 51.61953125 30.35 57.8 30.4689453125 62.6177734375 32.2 65.85 31.35703125 66.3494140625 30.1 67.05 27 69 24.5 71.05 16.8 77.5 15.15 86.1 13.25 97.3 14 103.1
L 18.6 105.15
Q 22.01796875 106.0556640625 25.45 105.65 25.7501953125 110.575390625 26.85 113.6
L 32.4 114.6
Q 39.15 114.85 45.25 111.8 43.9 104.9 42.65 97.4 42.2 94.65 42.6 91.85 42.95 89.45 44.1 86.05 46.1 80.1 48.05 75.35
L 48.85 73.55
Q 54.160546875 74.0103515625 58.7 73.35 62.198046875 72.839453125 65.1 71.7 65.8748046875 72.712890625 66.75 73.45
L 64.95 80.8
Q 64.75 81.9 59.95 85.25 55.05 88.7 53.9 92.25 52.6 96.2 51.85 103.05 51.5 106.5 51.35 109.1 58.1 112 65.4 110.8 69.05 110.25 71.3 109.05 70.717578125 107.7556640625 70.4 106.4 75.378125 106.25234375 80.05 104.3 83.45 102.9 85.4 101.3 81.25 96.55 82.6 89.3 84.9 82.05 85.05 79.9 85.25 77.6 82.6 73.1 79.7 68.25 79.55 66.9 79.4806640625 66.0908203125 79.9 64.85 81.9361328125 62.3921875 82.5 60.4 82.68203125 59.762890625 82.8 59.1 83.930859375 56.6607421875 84 54.9 84.05 50.85 80.95 47.1 77.757421875 43.1669921875 73.1 42.25 71.1359375 41.7306640625 69.25 42 63.95 43.5 61.1 44.2 58.9650390625 44.7763671875 57.1 44.9 56.8810546875 44.6810546875 56.65 44.45 54.6 42.35 46.5 32.75
L 38.8 23.65
Q 37.3724609375 22.7146484375 35.3 22.85 33.19453125 12.8919921875 30.45 7.55 27.4046875 1.61640625 23.15 -0.3 22.49921875 -2.2048828125 21.1 -3.3 20.15 -4 14.5 -6.55 10.65 -8.25 10.45 -10.7
L 8.9 -7.75
M 32.9 80.5
Q 32.05546875 81.6427734375 31.05 82.95 30.7748046875 83.3705078125 30.5 83.8 30.5685546875 83.298828125 30.65 83 31.159375 80.877734375 32.9 80.5 Z"/>
</g>
</defs>

<g transform="matrix( 2, 0, 0, 1.9998779296875, 55.6,72.4) ">
<g transform="matrix( 1, 0, 0, 1, 0.05,-3) ">
<g transform="matrix( 1, 0, 0, 1, 0,0) ">
<use filter="url(#Filter_1)" xlink:href="#anims_pony_jump_anim_clean_flats_18_Layer0_0_FILL"/>
</g>
</g>
</g>
</svg>
