
<svg xmlns="http://www.w3.org/2000/svg" version="1.1" xmlns:xlink="http://www.w3.org/1999/xlink" preserveAspectRatio="none" x="0px" y="0px" width="330px" height="358px" viewBox="0 0 330 358">
<defs>
<filter id="Filter_1" x="-20%" y="-20%" width="140%" height="140%" color-interpolation-filters="sRGB">
<feColorMatrix in="SourceGraphic" type="matrix" values="0 0 0 0 1 0 0 0 0 0 0 0 0 0 0.4 0 0 0 1 0" result="result1"/>
</filter>

<g id="anims_pony_jump_anim_clean_flats_15_Layer0_0_FILL">
<path fill="#FFFFFF" stroke="none" d="
M 15.95 -10.5
Q 13.65 -7.95 12.05 -3.6 11.2 -1.3 10 2.15 9.45 3.2 5.7 7.35 2.35 11.05 2.3 12.55 2.25 15.05 2.7 18.5 3.35 22.55 4.4 24 5.6 25.55 9.2 27.7 12.85 29.8 14.85 30.15 17.4 30.55 20.2 29.55 23.65 28.25 25.1 25.35
L 29.3 26.3
Q 32.6033203125 26.64765625 35.05 25.95
L 39.3 33.05
Q 39.8189453125 33.9201171875 40.3 34.7 36.284765625 38.5388671875 36.2 45.75 36.2 48.50078125 36.75 50.75 35.9048828125 51.139453125 33 52.05 29.6 53.3 26.75 54.85 18.05 59.6 15.3 67.3 11.85 77.4 11.95 82.9
L 16.45 85.55
Q 20.3728515625 87.1875 24.5 87.15 24.2466796875 91.5671875 25 94.4
L 30.3 96.1
Q 36.95 97.4 43.35 95.55 42.85 89.2 42.55 82.25 42.4 79.75 43.15 77.35 43.8 75.2 45.3 72.3 48 67.25 50.5 63.3
L 51.6 61.6
Q 51.8130859375 61.621875 52 61.65 58.7 62.75 64.2 62.1 67.5755859375 61.70078125 70.4 60.7 70.5978515625 60.9724609375 70.8 61.2
L 68.15 67.95
Q 67.75 68.95 62.65 71.45 57.3 74 55.7 77.25 53.95 80.8 52.25 87.2 51.45 90.45 50.95 92.9 57.25 96.65 64.55 96.65 68.3 96.65 70.65 95.9 70.5845703125 95.6822265625 70.5 95.45 74.9537109375 95.82734375 79.4 94.7 82.95 93.85 85.1 92.55 81.75 87.25 84.15 80.25 87.45 73.45 87.95 71.35 88.5 69.1 86.55 64.25 84.35 59.05 84.45 57.6 84.55 55.95 87.25 52.55 90.15 48.95 90.6 46.45 91.3 42.45 88.75 38.25 86.1845703125 33.989453125 81.75 32.35 78.55078125 30.6642578125 75.55 31.05 70.2 32.3 67.4 32.95 65.021875 33.538671875 62.95 33.55 62.9142578125 33.492578125 62.85 33.4 61.25 30.95 54.95 20.1
L 48.95 9.75
Q 48.1791015625 8.9791015625 47 8.6 47.31640625 -1.491796875 45.95 -7.25 44.43828125 -13.76953125 40.75 -16.65 40.528125 -18.666796875 39.4 -20.1 38.7 -21 33.85 -24.8 30.5 -27.35 30.85 -29.75
L 28.65 -27.3
Q 26.55 -24.1 26.95 -20.55 27.076953125 -19.515625 27.35 -18.6 24.8703125 -18.026171875 22.8 -16.8 20.65 -15.5 15.95 -10.5
M 35.45 65.1
Q 34.2966796875 66.21953125 32.8 67.55 31.766796875 68.624609375 30.85 69.7 31.1724609375 67.677734375 31.5 66.95 32.45 64.75 34.75 65.05 35.11484375 65.10390625 35.45 65.1 Z"/>
</g>
</defs>

<g transform="matrix( 2, 0, 0, 1.9998779296875, 55.6,72.4) ">
<g transform="matrix( 1, 0, 0, 1, 0.05,-3) ">
<g transform="matrix( 1, 0, 0, 1, 0,0) ">
<use filter="url(#Filter_1)" xlink:href="#anims_pony_jump_anim_clean_flats_15_Layer0_0_FILL"/>
</g>
</g>
</g>
</svg>
