
<svg xmlns="http://www.w3.org/2000/svg" version="1.1" xmlns:xlink="http://www.w3.org/1999/xlink" preserveAspectRatio="none" x="0px" y="0px" width="268px" height="285px" viewBox="0 0 268 285">
<defs>
<filter id="Filter_1" x="-20%" y="-20%" width="140%" height="140%" color-interpolation-filters="sRGB">
<feColorMatrix in="SourceGraphic" type="matrix" values="0 0 0 0 1 0 0 0 0 0 0 0 0 0 0.4 0 0 0 1 0" result="result1"/>
</filter>

<g id="anims_pony_walk_anim_clean_flats_10_Layer0_0_FILL">
<path fill="#FFFFFF" stroke="none" d="
M 42.35 39.55
Q 42.30546875 38.2904296875 42.1 37 40.55 26.7 38.05 21.15 35.3490234375 15.0255859375 31.25 12.85 30.6505859375 10.8970703125 29.3 9.7 28.4 8.95 23 6.1 19.2 4.2 19.1 1.75
L 17.4 4.55
Q 15.95 8.1 17 11.5 17.3130859375 12.4931640625 17.75 13.35 15.378515625 14.374609375 13.55 16 11.75 17.6 8 23.5 6.15 26.35 5.4 30.9 5 33.3 4.45 36.95 4.15 38.05 1.15 42.9 -1.4 47.1 -1.2 48.6 -0.8 51.05 0.3 54.35 1.65 58.25 2.95 59.45 4.45 60.8 8.35 62.25 12.3 63.6 14.35 63.6 16.9 63.55 19.5 62.05 22.7 60.15 23.55 57
L 27.9 57.15
Q 28.0037109375 57.1423828125 28.1 57.1
L 30.2 61.9
Q 31.2787109375 64.333984375 32.1 66.15 26.6494140625 69.4255859375 25.7 77.4 24.8 85.5 29 89.8 29.848046875 90.675390625 31 91.45 31.016796875 92.8767578125 30.8 94 30.4 96.3 25.65 112.3 21.55 128.6 23.2 135.2
L 28.55 136.45
Q 35.2 137.2 41.65 134.75 41.591796875 134.0169921875 41.5 133.3
L 41.55 133.3
Q 48.2 131.95 53.4 127.8 53.130078125 127.2833984375 52.85 126.75
L 52 125.1
Q 51.7341796875 124.5638671875 51.45 124 49.4919921875 120.166796875 47.5 116.05 46.45 113.85 46.15 111.35 45.9 109.2 46.2 105.95 46.716015625 100.4564453125 47.35 96.6 49.571875 96.86875 51.65 96.85 56.8634765625 96.8220703125 60.95 95.3 60.9794921875 95.331640625 61 95.35 61.9380859375 96.206640625 62.85 96.85 64.3025390625 98.8904296875 65.8 99.9
L 65.85 100.1 65.5 102.85
Q 65.15 106.1 65.25 107.9 65.4 109.8 64.1 112.75 63.4 114.35 60.35 120.1 58.35 124 56.5 131.4 55.55 135.15 55 138.05 59.8798828125 140.48984375 65.5 140.4 67.3525390625 140.4435546875 69.25 140.2 73 139.7 75.45 138.65 75.1736328125 137.47578125 75.05 136.05 76.01484375 136.028125 77 135.9 80.6 135.5 82.9 134.5 80.3 129.05 80.95 119.2 82.1 109.6 81.85 107.55 81.6 105.4 78.5 100.5 76.2220703125 97.02890625 75.5 95.2 75.7345703125 93.515234375 78.1 88.35 80.55 83 80.75 80.25 81.1 76 78.1 72.45 75.45078125 69.319140625 71.55 68.7 69.0236328125 67.213671875 66.45 67.25 61 67.95 58.15 68.25 56.404296875 68.4849609375 54.85 68.45 54.505859375 67.0365234375 53.55 65.15 52.25 62.6 47.35 51
L 42.7 39.95
Q 42.5349609375 39.737890625 42.35 39.55 Z"/>
</g>
</defs>

<g transform="matrix( 2, 0, 0, 1.9998779296875, 9.9,2.9) ">
<g transform="matrix( 1, 0, 0, 1, 0.2,0) ">
<g transform="matrix( 1, 0, 0, 1, 0,0) ">
<use filter="url(#Filter_1)" xlink:href="#anims_pony_walk_anim_clean_flats_10_Layer0_0_FILL"/>
</g>
</g>
</g>
</svg>
