<?xml version="1.0" encoding="UTF-8" standalone="no"?>
<svg
   version="1.1"
   preserveAspectRatio="none"
   x="0px"
   y="0px"
   width="264"
   height="283"
   viewBox="0 0 264 283"
   id="svg106"
   sodipodi:docname="pony_female_walk_bg_0011.svg"
   xmlns:inkscape="http://www.inkscape.org/namespaces/inkscape"
   xmlns:sodipodi="http://sodipodi.sourceforge.net/DTD/sodipodi-0.dtd"
   xmlns="http://www.w3.org/2000/svg"
   xmlns:svg="http://www.w3.org/2000/svg">
  <sodipodi:namedview
     id="namedview108"
     pagecolor="#ffffff"
     bordercolor="#000000"
     borderopacity="0.25"
     inkscape:showpageshadow="2"
     inkscape:pageopacity="0.0"
     inkscape:pagecheckerboard="0"
     inkscape:deskcolor="#d1d1d1"
     showgrid="false" />
  <defs
     id="defs52">
    <filter
       id="Filter_1"
       x="0"
       y="0"
       width="1"
       height="1"
       color-interpolation-filters="sRGB">
      <feColorMatrix
         in="SourceGraphic"
         type="matrix"
         values="0 0 0 0 0 0 0 0 0 0.8 0 0 0 0 0.4 0 0 0 1 0"
         result="result1"
         id="feColorMatrix19" />
    </filter>
  </defs>
  <path
     fill="#FFFFFF"
     id="path110"
     d="m -3.2579512,-37.463399 c -0.6875462,0.67965 -1.3149247,1.578119 -1.8822543,2.694967 -1.1356647,2.267016 -1.4381822,4.55897 -0.9077646,6.876234 0.1628597,0.686125 0.3754736,1.33181 0.6365478,1.93758 -2.1337841,0.741501 -4.0018238,1.844284 -5.5978877,3.316435 -1.164103,0.998794 -2.323567,2.380656 -3.477472,4.146847 -0.869236,1.174446 -1.46697,2.207126 -1.794011,3.097758 -1.036705,2.303353 -1.952835,5.5778466 -2.747958,9.8228835 -0.396557,2.089197 -0.686397,3.9643764 -0.869953,5.62642535 l -2.920281,2.26369045 c -1.995995,2.0409592 -3.033655,4.3944616 -3.114086,7.0601716 -0.0754,2.4991031 0.709586,4.6574061 2.355704,6.4746921 1.194696,1.303395 2.698818,2.315363 4.511401,3.037063 l 10.0796182,0.854478 c 4.4751544,-0.198549 7.924482,-0.661413 10.3477699,-1.388769 0.1661888,-0.04988 0.3221362,-0.101942 0.4827271,-0.15315 l 3.5075056,9.664674 c -3.7853338,1.917332 -6.18752428,5.508802 -7.2001147,10.781411 -0.9828231,5.314949 -0.1713961,9.510405 2.43372047,12.587764 0.50765753,0.597656 1.12094283,1.175808 1.83359733,1.735671 -0.071543,0.917488 -0.2022111,1.74071 -0.3953112,2.464446 -0.3734933,1.511242 -2.51408179,7.477356 -6.4209807,17.898472 -3.488538,10.651023 -4.837362,18.210075 -4.0480461,22.67733 l 5.250172,1.622005 c 4.3884704,0.809418 8.7847237,0.550521 13.189608,-0.777986 -0.00461,-0.498087 -0.00298,-0.965432 -0.00565,-1.453607 l 0.00786,-4.27e-4 C 14.48306,94.816193 18.552377,93.263249 22.205173,90.745562 L 17.141974,78.608743 c -0.595699,-1.512433 -0.935567,-3.106685 -1.018365,-4.783651 -0.06588,-1.441817 0.07768,-3.237312 0.429019,-5.385147 0.593872,-3.594335 1.192248,-6.633599 1.794302,-9.140702 1.482241,0.275384 2.924854,0.45972 4.327527,0.551544 3.485626,0.228179 6.632595,-0.0693 9.442396,-0.892195 0.562009,0.580235 1.123129,1.101268 1.682862,1.56743 0.854915,1.395937 1.758871,2.467465 2.711986,3.213333 l 0.04894,0.418639 -0.53385,2.540894 c -0.384602,2.1455 -0.585686,3.819367 -0.603233,5.021366 0.01104,1.270851 -0.485083,2.856952 -1.487602,4.758536 l -4.256596,7.071037 c -1.51252,2.50082 -3.056531,6.169744 -4.632734,11.005708 l -1.96253,6.529955 c 3.100097,1.83198 6.511447,2.85951 10.230971,3.09193 1.244573,0.10879 2.523199,0.12671 3.836842,0.051 2.517806,-0.15748 4.616277,-0.52813 6.295025,-1.11216 -0.128521,-0.79138 -0.2033,-1.65204 -0.227274,-2.57866 0.650012,0.008 1.304733,-0.004 1.965212,-0.0413 2.414073,-0.10815 4.409149,-0.44545 5.986496,-1.013367 -1.475172,-3.743554 -1.766211,-8.869968 -0.874775,-15.377892 1.213253,-6.331095 1.784596,-10.192566 1.715285,-11.585566 -0.06716,-1.423696 -1.01711,-3.835542 -2.850738,-7.23409 -1.356474,-2.420874 -2.221193,-4.239719 -2.607122,-5.47392 0.218615,-1.124376 1.233801,-3.350757 3.060241,-6.697711 1.879574,-3.444321 2.950497,-6.076523 3.21197,-7.896436 0.431306,-2.810683 -0.268296,-5.467083 -2.098061,-7.968571 -1.647678,-2.24957 -3.791249,-3.658817 -6.430015,-4.231301 -1.544625,-1.014798 -3.134907,-1.575272 -4.771022,-1.682377 l -8.349324,0.455801 c -1.204892,0.07115 -2.328729,0.05292 -3.374806,-0.0489 -0.167982,-0.96998 -0.534595,-2.116378 -1.102762,-3.4421 L 17.700075,2.3504735 C 17.57505,2.1662258 17.432007,1.9940502 17.278403,1.8292875 17.325328,1.0735733 17.314597,0.24042296 17.243715,-0.67513671 16.686439,-7.6290965 15.715263,-13.011408 14.329398,-16.821946 c -1.508188,-4.195253 -3.582789,-7.102584 -6.2222715,-8.724215 -0.3017879,-1.322431 -0.8742763,-2.413622 -1.720899,-3.271061 -0.5503818,-0.550227 -2.577374,-1.89533 -6.08146117,-4.035464 -2.42458073,-1.440543 -3.61198173,-2.977965 -3.56271753,-4.610713 z"
     style="filter:url(#Filter_1)"
     transform="matrix(1.9946136,-0.14001465,0.14004517,1.9945068,57.2,79.3)" />
</svg>
