<?xml version="1.0" encoding="UTF-8" standalone="no"?>
<svg
   version="1.1"
   preserveAspectRatio="none"
   x="0px"
   y="0px"
   width="264"
   height="283"
   viewBox="0 0 264 283"
   id="svg1602"
   sodipodi:docname="pony_female_walk_bg_0017.svg"
   xmlns:inkscape="http://www.inkscape.org/namespaces/inkscape"
   xmlns:sodipodi="http://sodipodi.sourceforge.net/DTD/sodipodi-0.dtd"
   xmlns="http://www.w3.org/2000/svg"
   xmlns:svg="http://www.w3.org/2000/svg">
  <sodipodi:namedview
     id="namedview1604"
     pagecolor="#ffffff"
     bordercolor="#000000"
     borderopacity="0.25"
     inkscape:showpageshadow="2"
     inkscape:pageopacity="0.0"
     inkscape:pagecheckerboard="0"
     inkscape:deskcolor="#d1d1d1"
     showgrid="false" />
  <defs
     id="defs1548">
    <filter
       id="Filter_1"
       x="0"
       y="0"
       width="1"
       height="1"
       color-interpolation-filters="sRGB">
      <feColorMatrix
         in="SourceGraphic"
         type="matrix"
         values="0 0 0 0 0 0 0 0 0 0.8 0 0 0 0 0.4 0 0 0 1 0"
         result="result1"
         id="feColorMatrix1515" />
    </filter>
  </defs>
  <path
     fill="#FFFFFF"
     id="path1606"
     d="m -3.1375202,-37.525397 c -0.688042,0.679148 -1.3161538,1.576684 -1.8843007,2.693119 -1.1373237,2.26619 -1.4413671,4.55805 -0.9126527,6.87571 0.1624266,0.686548 0.3748583,1.332633 0.6356442,1.938828 -2.1342461,0.739937 -4.0029417,1.840104 -5.6000356,3.311048 -1.164831,0.997943 -2.325001,2.379942 -3.480198,4.145292 -0.870094,1.173812 -1.469512,2.205484 -1.797204,3.095879 -1.038392,2.3026 -1.956766,5.5760625 -2.755002,9.8205301 -0.398088,2.088913 -0.689599,3.9649721 -0.874374,5.62689179 l -2.921092,2.26049271 c -1.997484,2.0395018 -3.037555,4.3920008 -3.119943,7.0576605 -0.07724,2.4990559 0.707093,4.6581089 2.35187,6.4766079 1.193734,1.304276 2.695936,2.317774 4.507981,3.040806 l 10.078972,0.861715 c 4.4752806,-0.195268 7.92524616,-0.655769 10.3490574,-1.38135 0.1348491,-0.04037 0.2604786,-0.08288 0.3916443,-0.124126 l 3.547684,9.773114 c -3.782269,1.918599 -6.18191973,5.510484 -7.1931267,10.781108 -0.9818444,5.315106 -0.1694036,9.51054 2.43624228,12.587411 0.83694432,0.984963 1.95309842,1.917977 3.34697612,2.80016 0.2415418,1.604134 0.4245153,3.036564 0.5485381,4.294704 -0.08064,0.148762 -0.1639971,0.291105 -0.2521555,0.422867 l -5.10860055,6.307107 c -2.37520925,3.341766 -3.93369145,7.19279 -4.67616965,11.552327 -0.8583321,5.053261 -0.9424904,9.559429 -0.2528855,13.518755 1.3925095,0.633139 3.2029277,1.028257 5.43122322,1.185643 0.27853693,0.01967 0.55586453,0.0343 0.83320529,0.04318 -0.11113961,1.456233 -0.17757931,2.880966 -0.18569541,4.26439 l 5.3850414,1.132438 C 10.168876,97.353581 14.52424,96.975099 18.758672,95.703247 18.72535,89.550862 18.439836,82.946688 17.90221,75.889656 L 16.852828,59.999153 c 0.156799,-0.286559 0.307054,-0.569008 0.448497,-0.845759 1.865026,0.396897 3.670305,0.657333 5.412527,0.771066 4.179987,0.272871 7.871844,-0.21366 11.079663,-1.452157 0.327771,0.619917 0.694977,1.227424 1.103151,1.822017 1.086871,1.647699 2.220103,2.881281 3.398967,3.699875 l 0.21625,2.622123 c 0.0171,0.275384 0.02655,0.535894 0.03925,0.802846 -0.534581,0.902698 -1.559941,2.227856 -3.084758,3.981283 -2.50948,2.876742 -3.807407,5.391261 -3.892676,7.544624 -0.106953,2.460316 0.251712,5.663215 1.076017,9.608332 l 0.204944,0.883098 c -0.507387,1.689032 -1.000066,3.598013 -1.47584,5.754805 l -1.270276,6.629134 c 3.236121,1.78021 6.687573,2.79151 10.351944,3.04129 1.215676,0.10412 2.454667,0.12388 3.717931,0.0579 2.484597,-0.15875 4.549369,-0.53089 6.195097,-1.11655 -0.369288,-1.39648 -0.577586,-2.69786 -0.62604,-3.904552 -0.17174,-0.173378 -0.342938,-0.344488 -0.513093,-0.513151 -0.147944,-2.709127 0.104704,-5.853306 0.759503,-9.434619 1.229409,-0.686613 2.251888,-1.381796 3.060484,-2.085149 -0.803149,-0.797071 -1.458164,-1.671937 -1.975081,-2.620023 1.467964,-5.486099 2.273598,-9.003061 2.33595,-10.306473 0.05914,-1.211184 -0.492922,-3.081329 -1.637081,-5.588836 0.12711,-0.645188 0.210008,-1.170831 0.236596,-1.547202 0.101913,-1.442676 -0.787646,-3.526125 -2.667508,-6.250164 -0.468903,-0.681233 -0.881431,-1.301007 -1.249475,-1.871524 0.207724,-1.204091 1.133069,-3.342335 2.78868,-6.429836 1.783611,-3.483823 2.724554,-6.157866 2.822863,-8.022671 0.135533,-2.864899 -0.777359,-5.553264 -2.739071,-8.064932 -1.872432,-2.373487 -4.219452,-3.814469 -7.038424,-4.32808 -1.418832,-0.855572 -2.875928,-1.333385 -4.37102,-1.430986 l -8.348828,0.457169 c -1.213652,0.07189 -2.344764,0.05366 -3.397309,-0.04997 -0.162074,-0.984798 -0.53293,-2.15401 -1.114975,-3.512115 L 17.699713,2.3498772 C 17.597141,2.1987197 17.481846,2.0565474 17.36004,1.9185045 17.418019,1.1271188 17.412498,0.2491834 17.33801,-0.72221662 16.785841,-7.676608 15.817661,-13.059411 14.434599,-16.870978 12.929717,-21.066736 10.857804,-23.974846 8.2200762,-25.598558 7.9193729,-26.922037 7.3471767,-28.014821 6.5007976,-28.87328 5.9508222,-29.423911 3.9247228,-30.770516 0.42222173,-32.913227 -2.001291,-34.355553 -3.1879826,-35.89268 -3.1375202,-37.525397 Z"
     style="filter:url(#Filter_1)"
     transform="matrix(1.9945679,-0.14086914,0.14089966,1.9944458,57.1,79.25)" />
</svg>
