
<svg xmlns="http://www.w3.org/2000/svg" version="1.1" xmlns:xlink="http://www.w3.org/1999/xlink" preserveAspectRatio="none" x="0px" y="0px" width="330px" height="358px" viewBox="0 0 330 358">
<defs>
<filter id="Filter_1" x="-20%" y="-20%" width="140%" height="140%" color-interpolation-filters="sRGB">
<feColorMatrix in="SourceGraphic" type="matrix" values="0 0 0 0 1 0 0 0 0 0 0 0 0 0 0.4 0 0 0 1 0" result="result1"/>
</filter>

<g id="anims_pony_jump_anim_clean_flats_9_Layer0_0_FILL">
<path fill="#FFFFFF" stroke="none" d="
M 17.3 -5.8
Q 16.1 -3.7 14.45 -0.45 13.75 0.5 9.4 4.1 5.65 7.25 5.3 8.7 4.85 11.2 4.8 14.6 4.85 18.75 5.65 20.35 6.65 22.1 9.9 24.7 13.15 27.35 15.1 27.95 17.55 28.75 20.5 28.15 24.1 27.45 25.95 24.75
L 29.95 26.3
Q 33.553515625 27.26875 36.25 26.8
L 41.1 34.45
Q 41.3927734375 34.9236328125 41.65 35.35 38.0060546875 38.82734375 37.35 45.35 37.0115234375 49.2173828125 37.85 52.2 37.3859375 52.523046875 36.95 52.75 36.25 53.1 33.05 54.5 29.75 56.1 27.1 57.8 19.05 63.15 17.85 70.2 16.45 79.3 17.8 84
L 23.05 85.6
Q 25.04921875 85.9634765625 27 86.05 26.60234375 92.3880859375 27.75 95.95
L 33.2 97.4
Q 39.85 98.35 46.15 96.2 45.3 89.95 44.6 83.15 44.3 80.7 44.9 78.25 45.45 76.1 46.8 73.2 49.25 68.1 51.5 64.1
L 52.25 62.8
Q 58.466796875 64.2927734375 63.75 64.15 68.64296875 64.0185546875 72.5 62.55
L 71.1 68.2
Q 70.95 69.15 66.25 72.05 61.4 75 60.25 78.15 59.05 81.7 58.4 87.75 58.05 90.85 57.95 93.2 62.909765625 95.1548828125 68.05 95.2 68.1720703125 96.4044921875 68.3 97.45 75.5 98.95 82.4 96.7 85.9 95.6 87.95 94.15 84.25 89.15 86.2 82 89.05 74.9 89.45 72.85 89.85 70.55 87.55 65.85 85.1 60.7 85 59.4 85 57.65 87.5 54.1 90.15 50.35 90.45 47.85 90.9 43.8 88.05 39.75 84.95 35.25 79.85 34.15
L 79.65 34.4
Q 78.7609375 34.237109375 77.85 34.25 72.45 35.1 69.6 35.5 67.4076171875 35.840625 65.5 35.75 65.1470703125 35.104296875 64.65 34.4 63 32 56.5 21.25
L 50.35 11
Q 50.275 10.928125 50.2 10.85 51.8705078125 1.326171875 51.35 -4.4 50.8451171875 -11.0576171875 47.65 -14.45 47.730859375 -16.4705078125 46.85 -18.05 46.25 -19.05 42 -23.55 39.05 -26.55 39.75 -28.9
L 37.3 -26.75
Q 34.75 -23.95 34.6 -20.35 34.5697265625 -19.303125 34.7 -18.35 32.1419921875 -18.1587890625 29.9 -17.25 27.65 -16.3 22.25 -12 19.55 -9.85 17.3 -5.8
M 34.65 68.55
Q 34.64765625 67.838671875 34.75 67.45 35.25 65.45 37.75 65.35
L 37.8 65.35
Q 36.5158203125 66.7064453125 34.65 68.55 Z"/>
</g>
</defs>

<g transform="matrix( 2, 0, 0, 1.9998779296875, 55.6,72.4) ">
<g transform="matrix( 1, 0, 0, 1, 0.05,-3) ">
<g transform="matrix( 1, 0, 0, 1, 0,0) ">
<use filter="url(#Filter_1)" xlink:href="#anims_pony_jump_anim_clean_flats_9_Layer0_0_FILL"/>
</g>
</g>
</g>
</svg>
