<?xml version="1.0" encoding="UTF-8" standalone="no"?>
<svg
   version="1.1"
   preserveAspectRatio="none"
   x="0px"
   y="0px"
   width="264"
   height="283"
   viewBox="0 0 264 283"
   id="svg3584"
   sodipodi:docname="pony_female_walk_bg_0025.svg"
   xmlns:inkscape="http://www.inkscape.org/namespaces/inkscape"
   xmlns:sodipodi="http://sodipodi.sourceforge.net/DTD/sodipodi-0.dtd"
   xmlns="http://www.w3.org/2000/svg"
   xmlns:svg="http://www.w3.org/2000/svg">
  <sodipodi:namedview
     id="namedview3586"
     pagecolor="#ffffff"
     bordercolor="#000000"
     borderopacity="0.25"
     inkscape:showpageshadow="2"
     inkscape:pageopacity="0.0"
     inkscape:pagecheckerboard="0"
     inkscape:deskcolor="#d1d1d1"
     showgrid="false" />
  <defs
     id="defs3530">
    <filter
       id="Filter_1"
       x="0"
       y="0"
       width="1"
       height="1"
       color-interpolation-filters="sRGB">
      <feColorMatrix
         in="SourceGraphic"
         type="matrix"
         values="0 0 0 0 0 0 0 0 0 0.8 0 0 0 0 0.4 0 0 0 1 0"
         result="result1"
         id="feColorMatrix3497" />
    </filter>
  </defs>
  <path
     fill="#FFFFFF"
     id="path3588"
     d="m -4.842687,-37.306617 c -0.6635218,0.703008 -1.2601833,1.622558 -1.7884198,2.758303 -1.056323,2.304823 -1.2785252,4.605733 -0.6681661,6.903054 0.1866068,0.680313 0.4209252,1.318441 0.7029773,1.914979 -2.1064132,0.81491 -3.9356704,1.980108 -5.4795004,3.506432 -1.128693,1.038445 -2.238604,2.460413 -3.330511,4.265382 -0.82794,1.203763 -1.390084,2.255934 -1.686035,3.157293 -0.956172,2.337706 -1.758189,5.6414424 -2.405655,9.9111497 -0.323884,2.1015201 -0.547957,3.98665891 -0.673789,5.65394124 l -2.840038,2.36260966 c -1.923898,2.1087229 -2.879263,4.496285 -2.867259,7.1629764 0.01125,2.500023 0.870672,4.629362 2.57864,6.388392 1.239047,1.261126 2.776362,2.221471 4.612714,2.87989 l 10.1031643,0.504374 c 4.4652075,-0.353445 7.89583536,-0.935873 10.2922564,-1.746685 0.054025,-0.01828 0.1035667,-0.037 0.1569819,-0.0554 l 3.8258918,10.542337 c -3.8628244,2.25159 -6.04275122,6.163298 -6.53622325,11.739481 -0.43924405,5.385487 0.79151102,9.476758 3.69403215,12.273558 0.3681698,0.353576 0.7821177,0.694017 1.2351106,1.022855 -0.173352,0.662017 -0.4083258,1.269678 -0.7076461,1.820735 -0.5949039,1.136044 -2.51726344,3.544435 -5.7674548,7.225841 -2.8144531,4.212794 -3.9601275,8.884648 -3.437015,14.015778 0.2795735,2.865493 0.6561326,5.147233 1.1304562,6.845147 0.5423413,1.997618 1.316326,3.66116 2.3223373,4.990004 l 3.4075522,-0.167698 c -0.00897,0.05188 -0.017815,0.103762 -0.026645,0.155408 l -0.0302869,-0.0028 c -0.94161714,5.57107 -1.07283199,9.788651 -0.39325479,12.65234 1.33604659,0.594 3.12088709,1.00272 5.35529149,1.22601 0.8427793,0.0849 1.6833707,0.13244 2.5222092,0.14393 2.7418373,0.041 5.4687553,-0.3154 8.1809883,-1.06817 0.543348,-0.15063 1.086041,-0.31717 1.627684,-0.49956 0.270691,-0.0912 0.541824,-0.1858 0.812219,-0.28494 l -0.269136,-4.249171 c -0.0127,-0.0098 -0.02552,-0.01934 -0.03822,-0.02913 -0.578176,-8.806005 -0.665584,-15.869243 -0.257414,-21.170702 0.363424,-5.078524 1.061083,-10.575959 2.08311,-16.479635 1.761715,0.176258 3.461749,0.242007 5.0918,0.183151 2.241179,-0.08092 4.318497,-0.366571 6.23855,-0.850425 0.0375,0.0483 0.07173,0.09804 0.110036,0.146002 1.07277,1.348854 2.194467,2.328206 3.363914,2.938252 l -0.715316,7.709981 c 0.0044,0.984476 -0.753255,2.941554 -2.273446,5.871122 -1.883538,3.669577 -3.15501,6.443931 -3.813235,8.323591 -1.38201,4.005739 -2.527639,8.687783 -3.436884,14.045077 4.105301,1.150609 8.557394,1.453329 13.355084,0.908717 2.341462,-0.25077 4.281733,-0.61791 5.828236,-1.099578 4.264606,1.599662 8.83517,1.209421 13.711935,-1.173157 2.428104,-1.177632 4.438597,-2.520304 6.031859,-4.02752 -2.588297,-4.78849 -3.792906,-9.54959 -3.614211,-14.283867 0.6802,-4.403192 0.933394,-7.354578 0.759974,-8.853841 -0.173571,-1.532598 -1.350229,-3.743859 -3.529971,-6.634132 -2.212924,-2.856789 -3.372138,-4.852002 -3.477241,-5.984896 -0.138286,-1.09941 0.235613,-3.284702 1.120916,-6.55545 0.85182,-3.303932 1.190002,-5.888369 1.014931,-7.754302 -0.313207,-2.93201 -1.607945,-5.543022 -3.884986,-7.832839 -2.336028,-2.315091 -5.22763,-3.677941 -8.672973,-4.090241 -1.415233,-0.629049 -2.829736,-0.92072 -4.244279,-0.869646 l -8.258076,1.29901 c -1.340427,0.21693 -2.591109,0.312632 -3.753686,0.291337 -0.200441,-0.715353 -0.479612,-1.500697 -0.851508,-2.368454 L 17.699792,2.3504252 c -0.18955,-0.2793369 -0.416211,-0.5339827 -0.671449,-0.7685323 0.04483,-0.84275623 0.0093,-1.78757846 -0.108471,-2.8357089 -0.797884,-6.9299461 -1.955704,-12.274716 -3.472674,-16.034664 -1.652551,-4.14019 -3.8260245,-6.973591 -6.5199174,-8.502681 -0.3473991,-1.311189 -0.9570539,-2.382237 -1.8328638,-3.209816 -0.5690727,-0.530788 -2.6417363,-1.804677 -6.217589,-3.821972 -2.4728416,-1.355575 -3.7121623,-2.850319 -3.7195148,-4.483668 z"
     style="filter:url(#Filter_1)"
     transform="matrix(1.999939,0.00900269,-0.00900269,1.9998169,60.65,76.15)" />
</svg>
