
<svg xmlns="http://www.w3.org/2000/svg" version="1.1" xmlns:xlink="http://www.w3.org/1999/xlink" preserveAspectRatio="none" x="0px" y="0px" width="330px" height="358px" viewBox="50 364 330 358">
<defs>
<filter id="Filter_1" x="-20%" y="-20%" width="140%" height="140%" color-interpolation-filters="sRGB">
<feColorMatrix in="SourceGraphic" type="matrix" values="0 0 0 0 0.4 0 0 0 0 0.8 0 0 0 0 0.4 0 0 0 1 0" result="result1"/>
</filter>

<g id="Symbol_323_0_Layer0_0_FILL">
<path fill="#FFFFFF" stroke="none" d="
M 75.9 59.35
Q 73.1 54.25 68.1 52.75
L 57.2 67.9
Q 56.1 74 59.75 79.25 61.6 81.85 63.6 83.25
L 62.7 90.8
Q 62.6 92 58.3 95.9 53.8 100 53.05 103.7 52.25 107.75 52.3 114.75
L 52.5 120.95
Q 59.55 123 66.65 120.95 70.2 119.95 72.35 118.5 68.9 112.8 71.35 105.15 74.65 97.6 75.1 95.35 75.7 92.9 73.7 87.65 71.55 81.95 71.65 80.5 71.65 78.65 74.4 74.95 77.3 70.95 77.7 68.2 78.45 63.9 75.9 59.35 Z"/>
</g>

<g id="Symbol_323_0_Layer0_1_FILL">
<path fill="#FFFFFF" stroke="none" d="
M 37.45 64.65
L 35.45 69.45
Q 33.1 74.6 31.05 76.45
L 27.7 79
Q 24.85 81.35 22.6 83.75 15.85 91.25 15.35 100.25 14.7 111.8 16.2 117.55
L 21 119.05
Q 26.9 119.9 32.4 116.85
L 30.45 100
Q 29.95 96.3 30.1 95.1 30.35 92.5 32.6 92.2 36.75 91.55 39.7 86.65
L 41.8 81.85 37.45 64.65 Z"/>
</g>

<g id="Symbol_323_0_Layer0_2_FILL">
<path fill="#FFFFFF" stroke="none" d="
M 30.5 35.6
Q 28.95 34.85 26.85 35.3 22.75 36.25 20.1 42.4 17.95 47.35 19.25 51.1 19.95 53.35 21.65 54.7
L 37.25 67.8
Q 39.25 69.2 43.3 69 48.55 68.7 52 64.75 55.6 60.6 55 57.95 54.6 56.05 51.25 53.55
L 30.5 35.6 Z"/>
</g>

<g id="Symbol_323_0_Layer0_3_FILL">
<path fill="#FFFFFF" stroke="none" d="
M 25.65 67.5
Q 25.95 75.6 30.8 79.25 34.4 81.95 42.05 82.8 48.75 83.65 54.25 82.75 63.45 81.3 68.45 75.65 70.9 72.85 72.95 67.8 74.75 63.65 75.35 60 76.15 55.6 71.75 53 67.9 50.7 64.4 51.25
L 56.35 53.55 47.75 53.85
Q 41.8 52.15 40.45 52.05 35.4 51.65 30.8 55 25.4 59.05 25.65 67.5 Z"/>
</g>

<g id="Symbol_323_0_Layer0_4_FILL">
<path fill="#FFFFFF" stroke="none" d="
M 81.3 96.2
Q 82.65 88.7 82.55 86.6 82.45 84.25 79.3 80.1 75.8 75.65 75.45 74.35 75.05 72.65 76.75 68.7 78.6 64.45 78.35 61.9 77.95 57.9 74.35 54.55 70.4 50.75 65.15 50.7
L 58.4 66.95
Q 58.9 72.6 63.7 76.3 66.1 78.15 68.4 78.85
L 69.45 85.8
Q 69.6 86.85 66.4 91.4 63.05 96.2 63.3 99.65 63.5 103.5 65.3 109.6
L 66.95 115.05
Q 74.35 115.05 80.65 111.4 83.85 109.65 85.55 107.8 80.85 103.6 81.3 96.2 Z"/>
</g>

<g id="Symbol_323_0_Layer0_5_FILL">
<path fill="#FFFFFF" stroke="none" d="
M 33.4 71.15
L 34.55 76.2
Q 35.5 81.85 34.85 85.15 34.55 86.95 29.85 95.3 25.55 104.65 26.1 112.75 26.9 123.6 29.3 128.7
L 34.85 129
Q 41.6 128.5 47.3 124.5
L 43.1 109.35
Q 42.3 106.5 42.4 103.5 42.45 100.8 43.2 97 44.5 90.4 45.9 85.1
L 47.05 81.1
Q 47.45 78.5 46.95 75.6 45.85 69.7 41.05 67.8 35.85 65.75 34.1 67.05 32.9 68 33.4 71.15 Z"/>
</g>

<g id="Symbol_323_0_Layer0_6_FILL">
<path fill="#FFFFFF" stroke="none" d="
M 11.65 20.45
Q 11.7 18.8 11.15 16.9 10.15 13 7.5 11.6 6.5 11 0.55 9.45 -3.55 8.45 -4.2 6.05 -4.9 7.35 -5.25 9.2 -5.9 12.95 -4.1 16.05 0.2 23.5 11.65 20.45 Z"/>
</g>

<g id="Symbol_323_0_Layer0_7_FILL">
<path fill="#FFFFFF" stroke="none" d="
M 26 35.4
Q 22.2 25.65 18.6 20.8 12.25 12.25 4.65 14.3 -3.8 16.55 -7.35 22.5 -8.6 24.45 -9.5 27.45 -10.25 29.55 -10.35 30.95 -10.85 34.75 -10.15 41.15
L -9.3 46.8 -11.45 49.8
Q -13.5 53.6 -12.45 57.45 -11.5 61.1 -8.3 63 -6.05 64.35 -3.1 64.6 -0.05 64.85 6.8 62.5 13.1 60.3 16.3 58.2 19.55 56 20.9 54 23.25 50.35 21.95 45.15 25.4 44.1 26.4 42.5 27.85 40.15 26 35.4 Z"/>
</g>
</defs>

<g transform="matrix( 2, 0, 0, 1.9998779296875, 100.1,433.95) ">
<g transform="matrix( 1, 0, 0, 1, 0,0) ">
<use filter="url(#Filter_1)" xlink:href="#Symbol_323_0_Layer0_0_FILL"/>
</g>

<g transform="matrix( 1, 0, 0, 1, 0,0) ">
<use filter="url(#Filter_1)" xlink:href="#Symbol_323_0_Layer0_1_FILL"/>
</g>

<g transform="matrix( 1, 0, 0, 1, 0,0) ">
<use filter="url(#Filter_1)" xlink:href="#Symbol_323_0_Layer0_2_FILL"/>
</g>

<g transform="matrix( 1, 0, 0, 1, 0,0) ">
<use filter="url(#Filter_1)" xlink:href="#Symbol_323_0_Layer0_3_FILL"/>
</g>

<g transform="matrix( 1, 0, 0, 1, 0,0) ">
<use filter="url(#Filter_1)" xlink:href="#Symbol_323_0_Layer0_4_FILL"/>
</g>

<g transform="matrix( 1, 0, 0, 1, 0,0) ">
<use filter="url(#Filter_1)" xlink:href="#Symbol_323_0_Layer0_5_FILL"/>
</g>

<g transform="matrix( 1, 0, 0, 1, 0,0) ">
<use filter="url(#Filter_1)" xlink:href="#Symbol_323_0_Layer0_6_FILL"/>
</g>

<g transform="matrix( 1, 0, 0, 1, 0,0) ">
<use filter="url(#Filter_1)" xlink:href="#Symbol_323_0_Layer0_7_FILL"/>
</g>
</g>
</svg>
