
<svg xmlns="http://www.w3.org/2000/svg" version="1.1" xmlns:xlink="http://www.w3.org/1999/xlink" preserveAspectRatio="none" x="0px" y="0px" width="330px" height="358px" viewBox="0 0 330 358">
<defs>
<filter id="Filter_1" x="-20%" y="-20%" width="140%" height="140%" color-interpolation-filters="sRGB">
<feColorMatrix in="SourceGraphic" type="matrix" values="0 0 0 0 1 0 0 0 0 0 0 0 0 0 0.4 0 0 0 1 0" result="result1"/>
</filter>

<g id="anims_pony_jump_anim_clean_flats_14_Layer0_0_FILL">
<path fill="#FFFFFF" stroke="none" d="
M 14.15 -6.45
Q 13.2 -4.15 11.85 -0.8 11.3 0.25 7.3 4.25 3.85 7.8 3.7 9.25 3.55 11.75 3.85 15.2 4.3 19.3 5.3 20.75 6.45 22.4 9.95 24.7 13.45 26.9 15.45 27.35 17.95 27.9 20.85 27.05 24.3 25.95 25.9 23.1
L 30.05 24.2
Q 33.290234375 24.70625 35.7 24.15
L 39.95 31.5
Q 40.5041015625 32.4638671875 41 33.3 36.9845703125 37.1521484375 36.9 44.3 36.8677734375 46.916015625 37.3 49.1
L 37.3 49.1
Q 36.6 49.35 33.3 50.35 29.8 51.5 26.95 52.95 18.15 57.35 15.35 64.9 11.85 74.75 11.95 80.1
L 16.4 82.8
Q 20.3744140625 84.5130859375 24.6 84.55 24.154296875 89.3849609375 24.9 92.4
L 30.25 94.15
Q 36.85 95.55 43.25 93.85 42.8 87.55 42.55 80.7 42.5 78.2 43.25 75.8 43.9 73.7 45.45 70.85 48.2 65.9 50.75 62.1
L 51.95 60.3
Q 52.2392578125 60.35703125 52.5 60.4 59.15 61.55 64.7 60.95 68.221875 60.5693359375 71.15 59.55 71.2595703125 59.6484375 71.35 59.75
L 68.6 66.4
Q 68.2 67.35 63.05 69.75 57.7 72.2 56.05 75.4 54.25 78.85 52.5 85.15 51.7 88.35 51.15 90.8 57.45 94.6 64.75 94.7 68.0125 94.7880859375 70.25 94.2 74.7865234375 94.692578125 79.35 93.6 82.95 92.8 85.1 91.5 81.8 86.2 84.35 79.25 87.75 72.4 88.25 70.35 88.85 68.1 86.95 63.2 84.9 57.95 84.9 56.6 84.9833984375 55.1404296875 86.95 52.55 87.813671875 51.6796875 88.35 50.8 90.798046875 47.7595703125 91.25 45.5 92 41.55 89.5 37.3 86.7857421875 32.6119140625 81.9 31.05 79.058203125 29.6291015625 76.35 29.9 70.95 31.2 68.2 31.8 65.684375 32.410546875 63.55 32.4 63.5376953125 32.3564453125 63.5 32.3 61.95 29.8 55.8 18.8
L 50 8.35
Q 49.3845703125 7.7345703125 48.5 7.35 49.276171875 -2.7248046875 48.15 -8.6 46.9509765625 -15.194140625 43.4 -18.25 43.259765625 -20.246484375 42.2 -21.7 41.5 -22.65 36.85 -26.65 33.65 -29.35 34.1 -31.75
L 31.75 -29.4
Q 29.6 -26.3 29.85 -22.75 29.9228515625 -21.7068359375 30.15 -20.75 27.605859375 -20.309375 25.45 -19.15 23.3 -18 18.35 -13.15 15.95 -10.75 14.15 -6.45
M 36.1 63.25
Q 34.76875 64.46796875 33 66 31.9060546875 67.0939453125 30.95 68.2 31.3666015625 65.733203125 31.7 64.9 32.65 62.8 35 63.15 35.5529296875 63.237890625 36.1 63.25 Z"/>
</g>
</defs>

<g transform="matrix( 2, 0, 0, 1.9998779296875, 55.6,72.4) ">
<g transform="matrix( 1, 0, 0, 1, 0.05,-3) ">
<g transform="matrix( 1, 0, 0, 1, 0,0) ">
<use filter="url(#Filter_1)" xlink:href="#anims_pony_jump_anim_clean_flats_14_Layer0_0_FILL"/>
</g>
</g>
</g>
</svg>
