<?xml version="1.0" encoding="UTF-8" standalone="no"?>
<svg
   version="1.1"
   preserveAspectRatio="none"
   x="0px"
   y="0px"
   width="264"
   height="283"
   viewBox="0 0 264 283"
   id="svg3343"
   sodipodi:docname="pony_female_walk_bg_0024.svg"
   xmlns:inkscape="http://www.inkscape.org/namespaces/inkscape"
   xmlns:sodipodi="http://sodipodi.sourceforge.net/DTD/sodipodi-0.dtd"
   xmlns="http://www.w3.org/2000/svg"
   xmlns:svg="http://www.w3.org/2000/svg">
  <sodipodi:namedview
     id="namedview3345"
     pagecolor="#ffffff"
     bordercolor="#000000"
     borderopacity="0.25"
     inkscape:showpageshadow="2"
     inkscape:pageopacity="0.0"
     inkscape:pagecheckerboard="0"
     inkscape:deskcolor="#d1d1d1"
     showgrid="false" />
  <defs
     id="defs3289">
    <filter
       id="Filter_1"
       x="0"
       y="0"
       width="1"
       height="1"
       color-interpolation-filters="sRGB">
      <feColorMatrix
         in="SourceGraphic"
         type="matrix"
         values="0 0 0 0 0 0 0 0 0 0.8 0 0 0 0 0.4 0 0 0 1 0"
         result="result1"
         id="feColorMatrix3256" />
    </filter>
  </defs>
  <path
     fill="#FFFFFF"
     id="path3347"
     d="m -4.6071899,-37.378727 c -0.6659171,0.700731 -1.2653261,1.617847 -1.7974387,2.751773 -1.0641891,2.301186 -1.29475,4.602138 -0.6922502,6.901519 0.1842655,0.680892 0.4170085,1.319075 0.6969901,1.916532 -2.1094273,0.807709 -3.9420143,1.967268 -5.4911903,3.488441 -1.132229,1.034575 -2.247897,2.452019 -3.345961,4.253234 -0.832045,1.200919 -1.397474,2.25177 -1.696503,3.152107 -0.964152,2.334412 -1.777613,5.6358224 -2.439666,9.9032682 -0.331063,2.1003891 -0.561809,3.9836148 -0.693339,5.65044817 l -2.847606,2.35324223 c -1.931084,2.1021226 -2.895149,4.4867497 -2.89226,7.1534514 0.0027,2.500034 0.855424,4.631853 2.557361,6.396702 1.234722,1.265347 2.769094,2.230942 4.603174,2.895631 l 10.1002328,0.539108 c 4.466365,-0.338177 7.8993082,-0.908625 10.2984734,-1.711236 0.034609,-0.01158 0.066198,-0.02362 0.1005569,-0.03525 l 3.8364017,10.571688 c -3.8418766,2.241601 -6.02173868,6.1346 -6.5338809,11.686262 -0.4592931,5.38381 0.75635327,9.480217 3.6484383,12.287803 0.4357715,0.421628 0.934746,0.825496 1.4903353,1.212664 -0.16638,0.710173 -0.4052177,1.355099 -0.7209874,1.931438 -0.5990224,1.133871 -2.5300174,3.636052 -5.7933651,7.505612 -2.8295446,4.402524 -3.9920848,9.169985 -3.4876132,14.302953 0.4710219,4.999661 1.8078131,8.948899 4.0103652,11.847025 l 1.45888063,-0.144835 c -0.18577657,1.026371 -0.34155221,2.004876 -0.46815737,2.935202 -6.2494e-4,0.0045 -0.001318,0.0091 -0.001941,0.01367 -0.0593109,0.436604 -0.11278105,0.863127 -0.15904666,1.278556 -0.009918,0.08859 -0.0178185,0.175125 -0.0271156,0.262739 -0.0348514,0.329327 -0.0654606,0.652202 -0.091933,0.967928 -0.006639,0.08005 -0.0142234,0.162082 -0.0202983,0.241247 -0.1949719,2.500645 -0.1230731,4.566099 0.21925832,6.194614 1.33387321,0.59885 3.10171278,1.01406 5.30194538,1.24549 0.842121,0.0879 1.6829805,0.13853 2.5226326,0.15309 2.7458701,0.051 5.484834,-0.29538 8.216995,-1.03848 0.547275,-0.14866 1.094016,-0.31323 1.640221,-0.49365 0.272972,-0.0902 0.545291,-0.18383 0.818127,-0.28198 -0.576097,-10.832989 -0.566028,-19.31725 0.02865,-25.451188 0.520452,-5.083433 1.377237,-10.585536 2.560889,-16.49372 1.843154,0.201364 3.618811,0.280928 5.319614,0.225859 2.299116,-0.07444 4.429085,-0.363422 6.391925,-0.863047 1.041376,1.205829 2.129563,2.051709 3.264945,2.52958 l -0.393694,7.706985 c 8.57e-4,0.984481 -0.830751,2.985229 -2.494818,6.001651 -1.996762,3.755073 -3.327656,6.586344 -3.992673,8.494355 -1.39654,4.000672 -2.542687,8.677507 -3.438044,14.031405 4.101046,1.13474 8.551973,1.438489 13.351583,0.911308 l 4.140043,-0.741938 c 0.03407,0.434046 0.06959,0.864241 0.110486,1.276368 0.01558,0.0072 0.03131,0.01332 0.04689,0.02047 9.43e-4,0.01015 0.002,0.02012 0.003,0.03027 0.101883,0.03582 0.203764,0.0698 0.305759,0.104234 4.365805,1.916528 9.013561,2.147908 13.945143,0.683236 1.252962,-0.368719 2.396505,-0.787933 3.431577,-1.256987 0.927888,-0.370983 1.751405,-0.786469 2.466725,-1.248334 -0.0153,-0.02376 -0.02994,-0.04893 -0.04499,-0.07321 0.115249,-0.07547 0.23331,-0.14956 0.344534,-0.226879 -1.736836,-3.998547 -2.591091,-9.09863 -2.56315,-15.298743 0.361395,-6.067068 0.457911,-9.849876 0.289938,-11.349751 -0.168003,-1.533209 -1.287245,-3.799161 -3.356549,-6.797404 -2.102609,-2.96488 -3.204215,-5.013747 -3.305202,-6.147008 -0.134292,-1.099899 0.247438,-3.400106 1.144406,-6.900936 0.863634,-3.500801 1.211111,-6.184779 1.042818,-8.051326 -0.302555,-2.933112 -1.671174,-5.599123 -4.106627,-7.997038 -2.340348,-2.307788 -5.145163,-3.635662 -8.410826,-3.991036 -1.395197,-0.617949 -2.791321,-0.90689 -4.188314,-0.861658 l -8.262695,1.268026 c -1.350304,0.213372 -2.608996,0.30416 -3.778137,0.276744 -0.201031,-0.728583 -0.484706,-1.531071 -0.865399,-2.419354 L 17.700166,2.3500189 c -0.165748,-0.244259 -0.35787,-0.4702029 -0.573843,-0.6802168 0.05501,-0.86395215 0.02376,-1.83695223 -0.09434,-2.9210393 -0.774188,-6.932595 -1.913229,-12.2819888 -3.417329,-16.0470798 -1.638291,-4.145562 -3.8024825,-6.985962 -6.4909118,-8.524302 -0.3428815,-1.312669 -0.9490405,-2.385728 -1.8221612,-3.216434 -0.5672521,-0.532727 -2.6356924,-1.814034 -6.2046095,-3.84353 -2.4681802,-1.364012 -3.7023928,-2.862789 -3.7041624,-4.496144 z"
     style="filter:url(#Filter_1)"
     transform="matrix(1.9999695,0.0017395,-0.0017395,1.9998474,60.45,76.25)" />
</svg>
