
<svg xmlns="http://www.w3.org/2000/svg" version="1.1" xmlns:xlink="http://www.w3.org/1999/xlink" preserveAspectRatio="none" x="0px" y="0px" width="330px" height="358px" viewBox="50 364 330 358">
<defs>
<filter id="Filter_1" x="-20%" y="-20%" width="140%" height="140%" color-interpolation-filters="sRGB">
<feColorMatrix in="SourceGraphic" type="matrix" values="0 0 0 0 0.4 0 0 0 0 0.8 0 0 0 0 0.4 0 0 0 1 0" result="result1"/>
</filter>

<g id="Symbol_85_0_Layer0_0_FILL">
<path fill="#FFFFFF" stroke="none" d="
M 88.55 96.9
Q 89.65 93.4 87.3 90.65 84.75 87.65 79.5 87.65
L 64.7 101.15
Q 58.45 105.05 57.95 111.2 57.35 117.6 65 117 58.75 120.4 56 124.05 53.5 127.3 51.5 131.4 50.5 133.45 50 134.85 55.6 137.35 63.2 136.6
L 69.65 135.3
Q 69.2 130.3 72.9 123.1
L 77.65 115.4
Q 78.65 113.7 78 112.1 77.15 110.25 74.2 108.95 79.75 105.55 82.45 103.55 87.7 99.65 88.55 96.9 Z"/>
</g>

<g id="Symbol_85_0_Layer0_1_FILL">
<path fill="#FFFFFF" stroke="none" d="
M 36.25 95.75
Q 31.55 97.65 29.9 98.55 25.55 100.95 23.2 104.5 20.85 108 19.55 114.9 18.05 122.55 19.5 126.7
L 25.9 127.2
Q 33.2 127 37.25 123.15 36.9 118.9 34.7 112.6 33.75 109.85 37.1 107.1 40.3 104.4 43.25 104.35 48.25 104.35 50.05 101.2
L 50.9 98.1 40.95 90.9 40.65 92.55
Q 39.65 94.35 36.25 95.75 Z"/>
</g>

<g id="Symbol_85_0_Layer0_2_FILL">
<path fill="#FFFFFF" stroke="none" d="
M 38.7 66.5
Q 38.65 68.8 39.8 70.6
L 44.55 78.5
Q 49.4 86.65 50.2 87.7 51.6 89.6 55.5 90.7 60.6 92.15 65.15 89.65 69.9 86.95 70.2 84.35 70.45 82.45 68.1 79.05 66.55 76.7 60.35 66.05
L 54.45 55.85
Q 53.3 54.65 51.1 54.4 46.95 53.95 42.4 58.75 38.7 62.6 38.7 66.5 Z"/>
</g>

<g id="Symbol_85_0_Layer0_3_FILL">
<path fill="#FFFFFF" stroke="none" d="
M 87.55 86.9
Q 84.75 83.55 81.25 82.9
L 72.9 82.35
Q 67.65 82.05 64.7 79.85 59.7 76.25 58.5 75.8 53.85 73.65 48.4 75.3 41.95 77.2 39.3 85.05 36.9 92.6 40.2 97.5 42.65 101.15 49.55 104.5 55.6 107.45 61 108.5 70.2 110.2 76.8 106.65 80.05 104.85 83.75 100.9 86.8 97.65 88.6 94.5 90.85 90.8 87.55 86.9 Z"/>
</g>

<g id="Symbol_85_0_Layer0_4_FILL">
<path fill="#FFFFFF" stroke="none" d="
M 90.05 86.35
Q 86.3 82.85 81.05 82.85
L 71.55 98.6
Q 66.85 103.15 68.75 110.35 70.7 117.8 78.1 117.1 73.2 121.1 71.85 125.35 70.65 129.1 70.25 133.9
L 70.1 137.95
Q 76.7 140.85 84 139.95 87.65 139.5 89.95 138.45 87.5 132.6 88.4 124.2
L 90.1 115.2
Q 90.45 113.25 89.15 111.35 87.6 109.2 84.1 107.65 88.35 103.75 90.25 101.45 94 96.9 93.75 93.65 93.45 89.55 90.05 86.35 Z"/>
</g>

<g id="Symbol_85_0_Layer0_5_FILL">
<path fill="#FFFFFF" stroke="none" d="
M 47.25 95.1
L 46.9 96.8
Q 45.85 98.6 42.45 99.85 37.7 101.7 36.05 102.6 31.7 104.95 29.25 108.4 26.85 111.9 25.35 118.8 23.75 126.35 25.1 130.55
L 31.55 131.15
Q 38.85 131.1 42.95 127.35 42.7 123.1 40.6 116.75 39.65 113.95 43.05 111.25 46.3 108.6 49.3 108.65 54.25 108.75 56.1 105.6
L 57.05 102.45 47.25 95.1 Z"/>
</g>

<g id="Symbol_85_0_Layer0_6_FILL">
<path fill="#FFFFFF" stroke="none" d="
M 47.9 37.2
Q 48.75 35.85 49.3 33.95 50.3 30.2 48.75 27.7 48.15 26.75 43.8 22.55 40.7 19.65 41.35 17.35 40.15 18.1 38.9 19.5 36.45 22.35 36.45 25.8 36.45 34.25 47.9 37.2 Z"/>
</g>

<g id="Symbol_85_0_Layer0_7_FILL">
<path fill="#FFFFFF" stroke="none" d="
M 53.75 40.9
Q 52.5 30.55 44.9 28.55 36.45 26.35 30.4 29.7 28.35 30.75 26.05 32.85 24.4 34.25 23.6 35.4 21.3 38.3 18.7 44.05
L 16.6 49.25 13.2 50.7
Q 9.55 52.95 8.5 56.75 7.55 60.25 9.35 63.4 10.6 65.65 13.05 67.3 15.6 69 22.65 70.35 29.25 71.6 33.05 71.35 37 71.15 39.15 70.05 43 68.1 44.5 63.05 47.95 63.9 49.65 63.05 52.1 61.8 52.85 56.85 54.45 46.75 53.75 40.9 Z"/>
</g>
</defs>

<g transform="matrix( 2, 0, 0, 1.9998779296875, 100.1,433.95) ">
<g transform="matrix( 1, 0, 0, 1, 0,0) ">
<use filter="url(#Filter_1)" xlink:href="#Symbol_85_0_Layer0_0_FILL"/>
</g>

<g transform="matrix( 1, 0, 0, 1, 0,0) ">
<use filter="url(#Filter_1)" xlink:href="#Symbol_85_0_Layer0_1_FILL"/>
</g>

<g transform="matrix( 1, 0, 0, 1, 0,0) ">
<use filter="url(#Filter_1)" xlink:href="#Symbol_85_0_Layer0_2_FILL"/>
</g>

<g transform="matrix( 1, 0, 0, 1, 0,0) ">
<use filter="url(#Filter_1)" xlink:href="#Symbol_85_0_Layer0_3_FILL"/>
</g>

<g transform="matrix( 1, 0, 0, 1, 0,0) ">
<use filter="url(#Filter_1)" xlink:href="#Symbol_85_0_Layer0_4_FILL"/>
</g>

<g transform="matrix( 1, 0, 0, 1, 0,0) ">
<use filter="url(#Filter_1)" xlink:href="#Symbol_85_0_Layer0_5_FILL"/>
</g>

<g transform="matrix( 1, 0, 0, 1, 0,0) ">
<use filter="url(#Filter_1)" xlink:href="#Symbol_85_0_Layer0_6_FILL"/>
</g>

<g transform="matrix( 1, 0, 0, 1, 0,0) ">
<use filter="url(#Filter_1)" xlink:href="#Symbol_85_0_Layer0_7_FILL"/>
</g>
</g>
</svg>
