
<svg xmlns="http://www.w3.org/2000/svg" version="1.1" xmlns:xlink="http://www.w3.org/1999/xlink" preserveAspectRatio="none" x="0px" y="0px" width="268px" height="285px" viewBox="0 0 268 285">
<defs>
<filter id="Filter_1" x="-20%" y="-20%" width="140%" height="140%" color-interpolation-filters="sRGB">
<feColorMatrix in="SourceGraphic" type="matrix" values="0 0 0 0 1 0 0 0 0 0 0 0 0 0 0.4 0 0 0 1 0" result="result1"/>
</filter>

<g id="anims_pony_walk_anim_clean_flats_23_Layer0_0_FILL">
<path fill="#FFFFFF" stroke="none" d="
M 81.75 87.45
Q 83.05 82.2 82.8 79.4 82.35 75 78.7 71.4 75.215625 67.9580078125 70.35 67.4 68.229296875 66.4400390625 66.1 66.5 60.7 67.35 57.85 67.75 55.79921875 68.08515625 54 68.05 53.7267578125 66.945703125 53.15 65.6 52.05 62.9 48.05 51
L 44.2 39.65
Q 43.990234375 39.3408203125 43.7 39.05 43.7724609375 37.6123046875 43.6 36.1 42.45 25.7 40.2 20.05 37.7498046875 13.8302734375 33.7 11.5 33.2087890625 9.5478515625 31.9 8.3 31.05 7.5 25.7 4.45 22 2.4 22 -0.05
L 20.2 2.7
Q 18.6 6.15 19.5 9.6 19.7720703125 10.6099609375 20.15 11.5 17.780859375 12.412890625 15.9 13.95 14 15.5 10.05 21.25 8.1 24.05 7.15 28.6 6.65 31 5.95 34.6 5.6 35.7 2.45 40.4 -0.3 44.5 -0.15 46 0.15 48.5 1.1 51.8 2.3 55.75 3.55 57 5 58.4 8.85 60 12.75 61.5 14.8 61.55 17.35 61.6 20 60.2 23.25 58.45 24.25 55.35
L 28.35 55.6 30.1 60.65
Q 31.2580078125 63.8923828125 32.05 66.1 26.3845703125 69.513671875 25.6 77.8 24.95 85.8 29.25 90.05 29.9201171875 90.69921875 30.75 91.3 30.53046875 92.3748046875 30.05 93.25 29.15 94.95 24.25 100.75 20 107.35 20.75 115.05 21.45 122.55 24.75 126.9 25.4169921875 126.94453125 26.15 126.9 24.8 134.5884765625 25.65 138.65 26.165625 138.88203125 26.75 139.05 28.5009765625 139.636328125 30.95 139.9
L 31 139.9
Q 37.6 140.6 44.15 138.25 44.047265625 136.2875 43.95 134.4
L 43.95 134.35
Q 43.4103515625 120.8728515625 44.2 112.8 44.9904296875 105.14453125 46.75 96.25 49.5482421875 96.5419921875 52.1 96.45 55.51015625 96.3587890625 58.4 95.6 60.0154296875 97.50625 61.75 98.2
L 61.35 105.9
Q 61.35 107.4 58.85 111.9 55.85 117.55 54.85 120.4 52.75 126.4 51.4 134.45 57.55 136.15 64.75 135.35 67.0853515625 135.15546875 68.9 134.75 68.9453125 135.3431640625 69 135.9 69.0236328125 135.9109375 69.05 135.9
L 69.05 135.95
Q 69.1701171875 135.9923828125 69.3 136 75.8630859375 138.9517578125 83.3 136.75 85.1671875 136.20234375 86.7 135.5 88.11796875 134.947265625 89.2 134.25 89.1779296875 134.2158203125 89.15 134.15 89.3314453125 134.0669921875 89.5 133.95 86.9 127.95 86.95 118.65 87.5 109.55 87.25 107.3 87 105 83.9 100.5 80.75 96.05 80.6 94.35 80.4 92.7 81.75 87.45 Z"/>
</g>
</defs>

<g transform="matrix( 2, 0, 0, 1.9998779296875, 9.9,2.9) ">
<g transform="matrix( 1, 0, 0, 1, 0.2,0) ">
<g transform="matrix( 1, 0, 0, 1, 0,0) ">
<use filter="url(#Filter_1)" xlink:href="#anims_pony_walk_anim_clean_flats_23_Layer0_0_FILL"/>
</g>
</g>
</g>
</svg>
