
<svg xmlns="http://www.w3.org/2000/svg" version="1.1" xmlns:xlink="http://www.w3.org/1999/xlink" preserveAspectRatio="none" x="0px" y="0px" width="330px" height="358px" viewBox="0 0 330 358">
<defs>
<filter id="Filter_1" x="-20%" y="-20%" width="140%" height="140%" color-interpolation-filters="sRGB">
<feColorMatrix in="SourceGraphic" type="matrix" values="0 0 0 0 1 0 0 0 0 0 0 0 0 0 0.4 0 0 0 1 0" result="result1"/>
</filter>

<g id="anims_pony_jump_anim_clean_flats_22_Layer0_0_FILL">
<path fill="#FFFFFF" stroke="none" d="
M 8.7 48.9
Q 7.7 48.45 1.65 46.9 -2.5 45.85 -2.8 43.95
L -4.3 46.4
Q -5.55 49.45 -4.2 52 -3.798046875 52.737890625 -3.3 53.35 -5.6712890625 54.454296875 -7.45 55.95 -9.3 57.55 -12.75 62.65 -14.45 65.2 -14.9 68.9 -15.1 70.9 -15.4 73.85 -15.65 74.75 -18.4 78.95 -20.8 82.65 -20.45 83.85 -19.8 85.75 -18.4 88.2 -16.65 91.1 -15.2 91.9 -13.5 92.75 -9.25 93.35 -4.95 94 -2.8 93.65 -0.1 93.3 2.5 91.75 5.7 89.8 6.4 87.25
L 10.95 86.75
Q 15.546875 85.92265625 18.15 84.1 18.4701171875 84.2951171875 18.8 84.45
L 28.1 89.2
Q 27.353125 91.61015625 27.3 94.6 27.2224609375 100.88046875 30 104.6
L 28.35 107.05
Q 25.55 112.35 27.95 114.9 23.85 114.35 20.9 115.6 16.45 117.5 15.2 123.25 14.15 128.6 14.55 132.95
L 20.3 134.7
Q 23.13125 135.4078125 25.85 135.7 26.112890625 137.3326171875 26.5 138.85
L 32.4 139.85
Q 39.35 140.5 45.1 138.6 44.15 133.65 42.35 127.1 41.8 125.1 42.05 124 42.3 122.75 44 121.05 46.15 118.85 47.4 113.45
L 47.7 111.4
Q 49.32421875 111.533984375 50.85 111.55 53.4474609375 115.3359375 59.05 114.65 54.25 118.5 53.05 122.5 51.95 126.1 51.65 130.55 51.5 132.8 51.6 134.3 56.7541015625 136.1462890625 62.25 135.9 62.3009765625 136.95859375 62.4 137.8 69.2 140.8 76.4 139.9 80.05 139.4 82.25 138.35 79.4 132.25 79.65 123.5 80.6 115.3 80.7 114.15 80.9 112.1 79.5 110.15 77.75 107.9 74.15 106.3 78.1 102.25 79.85 99.8 83.25 95.05 82.8 91.7 82.2 87.45 78.55 84.15 74.55 80.45 69.3 80.45
L 69.25 80.5
Q 68.0298828125 80.2787109375 66.8 80.4 61.45 81.65 58.65 82.25 57.358203125 82.55390625 56.15 82.7 55.5291015625 82.380078125 54.8 82.05 51.45 80.45 37.6 73.2
L 24.4 66.25
Q 23.9294921875 66.1087890625 23.4 66 21.3228515625 60.1740234375 18.85 56.85 15.5130859375 52.390234375 11 51.2 10.247265625 49.7046875 8.7 48.9 Z"/>
</g>
</defs>

<g transform="matrix( 2, 0, 0, 1.9998779296875, 55.6,72.4) ">
<g transform="matrix( 1, 0, 0, 1, 0.05,-3) ">
<g transform="matrix( 1, 0, 0, 1, 0,0) ">
<use filter="url(#Filter_1)" xlink:href="#anims_pony_jump_anim_clean_flats_22_Layer0_0_FILL"/>
</g>
</g>
</g>
</svg>
