
<svg xmlns="http://www.w3.org/2000/svg" version="1.1" xmlns:xlink="http://www.w3.org/1999/xlink" preserveAspectRatio="none" x="0px" y="0px" width="268px" height="285px" viewBox="0 0 268 285">
<defs>
<filter id="Filter_1" x="-20%" y="-20%" width="140%" height="140%" color-interpolation-filters="sRGB">
<feColorMatrix in="SourceGraphic" type="matrix" values="0 0 0 0 1 0 0 0 0 0 0 0 0 0 0.4 0 0 0 1 0" result="result1"/>
</filter>

<g id="anims_pony_walk_anim_clean_flats_14_Layer0_0_FILL">
<path fill="#FFFFFF" stroke="none" d="
M 42.4 40
Q 42.2708984375 39.8474609375 42.1 39.7 42.07890625 38.373828125 41.85 37 40.1 26.7 37.5 21.2 34.707421875 15.144140625 30.55 13.05 29.9283203125 11.1138671875 28.55 9.95 27.65 9.2 22.15 6.45 21.4427734375 6.11015625 20.85 5.75 18.2724609375 4.15 18.15 2.15
L 16.55 5
Q 16.4017578125 5.3759765625 16.25 5.75 15.2611328125 8.9099609375 16.2 11.95 16.5357421875 12.9509765625 17 13.8 14.6736328125 14.8673828125 12.9 16.5 11.1 18.15 7.5 24.05 5.7 26.95 5 31.55 4.65 34 4.15 37.6 3.85 38.75 1 43.6 0.5884765625 44.2939453125 0.25 44.9 -1.5095703125 48.133984375 -1.3 49.35 -0.859765625 51.7953125 0.25 54.9 0.2748046875 54.9798828125 0.3 55.05 1.7 58.95 3.05 60.1 4.55 61.45 8.5 62.8 12.5 64.15 14.55 64.05 17.1 63.95 19.6 62.4 22.75 60.5 23.6 57.35
L 27.9 57.4
Q 27.944921875 57.395703125 28 57.4
L 30.15 62.1
Q 31.2306640625 64.477734375 32.05 66.3 26.7794921875 69.5638671875 25.8 77.4 24.85 85.45 29.05 89.8 30.404296875 91.198046875 32.6 92.35 32.973046875 94.990625 33.1 97.5 31.7099609375 99.4794921875 27.95 103.7 23.7 110 24.45 117.7 24.480859375 118.03203125 24.5 118.35 24.2115234375 118.4251953125 23.95 118.5 24.50625 120.7388671875 25.1 122.6 25.312890625 123.6865234375 25.55 124.55 26.35 127.55 27.85 129.55 28.0728515625 129.5796875 28.3 129.6 28.45234375 129.8076171875 28.6 130 29.458203125 130.0572265625 30.45 130 30.0361328125 132.680078125 29.55 135.25
L 34.9 136.5
Q 41.65 137.25 48.05 134.8 47.95 123.1 47.55 113.55 47.3 107.9 46.15 100.85 45.93671875 99.5201171875 45.75 98.35 46.1951171875 97.4720703125 46.55 96.55 49.1888671875 96.95 51.65 96.95 57.5591796875 96.95 62.05 95 62.5015625 95.835546875 63.05 96.6 64.75 98.85 66.45 99.95
L 67.05 107.9
Q 67.155078125 108.740625 67.15 109.6 65.6966796875 112.3837890625 65.1 113.95 64.3228515625 116.1322265625 64.35 119.5 64.2037109375 119.82734375 64.05 120.15 62.9833984375 122.3984375 62 125.8
L 61.75 125.75
Q 60.1 131.6 59.2 138.05 61.2462890625 139.0568359375 63.4 139.6
L 67.55 140.35 68.85 140.4
Q 70.9861328125 140.519140625 73.2 140.25 76.9 139.8 79.3 138.7 78.302734375 135.3375 78.5 130.45 79.13359375 130.2267578125 79.75 129.95 83.4 128.35 85.8 126.25 81.95 119.65 82.25 113.05 83.3 107 83.05 104.9 82.8 102.8 79.55 98.75 77.1076171875 95.8265625 76.4 94.2 76.8849609375 92.2845703125 78.65 88.35 81 83 81.1 80.25 81.2 76 77.95 72.3 74.913671875 68.8359375 70.6 68.3 68.633203125 67.4 66.6 67.4 61.15 68.1 58.3 68.4 56.5125 68.6234375 54.95 68.55 54.5775390625 67.1166015625 53.5 65.15 52.2 62.55 47.15 51
L 42.4 40 Z"/>
</g>
</defs>

<g transform="matrix( 2, 0, 0, 1.9998779296875, 9.9,2.9) ">
<g transform="matrix( 1, 0, 0, 1, 0.2,0) ">
<g transform="matrix( 1, 0, 0, 1, 0,0) ">
<use filter="url(#Filter_1)" xlink:href="#anims_pony_walk_anim_clean_flats_14_Layer0_0_FILL"/>
</g>
</g>
</g>
</svg>
