
<svg xmlns="http://www.w3.org/2000/svg" version="1.1" xmlns:xlink="http://www.w3.org/1999/xlink" preserveAspectRatio="none" x="0px" y="0px" width="330px" height="358px" viewBox="0 0 330 358">
<defs>
<filter id="Filter_1" x="-20%" y="-20%" width="140%" height="140%" color-interpolation-filters="sRGB">
<feColorMatrix in="SourceGraphic" type="matrix" values="0 0 0 0 1 0 0 0 0 0 0 0 0 0 0.4 0 0 0 1 0" result="result1"/>
</filter>

<g id="anims_pony_jump_anim_clean_flats_6_Layer0_0_FILL">
<path fill="#FFFFFF" stroke="none" d="
M 39.8 -24.7
L 37.3 -22.6
Q 34.7 -19.75 34.6 -16.2 34.5642578125 -15.1666015625 34.7 -14.2 32.138671875 -14.027734375 29.9 -13.1 27.6 -12.15 22.15 -7.85 19.5 -5.8 17.2 -1.7 16.05 0.45 14.3 3.7 13.7 4.65 9.3 8.2 5.45 11.3 5.2 12.8 4.75 15.3 4.7 18.7 4.7 22.85 5.5 24.45 6.45 26.15 9.7 28.85 13 31.5 14.9 32.1 17.35 32.9 20.25 32.35 23.9 31.6 25.75 28.95
L 29.8 30.5
Q 33.79609375 31.57421875 36.65 30.9 37.00703125 31.9513671875 37.6 32.9
L 41.7 39.65
Q 37.940234375 42.7095703125 37.1 49.05 36.3267578125 55.5201171875 39 59.85 37.796484375 62.453515625 36.4 63.85 35.85 64.4 33.3 66.75 30.45 69.3 28.6 71.7 22.5 79.3 23.65 86.1 25.05 95 27.8 98.95
L 33.4 98.7
Q 34.9611328125 98.490234375 36.45 98.1 37.8259765625 100.307421875 39.25 101.65
L 44.7 100.25
Q 51.05 97.95 55.55 93.1 51.9 88 47.95 82.3 46.2 79.8 45.85 78.55 45.4 76.9 46.7 76.2 51.2 73.9 52.55 69.9
L 52.75 68.45
Q 58.2455078125 70.2900390625 63.05 70.7 63.2869140625 71.1365234375 63.55 71.55 64.9 73.75 66.4 75
L 65.9 77.25
Q 65.4 79.75 65.45 81.25 65.5 82.55 64.9 86.05 63.9 91.25 63.65 92.85 63.2 96 63.75 101.95 64.1 104.95 64.55 107.25 69.6904296875 108.592578125 74.8 108 75.0166015625 109.3330078125 75.25 110.5 82.1 111.95 88.65 109.55 91.95 108.35 93.85 106.85 87.75 98.3 89.25 83.7 89.45 81.55 87.15 76.15 84.9 70.8 85.05 69.2 85.2 67.65 87.65 62.9 90 58.2 90.25 55.6 90.65 51.6 87.9 47.7 84.85 43.4 79.9 42.55
L 79.85 42.65
Q 79.223828125 42.501953125 78.6 42.45 73.05 42.7 70.15 42.75 67.9607421875 42.8326171875 66.1 42.55 63.8439453125 38.9908203125 58.3 29.55
L 51.75 18.35
Q 50.9212890625 17.5212890625 49.7 17.05 49.8212890625 16.6240234375 49.9 16.2 51.85 5.9 51.35 -0.15 50.8171875 -6.8255859375 47.65 -10.25 47.73125 -12.2501953125 46.85 -13.8 46.3 -14.8 42 -19.35 39.05 -22.35 39.8 -24.7 Z"/>
</g>
</defs>

<g transform="matrix( 2, 0, 0, 1.9998779296875, 55.6,72.4) ">
<g transform="matrix( 1, 0, 0, 1, 0.05,-3) ">
<g transform="matrix( 1, 0, 0, 1, 0,0) ">
<use filter="url(#Filter_1)" xlink:href="#anims_pony_jump_anim_clean_flats_6_Layer0_0_FILL"/>
</g>
</g>
</g>
</svg>
