
<svg xmlns="http://www.w3.org/2000/svg" version="1.1" xmlns:xlink="http://www.w3.org/1999/xlink" preserveAspectRatio="none" x="0px" y="0px" width="330px" height="358px" viewBox="0 0 330 358">
<defs>
<filter id="Filter_1" x="-20%" y="-20%" width="140%" height="140%" color-interpolation-filters="sRGB">
<feColorMatrix in="SourceGraphic" type="matrix" values="0 0 0 0 1 0 0 0 0 0 0 0 0 0 0.4 0 0 0 1 0" result="result1"/>
</filter>

<g id="anims_pony_jump_anim_clean_flats_28_Layer0_0_FILL">
<path fill="#FFFFFF" stroke="none" d="
M 24.05 9.4
Q 23.5625 7.38203125 22.25 6.1 21.4 5.3 16.05 2.2 12.35 0.15 12.35 -2.35
L 10.55 0.45
Q 8.95 3.95 9.85 7.45 10.121484375 8.4697265625 10.5 9.35 8.130078125 10.293359375 6.25 11.85 4.35 13.4 0.4 19.2 -1.55 22.05 -2.5 26.65 -3 29.1 -3.7 32.75 -4.05 33.85 -7.2 38.6 -9.95 42.75 -9.8 44.3 -9.5 46.85 -8.55 50.15 -7.35 54.2 -6.1 55.45 -4.65 56.85 -0.8 58.5 3.1 60.05 5.15 60.1 7.7 60.15 10.35 58.75 13.6 56.95 14.6 53.8
L 18.9 54.15
Q 20.4021484375 54.0875 21.7 53.85
L 27.45 60.7
Q 27.737890625 61.037109375 28 61.35 25.9736328125 65.0814453125 25.6 70.8 25 80.35 29.2 85.3 29.270703125 85.3833984375 29.35 85.45 29.2095703125 88.015625 28.65 89.85 27.95 92.25 21.2 108.4 15 125 15.85 131.9
L 21.05 133.4
Q 23.8697265625 133.8736328125 26.7 133.75 26.72734375 136.6873046875 27.2 138.75
L 32.55 140.1
Q 39.2 140.9 45.65 138.25 44.35 120.4 44.95 110.25 45.35 103.9 46.55 95.35
L 46.95 92.7
Q 49.1462890625 92.9267578125 51.2 92.85 54.8892578125 92.7056640625 57.95 91.6 58.0412109375 91.713671875 58.1 91.8 59.7 94.15 61.4 95.25
L 61 98.2
Q 60.65 101.45 60.75 103.25 60.9 105.15 59.6 108.15 58.9 109.75 55.85 115.6 53.85 119.45 52 126.95 51.05 130.7 50.5 133.65 56.7 136.75 64.15 135.75 67.85 135.3 70.35 134.25 69.5447265625 131.082421875 70.05 126.55 71.2564453125 130.116796875 72.25 132.75 79.55 132.65 85.6 128.25 88.6 126.05 90.15 123.9 85.2 119.1 85 110.45 85.7 101.65 85.45 99.2 85.2 96.5 81.65 91.75 77.85 86.55 77.4 84.95 76.85 83 78.2 78.35 79.65 73.35 79.2 70.45 78.5 65.75 74.6 61.85 70.35 57.55 65.15 57.55 64.8001953125 57.534765625 64.45 57.55 59.25 58.55 56.55 59 54.62578125 59.3810546875 52.95 59.35 52.154296875 58.17578125 50.8 56.8 48.7 54.45 40.05 44
L 34.05 36.75
Q 34.090234375 35.5513671875 33.95 34.3 32.8 23.75 30.55 18.05 28.10078125 11.7384765625 24.05 9.4 Z"/>
</g>
</defs>

<g transform="matrix( 2, 0, 0, 1.9998779296875, 55.6,72.4) ">
<g transform="matrix( 1, 0, 0, 1, 0.05,-3) ">
<g transform="matrix( 1, 0, 0, 1, 0,0) ">
<use filter="url(#Filter_1)" xlink:href="#anims_pony_jump_anim_clean_flats_28_Layer0_0_FILL"/>
</g>
</g>
</g>
</svg>
