
<svg xmlns="http://www.w3.org/2000/svg" version="1.1" xmlns:xlink="http://www.w3.org/1999/xlink" preserveAspectRatio="none" x="0px" y="0px" width="268px" height="285px" viewBox="0 0 268 285">
<defs>
<filter id="Filter_1" x="-20%" y="-20%" width="140%" height="140%" color-interpolation-filters="sRGB">
<feColorMatrix in="SourceGraphic" type="matrix" values="0 0 0 0 1 0 0 0 0 0 0 0 0 0 0.4 0 0 0 1 0" result="result1"/>
</filter>

<g id="anims_pony_walk_anim_clean_flats_2_Layer0_0_FILL">
<path fill="#FFFFFF" stroke="none" d="
M 43.7 39.15
Q 43.7724609375 37.7123046875 43.6 36.2 42.45 25.8 40.15 20.15 37.6998046875 13.9302734375 33.65 11.6 33.1587890625 9.6478515625 31.85 8.4 31 7.6 25.65 4.55 21.95 2.5 21.95 0.05
L 20.15 2.8
Q 18.55 6.25 19.45 9.7 19.7220703125 10.7099609375 20.1 11.6 17.730859375 12.512890625 15.85 14.05 13.95 15.6 10.05 21.3 8.1 24.1 7.15 28.65 6.65 31.05 5.95 34.65 5.6 35.75 2.45 40.45 -0.3 44.55 -0.15 46.05 0.15 48.55 1.1 51.85 2.3 55.8 3.55 57.05 5 58.45 8.85 60.05 12.75 61.6 14.8 61.65 17.35 61.7 20 60.3 23.25 58.55 24.25 55.45
L 28.35 55.7 30.15 60.75
Q 31.298828125 63.9177734375 32.1 66.1 26.34140625 69.49765625 25.6 77.85 24.9 85.9 29.3 90.1 29.45625 90.2513671875 29.6 90.4 29.0560546875 93.7732421875 27.7 95.95 24.35 101.35 23.45 103.35 21.4 107.6 20.95 112.5 20.25 120.3 21.05 126.25 23.1 127.15 26.3 127.5 29.1390625 127.7642578125 31.9 127.35 31.528515625 129.93359375 31.3 132.1 31.2283203125 132.5857421875 31.15 133.1 30.8748046875 135.362109375 30.95 137 30.9580078125 137.9732421875 31 138.8
L 36.4 140.05
Q 43.1 140.8 49.5 138.35 49.7 125.15 49.65 115.6 49.65 110.3 49 103 48.61171875 98.8322265625 48.4 96.35 50.3134765625 96.4650390625 52.1 96.4 55.2283203125 96.299609375 57.9 95.65 58.016796875 95.789453125 58.1 95.9 59.65 98 61.35 99
L 61.35 101.65
Q 61.3 104.65 61.45 106.35 61.65 108.55 61.05 110.85 60.25 113.65 58.05 117.65 56.15 121.25 54.35 128.05 53.5 131.5 53 134.2 59.25 137 66.65 136.2 70.35 135.8 72.85 134.75 72.581640625 133.8638671875 72.4 132.85 75.3537109375 132.3208984375 78.15 131.15
L 81.25 129.65
Q 81.7140625 129.404296875 82.15 129.15 85.4 127.3 87.25 125.4 85.9 124.15 84.85 122.45 84.6234375 122.3923828125 84.4 122.3 82.6701171875 118.8169921875 83.2 113.85 85 106.2 85.05 104.05 85.1 101.65 82.15 97.45 78.95 92.9 78.7 91.5 78.4 89.9 80.3 85.8 82.35 81.45 82.25 78.9 82.1 74.8 78.7 71.35 75.3916015625 67.9974609375 70.95 67.6 68.4771484375 66.2953125 66 66.4 60.55 67.3 57.7 67.7 55.7537109375 68.00234375 54.05 67.95 53.7484375 66.9421875 53.2 65.7 52.1 63 48.05 51.1
L 44.2 39.75
Q 43.990234375 39.4408203125 43.7 39.15
M 71.3 96.25
L 71.3 96.4
Q 71.28125 96.316796875 71.25 96.2 71.270703125 96.241796875 71.3 96.25 Z"/>
</g>
</defs>

<g transform="matrix( 2, 0, 0, 1.9998779296875, 9.9,2.9) ">
<g transform="matrix( 1, 0, 0, 1, 0.2,0) ">
<g transform="matrix( 1, 0, 0, 1, 0,0) ">
<use filter="url(#Filter_1)" xlink:href="#anims_pony_walk_anim_clean_flats_2_Layer0_0_FILL"/>
</g>
</g>
</g>
</svg>
