
<svg xmlns="http://www.w3.org/2000/svg" version="1.1" xmlns:xlink="http://www.w3.org/1999/xlink" preserveAspectRatio="none" x="0px" y="0px" width="330px" height="358px" viewBox="50 364 330 358">
<defs>
<filter id="Filter_1" x="-20%" y="-20%" width="140%" height="140%" color-interpolation-filters="sRGB">
<feColorMatrix in="SourceGraphic" type="matrix" values="0 0 0 0 0.4 0 0 0 0 0.8 0 0 0 0 0.4 0 0 0 1 0" result="result1"/>
</filter>

<g id="Symbol_353_0_Layer0_0_FILL">
<path fill="#FFFFFF" stroke="none" d="
M 56.45 88.85
Q 55.1 89.75 55.95 91.75
L 57.1 94.95
Q 58.25 98.55 57.75 100.85 57.4 102.75 52.85 115.8 48.9 129.05 51.05 134.1
L 57.05 134.65
Q 64.55 134.6 71.65 132.2 69.4 119.35 69.7 111.95 69.95 107.4 70.9 101.05
L 71.85 95.6
Q 72.15 93.85 71.3 91.95 69.65 88.25 64.2 88 58.25 87.7 56.45 88.85 Z"/>
</g>

<g id="Symbol_353_0_Layer0_1_FILL">
<path fill="#FFFFFF" stroke="none" d="
M 31.65 94.95
L 31.6 98.15
Q 31.4 101.75 30.3 103.9
L 21.25 117.2
Q 13.65 129.1 13.85 134.2
L 18.9 135.55
Q 25.35 136.65 32.25 135.35 34.45 122.95 37.05 116.05 38.75 111.7 41.6 105.85
L 44.1 100.95
Q 44.95 99.3 44.8 97.4 44.6 93.65 39.95 92.65
L 32.95 92.35
Q 31.55 93 31.65 94.95 Z"/>
</g>

<g id="Symbol_353_0_Layer0_2_FILL">
<path fill="#FFFFFF" stroke="none" d="
M 18.5 83.7
L 39.85 91.65
Q 42.45 92.4 46.65 90.95 52 89.1 54.1 84.4 56.25 79.3 54.55 77 53.45 75.3 48.95 73.85
L 20.25 62.75
Q 18.4 62.5 16.4 63.6 12.4 65.75 12.05 72.35 11.7 77.75 14.55 80.95 16.1 82.85 18.5 83.7 Z"/>
</g>

<g id="Symbol_353_0_Layer0_3_FILL">
<path fill="#FFFFFF" stroke="none" d="
M 29.8 78.6
Q 24.9 83.25 26.25 91.6 27.55 99.6 32.8 102.65 36.7 104.8 44.45 104.75 51.15 104.75 56.5 103.2 65.5 100.6 69.7 94.35 71.8 91.3 73.25 86 74.5 81.6 74.65 77.95 74.9 73.5 70.15 71.45 66 69.65 62.6 70.65
L 54.95 73.95
Q 50.15 76 46.45 75.3
L 39 74.45
Q 33.9 74.6 29.8 78.6 Z"/>
</g>

<g id="Symbol_353_0_Layer0_4_FILL">
<path fill="#FFFFFF" stroke="none" d="
M 77 76.15
Q 73.4 71.4 68.2 70.75
L 60.1 88.6
Q 60.2 95.25 64.7 100 66.9 102.35 69.1 103.5
L 69.65 111.6
Q 69.8 113 66.3 116.35 62.4 120.05 61.65 123.3 60.65 127.65 61.35 132.95 61.75 135.55 62.25 137.35 69.3 139.4 75.45 137.8 78.5 137 80.2 135.8 78.25 130.4 80.2 123.35
L 81.8 118.2
Q 82.65 115.4 82.7 114.05 82.75 111.35 79.85 106.15 76.85 100.6 76.6 99 76.35 97.1 78.35 92.75 80.45 88.05 80.4 85.15 80.35 80.4 77 76.15 Z"/>
</g>

<g id="Symbol_353_0_Layer0_5_FILL">
<path fill="#FFFFFF" stroke="none" d="
M 36.5 94.65
L 37.1 98.15
Q 37.6 102.1 36.85 104.55
L 30.35 120.1
Q 25 133.9 26.2 139.55
L 31.45 140.6
Q 38.05 141.2 44.65 139.2 44.55 125.3 45.85 117.4 46.7 112.5 48.45 105.8
L 50.05 100.1
Q 50.55 98.2 50.1 96.15 49.15 92.05 44.35 91.3
L 37.35 91.65
Q 36.05 92.45 36.5 94.65 Z"/>
</g>

<g id="Symbol_353_0_Layer0_6_FILL">
<path fill="#FFFFFF" stroke="none" d="
M 9.1 48.05
Q 9.3 46.45 8.95 44.45 8.25 40.55 5.75 38.85 4.8 38.2 -1.05 36.15 -5.05 34.8 -5.45 32.4 -6.25 33.55 -6.75 35.4 -7.75 39.05 -6.25 42.3 -2.6 50.1 9.1 48.05 Z"/>
</g>

<g id="Symbol_353_0_Layer0_7_FILL">
<path fill="#FFFFFF" stroke="none" d="
M 15.95 49
Q 10.4 39.95 2.6 41.3 -6 42.85 -10 48.45 -11.45 50.3 -12.55 53.25 -13.5 55.2 -13.7 56.6 -14.5 60.35 -14.4 66.8
L -14.1 72.45 -16.5 75.3
Q -18.8 78.9 -18.1 82.8 -17.45 86.5 -14.5 88.7 -12.4 90.25 -9.45 90.8 -6.4 91.25 0.6 89.5 7.05 87.9 10.4 86.1 13.9 84.2 15.4 82.25 18.05 78.85 17.2 73.55 20.75 72.8 21.85 71.35 23.55 69.15 22.1 64.25 19.15 54.2 15.95 49 Z"/>
</g>
</defs>

<g transform="matrix( 2, 0, 0, 1.9998779296875, 100.1,433.95) ">
<g transform="matrix( 1, 0, 0, 1, 0,0) ">
<use filter="url(#Filter_1)" xlink:href="#Symbol_353_0_Layer0_0_FILL"/>
</g>

<g transform="matrix( 1, 0, 0, 1, 0,0) ">
<use filter="url(#Filter_1)" xlink:href="#Symbol_353_0_Layer0_1_FILL"/>
</g>

<g transform="matrix( 1, 0, 0, 1, 0,0) ">
<use filter="url(#Filter_1)" xlink:href="#Symbol_353_0_Layer0_2_FILL"/>
</g>

<g transform="matrix( 1, 0, 0, 1, 0,0) ">
<use filter="url(#Filter_1)" xlink:href="#Symbol_353_0_Layer0_3_FILL"/>
</g>

<g transform="matrix( 1, 0, 0, 1, 0,0) ">
<use filter="url(#Filter_1)" xlink:href="#Symbol_353_0_Layer0_4_FILL"/>
</g>

<g transform="matrix( 1, 0, 0, 1, 0,0) ">
<use filter="url(#Filter_1)" xlink:href="#Symbol_353_0_Layer0_5_FILL"/>
</g>

<g transform="matrix( 1, 0, 0, 1, 0,0) ">
<use filter="url(#Filter_1)" xlink:href="#Symbol_353_0_Layer0_6_FILL"/>
</g>

<g transform="matrix( 1, 0, 0, 1, 0,0) ">
<use filter="url(#Filter_1)" xlink:href="#Symbol_353_0_Layer0_7_FILL"/>
</g>
</g>
</svg>
