
<svg xmlns="http://www.w3.org/2000/svg" version="1.1" xmlns:xlink="http://www.w3.org/1999/xlink" preserveAspectRatio="none" x="0px" y="0px" width="330px" height="358px" viewBox="50 364 330 358">
<defs>
<filter id="Filter_1" x="-20%" y="-20%" width="140%" height="140%" color-interpolation-filters="sRGB">
<feColorMatrix in="SourceGraphic" type="matrix" values="0 0 0 0 0.4 0 0 0 0 0.8 0 0 0 0 0.4 0 0 0 1 0" result="result1"/>
</filter>

<g id="Symbol_99_0_Layer0_0_FILL">
<path fill="#FFFFFF" stroke="none" d="
M 81 91.25
Q 84.9 87.25 86 84.95 87.65 81.4 86 77.75 84.2 73.6 79.45 72.45
L 65.2 85.1
Q 62.9 90.1 64.4 94.8 65.15 97.1 66.3 98.45
L 65.05 100.85
Q 63.65 103.55 63.2 105.15
L 61 110.3 57.5 117.45
Q 55.95 120.9 54.65 127.25
L 53.65 132.9
Q 60.2 134.7 67.7 133.15 71.35 132.3 73.8 131.15 70.3 123.15 76.2 110.05 77.1 108.1 76.55 103.1 75.85 98.1 76.55 96.65 77.2 95.3 81 91.25 Z"/>
</g>

<g id="Symbol_99_0_Layer0_1_FILL">
<path fill="#FFFFFF" stroke="none" d="
M 39 81.95
L 35.85 84.85
Q 33.2 87.4 31.25 89.85 25.25 97.4 26.4 104.25 28 113.1 30.75 117
L 36.3 116.75
Q 42.95 115.7 48.4 111.85 46 106.05 43 99.8 41.75 97.15 41.65 96.2 41.45 94.2 43.85 93.3 48.3 91.65 50.55 87.15
L 51.9 82.95 43.75 71.3 42.55 75.45
Q 40.95 80 39 81.95 Z"/>
</g>

<g id="Symbol_99_0_Layer0_2_FILL">
<path fill="#FFFFFF" stroke="none" d="
M 62 47.8
L 56.2 37.25
Q 55 36.1 52.9 35.8 48.7 35.25 44.1 40.1 40.4 44 40.3 48 40.2 50.35 41.4 52.25
L 51.55 69.9
Q 52.95 71.85 56.8 73.1 61.85 74.55 66.45 72.05 71.25 69.4 71.6 66.7 71.85 64.75 69.55 61.25 68 58.8 62 47.8 Z"/>
</g>

<g id="Symbol_99_0_Layer0_3_FILL">
<path fill="#FFFFFF" stroke="none" d="
M 89.5 69.3
Q 86.7 65.85 83.2 65.15
L 74.9 64.55
Q 69.65 64.2 66.65 61.95 61.65 58.3 60.45 57.75 55.8 55.55 50.35 57.2 43.85 59.15 41.25 67.2 38.8 74.9 42.1 79.95 44.5 83.7 51.45 87.2 57.45 90.25 62.9 91.3 72.1 93.1 78.7 89.5 81.95 87.65 85.65 83.65 88.75 80.35 90.55 77.1 92.8 73.25 89.5 69.3 Z"/>
</g>

<g id="Symbol_99_0_Layer0_4_FILL">
<path fill="#FFFFFF" stroke="none" d="
M 92.05 71.6
Q 89.35 66.8 84.25 65.45
L 72.9 80.2
Q 71.75 86.05 74.3 91.45 75.55 94.2 77.05 95.75
L 76.3 98.55
Q 75.55 101.7 75.45 103.55 75.4 105.2 74.4 109.55
L 72.55 117.9
Q 71.75 121.95 71.95 129.35
L 72.25 135.95
Q 79.15 138.1 86.3 136.2 89.8 135.3 91.95 133.9 86.6 124.55 89.6 109.3 90 107.05 88.3 101.15 86.5 95.35 86.85 93.65 87.2 92.05 90.1 87.45 93.1 82.7 93.65 80 94.5 75.9 92.05 71.6 Z"/>
</g>

<g id="Symbol_99_0_Layer0_5_FILL">
<path fill="#FFFFFF" stroke="none" d="
M 40.1 88.25
Q 37.45 90.8 35.5 93.25 29.5 100.8 30.65 107.65 32.25 116.5 35 120.4
L 40.55 120.15
Q 47.2 119.1 52.65 115.25 50.25 109.45 47.25 103.2 46 100.55 45.9 99.6 45.7 97.6 48.1 96.7 52.55 95.05 54.8 90.55
L 56.15 86.35 48 74.7 46.8 78.85
Q 45.2 83.4 43.25 85.35
L 40.1 88.25 Z"/>
</g>

<g id="Symbol_99_0_Layer0_6_FILL">
<path fill="#FFFFFF" stroke="none" d="
M 42.75 -4.2
L 40.3 -1.95
Q 37.85 0.9 37.85 4.5 37.85 13.15 49.3 16.2 50.15 14.75 50.7 12.85 51.7 8.95 50.15 6.45 49.55 5.45 45.15 1.1 42.1 -1.8 42.75 -4.2 Z"/>
</g>

<g id="Symbol_99_0_Layer0_7_FILL">
<path fill="#FFFFFF" stroke="none" d="
M 54.25 36.35
Q 55.85 26 55.15 19.95 53.9 9.4 46.3 7.35 37.85 5.1 31.8 8.45 29.75 9.5 27.45 11.7 25.8 13.1 25 14.3 22.7 17.3 20.1 23.2 18.75 26.15 17.95 28.55
L 14.6 30.05
Q 10.95 32.35 9.9 36.2 8.95 39.85 10.75 43.05 12 45.35 14.45 47.05 17 48.8 24.05 50.15 30.65 51.45 34.45 51.2 38.4 50.95 40.55 49.85 44.4 47.9 45.9 42.7 49.35 43.55 51.05 42.65 53.5 41.4 54.25 36.35 Z"/>
</g>
</defs>

<g transform="matrix( 2, 0, 0, 1.9998779296875, 100.1,433.95) ">
<g transform="matrix( 1, 0, 0, 1, 0,0) ">
<use filter="url(#Filter_1)" xlink:href="#Symbol_99_0_Layer0_0_FILL"/>
</g>

<g transform="matrix( 1, 0, 0, 1, 0,0) ">
<use filter="url(#Filter_1)" xlink:href="#Symbol_99_0_Layer0_1_FILL"/>
</g>

<g transform="matrix( 1, 0, 0, 1, 0,0) ">
<use filter="url(#Filter_1)" xlink:href="#Symbol_99_0_Layer0_2_FILL"/>
</g>

<g transform="matrix( 1, 0, 0, 1, 0,0) ">
<use filter="url(#Filter_1)" xlink:href="#Symbol_99_0_Layer0_3_FILL"/>
</g>

<g transform="matrix( 1, 0, 0, 1, 0,0) ">
<use filter="url(#Filter_1)" xlink:href="#Symbol_99_0_Layer0_4_FILL"/>
</g>

<g transform="matrix( 1, 0, 0, 1, 0,0) ">
<use filter="url(#Filter_1)" xlink:href="#Symbol_99_0_Layer0_5_FILL"/>
</g>

<g transform="matrix( 1, 0, 0, 1, 0,0) ">
<use filter="url(#Filter_1)" xlink:href="#Symbol_99_0_Layer0_6_FILL"/>
</g>

<g transform="matrix( 1, 0, 0, 1, 0,0) ">
<use filter="url(#Filter_1)" xlink:href="#Symbol_99_0_Layer0_7_FILL"/>
</g>
</g>
</svg>
