<?xml version="1.0" encoding="UTF-8" standalone="no"?>
<svg
   version="1.1"
   preserveAspectRatio="none"
   x="0px"
   y="0px"
   width="264"
   height="283"
   viewBox="0 0 264 283"
   id="svg3102"
   sodipodi:docname="pony_female_walk_bg_0023.svg"
   xmlns:inkscape="http://www.inkscape.org/namespaces/inkscape"
   xmlns:sodipodi="http://sodipodi.sourceforge.net/DTD/sodipodi-0.dtd"
   xmlns="http://www.w3.org/2000/svg"
   xmlns:svg="http://www.w3.org/2000/svg">
  <sodipodi:namedview
     id="namedview3104"
     pagecolor="#ffffff"
     bordercolor="#000000"
     borderopacity="0.25"
     inkscape:showpageshadow="2"
     inkscape:pageopacity="0.0"
     inkscape:pagecheckerboard="0"
     inkscape:deskcolor="#d1d1d1"
     showgrid="false" />
  <defs
     id="defs3048">
    <filter
       id="Filter_1"
       x="0"
       y="0"
       width="1"
       height="1"
       color-interpolation-filters="sRGB">
      <feColorMatrix
         in="SourceGraphic"
         type="matrix"
         values="0 0 0 0 0 0 0 0 0 0.8 0 0 0 0 0.4 0 0 0 1 0"
         result="result1"
         id="feColorMatrix3015" />
    </filter>
  </defs>
  <path
     fill="#FFFFFF"
     id="path3106"
     d="m -4.6439309,-37.322003 c -0.6661646,0.700457 -1.2657841,1.617153 -1.7983133,2.750843 -1.0650351,2.300712 -1.2970989,4.601153 -0.6954942,6.900695 0.1838941,0.68055 0.4164386,1.319 0.6959674,1.916249 -2.1093794,0.80687 -3.942256,1.966227 -5.491796,3.486596 -1.13259,1.034112 -2.247698,2.451885 -3.346417,4.252628 -0.832478,1.200565 -1.398431,2.251078 -1.697795,3.151274 -0.965013,2.333974 -1.779407,5.6344959 -2.443068,9.9015617 -0.331854,2.1002 -0.564099,3.98388525 -0.696261,5.65061861 l -2.848051,2.35122799 c -1.931828,2.1013232 -2.897603,4.4856706 -2.895731,7.1522947 0.0018,2.499959 0.853377,4.632835 2.55459,6.39828 1.234202,1.26578 2.768281,2.231088 4.602053,2.896457 l 10.1004945,0.542744 c 4.4663606,-0.336463 7.8987384,-0.905688 10.2981381,-1.70736 0.058789,-0.01964 0.1128385,-0.03976 0.1709085,-0.05954 L 5.690673,28.804862 c -3.8483985,2.236354 -6.03562766,6.12825 -6.55469519,11.68223 -0.46573691,5.383184 0.74597176,9.480363 3.63465569,12.291399 0.568177,0.55106 1.2419721,1.072301 2.0143858,1.564887 -0.07262,0.546785 -0.1865914,1.065257 -0.344011,1.554724 -2.100479,2.866312 -3.91779775,5.566116 -5.4515547,8.099189 -2.934164,4.966169 -3.9184778,9.632558 -2.9525451,13.999382 0.824403,3.552219 1.8541136,6.52957 3.08834461,8.931728 -0.14425981,0.587949 -0.27869161,1.162283 -0.40458601,1.722694 l -0.035156,-0.0039 c -1.2342664,5.566454 -1.5857561,9.783256 -1.0529045,12.650005 1.3332312,0.60022 3.10061268,1.01727 5.3005713,1.25097 0.836036,0.0888 1.6724876,0.1403 2.5097394,0.1557 2.7363615,0.0538 5.4856957,-0.28985 8.2482197,-1.02993 0.55341,-0.14808 1.10728,-0.31208 1.661216,-0.49194 0.276838,-0.0899 0.554002,-0.18325 0.831102,-0.28112 -0.139037,-5.68717 -0.132247,-10.709661 0.01328,-15.101505 0.641943,-0.418557 1.271806,-0.866646 1.888898,-1.348398 l -1.651744,-3.571785 c 0.131438,-1.975561 0.298606,-3.789317 0.503841,-5.428958 0.636359,-5.083944 1.64507,-10.586286 3.014487,-16.494641 1.954539,0.230171 3.831749,0.320621 5.627885,0.264633 2.494664,-0.07776 4.788485,-0.410347 6.887861,-0.989139 0.998475,1.019197 2.02232,1.743738 3.071901,2.174477 l -0.401607,7.245492 c -1.6e-4,0.953702 -0.86676,2.875913 -2.600577,5.767493 -2.067248,3.476051 -3.451432,6.198955 -4.151762,8.167771 -1.400659,3.937631 -2.667941,8.751368 -3.802228,14.442626 4.099815,1.077448 8.599782,1.325273 13.499875,0.741569 l 3.687622,-0.725012 0.01165,0.412137 c -0.03301,1.021913 -0.04917,2.053693 -0.04935,3.09686 0.0475,0.02199 0.09504,0.04281 0.142568,0.06448 l 0.0068,0.235367 c 4.250105,1.967333 8.636659,2.558063 13.158881,1.778683 0.180204,-0.0237 0.360393,-0.0483 0.541029,-0.0761 2.366725,-0.36626 4.283491,-0.93291 5.750285,-1.699328 -0.03774,-0.08091 -0.07324,-0.164867 -0.108356,-0.25101 0.08598,-0.04958 0.175723,-0.09743 0.258814,-0.148403 -0.409462,-0.947819 -0.750926,-1.976878 -1.026827,-3.083368 l -0.02244,-0.117199 c -0.0036,-0.003 -0.0071,-0.0058 -0.01074,-0.0088 -0.842562,-3.462093 -1.038424,-7.6928 -0.587713,-12.691303 0.967757,-6.499831 1.368624,-10.499528 1.202209,-11.999554 -0.166409,-1.53336 -1.383052,-4.016576 -3.64914,-7.450286 -2.299432,-3.367049 -3.498664,-5.634142 -3.598468,-6.800824 -0.133148,-1.100021 0.300385,-3.450188 1.300988,-7.050016 0.96727,-3.599834 1.367925,-6.332825 1.201572,-8.199518 C 55.993425,39.22394 54.577203,36.556542 52.044292,34.05612 49.509758,31.551281 46.680248,30.198311 43.55767,29.988041 42.239619,29.436816 40.921132,29.180547 39.600767,29.221705 l -8.263883,1.258455 c -1.343725,0.210673 -2.596685,0.301271 -3.760788,0.2738 -0.201316,-0.737251 -0.490023,-1.552524 -0.876541,-2.454399 L 17.699996,2.3501846 C 17.523034,2.0893983 17.314215,1.8501071 17.08,1.6283568 c 0.04645,-0.83772284 0.01382,-1.77599298 -0.09914,-2.8165948 -0.771521,-6.9326832 -1.90875,-12.281898 -3.411369,-16.04745 -1.636735,-4.146251 -3.7989194,-6.987729 -6.4868505,-8.527 -0.3423995,-1.312484 -0.9481062,-2.385436 -1.8207492,-3.216323 -0.5670319,-0.532927 -2.6344432,-1.815205 -6.20247948,-3.846002 -2.46758612,-1.364913 -3.70220032,-2.863683 -3.70334672,-4.49699 z"
     style="filter:url(#Filter_1)"
     transform="matrix(2,-3.3569336e-4,3.3569336e-4,1.9998779,60.4,76.3)" />
</svg>
