
<svg xmlns="http://www.w3.org/2000/svg" version="1.1" xmlns:xlink="http://www.w3.org/1999/xlink" preserveAspectRatio="none" x="0px" y="0px" width="330px" height="358px" viewBox="50 364 330 358">
<defs>
<filter id="Filter_1" x="-20%" y="-20%" width="140%" height="140%" color-interpolation-filters="sRGB">
<feColorMatrix in="SourceGraphic" type="matrix" values="0 0 0 0 0.4 0 0 0 0 0.8 0 0 0 0 0.4 0 0 0 1 0" result="result1"/>
</filter>

<g id="Symbol_295_0_Layer0_0_FILL">
<path fill="#FFFFFF" stroke="none" d="
M 85.2 55.8
Q 86.7 51.8 85 46.95 83.15 41.6 78.55 39.15
L 65.1 51.65
Q 63 57.35 65.6 63.05 66.9 65.85 68.65 67.6
L 66.35 74.65
Q 66.1 75.75 61.15 78.75 56 81.8 54.6 85.2 53.05 88.95 51.85 95.65
L 50.95 101.6
Q 57.45 104.9 64.8 104.3 68.5 104 70.8 102.95 68.55 96.9 72.3 90 76.9 83.45 77.8 81.35 78.8 79.1 77.8 73.7 76.7 67.85 77 66.4 77.4 64.65 80.75 61.6 84.25 58.4 85.2 55.8 Z"/>
</g>

<g id="Symbol_295_0_Layer0_1_FILL">
<path fill="#FFFFFF" stroke="none" d="
M 35.35 58
L 25.6 63.3
Q 17.45 69 15.25 77.35 12.5 88.1 12.9 93.8
L 17.5 96.2
Q 23.25 98.1 29.35 96.35
L 30.5 80.15
Q 30.7 76.55 31 75.4 31.75 73.05 34.1 73.2 38.35 73.4 42.2 69.35
L 45.2 65.25 43.95 48.2 41.15 52.35
Q 37.8 56.75 35.35 58 Z"/>
</g>

<g id="Symbol_295_0_Layer0_2_FILL">
<path fill="#FFFFFF" stroke="none" d="
M 62.3 44.15
Q 62.35 42.25 59.65 39 57.8 36.75 50.6 26.5
L 43.65 16.75
Q 42.35 15.65 40.2 15.65 35.95 15.6 32 20.9 28.7 25.25 29.1 29.15 29.3 31.5 30.65 33.3
L 42.75 49.6
Q 44.35 51.45 48.35 52.2 53.55 53.1 57.8 50.1 62.25 46.9 62.3 44.15 Z"/>
</g>

<g id="Symbol_295_0_Layer0_3_FILL">
<path fill="#FFFFFF" stroke="none" d="
M 55.55 38.8
Q 49.65 36.9 48.3 36.8 43.2 36.25 38.6 39.55 33.05 43.45 33.15 51.95 33.3 60.05 38.1 63.75 41.55 66.55 49.25 67.6 55.9 68.55 61.4 67.8 70.65 66.55 75.75 61 78.25 58.2 80.45 53.25 82.3 49.1 83.05 45.5 83.9 41.15 79.55 38.4 75.75 36.05 72.2 36.55
L 64.15 38.65
Q 59.05 39.95 55.55 38.8 Z"/>
</g>

<g id="Symbol_295_0_Layer0_4_FILL">
<path fill="#FFFFFF" stroke="none" d="
M 84.3 57.15
Q 86.95 53.35 87.25 50.8 87.6 46.75 84.75 42.75 81.65 38.3 76.5 37.25
L 66.7 51.75
Q 66.05 57.45 70 62 72 64.25 74.1 65.4
L 73.7 72.4
Q 73.7 73.45 69.65 77.35 65.45 81.3 65 84.8 64.4 88.6 64.9 95
L 65.55 100.6
Q 72.7 102.1 79.65 99.75 83.15 98.6 85.15 97.15 81.45 92.15 83.3 85 86.1 77.9 86.45 75.8 86.8 73.55 84.5 68.85 82 63.8 81.9 62.4 81.85 60.7 84.3 57.15 Z"/>
</g>

<g id="Symbol_295_0_Layer0_5_FILL">
<path fill="#FFFFFF" stroke="none" d="
M 39.1 55.25
L 39.35 59.85
Q 39.4 64.95 38.2 67.65 37.6 69.15 31.7 75.6 25.9 82.95 25.1 90.05 24.1 99.65 25.6 104.45
L 31.05 105.75
Q 37.75 106.55 44.05 104.1
L 42.35 90.2
Q 42.05 87.6 42.65 84.95 43.15 82.65 44.45 79.5 46.85 73.95 49.05 69.55
L 50.85 66.3
Q 51.7 64.15 51.65 61.55 51.55 56.2 47.15 53.7 42.35 50.95 40.45 51.75 39.1 52.4 39.1 55.25 Z"/>
</g>

<g id="Symbol_295_0_Layer0_6_FILL">
<path fill="#FFFFFF" stroke="none" d="
M 30.9 -2.05
Q 31.35 -3.65 31.35 -5.65 31.4 -9.65 29.25 -11.75 28.4 -12.55 23.05 -15.6 19.4 -17.7 19.4 -20.15 18.4 -19.1 17.6 -17.4 15.95 -13.95 16.85 -10.5 19.05 -2.15 30.9 -2.05 Z"/>
</g>

<g id="Symbol_295_0_Layer0_7_FILL">
<path fill="#FFFFFF" stroke="none" d="
M 25.75 -9.9
Q 17 -9.95 12 -5.1 10.3 -3.6 8.65 -0.9 7.4 0.9 6.95 2.25 5.45 5.75 4.45 12.15 3.9 15.3 3.7 17.8
L 0.85 20.1
Q -2.1 23.25 -2.1 27.25 -2.1 31 0.4 33.65 2.25 35.6 5 36.6
L 15.1 37.2
Q 21.8 36.75 25.4 35.55 29.15 34.3 30.95 32.7 34.2 29.8 34.3 24.45 37.9 24.35 39.3 23.05 41.35 21.25 40.8 16.15 39.7 5.7 37.5 0.05 33.65 -9.85 25.75 -9.9 Z"/>
</g>
</defs>

<g transform="matrix( 2, 0, 0, 1.9998779296875, 100.1,433.95) ">
<g transform="matrix( 1, 0, 0, 1, 0,0) ">
<use filter="url(#Filter_1)" xlink:href="#Symbol_295_0_Layer0_0_FILL"/>
</g>

<g transform="matrix( 1, 0, 0, 1, 0,0) ">
<use filter="url(#Filter_1)" xlink:href="#Symbol_295_0_Layer0_1_FILL"/>
</g>

<g transform="matrix( 1, 0, 0, 1, 0,0) ">
<use filter="url(#Filter_1)" xlink:href="#Symbol_295_0_Layer0_2_FILL"/>
</g>

<g transform="matrix( 1, 0, 0, 1, 0,0) ">
<use filter="url(#Filter_1)" xlink:href="#Symbol_295_0_Layer0_3_FILL"/>
</g>

<g transform="matrix( 1, 0, 0, 1, 0,0) ">
<use filter="url(#Filter_1)" xlink:href="#Symbol_295_0_Layer0_4_FILL"/>
</g>

<g transform="matrix( 1, 0, 0, 1, 0,0) ">
<use filter="url(#Filter_1)" xlink:href="#Symbol_295_0_Layer0_5_FILL"/>
</g>

<g transform="matrix( 1, 0, 0, 1, 0,0) ">
<use filter="url(#Filter_1)" xlink:href="#Symbol_295_0_Layer0_6_FILL"/>
</g>

<g transform="matrix( 1, 0, 0, 1, 0,0) ">
<use filter="url(#Filter_1)" xlink:href="#Symbol_295_0_Layer0_7_FILL"/>
</g>
</g>
</svg>
