
<svg xmlns="http://www.w3.org/2000/svg" version="1.1" xmlns:xlink="http://www.w3.org/1999/xlink" preserveAspectRatio="none" x="0px" y="0px" width="268px" height="285px" viewBox="0 0 268 285">
<defs>
<filter id="Filter_1" x="-20%" y="-20%" width="140%" height="140%" color-interpolation-filters="sRGB">
<feColorMatrix in="SourceGraphic" type="matrix" values="0 0 0 0 1 0 0 0 0 0 0 0 0 0 0.4 0 0 0 1 0" result="result1"/>
</filter>

<g id="anims_pony_walk_anim_clean_flats_13_Layer0_0_FILL">
<path fill="#FFFFFF" stroke="none" d="
M 41.9 39.6
Q 41.8484375 38.2982421875 41.6 36.95 39.75 26.65 37.1 21.2 34.201953125 15.1517578125 30 13.1 29.3666015625 11.20390625 28 10.05 27.05 9.3 21.55 6.6 17.7 4.9 17.55 2.45
L 15.95 5.3
Q 14.6 8.8 15.7 12.2 16.0470703125 13.1984375 16.5 14.05 14.1810546875 15.1404296875 12.4 16.8 10.65 18.5 7.1 24.45 5.35 27.4 4.75 31.95 4.4 34.4 3.95 38.05 3.7 39.15 0.85 44.1 -1.6 48.4 -1.35 49.8 -0.85 52.3 0.3 55.55 1.8 59.4 3.1 60.55 4.65 61.85 8.6 63.2 12.6 64.45 14.65 64.4 17.2 64.25 19.75 62.65 22.85 60.7 23.65 57.5
L 28 57.5 30.15 62.2
Q 31.2005859375 64.511328125 32 66.3 26.7298828125 69.5615234375 25.75 77.4 24.8 85.45 29 89.8 30.1974609375 91.036328125 32.05 92.1 32.495703125 95.6044921875 32.55 99 31.051953125 100.9833984375 28.25 104.3 24 110.9 24.75 118.6 25.45 126.1 28.75 130.45 28.78515625 130.45234375 28.8 130.45 28.5033203125 132.725390625 28.15 135.25
L 33.5 136.5
Q 40.2 137.25 46.65 134.8 47.5 123.1 47.15 113.55 46.9 107.9 45.8 100.7 45.6763671875 99.9091796875 45.55 99.15 46.2326171875 97.9142578125 46.7 96.6 49.2400390625 96.95 51.6 96.95 57.4001953125 96.95 61.8 95.1 62.290234375 95.9443359375 62.85 96.75 64.45 99.1 66.15 100.25
L 66.75 107.9
Q 66.9388671875 110.1658203125 66.45 112.5 65.9869140625 113.7041015625 65.4 115.15 65.0126953125 116.222265625 64.75 117.6 64.2173828125 118.8150390625 63.55 120.15 62.4828125 122.4 61.45 125.8
L 61.2 125.75
Q 59.5 131.6 58.5 138.05 61.5572265625 139.554296875 64.85 140.05 65.905078125 140.2650390625 66.95 140.35 67.605078125 140.4029296875 68.25 140.4 70.3236328125 140.5146484375 72.5 140.25 76.2 139.8 78.7 138.7 77.993359375 136.3177734375 77.9 133.15 78.3552734375 133.0728515625 78.8 132.95 82.55 131.95 85 130.4 82.4 124.85 82.45 116.25 83 107.85 82.75 105.8 82.5 103.65 79.4 99.5 76.630078125 95.8947265625 76.15 94.25 76.6650390625 92.3291015625 78.45 88.35 80.9 83 81 80.25 81.2 76 77.95 72.3 74.8900390625 68.808984375 70.55 68.3 68.5748046875 67.4 66.55 67.4 61.1 68.1 58.25 68.4 56.5212890625 68.616015625 55 68.55 54.632421875 67.1025390625 53.55 65.1 52.2 62.55 47.15 51
L 42.35 40.05
Q 42.1515625 39.8154296875 41.9 39.6 Z"/>
</g>
</defs>

<g transform="matrix( 2, 0, 0, 1.9998779296875, 9.9,2.9) ">
<g transform="matrix( 1, 0, 0, 1, 0.2,0) ">
<g transform="matrix( 1, 0, 0, 1, 0,0) ">
<use filter="url(#Filter_1)" xlink:href="#anims_pony_walk_anim_clean_flats_13_Layer0_0_FILL"/>
</g>
</g>
</g>
</svg>
