<?xml version="1.0" encoding="UTF-8" standalone="no"?>
<svg
   version="1.1"
   preserveAspectRatio="none"
   x="0px"
   y="0px"
   width="264"
   height="283"
   viewBox="0 0 264 283"
   id="svg2420"
   sodipodi:docname="pony_female_walk_bg_0006.svg"
   xmlns:inkscape="http://www.inkscape.org/namespaces/inkscape"
   xmlns:sodipodi="http://sodipodi.sourceforge.net/DTD/sodipodi-0.dtd"
   xmlns="http://www.w3.org/2000/svg"
   xmlns:svg="http://www.w3.org/2000/svg">
  <sodipodi:namedview
     id="namedview2422"
     pagecolor="#ffffff"
     bordercolor="#000000"
     borderopacity="0.25"
     inkscape:showpageshadow="2"
     inkscape:pageopacity="0.0"
     inkscape:pagecheckerboard="0"
     inkscape:deskcolor="#d1d1d1"
     showgrid="false" />
  <defs
     id="defs2366">
    <filter
       id="Filter_1"
       x="0"
       y="0"
       width="1"
       height="1"
       color-interpolation-filters="sRGB">
      <feColorMatrix
         in="SourceGraphic"
         type="matrix"
         values="0 0 0 0 0 0 0 0 0 0.8 0 0 0 0 0.4 0 0 0 1 0"
         result="result1"
         id="feColorMatrix2333" />
    </filter>
  </defs>
  <path
     fill="#FFFFFF"
     id="path2424"
     d="m -4.1935038,-37.369805 c -0.6729556,0.694003 -1.2814295,1.605439 -1.8249479,2.733972 -1.0873365,2.290398 -1.3406111,4.588969 -0.7612902,6.89435 0.1772982,0.682331 0.4030918,1.323174 0.6768312,1.923132 -2.1172063,0.786428 -3.9618523,1.927597 -5.5261323,3.432954 -1.142617,1.023139 -2.27154,2.430322 -3.387715,4.220423 -0.844116,1.192502 -1.420656,2.236993 -1.728745,3.134291 -0.987637,2.32463 -1.834032,5.6176342 -2.53905,9.878284 -0.35221,2.0969917 -0.601763,3.977748 -0.750078,5.64320678 l -2.871412,2.32502402 c -1.952201,2.0826077 -2.940283,4.4569265 -2.964255,7.1235785 -0.02247,2.4999857 0.808157,4.6406437 2.492266,6.4225837 1.22194,1.277747 2.746788,2.258977 4.574118,2.942122 l 10.0951464,0.64027 c 4.4696384,-0.293176 7.90792035,-0.828925 10.3150986,-1.607344 0.0877,-0.02836 0.1684749,-0.05846 0.2545872,-0.08716 l 3.7239949,10.259774 c -3.8840966,2.179921 -6.12922501,6.041117 -6.7296142,11.590084 -0.5443293,5.376784 0.60737131,9.491936 3.4552434,12.345314 0.2846793,0.284278 0.5985165,0.560934 0.9361667,0.83088 -0.1069795,1.235028 -0.3085997,2.321815 -0.6067314,3.258405 -2.82008468,6.516518 -5.2983047,12.539533 -7.4334614,18.068371 -4.0969431,10.694101 -5.8682092,18.229731 -5.3149732,22.607568 1.2888726,0.623768 3.0310639,1.072546 5.2265664,1.346181 4.00156743,0.498732 8.0463136,0.151033 12.1341914,-1.037705 -0.3213531,1.634337 -0.3546692,2.863496 -0.079783,3.659786 l 5.0273222,1.29173 c 4.157695,0.54299 8.334027,0.0699 12.52899,-1.42023 0.01907,-0.073 0.03618,-0.14744 0.05484,-0.22074 0.666303,-0.999597 0.915739,-2.243721 0.750201,-3.731507 0.129236,-0.856326 0.235233,-1.73206 0.315828,-2.628783 0.373894,-4.02743 0.114268,-9.850527 -0.779666,-17.468705 -0.431524,-3.742123 -1.17985,-8.390542 -2.244983,-13.944704 l -0.829714,-3.920669 c 1.033382,0.07064 2.045496,0.101254 3.032365,0.08489 2.330928,-0.03864 4.49299,-0.298179 6.485533,-0.77884 0.09585,0.127382 0.190477,0.254882 0.290948,0.380445 1.107846,1.405042 2.222845,2.441344 3.344223,3.108109 l 0.465068,7.347623 c -0.0988,1.752185 -0.309555,3.256486 -0.632644,4.51221 -0.160007,0.678093 -0.370263,1.391529 -0.624246,2.13568 -1.050408,1.649872 -1.685867,3.148813 -1.907129,4.499592 -0.0322,0.0651 -0.06166,0.128172 -0.09439,0.19364 -1.176637,2.347865 -2.223789,5.806043 -3.141054,10.374236 -0.47558,2.299171 -0.829219,4.354694 -1.062467,6.165958 4.232407,1.923897 8.803463,2.653348 13.71312,2.189455 2.472058,-0.262403 4.513528,-0.701165 6.125208,-1.31783 -0.491396,-1.41767 -0.782996,-3.052668 -0.880166,-4.898447 0.174989,-0.08737 0.349715,-0.173133 0.524491,-0.263904 0.294616,-0.157138 0.581409,-0.313798 0.860392,-0.470701 2.233459,-1.148417 4.008288,-2.320591 5.314731,-3.516931 l -1.996502,-2.987672 c -0.210873,-0.05924 -0.419747,-0.1171 -0.627825,-0.173666 -0.82604,-2.350797 -0.867191,-5.163141 -0.113873,-8.442099 1.826633,-5.067717 2.836012,-8.316086 3.028933,-9.74622 0.229305,-1.596174 -0.464132,-3.792944 -2.079923,-6.589882 -1.777553,-3.066633 -2.690708,-5.067737 -2.740262,-6.002199 -0.07983,-1.101722 0.688746,-3.004131 2.305353,-5.708474 1.719651,-2.86916 2.661911,-5.152271 2.826389,-6.849657 0.250078,-2.729393 -0.620369,-5.262882 -2.611343,-7.599921 -1.873798,-2.205713 -4.219249,-3.486512 -7.032694,-3.848775 -1.750331,-1.034092 -3.510261,-1.536713 -5.280265,-1.507369 l -8.283549,1.137598 c -1.289823,0.18299 -2.495378,0.257805 -3.61728,0.224793 -0.201509,-0.745463 -0.494196,-1.571847 -0.886279,-2.486708 L 17.69999,2.3498705 C 17.542044,2.117107 17.360656,1.9007688 17.1571,1.6991029 17.2042,0.88499593 17.18117,-0.02173576 17.08202,-1.02574 16.377685,-7.9659274 15.292257,-13.325686 13.826126,-17.105816 12.229646,-21.267744 10.094318,-24.13009 7.4214766,-25.695469 7.0918279,-27.011558 6.4964327,-28.090924 5.6317032,-28.930403 5.0698341,-29.468827 3.014845,-30.771153 -0.53352339,-32.83654 -2.9878908,-34.225374 -4.2081836,-35.73648 -4.1935008,-37.369805 Z M 11.610593,68.431768 c 0.05,4.321028 0.01768,7.455595 -0.106435,9.270339 -0.277716,3.772318 -0.860898,7.434136 -1.7466608,10.985908 -0.1208109,-0.01005 -0.2394817,-0.01795 -0.355147,-0.02214 -0.085306,0.8521 -0.2381184,1.84339 -0.4558323,2.966162 -0.086662,0.286641 -0.1759938,0.572519 -0.2667572,0.857672 0.4863817,-8.618941 1.229811,-15.546968 2.2333353,-20.750403 0.214551,-1.08179 0.450938,-2.18874 0.697497,-3.307538 z"
     style="filter:url(#Filter_1)"
     transform="matrix(1.999527,-0.03665161,0.03665161,1.9994049,59.45,77.05)" />
</svg>
