<?xml version="1.0" encoding="UTF-8" standalone="no"?>
<svg
   version="1.1"
   preserveAspectRatio="none"
   x="0px"
   y="0px"
   width="264"
   height="283"
   viewBox="0 0 264 283"
   id="svg638"
   sodipodi:docname="pony_female_walk_bg_0013.svg"
   xmlns:inkscape="http://www.inkscape.org/namespaces/inkscape"
   xmlns:sodipodi="http://sodipodi.sourceforge.net/DTD/sodipodi-0.dtd"
   xmlns="http://www.w3.org/2000/svg"
   xmlns:svg="http://www.w3.org/2000/svg">
  <sodipodi:namedview
     id="namedview640"
     pagecolor="#ffffff"
     bordercolor="#000000"
     borderopacity="0.25"
     inkscape:showpageshadow="2"
     inkscape:pageopacity="0.0"
     inkscape:pagecheckerboard="0"
     inkscape:deskcolor="#d1d1d1"
     showgrid="false" />
  <defs
     id="defs584">
    <filter
       id="Filter_1"
       x="0"
       y="0"
       width="1"
       height="1"
       color-interpolation-filters="sRGB">
      <feColorMatrix
         in="SourceGraphic"
         type="matrix"
         values="0 0 0 0 0 0 0 0 0 0.8 0 0 0 0 0.4 0 0 0 1 0"
         result="result1"
         id="feColorMatrix551" />
    </filter>
  </defs>
  <path
     fill="#FFFFFF"
     id="path642"
     d="m -3.3818328,-37.492939 c -0.6847035,0.682482 -1.3091503,1.582848 -1.8718289,2.702016 -1.1262242,2.271662 -1.4194002,4.565719 -0.8793934,6.880717 0.1657347,0.685578 0.3812257,1.330349 0.6448804,1.935133 -2.130381,0.750326 -3.9935838,1.859999 -5.5833363,3.338587 -1.15992,1.003593 -2.313777,2.390252 -3.460318,4.161178 -0.864335,1.178017 -1.457763,2.213682 -1.781099,3.105645 -1.027118,2.307587 -1.929028,5.5852947 -2.706522,9.8335083 -0.387879,2.0907822 -0.670708,3.967807 -0.847366,5.63056983 l -2.910456,2.27498857 c -1.987462,2.0491788 -3.015934,4.4067005 -3.08531,7.0726682 -0.06504,2.4993451 0.729768,4.6540281 2.383363,6.4644361 1.200057,1.298404 2.707694,2.305056 4.523204,3.019218 l 10.0825014,0.81185 c 4.4741712,-0.217103 7.92146793,-0.693588 10.3416534,-1.430974 0.1275231,-0.03885 0.2464657,-0.07936 0.3706812,-0.118985 l 3.448676,9.502279 c -3.7726803,1.860217 -6.21107595,5.395811 -7.3101663,10.612114 -1.0780082,5.296773 -0.3418897,9.506806 2.20775839,12.630554 0.63211021,0.771806 1.43427501,1.515237 2.39920271,2.231836 0.077104,2.340671 0.049198,4.482504 -0.08953,6.414471 -0.039224,0.597141 -0.2215852,1.621914 -0.5175134,2.987814 -0.9190097,1.155396 -1.77920616,2.282643 -2.57438982,3.378486 -3.33802048,4.70621 -4.70746898,9.275818 -4.10796818,13.709072 0.2603064,1.785561 0.5838401,3.43181 0.9675355,4.945176 -1.1604645,4.944583 -1.7961044,8.760199 -1.8820013,11.390562 l 5.27796666,1.695214 C 4.0690508,98.555951 8.4695043,98.355846 12.85867,97.083435 l 0.664489,-7.358452 c 1.095613,-0.518819 2.167166,-1.118062 3.213055,-1.802664 l -0.07262,-0.198213 c 0.119764,-0.07664 0.24044,-0.151094 0.359359,-0.229726 l -1.580655,-3.896553 c -0.111195,-0.0455 -0.222666,-0.089 -0.333854,-0.133794 L 14.2903,81.221301 14.904402,74.418387 c 0.265447,-3.173603 0.39956,-6.90661 0.404553,-11.188664 0.953756,-1.281358 1.704213,-2.605179 2.252523,-3.972019 1.5604,0.32849 3.080136,0.559735 4.555895,0.682952 3.803345,0.317555 7.212941,-0.0025 10.232153,-0.953902 0.220935,0.489178 0.464939,0.971466 0.738809,1.444994 0.90496,1.581334 1.891738,2.78455 2.960296,3.610012 l -0.24175,2.890298 -0.320786,5.042314 c -4.93e-4,1.605986 -0.269942,3.222655 -0.807617,4.850633 -0.701151,1.982355 -1.90222,4.341202 -3.60319,7.076411 -0.852098,1.431938 -1.726283,3.264103 -2.620875,5.469504 l -0.288359,-0.09176 c -1.521311,3.787461 -2.826179,7.794347 -3.91567,12.01943 2.546555,1.53995 5.289037,2.54078 8.226812,3.00448 1.759549,0.30466 3.590245,0.4223 5.494331,0.35069 2.483771,-0.0934 4.587082,-0.43602 6.309546,-1.02806 -0.213077,-1.11245 -0.311134,-2.33893 -0.302574,-3.672031 0.338121,-0.02095 0.677649,-0.04674 1.018425,-0.08148 2.394989,-0.232029 4.358154,-0.70157 5.889373,-1.407285 -1.391883,-3.760306 -1.532679,-8.682099 -0.421608,-14.765279 1.463737,-5.899283 2.170417,-9.545486 2.119709,-10.939349 -0.04814,-1.42453 -1.070252,-3.810142 -3.065459,-7.157697 -2.033565,-3.289003 -3.054849,-5.475067 -3.064755,-6.556713 -0.0036,-0.07701 0.0043,-0.172527 0.0082,-0.262036 0.504112,-1.245025 1.402387,-2.999583 2.714515,-5.288159 1.991917,-3.413514 3.114348,-6.029926 3.36688,-7.849046 0.402359,-2.810357 -0.340683,-5.532192 -2.228295,-8.166016 -1.818413,-2.535715 -4.186495,-4.068448 -7.104323,-4.599663 -1.211097,-0.659851 -2.454654,-1.044603 -3.731554,-1.151216 l -8.356665,0.305925 c -1.173721,0.04821 -2.268822,0.01329 -3.289203,-0.09961 -0.150547,-1.009731 -0.527518,-2.220749 -1.133918,-3.635683 L 17.699525,2.349971 C 17.582246,2.1771389 17.448664,2.0159457 17.306239,1.8602589 17.361201,1.0658658 17.351684,0.18498104 17.272102,-0.79039187 16.686012,-7.7418429 15.691529,-13.11993 14.289914,-16.924613 12.764594,-21.112918 10.678806,-24.011841 8.0332101,-25.622612 7.7260303,-26.944366 7.1482608,-28.033852 6.2978225,-28.888048 5.745179,-29.435976 3.712707,-30.772169 0.19987127,-32.89771 -2.2305958,-34.328157 -3.4243253,-35.860034 -3.3818328,-37.492939 Z"
     style="filter:url(#Filter_1)"
     transform="matrix(1.9924927,-0.16662598,0.16665649,1.9923706,56.6,79.9)" />
</svg>
