
<svg xmlns="http://www.w3.org/2000/svg" version="1.1" xmlns:xlink="http://www.w3.org/1999/xlink" preserveAspectRatio="none" x="0px" y="0px" width="330px" height="358px" viewBox="0 0 330 358">
<defs>
<filter id="Filter_1" x="-20%" y="-20%" width="140%" height="140%" color-interpolation-filters="sRGB">
<feColorMatrix in="SourceGraphic" type="matrix" values="0 0 0 0 1 0 0 0 0 0 0 0 0 0 0.4 0 0 0 1 0" result="result1"/>
</filter>

<g id="anims_pony_jump_anim_clean_flats_23_Layer0_0_FILL">
<path fill="#FFFFFF" stroke="none" d="
M 24.95 69.05
Q 23.1705078125 62.2306640625 20.65 58.45 17.5935546875 53.7865234375 13 52.35 12.3310546875 50.866015625 10.85 50.05 9.9 49.5 3.8 47.6 -0.4 46.3 -0.55 44.4
L -2.3 46.75
Q -3.85 49.5 -2.7 52.15 -2.336328125 52.8951171875 -1.85 53.5 -4.3720703125 54.4544921875 -6.3 55.8 -8.3 57.15 -12.3 61.95 -14.25 64.3 -15 67.9 -15.4 69.8 -15.95 72.65 -16.3 73.55 -19.45 77.5 -22.2 80.9 -21.95 82.05 -21.45 84 -20.25 86.45 -18.65 89.45 -17.2 90.3 -15.55 91.25 -11.25 92.15 -6.85 93.05 -4.6 92.9 -1.8 92.7 1 91.4 4.5 89.7 5.4 87.2
L 10.1 87.1
Q 14.434765625 86.687109375 17.1 85.4
L 27.55 90.15
Q 26.7623046875 92.6060546875 26.8 95.7 26.95703125 101.89921875 29.95 105.55
L 28.35 107.85
Q 25.55 113 27.95 115.5 23.85 115 20.9 116.15 16.45 118 15.2 123.65 14.15 128.75 14.55 133
L 20.3 134.75
Q 23.1169921875 135.412890625 25.8 135.7 26.093359375 137.3884765625 26.5 138.95
L 32.4 139.95
Q 39.35 140.6 45.1 138.7 44.15 133.85 42.35 127.4 41.8 125.45 42.05 124.35 42.3 123.1 44 121.45 46.15 119.3 47.4 114
L 47.7 111.9
Q 49.2349609375 112.018359375 50.7 112.05 53.25078125 116.01015625 59.05 115.3 54.25 119.05 53.05 122.95 51.95 126.4 51.65 130.75 51.5 132.85 51.6 134.35 56.753125 136.1189453125 62.25 135.9 62.298046875 136.9837890625 62.4 137.85 69.2 140.8 76.4 139.9 80.05 139.4 82.25 138.4 79.4 132.4 79.65 123.85 80.6 115.8 80.7 114.7 80.9 112.7 79.5 110.75 77.75 108.6 74.15 107 78.1 103 79.85 100.65 83.25 96 82.8 92.7 82.2 88.55 78.55 85.3 74.6177734375 81.7609375 69.45 81.7 68.221484375 81.5142578125 67 81.65 61.55 82.9 58.7 83.5 57.872265625 83.691015625 57.05 83.8 55.7880859375 83.133203125 54 82.4 50.45 80.95 35.8 74.1
L 24.95 69.05 Z"/>
</g>
</defs>

<g transform="matrix( 2, 0, 0, 1.9998779296875, 55.6,72.4) ">
<g transform="matrix( 1, 0, 0, 1, 0.05,-3) ">
<g transform="matrix( 1, 0, 0, 1, 0,0) ">
<use filter="url(#Filter_1)" xlink:href="#anims_pony_jump_anim_clean_flats_23_Layer0_0_FILL"/>
</g>
</g>
</g>
</svg>
