
<svg xmlns="http://www.w3.org/2000/svg" version="1.1" xmlns:xlink="http://www.w3.org/1999/xlink" preserveAspectRatio="none" x="0px" y="0px" width="330px" height="358px" viewBox="0 0 330 358">
<defs>
<filter id="Filter_1" x="-20%" y="-20%" width="140%" height="140%" color-interpolation-filters="sRGB">
<feColorMatrix in="SourceGraphic" type="matrix" values="0 0 0 0 1 0 0 0 0 0 0 0 0 0 0.4 0 0 0 1 0" result="result1"/>
</filter>

<g id="anims_pony_jump_anim_clean_flats_11_Layer0_0_FILL">
<path fill="#FFFFFF" stroke="none" d="
M 16.6 -7.15
Q 15.5 -4.95 13.8 -1.65 13.25 -0.7 8.9 2.95 5.15 6.15 4.9 7.65 4.55 10.15 4.55 13.6 4.65 17.7 5.5 19.25 6.55 21 9.8 23.55 13.15 26.1 15.15 26.65 17.55 27.4 20.5 26.75 24.05 26 25.9 23.25
L 29.9 24.7
Q 33.4955078125 25.5796875 36.2 25.05
L 40.65 32.65
Q 41.1095703125 33.428515625 41.5 34.15 37.6453125 37.7076171875 37.2 44.55 37.028125 47.662890625 37.55 50.15 37.357421875 50.27265625 37.15 50.35 36.45 50.65 33.15 51.7 29.65 52.95 26.85 54.4 18.2 58.9 16.05 66.05 13.35 75.35 13.9 80.4
L 18.7 82.75
Q 22.267578125 83.9583984375 25.9 84.1 25.296875 90.200390625 26.3 93.75
L 31.65 95.4
Q 38.3 96.6 44.65 94.65 44 88.4 43.6 81.55 43.4 79.1 44.1 76.7 44.7 74.55 46.1 71.7 48.75 66.7 51.1 62.8
L 52.05 61.35
Q 58.65 62.8 64.2 62.5 68.2873046875 62.2376953125 71.6 61.1
L 69.65 66.7
Q 69.3 67.65 64.3 70.2 59.15 72.7 57.75 75.8 56.15 79.3 54.8 85.45 54.15 88.55 53.8 90.9 59.9283203125 94.10546875 66.7 94.15 66.760546875 94.6673828125 66.8 95.15 73.95 97 81 95 84.5 94.05 86.6 92.7 83.1 87.5 85.35 80.45 88.5 73.5 88.9 71.4 89.45 69.15 87.35 64.35 85.1 59.15 85.1 57.75 85.15 56.1 87.75 52.65 90.6 48.95 90.95 46.45 91.55 42.45 88.9 38.35 86 33.7 80.95 32.35
L 80.75 32.55
Q 79.034765625 32.00234375 77.3 32.1 71.95 33.1 69.1 33.55 66.7771484375 34.0009765625 64.8 33.95 64.5462890625 33.5443359375 64.25 33.1 62.6 30.65 56.35 19.75
L 50.4 9.35
Q 50.134765625 9.084765625 49.8 8.85 51.315625 -0.71953125 50.7 -6.45 50.0068359375 -13.0990234375 46.7 -16.4 46.7541015625 -18.4328125 45.85 -20 45.25 -21 40.95 -25.35 37.9 -28.3 38.55 -30.65
L 36.1 -28.5
Q 33.65 -25.6 33.55 -22.1 33.5439453125 -21.0361328125 33.7 -20.05 31.1541015625 -19.820703125 28.95 -18.85 26.7 -17.85 21.35 -13.4 18.75 -11.25 16.6 -7.15
M 37.3 63.65
Q 35.804296875 65.147265625 33.55 67.2 32.934375 67.8509765625 32.35 68.5 32.550390625 66.1904296875 32.8 65.4 33.6 63.35 36.05 63.6 36.6947265625 63.6701171875 37.3 63.65 Z"/>
</g>
</defs>

<g transform="matrix( 2, 0, 0, 1.9998779296875, 55.6,72.4) ">
<g transform="matrix( 1, 0, 0, 1, 0.05,-3) ">
<g transform="matrix( 1, 0, 0, 1, 0,0) ">
<use filter="url(#Filter_1)" xlink:href="#anims_pony_jump_anim_clean_flats_11_Layer0_0_FILL"/>
</g>
</g>
</g>
</svg>
