<?xml version="1.0" encoding="UTF-8" standalone="no"?>
<svg
   version="1.1"
   preserveAspectRatio="none"
   x="0px"
   y="0px"
   width="264"
   height="283"
   viewBox="0 0 264 283"
   id="svg1386"
   sodipodi:docname="pony_female_walk_bg_0002.svg"
   xmlns:inkscape="http://www.inkscape.org/namespaces/inkscape"
   xmlns:sodipodi="http://sodipodi.sourceforge.net/DTD/sodipodi-0.dtd"
   xmlns="http://www.w3.org/2000/svg"
   xmlns:svg="http://www.w3.org/2000/svg">
  <sodipodi:namedview
     id="namedview1388"
     pagecolor="#ffffff"
     bordercolor="#000000"
     borderopacity="0.25"
     inkscape:showpageshadow="2"
     inkscape:pageopacity="0.0"
     inkscape:pagecheckerboard="0"
     inkscape:deskcolor="#d1d1d1"
     showgrid="false" />
  <defs
     id="defs1332">
    <filter
       id="Filter_1"
       x="0"
       y="0"
       width="1"
       height="1"
       color-interpolation-filters="sRGB">
      <feColorMatrix
         in="SourceGraphic"
         type="matrix"
         values="0 0 0 0 0 0 0 0 0 0.8 0 0 0 0 0.4 0 0 0 1 0"
         result="result1"
         id="feColorMatrix1299" />
    </filter>
  </defs>
  <path
     fill="#FFFFFF"
     id="path1430"
     d="m -4.5941123,-37.405007 c -0.6667194,0.699948 -1.266847,1.616574 -1.8002663,2.749865 -1.066841,2.299917 -1.3002007,4.599675 -0.7003768,6.899718 0.1834868,0.681147 0.4156778,1.320391 0.6949905,1.918203 -2.1101446,0.805243 -3.9439171,1.962465 -5.4947251,3.481712 -1.133411,1.033245 -2.250186,2.449782 -3.350323,4.249697 -0.833424,1.199935 -1.400655,2.249344 -1.700723,3.149321 -0.966844,2.333257 -1.783889,5.6339716 -2.450881,9.900583 -0.333493,2.0999725 -0.566707,3.9829866 -0.700167,5.64964141 l -2.850004,2.35025099 c -1.933491,2.0998504 -2.90041,4.4826996 -2.900614,7.1493636 -1.91e-4,2.499997 0.849844,4.633438 2.549707,6.400233 1.233235,1.266759 2.765842,2.233557 4.599123,2.900363 l 10.1004931,0.550557 c 4.4666876,-0.332992 7.90003138,-0.899731 10.30009,-1.699547 0.047785,-0.01592 0.09137,-0.03279 0.13868,-0.04881 l 3.8341645,10.56379 C 1.8169743,31.008076 -0.36363456,34.914287 -0.86304513,40.484162 -1.3085098,45.869 -0.08169769,49.96181 2.8175113,52.761896 3.0646661,52.999804 3.332696,53.231583 3.6181756,53.458362 3.444663,54.62975 3.1527485,55.577508 2.7407458,56.298232 l -4.6515066,6.649039 c -2.1339186,3.499639 -3.4175269,7.449764 -3.8515983,11.849686 -0.5008555,5.099911 -0.2680817,9.599807 0.6979294,13.499965 1.4332423,0.533573 3.2665345,0.800402 5.49986557,0.800777 0.89521053,1.5e-4 1.77918013,-0.05789 2.65432503,-0.167534 -0.7847316,5.031282 -1.0395221,9.20815 -0.756984,12.518215 l 5.350376,1.25097 c 4.4665781,0.50075 8.8494291,-0.0655 13.1496991,-1.69809 l 0.305822,-35.84979 c 4.04e-4,-2.409916 0.04263,-4.455195 0.12408,-6.152699 1.511402,0.127332 2.974957,0.168279 4.387675,0.118908 2.244506,-0.07844 4.325276,-0.362762 6.248189,-0.845682 0.04759,0.06489 0.09276,0.13088 0.141568,0.195348 1.099757,1.44612 2.215857,2.507339 3.349075,3.18435 l -0.350058,2.676863 c -0.200336,1.999664 -0.250987,3.552873 -0.151173,4.660415 0.0998,1.169071 -0.266724,2.660704 -1.100361,4.475674 l -3.600748,6.783013 c -1.300401,2.399419 -2.534516,5.875764 -3.701945,10.428726 l -1.401421,6.137835 c 4.166342,1.908103 8.733102,2.570489 13.699862,1.986796 2.466715,-0.307232 4.533661,-0.783935 6.200435,-1.429711 -0.129587,-0.437559 -0.236783,-0.897786 -0.322034,-1.378068 3.880496,-0.255902 7.57663,-1.314965 11.088423,-3.177044 0.616938,-0.311809 1.228449,-0.647136 1.834154,-1.008542 2.133538,-1.232974 3.800418,-2.482926 5.000629,-3.74939 -0.966525,-0.833495 -1.799695,-1.817345 -2.499504,-2.950795 -0.228754,-0.05773 -0.455325,-0.113216 -0.680636,-0.168093 -1.180473,-2.334159 -1.656121,-5.143172 -1.41753,-8.432393 1.000855,-5.099827 1.501404,-8.365843 1.501645,-9.799174 2.63e-4,-1.566666 -1.033292,-3.750381 -3.099487,-6.550725 -2.232822,-3.033705 -3.448572,-5.016829 -3.648415,-5.950194 -0.266482,-1.100044 0.217369,-3.016984 1.45116,-5.750108 1.233819,-2.89979 1.800092,-5.199535 1.700377,-6.89955 -0.199541,-2.733364 -1.465592,-5.250513 -3.798537,-7.550903 -2.208868,-2.152952 -4.731855,-3.387458 -7.56676,-3.711457 -1.656727,-0.875141 -3.313638,-1.285375 -4.970497,-1.227472 l -8.258029,1.288732 c -1.341023,0.215434 -2.59213,0.310186 -3.754931,0.287473 -0.200094,-0.709001 -0.476621,-1.48604 -0.844333,-2.344035 L 17.699996,2.3501846 C 17.526813,2.0949668 17.32364,1.8598631 17.095623,1.6420322 c 0.05373,-0.85740133 0.02338,-1.822362 -0.09229,-2.8957001 -0.766136,-6.9333848 -1.898962,-12.2836011 -3.398673,-16.0503781 -1.633548,-4.147627 -3.7941795,-6.990507 -6.4809896,-8.531882 -0.3413863,-1.312739 -0.9458247,-2.386711 -1.8178192,-3.218275 -0.5666254,-0.533376 -2.633041,-1.817282 -6.19954894,-3.850885 -2.46655986,-1.366854 -3.70054116,-2.866588 -3.70041656,-4.499919 z M 45.188558,58.859224 c 0.100586,0.03203 0.201156,0.06732 0.301742,0.09576 l 0.143364,1.134859 c -0.185117,-0.45431 -0.334801,-0.866233 -0.445106,-1.230619 z"
     style="filter:url(#Filter_1)"
     transform="matrix(2,-3.3569336e-4,3.3569336e-4,1.9998779,60.4,76.3)" />
</svg>
