<?xml version="1.0" encoding="UTF-8" standalone="no"?>
<svg
   version="1.1"
   preserveAspectRatio="none"
   x="0px"
   y="0px"
   width="264"
   height="283"
   viewBox="0 0 264 283"
   id="svg2084"
   sodipodi:docname="pony_female_walk_bg_0019.svg"
   xmlns:inkscape="http://www.inkscape.org/namespaces/inkscape"
   xmlns:sodipodi="http://sodipodi.sourceforge.net/DTD/sodipodi-0.dtd"
   xmlns="http://www.w3.org/2000/svg"
   xmlns:svg="http://www.w3.org/2000/svg">
  <sodipodi:namedview
     id="namedview2086"
     pagecolor="#ffffff"
     bordercolor="#000000"
     borderopacity="0.25"
     inkscape:showpageshadow="2"
     inkscape:pageopacity="0.0"
     inkscape:pagecheckerboard="0"
     inkscape:deskcolor="#d1d1d1"
     showgrid="false" />
  <defs
     id="defs2030">
    <filter
       id="Filter_1"
       x="0"
       y="0"
       width="1"
       height="1"
       color-interpolation-filters="sRGB">
      <feColorMatrix
         in="SourceGraphic"
         type="matrix"
         values="0 0 0 0 0 0 0 0 0 0.8 0 0 0 0 0.4 0 0 0 1 0"
         result="result1"
         id="feColorMatrix1997" />
    </filter>
  </defs>
  <path
     fill="#FFFFFF"
     id="path2088"
     d="m -3.5721784,-37.427783 c -0.6819308,0.685246 -1.3018744,1.588152 -1.8600097,2.709589 -1.1170024,2.276202 -1.4006016,4.570758 -0.8512074,6.883562 0.1685083,0.684879 0.3859671,1.329029 0.65206,1.932725 -2.1275038,0.758935 -3.9862062,1.876604 -5.5700575,3.361709 -1.155842,1.008276 -2.303316,2.399576 -3.442666,4.175127 -0.859551,1.181504 -1.449721,2.219279 -1.769437,3.112545 -1.01775,2.311726 -1.906428,5.5931265 -2.666683,9.8444611 -0.379396,2.0923393 -0.653996,3.9707692 -0.823909,5.63423771 l -2.900989,2.28678149 c -1.979137,2.0572008 -2.998464,4.4182521 -3.057025,7.0844869 -0.0549,2.4995948 0.747956,4.6521188 2.408884,6.4558338 1.205318,1.293548 2.717391,2.293558 4.535788,3.00038 l 10.0866447,0.772004 c 4.4732631,-0.235185 7.91810544,-0.726401 10.3352848,-1.473564 0.1213001,-0.03749 0.2339199,-0.07715 0.3522169,-0.115327 l 3.6120846,9.953065 c -3.8611037,2.049492 -6.19722146,5.790076 -6.9989722,11.230527 -0.7510841,5.351889 0.2420661,9.507894 2.9779278,12.468917 0.5821152,0.627916 1.2894106,1.227073 2.1137795,1.79936 0.1600724,3.938355 -0.2602034,7.242567 -1.2636385,9.90892 -0.2963668,0.800399 -0.566002,1.594664 -0.8139858,2.382688 L 0.13788919,68.2571 c -1.42057819,2.673199 -2.77809049,5.816616 -4.07368219,9.429792 -0.478811,1.391278 -0.8596315,3.149253 -1.1453482,5.256195 -0.5201716,2.409354 -0.6921163,5.008865 -0.5184175,7.796939 9.896e-4,1.19557 0.043266,2.314933 0.1314657,3.347801 1.3388263,0.660334 3.0688294,1.154628 5.19000572,1.482726 4.13212008,0.570829 8.18971788,0.0143 12.17295828,-1.662534 0.09004,-0.02893 0.179579,-0.05603 0.269752,-0.08576 l -6.91e-4,-0.02839 c 0.05146,-0.02234 0.103025,-0.04276 0.154458,-0.06547 -0.01713,-0.246427 -0.0315,-0.478719 -0.04802,-0.721762 2.965516,-0.645404 5.886773,-1.539539 8.760844,-2.694513 -1.799533,-4.551981 -3.458683,-10.382614 -4.977447,-17.491712 -0.515652,-2.42932 -0.721414,-5.106039 -0.62005,-8.028539 l 2.582289,-5.864872 c 2.034657,0.362763 3.991968,0.56638 5.870352,0.607639 4.212902,0.09254 7.89982,-0.561241 11.063574,-1.954437 0.06021,0.03929 0.120219,0.08043 0.180481,0.118526 0.449512,0.743282 0.955039,1.468614 1.523191,2.173926 0.490474,0.628859 0.978703,1.195004 1.46515,1.699089 l 0.127809,4.110282 c 0.03786,0.648488 -1.206583,2.364127 -3.733305,5.146772 -2.633484,2.931888 -4.031093,5.472715 -4.193555,7.621483 -0.174786,2.425419 0.06731,5.592663 0.727425,9.502878 l 1.07482,5.084265 c 1.241043,0.03957 2.471163,0.0033 3.690628,-0.106424 -0.568572,2.795701 -0.908596,5.697966 -1.019466,8.70739 3.929545,2.07697 8.129063,2.99937 12.598296,2.76997 0.347326,-0.0142 0.696005,-0.0325 1.046842,-0.0599 2.479454,-0.22327 4.533707,-0.64891 6.163534,-1.27711 -1.222285,-4.025697 -1.310541,-9.536014 -0.26477,-16.530865 1.371409,-6.813486 2.072898,-10.953503 2.104872,-12.420435 0.03494,-1.533544 -0.95266,-4.080887 -2.96323,-7.641117 -2.042391,-3.59502 -3.038189,-5.958367 -2.987746,-7.090759 0.04896,-1.099087 0.701793,-3.406461 1.959628,-6.921203 1.259319,-3.548048 1.914442,-6.255074 1.96422,-8.121674 0.101705,-3.032298 -0.874034,-5.845941 -2.927629,-8.440307 -2.123693,-2.656949 -4.855787,-4.210327 -8.195636,-4.660354 -1.253438,-0.588386 -2.52243,-0.899156 -3.807849,-0.92739 l -8.321385,0.818236 c -1.235034,0.126903 -2.388132,0.156345 -3.46321,0.09309 C 27.503033,30.374214 27.17114,29.39838 26.700285,28.29972 L 17.700001,2.3501715 C 17.57459,2.1653552 17.430634,1.992974 17.276468,1.8277632 17.32707,1.0369117 17.313693,0.15977842 17.230665,-0.80930971 16.61638,-7.7583573 15.600792,-13.132236 14.183752,-16.931235 12.641378,-21.113551 10.542791,-24.003582 7.8905007,-25.603607 7.5779662,-26.924152 6.9967637,-28.011305 6.1428468,-28.862079 5.5879841,-29.407771 3.5493899,-30.735667 0.02795355,-32.847 -2.4083011,-34.267618 -3.6080468,-35.794714 -3.5721784,-37.427783 Z"
     style="filter:url(#Filter_1)"
     transform="matrix(1.9976959,-0.08898926,0.08898926,1.9975739,58.25,78.15)" />
</svg>
