
<svg xmlns="http://www.w3.org/2000/svg" version="1.1" xmlns:xlink="http://www.w3.org/1999/xlink" preserveAspectRatio="none" x="0px" y="0px" width="330px" height="358px" viewBox="50 364 330 358">
<defs>
<linearGradient id="Gradient_1" gradientUnits="userSpaceOnUse" x1="29.675" y1="66.6625" x2="31.325" y2="56.4375" spreadMethod="pad">
<stop  offset="2.7450980392156863%" stop-color="#FFFFFF" stop-opacity="0"/>

<stop  offset="76.86274509803921%" stop-color="#FFFFFF" stop-opacity="0.4980392156862745"/>
</linearGradient>

<linearGradient id="Gradient_2" gradientUnits="userSpaceOnUse" x1="-2.262500000000001" y1="18.6125" x2="15.262500000000001" y2="1.0874999999999986" spreadMethod="pad">
<stop  offset="9.803921568627452%" stop-color="#FFFFFF" stop-opacity="0"/>

<stop  offset="43.13725490196079%" stop-color="#FFFFFF" stop-opacity="0.6980392156862745"/>

<stop  offset="61.96078431372549%" stop-color="#FFFFFF" stop-opacity="0.6980392156862745"/>

<stop  offset="92.94117647058823%" stop-color="#FFFFFF" stop-opacity="0"/>
</linearGradient>

<linearGradient id="Gradient_3" gradientUnits="userSpaceOnUse" x1="64.9" y1="116.97500000000001" x2="82.4" y2="107.325" spreadMethod="pad">
<stop  offset="23.529411764705884%" stop-color="#FFFFFF" stop-opacity="0.6980392156862745"/>

<stop  offset="98.43137254901961%" stop-color="#FFFFFF" stop-opacity="0"/>
</linearGradient>

<linearGradient id="Gradient_4" gradientUnits="userSpaceOnUse" x1="26.4375" y1="133.55" x2="45.3625" y2="133.55" spreadMethod="pad">
<stop  offset="23.529411764705884%" stop-color="#FFFFFF" stop-opacity="0.6980392156862745"/>

<stop  offset="98.43137254901961%" stop-color="#FFFFFF" stop-opacity="0"/>
</linearGradient>

<radialGradient id="Gradient_5" gradientUnits="userSpaceOnUse" cx="0" cy="0" r="8.5125" fx="0" fy="0" gradientTransform="matrix( 1, 0, 0, -1, 8.55,8.55) " spreadMethod="pad">
<stop  offset="29.41176470588235%" stop-color="#FFFFFF" stop-opacity="0.6"/>

<stop  offset="100%" stop-color="#FFFFFF" stop-opacity="0"/>
</radialGradient>

<linearGradient id="Gradient_6" gradientUnits="userSpaceOnUse" x1="-3.2250000000000005" y1="51.0375" x2="-14.875" y2="48.9625" spreadMethod="pad">
<stop  offset="38.8235294117647%" stop-color="#FFFFFF" stop-opacity="0"/>

<stop  offset="70.98039215686275%" stop-color="#FFFFFF" stop-opacity="0.6980392156862745"/>
</linearGradient>

<linearGradient id="Gradient_7" gradientUnits="userSpaceOnUse" x1="-7.475" y1="65.11250000000001" x2="-4.525" y2="73.1875" spreadMethod="pad">
<stop  offset="17.254901960784313%" stop-color="#FFFFFF" stop-opacity="0.2"/>

<stop  offset="88.62745098039215%" stop-color="#FFFFFF" stop-opacity="0.6980392156862745"/>
</linearGradient>

<linearGradient id="Gradient_8" gradientUnits="userSpaceOnUse" x1="12.65" y1="57.925" x2="6.15" y2="54.875" spreadMethod="pad">
<stop  offset="0%" stop-color="#FFFFFF" stop-opacity="0"/>

<stop  offset="100%" stop-color="#FFFFFF" stop-opacity="0.6980392156862745"/>
</linearGradient>

<linearGradient id="Gradient_9" gradientUnits="userSpaceOnUse" x1="32.0125" y1="25.650000000000002" x2="41.9875" y2="38.550000000000004" spreadMethod="pad">
<stop  offset="0.39215686274509803%" stop-color="#994F29"/>

<stop  offset="14.117647058823529%" stop-color="#CA923B"/>

<stop  offset="18.03921568627451%" stop-color="#BD7F36"/>

<stop  offset="26.274509803921568%" stop-color="#A35C2D"/>

<stop  offset="30.980392156862745%" stop-color="#994F29"/>

<stop  offset="40.78431372549019%" stop-color="#BC752E"/>

<stop  offset="67.05882352941177%" stop-color="#E8BB49"/>

<stop  offset="74.11764705882354%" stop-color="#B87836"/>

<stop  offset="79.2156862745098%" stop-color="#994F29"/>

<stop  offset="98.43137254901961%" stop-color="#994F29"/>
</linearGradient>

<linearGradient id="Gradient_10" gradientUnits="userSpaceOnUse" x1="27.0625" y1="28.9375" x2="36.8375" y2="41.5625" spreadMethod="pad">
<stop  offset="0%" stop-color="#CA923B"/>

<stop  offset="7.0588235294117645%" stop-color="#BD7F36"/>

<stop  offset="22.352941176470587%" stop-color="#A35C2D"/>

<stop  offset="30.58823529411765%" stop-color="#994F29"/>

<stop  offset="53.333333333333336%" stop-color="#BC752E"/>

<stop  offset="74.90196078431373%" stop-color="#994F29"/>

<stop  offset="90.98039215686275%" stop-color="#994F29"/>

<stop  offset="98.43137254901961%" stop-color="#994F29"/>
</linearGradient>

<linearGradient id="Gradient_11" gradientUnits="userSpaceOnUse" x1="10.3875" y1="1.8874999999999993" x2="23.1125" y2="18.3125" spreadMethod="pad">
<stop  offset="0.39215686274509803%" stop-color="#994F29"/>

<stop  offset="14.117647058823529%" stop-color="#CA923B"/>

<stop  offset="18.03921568627451%" stop-color="#BD7F36"/>

<stop  offset="26.274509803921568%" stop-color="#A35C2D"/>

<stop  offset="30.980392156862745%" stop-color="#994F29"/>

<stop  offset="40.78431372549019%" stop-color="#BC752E"/>

<stop  offset="79.2156862745098%" stop-color="#994F29"/>

<stop  offset="98.43137254901961%" stop-color="#994F29"/>
</linearGradient>

<linearGradient id="Gradient_12" gradientUnits="userSpaceOnUse" x1="21.299999999999997" y1="24.9" x2="31.6" y2="38.2" spreadMethod="pad">
<stop  offset="0%" stop-color="#CA923B"/>

<stop  offset="7.0588235294117645%" stop-color="#BD7F36"/>

<stop  offset="22.352941176470587%" stop-color="#A35C2D"/>

<stop  offset="30.58823529411765%" stop-color="#994F29"/>

<stop  offset="53.333333333333336%" stop-color="#BC752E"/>

<stop  offset="74.90196078431373%" stop-color="#994F29"/>

<stop  offset="90.98039215686275%" stop-color="#994F29"/>

<stop  offset="98.43137254901961%" stop-color="#994F29"/>
</linearGradient>

<linearGradient id="Gradient_13" gradientUnits="userSpaceOnUse" x1="6.0249999999999995" y1="1.0874999999999995" x2="14.475000000000001" y2="12.0125" spreadMethod="pad">
<stop  offset="0%" stop-color="#CA923B"/>

<stop  offset="7.0588235294117645%" stop-color="#BD7F36"/>

<stop  offset="22.352941176470587%" stop-color="#A35C2D"/>

<stop  offset="30.58823529411765%" stop-color="#994F29"/>

<stop  offset="53.333333333333336%" stop-color="#BC752E"/>

<stop  offset="74.90196078431373%" stop-color="#994F29"/>

<stop  offset="90.98039215686275%" stop-color="#994F29"/>

<stop  offset="98.43137254901961%" stop-color="#994F29"/>
</linearGradient>

<linearGradient id="Gradient_14" gradientUnits="userSpaceOnUse" x1="11.5125" y1="3.6249999999999964" x2="48.6875" y2="51.675" spreadMethod="pad">
<stop  offset="0%" stop-color="#CA923B"/>

<stop  offset="3.9215686274509802%" stop-color="#BD7F36"/>

<stop  offset="12.156862745098039%" stop-color="#A35C2D"/>

<stop  offset="16.862745098039216%" stop-color="#994F29"/>

<stop  offset="32.94117647058823%" stop-color="#BC752E"/>

<stop  offset="61.568627450980394%" stop-color="#E8BB49"/>

<stop  offset="69.41176470588235%" stop-color="#B87836"/>

<stop  offset="74.90196078431373%" stop-color="#994F29"/>

<stop  offset="90.98039215686275%" stop-color="#994F29"/>

<stop  offset="98.43137254901961%" stop-color="#994F29"/>
</linearGradient>

<linearGradient id="Gradient_15" gradientUnits="userSpaceOnUse" x1="-1.6625000000000005" y1="5.5375" x2="10.662500000000001" y2="21.4625" spreadMethod="pad">
<stop  offset="0%" stop-color="#CA923B"/>

<stop  offset="7.0588235294117645%" stop-color="#BD7F36"/>

<stop  offset="22.352941176470587%" stop-color="#A35C2D"/>

<stop  offset="30.58823529411765%" stop-color="#994F29"/>

<stop  offset="53.333333333333336%" stop-color="#BC752E"/>

<stop  offset="74.90196078431373%" stop-color="#994F29"/>

<stop  offset="90.98039215686275%" stop-color="#994F29"/>

<stop  offset="98.43137254901961%" stop-color="#994F29"/>
</linearGradient>

<linearGradient id="Gradient_16" gradientUnits="userSpaceOnUse" x1="4.849999999999998" y1="1.3625000000000007" x2="28.45" y2="31.837500000000002" spreadMethod="pad">
<stop  offset="14.117647058823529%" stop-color="#CA923B"/>

<stop  offset="18.431372549019606%" stop-color="#BD7F36"/>

<stop  offset="27.45098039215686%" stop-color="#A35C2D"/>

<stop  offset="32.549019607843135%" stop-color="#994F29"/>

<stop  offset="50.98039215686274%" stop-color="#BC752E"/>

<stop  offset="73.72549019607843%" stop-color="#994F29"/>

<stop  offset="100%" stop-color="#994F29"/>
</linearGradient>

<linearGradient id="Gradient_17" gradientUnits="userSpaceOnUse" x1="10.1875" y1="1.5749999999999993" x2="36.0125" y2="34.925" spreadMethod="pad">
<stop  offset="0.39215686274509803%" stop-color="#994F29"/>

<stop  offset="14.117647058823529%" stop-color="#CA923B"/>

<stop  offset="18.03921568627451%" stop-color="#BD7F36"/>

<stop  offset="26.274509803921568%" stop-color="#A35C2D"/>

<stop  offset="30.980392156862745%" stop-color="#994F29"/>

<stop  offset="40.78431372549019%" stop-color="#BC752E"/>

<stop  offset="49.80392156862745%" stop-color="#CE9239"/>

<stop  offset="60.78431372549019%" stop-color="#E1B044"/>

<stop  offset="67.05882352941177%" stop-color="#E8BB49"/>

<stop  offset="79.2156862745098%" stop-color="#B87836"/>

<stop  offset="87.84313725490196%" stop-color="#994F29"/>

<stop  offset="98.43137254901961%" stop-color="#994F29"/>
</linearGradient>

<linearGradient id="Gradient_18" gradientUnits="userSpaceOnUse" x1="9.337499999999999" y1="8.587499999999999" x2="16.3625" y2="26.2125" spreadMethod="pad">
<stop  offset="0%" stop-color="#A26331"/>

<stop  offset="20%" stop-color="#CE8B5E"/>

<stop  offset="70.58823529411765%" stop-color="#AA6834"/>

<stop  offset="93.33333333333333%" stop-color="#6D411A"/>
</linearGradient>

<linearGradient id="Gradient_19" gradientUnits="userSpaceOnUse" x1="7.0874999999999995" y1="1.4875000000000007" x2="14.1125" y2="19.1125" spreadMethod="pad">
<stop  offset="0%" stop-color="#CA923B"/>

<stop  offset="3.9215686274509802%" stop-color="#BD7F36"/>

<stop  offset="12.156862745098039%" stop-color="#A35C2D"/>

<stop  offset="16.862745098039216%" stop-color="#994F29"/>

<stop  offset="32.94117647058823%" stop-color="#BC752E"/>

<stop  offset="61.568627450980394%" stop-color="#E8BB49"/>

<stop  offset="69.41176470588235%" stop-color="#B87836"/>

<stop  offset="74.90196078431373%" stop-color="#994F29"/>

<stop  offset="90.98039215686275%" stop-color="#994F29"/>

<stop  offset="98.43137254901961%" stop-color="#994F29"/>
</linearGradient>

<linearGradient id="Gradient_20" gradientUnits="userSpaceOnUse" x1="2.9625" y1="2.4749999999999996" x2="9.0375" y2="21.424999999999997" spreadMethod="pad">
<stop  offset="0%" stop-color="#CA923B"/>

<stop  offset="7.0588235294117645%" stop-color="#BD7F36"/>

<stop  offset="22.352941176470587%" stop-color="#A35C2D"/>

<stop  offset="30.58823529411765%" stop-color="#994F29"/>

<stop  offset="53.333333333333336%" stop-color="#BC752E"/>

<stop  offset="74.90196078431373%" stop-color="#994F29"/>

<stop  offset="90.98039215686275%" stop-color="#994F29"/>

<stop  offset="98.43137254901961%" stop-color="#994F29"/>
</linearGradient>

<linearGradient id="Gradient_21" gradientUnits="userSpaceOnUse" x1="7.5" y1="11.200000000000001" x2="16.8" y2="22.5" spreadMethod="pad">
<stop  offset="0.7843137254901961%" stop-color="#994F29"/>

<stop  offset="34.11764705882353%" stop-color="#BC752E"/>

<stop  offset="64.31372549019608%" stop-color="#E8BB49"/>

<stop  offset="70.58823529411765%" stop-color="#D29C40"/>

<stop  offset="78.82352941176471%" stop-color="#B97A36"/>

<stop  offset="86.66666666666667%" stop-color="#A8622F"/>

<stop  offset="93.72549019607843%" stop-color="#9D542B"/>

<stop  offset="100%" stop-color="#994F29"/>
</linearGradient>

<linearGradient id="Gradient_22" gradientUnits="userSpaceOnUse" x1="2.6375" y1="2.674999999999999" x2="14.462500000000002" y2="17.025" spreadMethod="pad">
<stop  offset="0.7843137254901961%" stop-color="#994F29"/>

<stop  offset="34.11764705882353%" stop-color="#BC752E"/>

<stop  offset="64.31372549019608%" stop-color="#E8BB49"/>

<stop  offset="70.58823529411765%" stop-color="#D29C40"/>

<stop  offset="78.82352941176471%" stop-color="#B97A36"/>

<stop  offset="86.66666666666667%" stop-color="#A8622F"/>

<stop  offset="93.72549019607843%" stop-color="#9D542B"/>

<stop  offset="100%" stop-color="#994F29"/>
</linearGradient>

<linearGradient id="Gradient_23" gradientUnits="userSpaceOnUse" x1="2.2750000000000004" y1="5.7875" x2="12.025" y2="30.2125" spreadMethod="pad">
<stop  offset="0%" stop-color="#CA923B"/>

<stop  offset="3.9215686274509802%" stop-color="#BD7F36"/>

<stop  offset="12.156862745098039%" stop-color="#A35C2D"/>

<stop  offset="16.862745098039216%" stop-color="#994F29"/>

<stop  offset="32.94117647058823%" stop-color="#BC752E"/>

<stop  offset="49.01960784313726%" stop-color="#E8BB49"/>

<stop  offset="64.31372549019608%" stop-color="#B87836"/>

<stop  offset="74.90196078431373%" stop-color="#994F29"/>

<stop  offset="90.98039215686275%" stop-color="#994F29"/>

<stop  offset="98.43137254901961%" stop-color="#994F29"/>
</linearGradient>

<linearGradient id="Gradient_24" gradientUnits="userSpaceOnUse" x1="12.837499999999999" y1="4.349999999999999" x2="21.4625" y2="13.05" spreadMethod="pad">
<stop  offset="0%" stop-color="#A26331"/>

<stop  offset="20%" stop-color="#CE8B5E"/>

<stop  offset="54.11764705882353%" stop-color="#AA6834"/>

<stop  offset="93.33333333333333%" stop-color="#6D411A"/>
</linearGradient>

<linearGradient id="Gradient_25" gradientUnits="userSpaceOnUse" x1="6.099999999999999" y1="3.0874999999999995" x2="21.3" y2="18.4125" spreadMethod="pad">
<stop  offset="15.294117647058824%" stop-color="#BC752E"/>

<stop  offset="28.235294117647058%" stop-color="#E8BB49"/>

<stop  offset="32.549019607843135%" stop-color="#D29C40"/>

<stop  offset="38.431372549019606%" stop-color="#B97A36"/>

<stop  offset="43.92156862745098%" stop-color="#A8622F"/>

<stop  offset="49.01960784313726%" stop-color="#9D542B"/>

<stop  offset="53.333333333333336%" stop-color="#994F29"/>

<stop  offset="59.21568627450981%" stop-color="#9E582B"/>

<stop  offset="68.23529411764706%" stop-color="#AC702E"/>

<stop  offset="79.2156862745098%" stop-color="#C29734"/>

<stop  offset="80%" stop-color="#C49A34"/>

<stop  offset="83.52941176470588%" stop-color="#C29133"/>

<stop  offset="92.15686274509804%" stop-color="#BE7C2F"/>

<stop  offset="97.6470588235294%" stop-color="#BC752E"/>
</linearGradient>

<linearGradient id="Gradient_26" gradientUnits="userSpaceOnUse" x1="7.437499999999999" y1="7.899999999999999" x2="18.7625" y2="24.9" spreadMethod="pad">
<stop  offset="0%" stop-color="#CA923B"/>

<stop  offset="3.9215686274509802%" stop-color="#BD7F36"/>

<stop  offset="12.156862745098039%" stop-color="#A35C2D"/>

<stop  offset="16.862745098039216%" stop-color="#994F29"/>

<stop  offset="32.94117647058823%" stop-color="#BC752E"/>

<stop  offset="49.01960784313726%" stop-color="#E8BB49"/>

<stop  offset="64.31372549019608%" stop-color="#B87836"/>

<stop  offset="74.90196078431373%" stop-color="#994F29"/>

<stop  offset="90.98039215686275%" stop-color="#994F29"/>

<stop  offset="98.43137254901961%" stop-color="#994F29"/>
</linearGradient>

<linearGradient id="Gradient_27" gradientUnits="userSpaceOnUse" x1="1.4124999999999996" y1="6.55" x2="14.387500000000001" y2="6.55" spreadMethod="pad">
<stop  offset="0%" stop-color="#A26331"/>

<stop  offset="20%" stop-color="#CE8B5E"/>

<stop  offset="54.11764705882353%" stop-color="#AA6834"/>

<stop  offset="93.33333333333333%" stop-color="#6D411A"/>
</linearGradient>

<linearGradient id="Gradient_28" gradientUnits="userSpaceOnUse" x1="5.024999999999999" y1="11.925" x2="16.375" y2="2.7749999999999995" spreadMethod="pad">
<stop  offset="15.294117647058824%" stop-color="#BC752E"/>

<stop  offset="28.235294117647058%" stop-color="#E8BB49"/>

<stop  offset="32.549019607843135%" stop-color="#D29C40"/>

<stop  offset="38.431372549019606%" stop-color="#B97A36"/>

<stop  offset="43.92156862745098%" stop-color="#A8622F"/>

<stop  offset="49.01960784313726%" stop-color="#9D542B"/>

<stop  offset="53.333333333333336%" stop-color="#994F29"/>

<stop  offset="59.21568627450981%" stop-color="#9E582B"/>

<stop  offset="68.23529411764706%" stop-color="#AC702E"/>

<stop  offset="79.2156862745098%" stop-color="#C29734"/>

<stop  offset="80%" stop-color="#C49A34"/>

<stop  offset="83.13725490196079%" stop-color="#BB8B32"/>

<stop  offset="90.19607843137256%" stop-color="#A96A2E"/>

<stop  offset="90.19607843137256%" stop-color="#A96A2E" stop-opacity="0"/>

<stop  offset="100%" stop-color="#000000" stop-opacity="0"/>
</linearGradient>

<linearGradient id="Gradient_29" gradientUnits="userSpaceOnUse" x1="5.024999999999999" y1="11.925" x2="16.375" y2="2.7749999999999995" spreadMethod="pad">
<stop  offset="0%" stop-color="#000000" stop-opacity="0"/>

<stop  offset="90.19607843137256%" stop-color="#A96A2E" stop-opacity="0"/>

<stop  offset="90.19607843137256%" stop-color="#A96A2E"/>

<stop  offset="96.07843137254902%" stop-color="#9D562B"/>

<stop  offset="100%" stop-color="#994F29"/>
</linearGradient>

<linearGradient id="Gradient_30" gradientUnits="userSpaceOnUse" x1="14.287500000000001" y1="2.8375000000000004" x2="0.5125000000000002" y2="19.6625" spreadMethod="pad">
<stop  offset="0.7843137254901961%" stop-color="#994F29"/>

<stop  offset="34.11764705882353%" stop-color="#BC752E"/>

<stop  offset="64.31372549019608%" stop-color="#E8BB49"/>

<stop  offset="70.58823529411765%" stop-color="#D29C40"/>

<stop  offset="78.82352941176471%" stop-color="#B97A36"/>

<stop  offset="86.66666666666667%" stop-color="#A8622F"/>

<stop  offset="93.72549019607843%" stop-color="#9D542B"/>

<stop  offset="100%" stop-color="#994F29"/>
</linearGradient>

<linearGradient id="Gradient_31" gradientUnits="userSpaceOnUse" x1="19.125" y1="7.4125" x2="8.375" y2="18.7875" spreadMethod="pad">
<stop  offset="2.3529411764705883%" stop-color="#BC752E"/>

<stop  offset="37.254901960784316%" stop-color="#E8BB49"/>

<stop  offset="43.13725490196079%" stop-color="#D29C40"/>

<stop  offset="50.98039215686274%" stop-color="#B97A36"/>

<stop  offset="58.8235294117647%" stop-color="#A8622F"/>

<stop  offset="65.49019607843137%" stop-color="#9D542B"/>

<stop  offset="71.37254901960785%" stop-color="#994F29"/>

<stop  offset="100%" stop-color="#994F29"/>
</linearGradient>

<g id="Symbol_340_0_Layer0_0_FILL">
<path fill="url(#Gradient_1)" stroke="none" d="
M 21.75 65.4
L 38.05 65.55
Q 35 64.8 32.3 61.05
L 30.15 57.4 28.85 56.6 28.25 55.9
Q 27.5 59.6 24.55 62.85 23.1 64.55 21.75 65.4 Z"/>
</g>

<g id="Symbol_332_0_Layer0_0_FILL">
<path fill="url(#Gradient_2)" stroke="none" d="
M 12.5 4.25
Q 14.05 3.7 14.95 2.9 16.5 1.5 14.55 0.6 12.65 -0.3 10.7 0.55 8.65 1.25 7.55 1.8 4.1 3.6 2.1 7.55 0.25 11.3 0.4 15.4 0.55 19.55 1.6 22.45 1.45 20.85 1.55 18.7 1.8 14.4 3.15 11.85 5.9 6.9 9.65 5.3
L 12.5 4.25 Z"/>
</g>

<g id="Symbol_333_0_Layer0_0_FILL">
<path fill="url(#Gradient_3)" stroke="none" d="
M 72.25 107.9
Q 69.55 107.95 66.35 108.9
L 63.7 109.75 66.4 118.25
Q 73.95 119.05 79.6 116.55 82.45 115.3 83.75 113.9 83.25 113.5 83.05 111.5 82.85 109.4 82.5 108.95 76.55 107.85 72.25 107.9 Z"/>
</g>

<g id="Symbol_333_0_Layer0_1_FILL">
<path fill="url(#Gradient_4)" stroke="none" d="
M 44.9 138.65
L 45 134.5
Q 41 131.2 36.6 129 33.8 127.6 30.55 127
L 27.85 126.7
Q 25.75 134.85 26.4 139.05
L 31.65 140.25
Q 38.25 140.95 44.9 138.65 Z"/>
</g>

<g id="Symbol_3_0_Layer0_0_FILL">
<path fill="url(#Gradient_5)" stroke="none" d="
M 17.05 8.55
Q 17.05 5 14.55 2.5 12.05 0 8.55 0 5.05 0 2.5 2.5 0 5.05 0 8.55 0 12.05 2.5 14.55 5 17.05 8.55 17.05 12.1 17.05 14.55 14.55 17.05 12.1 17.05 8.55 Z"/>
</g>

<g id="Symbol_341_0_Layer0_0_FILL">
<path fill="url(#Gradient_6)" stroke="none" d="
M -9.9 44.9
L -1.1 31.55
Q 2.7 25 -0.3 26.1 -7.75 28.85 -11.05 34.25 -12.95 37.35 -13.8 42.75 -14.4 46.65 -13.1 53.65
L -11.7 59.85 -13.5 63.1
Q -15.15 67.1 -13.85 70.75 -13.05 73 -11.25 74.5
L -9.75 75.65
Q -10.7 73.95 -11.35 71.9 -12.7 67.75 -11.55 65.7 -10.15 63.85 -9.55 62.4 -8.5 59.85 -9.45 56.8
L -10.85 50.85
Q -11.3 47.05 -9.9 44.9 Z"/>
</g>

<g id="Symbol_341_0_Layer0_1_FILL">
<path fill="url(#Gradient_7)" stroke="none" d="
M -5.45 68.95
Q -5.3 72.35 -7.95 71.65
L -7.7 72.4 -6.5 73.35
Q -5.15 74 -4.1 72.65 -1.8 69.75 -4.35 67.1
L -7.35 65.1
Q -6.65 65.8 -6 67.2 -5.45 68.4 -5.45 68.95 Z"/>
</g>

<g id="Symbol_341_0_Layer0_2_FILL">
<path fill="url(#Gradient_8)" stroke="none" d="
M 14.2 53.05
Q 16.1 52.4 15.5 50.85 14.9 49.25 13.05 49.9 10.25 50.95 9.6 51.3 7.6 52.45 6.3 54.7 4.9 57.05 4.8 59.8 4.75 62.15 5.65 63.65 5.75 62.45 6.15 61 7.05 58.05 8.8 56.6 11.9 53.9 14.2 53.05 Z"/>
</g>

<g id="Mask_Mask_Symbol_336_0_Layer0_0_FILL">
<path fill="#FFFFFF" stroke="none" d="
M 131.8 27.25
L 82.55 19.65 64.9 41.55 64.4 58.7 70.75 60.45 77.9 54.3 102.9 76.55 132.3 54.7 131.8 27.25 Z"/>
</g>

<g id="Symbol_39_0_Layer0_0_FILL">
<path fill="url(#Gradient_9)" stroke="none" d="
M 38.1 31.45
L 37.65 23.45 33.05 22.8 32.45 25.45
Q 31.85 28.55 31.8 30.65 31.7 33.2 33 35.9 34.3 38.65 36.35 40 39.2 41.85 41.4 40 39.05 39.55 38.1 31.45 Z"/>
</g>

<g id="Symbol_39_0_Layer0_1_FILL">
<path fill="url(#Gradient_10)" stroke="none" d="
M 29.75 43.5
L 32.25 44.45
Q 35.1 45.15 36.95 43.9 41.3 41.05 36.3 35.8 33.65 33.05 32.25 29.8 30.7 26.2 31.4 23.45 28.65 25.2 26.65 27.55 22.7 32.3 26.5 35.55 29.35 38 30.15 40.6 30.9 42.9 29.75 43.5 Z"/>
</g>

<g id="Symbol_39_0_Layer0_2_FILL">
<path fill="url(#Gradient_11)" stroke="none" d="
M 23.3 19.65
Q 24.45 17.6 24.95 15.05 25.9 9.9 22.7 7.45 19.5 5 14.25 2.7 11.65 1.6 9.65 0.95
L 3.95 4.2
Q 7.05 3.95 10.65 5.05 15.35 6.55 16.3 9.6 17.9 14.65 18.7 16.15 20.4 19.25 23.3 19.65 Z"/>
</g>

<g id="Symbol_39_0_Layer0_3_FILL">
<path fill="url(#Gradient_12)" stroke="none" d="
M 24.1 20.95
Q 23.2 20.25 23.5 23.45 23.9 27.65 23.3 29.05 22.35 31.4 23.15 34.25 24.05 37.4 26.4 38.3
L 30.1 39.55
Q 31.4 39.95 31.8 40.65 31.05 36.6 29.7 32.1 27 23.1 24.1 20.95 Z"/>
</g>

<g id="Symbol_39_0_Layer0_4_FILL">
<path fill="url(#Gradient_13)" stroke="none" d="
M 17.45 7.6
Q 18.6 9.1 19.2 10.5 19.7 7.9 18.05 5.15 16.3 2.15 12.85 0.55 9.8 -0.85 4.6 1.35 2 2.45 0 3.8
L 0.3 5.3 4.4 4.55 12.1 4.2
Q 15.05 4.6 17.45 7.6 Z"/>
</g>

<g id="Symbol_39_0_Layer0_5_FILL">
<path fill="#753C20" stroke="none" d="
M 28.2 34.3
L 29.35 36.05
Q 31.05 37.9 33.15 37.35
L 31.45 37
Q 29.6 36.3 28.2 34.3 Z"/>
</g>

<g id="Symbol_39_0_Layer0_6_FILL">
<path fill="#642E1A" stroke="none" d="
M 25.85 27.9
Q 25.85 28.5 24.3 29.9 23.35 30.8 22.45 30.95
L 22.7 31
Q 24.85 31 26.05 29.1
L 25.85 27.9 Z"/>
</g>

<g id="Symbol_39_0_Layer0_7_FILL">
<path fill="#753C20" stroke="none" d="
M 31.75 40.35
Q 31.65 39 30.65 38.5 29.35 37.9 28.5 36.85 27.15 35.25 27.5 33.35
L 27.15 32.4 26.95 33.5
Q 26.85 34.8 27.35 35.8 28.55 38.25 30.15 38.85 31.1 39.2 31.75 40.35 Z"/>
</g>

<g id="Symbol_39_0_Layer0_8_FILL">
<path fill="#753C20" stroke="none" d="
M 25.25 34.65
L 25.7 35.3
Q 25.238671875 34.52109375 25.6 32.85
L 26.1 31.15 25.4 31.35
Q 24.85 33.35 25.25 34.65 Z"/>
</g>

<g id="Symbol_39_0_Layer0_9_FILL">
<path fill="#753C20" stroke="none" d="
M 7.15 3.35
Q 11.25 2.5 13.45 3.45
L 16.95 5.5 16.3 4.4 13.5 3.15
Q 11.5 2.2 9.15 2.65
L 7.15 3.35 Z"/>
</g>

<g id="Symbol_39_0_Layer0_10_FILL">
<path fill="#642E1A" stroke="none" d="
M 32.95 44.6
Q 33.6 44.7 34.25 44.2 35.1 43.6 34.95 42.5 34.85 41.45 34 39.7
L 33.15 38.15 33.9 40.15
Q 34.6 42.25 34.55 42.8 34.45 43.95 33.7 44.4
L 32.95 44.6 Z"/>
</g>

<g id="Symbol_39_0_Layer0_11_FILL">
<path fill="#642E1A" stroke="none" d="
M 34.55 36.85
L 34.15 37
Q 35.35 37.75 36.2 39.45
L 36.85 41.55
Q 36.85 42.6 36.3 43.3 37.6 42.25 36.85 39.7 36.6 38.85 35.55 37.75
L 34.55 36.85 Z"/>
</g>

<g id="Symbol_40_0_Layer0_0_FILL">
<path fill="url(#Gradient_14)" stroke="none" d="
M 41.1 38.3
Q 42 39 41.2 40.4
L 40.25 41.65 41.65 42.1
Q 43.35 42.05 44.55 39.45 45.8 36.75 42.55 32.95 40.4 30.4 37.35 28.35 35.95 27.4 34.8 23.95
L 33.9 20.75
Q 33.3 16.75 31.5 12.2 30.55 9.75 27.05 8 22.65 5.75 20.7 3.55 16.15 -1.6 10.65 0.7 9.15 1.35 0 6.45
L 12.45 5.15 18.6 6.45 28.3 18.1 30.25 21.6
Q 32.05 25.95 31.5 30.2 30.95 34.4 35.4 36.4 37.75 37.4 41.1 38.3 Z"/>
</g>

<g id="Symbol_40_0_Layer0_1_FILL">
<path fill="#753C20" stroke="none" d="
M 41.8 38.3
Q 42.15 39.2 41.9 40.1
L 41.15 41.25 42.05 40.35
Q 42.85 39.15 41.9 37.75 41.1 36.6 39.35 36.2
L 36.45 35.65
Q 35.25 35.35 34.25 34.5
L 33.55 33.7 33.55 34.7 34.4 35.25 36.2 36.1 39.3 36.85
Q 41.5 37.5 41.8 38.3 Z"/>
</g>

<g id="Symbol_40_0_Layer0_2_FILL">
<path fill="#753C20" stroke="none" d="
M 40.25 35.55
L 36.35 34.2
Q 34.85 33.45 33.8 31.8
L 33.7 32.4 34.45 33.3
Q 35.4 34.25 36.25 34.55
L 40.25 35.55 Z"/>
</g>

<g id="Symbol_40_0_Layer0_3_FILL">
<path fill="#814526" stroke="none" d="
M 9.2 2.7
L 5.75 4.35 8.65 3.55
Q 11.35 1.9 13.8 1.55
L 15.7 1.5
Q 14 0.75 11.9 1.45 11.15 1.7 9.2 2.7 Z"/>
</g>

<g id="Symbol_41_0_Layer0_0_FILL">
<path fill="url(#Gradient_15)" stroke="none" d="
M 3.15 0
Q 4.1 3.7 4.2 6.15 4.25 7.4 3.55 10.4 3.2 13.15 5.1 14.85 7.25 16.8 6.3 18.9 5.45 20.9 3.55 20.35 2.15 19.95 1.15 18.7
L 0.4 17.5 0 19.65
Q 0.1 22.1 2.6 23.55 5.8 25.45 8.1 25.4 10.75 25.3 12.45 22.55 14.25 19.7 14 15.85 13.8 12.1 11.95 9.9
L 6.9 4.85
Q 3.65 1.65 3.15 0 Z"/>
</g>

<g id="Symbol_41_0_Layer0_1_FILL">
<path fill="#642E1A" stroke="none" d="
M 5 7.9
L 5 8.85 4.8 10.45
Q 4.5 11.15 4.95 12.2 5.4 13.35 6.5 14.4 7.65 15.5 7.85 17.55 8 19.7 6.7 20.6 5.4 21.5 4.1 21.3 3.2 21.2 2.55 20.7
L 3.45 21.55
Q 5.2 22.6 7 21.1 8.95 19.45 8.55 17.2 8.25 15.4 7 14.2
L 5.75 12.4
Q 5.2 11.3 5.35 10.75
L 5.75 8.7 5 7.9 Z"/>
</g>

<g id="Symbol_42_0_Layer0_0_FILL">
<path fill="url(#Gradient_16)" stroke="none" d="
M 27.7 22.55
Q 24.75 23.9 23.4 20.7
L 21.75 14.4
Q 21.1 12.3 18.2 11.1 14.65 9.65 13.65 8.5 12.45 7.15 11.35 4.6 10.3 2.25 9.05 1.05 7.55 -0.4 3.65 0.2
L 0 1.05
Q 2.2 0.95 4.1 3.5 5.7 5.6 6.5 8.5 7 10.45 9.7 12.7
L 14 16.35
Q 15.7 18.1 16.1 19.45
L 16.65 24.5
Q 16.9 27.8 20 28.2 22.2 28.45 25.3 27.3 27.15 26.65 27.6 24.55
L 27.7 22.55 Z"/>
</g>

<g id="Symbol_42_0_Layer0_1_FILL">
<path fill="#814526" stroke="none" d="
M 13.75 11.4
L 11.05 8.7
Q 10.4 7.95 9.5 5.55 8.65 3.25 8.05 2.7 7.35 2.05 6.2 2
L 5.25 2.1 5.9 3.05
Q 7.25 2.35 8.4 4.55
L 9.85 7.95
Q 10.6 9.4 12.75 10.85
L 13.75 11.4 Z"/>
</g>

<g id="Symbol_43_0_Layer0_0_FILL">
<path fill="url(#Gradient_17)" stroke="none" d="
M 35.65 23.7
Q 36.6 19.35 33.5 15.75 31.25 13.2 26.75 10.9 24.3 9.6 22.15 6.05 19.8 2.2 17.85 0.8 15.2 -1.05 7.35 1.3 3.4 2.45 0 4
L 1.3 6.1
Q 7.1 3.05 11.35 3.1 15.9 3.15 17.55 6.65
L 20 12
Q 21.15 14.4 22.4 15.7
L 26.1 19.15
Q 27.45 20.7 26.9 22.8 25.75 27.05 27 31.55 28.15 35.8 30.7 37.95 32.65 39.7 36.1 37.7 37.85 36.7 39.15 35.35 35.25 35.35 34.75 31.95 34.4 29.75 35.65 23.7 Z"/>
</g>

<g id="Symbol_43_0_Layer0_1_FILL">
<path fill="#753C20" stroke="none" d="
M 21 7.4
L 21 7.65
Q 21.5 9.25 22.75 10.95 23.95 12.65 24.95 13.2 28.35 15.3 31 17.85 32.4 19.2 32.25 22.05
L 31.55 28.95
Q 31.3 32.6 32.7 34.55 33.35 35.55 34.1 35.8 31.6 33.05 31.9 28.4 32.75 23.2 32.8 20.95 32.85 18 30.5 15.85 29.3 14.75 26.15 13 23.25 11.45 21 7.4 Z"/>
</g>

<g id="Symbol_43_0_Layer0_2_FILL">
<path fill="#753C20" stroke="none" d="
M 29.25 21.05
Q 28.6 18.75 25.55 17.2
L 27.65 19.15
Q 29.55 21.75 28.25 25.1 27.6 26.85 28.1 29.95 28.55 32.5 29.25 33.75 30.7 36.4 32.55 37.15
L 33.35 37.25
Q 32.6271484375 37.043359375 31.85 36.3 30.65 35.15 30 33.35 29.1 31.1 28.85 29.6 28.45 27.45 29 25.45 29.75 22.75 29.25 21.05 Z"/>
</g>

<g id="Symbol_43_0_Layer0_3_FILL">
<path fill="#642E1A" stroke="none" d="
M 1 5.45
L 4.1 4.05
Q 6.3220703125 3.1705078125 8.2 2.8
L 7.3 2.95
Q 3.4 3.6 0.7 4.95
L 1 5.45 Z"/>
</g>

<g id="Symbol_44_0_Layer0_0_FILL">
<path fill="#FFFFFF" stroke="none" d="
M 14.55 27.2
Q 12.3 29.45 12.3 32.65 12.3 35.9 14.55 38.15 16.85 40.4 20.05 40.4 23.25 40.4 25.5 38.15 27.8 35.85 27.8 32.65 27.8 29.45 25.5 27.2 23.25 24.9 20.05 24.9 16.85 24.9 14.55 27.2 Z"/>
</g>

<g id="Symbol_44_0_Layer0_1_FILL">
<path fill="#000000" stroke="none" d="
M 12.3 32.65
Q 12.3 34.85 13.85 36.4 15.4 37.95 17.55 37.95 19.7 37.95 21.25 36.4 22.8 34.85 22.8 32.65 22.8 30.5 21.25 28.95 19.75 27.4 17.55 27.4 15.4 27.4 13.85 28.95 12.3 30.5 12.3 32.65 Z"/>
</g>

<g id="Symbol_44_0_Layer0_2_FILL">
<path fill="#FFFFFF" stroke="none" d="
M 16.45 31.65
Q 16.45 32.45 17 33 17.5 33.55 18.3 33.55 19.1 33.55 19.65 33 20.2 32.45 20.2 31.65 20.2 30.85 19.65 30.35 19.1 29.8 18.3 29.8 17.5 29.8 17 30.35 16.45 30.85 16.45 31.65 Z"/>
</g>

<g id="Symbol_44_0_Layer0_11_FILL">
<path fill="#000000" stroke="none" d="
M 28.15 32.95
L 27.95 35.05
Q 29.55 33.5 30.05 31.75
L 30.85 28.9
Q 29.6 29.35 27.6 28.2
L 25.85 26.95 27 28.75
Q 28.15 30.55 28.15 32.95 Z"/>
</g>

<g id="Mask_Mask_Symbol_14_0_Layer0_0_FILL">
<path fill="#FFFFFF" stroke="none" d="
M 94.2 -5.65
L -10.6 -3.75 -4.25 32.85 31.15 24.6 29.4 17.65
Q 21.65 16.2 19.85 9.65 18.95 6.2 20.55 2.75
L 22.35 0
Q 22.35 2.45 26 4.5 31.45 7.55 32.25 8.35 34.4 10.4 34.4 14.4 34.4 16.4 33.95 18
L 34.9 82.5 94.25 81.75 94.2 -5.65 Z"/>
</g>

<g id="Symbol_46_0_Layer0_0_FILL">
<path fill="url(#Gradient_18)" stroke="none" d="
M 12.3 11.45
Q 11.6 9.35 10.2 7.45
L 7.35 4.1
Q 5.9 2.5 5.2 3.75 4.5 4.9 5.15 6.65 5.9 8.75 4.35 15.75
L 5.25 17.85
Q 6.35 20.15 7.6 21.45 9.4 23.25 12.35 23.65 15.75 24.2 18 22.1 19.2 21.05 19.7 19.6 20.25 18.05 20 16.3
L 19.65 14.85
Q 18.45 17.95 15.7 16.05 13.2 14.35 12.3 11.45 Z"/>
</g>

<g id="Symbol_46_0_Layer0_1_FILL">
<path fill="#642E1A" stroke="none" d="
M 11.3 21.6
L 8.2 18.9 7.75 18.95
Q 11.8 23.15 15.1 23.2 16.75 23.25 17.6 22.45 14.9 24 11.3 21.6 Z"/>
</g>

<g id="Symbol_46_0_Layer0_2_FILL">
<path fill="#753C20" stroke="none" d="
M 8.2 20.5
L 6.95 19.05 6.55 19.15
Q 7.341796875 20.832421875 10.65 22.6 9.6046875 22.0015625 8.2 20.5 Z"/>
</g>

<g id="Symbol_46_0_Layer0_3_FILL">
<path fill="#642E1A" stroke="none" d="
M 11.4 16.85
L 8.85 14.25
Q 9.1 15.55 10.9 17.45 12.95 19.55 15.4 20.45 17.65 21.25 19.05 19.85
L 19.55 19.2
Q 19.079296875 19.6984375 18.25 20 16.6 20.5 14.95 19.6 13.4 18.8 11.4 16.85 Z"/>
</g>

<g id="Symbol_46_0_Layer0_4_FILL">
<path fill="url(#Gradient_19)" stroke="none" d="
M 12.8 10.3
Q 12.9 7.35 11.55 6.1
L 6.95 1.3
Q 2.45 -0.95 2.45 0.7 2.5 2.15 4.2 3.55 5.15 4.35 5.75 6.35 6.35 8.3 6.2 10 5.9 14.5 7.9 16 10.65 17.95 15.25 15.2 17.3 14 16.6 11.55
L 15.7 9.7
Q 16 10.45 15.5 11.15 15.05 11.85 13.9 11.55 12.75 11.25 12.8 10.3 Z"/>
</g>

<g id="Symbol_46_0_Layer0_5_FILL">
<path fill="url(#Gradient_20)" stroke="none" d="
M 0.35 1.95
Q 0.8 2.8 0.5 4.95
L 0.1 9.2
Q 0.1 11.55 0.9 14.15 1.85 17.25 3.4 18.55 4.5 19.5 6.85 19.6
L 10.55 19.4 11.95 19.2
Q 13.25 19.15 13.55 20.4 13.9 19.65 13.85 18.75 13.8 16.9 11.95 16.2 9.65 15.35 8.9 14.5 8 13.6 8.35 12.05 8.7 10.3 7.5 6.8 6.25 3 4.4 1.65 2.4 0.15 0.95 0.25 -0.55 0.3 0.35 1.95 Z"/>
</g>

<g id="Symbol_46_0_Layer0_6_FILL">
<path fill="#642E1A" stroke="none" d="
M 5.4 8.8
Q 5.05 6.9 4.35 5.6
L 3.85 5.85 4.55 8.25
Q 5.2 10.9 5 12.05 4.7 14 4.8 14.85 4.95 16.35 6.2 17.6 7.35 18.8 9.2 19.2
L 10.3 19.35 8.9 18.95
Q 7.65 18.35 6.55 17.2 4.95 15.55 5.55 12.05 5.8 10.75 5.4 8.8 Z"/>
</g>

<g id="Symbol_46_0_Layer0_7_FILL">
<path fill="#753C20" stroke="none" d="
M 2.7 11.5
L 2.45 7.05 1.65 7.05 2.4 15
Q 2.8 17.2 4.9 18.65 5.95 19.35 6.95 19.6 4.35 18.8 3.35 15.85 2.85 14.3 2.7 11.5 Z"/>
</g>

<g id="Symbol_46_0_Layer0_8_FILL">
<path fill="#753C20" stroke="none" d="
M 9.35 7.75
L 5.25 4 4.8 4.7
Q 8.4 6.75 9.25 8.3
L 9.9 12.2
Q 10.35 13.5 11.95 14.65 13.5 15.8 15.05 15.15
L 15.85 14.55 12.6 14.65
Q 10.6 13.7 10.4 12.5
L 10.15 9.9
Q 10 8.35 9.35 7.75 Z"/>
</g>

<g id="Symbol_46_0_Layer0_9_FILL">
<path fill="#753C20" stroke="none" d="
M 11.25 12.05
L 11.55 10
Q 11.7 8.8 11.25 7.9 10.85 7.05 8.6 5.3
L 5.4 2.6 5.55 3.6 8.05 5.45
Q 10.55 7.4 10.85 8.05
L 10.8 10.95
Q 10.75 13.3 12.2 14.45 11.15 13.55 11.25 12.05 Z"/>
</g>

<g id="Symbol_47_0_Layer0_0_FILL">
<path fill="url(#Gradient_21)" stroke="none" d="
M 17.25 20.1
Q 16.05 19.55 14.25 15.55 12.1 10.85 11.05 9.6 9.5 7.8 7 9.25
L 4.8 11.05 6.05 14.2
Q 7.7 17.75 9.8 19.7 11.95 21.6 14.8 21.05 16.25 20.75 17.25 20.1 Z"/>
</g>

<g id="Symbol_47_0_Layer0_1_FILL">
<path fill="url(#Gradient_22)" stroke="none" d="
M 15.4 12.35
L 15.35 9.6
Q 13.85 11.2 12.45 10.3 11.2 9.5 10.9 7.3 10.35 3.25 7.1 0.95 5.5 -0.25 2.85 0.05 0.2 0.3 1.45 2 2.85 3.9 3.75 6.55 4.65 9.35 4.35 11.45 4.05 13.7 6.15 15.05 8.4 16.5 11.85 15.8 14.85 15.2 15.4 12.35 Z"/>
</g>

<g id="Symbol_47_0_Layer0_2_FILL">
<path fill="url(#Gradient_23)" stroke="none" d="
M 0.3 2.7
Q 0.7 3.6 0.65 5.7
L 0.1 12.7
Q -0.15 14.3 0.3 16 0.6 17.1 1.65 17.95
L 3.35 19.25
Q 4.35 20.4 3.9 21.3 3.45 22.15 2.25 22.15
L 4.15 24.6
Q 6.85 26.9 11.05 26.1 14.4 25.45 14.35 20.9 14.3 16.25 10.15 13.95 6.5 11.9 6.55 10 7.3 8.05 7.35 7.1 7.45 5.55 6.45 3.35 5.4 1 4.35 0.95 3.45 0.95 1.8 1.85
L 0.3 2.7 Z"/>
</g>

<g id="Symbol_47_0_Layer0_3_FILL">
<path fill="#753C20" stroke="none" d="
M 2.75 6.5
Q 3.45 9.25 3 11.05 2.45 13.35 2.6 14.2 2.8 15.35 4.4 17 5.9 18.5 4.75 20.2 3.85 21.5 2.25 22.15 3.8 21.9 4.95 21.15 7.25 19.7 5.4 17.25
L 3.55 15.05
Q 2.8 13.65 3.45 11.45 3.95 9.85 3.15 5.85
L 2.25 2.15 1.35 2.7
Q 2.25 4.5 2.75 6.5 Z"/>
</g>

<g id="Symbol_47_0_Layer0_4_FILL">
<path fill="#753C20" stroke="none" d="
M 6.3 6.45
L 6.2 6.05 5.35 6.4
Q 5.7 7.65 5.1 9.25 4.4 11.1 4.4 11.9 4.4 12.95 6.8 15.95 9.45 19.25 10.15 22.7 10.5 24.55 9.35 25.6
L 8.1 26.3
Q 11.2 26.3 11.1 22.75 11 19.65 8.95 16.9
L 6.4 13.95
Q 5.35 12.75 5.35 11.45 5.35 10.95 5.7 9.7
L 6.2 7.75 6.3 6.45 Z"/>
</g>

<g id="Symbol_47_0_Layer0_5_FILL">
<path fill="#753C20" stroke="none" d="
M 8.6 8
L 9 9.85
Q 9.25 11.1 10.15 12.55 11.15 14.25 12.85 14.35 14.4 14.45 14.95 13.65 14.5 14.1 13.75 14.15 12.2 14.35 10.7 12.55 10.05 11.75 9.75 10.45
L 9.4 8.35
Q 9.2 7.55 8.15 6.45
L 7.2 5.55 7.3 6.2 7.75 6.65 8.6 8 Z"/>
</g>

<g id="Symbol_47_0_Layer0_6_FILL">
<path fill="#753C20" stroke="none" d="
M 8.4 4.4
L 8.8 4.8 9.45 6 9.9 9.3
Q 10.05 11.95 11.75 13.5
L 11.05 12.55
Q 10.2 11.05 10.25 9.1 10.3 7.3 9.85 5.75
L 9.25 4.6 8.8 4.1 8.4 4.4 Z"/>
</g>

<g id="Symbol_48_0_Layer0_0_FILL">
<path fill="url(#Gradient_24)" stroke="none" d="
M 9.05 3.3
L 22.05 15.4 21.6 13.05
Q 20.85 10.25 19.45 8.3 18.2 6.55 14.25 5.45 10.15 4.25 9.05 3.3 Z"/>
</g>

<g id="Symbol_48_0_Layer0_1_FILL">
<path fill="url(#Gradient_25)" stroke="none" d="
M 21.15 23.65
Q 20.65 22.55 22.15 20.5 23.9 18.15 23.75 16.55 23.6 14.6 21.2 12.95
L 17.4 10.25
Q 16.45 9.15 16 7.1 15.55 4.95 14.95 4.2 14.15 3.2 12.9 3.15
L 10.8 3.1
Q 10.25 2.95 8.9 1.6
L 6.85 0.1 0 0.35 3.85 2.8
Q 5 3.8 5.65 6
L 7.4 8
Q 9.4 10.3 10.35 12.1 10.9 13.05 13.15 14.9 14.7 16.15 14.6 18.15 14.5 20.3 17.8 22.2 19.5 23.15 21.15 23.65 Z"/>
</g>

<g id="Symbol_48_0_Layer0_2_FILL">
<path fill="url(#Gradient_26)" stroke="none" d="
M 14.05 11.45
Q 11.25 9.35 10.8 7.85
L 9.8 4.85
Q 9.25 3.6 8.2 3 7.2 2.45 5 2.2
L 2.95 2.1 4.1 3.1
Q 5.3 4.4 5.65 6 6.1 7.75 6.05 9.95 6.65 10.2 7.45 11.5 8.3 12.85 8.65 14.1
L 9.15 19.55
Q 9.45 22.85 11.65 25.85 12.75 27.35 14.9 27.7 16.95 28 18.95 27.2 21.5 26.1 25.35 23.15 20.05 22.9 19.25 19.15 19.25 15.15 18.25 14.4
L 14.05 11.45 Z"/>
</g>

<g id="Symbol_48_0_Layer0_3_FILL">
<path fill="#753C20" stroke="none" d="
M 12.9 10.55
Q 9.65 8.8 8.95 6.8 8.4 5.2 7.45 4.4 6.3 3.5 4.05 3.2
L 5 4.7 6.05 4.8
Q 7.3 5.2 8 6.85 8.75 8.55 10.9 9.75
L 12.9 10.55 Z"/>
</g>

<g id="Symbol_48_0_Layer0_4_FILL">
<path fill="#753C20" stroke="none" d="
M 6.5 7.7
L 5.7 7.25 6 8.25 6.95 9.35
Q 7.55 10.3 8.15 10.55 9.85 11.25 10.8 12.55
L 11.45 13.65 12.2 13.4
Q 11.75 11.8 9.9 10.65 7.95 9.45 7.75 9.05 7.4 8.25 6.5 7.7 Z"/>
</g>

<g id="Symbol_48_0_Layer0_5_FILL">
<path fill="#642E1A" stroke="none" d="
M 19.3 24.45
L 23.2 24.7 19.1 23.8
Q 15.1 22.45 15.55 20.25 16 18.1 15.6 19.25
L 15.05 20.85
Q 15.35 23.65 19.3 24.45 Z"/>
</g>

<g id="Symbol_48_0_Layer0_6_FILL">
<path fill="#642E1A" stroke="none" d="
M 11.9 19
L 11.85 22.25
Q 12.4 25.6 15.45 26.2 14.45 25.6 13.65 24.5 12.05 22.25 13.1 19.7
L 11.9 19 Z"/>
</g>

<g id="Symbol_48_0_Layer0_7_FILL">
<path fill="#642E1A" stroke="none" d="
M 17.7 22.5
Q 18.45 22.95 19.25 22.95 17.45 22.5 17.15 20
L 17.2 17.6 16.6 19.35
Q 16.25 21.55 17.7 22.5 Z"/>
</g>

<g id="Symbol_48_0_Layer0_8_FILL">
<path fill="#753C20" stroke="none" d="
M 12.95 4.15
L 11.4 4.45 9.75 4.1 8.95 3.6 9.7 4.7 11.05 4.95 12.55 4.7
Q 14.15 4.35 14.15 7.95 14.15 10.1 14.85 11.15
L 15.55 11.8 16.35 11.2
Q 15.15 10.4 14.75 7.8
L 14.15 4.7
Q 13.65 4.1 12.95 4.15 Z"/>
</g>

<g id="Symbol_48_0_Layer0_9_FILL">
<path fill="#753C20" stroke="none" d="
M 21.6 16.7
Q 21.3 16.1 20.45 15.7
L 19.7 15.4 19.25 15.85
Q 20.55 16.55 20.85 17.2 21.15 17.75 20.7 18.55 20.35 19.2 20.15 20.15
L 20.05 21 20.45 21.5
Q 20.35 20.55 21.15 18.8 21.85 17.2 21.6 16.7 Z"/>
</g>

<g id="Symbol_48_0_Layer0_10_FILL">
<path fill="#F46F96" stroke="none" d="
M 25.25 9.3
Q 24.9 8.3 23.6 7.2 22.15 6.05 20.65 6 18.95 5.95 18.6 7.65 18.1 10.1 18.35 10.6
L 17.9 10.65
Q 16.95 10.65 16.2 11.35 15.5 12.1 15.5 13.05
L 13.55 13.1
Q 11.5 13.35 10.85 14.4 9.55 16.65 12.1 18.75 13.55 19.95 15 20.05 16.7 20.15 17.1 18.45
L 17.45 16 17.45 15.45 17.2 15.2 17.9 15.45
Q 18.9 15.45 19.65 14.75 20.35 14.05 20.35 13.05
L 20.3 12.95 22.4 12.85
Q 24.35 12.55 24.9 11.55 25.6 10.35 25.25 9.3 Z"/>
</g>

<g id="Symbol_48_0_Layer0_16_FILL">
<path fill="#753C20" stroke="none" d="
M 4.85 0.8
L 2.85 1.25 1.55 1.25 2.5 1.8 3.35 1.75
Q 4.35 1.65 5.35 1.2 7 0.45 8.75 1.5 7.15 -0.05 4.85 0.8 Z"/>
</g>

<g id="Symbol_49_0_Layer0_0_FILL">
<path fill="url(#Gradient_27)" stroke="none" d="
M 10.35 9.5
Q 11.9 8.45 12.5 5.3
L 12.8 2.35 12.4 2.35
Q 9.85 2.4 8.25 4.35
L 6.1 6.8
Q 5.05 7.25 3.25 6.5
L 1.65 5.65
Q 0.6 10.1 4.45 10.75 7.7 11.25 10.35 9.5 Z"/>
</g>

<g id="Symbol_49_0_Layer0_1_FILL">
<path fill="url(#Gradient_28)" stroke="none" d="
M 17.8 0
L 15.15 0.3
Q 12.25 0.9 10.95 2.35 10.2 3.2 9 5.25 8.25 6.6 7.1 7.15 4.85 8.2 3.65 9.55 1.85 11.5 2.9 13.7 4 16 6 15.6 7.7 15.2 8.9 13.25 13.95 4.95 18.15 4.35 17.45 1.4 17.8 0 Z"/>
</g>

<g id="Symbol_49_0_Layer0_2_FILL">
<path fill="url(#Gradient_29)" stroke="none" d="
M 17.8 0
L 15.15 0.3
Q 12.25 0.9 10.95 2.35 10.2 3.2 9 5.25 8.25 6.6 7.1 7.15 4.85 8.2 3.65 9.55 1.85 11.5 2.9 13.7 4 16 6 15.6 7.7 15.2 8.9 13.25 13.95 4.95 18.15 4.35 17.45 1.4 17.8 0 Z"/>
</g>

<g id="Symbol_49_0_Layer0_3_FILL">
<path fill="url(#Gradient_30)" stroke="none" d="
M 17.95 4.25
L 17.9 3.35
Q 13.75 3.4 10.35 6.25 9.5 6.95 7.75 9.6 6.3 11.75 4.8 12.35 3.15 13 1.5 12.35
L 0.15 11.6
Q -0.35 14.65 1 16.15 2.05 17.3 4.8 17.85 7.1 18.3 9.8 16.3 12.3 14.45 13.2 12.05 13.9 10.2 16.1 7.85
L 18.15 5.85
Q 18.8 6.25 18.35 5.65 18.05 5.25 17.95 4.25 Z"/>
</g>

<g id="Symbol_49_0_Layer0_4_FILL">
<path fill="url(#Gradient_31)" stroke="none" d="
M 18.45 5.3
L 18.15 4.35
Q 15.4 5.2 13.7 6.35 12.2 7.4 10.95 9.25 10.1 10.4 10.35 12.1 10.55 13.6 9.8 14.2 8.8 15 7.85 14.2
L 7.1 13.3
Q 4.65 14.7 6.1 17.75 6.65 18.9 9.65 18.8 12.4 18.7 15.3 17.75 19 16.6 16.95 10.7 16.55 9.5 17.8 8.05
L 19.15 6.9 18.45 5.3 Z"/>
</g>

<g id="Symbol_49_0_Layer0_5_FILL">
<path fill="#66301D" stroke="none" d="
M 7.35 16.25
Q 6.85 14 6.8 14.4 6.7 17.3 7.95 18.35 8.6 18.85 9.25 18.8
L 11.15 18.7
Q 8.5 18.75 7.35 16.25 Z"/>
</g>

<g id="Symbol_49_0_Layer0_6_FILL">
<path fill="#753C20" stroke="none" d="
M 15.15 10.7
Q 14.6 8.8 15.55 7.95 17 6.75 18.6 6.2
L 18.35 5.65 16.85 6.25
Q 15.25 7 14.75 7.8 13.95 9.05 14.65 11.1 15.15 12.55 16.1 13.8 17.05 14.95 16.65 16.3
L 16.05 17.45 16.95 16.15
Q 17.6 14.65 16.65 13.5 15.6 12.3 15.15 10.7 Z"/>
</g>

<g id="Symbol_49_0_Layer0_7_FILL">
<path fill="#753C20" stroke="none" d="
M 8.55 10.65
Q 4.5 14.8 2.15 14.05 0 13.4 0.05 12.4
L 0 13.1
Q 0.2 13.9 1.3 14.35 3.5 15.25 6.25 13.05 7.65 11.95 8.55 10.65 Z"/>
</g>

<g id="Symbol_49_0_Layer0_8_FILL">
<path fill="#753C20" stroke="none" d="
M 0.35 15.2
Q 0.7 15.75 1.5 16.1
L 3.55 16.55 5.6 16.1 5.6 15.5
Q 4.85 16.15 3.3 16.15 1.4 16.15 0.35 15.2 Z"/>
</g>

<g id="Symbol_49_0_Layer0_9_FILL">
<path fill="#753C20" stroke="none" d="
M 8 14.35
L 9.75 12.05 10.25 11.55 10.25 11.25
Q 9.05 12.1 8.55 13.15
L 7.75 14.15 8 14.35 Z"/>
</g>

<g id="Symbol_49_0_Layer0_10_FILL">
<path fill="#753C20" stroke="none" d="
M 4.05 11.15
Q 3.4 11.95 3.2 12.7
L 3.45 12.7
Q 4.15 11.25 5.95 10.35
L 7.6 9.75 7.9 9.3
Q 5.45 9.6 4.05 11.15 Z"/>
</g>

<g id="Symbol_49_0_Layer0_11_FILL">
<path fill="#642E1A" stroke="none" d="
M 14.6 2.95
L 13.75 4.15 14.4 3.95
Q 15.1 2.7 16.45 2.05
L 17.7 1.6 17.7 1.25
Q 15.65 1.85 14.6 2.95 Z"/>
</g>

<g id="Symbol_49_0_Layer0_12_FILL">
<path fill="#753C20" stroke="none" d="
M 15 7.5
Q 14.1 8.3 13.5 9.5 12.65 11.05 12.95 12.35
L 14.25 14.5
Q 15.15 15.65 15 16.95
L 15.3 15.8
Q 15.35 14.3 13.95 12.8 13.4 12.1 13.5 11 13.6 9.85 14.4 9.05
L 15 7.5 Z"/>
</g>

<g id="Symbol_49_0_Layer0_13_FILL">
<path fill="#753C20" stroke="none" d="
M 14.75 17.15
Q 13.05 18.35 12.15 18.55
L 13.4 18.3
Q 14.75 17.65 14.75 17.15 Z"/>
</g>

<g id="Symbol_19_0_Layer0_0_FILL">
<path fill="#B9533A" stroke="none" d="
M 29.5 14.05
Q 28.8 10.25 25.1 8.45 22.9 7.35 21.7 4.45
L 21 1.8 20.65 2.55
Q 18.95 6.1 19.85 9.6 21.6 15.9 28.95 17.5
L 29.4 17.55
Q 29.8 16 29.5 14.05 Z"/>
</g>

<path id="Layer0_7_1_STROKES" stroke="#000000" stroke-width="3" stroke-linejoin="round" stroke-linecap="round" fill="none" d="
M 217.1 617.4388000488282
L 209.1 651.53671875
Q 201.6 687.534521484375 205.1 701.4336730957032
L 215.6 702.8335876464844
Q 228.5 702.73359375 241 696.2339904785156 239.79999999999998 682.734814453125 239.2 671.4355041503907"/>

<path id="Layer0_7_MEMBER_0_1_STROKES" stroke="#000000" stroke-width="3" stroke-linejoin="round" stroke-linecap="round" fill="none" d="
M 158.6 616.9388305664063
L 157.7 619.7386596679687
Q 156.1 624.33837890625 141.2 655.4364807128907 127.1 687.1345458984374 128.1 700.7337158203125
L 138.39999999999998 704.33349609375 152.1 705.6334167480468"/>

<path id="Layer0_7_MEMBER_1_1_STROKES" stroke="#000000" stroke-width="3" stroke-linejoin="round" stroke-linecap="round" fill="none" d="
M 141.5 565.4419738769532
L 153.6 575.6413513183593
M 200.89999999999998 562.4421569824219
L 170.1 536.6437316894531"/>

<path id="Layer0_7_MEMBER_2_1_STROKES" stroke="#000000" stroke-width="3" stroke-linejoin="round" stroke-linecap="round" fill="none" d="
M 177.1 623.9384033203125
Q 170.89999999999998 623.4384338378907 166.7 621.4385559082032 155.7 616.3388671875 151.7 600.7398193359375 147.6 584.2408264160156 156.5 574.1414428710937
M 199.5 563.4420959472657
Q 203.6 562.0421813964844 210.3 558.0424255371094 217.39999999999998 553.8426818847656 220.6 552.5427612304687
L 235.7 552.9427368164063
Q 237.6 553.5427001953125 239.2 554.4426452636719
M 232.6 606.9394409179688
Q 225.39999999999998 614.1390014648437 214 618.5387329101562 208 620.8385925292969 201.1 622.2385070800781"/>

<path id="Layer0_7_MEMBER_3_1_STROKES" stroke="#000000" stroke-width="3" stroke-linejoin="round" stroke-linecap="round" fill="none" d="
M 225.89999999999998 551.2428405761718
Q 236.4 550.4428894042969 244.79999999999998 557.4424621582032 252.5 563.7420776367187 254 572.0415710449219 255 577.1412597656249 252.1 586.2407043457031 249.4 594.6401916503905 250.5 597.939990234375 251.4 600.639825439453 258.9 609.3392944335938 266.1 617.4388000488282 266.7 622.1385131835937 267 624.638360595703 266.1 629.8380432128906
L 264.5 639.537451171875
Q 262.7 652.7366455078125 268 661.5361083984375 265 664.2359436035156 259.2 666.8357849121094 247.6 672.0354675292969 233.2 671.1355224609374
L 230.2 663.6359802246093
Q 227.3 654.5365356445312 228.1 646.5370239257812 228.6 640.5373901367187 235.2 632.5378784179687 241.1 625.2383239746093 240.4 622.7384765625
L 237.1 608.639337158203
Q 232.4 607.539404296875 227.39999999999998 604.2396057128906 217.2 597.5400146484375 215.1 585.8407287597656"/>

<path id="Layer0_7_MEMBER_4_1_STROKES" stroke="#000000" stroke-width="3" stroke-linejoin="round" stroke-linecap="round" fill="none" d="
M 175.1 609.7392700195312
L 176.2 617.7387817382812
Q 177 626.738232421875 175.39999999999998 632.337890625 174.2 636.8376159667969 162 667.7357299804687 150.8 699.2338073730468 153 712.033026123047
L 163.5 714.4328796386719
Q 176.6 715.8327941894531 190 711.2330749511718 190.2 679.535009765625 193.1 661.6361022949218 194.89999999999998 650.4367858886719 198.6 635.1377197265624
L 202 622.1385131835937"/>

<path id="Symbol_44_0_Layer0_3_1_STROKES" stroke="#000000" stroke-width="1.5" stroke-linejoin="round" stroke-linecap="round" fill="none" d="
M 20.5 11.45
Q 16.7 12.9 14 15.8 12.15 17.8 10.35 21.2 8.55 24.5 7.4 31.55 6.85 35.1 6.6 37.95
L 3.75 40.3
Q 0.85 43.45 0.85 47.45 0.85 51.2 3.4 53.85 5.25 55.75 8 56.75
L 18.1 57.3
Q 24.8 56.8 28.4 55.6 32.2 54.35 34.05 52.65 37.3 49.6 37.3 44"/>

<path id="Symbol_44_0_Layer0_4_1_STROKES" stroke="#000000" stroke-width="1.5" stroke-linejoin="round" stroke-linecap="round" fill="none" d="
M 34.4 11.75
Q 39.1 14.7 41.55 23.1 43 27.9 43.9 36.1"/>

<path id="Symbol_44_0_Layer0_5_1_STROKES" stroke="#000000" stroke-width="1.5" stroke-linejoin="round" stroke-linecap="round" fill="none" d="
M 12.3 32.65
Q 12.3 35.9 14.55 38.15 16.85 40.4 20.05 40.4 23.25 40.4 25.5 38.15 27.8 35.85 27.8 32.65 27.8 29.45 25.5 27.2 23.25 24.9 20.05 24.9 16.85 24.9 14.55 27.2 12.3 29.45 12.3 32.65 Z"/>

<path id="Symbol_44_0_Layer0_6_1_STROKES" stroke="#000000" stroke-width="1.5" stroke-linejoin="round" stroke-linecap="round" fill="none" d="
M 31.65 27.05
Q 30.55 29.15 28.4 28.45 27.4 28.1 26.1 26.8 23.65 24.25 20.05 24.25 15.95 24.25 13.45 27.4"/>

<path id="Symbol_44_0_Layer0_7_1_STROKES" stroke="#000000" stroke-width="1.5" stroke-linejoin="round" stroke-linecap="round" fill="none" d="
M 12.6 57.45
Q 16.65 55.6 17.15 52.8
L 16.9 50.35"/>

<path id="Symbol_44_0_Layer0_8_1_STROKES" stroke="#000000" stroke-width="1.5" stroke-linejoin="round" stroke-linecap="round" fill="none" d="
M 7.5 43.75
Q 9 43.6 9.45 45.6 9.85 47.55 8.95 49.75 8.65 50.6 7.75 50.8 6.8 51 6.05 50.35"/>

<path id="Symbol_44_0_Layer0_9_1_STROKES" stroke="#000000" stroke-width="1.5" stroke-linejoin="round" stroke-linecap="round" fill="none" d="
M 29.5 25.75
L 28.9 26.45
Q 28 27.1 26.4 26.9"/>

<path id="Symbol_44_0_Layer0_10_1_STROKES" stroke="#000000" stroke-width="1.5" stroke-linejoin="round" stroke-linecap="round" fill="none" d="
M 26.4 24.5
L 25.4 25.05
Q 24.05 25.45 22 24.65"/>

<path id="Symbol_48_0_Layer0_11_1_STROKES" stroke="#C3015D" stroke-width="1.5" stroke-linejoin="round" stroke-linecap="round" fill="none" d="
M 15.45 13.05
Q 15.45 13.75 16.45 14.65
L 17.85 15.45
Q 18.85 15.45 19.55 14.75 20.25 14.05 20.25 13.05 20.25 12.4 19.25 11.5 18.35 10.65 17.85 10.65 16.9 10.65 16.15 11.35 15.45 12.1 15.45 13.05 Z"/>

<path id="Symbol_48_0_Layer0_12_1_STROKES" stroke="#C3015D" stroke-width="1.5" stroke-linejoin="round" stroke-linecap="round" fill="none" d="
M 15.45 13.05
L 13.5 13.1
Q 11.45 13.35 10.8 14.4 9.5 16.65 12.05 18.75 13.5 19.95 14.95 20.05 16.65 20.15 17.05 18.45
L 17.4 16 17.4 15.45"/>

<path id="Symbol_48_0_Layer0_13_1_STROKES" stroke="#C3015D" stroke-width="1.5" stroke-linejoin="round" stroke-linecap="round" fill="none" d="
M 20.2 12.95
L 22.15 12.9
Q 24.25 12.6 24.85 11.55 25.55 10.35 25.2 9.3 24.85 8.3 23.55 7.2 22.1 6.05 20.6 6 18.9 5.95 18.55 7.65 18.05 10.1 18.3 10.6"/>

<path id="Symbol_48_0_Layer0_14_1_STROKES" stroke="#C3015D" stroke-width="1" stroke-linejoin="round" stroke-linecap="round" fill="none" d="
M 19.25 11.2
L 21.15 9.25"/>

<path id="Symbol_48_0_Layer0_15_1_STROKES" stroke="#C3015D" stroke-width="1" stroke-linejoin="round" stroke-linecap="round" fill="none" d="
M 16.05 14.15
L 15.25 15
Q 14.5 15.95 14.6 16.4 14.8 17.1 15.35 16.8"/>

<path id="Symbol_19_0_Layer0_1_1_STROKES" stroke="#000000" stroke-width="1.5" stroke-linejoin="round" stroke-linecap="round" fill="none" d="
M 34 17.95
Q 34.45 16.35 34.4 14.35 34.4 10.35 32.25 8.3
L 26.05 4.45
Q 22.35 2.4 22.35 -0.05 21.35 1 20.55 2.7 18.95 6.15 19.85 9.6 21.65 16.1 29.4 17.55"/>
</defs>

<g transform="matrix( 2, 0, 0, 1.9998779296875, 100.1,433.95) ">
<g transform="matrix( 1, 0, 0, 1, 0,0) ">
<use xlink:href="#Symbol_340_0_Layer0_0_FILL"/>
</g>
</g>

<g transform="matrix( 1.865570068359375, -0.72076416015625, 0.7208251953125, 1.8654632568359375, 141.7,575.95) ">
<g transform="matrix( 1, 0, 0, 1, 0,0) ">
<use xlink:href="#Symbol_332_0_Layer0_0_FILL"/>
</g>
</g>

<g transform="matrix( 2, 0, 0, 1.9998779296875, 100.1,433.95) ">
<g transform="matrix( 1, 0, 0, 1, 0,0) ">
<use xlink:href="#Symbol_333_0_Layer0_0_FILL"/>
</g>

<g transform="matrix( 1, 0, 0, 1, 0,0) ">
<use xlink:href="#Symbol_333_0_Layer0_1_FILL"/>
</g>
</g>

<g transform="matrix( 2, 0, 0, 1.9998779296875, 163.8,580.25) ">
<g transform="matrix( 1, 0, 0, 1, 0,0) ">
<use xlink:href="#Symbol_3_0_Layer0_0_FILL"/>
</g>
</g>

<g transform="matrix( 2, 0, 0, 1.9998779296875, 214.5,557.55) ">
<g transform="matrix( 1, 0, 0, 1, 0,0) ">
<use xlink:href="#Symbol_3_0_Layer0_0_FILL"/>
</g>
</g>

<g transform="matrix( 2, 0, 0, 1.9998779296875, 100.1,433.95) ">
<g transform="matrix( 1, 0, 0, 1, 0,0) ">
<use xlink:href="#Symbol_341_0_Layer0_0_FILL"/>
</g>

<g transform="matrix( 1, 0, 0, 1, 0,0) ">
<use xlink:href="#Symbol_341_0_Layer0_1_FILL"/>
</g>

<g transform="matrix( 1, 0, 0, 1, 0,0) ">
<use xlink:href="#Symbol_341_0_Layer0_2_FILL"/>
</g>
</g>

<g transform="matrix( 1, 0, 0, 1, 0,0) ">
<mask id="Mask_Mask_1">
<g transform="matrix( 2, 0, 0, 1.9998779296875, 100.1,433.95) ">
<g transform="matrix( 1, 0, 0, 1, 0,0) ">
<use xlink:href="#Mask_Mask_Symbol_336_0_Layer0_0_FILL"/>
</g>
</g>
</mask>

<g mask="url(#Mask_Mask_1)">
<g transform="matrix( 1.0954742431640625, -1.6727447509765625, 1.5225830078125, 1.0076904296875, 227.35,551.25) ">
<g transform="matrix( 1, 0, 0, 1, 0,0) ">
<use xlink:href="#Symbol_39_0_Layer0_0_FILL"/>
</g>

<g transform="matrix( 1, 0, 0, 1, 0,0) ">
<use xlink:href="#Symbol_39_0_Layer0_1_FILL"/>
</g>

<g transform="matrix( 1, 0, 0, 1, 0,0) ">
<use xlink:href="#Symbol_39_0_Layer0_2_FILL"/>
</g>

<g transform="matrix( 1, 0, 0, 1, 0,0) ">
<use xlink:href="#Symbol_39_0_Layer0_3_FILL"/>
</g>

<g transform="matrix( 1, 0, 0, 1, 0,0) ">
<use xlink:href="#Symbol_39_0_Layer0_4_FILL"/>
</g>

<g transform="matrix( 1, 0, 0, 1, 0,0) ">
<use xlink:href="#Symbol_39_0_Layer0_5_FILL"/>
</g>

<g transform="matrix( 1, 0, 0, 1, 0,0) ">
<use xlink:href="#Symbol_39_0_Layer0_6_FILL"/>
</g>

<g transform="matrix( 1, 0, 0, 1, 0,0) ">
<use xlink:href="#Symbol_39_0_Layer0_7_FILL"/>
</g>

<g transform="matrix( 1, 0, 0, 1, 0,0) ">
<use xlink:href="#Symbol_39_0_Layer0_8_FILL"/>
</g>

<g transform="matrix( 1, 0, 0, 1, 0,0) ">
<use xlink:href="#Symbol_39_0_Layer0_9_FILL"/>
</g>

<g transform="matrix( 1, 0, 0, 1, 0,0) ">
<use xlink:href="#Symbol_39_0_Layer0_10_FILL"/>
</g>

<g transform="matrix( 1, 0, 0, 1, 0,0) ">
<use xlink:href="#Symbol_39_0_Layer0_11_FILL"/>
</g>
</g>

<g transform="matrix( 0.956878662109375, -1.7548828125, 1.61309814453125, 0.856201171875, 220.9,547.65) ">
<g transform="matrix( 1, 0, 0, 1, 0,0) ">
<use xlink:href="#Symbol_40_0_Layer0_0_FILL"/>
</g>

<g transform="matrix( 1, 0, 0, 1, 0,0) ">
<use xlink:href="#Symbol_40_0_Layer0_1_FILL"/>
</g>

<g transform="matrix( 1, 0, 0, 1, 0,0) ">
<use xlink:href="#Symbol_40_0_Layer0_2_FILL"/>
</g>

<g transform="matrix( 1, 0, 0, 1, 0,0) ">
<use xlink:href="#Symbol_40_0_Layer0_3_FILL"/>
</g>
</g>

<g transform="matrix( 1.17315673828125, -1.6170654296875, 1.3567352294921875, 1.014251708984375, 253.9,529.5) ">
<g transform="matrix( 1, 0, 0, 1, 0,0) ">
<use xlink:href="#Symbol_41_0_Layer0_0_FILL"/>
</g>

<g transform="matrix( 1, 0, 0, 1, 0,0) ">
<use xlink:href="#Symbol_41_0_Layer0_1_FILL"/>
</g>
</g>

<g transform="matrix( 0.937103271484375, -1.768310546875, 1.60260009765625, 0.86883544921875, 240.1,527.3) ">
<g transform="matrix( 1, 0, 0, 1, 0,0) ">
<use xlink:href="#Symbol_42_0_Layer0_0_FILL"/>
</g>

<g transform="matrix( 1, 0, 0, 1, 0,0) ">
<use xlink:href="#Symbol_42_0_Layer0_1_FILL"/>
</g>
</g>

<g transform="matrix( 1.0109710693359375, -1.725830078125, 1.5616912841796875, 0.94598388671875, 224.7,551.55) ">
<g transform="matrix( 1, 0, 0, 1, 0,0) ">
<use xlink:href="#Symbol_43_0_Layer0_0_FILL"/>
</g>

<g transform="matrix( 1, 0, 0, 1, 0,0) ">
<use xlink:href="#Symbol_43_0_Layer0_1_FILL"/>
</g>

<g transform="matrix( 1, 0, 0, 1, 0,0) ">
<use xlink:href="#Symbol_43_0_Layer0_2_FILL"/>
</g>

<g transform="matrix( 1, 0, 0, 1, 0,0) ">
<use xlink:href="#Symbol_43_0_Layer0_3_FILL"/>
</g>
</g>
</g>
</g>

<g transform="matrix( 2, 0, 0, 1.9998779296875, 100.1,433.95) ">
<use xlink:href="#Layer0_7_1_STROKES" transform="matrix( 0.5, 0, 0, 0.500030517578125, -50.05,-216.95) "/>
</g>

<g transform="matrix( 2, 0, 0, 1.9998779296875, 100.1,433.95) ">
<use xlink:href="#Layer0_7_MEMBER_0_1_STROKES" transform="matrix( 0.5, 0, 0, 0.500030517578125, -50.05,-216.95) "/>
</g>

<g transform="matrix( 2, 0, 0, 1.9998779296875, 100.1,433.95) ">
<use xlink:href="#Layer0_7_MEMBER_1_1_STROKES" transform="matrix( 0.5, 0, 0, 0.500030517578125, -50.05,-216.95) "/>
</g>

<g transform="matrix( 2, 0, 0, 1.9998779296875, 100.1,433.95) ">
<use xlink:href="#Layer0_7_MEMBER_2_1_STROKES" transform="matrix( 0.5, 0, 0, 0.500030517578125, -50.05,-216.95) "/>
</g>

<g transform="matrix( 2, 0, 0, 1.9998779296875, 100.1,433.95) ">
<use xlink:href="#Layer0_7_MEMBER_3_1_STROKES" transform="matrix( 0.5, 0, 0, 0.500030517578125, -50.05,-216.95) "/>
</g>

<g transform="matrix( 2, 0, 0, 1.9998779296875, 100.1,433.95) ">
<use xlink:href="#Layer0_7_MEMBER_4_1_STROKES" transform="matrix( 0.5, 0, 0, 0.500030517578125, -50.05,-216.95) "/>
</g>

<g transform="matrix( 1.8794097900390625, -0.68402099609375, 0.68408203125, 1.8792877197265625, 38.3,486.85) ">
<g transform="matrix( 1, 0, 0, 1, 0,0) ">
<use xlink:href="#Symbol_44_0_Layer0_0_FILL"/>
</g>

<g transform="matrix( 1, 0, 0, 1, 0,0) ">
<use xlink:href="#Symbol_44_0_Layer0_1_FILL"/>
</g>

<g transform="matrix( 1, 0, 0, 1, 0,0) ">
<use xlink:href="#Symbol_44_0_Layer0_2_FILL"/>
</g>

<g transform="matrix( 1, 0, 0, 1, 0,0) ">
<use xlink:href="#Symbol_44_0_Layer0_3_1_STROKES"/>
</g>

<g transform="matrix( 1, 0, 0, 1, 0,0) ">
<use xlink:href="#Symbol_44_0_Layer0_4_1_STROKES"/>
</g>

<g transform="matrix( 1, 0, 0, 1, 0,0) ">
<use xlink:href="#Symbol_44_0_Layer0_5_1_STROKES"/>
</g>

<g transform="matrix( 1, 0, 0, 1, 0,0) ">
<use xlink:href="#Symbol_44_0_Layer0_6_1_STROKES"/>
</g>

<g transform="matrix( 1, 0, 0, 1, 0,0) ">
<use xlink:href="#Symbol_44_0_Layer0_7_1_STROKES"/>
</g>

<g transform="matrix( 1, 0, 0, 1, 0,0) ">
<use xlink:href="#Symbol_44_0_Layer0_8_1_STROKES"/>
</g>

<g transform="matrix( 1, 0, 0, 1, 0,0) ">
<use xlink:href="#Symbol_44_0_Layer0_9_1_STROKES"/>
</g>

<g transform="matrix( 1, 0, 0, 1, 0,0) ">
<use xlink:href="#Symbol_44_0_Layer0_10_1_STROKES"/>
</g>

<g transform="matrix( 1, 0, 0, 1, 0,0) ">
<use xlink:href="#Symbol_44_0_Layer0_11_FILL"/>
</g>
</g>

<g transform="matrix( 1, 0, 0, 1, 0,0) ">
<mask id="Mask_Mask_2">
<g transform="matrix( 1.8794097900390625, -0.68402099609375, 0.68408203125, 1.8792877197265625, 38.3,486.85) ">
<g transform="matrix( 1, 0, 0, 1, 0,0) ">
<use xlink:href="#Mask_Mask_Symbol_14_0_Layer0_0_FILL"/>
</g>
</g>
</mask>

<g mask="url(#Mask_Mask_2)">
<g transform="matrix( 1.6383209228515625, -1.1470947265625, 1.14715576171875, 1.63824462890625, 156.9,534.05) ">
<g transform="matrix( 1, 0, 0, 1, 0,0) ">
<use xlink:href="#Symbol_46_0_Layer0_0_FILL"/>
</g>

<g transform="matrix( 1, 0, 0, 1, 0,0) ">
<use xlink:href="#Symbol_46_0_Layer0_1_FILL"/>
</g>

<g transform="matrix( 1, 0, 0, 1, 0,0) ">
<use xlink:href="#Symbol_46_0_Layer0_2_FILL"/>
</g>

<g transform="matrix( 1, 0, 0, 1, 0,0) ">
<use xlink:href="#Symbol_46_0_Layer0_3_FILL"/>
</g>

<g transform="matrix( 1, 0, 0, 1, 0,0) ">
<use xlink:href="#Symbol_46_0_Layer0_4_FILL"/>
</g>

<g transform="matrix( 1, 0, 0, 1, 0,0) ">
<use xlink:href="#Symbol_46_0_Layer0_5_FILL"/>
</g>

<g transform="matrix( 1, 0, 0, 1, 0,0) ">
<use xlink:href="#Symbol_46_0_Layer0_6_FILL"/>
</g>

<g transform="matrix( 1, 0, 0, 1, 0,0) ">
<use xlink:href="#Symbol_46_0_Layer0_7_FILL"/>
</g>

<g transform="matrix( 1, 0, 0, 1, 0,0) ">
<use xlink:href="#Symbol_46_0_Layer0_8_FILL"/>
</g>

<g transform="matrix( 1, 0, 0, 1, 0,0) ">
<use xlink:href="#Symbol_46_0_Layer0_9_FILL"/>
</g>
</g>

<g transform="matrix( 1.7666168212890625, -0.937591552734375, 0.9930877685546875, 1.8709564208984375, 131.35,502.8) ">
<g transform="matrix( 1, 0, 0, 1, 0,0) ">
<use xlink:href="#Symbol_47_0_Layer0_0_FILL"/>
</g>

<g transform="matrix( 1, 0, 0, 1, 0,0) ">
<use xlink:href="#Symbol_47_0_Layer0_1_FILL"/>
</g>

<g transform="matrix( 1, 0, 0, 1, 0,0) ">
<use xlink:href="#Symbol_47_0_Layer0_2_FILL"/>
</g>

<g transform="matrix( 1, 0, 0, 1, 0,0) ">
<use xlink:href="#Symbol_47_0_Layer0_3_FILL"/>
</g>

<g transform="matrix( 1, 0, 0, 1, 0,0) ">
<use xlink:href="#Symbol_47_0_Layer0_4_FILL"/>
</g>

<g transform="matrix( 1, 0, 0, 1, 0,0) ">
<use xlink:href="#Symbol_47_0_Layer0_5_FILL"/>
</g>

<g transform="matrix( 1, 0, 0, 1, 0,0) ">
<use xlink:href="#Symbol_47_0_Layer0_6_FILL"/>
</g>
</g>

<g transform="matrix( 1.8089447021484375, -0.8531341552734375, 0.8531951904296875, 1.8088226318359375, 94.15,479.7) ">
<g transform="matrix( 1, 0, 0, 1, 0,0) ">
<use xlink:href="#Symbol_48_0_Layer0_0_FILL"/>
</g>

<g transform="matrix( 1, 0, 0, 1, 0,0) ">
<use xlink:href="#Symbol_48_0_Layer0_1_FILL"/>
</g>

<g transform="matrix( 1, 0, 0, 1, 0,0) ">
<use xlink:href="#Symbol_48_0_Layer0_2_FILL"/>
</g>

<g transform="matrix( 1, 0, 0, 1, 0,0) ">
<use xlink:href="#Symbol_48_0_Layer0_3_FILL"/>
</g>

<g transform="matrix( 1, 0, 0, 1, 0,0) ">
<use xlink:href="#Symbol_48_0_Layer0_4_FILL"/>
</g>

<g transform="matrix( 1, 0, 0, 1, 0,0) ">
<use xlink:href="#Symbol_48_0_Layer0_5_FILL"/>
</g>

<g transform="matrix( 1, 0, 0, 1, 0,0) ">
<use xlink:href="#Symbol_48_0_Layer0_6_FILL"/>
</g>

<g transform="matrix( 1, 0, 0, 1, 0,0) ">
<use xlink:href="#Symbol_48_0_Layer0_7_FILL"/>
</g>

<g transform="matrix( 1, 0, 0, 1, 0,0) ">
<use xlink:href="#Symbol_48_0_Layer0_8_FILL"/>
</g>

<g transform="matrix( 1, 0, 0, 1, 0,0) ">
<use xlink:href="#Symbol_48_0_Layer0_9_FILL"/>
</g>

<g transform="matrix( 1, 0, 0, 1, 0,0) ">
<use xlink:href="#Symbol_48_0_Layer0_10_FILL"/>
</g>

<g transform="matrix( 1, 0, 0, 1, 0,0) ">
<use xlink:href="#Symbol_48_0_Layer0_11_1_STROKES"/>
</g>

<g transform="matrix( 1, 0, 0, 1, 0,0) ">
<use xlink:href="#Symbol_48_0_Layer0_12_1_STROKES"/>
</g>

<g transform="matrix( 1, 0, 0, 1, 0,0) ">
<use xlink:href="#Symbol_48_0_Layer0_13_1_STROKES"/>
</g>

<g transform="matrix( 1, 0, 0, 1, 0,0) ">
<use xlink:href="#Symbol_48_0_Layer0_14_1_STROKES"/>
</g>

<g transform="matrix( 1, 0, 0, 1, 0,0) ">
<use xlink:href="#Symbol_48_0_Layer0_15_1_STROKES"/>
</g>

<g transform="matrix( 1, 0, 0, 1, 0,0) ">
<use xlink:href="#Symbol_48_0_Layer0_16_FILL"/>
</g>
</g>

<g transform="matrix( 1.9295806884765625, -0.52593994140625, 0.525970458984375, 1.9294586181640625, 44.45,492.7) ">
<g transform="matrix( 1, 0, 0, 1, 0,0) ">
<use xlink:href="#Symbol_49_0_Layer0_0_FILL"/>
</g>

<g transform="matrix( 1, 0, 0, 1, 0,0) ">
<use xlink:href="#Symbol_49_0_Layer0_1_FILL"/>
</g>

<g transform="matrix( 1, 0, 0, 1, 0,0) ">
<use xlink:href="#Symbol_49_0_Layer0_2_FILL"/>
</g>

<g transform="matrix( 1, 0, 0, 1, 0,0) ">
<use xlink:href="#Symbol_49_0_Layer0_3_FILL"/>
</g>

<g transform="matrix( 1, 0, 0, 1, 0,0) ">
<use xlink:href="#Symbol_49_0_Layer0_4_FILL"/>
</g>

<g transform="matrix( 1, 0, 0, 1, 0,0) ">
<use xlink:href="#Symbol_49_0_Layer0_5_FILL"/>
</g>

<g transform="matrix( 1, 0, 0, 1, 0,0) ">
<use xlink:href="#Symbol_49_0_Layer0_6_FILL"/>
</g>

<g transform="matrix( 1, 0, 0, 1, 0,0) ">
<use xlink:href="#Symbol_49_0_Layer0_7_FILL"/>
</g>

<g transform="matrix( 1, 0, 0, 1, 0,0) ">
<use xlink:href="#Symbol_49_0_Layer0_8_FILL"/>
</g>

<g transform="matrix( 1, 0, 0, 1, 0,0) ">
<use xlink:href="#Symbol_49_0_Layer0_9_FILL"/>
</g>

<g transform="matrix( 1, 0, 0, 1, 0,0) ">
<use xlink:href="#Symbol_49_0_Layer0_10_FILL"/>
</g>

<g transform="matrix( 1, 0, 0, 1, 0,0) ">
<use xlink:href="#Symbol_49_0_Layer0_11_FILL"/>
</g>

<g transform="matrix( 1, 0, 0, 1, 0,0) ">
<use xlink:href="#Symbol_49_0_Layer0_12_FILL"/>
</g>

<g transform="matrix( 1, 0, 0, 1, 0,0) ">
<use xlink:href="#Symbol_49_0_Layer0_13_FILL"/>
</g>
</g>
</g>
</g>

<g transform="matrix( 1.8794097900390625, -0.68402099609375, 0.68408203125, 1.8792877197265625, 38.2,486.9) ">
<g transform="matrix( 1, 0, 0, 1, 0,0) ">
<use xlink:href="#Symbol_19_0_Layer0_0_FILL"/>
</g>

<g transform="matrix( 1, 0, 0, 1, 0,0) ">
<use xlink:href="#Symbol_19_0_Layer0_1_1_STROKES"/>
</g>
</g>
</svg>
