
<svg xmlns="http://www.w3.org/2000/svg" version="1.1" xmlns:xlink="http://www.w3.org/1999/xlink" preserveAspectRatio="none" x="0px" y="0px" width="330px" height="358px" viewBox="0 0 330 358">
<defs>
<linearGradient id="Gradient_1" gradientUnits="userSpaceOnUse" x1="119.85000000000001" y1="267.1375" x2="125.05" y2="258.16249999999997" spreadMethod="pad">
<stop  offset="2.7450980392156863%" stop-color="#FFFFFF" stop-opacity="0"/>

<stop  offset="76.86274509803921%" stop-color="#FFFFFF" stop-opacity="0.4980392156862745"/>
</linearGradient>

<linearGradient id="Gradient_2" gradientUnits="userSpaceOnUse" x1="140.8375" y1="290.2125" x2="158.36249999999998" y2="272.6875" spreadMethod="pad">
<stop  offset="9.803921568627452%" stop-color="#FFFFFF" stop-opacity="0"/>

<stop  offset="43.13725490196079%" stop-color="#FFFFFF" stop-opacity="0.6980392156862745"/>

<stop  offset="61.96078431372549%" stop-color="#FFFFFF" stop-opacity="0.6980392156862745"/>

<stop  offset="92.94117647058823%" stop-color="#FFFFFF" stop-opacity="0"/>
</linearGradient>

<linearGradient id="Gradient_3" gradientUnits="userSpaceOnUse" x1="56.275000000000006" y1="129.15" x2="76.125" y2="129.15" spreadMethod="pad">
<stop  offset="23.529411764705884%" stop-color="#FFFFFF" stop-opacity="0.6980392156862745"/>

<stop  offset="98.43137254901961%" stop-color="#FFFFFF" stop-opacity="0"/>
</linearGradient>

<linearGradient id="Gradient_4" gradientUnits="userSpaceOnUse" x1="20.775" y1="128.5" x2="39.725" y2="129" spreadMethod="pad">
<stop  offset="23.529411764705884%" stop-color="#FFFFFF" stop-opacity="0.6980392156862745"/>

<stop  offset="98.43137254901961%" stop-color="#FFFFFF" stop-opacity="0"/>
</linearGradient>

<radialGradient id="Gradient_5" gradientUnits="userSpaceOnUse" cx="0" cy="0" r="8.512499999999989" fx="0" fy="0" gradientTransform="matrix( 1.0000000000000013, 0, 0, -1.0000000000000013, 159.1,287) " spreadMethod="pad">
<stop  offset="29.41176470588235%" stop-color="#FFFFFF" stop-opacity="0.6"/>

<stop  offset="100%" stop-color="#FFFFFF" stop-opacity="0"/>
</radialGradient>

<linearGradient id="Gradient_6" gradientUnits="userSpaceOnUse" x1="121.69999999999999" y1="408.73749999999995" x2="111" y2="402.5625" spreadMethod="pad">
<stop  offset="38.8235294117647%" stop-color="#FFFFFF" stop-opacity="0"/>

<stop  offset="70.98039215686275%" stop-color="#FFFFFF" stop-opacity="0.6980392156862745"/>
</linearGradient>

<linearGradient id="Gradient_7" gradientUnits="userSpaceOnUse" x1="111.85" y1="420.3875" x2="111.85" y2="429.91249999999997" spreadMethod="pad">
<stop  offset="17.254901960784313%" stop-color="#FFFFFF" stop-opacity="0.2"/>

<stop  offset="88.62745098039215%" stop-color="#FFFFFF" stop-opacity="0.6980392156862745"/>
</linearGradient>

<linearGradient id="Gradient_8" gradientUnits="userSpaceOnUse" x1="134.48749999999998" y1="419.33750000000003" x2="129.4125" y2="414.2625" spreadMethod="pad">
<stop  offset="0%" stop-color="#FFFFFF" stop-opacity="0"/>

<stop  offset="100%" stop-color="#FFFFFF" stop-opacity="0.6980392156862745"/>
</linearGradient>

<linearGradient id="Gradient_9" gradientUnits="userSpaceOnUse" x1="270.55" y1="269.95" x2="270.55" y2="237.25" spreadMethod="pad">
<stop  offset="0%" stop-color="#CE8B5E"/>

<stop  offset="54.90196078431372%" stop-color="#AA6834"/>

<stop  offset="93.33333333333333%" stop-color="#6D411A"/>
</linearGradient>

<linearGradient id="Gradient_10" gradientUnits="userSpaceOnUse" x1="240.52499999999998" y1="253.55" x2="280.775" y2="253.55" spreadMethod="pad">
<stop  offset="0%" stop-color="#CE8B5E"/>

<stop  offset="54.90196078431372%" stop-color="#AA6834"/>

<stop  offset="93.33333333333333%" stop-color="#6D411A"/>
</linearGradient>

<linearGradient id="Gradient_11" gradientUnits="userSpaceOnUse" x1="235.54999999999998" y1="292.85" x2="256.15" y2="292.85" spreadMethod="pad">
<stop  offset="0%" stop-color="#CE8B5E"/>

<stop  offset="54.90196078431372%" stop-color="#AA6834"/>

<stop  offset="93.33333333333333%" stop-color="#6D411A"/>
</linearGradient>

<linearGradient id="Gradient_12" gradientUnits="userSpaceOnUse" x1="242.4375" y1="299.25" x2="258.2625" y2="299.25" spreadMethod="pad">
<stop  offset="0%" stop-color="#CE8B5E"/>

<stop  offset="54.90196078431372%" stop-color="#AA6834"/>

<stop  offset="93.33333333333333%" stop-color="#6D411A"/>
</linearGradient>

<linearGradient id="Gradient_13" gradientUnits="userSpaceOnUse" x1="262.4" y1="292.1" x2="274.6" y2="292.1" spreadMethod="pad">
<stop  offset="0%" stop-color="#CE8B5E"/>

<stop  offset="54.90196078431372%" stop-color="#AA6834"/>

<stop  offset="93.33333333333333%" stop-color="#6D411A"/>
</linearGradient>

<linearGradient id="Gradient_14" gradientUnits="userSpaceOnUse" x1="275.95" y1="279.28749999999997" x2="275.95" y2="301.5125" spreadMethod="pad">
<stop  offset="7.0588235294117645%" stop-color="#CE8B5E"/>

<stop  offset="30.980392156862745%" stop-color="#AA6834"/>

<stop  offset="87.05882352941177%" stop-color="#6D411A"/>
</linearGradient>

<linearGradient id="Gradient_15" gradientUnits="userSpaceOnUse" x1="261.35" y1="352.9625" x2="261.35" y2="317.3375" spreadMethod="pad">
<stop  offset="0%" stop-color="#CE8B5E"/>

<stop  offset="54.90196078431372%" stop-color="#AA6834"/>

<stop  offset="93.33333333333333%" stop-color="#6D411A"/>
</linearGradient>

<linearGradient id="Gradient_16" gradientUnits="userSpaceOnUse" x1="202.4625" y1="282.7" x2="232.5375" y2="282.7" spreadMethod="pad">
<stop  offset="8.627450980392156%" stop-color="#CE8B5E"/>

<stop  offset="49.80392156862745%" stop-color="#AA6834"/>

<stop  offset="89.80392156862744%" stop-color="#6D411A"/>
</linearGradient>

<linearGradient id="Gradient_17" gradientUnits="userSpaceOnUse" x1="222.2" y1="277.95" x2="222.2" y2="318.95" spreadMethod="pad">
<stop  offset="0%" stop-color="#A26331"/>

<stop  offset="20%" stop-color="#CE8B5E"/>

<stop  offset="54.11764705882353%" stop-color="#AA6834"/>

<stop  offset="93.33333333333333%" stop-color="#6D411A"/>
</linearGradient>

<linearGradient id="Gradient_18" gradientUnits="userSpaceOnUse" x1="213.2375" y1="424.15" x2="229.7625" y2="424.15" spreadMethod="pad">
<stop  offset="16.470588235294116%" stop-color="#CE8B5E"/>

<stop  offset="44.31372549019608%" stop-color="#AA6834"/>

<stop  offset="72.54901960784314%" stop-color="#6D411A"/>
</linearGradient>

<linearGradient id="Gradient_19" gradientUnits="userSpaceOnUse" x1="220.25" y1="409.375" x2="220.25" y2="441.32500000000005" spreadMethod="pad">
<stop  offset="8.627450980392156%" stop-color="#CE8B5E"/>

<stop  offset="49.80392156862745%" stop-color="#AA6834"/>

<stop  offset="89.80392156862744%" stop-color="#6D411A"/>
</linearGradient>

<linearGradient id="Gradient_20" gradientUnits="userSpaceOnUse" x1="215.9" y1="438.525" x2="215.9" y2="412.975" spreadMethod="pad">
<stop  offset="0%" stop-color="#CE8B5E"/>

<stop  offset="21.176470588235293%" stop-color="#AA6834"/>

<stop  offset="46.27450980392157%" stop-color="#6D411A"/>
</linearGradient>

<linearGradient id="Gradient_21" gradientUnits="userSpaceOnUse" x1="178.42499999999998" y1="410.9" x2="193.475" y2="410.9" spreadMethod="pad">
<stop  offset="0%" stop-color="#CE8B5E"/>

<stop  offset="21.176470588235293%" stop-color="#AA6834"/>

<stop  offset="49.80392156862745%" stop-color="#6D411A"/>
</linearGradient>

<linearGradient id="Gradient_22" gradientUnits="userSpaceOnUse" x1="184.4" y1="398.4625" x2="184.4" y2="427.4375" spreadMethod="pad">
<stop  offset="0%" stop-color="#CE8B5E"/>

<stop  offset="54.90196078431372%" stop-color="#AA6834"/>

<stop  offset="93.33333333333333%" stop-color="#6D411A"/>
</linearGradient>

<linearGradient id="Gradient_23" gradientUnits="userSpaceOnUse" x1="185.5" y1="399.375" x2="185.5" y2="417.625" spreadMethod="pad">
<stop  offset="0%" stop-color="#CE8B5E"/>

<stop  offset="54.90196078431372%" stop-color="#AA6834"/>

<stop  offset="93.33333333333333%" stop-color="#6D411A"/>
</linearGradient>

<linearGradient id="Gradient_24" gradientUnits="userSpaceOnUse" x1="27.4375" y1="14.7375" x2="45.462500000000006" y2="10.0625" spreadMethod="pad">
<stop  offset="0%" stop-color="#CE8B5E"/>

<stop  offset="36.86274509803921%" stop-color="#AA6834"/>

<stop  offset="78.03921568627452%" stop-color="#6D411A"/>
</linearGradient>

<linearGradient id="Gradient_25" gradientUnits="userSpaceOnUse" x1="136.01250000000002" y1="389.7" x2="155.7875" y2="389.7" spreadMethod="pad">
<stop  offset="0%" stop-color="#CE8B5E"/>

<stop  offset="30.19607843137255%" stop-color="#AA6834"/>

<stop  offset="82.3529411764706%" stop-color="#70431B"/>

<stop  offset="100%" stop-color="#6D411A"/>
</linearGradient>

<linearGradient id="Gradient_26" gradientUnits="userSpaceOnUse" x1="148" y1="384.3625" x2="148" y2="406.1375" spreadMethod="pad">
<stop  offset="0%" stop-color="#CE8B5E"/>

<stop  offset="21.176470588235293%" stop-color="#AA6834"/>

<stop  offset="49.80392156862745%" stop-color="#6D411A"/>
</linearGradient>

<linearGradient id="Gradient_27" gradientUnits="userSpaceOnUse" x1="147.55" y1="386.875" x2="147.55" y2="408.125" spreadMethod="pad">
<stop  offset="0%" stop-color="#CE8B5E"/>

<stop  offset="36.86274509803921%" stop-color="#AA6834"/>

<stop  offset="78.03921568627452%" stop-color="#6D411A"/>
</linearGradient>

<linearGradient id="Gradient_28" gradientUnits="userSpaceOnUse" x1="117.8" y1="392.7" x2="127.8" y2="392.7" spreadMethod="pad">
<stop  offset="0%" stop-color="#CE8B5E"/>

<stop  offset="29.41176470588235%" stop-color="#AA6834"/>

<stop  offset="60.78431372549019%" stop-color="#6D411A"/>
</linearGradient>

<linearGradient id="Gradient_29" gradientUnits="userSpaceOnUse" x1="116.4" y1="387.25" x2="116.4" y2="399.45000000000005" spreadMethod="pad">
<stop  offset="0%" stop-color="#CE8B5E"/>

<stop  offset="41.96078431372549%" stop-color="#AA6834"/>

<stop  offset="87.45098039215686%" stop-color="#6D411A"/>
</linearGradient>

<linearGradient id="Gradient_30" gradientUnits="userSpaceOnUse" x1="126.8125" y1="390.9" x2="107.38749999999999" y2="390.9" spreadMethod="pad">
<stop  offset="0%" stop-color="#CE8B5E"/>

<stop  offset="29.41176470588235%" stop-color="#AA6834"/>

<stop  offset="60.78431372549019%" stop-color="#6D411A"/>
</linearGradient>

<linearGradient id="Gradient_31" gradientUnits="userSpaceOnUse" x1="124.8125" y1="386.6" x2="106.88749999999999" y2="386.6" spreadMethod="pad">
<stop  offset="0%" stop-color="#CE8B5E"/>

<stop  offset="41.96078431372549%" stop-color="#AA6834"/>

<stop  offset="87.45098039215686%" stop-color="#6D411A"/>
</linearGradient>

<g id="anims_pony_jump_anim_clean_gradients_27_Layer6_0_MEMBER_0_FILL">
<path fill="url(#Gradient_1)" stroke="none" d="
M 116.45 261.75
Q 114.45 262.8 112.9 263.15
L 128.05 269.1
Q 125.5 267.3 124.3 262.85
L 123.6 258.7
Q 123.05 258.35 122.7 257.45
L 122.4 256.6
Q 120.35 259.75 116.45 261.75 Z"/>
</g>

<g id="anims_pony_jump_anim_clean_gradients_27_Layer5_0_MEMBER_0_FILL">
<path fill="url(#Gradient_2)" stroke="none" d="
M 157.65 272.2
Q 155.75 271.3 153.8 272.15 151.75 272.85 150.65 273.4 147.2 275.2 145.2 279.15 143.35 282.9 143.5 287 143.65 291.15 144.7 294.05 144.55 292.45 144.65 290.3 144.9 286 146.25 283.45 149 278.5 152.75 276.9 153.75 276.45 155.6 275.85 157.15 275.3 158.05 274.5 159.6 273.1 157.65 272.2 Z"/>
</g>

<g id="anims_pony_jump_anim_clean_gradients_27_Layer4_0_MEMBER_0_FILL">
<path fill="url(#Gradient_3)" stroke="none" d="
M 75.25 130.75
Q 71.2 127.15 67.75 125.25 65.6 124.05 62.1 123.1
L 59 122.4
Q 57.1 127.8 55.9 133.8 62.1 136.6 69.55 135.7 73.25 135.3 75.75 134.3 75.25 132.75 75.25 130.75 Z"/>
</g>

<g id="anims_pony_jump_anim_clean_gradients_27_Layer3_0_MEMBER_0_FILL">
<path fill="url(#Gradient_4)" stroke="none" d="
M 39.5 129.95
Q 34.95 126.6 30.15 124.2 27.2 122.75 23.8 122.05
L 21.05 121.65
Q 20.3 129.9 21.65 134.05
L 27.1 135.4
Q 33.8 136.3 40.1 134.1
L 39.5 129.95 Z"/>
</g>

<g id="pony_circle_gradient_0_Layer0_0_FILL">
<path fill="url(#Gradient_5)" stroke="none" d="
M 159.1 278.45
Q 155.6 278.45 153.05 280.95 150.55 283.5 150.55 287 150.55 290.5 153.05 293 155.55 295.5 159.1 295.5 162.65 295.5 165.1 293 167.6 290.55 167.6 287 167.6 283.45 165.1 280.95 162.6 278.45 159.1 278.45 Z"/>
</g>

<g id="anims_pony_jump_anim_clean_gradients_27_Layer0_0_FILL">
<path fill="url(#Gradient_6)" stroke="none" d="
M 130.55 389.8
Q 136.4 384.95 133.2 384.95 125.3 384.95 120.65 388.75 118.75 390.3 114.8 396 112.9 398.85 111.95 403.35 111.45 405.75 110.75 409.35 110.4 410.4 107.25 415.15 104.5 419.25 104.65 420.75 104.9 423.2 105.9 426.55 107.1 430.5 108.35 431.75 107.55 429.65 107.05 426.75 106.05 420.8 109.1 418.3 111.05 417.05 112.05 415.9 113.95 413.85 114.15 410.65 114.4 406.6 114.85 404.6 115.7 400.9 117.75 399.35 127.85 392.05 130.55 389.8 Z"/>
</g>

<g id="anims_pony_jump_anim_clean_gradients_27_Layer0_1_FILL">
<path fill="url(#Gradient_7)" stroke="none" d="
M 110.9 427.35
Q 110.05 427.6 109.1 426.75
L 109.1 427 109.85 428.85
Q 110.95 430.5 112.4 429.6 115.55 427.7 114.3 423.85
L 112.45 420.4
Q 112.85 421.3 112.85 423 112.8 424.45 112.65 425 112 427.05 110.9 427.35 Z"/>
</g>

<g id="anims_pony_jump_anim_clean_gradients_27_Layer0_2_FILL">
<path fill="url(#Gradient_8)" stroke="none" d="
M 137.6 411.9
Q 134.6 411.9 133.9 412 131.6 412.4 129.6 414.05 127.5 415.8 126.5 418.35 125.65 420.55 125.95 422.3 126.45 421.2 127.35 419.95 129.2 417.5 131.35 416.7 135.35 415.25 137.6 415.25 139.6 415.25 139.55 413.6 139.55 411.9 137.6 411.9 Z"/>
</g>

<g id="pony_tail_1_Layer0_0_MEMBER_0_FILL">
<path fill="url(#Gradient_9)" stroke="none" d="
M 259.95 237.25
Q 257.6 237.15 263.15 245.75 264.7 248.1 265.8 253.4 266.4 256.3 267.4 261.6 268.25 265.25 269.6 266.95 271.1 268.85 274.1 269.6 276.75 270.3 279.55 269.7 280.95 269.4 281.85 268.95 281.05 268.4 279.55 266.15 277.75 263.45 276.9 260.9 275.55 256.45 274.55 253.6 272.7 248.55 270.45 244.65 268.25 240.85 263.85 238.7
L 259.95 237.25 Z"/>
</g>

<g id="pony_tail_1_Layer0_0_MEMBER_1_FILL">
<path fill="url(#Gradient_10)" stroke="none" d="
M 251.2 238.4
Q 253.5 237.75 256.8 239.25 259.8 240.6 261.35 242.5 262.55 243.95 263 249.5 263.25 252.55 263.45 258.25 263.65 262.45 265.15 266.45 266.95 271.3 269.65 272.75 273.15 274.65 277.35 274.05 279.4 273.75 280.8 273.05 278.9 272.7 276.55 271 271.8 267.55 269.35 260.65 268.8 259.05 268.25 254.1 267.55 247.95 267.05 245.3 264.9 234.2 258.75 233.2 252.45 232.2 246 235.05
L 240.75 238.05
Q 239.85 239.15 241.45 239.65 243.8 240.4 251.2 238.4 Z"/>
</g>

<g id="pony_tail_2_Layer0_0_MEMBER_0_FILL">
<path fill="url(#Gradient_11)" stroke="none" d="
M 251.7 283.65
Q 248.2 279.3 245.35 279.7 242.7 280.05 240.15 280.55 235.05 281.5 235.6 282.1 235.7 282.2 240.7 282.15 246.1 282.85 248.4 286.75 250.75 290.7 251.6 298.3 252 302.15 251.95 305.15
L 252.1 305.7
Q 252.45 306.2 253.75 305.9 255.25 305.55 255.9 300.7 256.55 295.9 255.75 291.9 254.95 287.7 251.7 283.65 Z"/>
</g>

<g id="pony_tail_2_Layer0_0_MEMBER_1_FILL">
<path fill="url(#Gradient_12)" stroke="none" d="
M 247 280.2
Q 244.55 280.45 243.2 280.75 241.9 281.05 242.75 281.15
L 246.15 281.75
Q 249.8 282.8 251 285 252.4 287.5 252.75 290.9 253.15 294.15 252.55 297.4 252.05 300.15 251.55 306.45 251.15 311.25 251.05 314.4
L 252.85 316.2
Q 255.15 318.05 257.5 318.3 257.85 306.1 258.15 301.5 258.4 296.55 258.15 292.45 257.8 286.6 256.4 285 254.65 282.9 252.2 281.55 249.4 279.95 247 280.2 Z"/>
</g>

<g id="pony_tail_3_Layer0_0_MEMBER_0_FILL">
<path fill="url(#Gradient_13)" stroke="none" d="
M 274.55 293.5
Q 274.95 289.6 273.65 286.1 272.45 282.95 271.2 282.65 270.25 282.45 270.1 283.8 270.05 284.5 270.15 285.2 270.4 287.75 269.2 291.5 268.05 295.2 266.55 296.55 265.35 297.7 263.75 297.25
L 262.4 296.55
Q 262.35 298.55 264.45 300 266.2 301.15 268.5 301.5 270.6 301.8 272.3 299.75 274.1 297.55 274.55 293.5 Z"/>
</g>

<g id="pony_tail_3_Layer0_0_MEMBER_1_FILL">
<path fill="url(#Gradient_14)" stroke="none" d="
M 267.25 279.25
Q 263.9 279.45 266 281.65
L 268.35 284
Q 270.75 286.95 271.1 290 271.5 293.45 273.3 295.75 274.8 297.55 278.15 299.55 280.65 301.05 283.95 301.4 285.55 301.6 286.7 301.45 285.7 300.85 284.6 299.65 282.45 297.25 282 294.3 281.5 290.75 278.65 286.3 275.85 281.85 273.3 280.55 270.4 279.1 267.25 279.25 Z"/>
</g>

<g id="pony_tail_4_Layer0_0_MEMBER_0_FILL">
<path fill="url(#Gradient_15)" stroke="none" d="
M 263.05 317.7
Q 263 317.85 261.8 321.7 260.3 325.95 258.55 328.35 256.5 331.15 254.85 332.35 253.25 333.5 251.55 333.6
L 253.3 335.8
Q 255.8 338.1 259.8 338.65
L 259.75 340.9
Q 259.85 343.55 260.6 345.8 263.05 352.95 271.15 352.95 270.4 352.35 269.5 351.05 267.75 348.55 267.15 345.25 264.9 332.1 265.05 325.9 265.1 321.5 264.45 318.95 263.75 316.5 263.05 317.7 Z"/>
</g>

<g id="pony_tail_0_Layer0_0_MEMBER_0_FILL">
<path fill="url(#Gradient_16)" stroke="none" d="
M 202.55 282.1
L 202.75 282.4
Q 203.2 282.55 204.3 281.8 205.35 281.05 210.4 280.2 215.9 279.25 219.55 279.4 222.85 279.55 227.25 284.8 229.5 287.4 231.05 290
L 232.55 290
Q 232.3 286.35 230.65 282.7 227.4 275.4 220.5 275.4 212.4 275.4 206.95 277.95
L 203.1 280.45 202.7 281.05
Q 202.35 281.7 202.55 282.1 Z"/>
</g>

<g id="pony_tail_0_Layer0_0_MEMBER_1_FILL">
<path fill="url(#Gradient_17)" stroke="none" d="
M 203.1 282.05
Q 202.65 282.3 202.8 282.65 202.95 283.15 204.1 283.05 204.95 283 205.9 282.65 208.85 281.7 212.9 281.3 219.85 280.55 223.3 282.65 227.25 285.05 228.6 289.1 229.8 292.65 229.35 298.85 228.75 307.2 230.5 311.7 233.25 318.7 241.65 318.95 240.7 318.25 239.45 316.85 237.05 314.1 235.9 310.55 234.95 307.6 234.25 298.35 233.6 289.25 232.8 287.05 231.4 283.2 228.4 280.85 224.7 277.95 219.3 277.95 214.45 277.95 208.5 279.9
L 203.1 282.05 Z"/>
</g>

<g id="anims_pony_jump_anim_clean_lines_27_Layer0_2_FILL">
<path fill="#FFFFFF" stroke="none" d="
M 129.85 402
Q 127.6 399.75 124.4 399.75 121.2 399.75 118.9 402 116.65 404.3 116.65 407.5 116.65 410.7 118.9 412.95 121.2 415.25 124.4 415.25 127.6 415.25 129.85 412.95 132.15 410.7 132.15 407.5 132.15 404.3 129.85 402 Z"/>
</g>

<g id="anims_pony_jump_anim_clean_lines_27_Layer0_3_FILL">
<path fill="#000000" stroke="none" d="
M 125.6 403.75
Q 124.1 402.2 121.9 402.2 119.7 402.2 118.2 403.75 116.65 405.3 116.65 407.5 116.65 409.7 118.2 411.2 119.75 412.75 121.9 412.75 124.1 412.75 125.6 411.2 127.15 409.7 127.15 407.5 127.15 405.3 125.6 403.75 Z"/>
</g>

<g id="anims_pony_jump_anim_clean_lines_27_Layer0_4_FILL">
<path fill="#FFFFFF" stroke="none" d="
M 124 405.15
Q 123.45 404.6 122.65 404.6 121.9 404.6 121.35 405.15 120.8 405.7 120.8 406.5 120.8 407.25 121.35 407.8 121.9 408.35 122.65 408.35 123.45 408.35 124 407.8 124.55 407.25 124.55 406.5 124.55 405.7 124 405.15 Z"/>
</g>

<g id="pony_mane4_0_Layer0_0_MEMBER_0_FILL">
<path fill="url(#Gradient_18)" stroke="none" d="
M 214.2 412.75
Q 212.95 410.35 213.3 414.85 213.6 419.15 214.65 422.75 216.3 428.35 216.75 429.7 218.05 433.55 219 434.9 220.05 436.4 222.8 436.35 225.45 436.3 227.75 434.9 229.65 433.75 229.75 430.5
L 229.5 427.45
Q 228.65 430.05 226.75 430.65 223.9 431.6 220.4 426.45 219 424.35 216.5 418.4 214.25 412.85 214.2 412.75 Z"/>
</g>

<g id="pony_mane4_0_Layer0_0_MEMBER_1_FILL">
<path fill="url(#Gradient_19)" stroke="none" d="
M 212.6 412.75
Q 212 411.55 211.45 410.55 210.25 408.6 210.3 409.8 210.3 410.65 211.1 414.5 212.15 419.6 212.75 423.5 213.75 430.05 215.6 434.5 217.85 439.95 220.9 440.95 224.3 442.05 227.6 439.9
L 230.2 437.5
Q 226.95 439.3 221.25 432.6 219.15 430.05 215.65 421.15
L 212.6 412.75 Z"/>
</g>

<g id="pony_mane4_0_Layer0_0_MEMBER_2_FILL">
<path fill="url(#Gradient_20)" stroke="none" d="
M 214.75 435.65
Q 218.1 439.55 222.35 438.15 221.65 437.85 220.7 437.2 218.9 435.9 218 434.1 212.75 423.8 211.8 414.8 211.15 412.9 209.95 412.95 209.15 413 209.7 419.2 210.25 425.15 211.15 428.5 212.3 432.8 214.75 435.65 Z"/>
</g>

<g id="pony_mane3_0_Layer0_0_MEMBER_0_FILL">
<path fill="url(#Gradient_21)" stroke="none" d="
M 189.9 419
Q 186.3 417.3 183.7 409.25
L 181.85 401.55
Q 181.7 400.15 181.65 400.05 181.3 398.9 180.15 399.05 178.95 399.2 178.6 402.35 178.4 404.2 178.45 408.9 178.45 413.15 179.65 416.45 181.2 420.7 184.4 422.05 187.35 423.35 190.7 422.3 192.4 421.8 193.45 421 192.85 420.4 189.9 419 Z"/>
</g>

<g id="pony_mane3_0_Layer0_0_MEMBER_1_FILL">
<path fill="url(#Gradient_22)" stroke="none" d="
M 176.85 398.65
Q 175.05 399.9 175.85 406.5 176 407.65 176.85 411.65 177.9 417.05 178.7 419.55 179.7 422.7 182.5 425.2 185.5 427.85 188.2 427.4 190.55 427.05 192.1 426
L 193.15 425
Q 192.3 425.35 191.1 425.25 188.7 425.05 187.15 422.85 185.5 420.6 182.5 411.3 180.25 404.2 179.3 400.3 179.05 399.25 178.3 398.75 177.55 398.2 176.85 398.65 Z"/>
</g>

<g id="pony_mane3_0_Layer0_0_MEMBER_2_FILL">
<path fill="url(#Gradient_23)" stroke="none" d="
M 186.4 411.9
Q 184.55 409.75 183 405.45
L 181.85 401.55
Q 180.4 397.95 179.25 400.15 178.2 402.15 178.45 405.3 178.9 410.25 179.35 411.65 180.75 415.7 184.75 416.95 188.65 418.2 191 417.15 192.15 416.6 192.55 415.8 191.35 416.05 190 415.25 188.5 414.35 186.4 411.9 Z"/>
</g>

<g id="anims_pony_jump_anim_clean_lines_27_Layer0_11_MEMBER_0_FILL">
<path fill="url(#Gradient_24)" stroke="none" d="
M 46.85 19.15
L 44.55 12.8
Q 40.05 5.15 34.4 4.35 31.45859375 3.9873046875 27.8 5.25 28.7 5.7515625 29.55 6.3 31.2 7.4 32.75 8.65
L 34.05 12.85 46.85 19.15 Z"/>
</g>

<g id="anims_pony_jump_anim_clean_lines_27_Layer0_11_MEMBER_1_FILL">
<path fill="url(#Gradient_25)" stroke="none" d="
M 136 382.65
L 136.55 383.1
Q 137.85 384.3 138.35 386.4 140.7 387.55 142.7 389.1 144.8 390.8 145.75 392.4 147.25 395 149.35 396.15 151.35 397.2 152.9 396.55 154.55 395.8 155.4 394.1 156.35 392.15 155.3 390.35
L 154.05 391.95
Q 152.6 393.35 151.3 392.4 148.85 389.25 146.35 387 141.65 382.6 136 382.65 Z"/>
</g>

<g id="anims_pony_jump_anim_clean_lines_27_Layer0_11_MEMBER_2_FILL">
<path fill="url(#Gradient_26)" stroke="none" d="
M 138.6 387.55
Q 140.95 388.55 142.55 391.4 143.95 393.85 144.45 396.85 145.3 401.65 145.75 402.65 146.8 405.25 149.65 405.95 152.35 406.6 155.65 405.1 157.3 404.35 158.4 403.45 156.85 403.2 154.45 401.45
L 152.35 399.75
Q 153.9 400.25 154.8 399.25
L 155.4 398.15
Q 154.45 399.1 151.95 396.65 149.55 394.35 146.3 389.5 142.8 384.25 137.55 384.35 138.1 385.25 138.45 386.7
L 138.6 387.55 Z"/>
</g>

<g id="anims_pony_jump_anim_clean_lines_27_Layer0_11_MEMBER_3_FILL">
<path fill="url(#Gradient_27)" stroke="none" d="
M 138.4 386.55
Q 138.85 388.4 138.65 390.3 141.45 391.95 141.65 397.7 141.75 401.4 142.55 403.7 143.75 407.1 146.65 408.35 149.35 409.55 153.25 408.15 155.25 407.45 156.65 406.5 151.3 406.6 148.25 400.45 145.65 393.1 144.25 390.7 142.1 387.05 138.4 386.55 Z"/>
</g>

<g id="pony_mane1_0_Layer0_0_MEMBER_0_FILL">
<path fill="url(#Gradient_28)" stroke="none" d="
M 127.8 389.95
Q 126.25 388.75 125.25 387 123.6 388 123.05 390 122.65 391.55 121.95 394.75 120.95 397.35 117.8 398.35
L 119.75 398.25
Q 121.95 397.8 123.05 396.1 124.3 394.05 125.05 392.9 126.4 390.9 127.8 389.95 Z"/>
</g>

<g id="pony_mane1_0_Layer0_0_MEMBER_1_FILL">
<path fill="url(#Gradient_29)" stroke="none" d="
M 118.1 392.95
Q 116.75 394.6 115.45 395.5 111.55 398.3 105.75 396.2
L 107.55 398.3
Q 110.05 400.2 113.4 399.05 116.65 397.95 119 395.4 121 392.8 121.9 392.1 123.65 390.8 127 389.15 126.05 388.2 125.5 387.25 121.9 388.45 119.9 390.65 119.4 391.2 118.1 392.95 Z"/>
</g>

<g id="pony_mane1_0_Layer0_0_MEMBER_2_FILL">
<path fill="url(#Gradient_30)" stroke="none" d="
M 107.35 393.6
L 107.35 393.8 109.2 396.05
Q 111.5 398.15 113.75 397.25 115.6 396.55 118.7 393.45 121.65 390.45 123.05 390
L 126.8 388.95
Q 125 387.15 124.3 384.4
L 124.25 384.35
Q 121.7 384.65 119.4 386.8 111.95 394 107.35 389.7
L 107.75 391.55
Q 108.4 393.55 109.9 394.3 108.95 394.35 107.35 393.6 Z"/>
</g>

<g id="pony_mane1_0_Layer0_0_MEMBER_3_FILL">
<path fill="url(#Gradient_31)" stroke="none" d="
M 115.1 392.4
Q 116.85 392.05 119.9 389.85 124.75 386.3 124.85 386.25 124.5 385.55 124.15 384.4 123.7 382.8 123.9 380.75 120.9 381.4 117.6 383.95 114.2 386.5 113 386.8 110.65 387.45 108.55 385.5
L 106.9 383.45
Q 106.8 387.5 109.4 390.3 112 393 115.1 392.4 Z"/>
</g>

<g id="anims_pony_jump_anim_clean_lines_27_Layer0_13_FILL">
<path fill="#B9533A" stroke="none" d="
M 133.8 388.9
Q 133.1 385.05 129.4 383.25 127.15 382.2 126 379.3
L 125.3 376.65 124.9 377.4
Q 123.25 380.95 124.15 384.4 125.85 390.7 133.25 392.3
L 133.7 392.4
Q 134.1 390.85 133.8 388.9 Z"/>
</g>

<path id="anims_pony_jump_anim_clean_lines_27_Layer6_0_1_STROKES" stroke="#000000" stroke-width="1.5" stroke-linejoin="round" stroke-linecap="round" fill="none" d="
M 70 135.25
Q 68.1337890625 135.66875 65.85 135.9 57.85 136.75 51.25 134.1 51.75 131.5 52.7 128.15 54.6 121.6 56.7 118.2 60 112.95 60.7 111.65 62.05 109.05 61.9 107.35 61.75 105.8 62.1 102.9
L 62.5 100.35
Q 61.857421875 99.9853515625 61.225 99.5"/>

<path id="anims_pony_jump_anim_clean_lines_27_Layer5_0_1_STROKES" stroke="#000000" stroke-width="1.5" stroke-linejoin="round" stroke-linecap="round" fill="none" d="
M 31.275 94
Q 31.05234375 98.219140625 29.85 100.3 29.2 101.6 22.95 106.45 16.85 112.15 15.8 118.5 14.35 127.15 15.7 131.65
L 21.15 133.75
Q 23.462109375 134.37578125 25.75 134.625"/>

<path id="anims_pony_jump_anim_clean_lines_27_Layer4_0_1_STROKES" stroke="#000000" stroke-width="1.5" stroke-linejoin="round" stroke-linecap="round" fill="none" d="
M 21.25 65.25
Q 21.3349609375 65.3767578125 21.425 65.5 22.03828125 66.3185546875 22.8 67
L 29.75 73.625
M 56.65 72.65
Q 54.1310546875 70.4767578125 42 58.85"/>

<path id="anims_pony_jump_anim_clean_lines_27_Layer3_0_1_STROKES" stroke="#000000" stroke-width="1.5" stroke-linejoin="round" stroke-linecap="round" fill="none" d="
M 35 96.35
Q 33.7884765625 95.7474609375 32.85 95.05 27.8 91.2 27.3 83.45 26.9265625 76.687109375 30.65 73.1
M 55.1 72.3
Q 57.3 72.2 61.05 71.25 65.1 70.2 66.85 70.05 69.4224609375 69.835546875 72.2 71
M 67.75 96.7
Q 63.40703125 99.228125 57.05 99.8 52.5470703125 100.1984375 47.25 99.55"/>

<path id="anims_pony_jump_anim_clean_lines_27_Layer2_0_1_STROKES" stroke="#000000" stroke-width="1.5" stroke-linejoin="round" stroke-linecap="round" fill="none" d="
M 70.29792938232421 70.42585449218751
Q 75.93837890625 70.42585449218751 79.99988708496093 73.9652099609375 83.68890914916992 77.16046142578125 83.87913665771484 81.0439208984375 84.02982101440429 83.55096435546875 82.10722503662109 88.417578125 80.17746124267578 93.23503417968752 80.28505859375 94.70976562500002 80.3532730102539 96.2828125 83.67359313964843 101.001953125 87.0476318359375 105.72109375 87.13380584716796 107.78571777343751 87.26653060913085 109.80118408203126 84.8072296142578 119.09199218750001 82.8744026184082 128.67774658203123 85.25291595458984 133.93762207031253 82.71034393310546 134.92077636718753 78.79251251220703 135.31403808593748 70.91746673583984 136.198876953125 63.908685302734376 133.44604492187503 64.1125274658203 130.7915283203125 64.58488235473632 127.39964599609377 65.590478515625 120.6650390625 67.23030624389648 117.17484130859376 69.7795654296875 111.816650390625 70.28437576293945 110.48939208984376 71.29399642944335 107.83487548828126 70.87479934692382 106.06519775390626 70.53799209594726 104.49215087890624 70.48395309448242 101.54268798828124
L 70.52663955688476 98.88817138671877
Q 68.5496841430664 97.855859375 66.5224739074707 95.74207763671876 62.47522125244141 91.56367187500001 62.16306076049805 86.10716552734377"/>

<path id="anims_pony_jump_anim_clean_lines_27_Layer1_0_1_STROKES" stroke="#000000" stroke-width="1.5" stroke-linejoin="round" stroke-linecap="round" fill="none" d="
M 34.35317687988282 84.86936645507812
L 35.167032623291014 89.89346923828124
Q 35.84244384765625 95.50177001953126 35.0041015625 98.48117980957032 34.57575683593749 100.11693420410155 29.282774353027342 106.95205078125001 24.30388717651367 114.78030395507814 24.406003570556635 122.55013732910156 24.51513748168945 133.12412109374998 26.671262359619142 138.3234832763672
L 32.3922981262207 139.90081787109375
Q 39.27578582763672 140.95237426757814 45.399801635742186 138.38190307617185 43.62648239135742 131.13784790039062 41.97209091186523 123.13433532714843 41.302527618408206 119.86282653808594 41.60726623535157 117.11709594726564 41.79958267211914 115.18924255371094 42.82073898315429 111.56721496582033 44.55480422973633 105.66681518554687 46.31723098754883 100.93481140136718
L 47.75189361572265 97.37120361328125"/>

<path id="anims_pony_jump_anim_clean_lines_27_Layer0_0_1_STROKES" stroke="#000000" stroke-width="1.5" stroke-linejoin="round" stroke-linecap="round" fill="none" d="
M 6.663684082031253 27.965279388427746
Q 3.0288002014160185 29.141666412353516 0.3489028930664091 31.77141723632809 -0.3458450317382784 32.461146545410145 -3.4184234619140597 36.336643981933605 -5.351090240478513 38.791058349609386 -6.2791145324707 42.655696868896484 -6.767411041259763 44.71680374145507 -7.449982452392575 47.80821151733397 -7.79431228637695 48.753495788574185 -10.91589431762695 52.80079421997067 -13.641098785400388 56.3314270019531 -13.484955596923825 57.61728286743164 -13.224934387207028 59.71748886108395 -12.212899017333982 62.58587493896488 -10.998760986328122 65.96789627075196 -9.746491241455075 67.03376083374025 -8.343949127197263 68.22752914428708 -4.446869659423825 69.58021926879883 -0.5998809814453097 70.89027481079103 1.4451438903808622 70.9228080749512 3.9889022827148466 70.95281600952148 6.626101684570315 69.73859252929685 9.860259246826175 68.22112884521482 10.894118499755862 65.55682449340821
L 15.184531402587893 65.79242935180662
Q 19.97172088623047 65.63952484130863 22.706057739257815 63.91015090942386"/>

<path id="anims_pony_jump_anim_clean_lines_27_Layer0_1_1_STROKES" stroke="#000000" stroke-width="1.5" stroke-linejoin="round" stroke-linecap="round" fill="none" d="
M 30.111392211914065 48.94755477905272
Q 29.17801208496094 41.918613433837834 27.710810852050784 37.80877380371095 25.230487060546878 30.61611251831056 20.529563140869143 28.10951080322269"/>

<path id="anims_pony_jump_anim_clean_lines_27_Layer0_5_1_STROKES" stroke="#000000" stroke-width="1.5" stroke-linejoin="round" stroke-linecap="round" fill="none" d="
M -1.4233520507812472 46.19083175659182
Q -1.4094360351562472 48.935607147216786 0.8446495056152372 50.85416336059569 3.1488258361816435 52.81535415649415 6.3407203674316435 52.79919204711916 9.532614898681643 52.78302993774412 11.766913604736331 50.79885864257807 14.05130310058594 48.85732192993163 14.03738708496094 46.11254653930666 14.02347106933594 43.3677711486817 11.719294738769534 41.40658035278318 9.46520919799805 39.488024139404274 6.27331466674805 39.50418624877932 3.0814201354980497 39.52034835815431 0.7970306396484403 41.461885070800804 -1.4372680664062472 43.446056365966854 -1.4233520507812472 46.19083175659182 Z"/>

<path id="anims_pony_jump_anim_clean_lines_27_Layer0_6_1_STROKES" stroke="#000000" stroke-width="1.5" stroke-linejoin="round" stroke-linecap="round" fill="none" d="
M 17.110182952880862 42.27993621826175
Q 15.071028900146487 43.40535507202151 12.316035461425784 41.06045303344729 9.761405181884768 38.88608932495123 6.270270538330081 38.903766632080135 2.2305290222167997 38.924221801757824 -0.29931335449218466 41.638989257812455"/>

<path id="anims_pony_jump_anim_clean_lines_27_Layer0_7_1_STROKES" stroke="#000000" stroke-width="1.5" stroke-linejoin="round" stroke-linecap="round" fill="none" d="
M -2.1505210876464815 69.99747390747069
Q 2.526049804687503 67.70071868896486 3.9144584655761747 66.10682449340823 4.806960296630862 65.07298812866213 4.996016693115237 63.01339645385741
L 5.036540222167972 61.168997955322254"/>

<path id="anims_pony_jump_anim_clean_lines_27_Layer0_8_1_STROKES" stroke="#000000" stroke-width="1.5" stroke-linejoin="round" stroke-linecap="round" fill="none" d="
M -9.787586975097653 58.92809600830083
Q -9.640576171874997 58.412693023681584 -9.244633483886716 57.81025314331055 -8.452313232421872 56.691147613525345 -7.206131744384763 56.55617294311526 -5.760456848144528 56.42018814086913 -5.254330444335935 57.87582473754884 -4.698765563964841 59.245434570312455 -5.38699035644531 61.22177734374998 -6.0264289855957 62.98343200683598 -7.122338104248044 63.246310424804676 -7.969097900390622 63.46503906250001 -8.920388031005857 62.740756225585926"/>

<path id="anims_pony_jump_anim_clean_lines_27_Layer0_14_1_STROKES" stroke="#000000" stroke-width="1.5" stroke-linejoin="round" stroke-linecap="round" fill="none" d="
M 20.05779190063477 33.43003845214844
Q 20.4996940612793 32.05537796020508 20.490996551513675 30.339893341064453 20.473601531982425 26.908924102783203 18.320132446289065 25.16141128540039 17.518679809570315 24.479257965087925 12.069220733642581 21.890670013427723 8.419551086425784 20.15073318481444 8.408896636962893 18.04926452636721
L 6.625415039062503 20.41714706420896
Q 5.044470977783206 23.38443908691403 5.957194519042972 26.339104461669933 7.7811195373535185 31.94822540283201 15.51779479980469 33.152809143066406"/>
</defs>

<g transform="matrix( 2, 0, 0, 1.9998779296875, 55.6,72.4) ">
<g transform="matrix( 1, 0, 0, 1, 0.05,-3) ">
<g transform="matrix( 0.907958984375, -0.2403411865234375, 0.35003662109375, 1.1241455078125, -169.4,-204.45) ">
<use xlink:href="#anims_pony_jump_anim_clean_gradients_27_Layer6_0_MEMBER_0_FILL"/>
</g>

<g transform="matrix( 1.0132904052734375, -0.092254638671875, 0.1804656982421875, 0.9589691162109375, -169.3,-176.6) ">
<use xlink:href="#anims_pony_jump_anim_clean_gradients_27_Layer5_0_MEMBER_0_FILL"/>
</g>

<g transform="matrix( 1.074371337890625, 0, 0.1433563232421875, 0.983154296875, -14.9,1.9) ">
<use xlink:href="#anims_pony_jump_anim_clean_gradients_27_Layer4_0_MEMBER_0_FILL"/>
</g>

<g transform="matrix( 1.0175018310546875, 0, 0.1301116943359375, 1.16839599609375, -12.85,-18.3) ">
<use xlink:href="#anims_pony_jump_anim_clean_gradients_27_Layer3_0_MEMBER_0_FILL"/>
</g>

<g transform="matrix( 1, 0, 0, 1, 35.1,74.9) ">
<g transform="matrix( 1, 0, 0, 1, -150.55,-278.45) ">
<use xlink:href="#pony_circle_gradient_0_Layer0_0_FILL"/>
</g>
</g>

<g transform="matrix( 1, 0, 0, 1, 63.7,73.65) ">
<g transform="matrix( 1, 0, 0, 1, -150.55,-278.45) ">
<use xlink:href="#pony_circle_gradient_0_Layer0_0_FILL"/>
</g>
</g>

<g transform="matrix( 0.997467041015625, -0.0050506591796875, 0.0043487548828125, 0.8577423095703125, -119.55,-302.75) ">
<use xlink:href="#anims_pony_jump_anim_clean_gradients_27_Layer0_0_FILL"/>
</g>

<g transform="matrix( 0.997467041015625, -0.0050506591796875, 0.0043487548828125, 0.8577423095703125, -119.55,-302.75) ">
<use xlink:href="#anims_pony_jump_anim_clean_gradients_27_Layer0_1_FILL"/>
</g>

<g transform="matrix( 0.997467041015625, -0.0050506591796875, 0.0043487548828125, 0.8577423095703125, -119.55,-302.75) ">
<use xlink:href="#anims_pony_jump_anim_clean_gradients_27_Layer0_2_FILL"/>
</g>
</g>

<g transform="matrix( 1, 0, 0, 1, 0.05,-3) ">
<g transform="matrix( 0.9698028564453125, 0.073455810546875, 0.0785369873046875, 1.024993896484375, 78.4,68.8) ">
<g transform="matrix( 0.999420166015625, -0.0306243896484375, 0.0306243896484375, 0.999420166015625, 5.1,0.2) ">
<g transform="matrix( 1, 0, 0, 1, -240.45,-232.95) ">
<use xlink:href="#pony_tail_1_Layer0_0_MEMBER_0_FILL"/>
</g>

<g transform="matrix( 1, 0, 0, 1, -240.45,-232.95) ">
<use xlink:href="#pony_tail_1_Layer0_0_MEMBER_1_FILL"/>
</g>
</g>

<g transform="matrix( 0.9983978271484375, 0.0532073974609375, -0.0532073974609375, 0.9983978271484375, 4.5,6.55) ">
<g transform="matrix( 1, 0, 0, 1, -235.55,-279.65) ">
<use xlink:href="#pony_tail_2_Layer0_0_MEMBER_0_FILL"/>
</g>

<g transform="matrix( 1, 0, 0, 1, -235.55,-279.65) ">
<use xlink:href="#pony_tail_2_Layer0_0_MEMBER_1_FILL"/>
</g>
</g>

<g transform="matrix( 0.9969940185546875, 0.0742340087890625, -0.0685577392578125, 0.920684814453125, 16.5,6.1) ">
<g transform="matrix( 1, 0, 0, 1, -262.4,-279.25) ">
<use xlink:href="#pony_tail_3_Layer0_0_MEMBER_0_FILL"/>
</g>

<g transform="matrix( 1, 0, 0, 1, -262.4,-279.25) ">
<use xlink:href="#pony_tail_3_Layer0_0_MEMBER_1_FILL"/>
</g>
</g>

<g transform="matrix( 0.9975433349609375, 0.06976318359375, -0.06976318359375, 0.9975433349609375, 16.25,14.35) ">
<g transform="matrix( 1, 0, 0, 1, -251.55,-317.3) ">
<use xlink:href="#pony_tail_4_Layer0_0_MEMBER_0_FILL"/>
</g>
</g>

<g transform="matrix( 1, 0, 0, 1, 0,2.5) ">
<g transform="matrix( 1, 0, 0, 1, -202.5,-275.4) ">
<use xlink:href="#pony_tail_0_Layer0_0_MEMBER_0_FILL"/>
</g>

<g transform="matrix( 1, 0, 0, 1, -202.5,-275.4) ">
<use xlink:href="#pony_tail_0_Layer0_0_MEMBER_1_FILL"/>
</g>
</g>
</g>

<g transform="matrix( 1, 0, 0, 1, 0,0) ">
<use xlink:href="#anims_pony_jump_anim_clean_lines_27_Layer6_0_1_STROKES"/>
</g>

<g transform="matrix( 1, 0, 0, 1, 0,0) ">
<use xlink:href="#anims_pony_jump_anim_clean_lines_27_Layer5_0_1_STROKES"/>
</g>

<g transform="matrix( 1, 0, 0, 1, 0,0) ">
<use xlink:href="#anims_pony_jump_anim_clean_lines_27_Layer4_0_1_STROKES"/>
</g>

<g transform="matrix( 1, 0, 0, 1, 0,0) ">
<use xlink:href="#anims_pony_jump_anim_clean_lines_27_Layer3_0_1_STROKES"/>
</g>

<g transform="matrix( 1.074371337890625, 0, 0.1433563232421875, 0.983154296875, -14.9,1.9) ">
<use xlink:href="#anims_pony_jump_anim_clean_lines_27_Layer2_0_1_STROKES" transform="matrix( 0.9307708740234375, 0, -0.135711669921875, 1.017120361328125, 14.1,-1.9) "/>
</g>

<g transform="matrix( 1.0175018310546875, 0, 0.1301116943359375, 1.16839599609375, -12.85,-18.3) ">
<use xlink:href="#anims_pony_jump_anim_clean_lines_27_Layer1_0_1_STROKES" transform="matrix( 0.9827880859375, 0, -0.10943603515625, 0.855865478515625, 10.6,15.65) "/>
</g>

<g transform="matrix( 0.997467041015625, -0.0050506591796875, 0.0043487548828125, 0.8577423095703125, -119.55,-302.75) ">
<use xlink:href="#anims_pony_jump_anim_clean_lines_27_Layer0_0_1_STROKES" transform="matrix( 1.00250244140625, 0.005889892578125, -0.0050811767578125, 1.1658172607421875, 118.3,353.65) "/>
</g>

<g transform="matrix( 0.997467041015625, -0.0050506591796875, 0.0043487548828125, 0.8577423095703125, -119.55,-302.75) ">
<use xlink:href="#anims_pony_jump_anim_clean_lines_27_Layer0_1_1_STROKES" transform="matrix( 1.00250244140625, 0.005889892578125, -0.0050811767578125, 1.1658172607421875, 118.3,353.65) "/>
</g>

<g transform="matrix( 0.997467041015625, -0.0050506591796875, 0.0043487548828125, 0.8577423095703125, -119.55,-302.75) ">
<use xlink:href="#anims_pony_jump_anim_clean_lines_27_Layer0_2_FILL"/>
</g>

<g transform="matrix( 0.997467041015625, -0.0050506591796875, 0.0043487548828125, 0.8577423095703125, -119.55,-302.75) ">
<use xlink:href="#anims_pony_jump_anim_clean_lines_27_Layer0_3_FILL"/>
</g>

<g transform="matrix( 0.997467041015625, -0.0050506591796875, 0.0043487548828125, 0.8577423095703125, -119.55,-302.75) ">
<use xlink:href="#anims_pony_jump_anim_clean_lines_27_Layer0_4_FILL"/>
</g>

<g transform="matrix( 0.997467041015625, -0.0050506591796875, 0.0043487548828125, 0.8577423095703125, -119.55,-302.75) ">
<use xlink:href="#anims_pony_jump_anim_clean_lines_27_Layer0_5_1_STROKES" transform="matrix( 1.00250244140625, 0.005889892578125, -0.0050811767578125, 1.1658172607421875, 118.3,353.65) "/>
</g>

<g transform="matrix( 0.997467041015625, -0.0050506591796875, 0.0043487548828125, 0.8577423095703125, -119.55,-302.75) ">
<use xlink:href="#anims_pony_jump_anim_clean_lines_27_Layer0_6_1_STROKES" transform="matrix( 1.00250244140625, 0.005889892578125, -0.0050811767578125, 1.1658172607421875, 118.3,353.65) "/>
</g>

<g transform="matrix( 0.997467041015625, -0.0050506591796875, 0.0043487548828125, 0.8577423095703125, -119.55,-302.75) ">
<use xlink:href="#anims_pony_jump_anim_clean_lines_27_Layer0_7_1_STROKES" transform="matrix( 1.00250244140625, 0.005889892578125, -0.0050811767578125, 1.1658172607421875, 118.3,353.65) "/>
</g>

<g transform="matrix( 0.997467041015625, -0.0050506591796875, 0.0043487548828125, 0.8577423095703125, -119.55,-302.75) ">
<use xlink:href="#anims_pony_jump_anim_clean_lines_27_Layer0_8_1_STROKES" transform="matrix( 1.00250244140625, 0.005889892578125, -0.0050811767578125, 1.1658172607421875, 118.3,353.65) "/>
</g>

<g transform="matrix( 0.9060821533203125, -0.33294677734375, 0.4339752197265625, 1.052459716796875, 27.3,44.35) ">
<g transform="matrix( 1, 0, 0, 1, -209.5,-409.35) ">
<use xlink:href="#pony_mane4_0_Layer0_0_MEMBER_0_FILL"/>
</g>

<g transform="matrix( 1, 0, 0, 1, -209.5,-409.35) ">
<use xlink:href="#pony_mane4_0_Layer0_0_MEMBER_1_FILL"/>
</g>

<g transform="matrix( 1, 0, 0, 1, -209.5,-409.35) ">
<use xlink:href="#pony_mane4_0_Layer0_0_MEMBER_2_FILL"/>
</g>
</g>

<g transform="matrix( 1.0624237060546875, -0.2719573974609375, 0.222381591796875, 0.9612884521484375, 25.05,36.5) ">
<g transform="matrix( 1, 0, 0, 1, -175.6,-398.45) ">
<use xlink:href="#pony_mane3_0_Layer0_0_MEMBER_0_FILL"/>
</g>

<g transform="matrix( 1, 0, 0, 1, -175.6,-398.45) ">
<use xlink:href="#pony_mane3_0_Layer0_0_MEMBER_1_FILL"/>
</g>

<g transform="matrix( 1, 0, 0, 1, -175.6,-398.45) ">
<use xlink:href="#pony_mane3_0_Layer0_0_MEMBER_2_FILL"/>
</g>
</g>

<g transform="matrix( 0.997467041015625, -0.0050506591796875, 0.0043487548828125, 0.8577423095703125, -13.85,18.15) ">
<use xlink:href="#anims_pony_jump_anim_clean_lines_27_Layer0_11_MEMBER_0_FILL"/>
</g>

<g transform="matrix( 0.959716796875, -0.2187957763671875, 0.1728668212890625, 0.93780517578125, -180.4,-304.55) ">
<use xlink:href="#anims_pony_jump_anim_clean_lines_27_Layer0_11_MEMBER_1_FILL"/>
</g>

<g transform="matrix( 0.959716796875, -0.2187957763671875, 0.1728668212890625, 0.93780517578125, -180.4,-304.55) ">
<use xlink:href="#anims_pony_jump_anim_clean_lines_27_Layer0_11_MEMBER_2_FILL"/>
</g>

<g transform="matrix( 0.959716796875, -0.2187957763671875, 0.1728668212890625, 0.93780517578125, -180.4,-304.55) ">
<use xlink:href="#anims_pony_jump_anim_clean_lines_27_Layer0_11_MEMBER_3_FILL"/>
</g>

<g transform="matrix( 0.9972686767578125, -0.016326904296875, 0.0177001953125, 0.869720458984375, -12.55,23.6) ">
<g transform="matrix( 1, 0, 0, 1, -105.75,-380.75) ">
<use xlink:href="#pony_mane1_0_Layer0_0_MEMBER_0_FILL"/>
</g>

<g transform="matrix( 1, 0, 0, 1, -105.75,-380.75) ">
<use xlink:href="#pony_mane1_0_Layer0_0_MEMBER_1_FILL"/>
</g>

<g transform="matrix( 1, 0, 0, 1, -105.75,-380.75) ">
<use xlink:href="#pony_mane1_0_Layer0_0_MEMBER_2_FILL"/>
</g>

<g transform="matrix( 1, 0, 0, 1, -105.75,-380.75) ">
<use xlink:href="#pony_mane1_0_Layer0_0_MEMBER_3_FILL"/>
</g>
</g>

<g transform="matrix( 0.997467041015625, -0.0050506591796875, 0.0043487548828125, 0.8577423095703125, -119.55,-302.75) ">
<use xlink:href="#anims_pony_jump_anim_clean_lines_27_Layer0_13_FILL"/>
</g>

<g transform="matrix( 0.997467041015625, -0.0050506591796875, 0.0043487548828125, 0.8577423095703125, -119.55,-302.75) ">
<use xlink:href="#anims_pony_jump_anim_clean_lines_27_Layer0_14_1_STROKES" transform="matrix( 1.00250244140625, 0.005889892578125, -0.0050811767578125, 1.1658172607421875, 118.3,353.65) "/>
</g>
</g>
</g>
</svg>
