
<svg xmlns="http://www.w3.org/2000/svg" version="1.1" xmlns:xlink="http://www.w3.org/1999/xlink" preserveAspectRatio="none" x="0px" y="0px" width="330px" height="358px" viewBox="50 364 330 358">
<defs>
<filter id="Filter_1" x="-20%" y="-20%" width="140%" height="140%" color-interpolation-filters="sRGB">
<feColorMatrix in="SourceGraphic" type="matrix" values="0 0 0 0 0.4 0 0 0 0 0.8 0 0 0 0 0.4 0 0 0 1 0" result="result1"/>
</filter>

<g id="Symbol_381_0_Layer0_0_FILL">
<path fill="#FFFFFF" stroke="none" d="
M 61.2 84.4
L 52.05 98.95
Q 47.45 103.25 49.55 109.6 51.7 116.2 59.05 115.3 54.25 119.05 53.05 122.95 51.95 126.4 51.65 130.75
L 51.6 134.35
Q 58.3 136.65 65.6 135.65 69.25 135.05 71.5 134.05 68.9 128.85 69.6 121.25
L 71.05 113.15
Q 71.35 111.35 70 109.75 68.4 107.85 64.9 106.6 69.05 102.9 70.85 100.75 74.5 96.5 74.15 93.6 73.75 89.95 70.3 87.25 66.45 84.2 61.2 84.4 Z"/>
</g>

<g id="Symbol_381_0_Layer0_1_FILL">
<path fill="#FFFFFF" stroke="none" d="
M 35.2 121.05
Q 37.75 119.55 39.9 115.3
L 41.5 111.35 31.7 103.1 28.35 107.85
Q 25.55 113 27.95 115.5 23.85 115 20.9 116.15 16.45 118 15.2 123.65 14.15 128.75 14.55 133
L 20.3 134.75
Q 27.1 136.35 33.2 135.7 33.15 131.45 32.5 125.75 32.3 124.05 32.7 123.2 33.2 122.15 35.2 121.05 Z"/>
</g>

<g id="Symbol_381_0_Layer0_2_FILL">
<path fill="#FFFFFF" stroke="none" d="
M 17.05 85.35
L 28.1 90.4
Q 39.45 95.6 41.1 96.15 44 97.3 49.1 96.85 55.6 96.2 58.65 92.45 61.8 88.5 60.15 86.15 59 84.45 54 82.4 50.45 80.95 35.8 74.1
L 21.85 67.6
Q 19.7 67.05 17.2 67.6 12.3 68.7 11.05 74.4 9.9 79 12.8 82.25 14.45 84.3 17.05 85.35 Z"/>
</g>

<g id="Symbol_381_0_Layer0_3_FILL">
<path fill="#FFFFFF" stroke="none" d="
M 32.45 83.8
Q 26.7 87.5 26.8 95.7 27 103.6 31.85 107.35 35.4 110.1 43.3 111.35
L 55.8 111.85
Q 65.35 110.85 70.6 105.6 73.15 102.9 75.45 98.1 77.35 94.15 78.05 90.65 78.95 86.4 74.5 83.65 70.6 81.25 67 81.65
L 58.7 83.5
Q 53.5 84.7 49.85 83.45 43.8 81.5 42.4 81.35 37.15 80.7 32.45 83.8 Z"/>
</g>

<g id="Symbol_381_0_Layer0_4_FILL">
<path fill="#FFFFFF" stroke="none" d="
M 78.55 85.3
Q 74.55 81.7 69.3 81.7
L 60.95 97.8
Q 56.6 102.4 59 109.7 61.5 117.3 68.85 116.65 64.25 120.65 63.2 125 62.3 128.85 62.25 133.75 62.2 136.15 62.4 137.85 69.2 140.8 76.4 139.9 80.05 139.4 82.25 138.4 79.4 132.4 79.65 123.85
L 80.7 114.7
Q 80.9 112.7 79.5 110.75 77.75 108.6 74.15 107 78.1 103 79.85 100.65 83.25 96 82.8 92.7 82.2 88.55 78.55 85.3 Z"/>
</g>

<g id="Symbol_381_0_Layer0_5_FILL">
<path fill="#FFFFFF" stroke="none" d="
M 45.1 138.7
L 42.35 127.4
Q 41.8 125.45 42.05 124.35 42.3 123.1 44 121.45 46.15 119.3 47.4 114
L 48.1 109.15 36.9 101.35 34.65 107.4
Q 33 113.95 35.85 116.35 31.75 116.5 29.15 118.4 25.25 121.3 25.2 128.05 25.25 134.15 26.5 138.95
L 32.4 139.95
Q 39.35 140.6 45.1 138.7 Z"/>
</g>

<g id="Symbol_381_0_Layer0_6_FILL">
<path fill="#FFFFFF" stroke="none" d="
M 13.2 57.35
Q 13.6 56.1 13.5 54.55 13.25 51.45 10.75 50 9.75 49.5 3.7 47.6 -0.45 46.35 -0.6 44.45 -1.65 45.3 -2.4 46.7 -3.95 49.55 -2.75 52.15 0.25 58.4 13.2 57.35 Z"/>
</g>

<g id="Symbol_381_0_Layer0_7_FILL">
<path fill="#FFFFFF" stroke="none" d="
M 25.3 70.6
Q 23.4 62.65 20.6 58.45 15.7 51.1 7.05 51.75 -2.55 52.55 -7.65 56.7 -9.45 58.05 -11.05 60.3 -12.35 61.8 -12.75 62.9 -14.1 65.8 -14.8 70.8
L -15.25 75.3 -18.2 77.35
Q -21.2 80.05 -20.95 83.15 -20.75 86.1 -17.75 87.9 -15.6 89.2 -12.55 89.75
L -1.45 89.3
Q 5.85 88.35 9.75 87.1 13.75 85.75 15.65 84.35 19 81.8 18.75 77.65 22.7 77.25 24.1 76.1 26.2 74.5 25.3 70.6 Z"/>
</g>
</defs>

<g transform="matrix( 2, 0, 0, 1.9998779296875, 100.1,433.95) ">
<g transform="matrix( 1, 0, 0, 1, 0,0) ">
<use filter="url(#Filter_1)" xlink:href="#Symbol_381_0_Layer0_0_FILL"/>
</g>

<g transform="matrix( 1, 0, 0, 1, 0,0) ">
<use filter="url(#Filter_1)" xlink:href="#Symbol_381_0_Layer0_1_FILL"/>
</g>

<g transform="matrix( 1, 0, 0, 1, 0,0) ">
<use filter="url(#Filter_1)" xlink:href="#Symbol_381_0_Layer0_2_FILL"/>
</g>

<g transform="matrix( 1, 0, 0, 1, 0,0) ">
<use filter="url(#Filter_1)" xlink:href="#Symbol_381_0_Layer0_3_FILL"/>
</g>

<g transform="matrix( 1, 0, 0, 1, 0,0) ">
<use filter="url(#Filter_1)" xlink:href="#Symbol_381_0_Layer0_4_FILL"/>
</g>

<g transform="matrix( 1, 0, 0, 1, 0,0) ">
<use filter="url(#Filter_1)" xlink:href="#Symbol_381_0_Layer0_5_FILL"/>
</g>

<g transform="matrix( 1, 0, 0, 1, 0,0) ">
<use filter="url(#Filter_1)" xlink:href="#Symbol_381_0_Layer0_6_FILL"/>
</g>

<g transform="matrix( 1, 0, 0, 1, 0,0) ">
<use filter="url(#Filter_1)" xlink:href="#Symbol_381_0_Layer0_7_FILL"/>
</g>
</g>
</svg>
