<?xml version="1.0" encoding="UTF-8" standalone="no"?>
<svg
   version="1.1"
   preserveAspectRatio="none"
   x="0px"
   y="0px"
   width="264"
   height="283"
   viewBox="0 0 264 283"
   id="svg2902"
   sodipodi:docname="pony_female_walk_bg_0008.svg"
   xmlns:inkscape="http://www.inkscape.org/namespaces/inkscape"
   xmlns:sodipodi="http://sodipodi.sourceforge.net/DTD/sodipodi-0.dtd"
   xmlns="http://www.w3.org/2000/svg"
   xmlns:svg="http://www.w3.org/2000/svg">
  <sodipodi:namedview
     id="namedview2904"
     pagecolor="#ffffff"
     bordercolor="#000000"
     borderopacity="0.25"
     inkscape:showpageshadow="2"
     inkscape:pageopacity="0.0"
     inkscape:pagecheckerboard="0"
     inkscape:deskcolor="#d1d1d1"
     showgrid="false" />
  <defs
     id="defs2848">
    <filter
       id="Filter_1"
       x="0"
       y="0"
       width="1"
       height="1"
       color-interpolation-filters="sRGB">
      <feColorMatrix
         in="SourceGraphic"
         type="matrix"
         values="0 0 0 0 0 0 0 0 0 0.8 0 0 0 0 0.4 0 0 0 1 0"
         result="result1"
         id="feColorMatrix2815" />
    </filter>
  </defs>
  <path
     fill="#FFFFFF"
     id="path2906"
     d="m -3.7353228,-37.465222 c -0.6812329,0.685931 -1.3004422,1.589786 -1.857439,2.71178 -1.1146919,2.277317 -1.3956578,4.571435 -0.8439273,6.883668 0.1692693,0.684984 0.3871763,1.329264 0.6540268,1.932899 -2.1264723,0.761079 -3.9840877,1.879713 -5.5662777,3.366272 -1.154814,1.009439 -2.301552,2.4026 -3.439098,4.179291 -0.85835,1.182366 -1.446923,2.219659 -1.765732,3.113242 -1.015405,2.31274 -1.900606,5.5953829 -2.656555,9.847458 -0.377276,2.0927091 -0.649953,3.9708086 -0.818181,5.6344378 l -2.899431,2.2904809 c -1.977042,2.0591895 -2.993441,4.4218204 -3.049304,7.0880964 -0.05237,2.4996339 0.752563,4.6499119 2.415304,6.4519349 1.206618,1.292319 2.719501,2.291007 4.5386,2.995984 l 10.0876486,0.761975 c 4.4729949,-0.239709 7.9170952,-0.734847 10.3335023,-1.48445 0.1489225,-0.0462 0.2883228,-0.09409 0.432715,-0.141313 l 3.6611096,10.086541 c -3.8548008,2.068023 -6.17396556,5.820307 -6.9488015,11.267825 -0.7241508,5.35543 0.2894045,9.506919 3.0400297,12.45406 0.3879254,0.414252 0.8296508,0.816344 1.3238852,1.20562 -0.096871,1.123494 -0.2658845,2.123585 -0.5145229,2.987552 -2.65696225,6.468018 -4.9613362,12.449815 -6.9126918,17.944712 -3.8216536,10.625984 -5.3851608,18.13764 -4.6909317,22.53565 1.3088683,0.652107 3.0578184,1.138125 5.2472362,1.457915 3.64008684,0.534654 7.3321178,0.354933 11.0751154,-0.534416 l 0.2116027,1.129548 4.1602242,0.119886 1.086446,0.08679 c 4.138581,-0.03716 8.304484,-0.75776 12.496862,-2.160719 l -0.569635,-1.941305 c 0.0802,-0.880215 -0.08288,-1.830791 -0.492623,-2.854204 L 23.563298,91.62183 c -1.128443,-4.34487 -2.00124,-8.862698 -2.616485,-13.553701 -0.234204,-1.677418 -0.37339,-3.634658 -0.418727,-5.871821 l -0.0055,-1.150755 c 0.0069,-1.868105 0.07108,-3.917247 0.192304,-6.14785 0.11886,-2.249461 0.175474,-4.100583 0.175349,-5.593288 1.079286,0.114202 2.137072,0.185548 3.168739,0.203021 2.802185,0.04746 5.368517,-0.235784 7.70332,-0.843187 0.06675,0.07908 0.130345,0.158987 0.198842,0.237549 1.274358,1.528251 2.547988,2.656553 3.82052,3.38412 l 0.91061,7.379956 c 0.124922,1.149346 0.116,2.260842 -0.02186,3.334427 -0.437211,0.85268 -0.994594,1.84104 -1.677948,2.969095 -2.213623,3.682918 -3.7126,6.576731 -4.496131,8.681153 -0.443304,1.190635 -0.877453,2.466343 -1.305416,3.809771 l -0.145108,-0.01354 c -0.961792,3.086658 -1.756349,6.159427 -2.386413,9.217825 -0.193613,0.808585 -0.386516,1.630821 -0.576473,2.475825 4.051472,1.32733 8.538097,1.7718 13.459915,1.33176 l 5.422618,-0.93498 0.01963,-0.002 -9.37e-4,-0.001 0.706609,-0.12173 c -0.01472,-0.2438 -0.02583,-0.493166 -0.03309,-0.748124 1.537963,-0.225045 2.875374,-0.537696 4.00265,-0.942039 -1.188377,-3.711151 -1.238404,-8.79393 -0.150079,-15.248336 1.38208,-6.28887 2.099964,-10.109808 2.153248,-11.462591 0.0154,-0.390882 -0.05616,-0.860416 -0.198257,-1.393929 0.177929,-1.648943 -0.33307,-3.854317 -1.537743,-6.62069 -1.47302,-3.260953 -2.190234,-5.391323 -2.15087,-6.390688 -0.02201,-1.135238 0.845379,-3.236167 2.601014,-6.303213 1.830131,-3.264294 2.879551,-5.776157 3.148966,-7.533829 0.44334,-2.785099 -0.435266,-5.471846 -2.635396,-8.060799 -1.854461,-2.197684 -4.082953,-3.570672 -6.682564,-4.127358 -1.544689,-0.883276 -3.111204,-1.341035 -4.700471,-1.367951 l -8.315875,0.860114 c -1.250211,0.134816 -2.417438,0.169367 -3.50454,0.108287 -0.197353,-0.843222 -0.525774,-1.802792 -0.988095,-2.881542 L 17.699906,2.3498054 C 17.542085,2.1172262 17.361,1.9004549 17.157641,1.698924 17.20221,0.92601662 17.185879,0.07260802 17.104317,-0.86818132 16.483005,-7.8165604 15.46236,-13.189334 14.041486,-16.986874 c -1.546654,-4.180888 -3.647401,-7.069303 -6.3014362,-8.666596 -0.3138999,-1.319972 -0.8967601,-2.40591 -1.7514137,-3.255696 -0.5554111,-0.545127 -2.5949609,-1.87226 -6.11850962,-3.980016 -2.43767558,-1.418143 -3.63966508,-2.942946 -3.60544928,-4.57604 z"
     style="filter:url(#Filter_1)"
     transform="matrix(1.9981689,-0.07870483,0.07870483,1.9980469,58.6,77.95)" />
</svg>
