
<svg xmlns="http://www.w3.org/2000/svg" version="1.1" xmlns:xlink="http://www.w3.org/1999/xlink" preserveAspectRatio="none" x="0px" y="0px" width="330px" height="358px" viewBox="50 364 330 358">
<defs>
<filter id="Filter_1" x="-20%" y="-20%" width="140%" height="140%" color-interpolation-filters="sRGB">
<feColorMatrix in="SourceGraphic" type="matrix" values="0 0 0 0 0.4 0 0 0 0 0.8 0 0 0 0 0.4 0 0 0 1 0" result="result1"/>
</filter>

<g id="Symbol_253_0_Layer0_0_FILL">
<path fill="#FFFFFF" stroke="none" d="
M 89.2 41.5
Q 87.8 36.15 83.35 33.45
L 69.1 44.15
Q 66.5 49.35 68.7 55.1 69.75 57.95 71.35 59.75
L 68.6 66.4
Q 68.2 67.35 63.05 69.75 57.7 72.2 56.05 75.4 54.25 78.85 52.5 85.15
L 51.15 90.8
Q 57.45 94.6 64.75 94.7
L 70.85 94.05
Q 69.05 87.95 73.25 81.7 78.35 75.8 79.4 73.9 80.5 71.85 79.95 66.5 79.35 60.8 79.75 59.5 80.3 57.8 83.8 55.2 87.65 52.45 88.75 50.1 90.5 46.35 89.2 41.5 Z"/>
</g>

<g id="Symbol_253_0_Layer0_1_FILL">
<path fill="#FFFFFF" stroke="none" d="
M 46.8 40.85
L 43.6 44.45
Q 39.9 48.15 37.3 49.1
L 33.3 50.35
Q 29.8 51.5 26.95 52.95 18.15 57.35 15.35 64.9 11.85 74.75 11.95 80.1
L 16.4 82.8
Q 22.2 85.3 28.55 84.3
L 30.8 69.25
Q 31.3 65.9 31.7 64.9 32.65 62.8 35 63.15 39.4 63.85 43.6 60.5
L 46.9 56.95 46.8 40.85 Z"/>
</g>

<g id="Symbol_253_0_Layer0_2_FILL">
<path fill="#FFFFFF" stroke="none" d="
M 63.5 32.3
L 50 8.35
Q 48.8 7.15 46.7 6.9 42.45 6.35 37.9 11.25 34.25 15.2 34.2 19.15 34.1 21.5 35.25 23.35
L 45.55 41
Q 46.85 42.95 50.8 44.1 55.8 45.6 60.45 43.1 65.2 40.4 65.55 37.7 65.8 35.75 63.5 32.3 Z"/>
</g>

<g id="Symbol_253_0_Layer0_3_FILL">
<path fill="#FFFFFF" stroke="none" d="
M 86.9 39.2
Q 87.85 34.8 83.6 32 79.85 29.55 76.35 29.9
L 68.2 31.8
Q 63.05 33.05 59.6 31.75 53.75 29.75 52.4 29.6 47.35 28.9 42.6 32.05 37 35.85 36.9 44.3 36.8 52.4 41.45 56.25 44.9 59.15 52.5 60.4
L 64.7 60.95
Q 73.95 59.95 79.25 54.5 81.8 51.8 84.1 46.85 86.1 42.8 86.9 39.2 Z"/>
</g>

<g id="Symbol_253_0_Layer0_4_FILL">
<path fill="#FFFFFF" stroke="none" d="
M 89.5 37.3
Q 86.75 32.55 81.8 31
L 70.7 44.6
Q 69.55 50.2 73.1 55.1 74.9 57.55 76.85 58.9
L 75.9 65.85
Q 75.75 66.9 71.35 70.35 66.8 74 66.05 77.4 65.2 81.1 65.1 87.5 65.05 90.75 65.25 93.2 72.25 95.3 79.35 93.6 82.95 92.8 85.1 91.5 81.8 86.2 84.35 79.25 87.75 72.4 88.25 70.35 88.85 68.1 86.95 63.2 84.9 57.95 84.9 56.6 85 54.85 87.8 51.5 90.75 48 91.25 45.5 92 41.55 89.5 37.3 Z"/>
</g>

<g id="Symbol_253_0_Layer0_5_FILL">
<path fill="#FFFFFF" stroke="none" d="
M 49.95 46.95
Q 45.4 44 43.5 44.5 42.05 44.95 41.85 47.6
L 41.8 51.95
Q 41.5 56.75 40.1 59.2 39.35 60.5 33 66 26.75 72.25 25.45 78.85 23.75 87.75 24.9 92.4
L 30.25 94.15
Q 36.85 95.55 43.25 93.85
L 42.55 80.7
Q 42.5 78.2 43.25 75.8 43.9 73.7 45.45 70.85 48.2 65.9 50.75 62.1
L 52.75 59.2
Q 53.7 57.2 53.85 54.75 54.15 49.75 49.95 46.95 Z"/>
</g>

<g id="Symbol_253_0_Layer0_6_FILL">
<path fill="#FFFFFF" stroke="none" d="
M 36.85 -26.75
Q 33.6 -29.45 34.05 -31.85 32.85 -31 31.8 -29.45 29.55 -26.4 29.8 -22.85 30.45 -14.2 42.1 -12 42.85 -13.45 43.2 -15.45 43.95 -19.35 42.2 -21.75
L 36.85 -26.75 Z"/>
</g>

<g id="Symbol_253_0_Layer0_7_FILL">
<path fill="#FFFFFF" stroke="none" d="
M 38.45 -20.65
Q 29.85 -22.25 24.1 -18.45 22.1 -17.2 20 -14.85 18.4 -13.35 17.7 -12.1 15.65 -8.95 13.45 -2.85
L 11.75 2.55 8.5 4.35
Q 5.05 6.9 4.3 10.8 3.6 14.5 5.6 17.55 7.05 19.75 9.55 21.3 12.2 22.85 19.35 23.7 26.05 24.5 29.85 23.95 33.7 23.45 35.8 22.15 39.45 19.95 40.55 14.65 44.15 15.25 45.8 14.25 48.1 12.85 48.5 7.7 49.3 -2.75 48.15 -8.7 46.2 -19.15 38.45 -20.65 Z"/>
</g>
</defs>

<g transform="matrix( 2, 0, 0, 1.9998779296875, 100.1,433.95) ">
<g transform="matrix( 1, 0, 0, 1, 0,0) ">
<use filter="url(#Filter_1)" xlink:href="#Symbol_253_0_Layer0_0_FILL"/>
</g>

<g transform="matrix( 1, 0, 0, 1, 0,0) ">
<use filter="url(#Filter_1)" xlink:href="#Symbol_253_0_Layer0_1_FILL"/>
</g>

<g transform="matrix( 1, 0, 0, 1, 0,0) ">
<use filter="url(#Filter_1)" xlink:href="#Symbol_253_0_Layer0_2_FILL"/>
</g>

<g transform="matrix( 1, 0, 0, 1, 0,0) ">
<use filter="url(#Filter_1)" xlink:href="#Symbol_253_0_Layer0_3_FILL"/>
</g>

<g transform="matrix( 1, 0, 0, 1, 0,0) ">
<use filter="url(#Filter_1)" xlink:href="#Symbol_253_0_Layer0_4_FILL"/>
</g>

<g transform="matrix( 1, 0, 0, 1, 0,0) ">
<use filter="url(#Filter_1)" xlink:href="#Symbol_253_0_Layer0_5_FILL"/>
</g>

<g transform="matrix( 1, 0, 0, 1, 0,0) ">
<use filter="url(#Filter_1)" xlink:href="#Symbol_253_0_Layer0_6_FILL"/>
</g>

<g transform="matrix( 1, 0, 0, 1, 0,0) ">
<use filter="url(#Filter_1)" xlink:href="#Symbol_253_0_Layer0_7_FILL"/>
</g>
</g>
</svg>
