<?xml version="1.0" encoding="UTF-8" standalone="no"?>
<svg
   version="1.1"
   preserveAspectRatio="none"
   x="0px"
   y="0px"
   width="264"
   height="283"
   viewBox="0 0 264 283"
   id="svg3356"
   sodipodi:docname="pony_female_walk_bg_0010.svg"
   xmlns:inkscape="http://www.inkscape.org/namespaces/inkscape"
   xmlns:sodipodi="http://sodipodi.sourceforge.net/DTD/sodipodi-0.dtd"
   xmlns="http://www.w3.org/2000/svg"
   xmlns:svg="http://www.w3.org/2000/svg">
  <sodipodi:namedview
     id="namedview3358"
     pagecolor="#ffffff"
     bordercolor="#000000"
     borderopacity="0.25"
     inkscape:showpageshadow="2"
     inkscape:pageopacity="0.0"
     inkscape:pagecheckerboard="0"
     inkscape:deskcolor="#d1d1d1"
     showgrid="false" />
  <defs
     id="defs3302">
    <filter
       id="Filter_1"
       x="0"
       y="0"
       width="1"
       height="1"
       color-interpolation-filters="sRGB">
      <feColorMatrix
         in="SourceGraphic"
         type="matrix"
         values="0 0 0 0 0 0 0 0 0 0.8 0 0 0 0 0.4 0 0 0 1 0"
         result="result1"
         id="feColorMatrix3269" />
    </filter>
  </defs>
  <path
     fill="#FFFFFF"
     id="path3360"
     d="m -3.4635566,-37.366942 c -0.6849135,0.68226 -1.3093511,1.582786 -1.8723745,2.701772 -1.1269243,2.271298 -1.4206184,4.565136 -0.8813265,6.88031 0.1655538,0.68576 0.3798202,1.330432 0.6433554,1.935399 -2.130367,0.749635 -3.9938303,1.85841 -5.5838928,3.336348 -1.160228,1.003218 -2.314435,2.390118 -3.461521,4.160673 -0.864698,1.177738 -1.458553,2.21238 -1.782164,3.104239 -1.027829,2.307255 -1.931694,5.5851436 -2.710497,9.8331066 -0.388525,2.0906572 -0.670954,3.9671165 -0.848125,5.62982262 l -2.911177,2.27476088 c -1.988092,2.0485357 -3.016714,4.4057422 -3.086912,7.0716882 -0.06581,2.4993247 0.727119,4.6543447 2.380153,6.4652877 1.199656,1.298793 2.707243,2.305113 4.522531,3.019864 l 10.0829734,0.816174 c 4.474234,-0.215654 7.9215317,-0.691469 10.3419424,-1.42807 0.1723787,-0.05246 0.3341744,-0.107976 0.5005107,-0.161842 l 3.5594957,9.807386 c -3.7775498,1.975489 -6.13365093,5.613034 -7.0607592,10.921909 -0.8930849,5.330381 -0.011543,9.512123 2.6448427,12.544995 0.5043419,0.573885 1.1075136,1.127413 1.8058278,1.66215 -0.065708,1.000665 -0.1932503,1.899371 -0.3919561,2.682722 -2.47619769,6.435659 -4.5905042,12.39167 -6.3432587,17.867316 -3.4843298,10.585167 -4.8202395,18.088306 -4.0073739,22.510137 1.2967064,0.676134 3.0529484,1.195254 5.2695044,1.557251 4.3665437,0.720144 8.7591541,0.422739 13.1765778,-0.891298 -0.0032,-0.199658 -0.0036,-0.384498 -0.0064,-0.582545 l 0.54319,-0.03707 c 4.478769,-0.642579 8.597238,-1.990904 12.356129,-4.044342 -0.42028,-0.901704 -0.833466,-1.836963 -1.239735,-2.805491 -0.137742,-0.687707 -0.412959,-1.395365 -0.829144,-2.123246 l -0.02846,-0.01534 c -1.477395,-3.78906 -2.860054,-8.031078 -4.142685,-12.749059 -0.554009,-1.968987 -0.174761,-5.353237 1.138152,-10.153023 0.538355,-1.974 0.963562,-3.640466 1.279185,-5.013906 1.245202,0.187682 2.464003,0.316945 3.650207,0.374567 3.124529,0.151778 5.970044,-0.113626 8.538397,-0.795639 0.0545,0.05971 0.106278,0.120162 0.161806,0.17961 1.412487,1.561167 2.797741,2.720459 4.156579,3.477152 l 0.725026,5.005588 -0.551617,4.123539 c -0.06161,1.06509 -0.949216,3.134358 -2.663195,6.207773 -2.126313,3.851053 -3.5816,6.772038 -4.36473,8.763857 -0.61496,1.584219 -1.203577,3.273188 -1.765464,5.065028 -1.137658,3.143097 -2.056609,6.443285 -2.756545,9.901868 l 0.170251,0.0167 c 4.015154,1.49588 8.431969,2.0995 13.249174,1.81145 2.411857,-0.12764 4.41455,-0.41182 6.009708,-0.85387 -0.02264,-0.68828 -0.01213,-1.42049 0.02587,-2.18924 0.10087,-0.005 0.200862,-0.006 0.302029,-0.0119 2.447509,-0.16663 4.488505,-0.525514 6.123459,-1.078193 -1.253036,-3.740302 -1.392329,-8.833984 -0.418266,-15.281069 1.264734,-6.276159 1.919367,-10.091152 1.964271,-11.444721 0.01517,-1.416932 -0.999059,-3.78752 -3.044283,-7.111322 -0.08172,-0.134155 -0.151681,-0.254655 -0.230145,-0.385122 -1.040247,-2.854441 -1.549839,-4.719709 -1.528421,-5.595101 0.0027,-1.202078 0.867083,-3.4397 2.592614,-6.71282 1.872146,-3.498406 2.943367,-6.140602 3.213758,-7.928316 0.5042,-2.943028 -0.255153,-5.692103 -2.278065,-8.246999 -1.714101,-2.227656 -3.970985,-3.655717 -6.765785,-4.29148 -1.465982,-0.870823 -2.96589,-1.346227 -4.498611,-1.420681 l -8.339045,0.596806 c -1.250336,0.09498 -2.415539,0.09282 -3.497621,-0.0018 -0.179172,-0.936429 -0.535887,-2.031658 -1.073924,-3.287078 L 17.699588,2.3503079 C 17.560694,2.1456226 17.40126,1.954705 17.227097,1.7740672 17.266043,1.0374485 17.25098,0.22777681 17.178968,-0.65819272 16.595024,-7.6098356 15.602143,-12.987621 14.201703,-16.792759 c -1.524092,-4.188979 -3.609165,-7.08853 -6.2544219,-8.700118 -0.30678,-1.32179 -0.8834781,-2.411115 -1.7336218,-3.265556 -0.5524738,-0.548107 -2.584901,-1.885419 -6.09707737,-4.012098 -2.43002333,-1.431235 -3.62313493,-2.963519 -3.58013853,-4.596411 z"
     style="filter:url(#Filter_1)"
     transform="matrix(1.9962769,-0.11547852,0.11547852,1.9961548,57.7,78.7)" />
</svg>
