
<svg xmlns="http://www.w3.org/2000/svg" version="1.1" xmlns:xlink="http://www.w3.org/1999/xlink" preserveAspectRatio="none" x="0px" y="0px" width="330px" height="358px" viewBox="50 364 330 358">
<defs>
<filter id="Filter_1" x="-20%" y="-20%" width="140%" height="140%" color-interpolation-filters="sRGB">
<feColorMatrix in="SourceGraphic" type="matrix" values="0 0 0 0 0.4 0 0 0 0 0.8 0 0 0 0 0.4 0 0 0 1 0" result="result1"/>
</filter>

<g id="Symbol_197_0_Layer0_0_FILL">
<path fill="#FFFFFF" stroke="none" d="
M 88 42
Q 86.05 37.05 81.35 34.8
L 68.4 46.15
Q 66.45 51.35 69.2 56.6 70.6 59.2 72.35 60.8
L 70.4 67.3
Q 70.1 68.25 65.3 71 60.25 73.75 58.95 76.9 57.5 80.35 56.55 86.45 56 89.55 55.8 91.9 62.45 94.95 69.7 94.45 73.35 94.25 75.65 93.35 73.2 87.7 76.7 81.4 81.1 75.4 81.9 73.5 82.8 71.45 81.7 66.5 80.4 61.1 80.7 59.8 81 58.2 84.25 55.4 87.7 52.45 88.5 50.1 89.85 46.45 88 42 Z"/>
</g>

<g id="Symbol_197_0_Layer0_1_FILL">
<path fill="#FFFFFF" stroke="none" d="
M 45.4 43
L 42.7 46.6
Q 39.45 50.35 36.9 51.45
L 32.95 52.95
Q 29.55 54.35 26.9 55.95 18.45 60.8 16.8 67.95 14.65 77.2 15.6 82.05
L 20.65 84.05
Q 27.05 85.75 33.45 84.2
L 33.4 70.35
Q 33.35 67.25 33.65 66.3 34.25 64.3 36.75 64.4 41.4 64.6 45.2 61.15
L 48.05 57.6 45.4 43 Z"/>
</g>

<g id="Symbol_197_0_Layer0_2_FILL">
<path fill="#FFFFFF" stroke="none" d="
M 64.45 33.7
L 50.35 10.15
Q 49.1 8.95 47 8.75 42.75 8.35 38.35 13.35 34.75 17.4 34.8 21.35 34.8 23.7 35.95 25.55
L 46.65 42.85
Q 48.1 44.8 52.05 45.85 57.1 47.2 61.65 44.6 66.35 41.8 66.6 39.1 66.8 37.15 64.45 33.7 Z"/>
</g>

<g id="Symbol_197_0_Layer0_3_FILL">
<path fill="#FFFFFF" stroke="none" d="
M 87.5 43.15
Q 88.75 38.9 84.65 35.75 81.1 33.05 77.55 33.2
L 69.25 34.6
Q 64.1 35.45 60.7 33.95 54.95 31.55 53.65 31.3 48.7 30.25 43.75 33.15 37.9 36.55 37.2 45 36.6 53.1 41 57.2 44.25 60.3 51.8 62.05 58.35 63.6 63.9 63.35 73.25 62.95 78.8 57.9 81.55 55.4 84.2 50.65 86.45 46.7 87.5 43.15 Z"/>
</g>

<g id="Symbol_197_0_Layer0_4_FILL">
<path fill="#FFFFFF" stroke="none" d="
M 90.7 47.25
Q 91.25 43.2 88.5 39.1 85.55 34.55 80.45 33.3
L 70.15 47.55
Q 69.35 53.15 73.2 57.9 75.05 60.2 77.15 61.4
L 76.55 68.4
Q 76.55 69.45 72.35 73.2 68 77.05 67.4 80.55 66.7 84.3 67.05 90.7
L 67.45 96.35
Q 74.65 98 81.6 95.95 85.15 94.9 87.2 93.5 83.65 88.35 85.75 81.25 88.75 74.25 89.15 72.2 89.6 69.9 87.45 65.15 85.05 60.05 85.1 58.65 85.05 56.95 87.65 53.45 90.35 49.75 90.7 47.25 Z"/>
</g>

<g id="Symbol_197_0_Layer0_5_FILL">
<path fill="#FFFFFF" stroke="none" d="
M 49.7 48.4
Q 45 45.65 43.05 46.3 41.75 46.85 41.65 49.45
L 41.8 53.75
Q 41.7 58.55 40.45 61.05 39.8 62.4 33.7 68.15 27.75 74.7 26.8 81.35 25.55 90.25 26.9 94.8
L 32.3 96.35
Q 39 97.4 45.35 95.45 44.55 89.15 44 82.3 43.75 79.9 44.4 77.4 44.95 75.3 46.4 72.4
L 53.1 60.45
Q 53.95 58.45 54 55.95 54.05 51 49.7 48.4 Z"/>
</g>

<g id="Symbol_197_0_Layer0_6_FILL">
<path fill="#FFFFFF" stroke="none" d="
M 39.25 -29.9
L 36.7 -27.75
Q 34.25 -24.9 34.15 -21.35 33.95 -12.65 45.3 -9.3 46.2 -10.75 46.75 -12.65 47.85 -16.5 46.4 -19.05
L 41.55 -24.5
Q 38.55 -27.55 39.25 -29.9 Z"/>
</g>

<g id="Symbol_197_0_Layer0_7_FILL">
<path fill="#FFFFFF" stroke="none" d="
M 28 -17.45
Q 25.95 -16.45 23.6 -14.3 21.9 -12.95 21.1 -11.8 18.7 -8.85 15.95 -3
L 13.7 2.2 10.3 3.65
Q 6.65 5.9 5.5 9.7 4.45 13.3 6.15 16.6 7.45 18.95 9.8 20.65 12.25 22.5 19.3 24 25.9 25.45 29.65 25.3 33.6 25.15 35.8 24.05 39.7 22.15 41.3 17.1 44.8 18 46.45 17.15 48.9 15.95 49.8 10.9 51.6 0.55 51.05 -5.45 50.1 -16.05 42.55 -18.3 34.15 -20.75 28 -17.45 Z"/>
</g>
</defs>

<g transform="matrix( 2, 0, 0, 1.9998779296875, 100.1,433.95) ">
<g transform="matrix( 1, 0, 0, 1, 0,0) ">
<use filter="url(#Filter_1)" xlink:href="#Symbol_197_0_Layer0_0_FILL"/>
</g>

<g transform="matrix( 1, 0, 0, 1, 0,0) ">
<use filter="url(#Filter_1)" xlink:href="#Symbol_197_0_Layer0_1_FILL"/>
</g>

<g transform="matrix( 1, 0, 0, 1, 0,0) ">
<use filter="url(#Filter_1)" xlink:href="#Symbol_197_0_Layer0_2_FILL"/>
</g>

<g transform="matrix( 1, 0, 0, 1, 0,0) ">
<use filter="url(#Filter_1)" xlink:href="#Symbol_197_0_Layer0_3_FILL"/>
</g>

<g transform="matrix( 1, 0, 0, 1, 0,0) ">
<use filter="url(#Filter_1)" xlink:href="#Symbol_197_0_Layer0_4_FILL"/>
</g>

<g transform="matrix( 1, 0, 0, 1, 0,0) ">
<use filter="url(#Filter_1)" xlink:href="#Symbol_197_0_Layer0_5_FILL"/>
</g>

<g transform="matrix( 1, 0, 0, 1, 0,0) ">
<use filter="url(#Filter_1)" xlink:href="#Symbol_197_0_Layer0_6_FILL"/>
</g>

<g transform="matrix( 1, 0, 0, 1, 0,0) ">
<use filter="url(#Filter_1)" xlink:href="#Symbol_197_0_Layer0_7_FILL"/>
</g>
</g>
</svg>
