
<svg xmlns="http://www.w3.org/2000/svg" version="1.1" xmlns:xlink="http://www.w3.org/1999/xlink" preserveAspectRatio="none" x="0px" y="0px" width="330px" height="358px" viewBox="50 364 330 358">
<defs>
<filter id="Filter_1" x="-20%" y="-20%" width="140%" height="140%" color-interpolation-filters="sRGB">
<feColorMatrix in="SourceGraphic" type="matrix" values="0 0 0 0 0.4 0 0 0 0 0.8 0 0 0 0 0.4 0 0 0 1 0" result="result1"/>
</filter>

<g id="Symbol_211_0_Layer0_0_FILL">
<path fill="#FFFFFF" stroke="none" d="
M 88.55 41.9
Q 86.85 36.8 82.25 34.3
L 68.75 45.2
Q 66.5 50.35 69.05 55.8 70.25 58.5 71.95 60.2
L 69.65 66.7
Q 69.3 67.65 64.3 70.2 59.15 72.7 57.75 75.8 56.15 79.3 54.8 85.45
L 53.8 90.9
Q 60.3 94.3 67.55 94.15 71.25 94.05 73.6 93.25 71.4 87.45 75.25 81.2 79.95 75.35 80.85 73.5 81.85 71.4 80.95 66.35 80 60.85 80.3 59.55 80.75 57.95 84.1 55.25 87.7 52.45 88.65 50.1 90.15 46.5 88.55 41.9 Z"/>
</g>

<g id="Symbol_211_0_Layer0_1_FILL">
<path fill="#FFFFFF" stroke="none" d="
M 46.15 42.25
L 43.2 45.75
Q 39.7 49.4 37.15 50.35
L 33.15 51.7
Q 29.65 52.95 26.85 54.4 18.2 58.9 16.05 66.05 13.35 75.35 13.9 80.4
L 18.7 82.75
Q 24.9 84.85 31.3 83.7
L 32.3 69.5
Q 32.5 66.35 32.8 65.4 33.6 63.35 36.05 63.6 40.65 64.1 44.6 60.8
L 47.7 57.35 46.15 42.25 Z"/>
</g>

<g id="Symbol_211_0_Layer0_2_FILL">
<path fill="#FFFFFF" stroke="none" d="
M 64.25 33.1
L 50.4 9.35
Q 49.2 8.15 47.05 7.95 42.85 7.45 38.4 12.45 34.7 16.4 34.75 20.35 34.7 22.7 35.9 24.55
L 40.65 32.65
Q 45.55 40.95 46.35 42.05 47.7 44 51.7 45.1 56.75 46.5 61.25 43.95 66 41.2 66.3 38.5 66.55 36.55 64.25 33.1 Z"/>
</g>

<g id="Symbol_211_0_Layer0_3_FILL">
<path fill="#FFFFFF" stroke="none" d="
M 87.45 41.8
Q 88.6 37.55 84.45 34.5 80.85 31.9 77.3 32.1
L 69.1 33.55
Q 63.95 34.55 60.5 33.15 54.75 30.85 53.4 30.6 48.45 29.7 43.55 32.65 37.75 36.1 37.2 44.55 36.75 52.7 41.2 56.75 44.5 59.75 52.05 61.35 58.65 62.8 64.2 62.5 73.55 61.9 79 56.75 81.7 54.2 84.3 49.4 86.45 45.4 87.45 41.8 Z"/>
</g>

<g id="Symbol_211_0_Layer0_4_FILL">
<path fill="#FFFFFF" stroke="none" d="
M 90.95 46.45
Q 91.55 42.45 88.9 38.35 86 33.7 80.95 32.35
L 70.35 46.4
Q 69.45 52 73.25 56.8 75.1 59.15 77.1 60.4
L 76.4 67.4
Q 76.35 68.45 72.1 72.1 67.65 75.9 67.05 79.35 66.3 83.1 66.45 89.5
L 66.8 95.15
Q 73.95 97 81 95 84.5 94.05 86.6 92.7 83.1 87.5 85.35 80.45 88.5 73.5 88.9 71.4 89.45 69.15 87.35 64.35 85.1 59.15 85.1 57.75 85.15 56.1 87.75 52.65 90.6 48.95 90.95 46.45 Z"/>
</g>

<g id="Symbol_211_0_Layer0_5_FILL">
<path fill="#FFFFFF" stroke="none" d="
M 49.85 47.8
Q 45.25 44.9 43.3 45.5 41.95 46 41.8 48.65
L 41.9 53
Q 41.7 57.75 40.4 60.25 39.7 61.6 33.55 67.2 27.45 73.65 26.4 80.25 25 89.15 26.3 93.75
L 31.65 95.4
Q 38.3 96.6 44.65 94.65 44 88.4 43.6 81.55 43.4 79.1 44.1 76.7 44.7 74.55 46.1 71.7 48.75 66.7 51.1 62.8
L 53.05 59.85
Q 53.95 57.85 54.05 55.4 54.15 50.4 49.85 47.8 Z"/>
</g>

<g id="Symbol_211_0_Layer0_6_FILL">
<path fill="#FFFFFF" stroke="none" d="
M 38.55 -30.7
L 36.05 -28.55
Q 33.6 -25.6 33.5 -22.05 33.45 -13.4 44.85 -10.25 45.75 -11.65 46.3 -13.55 47.35 -17.4 45.8 -20 45.25 -21 40.9 -25.35 37.9 -28.3 38.55 -30.7 Z"/>
</g>

<g id="Symbol_211_0_Layer0_7_FILL">
<path fill="#FFFFFF" stroke="none" d="
M 27.45 -18.15
Q 25.4 -17.1 23.15 -14.95 21.4 -13.55 20.65 -12.35 18.3 -9.4 15.65 -3.5
L 13.4 1.75 10.05 3.25
Q 6.4 5.5 5.3 9.35 4.3 12.95 6.1 16.2 7.35 18.55 9.7 20.2 12.25 22 19.35 23.45 25.9 24.75 29.7 24.6 33.6 24.4 35.8 23.25 39.65 21.35 41.15 16.2 44.7 17.05 46.35 16.2 48.8 15 49.6 9.9 51.3 -0.4 50.65 -6.45 49.55 -17 41.95 -19.15 33.5 -21.5 27.45 -18.15 Z"/>
</g>
</defs>

<g transform="matrix( 2, 0, 0, 1.9998779296875, 100.1,433.95) ">
<g transform="matrix( 1, 0, 0, 1, 0,0) ">
<use filter="url(#Filter_1)" xlink:href="#Symbol_211_0_Layer0_0_FILL"/>
</g>

<g transform="matrix( 1, 0, 0, 1, 0,0) ">
<use filter="url(#Filter_1)" xlink:href="#Symbol_211_0_Layer0_1_FILL"/>
</g>

<g transform="matrix( 1, 0, 0, 1, 0,0) ">
<use filter="url(#Filter_1)" xlink:href="#Symbol_211_0_Layer0_2_FILL"/>
</g>

<g transform="matrix( 1, 0, 0, 1, 0,0) ">
<use filter="url(#Filter_1)" xlink:href="#Symbol_211_0_Layer0_3_FILL"/>
</g>

<g transform="matrix( 1, 0, 0, 1, 0,0) ">
<use filter="url(#Filter_1)" xlink:href="#Symbol_211_0_Layer0_4_FILL"/>
</g>

<g transform="matrix( 1, 0, 0, 1, 0,0) ">
<use filter="url(#Filter_1)" xlink:href="#Symbol_211_0_Layer0_5_FILL"/>
</g>

<g transform="matrix( 1, 0, 0, 1, 0,0) ">
<use filter="url(#Filter_1)" xlink:href="#Symbol_211_0_Layer0_6_FILL"/>
</g>

<g transform="matrix( 1, 0, 0, 1, 0,0) ">
<use filter="url(#Filter_1)" xlink:href="#Symbol_211_0_Layer0_7_FILL"/>
</g>
</g>
</svg>
