
<svg xmlns="http://www.w3.org/2000/svg" version="1.1" xmlns:xlink="http://www.w3.org/1999/xlink" preserveAspectRatio="none" x="0px" y="0px" width="330px" height="358px" viewBox="50 364 330 358">
<defs>
<filter id="Filter_1" x="-20%" y="-20%" width="140%" height="140%" color-interpolation-filters="sRGB">
<feColorMatrix in="SourceGraphic" type="matrix" values="0 0 0 0 0.4 0 0 0 0 0.8 0 0 0 0 0.4 0 0 0 1 0" result="result1"/>
</filter>

<g id="Symbol_183_0_Layer0_0_FILL">
<path fill="#FFFFFF" stroke="none" d="
M 83 73.75
Q 83.8 71.65 82.4 66.8 80.8 61.6 81 60.3 81.25 58.7 84.35 55.8 87.6 52.7 88.3 50.35 89.45 46.7 87.4 42.35 85.15 37.55 80.3 35.6
L 68 47.45
Q 66.3 52.65 69.45 57.7 70.95 60.2 72.75 61.7
L 71.1 68.2
Q 70.95 69.15 66.25 72.05 61.4 75 60.25 78.15 59.05 81.7 58.4 87.75
L 57.95 93.2
Q 64.8 95.9 72 95 75.6 94.6 77.9 93.6 75.1 88.2 78.25 81.8 82.3 75.65 83 73.75 Z"/>
</g>

<g id="Symbol_183_0_Layer0_1_FILL">
<path fill="#FFFFFF" stroke="none" d="
M 44.85 43.95
L 42.35 47.6
Q 39.35 51.5 36.95 52.75
L 33.05 54.5
Q 29.75 56.1 27.1 57.8 19.05 63.15 17.85 70.2 16.45 79.3 17.8 84
L 23.05 85.6
Q 29.65 86.8 35.95 84.85 35.6 78.45 34.85 71.35 34.5 68.4 34.75 67.45 35.25 65.45 37.75 65.35 42.45 65.2 46.05 61.6
L 48.65 57.95 44.85 43.95 Z"/>
</g>

<g id="Symbol_183_0_Layer0_2_FILL">
<path fill="#FFFFFF" stroke="none" d="
M 64.65 34.4
L 50.35 11
Q 49.15 9.85 47 9.6 42.75 9.3 38.4 14.3 34.8 18.35 34.9 22.3 34.95 24.65 36.1 26.5
L 47 43.7
Q 48.4 45.65 52.4 46.65 57.5 47.95 61.95 45.3 66.65 42.45 66.85 39.75 67.05 37.8 64.65 34.4 Z"/>
</g>

<g id="Symbol_183_0_Layer0_3_FILL">
<path fill="#FFFFFF" stroke="none" d="
M 87.65 44.35
Q 88.95 40.15 84.95 36.95 81.4 34.2 77.85 34.25
L 69.6 35.5
Q 64.45 36.3 61.05 34.7 55.4 32.2 54.1 31.95 49.1 30.85 44.1 33.6 38.2 36.9 37.35 45.35 36.65 53.35 40.95 57.6 44.15 60.75 51.65 62.65 58.2 64.3 63.75 64.15 73.05 63.9 78.7 58.95 81.5 56.5 84.2 51.75 86.5 47.9 87.65 44.35 Z"/>
</g>

<g id="Symbol_183_0_Layer0_4_FILL">
<path fill="#FFFFFF" stroke="none" d="
M 90.45 47.85
Q 90.9 43.8 88.05 39.75 84.95 35.25 79.85 34.15
L 69.9 48.6
Q 69.2 54.25 73.15 58.85 75.1 61.15 77.2 62.35
L 76.75 69.3
Q 76.75 70.35 72.6 74.2 68.4 78.15 67.85 81.6 67.3 85.4 67.75 91.8
L 68.3 97.45
Q 75.5 98.95 82.4 96.7 85.9 95.6 87.95 94.15 84.25 89.15 86.2 82 89.05 74.9 89.45 72.85 89.85 70.55 87.55 65.85 85.1 60.7 85 59.4 85 57.65 87.5 54.1 90.15 50.35 90.45 47.85 Z"/>
</g>

<g id="Symbol_183_0_Layer0_5_FILL">
<path fill="#FFFFFF" stroke="none" d="
M 49.7 49.15
Q 44.95 46.45 43.05 47.15 41.65 47.7 41.65 50.3
L 41.9 54.65
Q 41.85 59.4 40.65 61.95 40 63.3 34.05 69.15 28.2 75.85 27.35 82.5 26.3 91.45 27.75 95.95
L 33.2 97.4
Q 39.85 98.35 46.15 96.2 45.3 89.95 44.6 83.15 44.3 80.7 44.9 78.25 45.45 76.1 46.8 73.2
L 53.3 61.1
Q 54.15 59.1 54.1 56.65 54.05 51.6 49.7 49.15 Z"/>
</g>

<g id="Symbol_183_0_Layer0_6_FILL">
<path fill="#FFFFFF" stroke="none" d="
M 39.75 -28.95
Q 38.5 -28.25 37.2 -26.8 34.7 -24 34.55 -20.4 34.3 -11.75 45.65 -8.35
L 47.1 -11.65
Q 48.25 -15.5 46.75 -18.1
L 42 -23.6
Q 39.05 -26.6 39.75 -28.95 Z"/>
</g>

<g id="Symbol_183_0_Layer0_7_FILL">
<path fill="#FFFFFF" stroke="none" d="
M 28.4 -16.65
Q 26.35 -15.65 23.95 -13.5 22.25 -12.2 21.45 -11 19.05 -8.1 16.25 -2.25
L 13.9 2.95 10.55 4.35
Q 6.85 6.55 5.65 10.35 4.6 13.95 6.25 17.25 7.55 19.6 9.85 21.35 12.35 23.15 19.35 24.8 25.9 26.25 29.65 26.1 33.65 26 35.85 24.95 39.75 23.1 41.4 18 44.85 18.95 46.55 18.1 49.05 16.95 49.95 11.9 51.85 1.6 51.35 -4.45 50.45 -15.05 42.9 -17.35 34.55 -19.9 28.4 -16.65 Z"/>
</g>
</defs>

<g transform="matrix( 2, 0, 0, 1.9998779296875, 100.1,433.95) ">
<g transform="matrix( 1, 0, 0, 1, 0,0) ">
<use filter="url(#Filter_1)" xlink:href="#Symbol_183_0_Layer0_0_FILL"/>
</g>

<g transform="matrix( 1, 0, 0, 1, 0,0) ">
<use filter="url(#Filter_1)" xlink:href="#Symbol_183_0_Layer0_1_FILL"/>
</g>

<g transform="matrix( 1, 0, 0, 1, 0,0) ">
<use filter="url(#Filter_1)" xlink:href="#Symbol_183_0_Layer0_2_FILL"/>
</g>

<g transform="matrix( 1, 0, 0, 1, 0,0) ">
<use filter="url(#Filter_1)" xlink:href="#Symbol_183_0_Layer0_3_FILL"/>
</g>

<g transform="matrix( 1, 0, 0, 1, 0,0) ">
<use filter="url(#Filter_1)" xlink:href="#Symbol_183_0_Layer0_4_FILL"/>
</g>

<g transform="matrix( 1, 0, 0, 1, 0,0) ">
<use filter="url(#Filter_1)" xlink:href="#Symbol_183_0_Layer0_5_FILL"/>
</g>

<g transform="matrix( 1, 0, 0, 1, 0,0) ">
<use filter="url(#Filter_1)" xlink:href="#Symbol_183_0_Layer0_6_FILL"/>
</g>

<g transform="matrix( 1, 0, 0, 1, 0,0) ">
<use filter="url(#Filter_1)" xlink:href="#Symbol_183_0_Layer0_7_FILL"/>
</g>
</g>
</svg>
