
<svg xmlns="http://www.w3.org/2000/svg" version="1.1" xmlns:xlink="http://www.w3.org/1999/xlink" preserveAspectRatio="none" x="0px" y="0px" width="268px" height="285px" viewBox="0 0 268 285">
<defs>
<filter id="Filter_1" x="-20%" y="-20%" width="140%" height="140%" color-interpolation-filters="sRGB">
<feColorMatrix in="SourceGraphic" type="matrix" values="0 0 0 0 1 0 0 0 0 0 0 0 0 0 0.4 0 0 0 1 0" result="result1"/>
</filter>

<g id="anims_pony_walk_anim_clean_flats_17_Layer0_0_FILL">
<path fill="#FFFFFF" stroke="none" d="
M 42.55 39.5
Q 42.5345703125 38.2154296875 42.35 36.9 40.85 26.55 38.45 20.95 35.790234375 14.8484375 31.7 12.65 31.130078125 10.6958984375 29.75 9.5 28.9 8.7 23.45 5.8 19.7 3.95 19.6 1.5
L 17.95 4.3
Q 16.45 7.75 17.45 11.15 17.748046875 12.159375 18.15 13.05 15.822265625 14.020703125 14 15.6 12.15 17.25 8.35 23.05 6.5 25.9 5.7 30.5 5.25 32.9 4.7 36.55 4.35 37.65 1.35 42.45 -1.25 46.6 -1.05 48.1 -0.7 50.6 0.35 53.9 1.7 57.8 2.95 59 4.45 60.35 8.35 61.85 12.3 63.25 14.35 63.25 16.9 63.25 19.5 61.75 22.65 59.9 23.55 56.75
L 27.9 56.95
Q 28.03125 56.941796875 28.15 56.9
L 30.2 61.7
Q 31.2953125 64.265234375 32.1 66.2 26.567578125 69.5037109375 25.7 77.65 24.9 85.7 29.2 89.95 30.3798828125 91.1298828125 32.15 92.15 32.631640625 94.88203125 32.8 97.2 32.33671875 98.477734375 31.7 99.5 28.35 104.9 27.45 106.9 25.4 111.15 24.95 116.05 24.25 123.85 25.05 129.8 27.1 130.7 30.3 131.05 31.38671875 131.151171875 32.45 131.15 32.7607421875 131.95390625 33.1 132.75 34.95 133.1 38.05 132.95 44.25 132.65 50.45 130.3 49.75 128.5 48.75 125.25 46.8 118.8 45.6 111.8 45.15 109.3 44.95 105.95 44.9 105.4 44.9 104.8 44.826953125 102.75234375 44.8 100.4 45.8255859375 98.4060546875 46.5 96.4 49.32578125 96.7732421875 51.9 96.75 58.1537109375 96.6162109375 62.75 94.35 63.47578125 95.4462890625 64.35 96.45 65.7796875 98.165625 67.15 99.2
L 67.5 102.2
Q 67.6 103.15 64.15 107.5 60.5 112.05 60.5 115.3 60.5 118.95 61.9 124.75 62.65 127.6 63.3 129.8 63.87890625 129.7921875 64.45 129.75 63.78359375 133.8703125 63.75 138.25 69.49609375 140.943359375 76 140.5 76.3376953125 140.4716796875 76.65 140.4 77.0876953125 140.4005859375 77.5 140.35 81.2 139.85 83.6 138.8 81.6 132.85 82.85 122.3 84.55 112 84.55 109.8 84.55 107.5 81.35 102.3 78.15 97.05 78.15 95.35 78.15 93.7 79.9 88.35 81.6 82.95 81.6 80.15 81.6 75.6 78.55 72 75.476171875 68.37109375 70.6 67.85 68.4919921875 66.869921875 66.35 66.9 60.9 67.7 58.05 68.05 56.2857421875 68.3044921875 54.7 68.3 54.3673828125 66.962109375 53.5 65.25 52.25 62.6 47.45 50.95
L 42.9 39.9
Q 42.7404296875 39.684765625 42.55 39.5 Z"/>
</g>
</defs>

<g transform="matrix( 2, 0, 0, 1.9998779296875, 9.9,2.9) ">
<g transform="matrix( 1, 0, 0, 1, 0.2,0) ">
<g transform="matrix( 1, 0, 0, 1, 0,0) ">
<use filter="url(#Filter_1)" xlink:href="#anims_pony_walk_anim_clean_flats_17_Layer0_0_FILL"/>
</g>
</g>
</g>
</svg>
