<?xml version="1.0" encoding="UTF-8" standalone="no"?>
<svg
   version="1.1"
   preserveAspectRatio="none"
   x="0px"
   y="0px"
   width="264"
   height="283"
   viewBox="0 0 264 283"
   id="svg2179"
   sodipodi:docname="pony_female_walk_bg_0005.svg"
   xmlns:inkscape="http://www.inkscape.org/namespaces/inkscape"
   xmlns:sodipodi="http://sodipodi.sourceforge.net/DTD/sodipodi-0.dtd"
   xmlns="http://www.w3.org/2000/svg"
   xmlns:svg="http://www.w3.org/2000/svg">
  <sodipodi:namedview
     id="namedview2181"
     pagecolor="#ffffff"
     bordercolor="#000000"
     borderopacity="0.25"
     inkscape:showpageshadow="2"
     inkscape:pageopacity="0.0"
     inkscape:pagecheckerboard="0"
     inkscape:deskcolor="#d1d1d1"
     showgrid="false" />
  <defs
     id="defs2125">
    <filter
       id="Filter_1"
       x="0"
       y="0"
       width="1"
       height="1"
       color-interpolation-filters="sRGB">
      <feColorMatrix
         in="SourceGraphic"
         type="matrix"
         values="0 0 0 0 0 0 0 0 0 0.8 0 0 0 0 0.4 0 0 0 1 0"
         result="result1"
         id="feColorMatrix2092" />
    </filter>
  </defs>
  <path
     fill="#FFFFFF"
     id="path2183"
     d="m -4.2577685,-37.425471 c -0.6723489,0.694587 -1.2799102,1.606304 -1.8224442,2.735306 -1.0853385,2.291336 -1.3373661,4.589852 -0.7560401,6.89472 0.1779846,0.68253 0.4043832,1.323406 0.6788376,1.923394 -2.1166244,0.788272 -3.9596128,1.930864 -5.5226418,3.437639 -1.141721,1.02413 -2.269649,2.431756 -3.384261,4.222823 -0.843075,1.193232 -1.418846,2.238505 -1.726152,3.136068 -0.98561,2.325482 -1.828706,5.6184893 -2.530012,9.8797379 -0.350383,2.097291 -0.599529,3.9790178 -0.746394,5.64459984 l -2.868961,2.32689616 c -1.950381,2.0843002 -2.93599,4.4598204 -2.95764,7.1264838 -0.0203,2.4999973 0.812068,4.6404543 2.497723,6.4209213 1.223048,1.276679 2.748249,2.255338 4.576167,2.93689 l 10.0955907,0.632245 c 4.4693674,-0.297067 7.90724858,-0.835789 10.3137407,-1.616302 0.08589,-0.02786 0.1648432,-0.05742 0.2492096,-0.0856 L 5.6135283,28.58788 c -3.9080871,2.195929 -6.14887226,6.08251 -6.7201094,11.662742 -0.5132389,5.379033 0.66166621,9.486853 3.5255183,12.323338 0.24054,0.237446 0.50212,0.468855 0.7799943,0.695968 -0.2987874,1.858044 -0.8207404,3.56132 -1.5685244,5.107287 l -4.1689722,8.995651 c -1.6868907,4.044977 -3.0386569,7.927629 -4.0545109,11.648076 -0.8061927,2.989778 -1.380877,6.149888 -1.7248154,9.479141 -0.2711214,2.863483 -0.3385647,5.479713 -0.2031086,7.848489 1.4578217,0.68598 3.3014162,1.176521 5.5311498,1.472626 3.12355253,0.388819 6.1417706,0.170027 9.0557407,-0.652226 -0.1220038,1.444476 -0.1060289,2.650016 0.049045,3.613668 -0.033687,0.16847 -0.065468,0.34085 -0.099492,0.50855 l 5.3329315,1.32057 c 4.493239,0.55932 8.884287,0.0502 13.172329,-1.52684 L 24.300907,79.828787 C 24.18391,76.060064 23.772685,71.820724 23.068016,67.110791 l -1.134242,-7.977473 c 1.105002,0.07502 2.186037,0.106239 3.237635,0.08274 2.228414,-0.0498 4.298226,-0.303953 6.214923,-0.756106 0.06478,0.08942 0.126729,0.179613 0.193756,0.268233 1.115038,1.399299 2.235132,2.444969 3.359499,3.136709 l 0.502845,7.345001 c 0.180522,1.479283 0.07731,2.985937 -0.309623,4.519275 -0.491392,1.870418 -1.437841,4.119472 -2.839341,6.747109 -1.264926,2.383287 -2.444449,5.844763 -3.537776,10.38413 L 27.4756,96.981465 c 4.208431,1.93239 8.782883,2.65442 13.723332,2.165727 2.470225,-0.244346 4.509387,-0.694572 6.118251,-1.350271 -0.320974,-1.045893 -0.534357,-2.211984 -0.646452,-3.49066 0.77816,-0.295428 1.551189,-0.623204 2.31901,-0.988178 0.720928,-0.330547 1.4377,-0.691495 2.151295,-1.083181 2.282843,-1.2034 4.082208,-2.430076 5.39886,-3.679554 -0.855647,-0.84473 -1.59265,-1.838294 -2.211017,-2.979936 -0.15179,-0.04144 -0.30128,-0.08112 -0.451589,-0.121212 -0.981777,-2.359853 -1.179991,-5.18943 -0.584391,-8.493764 1.533855,-5.080469 2.376304,-8.335909 2.528531,-9.76743 0.154424,-1.598182 -0.649873,-3.809107 -2.412888,-6.632736 -1.926599,-3.059151 -2.949819,-5.056812 -3.070841,-5.991868 -0.08593,-1.067946 0.589286,-2.958873 2.025272,-5.673644 1.571512,-2.879673 2.401222,-5.168888 2.4903,-6.867946 0.102703,-2.732351 -0.897018,-5.262817 -2.999946,-7.59086 -2.063202,-2.26771 -4.570199,-3.548827 -7.519652,-3.84697 -1.619904,-0.86738 -3.246371,-1.283629 -4.877782,-1.247171 l -8.274573,1.185092 c -1.282624,0.189521 -2.481941,0.271962 -3.599448,0.24654 -0.201442,-0.742243 -0.491683,-1.563292 -0.88158,-2.47305 L 17.70035,2.350422 C 17.534347,2.1057864 17.341669,1.8781854 17.125285,1.6679005 c 0.04985,-0.82513529 0.025,-1.74648239 -0.0768,-2.7681631 -0.710375,-6.9395496 -1.800517,-12.2987074 -3.269934,-16.0775484 -1.600105,-4.160542 -3.737911,-7.021243 -6.4121231,-8.584285 -0.3307905,-1.315822 -0.9271116,-2.394523 -1.7925812,-3.233258 -0.5623359,-0.537934 -2.618021,-1.838162 -6.16817506,-3.900452 -2.45556794,-1.386693 -3.67670274,-2.896333 -3.66344214,-4.529665 z"
     style="filter:url(#Filter_1)"
     transform="matrix(1.9997253,-0.02636719,0.02636719,1.9996033,59.8,76.8)" />
</svg>
