
<svg xmlns="http://www.w3.org/2000/svg" version="1.1" xmlns:xlink="http://www.w3.org/1999/xlink" preserveAspectRatio="none" x="0px" y="0px" width="330px" height="358px" viewBox="0 0 330 358">
<defs>
<filter id="Filter_1" x="-20%" y="-20%" width="140%" height="140%" color-interpolation-filters="sRGB">
<feColorMatrix in="SourceGraphic" type="matrix" values="0 0 0 0 1 0 0 0 0 0 0 0 0 0 0.4 0 0 0 1 0" result="result1"/>
</filter>

<g id="anims_pony_jump_anim_clean_flats_10_Layer0_0_FILL">
<path fill="#FFFFFF" stroke="none" d="
M 17.05 -6.55
Q 15.9 -4.35 14.2 -1.1 13.6 -0.15 9.25 3.45 5.5 6.65 5.15 8.1 4.75 10.6 4.75 14 4.8 18.15 5.65 19.7 6.65 21.45 9.9 24.05 13.2 26.65 15.15 27.25 17.55 28.05 20.5 27.45 24.1 26.65 25.95 23.95
L 30 25.5
Q 33.512109375 26.3685546875 36.2 25.95
L 40.85 33.55
Q 41.2251953125 34.169140625 41.55 34.75 37.7572265625 38.2744140625 37.2 45 36.947265625 48.4126953125 37.55 51.1 37.2349609375 51.30546875 36.9 51.45 36.25 51.75 32.95 52.95 29.55 54.35 26.9 55.95 18.45 60.8 16.8 67.95 14.65 77.2 15.6 82.05
L 20.65 84.05
Q 23.51875 84.812109375 26.4 84.9 25.835546875 91.2126953125 26.9 94.8
L 32.3 96.35
Q 39 97.4 45.35 95.45 44.55 89.15 44 82.3 43.75 79.9 44.4 77.4 44.95 75.3 46.4 72.4 48.9 67.4 51.2 63.4
L 52 62.1
Q 58.4494140625 63.5955078125 63.9 63.35 68.402734375 63.157421875 72 61.85
L 70.4 67.3
Q 70.1 68.25 65.3 71 60.25 73.75 58.95 76.9 57.5 80.35 56.55 86.45 56 89.55 55.8 91.9 61.3455078125 94.443359375 67.3 94.5 67.3791015625 95.48125 67.45 96.35 74.65 98 81.6 95.95 85.15 94.9 87.2 93.5 83.65 88.35 85.75 81.25 88.75 74.25 89.15 72.2 89.6 69.9 87.45 65.15 85.05 60.05 85.1 58.65 85.05 56.95 87.65 53.45 90.35 49.75 90.7 47.25 91.25 43.2 88.5 39.1 85.55 34.55 80.45 33.3
L 80.3 33.5
Q 78.923828125 33.1419921875 77.55 33.2 72.1 34.15 69.25 34.6 67.077734375 34.95859375 65.2 34.9 64.875 34.3240234375 64.45 33.7 62.8 31.25 56.4 20.5
L 50.35 10.15
Q 50.237109375 10.0416015625 50.1 9.95 51.6728515625 0.35078125 51.15 -5.4 50.5228515625 -12.04765625 47.3 -15.4 47.3875 -17.4392578125 46.5 -19 45.9 -20 41.6 -24.4 38.65 -27.45 39.3 -29.8
L 36.85 -27.65
Q 34.35 -24.8 34.2 -21.2 34.1759765625 -20.16484375 34.3 -19.2 31.7685546875 -18.9978515625 29.55 -18.05 27.3 -17.1 21.9 -12.75 19.25 -10.6 17.05 -6.55
M 37.55 64.4
Q 36.024609375 65.9587890625 33.7 68.15 33.551953125 68.3130859375 33.4 68.45 33.4529296875 66.92421875 33.65 66.3 34.25 64.3 36.75 64.4 37.1572265625 64.417578125 37.55 64.4 Z"/>
</g>
</defs>

<g transform="matrix( 2, 0, 0, 1.9998779296875, 55.6,72.4) ">
<g transform="matrix( 1, 0, 0, 1, 0.05,-3) ">
<g transform="matrix( 1, 0, 0, 1, 0,0) ">
<use filter="url(#Filter_1)" xlink:href="#anims_pony_jump_anim_clean_flats_10_Layer0_0_FILL"/>
</g>
</g>
</g>
</svg>
