
<svg xmlns="http://www.w3.org/2000/svg" version="1.1" xmlns:xlink="http://www.w3.org/1999/xlink" preserveAspectRatio="none" x="0px" y="0px" width="268px" height="285px" viewBox="0 0 268 285">
<defs>
<filter id="Filter_1" x="-20%" y="-20%" width="140%" height="140%" color-interpolation-filters="sRGB">
<feColorMatrix in="SourceGraphic" type="matrix" values="0 0 0 0 1 0 0 0 0 0 0 0 0 0 0.4 0 0 0 1 0" result="result1"/>
</filter>

<g id="anims_pony_walk_anim_clean_flats_20_Layer0_0_FILL">
<path fill="#FFFFFF" stroke="none" d="
M 81.3 87.6
Q 83.05 82.2 82.8 79.4 82.35 75.05 78.5 71.35 74.937109375 67.991796875 70.35 67.4 68.2431640625 66.4396484375 66.1 66.5 60.65 67.35 57.8 67.75 55.82734375 68.0564453125 54.1 68 53.792578125 66.9244140625 53.2 65.6 52.05 62.9 47.8 51.1
L 43.75 39.8
Q 43.56953125 39.55625 43.35 39.3 43.381640625 37.91640625 43.2 36.45 41.95 26.05 39.65 20.4 37.1392578125 14.2173828125 33.1 11.9 32.5619140625 9.9703125 31.25 8.75 30.35 7.95 25 4.95 21.25 2.95 21.25 0.5
L 19.45 3.25
Q 17.9 6.7 18.85 10.15 19.12890625 11.1626953125 19.55 12.05 17.1591796875 12.9939453125 15.3 14.55 13.4 16.1 9.5 21.85 7.6 24.65 6.65 29.25 6.2 31.65 5.55 35.25 5.2 36.35 2.1 41.05 -0.65 45.2 -0.45 46.7 -0.15 49.2 0.85 52.5 2.1 56.45 3.35 57.65 4.8 59.05 8.65 60.6 12.6 62.15 14.65 62.15 17.2 62.2 19.85 60.75 23.05 58.95 24.05 55.85
L 28.25 56.1 30.1 61.05
Q 31.205078125 64.0353515625 32 66.15 26.3802734375 69.5091796875 25.6 77.75 24.9 85.85 29.2 90.05 30.5306640625 91.3390625 32.6 92.4 32.659765625 93.1810546875 32.6 93.85 32.45 95.35 28.8 102.9 26.1134765625 109.868359375 26.75 115.55 26.66953125 115.759375 26.6 115.95 20.75 132.1 21.7 138.65 23.65 139.55 26.95 139.9 27.785546875 139.988671875 28.6 140 29.3607421875 140.05546875 30.1 140.05 32.6228515625 140.05390625 35.15 139.6 37.8216796875 139.182421875 40.5 138.25
L 40.6 134
Q 40.4931640625 133.909375 40.35 133.8 40.471484375 131.294921875 40.6 128.95 45.4240234375 127.423046875 49.4 124.25 46.5 118.7 43.5 112.5 43.0189453125 111.4919921875 42.7 110.4 43.9990234375 103.7455078125 46.05 96.15 49.1861328125 96.553125 52.05 96.45 57.271484375 96.3103515625 61.3 94.7 62.60703125 95.4890625 63.9 95.85
L 63.85 102.35
Q 63.85 103.35 59.9 107.75 55.75 112.3 55.4 115.55 54.95 119.2 55.7 125.05 56.1 127.9 56.55 130.1 62.3966796875 130.019921875 68.05 127.7 67.8814453125 129.306640625 67.75 131.1 67.5 134.9 67.5 137.85 72.6701171875 140.2421875 78.2 140.2 80.053515625 140.209765625 81.95 139.95 85.55 139.5 87.85 138.4 87.2 137 86.65 134.5 86.3435546875 134.2484375 86.05 134 85.0138671875 128.996484375 85.45 121.85 86.6 111.45 86.35 109.2 86.1 106.9 83 101.6 79.85 96.4 79.7 94.65 79.5 93 81.3 87.6 Z"/>
</g>
</defs>

<g transform="matrix( 2, 0, 0, 1.9998779296875, 9.9,2.9) ">
<g transform="matrix( 1, 0, 0, 1, 0.2,0) ">
<g transform="matrix( 1, 0, 0, 1, 0,0) ">
<use filter="url(#Filter_1)" xlink:href="#anims_pony_walk_anim_clean_flats_20_Layer0_0_FILL"/>
</g>
</g>
</g>
</svg>
