
<svg xmlns="http://www.w3.org/2000/svg" version="1.1" xmlns:xlink="http://www.w3.org/1999/xlink" preserveAspectRatio="none" x="0px" y="0px" width="330px" height="358px" viewBox="0 0 330 358">
<defs>
<linearGradient id="Gradient_1" gradientUnits="userSpaceOnUse" x1="119.85000000000001" y1="267.1375" x2="125.05" y2="258.16249999999997" spreadMethod="pad">
<stop  offset="2.7450980392156863%" stop-color="#FFFFFF" stop-opacity="0"/>

<stop  offset="76.86274509803921%" stop-color="#FFFFFF" stop-opacity="0.4980392156862745"/>
</linearGradient>

<linearGradient id="Gradient_2" gradientUnits="userSpaceOnUse" x1="140.8375" y1="290.2125" x2="158.36249999999998" y2="272.6875" spreadMethod="pad">
<stop  offset="9.803921568627452%" stop-color="#FFFFFF" stop-opacity="0"/>

<stop  offset="43.13725490196079%" stop-color="#FFFFFF" stop-opacity="0.6980392156862745"/>

<stop  offset="61.96078431372549%" stop-color="#FFFFFF" stop-opacity="0.6980392156862745"/>

<stop  offset="92.94117647058823%" stop-color="#FFFFFF" stop-opacity="0"/>
</linearGradient>

<linearGradient id="Gradient_3" gradientUnits="userSpaceOnUse" x1="70.96249999999999" y1="132.1" x2="90.7375" y2="132.1" spreadMethod="pad">
<stop  offset="23.529411764705884%" stop-color="#FFFFFF" stop-opacity="0.6980392156862745"/>

<stop  offset="98.43137254901961%" stop-color="#FFFFFF" stop-opacity="0"/>
</linearGradient>

<linearGradient id="Gradient_4" gradientUnits="userSpaceOnUse" x1="39.974999999999994" y1="117.55" x2="57.325" y2="109.95" spreadMethod="pad">
<stop  offset="23.529411764705884%" stop-color="#FFFFFF" stop-opacity="0.6980392156862745"/>

<stop  offset="98.43137254901961%" stop-color="#FFFFFF" stop-opacity="0"/>
</linearGradient>

<radialGradient id="Gradient_5" gradientUnits="userSpaceOnUse" cx="0" cy="0" r="8.512499999999989" fx="0" fy="0" gradientTransform="matrix( 1.0000000000000013, 0, 0, -1.0000000000000013, 159.1,287) " spreadMethod="pad">
<stop  offset="29.41176470588235%" stop-color="#FFFFFF" stop-opacity="0.6"/>

<stop  offset="100%" stop-color="#FFFFFF" stop-opacity="0"/>
</radialGradient>

<linearGradient id="Gradient_6" gradientUnits="userSpaceOnUse" x1="121.69999999999999" y1="408.73749999999995" x2="111" y2="402.5625" spreadMethod="pad">
<stop  offset="38.8235294117647%" stop-color="#FFFFFF" stop-opacity="0"/>

<stop  offset="70.98039215686275%" stop-color="#FFFFFF" stop-opacity="0.6980392156862745"/>
</linearGradient>

<linearGradient id="Gradient_7" gradientUnits="userSpaceOnUse" x1="111.85" y1="420.3875" x2="111.85" y2="429.91249999999997" spreadMethod="pad">
<stop  offset="17.254901960784313%" stop-color="#FFFFFF" stop-opacity="0.2"/>

<stop  offset="88.62745098039215%" stop-color="#FFFFFF" stop-opacity="0.6980392156862745"/>
</linearGradient>

<linearGradient id="Gradient_8" gradientUnits="userSpaceOnUse" x1="134.48749999999998" y1="419.33750000000003" x2="129.4125" y2="414.2625" spreadMethod="pad">
<stop  offset="0%" stop-color="#FFFFFF" stop-opacity="0"/>

<stop  offset="100%" stop-color="#FFFFFF" stop-opacity="0.6980392156862745"/>
</linearGradient>

<linearGradient id="Gradient_9" gradientUnits="userSpaceOnUse" x1="270.55" y1="269.95" x2="270.55" y2="237.25" spreadMethod="pad">
<stop  offset="0%" stop-color="#CE8B5E"/>

<stop  offset="54.90196078431372%" stop-color="#AA6834"/>

<stop  offset="93.33333333333333%" stop-color="#6D411A"/>
</linearGradient>

<linearGradient id="Gradient_10" gradientUnits="userSpaceOnUse" x1="240.52499999999998" y1="253.55" x2="280.775" y2="253.55" spreadMethod="pad">
<stop  offset="0%" stop-color="#CE8B5E"/>

<stop  offset="54.90196078431372%" stop-color="#AA6834"/>

<stop  offset="93.33333333333333%" stop-color="#6D411A"/>
</linearGradient>

<linearGradient id="Gradient_11" gradientUnits="userSpaceOnUse" x1="235.54999999999998" y1="292.85" x2="256.15" y2="292.85" spreadMethod="pad">
<stop  offset="0%" stop-color="#CE8B5E"/>

<stop  offset="54.90196078431372%" stop-color="#AA6834"/>

<stop  offset="93.33333333333333%" stop-color="#6D411A"/>
</linearGradient>

<linearGradient id="Gradient_12" gradientUnits="userSpaceOnUse" x1="242.4375" y1="299.25" x2="258.2625" y2="299.25" spreadMethod="pad">
<stop  offset="0%" stop-color="#CE8B5E"/>

<stop  offset="54.90196078431372%" stop-color="#AA6834"/>

<stop  offset="93.33333333333333%" stop-color="#6D411A"/>
</linearGradient>

<linearGradient id="Gradient_13" gradientUnits="userSpaceOnUse" x1="262.4" y1="292.1" x2="274.6" y2="292.1" spreadMethod="pad">
<stop  offset="0%" stop-color="#CE8B5E"/>

<stop  offset="54.90196078431372%" stop-color="#AA6834"/>

<stop  offset="93.33333333333333%" stop-color="#6D411A"/>
</linearGradient>

<linearGradient id="Gradient_14" gradientUnits="userSpaceOnUse" x1="275.95" y1="279.28749999999997" x2="275.95" y2="301.5125" spreadMethod="pad">
<stop  offset="7.0588235294117645%" stop-color="#CE8B5E"/>

<stop  offset="30.980392156862745%" stop-color="#AA6834"/>

<stop  offset="87.05882352941177%" stop-color="#6D411A"/>
</linearGradient>

<linearGradient id="Gradient_15" gradientUnits="userSpaceOnUse" x1="261.35" y1="352.9625" x2="261.35" y2="317.3375" spreadMethod="pad">
<stop  offset="0%" stop-color="#CE8B5E"/>

<stop  offset="54.90196078431372%" stop-color="#AA6834"/>

<stop  offset="93.33333333333333%" stop-color="#6D411A"/>
</linearGradient>

<linearGradient id="Gradient_16" gradientUnits="userSpaceOnUse" x1="202.4625" y1="282.7" x2="232.5375" y2="282.7" spreadMethod="pad">
<stop  offset="8.627450980392156%" stop-color="#CE8B5E"/>

<stop  offset="49.80392156862745%" stop-color="#AA6834"/>

<stop  offset="89.80392156862744%" stop-color="#6D411A"/>
</linearGradient>

<linearGradient id="Gradient_17" gradientUnits="userSpaceOnUse" x1="222.2" y1="277.95" x2="222.2" y2="318.95" spreadMethod="pad">
<stop  offset="0%" stop-color="#A26331"/>

<stop  offset="20%" stop-color="#CE8B5E"/>

<stop  offset="54.11764705882353%" stop-color="#AA6834"/>

<stop  offset="93.33333333333333%" stop-color="#6D411A"/>
</linearGradient>

<linearGradient id="Gradient_18" gradientUnits="userSpaceOnUse" x1="213.2375" y1="424.15" x2="229.7625" y2="424.15" spreadMethod="pad">
<stop  offset="16.470588235294116%" stop-color="#CE8B5E"/>

<stop  offset="44.31372549019608%" stop-color="#AA6834"/>

<stop  offset="72.54901960784314%" stop-color="#6D411A"/>
</linearGradient>

<linearGradient id="Gradient_19" gradientUnits="userSpaceOnUse" x1="220.25" y1="409.375" x2="220.25" y2="441.32500000000005" spreadMethod="pad">
<stop  offset="8.627450980392156%" stop-color="#CE8B5E"/>

<stop  offset="49.80392156862745%" stop-color="#AA6834"/>

<stop  offset="89.80392156862744%" stop-color="#6D411A"/>
</linearGradient>

<linearGradient id="Gradient_20" gradientUnits="userSpaceOnUse" x1="215.9" y1="438.525" x2="215.9" y2="412.975" spreadMethod="pad">
<stop  offset="0%" stop-color="#CE8B5E"/>

<stop  offset="21.176470588235293%" stop-color="#AA6834"/>

<stop  offset="46.27450980392157%" stop-color="#6D411A"/>
</linearGradient>

<linearGradient id="Gradient_21" gradientUnits="userSpaceOnUse" x1="178.42499999999998" y1="410.9" x2="193.475" y2="410.9" spreadMethod="pad">
<stop  offset="0%" stop-color="#CE8B5E"/>

<stop  offset="21.176470588235293%" stop-color="#AA6834"/>

<stop  offset="49.80392156862745%" stop-color="#6D411A"/>
</linearGradient>

<linearGradient id="Gradient_22" gradientUnits="userSpaceOnUse" x1="184.4" y1="398.4625" x2="184.4" y2="427.4375" spreadMethod="pad">
<stop  offset="0%" stop-color="#CE8B5E"/>

<stop  offset="54.90196078431372%" stop-color="#AA6834"/>

<stop  offset="93.33333333333333%" stop-color="#6D411A"/>
</linearGradient>

<linearGradient id="Gradient_23" gradientUnits="userSpaceOnUse" x1="185.5" y1="399.375" x2="185.5" y2="417.625" spreadMethod="pad">
<stop  offset="0%" stop-color="#CE8B5E"/>

<stop  offset="54.90196078431372%" stop-color="#AA6834"/>

<stop  offset="93.33333333333333%" stop-color="#6D411A"/>
</linearGradient>

<linearGradient id="Gradient_24" gradientUnits="userSpaceOnUse" x1="27.112499999999997" y1="14.125" x2="45.4875" y2="10.975000000000001" spreadMethod="pad">
<stop  offset="0%" stop-color="#CE8B5E"/>

<stop  offset="36.86274509803921%" stop-color="#AA6834"/>

<stop  offset="78.03921568627452%" stop-color="#6D411A"/>
</linearGradient>

<linearGradient id="Gradient_25" gradientUnits="userSpaceOnUse" x1="136.01250000000002" y1="389.7" x2="155.7875" y2="389.7" spreadMethod="pad">
<stop  offset="0%" stop-color="#CE8B5E"/>

<stop  offset="30.19607843137255%" stop-color="#AA6834"/>

<stop  offset="82.3529411764706%" stop-color="#70431B"/>

<stop  offset="100%" stop-color="#6D411A"/>
</linearGradient>

<linearGradient id="Gradient_26" gradientUnits="userSpaceOnUse" x1="148" y1="384.3625" x2="148" y2="406.1375" spreadMethod="pad">
<stop  offset="0%" stop-color="#CE8B5E"/>

<stop  offset="21.176470588235293%" stop-color="#AA6834"/>

<stop  offset="49.80392156862745%" stop-color="#6D411A"/>
</linearGradient>

<linearGradient id="Gradient_27" gradientUnits="userSpaceOnUse" x1="147.55" y1="386.875" x2="147.55" y2="408.125" spreadMethod="pad">
<stop  offset="0%" stop-color="#CE8B5E"/>

<stop  offset="36.86274509803921%" stop-color="#AA6834"/>

<stop  offset="78.03921568627452%" stop-color="#6D411A"/>
</linearGradient>

<linearGradient id="Gradient_28" gradientUnits="userSpaceOnUse" x1="117.8" y1="392.7" x2="127.8" y2="392.7" spreadMethod="pad">
<stop  offset="0%" stop-color="#CE8B5E"/>

<stop  offset="29.41176470588235%" stop-color="#AA6834"/>

<stop  offset="60.78431372549019%" stop-color="#6D411A"/>
</linearGradient>

<linearGradient id="Gradient_29" gradientUnits="userSpaceOnUse" x1="116.4" y1="387.25" x2="116.4" y2="399.45000000000005" spreadMethod="pad">
<stop  offset="0%" stop-color="#CE8B5E"/>

<stop  offset="41.96078431372549%" stop-color="#AA6834"/>

<stop  offset="87.45098039215686%" stop-color="#6D411A"/>
</linearGradient>

<linearGradient id="Gradient_30" gradientUnits="userSpaceOnUse" x1="126.8125" y1="390.9" x2="107.38749999999999" y2="390.9" spreadMethod="pad">
<stop  offset="0%" stop-color="#CE8B5E"/>

<stop  offset="29.41176470588235%" stop-color="#AA6834"/>

<stop  offset="60.78431372549019%" stop-color="#6D411A"/>
</linearGradient>

<linearGradient id="Gradient_31" gradientUnits="userSpaceOnUse" x1="124.8125" y1="386.6" x2="106.88749999999999" y2="386.6" spreadMethod="pad">
<stop  offset="0%" stop-color="#CE8B5E"/>

<stop  offset="41.96078431372549%" stop-color="#AA6834"/>

<stop  offset="87.45098039215686%" stop-color="#6D411A"/>
</linearGradient>

<g id="anims_pony_jump_anim_clean_gradients_24_Layer6_0_MEMBER_0_FILL">
<path fill="url(#Gradient_1)" stroke="none" d="
M 116.45 261.75
Q 114.45 262.8 112.9 263.15
L 128.05 269.1
Q 125.5 267.3 124.3 262.85
L 123.6 258.7
Q 123.05 258.35 122.7 257.45
L 122.4 256.6
Q 120.35 259.75 116.45 261.75 Z"/>
</g>

<g id="anims_pony_jump_anim_clean_gradients_24_Layer5_0_MEMBER_0_FILL">
<path fill="url(#Gradient_2)" stroke="none" d="
M 157.65 272.2
Q 155.75 271.3 153.8 272.15 151.75 272.85 150.65 273.4 147.2 275.2 145.2 279.15 143.35 282.9 143.5 287 143.65 291.15 144.7 294.05 144.55 292.45 144.65 290.3 144.9 286 146.25 283.45 149 278.5 152.75 276.9 153.75 276.45 155.6 275.85 157.15 275.3 158.05 274.5 159.6 273.1 157.65 272.2 Z"/>
</g>

<g id="anims_pony_jump_anim_clean_gradients_24_Layer4_0_FILL">
<path fill="url(#Gradient_3)" stroke="none" d="
M 75.75 125.6
L 72.6 124.85
Q 71.55 130.65 71.3 137.1 77.9 140.1 85.2 139.2 88.85 138.7 91.15 137.65 90.45 136 90.05 133.8 85.5 129.95 81.7 127.9 79.35 126.6 75.75 125.6 Z"/>
</g>

<g id="anims_pony_jump_anim_clean_gradients_24_Layer3_0_MEMBER_0_FILL">
<path fill="url(#Gradient_4)" stroke="none" d="
M 57.8 110.3
Q 53.2 109.15 47.85 109.05 44.5 109 40.55 110.1
L 37.3 111.25
Q 40.65 120.8 43.1 123.4
L 48.6 121.7
Q 55.05 119.05 59.8 114.4 59.2 112.45 57.8 110.3 Z"/>
</g>

<g id="pony_circle_gradient_0_Layer0_0_FILL">
<path fill="url(#Gradient_5)" stroke="none" d="
M 159.1 278.45
Q 155.6 278.45 153.05 280.95 150.55 283.5 150.55 287 150.55 290.5 153.05 293 155.55 295.5 159.1 295.5 162.65 295.5 165.1 293 167.6 290.55 167.6 287 167.6 283.45 165.1 280.95 162.6 278.45 159.1 278.45 Z"/>
</g>

<g id="anims_pony_jump_anim_clean_gradients_24_Layer0_0_FILL">
<path fill="url(#Gradient_6)" stroke="none" d="
M 130.55 389.8
Q 136.4 384.95 133.2 384.95 125.3 384.95 120.65 388.75 118.75 390.3 114.8 396 112.9 398.85 111.95 403.35 111.45 405.75 110.75 409.35 110.4 410.4 107.25 415.15 104.5 419.25 104.65 420.75 104.9 423.2 105.9 426.55 107.1 430.5 108.35 431.75 107.55 429.65 107.05 426.75 106.05 420.8 109.1 418.3 111.05 417.05 112.05 415.9 113.95 413.85 114.15 410.65 114.4 406.6 114.85 404.6 115.7 400.9 117.75 399.35 127.85 392.05 130.55 389.8 Z"/>
</g>

<g id="anims_pony_jump_anim_clean_gradients_24_Layer0_1_FILL">
<path fill="url(#Gradient_7)" stroke="none" d="
M 110.9 427.35
Q 110.05 427.6 109.1 426.75
L 109.1 427 109.85 428.85
Q 110.95 430.5 112.4 429.6 115.55 427.7 114.3 423.85
L 112.45 420.4
Q 112.85 421.3 112.85 423 112.8 424.45 112.65 425 112 427.05 110.9 427.35 Z"/>
</g>

<g id="anims_pony_jump_anim_clean_gradients_24_Layer0_2_FILL">
<path fill="url(#Gradient_8)" stroke="none" d="
M 137.6 411.9
Q 134.6 411.9 133.9 412 131.6 412.4 129.6 414.05 127.5 415.8 126.5 418.35 125.65 420.55 125.95 422.3 126.45 421.2 127.35 419.95 129.2 417.5 131.35 416.7 135.35 415.25 137.6 415.25 139.6 415.25 139.55 413.6 139.55 411.9 137.6 411.9 Z"/>
</g>

<g id="pony_tail_1_Layer0_0_MEMBER_0_FILL">
<path fill="url(#Gradient_9)" stroke="none" d="
M 259.95 237.25
Q 257.6 237.15 263.15 245.75 264.7 248.1 265.8 253.4 266.4 256.3 267.4 261.6 268.25 265.25 269.6 266.95 271.1 268.85 274.1 269.6 276.75 270.3 279.55 269.7 280.95 269.4 281.85 268.95 281.05 268.4 279.55 266.15 277.75 263.45 276.9 260.9 275.55 256.45 274.55 253.6 272.7 248.55 270.45 244.65 268.25 240.85 263.85 238.7
L 259.95 237.25 Z"/>
</g>

<g id="pony_tail_1_Layer0_0_MEMBER_1_FILL">
<path fill="url(#Gradient_10)" stroke="none" d="
M 251.2 238.4
Q 253.5 237.75 256.8 239.25 259.8 240.6 261.35 242.5 262.55 243.95 263 249.5 263.25 252.55 263.45 258.25 263.65 262.45 265.15 266.45 266.95 271.3 269.65 272.75 273.15 274.65 277.35 274.05 279.4 273.75 280.8 273.05 278.9 272.7 276.55 271 271.8 267.55 269.35 260.65 268.8 259.05 268.25 254.1 267.55 247.95 267.05 245.3 264.9 234.2 258.75 233.2 252.45 232.2 246 235.05
L 240.75 238.05
Q 239.85 239.15 241.45 239.65 243.8 240.4 251.2 238.4 Z"/>
</g>

<g id="pony_tail_2_Layer0_0_MEMBER_0_FILL">
<path fill="url(#Gradient_11)" stroke="none" d="
M 251.7 283.65
Q 248.2 279.3 245.35 279.7 242.7 280.05 240.15 280.55 235.05 281.5 235.6 282.1 235.7 282.2 240.7 282.15 246.1 282.85 248.4 286.75 250.75 290.7 251.6 298.3 252 302.15 251.95 305.15
L 252.1 305.7
Q 252.45 306.2 253.75 305.9 255.25 305.55 255.9 300.7 256.55 295.9 255.75 291.9 254.95 287.7 251.7 283.65 Z"/>
</g>

<g id="pony_tail_2_Layer0_0_MEMBER_1_FILL">
<path fill="url(#Gradient_12)" stroke="none" d="
M 247 280.2
Q 244.55 280.45 243.2 280.75 241.9 281.05 242.75 281.15
L 246.15 281.75
Q 249.8 282.8 251 285 252.4 287.5 252.75 290.9 253.15 294.15 252.55 297.4 252.05 300.15 251.55 306.45 251.15 311.25 251.05 314.4
L 252.85 316.2
Q 255.15 318.05 257.5 318.3 257.85 306.1 258.15 301.5 258.4 296.55 258.15 292.45 257.8 286.6 256.4 285 254.65 282.9 252.2 281.55 249.4 279.95 247 280.2 Z"/>
</g>

<g id="pony_tail_3_Layer0_0_MEMBER_0_FILL">
<path fill="url(#Gradient_13)" stroke="none" d="
M 274.55 293.5
Q 274.95 289.6 273.65 286.1 272.45 282.95 271.2 282.65 270.25 282.45 270.1 283.8 270.05 284.5 270.15 285.2 270.4 287.75 269.2 291.5 268.05 295.2 266.55 296.55 265.35 297.7 263.75 297.25
L 262.4 296.55
Q 262.35 298.55 264.45 300 266.2 301.15 268.5 301.5 270.6 301.8 272.3 299.75 274.1 297.55 274.55 293.5 Z"/>
</g>

<g id="pony_tail_3_Layer0_0_MEMBER_1_FILL">
<path fill="url(#Gradient_14)" stroke="none" d="
M 267.25 279.25
Q 263.9 279.45 266 281.65
L 268.35 284
Q 270.75 286.95 271.1 290 271.5 293.45 273.3 295.75 274.8 297.55 278.15 299.55 280.65 301.05 283.95 301.4 285.55 301.6 286.7 301.45 285.7 300.85 284.6 299.65 282.45 297.25 282 294.3 281.5 290.75 278.65 286.3 275.85 281.85 273.3 280.55 270.4 279.1 267.25 279.25 Z"/>
</g>

<g id="pony_tail_4_Layer0_0_MEMBER_0_FILL">
<path fill="url(#Gradient_15)" stroke="none" d="
M 263.05 317.7
Q 263 317.85 261.8 321.7 260.3 325.95 258.55 328.35 256.5 331.15 254.85 332.35 253.25 333.5 251.55 333.6
L 253.3 335.8
Q 255.8 338.1 259.8 338.65
L 259.75 340.9
Q 259.85 343.55 260.6 345.8 263.05 352.95 271.15 352.95 270.4 352.35 269.5 351.05 267.75 348.55 267.15 345.25 264.9 332.1 265.05 325.9 265.1 321.5 264.45 318.95 263.75 316.5 263.05 317.7 Z"/>
</g>

<g id="pony_tail_0_Layer0_0_MEMBER_0_FILL">
<path fill="url(#Gradient_16)" stroke="none" d="
M 202.55 282.1
L 202.75 282.4
Q 203.2 282.55 204.3 281.8 205.35 281.05 210.4 280.2 215.9 279.25 219.55 279.4 222.85 279.55 227.25 284.8 229.5 287.4 231.05 290
L 232.55 290
Q 232.3 286.35 230.65 282.7 227.4 275.4 220.5 275.4 212.4 275.4 206.95 277.95
L 203.1 280.45 202.7 281.05
Q 202.35 281.7 202.55 282.1 Z"/>
</g>

<g id="pony_tail_0_Layer0_0_MEMBER_1_FILL">
<path fill="url(#Gradient_17)" stroke="none" d="
M 203.1 282.05
Q 202.65 282.3 202.8 282.65 202.95 283.15 204.1 283.05 204.95 283 205.9 282.65 208.85 281.7 212.9 281.3 219.85 280.55 223.3 282.65 227.25 285.05 228.6 289.1 229.8 292.65 229.35 298.85 228.75 307.2 230.5 311.7 233.25 318.7 241.65 318.95 240.7 318.25 239.45 316.85 237.05 314.1 235.9 310.55 234.95 307.6 234.25 298.35 233.6 289.25 232.8 287.05 231.4 283.2 228.4 280.85 224.7 277.95 219.3 277.95 214.45 277.95 208.5 279.9
L 203.1 282.05 Z"/>
</g>

<g id="anims_pony_jump_anim_clean_lines_24_Layer0_2_FILL">
<path fill="#FFFFFF" stroke="none" d="
M 129.85 402
Q 127.6 399.75 124.4 399.75 121.2 399.75 118.9 402 116.65 404.3 116.65 407.5 116.65 410.7 118.9 412.95 121.2 415.25 124.4 415.25 127.6 415.25 129.85 412.95 132.15 410.7 132.15 407.5 132.15 404.3 129.85 402 Z"/>
</g>

<g id="anims_pony_jump_anim_clean_lines_24_Layer0_3_FILL">
<path fill="#000000" stroke="none" d="
M 125.6 403.75
Q 124.1 402.2 121.9 402.2 119.7 402.2 118.2 403.75 116.65 405.3 116.65 407.5 116.65 409.7 118.2 411.2 119.75 412.75 121.9 412.75 124.1 412.75 125.6 411.2 127.15 409.7 127.15 407.5 127.15 405.3 125.6 403.75 Z"/>
</g>

<g id="anims_pony_jump_anim_clean_lines_24_Layer0_4_FILL">
<path fill="#FFFFFF" stroke="none" d="
M 124 405.15
Q 123.45 404.6 122.65 404.6 121.9 404.6 121.35 405.15 120.8 405.7 120.8 406.5 120.8 407.25 121.35 407.8 121.9 408.35 122.65 408.35 123.45 408.35 124 407.8 124.55 407.25 124.55 406.5 124.55 405.7 124 405.15 Z"/>
</g>

<g id="pony_mane4_0_Layer0_0_MEMBER_0_FILL">
<path fill="url(#Gradient_18)" stroke="none" d="
M 214.2 412.75
Q 212.95 410.35 213.3 414.85 213.6 419.15 214.65 422.75 216.3 428.35 216.75 429.7 218.05 433.55 219 434.9 220.05 436.4 222.8 436.35 225.45 436.3 227.75 434.9 229.65 433.75 229.75 430.5
L 229.5 427.45
Q 228.65 430.05 226.75 430.65 223.9 431.6 220.4 426.45 219 424.35 216.5 418.4 214.25 412.85 214.2 412.75 Z"/>
</g>

<g id="pony_mane4_0_Layer0_0_MEMBER_1_FILL">
<path fill="url(#Gradient_19)" stroke="none" d="
M 212.6 412.75
Q 212 411.55 211.45 410.55 210.25 408.6 210.3 409.8 210.3 410.65 211.1 414.5 212.15 419.6 212.75 423.5 213.75 430.05 215.6 434.5 217.85 439.95 220.9 440.95 224.3 442.05 227.6 439.9
L 230.2 437.5
Q 226.95 439.3 221.25 432.6 219.15 430.05 215.65 421.15
L 212.6 412.75 Z"/>
</g>

<g id="pony_mane4_0_Layer0_0_MEMBER_2_FILL">
<path fill="url(#Gradient_20)" stroke="none" d="
M 214.75 435.65
Q 218.1 439.55 222.35 438.15 221.65 437.85 220.7 437.2 218.9 435.9 218 434.1 212.75 423.8 211.8 414.8 211.15 412.9 209.95 412.95 209.15 413 209.7 419.2 210.25 425.15 211.15 428.5 212.3 432.8 214.75 435.65 Z"/>
</g>

<g id="pony_mane3_0_Layer0_0_MEMBER_0_FILL">
<path fill="url(#Gradient_21)" stroke="none" d="
M 189.9 419
Q 186.3 417.3 183.7 409.25
L 181.85 401.55
Q 181.7 400.15 181.65 400.05 181.3 398.9 180.15 399.05 178.95 399.2 178.6 402.35 178.4 404.2 178.45 408.9 178.45 413.15 179.65 416.45 181.2 420.7 184.4 422.05 187.35 423.35 190.7 422.3 192.4 421.8 193.45 421 192.85 420.4 189.9 419 Z"/>
</g>

<g id="pony_mane3_0_Layer0_0_MEMBER_1_FILL">
<path fill="url(#Gradient_22)" stroke="none" d="
M 176.85 398.65
Q 175.05 399.9 175.85 406.5 176 407.65 176.85 411.65 177.9 417.05 178.7 419.55 179.7 422.7 182.5 425.2 185.5 427.85 188.2 427.4 190.55 427.05 192.1 426
L 193.15 425
Q 192.3 425.35 191.1 425.25 188.7 425.05 187.15 422.85 185.5 420.6 182.5 411.3 180.25 404.2 179.3 400.3 179.05 399.25 178.3 398.75 177.55 398.2 176.85 398.65 Z"/>
</g>

<g id="pony_mane3_0_Layer0_0_MEMBER_2_FILL">
<path fill="url(#Gradient_23)" stroke="none" d="
M 186.4 411.9
Q 184.55 409.75 183 405.45
L 181.85 401.55
Q 180.4 397.95 179.25 400.15 178.2 402.15 178.45 405.3 178.9 410.25 179.35 411.65 180.75 415.7 184.75 416.95 188.65 418.2 191 417.15 192.15 416.6 192.55 415.8 191.35 416.05 190 415.25 188.5 414.35 186.4 411.9 Z"/>
</g>

<g id="anims_pony_jump_anim_clean_lines_24_Layer0_11_MEMBER_0_FILL">
<path fill="url(#Gradient_24)" stroke="none" d="
M 46 19.2
L 44.35 13.4
Q 40.5 6.35 34.95 5.35 32.264453125 4.851171875 28.7 5.65 30.060546875 6.665625 31.3 7.75 32.55 8.9 33.15 10.5 33.569921875 11.655078125 33.85 12.85
L 46 19.2 Z"/>
</g>

<g id="anims_pony_jump_anim_clean_lines_24_Layer0_11_MEMBER_1_FILL">
<path fill="url(#Gradient_25)" stroke="none" d="
M 136 382.65
L 136.55 383.1
Q 137.85 384.3 138.35 386.4 140.7 387.55 142.7 389.1 144.8 390.8 145.75 392.4 147.25 395 149.35 396.15 151.35 397.2 152.9 396.55 154.55 395.8 155.4 394.1 156.35 392.15 155.3 390.35
L 154.05 391.95
Q 152.6 393.35 151.3 392.4 148.85 389.25 146.35 387 141.65 382.6 136 382.65 Z"/>
</g>

<g id="anims_pony_jump_anim_clean_lines_24_Layer0_11_MEMBER_2_FILL">
<path fill="url(#Gradient_26)" stroke="none" d="
M 138.6 387.55
Q 140.95 388.55 142.55 391.4 143.95 393.85 144.45 396.85 145.3 401.65 145.75 402.65 146.8 405.25 149.65 405.95 152.35 406.6 155.65 405.1 157.3 404.35 158.4 403.45 156.85 403.2 154.45 401.45
L 152.35 399.75
Q 153.9 400.25 154.8 399.25
L 155.4 398.15
Q 154.45 399.1 151.95 396.65 149.55 394.35 146.3 389.5 142.8 384.25 137.55 384.35 138.1 385.25 138.45 386.7
L 138.6 387.55 Z"/>
</g>

<g id="anims_pony_jump_anim_clean_lines_24_Layer0_11_MEMBER_3_FILL">
<path fill="url(#Gradient_27)" stroke="none" d="
M 138.4 386.55
Q 138.85 388.4 138.65 390.3 141.45 391.95 141.65 397.7 141.75 401.4 142.55 403.7 143.75 407.1 146.65 408.35 149.35 409.55 153.25 408.15 155.25 407.45 156.65 406.5 151.3 406.6 148.25 400.45 145.65 393.1 144.25 390.7 142.1 387.05 138.4 386.55 Z"/>
</g>

<g id="pony_mane1_0_Layer0_0_MEMBER_0_FILL">
<path fill="url(#Gradient_28)" stroke="none" d="
M 127.8 389.95
Q 126.25 388.75 125.25 387 123.6 388 123.05 390 122.65 391.55 121.95 394.75 120.95 397.35 117.8 398.35
L 119.75 398.25
Q 121.95 397.8 123.05 396.1 124.3 394.05 125.05 392.9 126.4 390.9 127.8 389.95 Z"/>
</g>

<g id="pony_mane1_0_Layer0_0_MEMBER_1_FILL">
<path fill="url(#Gradient_29)" stroke="none" d="
M 118.1 392.95
Q 116.75 394.6 115.45 395.5 111.55 398.3 105.75 396.2
L 107.55 398.3
Q 110.05 400.2 113.4 399.05 116.65 397.95 119 395.4 121 392.8 121.9 392.1 123.65 390.8 127 389.15 126.05 388.2 125.5 387.25 121.9 388.45 119.9 390.65 119.4 391.2 118.1 392.95 Z"/>
</g>

<g id="pony_mane1_0_Layer0_0_MEMBER_2_FILL">
<path fill="url(#Gradient_30)" stroke="none" d="
M 107.35 393.6
L 107.35 393.8 109.2 396.05
Q 111.5 398.15 113.75 397.25 115.6 396.55 118.7 393.45 121.65 390.45 123.05 390
L 126.8 388.95
Q 125 387.15 124.3 384.4
L 124.25 384.35
Q 121.7 384.65 119.4 386.8 111.95 394 107.35 389.7
L 107.75 391.55
Q 108.4 393.55 109.9 394.3 108.95 394.35 107.35 393.6 Z"/>
</g>

<g id="pony_mane1_0_Layer0_0_MEMBER_3_FILL">
<path fill="url(#Gradient_31)" stroke="none" d="
M 115.1 392.4
Q 116.85 392.05 119.9 389.85 124.75 386.3 124.85 386.25 124.5 385.55 124.15 384.4 123.7 382.8 123.9 380.75 120.9 381.4 117.6 383.95 114.2 386.5 113 386.8 110.65 387.45 108.55 385.5
L 106.9 383.45
Q 106.8 387.5 109.4 390.3 112 393 115.1 392.4 Z"/>
</g>

<g id="anims_pony_jump_anim_clean_lines_24_Layer0_13_FILL">
<path fill="#B9533A" stroke="none" d="
M 133.8 388.9
Q 133.1 385.05 129.4 383.25 127.15 382.2 126 379.3
L 125.3 376.65 124.9 377.4
Q 123.25 380.95 124.15 384.4 125.85 390.7 133.25 392.3
L 133.7 392.4
Q 134.1 390.85 133.8 388.9 Z"/>
</g>

<path id="anims_pony_jump_anim_clean_lines_24_Layer6_0_1_STROKES" stroke="#000000" stroke-width="1.5" stroke-linejoin="round" stroke-linecap="round" fill="none" d="
M 62.25 135.9
Q 56.7177734375 136.1201171875 51.6 134.35 51.5 132.95 51.65 130.9 51.9 126.65 53 123.35 54.25 119.6 59.05 115.95 52.980078125 116.647265625 50.475 112.5"/>

<path id="anims_pony_jump_anim_clean_lines_24_Layer5_0_1_STROKES" stroke="#000000" stroke-width="1.5" stroke-linejoin="round" stroke-linecap="round" fill="none" d="
M 30.175 106
L 28.35 108.55
Q 25.5 113.65 27.95 116.05 23.75 115.55 20.85 116.75 16.4 118.55 15.2 124.05 14.1 129.05 14.5 133.2
L 20.25 134.95
Q 22.8056640625 135.5283203125 25.25 135.8"/>

<path id="anims_pony_jump_anim_clean_lines_24_Layer4_0_1_STROKES" stroke="#000000" stroke-width="1.5" stroke-linejoin="round" stroke-linecap="round" fill="none" d="
M 18 86.65
Q 18.7234375 87.18671875 19.55 87.6
L 27 91.65
M 55.9 84.8
Q 54.12734375 83.89921875 48.25 80.7"/>

<path id="anims_pony_jump_anim_clean_lines_24_Layer3_0_1_STROKES" stroke="#000000" stroke-width="1.5" stroke-linejoin="round" stroke-linecap="round" fill="none" d="
M 34 109.225
Q 32.8791015625 108.6830078125 32 108.05 26.85 104.45 26.5 96.8 26.35234375 93.4041015625 27.275 90.8
M 55.2 85.3
Q 57.45 85.15 61.35 84.1 65.5 83.05 67.25 82.9 70.5076171875 82.5478515625 74.075 84.25 74.559765625 84.4810546875 75.05 84.75 76.4638671875 85.5556640625 77.375 86.5
M 59.75 111.85
Q 58.307421875 112.1314453125 56.75 112.3 52.466015625 112.7431640625 47.5 112.275"/>

<path id="anims_pony_jump_anim_clean_lines_24_Layer2_0_1_STROKES" stroke="#000000" stroke-width="1.5" stroke-linejoin="round" stroke-linecap="round" fill="none" d="
M 69.2892364501953 82.79095458984375
Q 74.5392364501953 82.79095458984375 78.54816055297852 86.32221374511718 82.18225631713867 89.51485900878907 82.78019638061524 93.5782257080078 83.26783905029296 96.81924438476562 79.8512481689453 101.36634521484376 78.12149963378906 103.68826904296876 74.15879898071289 107.60651550292968 77.77229995727538 109.15446472167969 79.47836380004883 111.28289489746095 80.91669311523438 113.1694580078125 80.71211624145506 115.15276794433595 80.5901481628418 116.21698303222657 79.66829376220703 124.10184936523439 79.38545532226563 132.5188232421875 82.26463088989257 138.37200622558592 80.03911590576172 139.3878479003906 76.4245849609375 139.87158203124997 69.18842926025391 140.74230346679687 62.375614929199216 137.83989868164062 62.20502014160155 136.19520263671873 62.23122177124023 133.82490539550778 62.280078125 129.0359375 63.2034194946289 125.26281127929687 64.24129180908203 121.00595092773438 68.85044555664062 117.0393310546875 61.50010223388672 117.71655883789063 59.00387878417969 110.26705322265624 56.578936767578114 103.1077880859375 60.945527648925776 98.56068725585938"/>

<path id="anims_pony_jump_anim_clean_lines_24_Layer2_1_1_STROKES" stroke="#000000" stroke-width="1.5" stroke-linejoin="round" stroke-linecap="round" fill="none" d="
M 67.38911819458008 117.59866638183593
Q 68.87493057250975 117.4051727294922 71.84689865112306 116.34095764160156 74.66886672973632 115.27674255371093 76.20147552490235 114.35764770507812"/>

<path id="anims_pony_jump_anim_clean_lines_24_Layer1_0_1_STROKES" stroke="#000000" stroke-width="1.5" stroke-linejoin="round" stroke-linecap="round" fill="none" d="
M 36.93313369750977 101.88865661621094
L 34.69186630249024 107.83197631835938
Q 33.004206848144534 114.26935424804688 35.86299285888672 116.63589782714843 31.713150024414066 116.77644958496091 29.177610015869142 118.66816711425781 25.238945770263673 121.51661987304686 25.218997192382815 128.1334686279297 25.262351989746094 134.15042114257812 26.515147399902347 138.8805694580078
L 32.387586975097655 139.91178588867186
Q 39.35964279174805 140.52508544921875 45.097163391113284 138.64132385253907 44.13032836914063 133.84800720214844 42.35978546142579 127.52775573730469 41.8138298034668 125.58624877929688 42.02965240478515 124.57219848632812 42.291996002197266 123.28915710449218 43.999393463134766 121.64885864257812 46.14527053833008 119.53123779296877 47.37537231445313 114.33632202148436
L 48.137255859375 109.55681457519532"/>

<path id="anims_pony_jump_anim_clean_lines_24_Layer0_0_1_STROKES" stroke="#000000" stroke-width="1.5" stroke-linejoin="round" stroke-linecap="round" fill="none" d="
M 0.02628326416015625 53.87019348144531
Q -4.10483016967774 54.918177795410145 -7.152803039550776 57.25402526855464 -7.942982482910139 57.866659545898415 -11.43865356445312 61.30792236328125 -13.6374687194824 63.48731231689453 -14.696674346923828 66.91623992919921 -15.25402908325195 68.74496307373045 -16.033399200439447 71.48776092529295 -16.425786590576166 72.32661895751949 -19.977347564697254 75.9203231811523 -23.07792892456054 79.05526885986325 -22.902152252197254 80.19556732177733 -22.609384155273432 82.05802612304683 -21.46321182250975 84.60087738037112 -20.088075256347636 87.59904479980469 -18.666699981689433 88.54283905029297 -17.074759674072254 89.5998886108398 -12.64894790649413 90.79474945068358 -8.279991149902344 91.95185852050781 -5.956656646728476 91.97813568115237 -3.066702270507818 92.00154418945311 -0.06902160644531818 90.92125854492184 3.6072517395019474 89.57126007080075 4.785186004638689 87.20684051513672
L 9.65927505493164 87.41040191650387
Q 15.098246765136736 87.26874694824221 18.206935119628923 85.73142395019534"/>

<path id="anims_pony_jump_anim_clean_lines_24_Layer0_1_1_STROKES" stroke="#000000" stroke-width="1.5" stroke-linejoin="round" stroke-linecap="round" fill="none" d="
M 26.639060974121094 72.45094909667966
Q 25.587489318847645 66.21777648925774 23.925761413574236 62.57438659667969 21.116896057128912 56.19795227050781 15.779280853271501 53.98063812255862"/>

<path id="anims_pony_jump_anim_clean_lines_24_Layer0_5_1_STROKES" stroke="#000000" stroke-width="1.5" stroke-linejoin="round" stroke-linecap="round" fill="none" d="
M -9.18444061279294 70.04562072753907
Q -9.172087097167946 72.48009338378904 -6.61361160278318 74.17892303466795 -3.9982810974121037 75.9155044555664 -0.37191390991208095 75.89714508056642 3.254453277587885 75.87878570556637 5.795363616943348 74.11609954833978 8.393128967285179 72.39116516113279 8.380775451660185 69.95669250488282 8.36842193603519 67.52221984863286 5.753091430664057 65.78563842773434 3.194615936279291 64.08680877685543 -0.4317512512206747 64.10516815185548 -4.058118438720697 64.12352752685547 -6.655883789062472 65.84846191406251 -9.196794128417935 67.61114807128911 -9.18444061279294 70.04562072753907 Z"/>

<path id="anims_pony_jump_anim_clean_lines_24_Layer0_6_1_STROKES" stroke="#000000" stroke-width="1.5" stroke-linejoin="round" stroke-linecap="round" fill="none" d="
M 11.876639556884783 66.55346832275393
Q 9.558516693115251 67.55423431396486 6.4314910888672046 65.47788696289064 3.5318855285644872 63.55254669189458 -0.43445358276363777 63.57262725830083 -5.024074554443359 63.595863342285156 -7.901675415039051 66.00692749023432"/>

<path id="anims_pony_jump_anim_clean_lines_24_Layer0_7_1_STROKES" stroke="#000000" stroke-width="1.5" stroke-linejoin="round" stroke-linecap="round" fill="none" d="
M -10.040566253662092 91.16194000244138
Q -4.724569702148415 89.11892700195312 -3.145175933837862 87.7034652709961 -2.129892730712868 86.7853744506836 -1.9125099182128906 84.95837249755857
L -1.864147949218733 83.32242431640623"/>

<path id="anims_pony_jump_anim_clean_lines_24_Layer0_8_1_STROKES" stroke="#000000" stroke-width="1.5" stroke-linejoin="round" stroke-linecap="round" fill="none" d="
M -18.703181457519506 81.35353698730472
Q -18.535511779785153 80.89621276855462 -18.084918212890614 80.36137695312499 -17.183345031738284 79.36778259277338 -15.767374420166007 79.24649505615236 -14.124755859375 79.12406005859373 -13.551573181152321 80.41450500488281 -12.92211456298827 81.62858581542963 -13.706503295898415 83.38237915039059 -14.435195159912098 84.94569244384769 -15.680600738525385 85.18023529052732 -16.642889404296866 85.37530517578125 -17.722748565673825 84.73409881591795"/>

<path id="anims_pony_jump_anim_clean_lines_24_Layer0_14_1_STROKES" stroke="#000000" stroke-width="1.5" stroke-linejoin="round" stroke-linecap="round" fill="none" d="
M 15.236595916748058 58.70029754638671
Q 15.740377044677729 57.48047943115233 15.732656097412104 55.95893402099608 15.717214202880854 52.91584320068358 13.27283477783206 51.36859436035155 12.363154602050798 50.764566040039085 6.175223541259783 48.47547760009763 2.0309844970703352 46.93683471679685 2.0215263366699503 45.07294158935548
L -0.007688903808599434 47.17539367675778
Q -1.807553863525385 49.8092391967773 -0.7743194580077954 52.428741455078125 1.2907981872558594 57.40147552490231 10.079003906249994 58.46013183593749"/>
</defs>

<g transform="matrix( 2, 0, 0, 1.9998779296875, 55.6,72.4) ">
<g transform="matrix( 1, 0, 0, 1, 0.05,-3) ">
<g transform="matrix( 0.8919677734375, -0.4520416259765625, 0.6298675537109375, 0.9710235595703125, -248.25,-118.85) ">
<use xlink:href="#anims_pony_jump_anim_clean_gradients_24_Layer6_0_MEMBER_0_FILL"/>
</g>

<g transform="matrix( 1.0415496826171875, -0.110321044921875, 0.170623779296875, 0.938873291015625, -171.4,-154.95) ">
<use xlink:href="#anims_pony_jump_anim_clean_gradients_24_Layer5_0_MEMBER_0_FILL"/>
</g>

<g transform="matrix( 1, 0, 0.0709381103515625, 0.96746826171875, -18.2,5.2) ">
<use xlink:href="#anims_pony_jump_anim_clean_gradients_24_Layer4_0_FILL"/>
</g>

<g transform="matrix( 0.899810791015625, 0.40997314453125, -0.3050384521484375, 0.82830810546875, 25.6,19.1) ">
<use xlink:href="#anims_pony_jump_anim_clean_gradients_24_Layer3_0_MEMBER_0_FILL"/>
</g>

<g transform="matrix( 1, 0, 0, 1, 33.85,89.95) ">
<g transform="matrix( 1, 0, 0, 1, -150.55,-278.45) ">
<use xlink:href="#pony_circle_gradient_0_Layer0_0_FILL"/>
</g>
</g>

<g transform="matrix( 1, 0, 0, 1, 62.7,86.55) ">
<g transform="matrix( 1, 0, 0, 1, -150.55,-278.45) ">
<use xlink:href="#pony_circle_gradient_0_Layer0_0_FILL"/>
</g>
</g>

<g transform="matrix( 1.13323974609375, -0.0057373046875, 0.0038604736328125, 0.760772705078125, -142.95,-239.3) ">
<use xlink:href="#anims_pony_jump_anim_clean_gradients_24_Layer0_0_FILL"/>
</g>

<g transform="matrix( 1.13323974609375, -0.0057373046875, 0.0038604736328125, 0.760772705078125, -142.95,-239.3) ">
<use xlink:href="#anims_pony_jump_anim_clean_gradients_24_Layer0_1_FILL"/>
</g>

<g transform="matrix( 1.13323974609375, -0.0057373046875, 0.0038604736328125, 0.760772705078125, -142.95,-239.3) ">
<use xlink:href="#anims_pony_jump_anim_clean_gradients_24_Layer0_2_FILL"/>
</g>
</g>

<g transform="matrix( 1, 0, 0, 1, 0.05,-3) ">
<g transform="matrix( 0.6847991943359375, -0.7183074951171875, 0.6839141845703125, 0.5770111083984375, 69.95,81.15) ">
<g transform="matrix( 0.9996795654296875, -0.0221710205078125, 0.0221710205078125, 0.9996795654296875, 5.15,0.15) ">
<g transform="matrix( 1, 0, 0, 1, -240.45,-232.95) ">
<use xlink:href="#pony_tail_1_Layer0_0_MEMBER_0_FILL"/>
</g>

<g transform="matrix( 1, 0, 0, 1, -240.45,-232.95) ">
<use xlink:href="#pony_tail_1_Layer0_0_MEMBER_1_FILL"/>
</g>
</g>

<g transform="matrix( 0.9986724853515625, 0.0482025146484375, -0.0482025146484375, 0.9986724853515625, 4.5,6.55) ">
<g transform="matrix( 1, 0, 0, 1, -235.55,-279.65) ">
<use xlink:href="#pony_tail_2_Layer0_0_MEMBER_0_FILL"/>
</g>

<g transform="matrix( 1, 0, 0, 1, -235.55,-279.65) ">
<use xlink:href="#pony_tail_2_Layer0_0_MEMBER_1_FILL"/>
</g>
</g>

<g transform="matrix( 0.9965972900390625, 0.079071044921875, -0.072509765625, 0.9139556884765625, 16.5,6.05) ">
<g transform="matrix( 1, 0, 0, 1, -262.4,-279.25) ">
<use xlink:href="#pony_tail_3_Layer0_0_MEMBER_0_FILL"/>
</g>

<g transform="matrix( 1, 0, 0, 1, -262.4,-279.25) ">
<use xlink:href="#pony_tail_3_Layer0_0_MEMBER_1_FILL"/>
</g>
</g>

<g transform="matrix( 0.9978790283203125, 0.0617523193359375, -0.0617523193359375, 0.9978790283203125, 16.25,14.4) ">
<g transform="matrix( 1, 0, 0, 1, -251.55,-317.3) ">
<use xlink:href="#pony_tail_4_Layer0_0_MEMBER_0_FILL"/>
</g>
</g>

<g transform="matrix( 1, 0, 0, 1, 0,2.5) ">
<g transform="matrix( 1, 0, 0, 1, -202.5,-275.4) ">
<use xlink:href="#pony_tail_0_Layer0_0_MEMBER_0_FILL"/>
</g>

<g transform="matrix( 1, 0, 0, 1, -202.5,-275.4) ">
<use xlink:href="#pony_tail_0_Layer0_0_MEMBER_1_FILL"/>
</g>
</g>
</g>

<g transform="matrix( 1, 0, 0, 1, 0,0) ">
<use xlink:href="#anims_pony_jump_anim_clean_lines_24_Layer6_0_1_STROKES"/>
</g>

<g transform="matrix( 1, 0, 0, 1, 0,0) ">
<use xlink:href="#anims_pony_jump_anim_clean_lines_24_Layer5_0_1_STROKES"/>
</g>

<g transform="matrix( 1, 0, 0, 1, 0,0) ">
<use xlink:href="#anims_pony_jump_anim_clean_lines_24_Layer4_0_1_STROKES"/>
</g>

<g transform="matrix( 1, 0, 0, 1, 0,0) ">
<use xlink:href="#anims_pony_jump_anim_clean_lines_24_Layer3_0_1_STROKES"/>
</g>

<g transform="matrix( 1, 0, 0.0709381103515625, 0.96746826171875, -18.2,5.2) ">
<use xlink:href="#anims_pony_jump_anim_clean_lines_24_Layer2_0_1_STROKES" transform="matrix( 0.9999847412109375, 0, -0.0733184814453125, 1.0336151123046875, 18.55,-5.35) "/>
</g>

<g transform="matrix( 1, 0, 0.0709381103515625, 0.96746826171875, -17.5,4.55) ">
<use xlink:href="#anims_pony_jump_anim_clean_lines_24_Layer2_1_1_STROKES" transform="matrix( 0.9999847412109375, 0, -0.0733184814453125, 1.0336151123046875, 17.8,-4.7) "/>
</g>

<g transform="matrix( 0.899810791015625, 0.40997314453125, -0.3050384521484375, 0.82830810546875, 25.6,19.1) ">
<use xlink:href="#anims_pony_jump_anim_clean_lines_24_Layer1_0_1_STROKES" transform="matrix( 0.95166015625, -0.4710235595703125, 0.3504638671875, 1.0338134765625, -31.05,-7.65) "/>
</g>

<g transform="matrix( 1.13323974609375, -0.0057373046875, 0.0038604736328125, 0.760772705078125, -142.95,-239.3) ">
<use xlink:href="#anims_pony_jump_anim_clean_lines_24_Layer0_0_1_STROKES" transform="matrix( 0.8824005126953125, 0.00665283203125, -0.0044708251953125, 1.3144073486328125, 125.05,315.45) "/>
</g>

<g transform="matrix( 1.13323974609375, -0.0057373046875, 0.0038604736328125, 0.760772705078125, -142.95,-239.3) ">
<use xlink:href="#anims_pony_jump_anim_clean_lines_24_Layer0_1_1_STROKES" transform="matrix( 0.8824005126953125, 0.00665283203125, -0.0044708251953125, 1.3144073486328125, 125.05,315.45) "/>
</g>

<g transform="matrix( 1.13323974609375, -0.0057373046875, 0.0038604736328125, 0.760772705078125, -142.95,-239.3) ">
<use xlink:href="#anims_pony_jump_anim_clean_lines_24_Layer0_2_FILL"/>
</g>

<g transform="matrix( 1.13323974609375, -0.0057373046875, 0.0038604736328125, 0.760772705078125, -142.95,-239.3) ">
<use xlink:href="#anims_pony_jump_anim_clean_lines_24_Layer0_3_FILL"/>
</g>

<g transform="matrix( 1.13323974609375, -0.0057373046875, 0.0038604736328125, 0.760772705078125, -142.95,-239.3) ">
<use xlink:href="#anims_pony_jump_anim_clean_lines_24_Layer0_4_FILL"/>
</g>

<g transform="matrix( 1.13323974609375, -0.0057373046875, 0.0038604736328125, 0.760772705078125, -142.95,-239.3) ">
<use xlink:href="#anims_pony_jump_anim_clean_lines_24_Layer0_5_1_STROKES" transform="matrix( 0.8824005126953125, 0.00665283203125, -0.0044708251953125, 1.3144073486328125, 125.05,315.45) "/>
</g>

<g transform="matrix( 1.13323974609375, -0.0057373046875, 0.0038604736328125, 0.760772705078125, -142.95,-239.3) ">
<use xlink:href="#anims_pony_jump_anim_clean_lines_24_Layer0_6_1_STROKES" transform="matrix( 0.8824005126953125, 0.00665283203125, -0.0044708251953125, 1.3144073486328125, 125.05,315.45) "/>
</g>

<g transform="matrix( 1.13323974609375, -0.0057373046875, 0.0038604736328125, 0.760772705078125, -142.95,-239.3) ">
<use xlink:href="#anims_pony_jump_anim_clean_lines_24_Layer0_7_1_STROKES" transform="matrix( 0.8824005126953125, 0.00665283203125, -0.0044708251953125, 1.3144073486328125, 125.05,315.45) "/>
</g>

<g transform="matrix( 1.13323974609375, -0.0057373046875, 0.0038604736328125, 0.760772705078125, -142.95,-239.3) ">
<use xlink:href="#anims_pony_jump_anim_clean_lines_24_Layer0_8_1_STROKES" transform="matrix( 0.8824005126953125, 0.00665283203125, -0.0044708251953125, 1.3144073486328125, 125.05,315.45) "/>
</g>

<g transform="matrix( 1.0452880859375, -0.6760101318359375, 0.4309844970703125, 0.841156005859375, 25.4,70.9) ">
<g transform="matrix( 1, 0, 0, 1, -209.5,-409.35) ">
<use xlink:href="#pony_mane4_0_Layer0_0_MEMBER_0_FILL"/>
</g>

<g transform="matrix( 1, 0, 0, 1, -209.5,-409.35) ">
<use xlink:href="#pony_mane4_0_Layer0_0_MEMBER_1_FILL"/>
</g>

<g transform="matrix( 1, 0, 0, 1, -209.5,-409.35) ">
<use xlink:href="#pony_mane4_0_Layer0_0_MEMBER_2_FILL"/>
</g>
</g>

<g transform="matrix( 1.25408935546875, -0.1207427978515625, -0.3270111083984375, 0.8136749267578125, 25.2,61.1) ">
<g transform="matrix( 1, 0, 0, 1, -175.6,-398.45) ">
<use xlink:href="#pony_mane3_0_Layer0_0_MEMBER_0_FILL"/>
</g>

<g transform="matrix( 1, 0, 0, 1, -175.6,-398.45) ">
<use xlink:href="#pony_mane3_0_Layer0_0_MEMBER_1_FILL"/>
</g>

<g transform="matrix( 1, 0, 0, 1, -175.6,-398.45) ">
<use xlink:href="#pony_mane3_0_Layer0_0_MEMBER_2_FILL"/>
</g>
</g>

<g transform="matrix( 1.13323974609375, -0.0057373046875, 0.0038604736328125, 0.760772705078125, -23.3,45.2) ">
<use xlink:href="#anims_pony_jump_anim_clean_lines_24_Layer0_11_MEMBER_0_FILL"/>
</g>

<g transform="matrix( 1.1117401123046875, -0.13348388671875, 0.080963134765625, 0.7494354248046875, -170.9,-217.5) ">
<use xlink:href="#anims_pony_jump_anim_clean_lines_24_Layer0_11_MEMBER_1_FILL"/>
</g>

<g transform="matrix( 1.1117401123046875, -0.13348388671875, 0.080963134765625, 0.7494354248046875, -170.9,-217.5) ">
<use xlink:href="#anims_pony_jump_anim_clean_lines_24_Layer0_11_MEMBER_2_FILL"/>
</g>

<g transform="matrix( 1.1117401123046875, -0.13348388671875, 0.080963134765625, 0.7494354248046875, -170.9,-217.5) ">
<use xlink:href="#anims_pony_jump_anim_clean_lines_24_Layer0_11_MEMBER_3_FILL"/>
</g>

<g transform="matrix( 1.133056640625, -0.0157318115234375, 0.019012451171875, 0.7713775634765625, -21.9,50.05) ">
<g transform="matrix( 1, 0, 0, 1, -105.75,-380.75) ">
<use xlink:href="#pony_mane1_0_Layer0_0_MEMBER_0_FILL"/>
</g>

<g transform="matrix( 1, 0, 0, 1, -105.75,-380.75) ">
<use xlink:href="#pony_mane1_0_Layer0_0_MEMBER_1_FILL"/>
</g>

<g transform="matrix( 1, 0, 0, 1, -105.75,-380.75) ">
<use xlink:href="#pony_mane1_0_Layer0_0_MEMBER_2_FILL"/>
</g>

<g transform="matrix( 1, 0, 0, 1, -105.75,-380.75) ">
<use xlink:href="#pony_mane1_0_Layer0_0_MEMBER_3_FILL"/>
</g>
</g>

<g transform="matrix( 1.13323974609375, -0.0057373046875, 0.0038604736328125, 0.760772705078125, -142.95,-239.3) ">
<use xlink:href="#anims_pony_jump_anim_clean_lines_24_Layer0_13_FILL"/>
</g>

<g transform="matrix( 1.13323974609375, -0.0057373046875, 0.0038604736328125, 0.760772705078125, -142.95,-239.3) ">
<use xlink:href="#anims_pony_jump_anim_clean_lines_24_Layer0_14_1_STROKES" transform="matrix( 0.8824005126953125, 0.00665283203125, -0.0044708251953125, 1.3144073486328125, 125.05,315.45) "/>
</g>
</g>
</g>
</svg>
