
<svg xmlns="http://www.w3.org/2000/svg" version="1.1" xmlns:xlink="http://www.w3.org/1999/xlink" preserveAspectRatio="none" x="0px" y="0px" width="268px" height="285px" viewBox="0 0 268 285">
<defs>
<linearGradient id="Gradient_1" gradientUnits="userSpaceOnUse" x1="70.625" y1="129.1" x2="88.775" y2="120.9" spreadMethod="pad">
<stop  offset="23.529411764705884%" stop-color="#FFFFFF" stop-opacity="0.6980392156862745"/>

<stop  offset="98.43137254901961%" stop-color="#FFFFFF" stop-opacity="0"/>
</linearGradient>

<linearGradient id="Gradient_2" gradientUnits="userSpaceOnUse" x1="26.9375" y1="133.05" x2="45.8625" y2="133.05" spreadMethod="pad">
<stop  offset="23.529411764705884%" stop-color="#FFFFFF" stop-opacity="0.6980392156862745"/>

<stop  offset="98.43137254901961%" stop-color="#FFFFFF" stop-opacity="0"/>
</linearGradient>

<filter id="Filter_1" x="-20%" y="-20%" width="140%" height="140%" color-interpolation-filters="sRGB">
<feColorMatrix in="SourceGraphic" type="matrix" values="0 0 0 0 1 0 0 0 0 0 0 0 0 0 0.4 0 0 0 1 0" result="result1"/>
</filter>

<g id="anims_pony_walk_anim_clean_flats_0_Layer0_0_FILL">
<path fill="url(#Gradient_1)" stroke="none" d="
M 88 122.25
L 88 122.25
Q 89.0470703125 124.1728515625 90.7 125.65 89 127.55 85.85 129.5 86.1525390625 129.3318359375 86.45 129.15 89.6 127.3 91.3 125.4 89.85 124.15 88.7 122.45 88.3556640625 122.3638671875 88 122.25 Z"/>

<path fill="url(#Gradient_2)" stroke="none" d="
M 45.3 133.85
Q 45.4685546875 136.0189453125 45.65 138.3 42.8953125 139.346484375 40.1 139.8 40.41640625 139.78125 40.7 139.7 43.309765625 139.26484375 45.85 138.3
L 45.55 134.05
Q 45.437109375 133.959765625 45.3 133.85 Z"/>

<path fill="#FFFFFF" stroke="none" d="
M 81.4 85.8
Q 83.1 81.45 82.85 78.9 82.4 74.8 78.75 71.35 77.37578125 70.04453125 75.85 69.15 73.6111328125 67.915625 71.05 67.6 68.555859375 66.294140625 66.05 66.4 60.6 67.25 57.8 67.65 55.7830078125 67.9796875 54 67.95 53.7380859375 66.90546875 53.2 65.65 52.1 62.95 48.05 51.05
L 44.2 39.7
Q 43.97109375 39.3626953125 43.65 39.05 43.71953125 37.63671875 43.55 36.15 42.4 25.75 40.15 20.1 37.6998046875 13.8802734375 33.65 11.55 33.1587890625 9.5978515625 31.85 8.35 31.071875 7.6177734375 26.5 5 26.1029296875 4.758203125 25.65 4.5 21.95 2.45 21.95 0
L 20.15 2.75
Q 19.6283203125 3.875 19.35 5 18.8435546875 7.325 19.45 9.65 19.7220703125 10.6599609375 20.1 11.55 17.730859375 12.462890625 15.85 14 13.95 15.55 10 21.25 8.05 24.05 7.1 28.6 6.6 31 5.9 34.6 5.55 35.7 2.4 40.4 -0.35 44.5 -0.2 46 0.1 48.5 1.05 51.8 2.25 55.75 3.5 57 4.95 58.4 8.8 60 12.7 61.55 14.75 61.6 17.3 61.65 19.95 60.25 23.2 58.5 24.2 55.4
L 28.35 55.7 30.15 60.7
Q 31.2849609375 63.8779296875 32.1 66.1 26.33984375 69.46484375 25.6 77.8 24.9 85.85 29.3 90.05 29.7111328125 90.4482421875 30.2 90.8 29.8462890625 92.0294921875 29.2 92.95 28 94.65 23.55 100.15 19.8 106.3 20.3 113.9 20.85 122 23.1 125.7
L 27.6 125.3
Q 27.58828125 125.39375 27.55 125.45
L 26.7 133.9
Q 26.70546875 135.9544921875 26.95 137.55 27.0578125 138.18125 27.2 138.75
L 32.55 140 33.85 140.1
Q 34.5232421875 140.1626953125 35.2 140.15
L 35.75 140.15 40.1 139.8
Q 42.8953125 139.346484375 45.65 138.3 45.4685546875 136.0189453125 45.3 133.85 44.4337890625 120.6509765625 44.95 112.65 45.35 106.85 46.55 99
L 47 96.2
Q 49.6841796875 96.4888671875 52.15 96.4 55.26015625 96.28359375 57.95 95.65 58.0271484375 95.751953125 58.1 95.85 59.7 98 61.4 99
L 61 101.7
Q 60.65 104.7 60.75 106.35 60.9 108.1 59.6 110.85 58.9 112.3 55.85 117.65 53.85 121.2 52 128.05 51.05 131.5 50.5 134.2 56.7 137.05 64.15 136.15 67.85 135.7 70.35 134.75 69.4740234375 131.5966796875 70.15 126.95 70.2802734375 127.3650390625 70.4 127.75 70.423828125 127.8609375 70.45 127.95 71.4 131.05 72.25 133.4 72.5212890625 133.3962890625 72.8 133.4 72.884375 133.3970703125 72.95 133.4
L 75.4 132.95
Q 77.4599609375 132.7271484375 79.4 132.2
L 80.4 132
Q 82.4248046875 131.3525390625 84.3 130.35
L 85.85 129.5
Q 89 127.55 90.7 125.65 89.0470703125 124.1728515625 88 122.25
L 88 122.25
Q 87.62734375 121.5513671875 87.3 120.75
L 86.25 115.5
Q 86.2775390625 115.4484375 86.25 115.35 86.2771484375 115.3048828125 86.25 115.2 86.2765625 115.1390625 86.25 115.05 86.27578125 114.9810546875 86.25 114.9 86.275 114.7984375 86.25 114.7 86.2744140625 114.62734375 86.25 114.55 86.2859375 114.20625 86.3 113.85 87.5 106.2 87.4 104.05 87.3 101.7 84.05 97.5 80.55 92.95 80.2 91.55 79.75 89.9 81.4 85.8
M 71.05 95.5
Q 71.366015625 95.6564453125 71.65 95.8
L 73 96.25
Q 73.0671875 96.2908203125 73.1 96.3
L 74.2 102.8
Q 73.8259765625 102.0138671875 73.35 101.1 71.3830078125 97.2462890625 71.05 95.5 Z"/>
</g>
</defs>

<g transform="matrix( 2, 0, 0, 1.9998779296875, 9.9,2.9) ">
<g transform="matrix( 1, 0, 0, 1, 0.2,0) ">
<g transform="matrix( 1, 0, 0, 1, 0,0) ">
<use filter="url(#Filter_1)" xlink:href="#anims_pony_walk_anim_clean_flats_0_Layer0_0_FILL"/>
</g>
</g>
</g>
</svg>
