
<svg xmlns="http://www.w3.org/2000/svg" version="1.1" xmlns:xlink="http://www.w3.org/1999/xlink" preserveAspectRatio="none" x="0px" y="0px" width="330px" height="358px" viewBox="0 0 330 358">
<defs>
<filter id="Filter_1" x="-20%" y="-20%" width="140%" height="140%" color-interpolation-filters="sRGB">
<feColorMatrix in="SourceGraphic" type="matrix" values="0 0 0 0 1 0 0 0 0 0 0 0 0 0 0.4 0 0 0 1 0" result="result1"/>
</filter>

<g id="anims_pony_jump_anim_clean_flats_5_Layer0_0_FILL">
<path fill="#FFFFFF" stroke="none" d="
M 39.8 -22.5
L 37.3 -20.4
Q 34.7 -17.55 34.6 -14 34.5642578125 -12.9666015625 34.7 -12 32.138671875 -11.827734375 29.9 -10.9 27.6 -9.95 22.15 -5.65 19.5 -3.6 17.2 0.5 16.05 2.65 14.3 5.9 13.7 6.85 9.3 10.4 5.45 13.5 5.2 15 4.75 17.5 4.7 20.9 4.7 25.05 5.5 26.65 6.45 28.35 9.7 31.05 13 33.7 14.9 34.3 17.35 35.1 20.25 34.55 23.9 33.8 25.75 31.15
L 29.8 32.7
Q 34.0458984375 33.84140625 37.05 33
L 41.35 41.2
Q 39.0798828125 43.509375 37.75 47.55 35.4 55.15 38.45 60.75 38.6421875 61.10078125 38.85 61.45 38.232421875 65.0142578125 36.95 67 36.55 67.6 34.45 70.45 32.25 73.55 30.9 76.25 26.5 84.95 29.1 91.4 32.3 99.8 35.8 103.1
L 37.6 102.65
Q 38.799609375 104.47109375 40.05 105.65
L 45.5 104.25
Q 51.85 101.95 56.35 97.1 52.7 92 48.75 86.3 47 83.8 46.65 82.55 46.2 80.9 47.5 80.2 52 77.9 53.35 73.9
L 53.45 73.1
Q 55.91640625 74.384375 58.25 75.2 61.4439453125 76.30703125 64.3 76.65 65.618359375 79.0646484375 67.1 80.5
L 66.65 83.2
Q 66.2 86.25 66.3 88.05 66.4 89.7 65.85 93.9 65.05 100.25 64.85 102.15 64.45 106.05 65.25 113.25 65.65 116.95 66.15 119.8 71.8908203125 121.5435546875 77.5 120.4 78.0615234375 122.9958984375 78.6 125.15 85.55 126.7 91.95 124.1 95.15 122.8 96.9 121.2 90.1 111.8 90.3 95.9 90.35 93.55 87.6 87.65 84.9 81.7 84.95 79.95 84.95 78.3 86.95 73.15 88.9 68 88.95 65.15 89 60.75 85.95 56.5 82.5 51.8 77.5 50.9
L 77.45 51
Q 72.54375 49.9263671875 69.95 49.35 68.4220703125 49.0291015625 67.1 48.55 66.5763671875 47.2705078125 65.6 45.65 64 42.9 57.8 30.8
L 52 19.15
Q 51.2234375 18.2439453125 50 17.7 51.833203125 7.8974609375 51.35 2.05 50.8171875 -4.6255859375 47.65 -8.05 47.73125 -10.0501953125 46.85 -11.6 46.3 -12.6 42 -17.15 39.05 -20.15 39.8 -22.5 Z"/>
</g>
</defs>

<g transform="matrix( 2, 0, 0, 1.9998779296875, 55.6,72.4) ">
<g transform="matrix( 1, 0, 0, 1, 0.05,-3) ">
<g transform="matrix( 1, 0, 0, 1, 0,0) ">
<use filter="url(#Filter_1)" xlink:href="#anims_pony_jump_anim_clean_flats_5_Layer0_0_FILL"/>
</g>
</g>
</g>
</svg>
