
<svg xmlns="http://www.w3.org/2000/svg" version="1.1" xmlns:xlink="http://www.w3.org/1999/xlink" preserveAspectRatio="none" x="0px" y="0px" width="330px" height="358px" viewBox="0 0 330 358">
<defs>
<filter id="Filter_1" x="-20%" y="-20%" width="140%" height="140%" color-interpolation-filters="sRGB">
<feColorMatrix in="SourceGraphic" type="matrix" values="0 0 0 0 1 0 0 0 0 0 0 0 0 0 0.4 0 0 0 1 0" result="result1"/>
</filter>

<g id="anims_pony_jump_anim_clean_flats_27_Layer0_0_FILL">
<path fill="#FFFFFF" stroke="none" d="
M 81.9 88.4
Q 83.8 83.55 83.65 81.05 83.45 77.15 79.8 73.95 75.9619140625 70.6330078125 70.65 70.45 68.7083984375 69.8951171875 66.85 70.05 61.45 71.25 58.65 71.85 57.0662109375 72.1697265625 55.6 72.25 54.5544921875 70.9607421875 52.75 69.4 50.2 67.15 39.75 56.9
L 29.75 47.1
Q 29.691015625 47.0642578125 29.6 47 28.4955078125 39.5134765625 26.45 35.2 23.9755859375 29.906640625 19.95 27.95 19.4236328125 26.22734375 18.1 25.15 17.25 24.45 11.9 21.9 8.25 20.15 8.25 18.05
L 6.45 20.4
Q 4.85 23.4 5.75 26.3 6.0333984375 27.1873046875 6.45 27.95 4.0673828125 28.7603515625 2.2 30.1 0.3 31.45 -3.65 36.3 -5.55 38.75 -6.5 42.65 -7 44.75 -7.65 47.8 -8 48.75 -11.1 52.8 -13.85 56.3 -13.65 57.6 -13.35 59.75 -12.4 62.55 -11.2 65.95 -9.9 67.05 -8.5 68.25 -4.65 69.6 -0.75 70.9 1.3 70.95 3.85 70.95 6.5 69.7 9.75 68.2 10.65 65.55
L 14.95 65.8
Q 18.478515625 65.6896484375 20.9 64.7 21.686328125 66.003515625 22.8 67
L 29.9 73.9
Q 26.9666015625 77.4123046875 27.3 83.45 27.75703125 89.9318359375 31.25 93.65 31.1013671875 98.133984375 29.85 100.3 29.2 101.6 22.95 106.5 16.85 112.25 15.8 118.6 14.35 127.15 15.65 131.7
L 21.1 133.75
Q 23.3234375 134.3638671875 25.5 134.65 25.987109375 136.7658203125 26.65 138.4
L 32.3 139.95
Q 39.3 141 45.4 138.5 43.7 131.2 41.95 123.25 41.35 120.45 41.7 117.55 41.85 115 42.8 111.55 44.55 105.55 46.3 100.9
L 46.85 99.5
Q 52.3865234375 100.2126953125 57.05 99.8 58.979296875 99.6263671875 60.7 99.25 61.4830078125 99.9025390625 62.25 100.35
L 61.9 102.9
Q 61.5 105.8 61.65 107.35 61.85 109 60.5 111.65 59.95 112.7 56.55 118.2 54.4 121.6 52.45 128.15 51.55 131.5 51 134.1 57.6 136.75 65.6 135.9 68.11875 135.648046875 70.1 135.15 74.2060546875 135.798046875 78.55 135.3 82.5 134.9 85.05 133.95 82.65 128.7 84.6 119.1 87.1 109.8 87 107.8 86.9 105.7 83.5 101 80.15 96.3 80.1 94.7 79.95 93.25 81.9 88.4 Z"/>
</g>
</defs>

<g transform="matrix( 2, 0, 0, 1.9998779296875, 55.6,72.4) ">
<g transform="matrix( 1, 0, 0, 1, 0.05,-3) ">
<g transform="matrix( 1, 0, 0, 1, 0,0) ">
<use filter="url(#Filter_1)" xlink:href="#anims_pony_jump_anim_clean_flats_27_Layer0_0_FILL"/>
</g>
</g>
</g>
</svg>
