
<svg xmlns="http://www.w3.org/2000/svg" version="1.1" xmlns:xlink="http://www.w3.org/1999/xlink" preserveAspectRatio="none" x="0px" y="0px" width="330px" height="358px" viewBox="50 364 330 358">
<defs>
<filter id="Filter_1" x="-20%" y="-20%" width="140%" height="140%" color-interpolation-filters="sRGB">
<feColorMatrix in="SourceGraphic" type="matrix" values="0 0 0 0 0.4 0 0 0 0 0.8 0 0 0 0 0.4 0 0 0 1 0" result="result1"/>
</filter>

<g id="Symbol_423_0_Layer0_0_FILL">
<path fill="#FFFFFF" stroke="none" d="
M 65.9 80.75
L 55.7 94.1
Q 55.3 98.75 58.7 102.3 60.45 104.1 62.25 104.95
L 61.9 107.25
Q 61.5 109.75 61.65 111.1 61.85 112.55 60.5 114.85
L 56.55 120.55
Q 54.4 123.5 52.45 129.25 51.55 132.1 51 134.35 57.6 136.7 65.6 135.95 69.6 135.65 72.3 134.8 70.6 130.3 73.85 122.15 77.6 114.25 77.75 112.55 77.95 110.8 75.2 106.75 72.5 102.75 72.6 101.4 72.7 100.15 75.3 96.05 77.85 91.9 78.05 89.8 78.4 86.5 75.15 83.75 71.55 80.75 65.9 80.75 Z"/>
</g>

<g id="Symbol_423_0_Layer0_1_FILL">
<path fill="#FFFFFF" stroke="none" d="
M 33.2 90.95
L 33.05 95.2
Q 32.6 99.85 31.2 102.1 30.5 103.35 23.95 107.85 17.55 113.3 16.15 119.6 14.25 128.1 15.3 132.75
L 20.6 135.15
Q 27.2 137.3 33.7 136.45 33.4 130.25 33.25 123.5 33.2 121.1 34.05 118.8 34.7 116.8 36.3 114.2 39.15 109.65 41.8 106.2
L 43.9 103.65
Q 44.95 101.9 45.15 99.45 45.55 94.6 41.35 91.4 36.75 87.85 34.9 88.15 33.45 88.4 33.2 90.95 Z"/>
</g>

<g id="Symbol_423_0_Layer0_2_FILL">
<path fill="#FFFFFF" stroke="none" d="
M 22.2 74.6
L 40.2 91
Q 42.45 92.75 46.6 93 51.9 93.35 54.8 89.45 57.85 85.35 56.8 82.35 56.1 80.2 52.25 77
L 28.15 54.7
Q 26.5 53.7 24.45 53.9 20.3 54.45 18.6 60.9 17.2 66.05 19.15 70.35 20.2 72.9 22.2 74.6 Z"/>
</g>

<g id="Symbol_423_0_Layer0_3_FILL">
<path fill="#FFFFFF" stroke="none" d="
M 34 80.15
Q 28.45 83.7 28.9 91.85 29.45 99.65 34.45 103.45 38.2 106.2 46.1 107.55
L 58.65 108.2
Q 68.1 107.35 73.15 102.2 75.6 99.65 77.65 94.9 79.35 91 79.95 87.55 80.7 83.35 76.1 80.55 72.05 78.15 68.45 78.45
L 60.25 80.25 51.35 80
Q 45.25 78.05 43.9 77.85 38.6 77.1 34 80.15 Z"/>
</g>

<g id="Symbol_423_0_Layer0_4_FILL">
<path fill="#FFFFFF" stroke="none" d="
M 81.4 95.7
Q 83.55 91.05 83.5 88.7 83.55 85 80.05 81.95 76.2 78.55 70.55 78.55
L 61.55 93.5
Q 61.6 98.7 65.35 102.7 67.3 104.7 69.2 105.7
L 69.05 108.25
Q 68.9 111.05 69.15 112.55 69.5 114.2 68.35 116.75
L 64.95 123.15
Q 63.05 126.45 61.7 132.9
L 60.7 138.65
Q 67.55 141.3 75.45 140.45 79.4 140.05 82.05 139.15 79.9 134.1 82.35 124.95 85.4 116.1 85.4 114.2 85.4 112.2 82.3 107.7 79.2 103.2 79.2 101.7 79.15 100.3 81.4 95.7 Z"/>
</g>

<g id="Symbol_423_0_Layer0_5_FILL">
<path fill="#FFFFFF" stroke="none" d="
M 35.65 94.15
L 36.3 98.35
Q 36.8 103 35.85 105.5 35.4 106.85 29.9 112.6 24.7 119.15 24.5 125.6 24.25 134.3 26.25 138.65
L 31.85 139.95
Q 38.8 140.85 45 138.75
L 42.05 126.1
Q 41.5 123.75 41.95 121.3 42.2 119.25 43.25 116.35 45.2 111.35 47.1 107.5
L 48.65 104.55
Q 49.35 102.6 49.05 100.2 48.5 95.35 43.8 93 38.6 90.45 36.8 91.1 35.4 91.6 35.65 94.15 Z"/>
</g>

<g id="Symbol_423_0_Layer0_6_FILL">
<path fill="#FFFFFF" stroke="none" d="
M 18.25 41.9
Q 18.65 40.55 18.65 38.9 18.65 35.6 16.4 33.95 15.55 33.3 9.9 30.8 6.05 29.15 6.05 27.1 5 28 4.15 29.4 2.55 32.25 3.5 35.1 5.9 42 18.25 41.9 Z"/>
</g>

<g id="Symbol_423_0_Layer0_7_FILL">
<path fill="#FFFFFF" stroke="none" d="
M 25.1 43.6
Q 21 35.45 12.75 35.5 3.65 35.55 -1.5 39.55 -3.3 40.85 -4.95 43.1 -6.25 44.6 -6.75 45.7 -8.25 48.6 -9.25 53.85
L -9.95 58.55 -12.95 60.5
Q -15.9 63.15 -15.9 66.45 -15.9 69.5 -13.2 71.7 -11.3 73.25 -8.4 74.05
L 2.1 74.45
Q 9.1 74 12.85 73 16.75 71.95 18.6 70.55 21.95 68.15 22.05 63.75 25.8 63.65 27.25 62.6 29.35 61 28.7 56.8 27.45 48.25 25.1 43.6 Z"/>
</g>
</defs>

<g transform="matrix( 2, 0, 0, 1.9998779296875, 100.1,433.95) ">
<g transform="matrix( 1, 0, 0, 1, 0,0) ">
<use filter="url(#Filter_1)" xlink:href="#Symbol_423_0_Layer0_0_FILL"/>
</g>

<g transform="matrix( 1, 0, 0, 1, 0,0) ">
<use filter="url(#Filter_1)" xlink:href="#Symbol_423_0_Layer0_1_FILL"/>
</g>

<g transform="matrix( 1, 0, 0, 1, 0,0) ">
<use filter="url(#Filter_1)" xlink:href="#Symbol_423_0_Layer0_2_FILL"/>
</g>

<g transform="matrix( 1, 0, 0, 1, 0,0) ">
<use filter="url(#Filter_1)" xlink:href="#Symbol_423_0_Layer0_3_FILL"/>
</g>

<g transform="matrix( 1, 0, 0, 1, 0,0) ">
<use filter="url(#Filter_1)" xlink:href="#Symbol_423_0_Layer0_4_FILL"/>
</g>

<g transform="matrix( 1, 0, 0, 1, 0,0) ">
<use filter="url(#Filter_1)" xlink:href="#Symbol_423_0_Layer0_5_FILL"/>
</g>

<g transform="matrix( 1, 0, 0, 1, 0,0) ">
<use filter="url(#Filter_1)" xlink:href="#Symbol_423_0_Layer0_6_FILL"/>
</g>

<g transform="matrix( 1, 0, 0, 1, 0,0) ">
<use filter="url(#Filter_1)" xlink:href="#Symbol_423_0_Layer0_7_FILL"/>
</g>
</g>
</svg>
