
<svg xmlns="http://www.w3.org/2000/svg" version="1.1" xmlns:xlink="http://www.w3.org/1999/xlink" preserveAspectRatio="none" x="0px" y="0px" width="330px" height="358px" viewBox="0 0 330 358">
<defs>
<linearGradient id="Gradient_1" gradientUnits="userSpaceOnUse" x1="119.85000000000001" y1="267.1375" x2="125.05" y2="258.16249999999997" spreadMethod="pad">
<stop  offset="2.7450980392156863%" stop-color="#FFFFFF" stop-opacity="0"/>

<stop  offset="76.86274509803921%" stop-color="#FFFFFF" stop-opacity="0.4980392156862745"/>
</linearGradient>

<linearGradient id="Gradient_2" gradientUnits="userSpaceOnUse" x1="140.8375" y1="290.2125" x2="158.36249999999998" y2="272.6875" spreadMethod="pad">
<stop  offset="9.803921568627452%" stop-color="#FFFFFF" stop-opacity="0"/>

<stop  offset="43.13725490196079%" stop-color="#FFFFFF" stop-opacity="0.6980392156862745"/>

<stop  offset="61.96078431372549%" stop-color="#FFFFFF" stop-opacity="0.6980392156862745"/>

<stop  offset="92.94117647058823%" stop-color="#FFFFFF" stop-opacity="0"/>
</linearGradient>

<linearGradient id="Gradient_3" gradientUnits="userSpaceOnUse" x1="95.1875" y1="108.8625" x2="112.61250000000001" y2="99.33749999999999" spreadMethod="pad">
<stop  offset="23.529411764705884%" stop-color="#FFFFFF" stop-opacity="0.6980392156862745"/>

<stop  offset="98.43137254901961%" stop-color="#FFFFFF" stop-opacity="0"/>
</linearGradient>

<linearGradient id="Gradient_4" gradientUnits="userSpaceOnUse" x1="50.0625" y1="114.2875" x2="68.9375" y2="112.7125" spreadMethod="pad">
<stop  offset="23.529411764705884%" stop-color="#FFFFFF" stop-opacity="0.6980392156862745"/>

<stop  offset="98.43137254901961%" stop-color="#FFFFFF" stop-opacity="0"/>
</linearGradient>

<radialGradient id="Gradient_5" gradientUnits="userSpaceOnUse" cx="0" cy="0" r="8.512499999999989" fx="0" fy="0" gradientTransform="matrix( 1.0000000000000013, 0, 0, -1.0000000000000013, 159.1,287) " spreadMethod="pad">
<stop  offset="29.41176470588235%" stop-color="#FFFFFF" stop-opacity="0.6"/>

<stop  offset="100%" stop-color="#FFFFFF" stop-opacity="0"/>
</radialGradient>

<linearGradient id="Gradient_6" gradientUnits="userSpaceOnUse" x1="121.69999999999999" y1="408.73749999999995" x2="111" y2="402.5625" spreadMethod="pad">
<stop  offset="38.8235294117647%" stop-color="#FFFFFF" stop-opacity="0"/>

<stop  offset="70.98039215686275%" stop-color="#FFFFFF" stop-opacity="0.6980392156862745"/>
</linearGradient>

<linearGradient id="Gradient_7" gradientUnits="userSpaceOnUse" x1="111.85" y1="420.3875" x2="111.85" y2="429.91249999999997" spreadMethod="pad">
<stop  offset="17.254901960784313%" stop-color="#FFFFFF" stop-opacity="0.2"/>

<stop  offset="88.62745098039215%" stop-color="#FFFFFF" stop-opacity="0.6980392156862745"/>
</linearGradient>

<linearGradient id="Gradient_8" gradientUnits="userSpaceOnUse" x1="134.48749999999998" y1="419.33750000000003" x2="129.4125" y2="414.2625" spreadMethod="pad">
<stop  offset="0%" stop-color="#FFFFFF" stop-opacity="0"/>

<stop  offset="100%" stop-color="#FFFFFF" stop-opacity="0.6980392156862745"/>
</linearGradient>

<linearGradient id="Gradient_9" gradientUnits="userSpaceOnUse" x1="270.55" y1="269.95" x2="270.55" y2="237.25" spreadMethod="pad">
<stop  offset="0%" stop-color="#CE8B5E"/>

<stop  offset="54.90196078431372%" stop-color="#AA6834"/>

<stop  offset="93.33333333333333%" stop-color="#6D411A"/>
</linearGradient>

<linearGradient id="Gradient_10" gradientUnits="userSpaceOnUse" x1="240.52499999999998" y1="253.55" x2="280.775" y2="253.55" spreadMethod="pad">
<stop  offset="0%" stop-color="#CE8B5E"/>

<stop  offset="54.90196078431372%" stop-color="#AA6834"/>

<stop  offset="93.33333333333333%" stop-color="#6D411A"/>
</linearGradient>

<linearGradient id="Gradient_11" gradientUnits="userSpaceOnUse" x1="235.54999999999998" y1="292.85" x2="256.15" y2="292.85" spreadMethod="pad">
<stop  offset="0%" stop-color="#CE8B5E"/>

<stop  offset="54.90196078431372%" stop-color="#AA6834"/>

<stop  offset="93.33333333333333%" stop-color="#6D411A"/>
</linearGradient>

<linearGradient id="Gradient_12" gradientUnits="userSpaceOnUse" x1="242.4375" y1="299.25" x2="258.2625" y2="299.25" spreadMethod="pad">
<stop  offset="0%" stop-color="#CE8B5E"/>

<stop  offset="54.90196078431372%" stop-color="#AA6834"/>

<stop  offset="93.33333333333333%" stop-color="#6D411A"/>
</linearGradient>

<linearGradient id="Gradient_13" gradientUnits="userSpaceOnUse" x1="262.4" y1="292.1" x2="274.6" y2="292.1" spreadMethod="pad">
<stop  offset="0%" stop-color="#CE8B5E"/>

<stop  offset="54.90196078431372%" stop-color="#AA6834"/>

<stop  offset="93.33333333333333%" stop-color="#6D411A"/>
</linearGradient>

<linearGradient id="Gradient_14" gradientUnits="userSpaceOnUse" x1="275.95" y1="279.28749999999997" x2="275.95" y2="301.5125" spreadMethod="pad">
<stop  offset="7.0588235294117645%" stop-color="#CE8B5E"/>

<stop  offset="30.980392156862745%" stop-color="#AA6834"/>

<stop  offset="87.05882352941177%" stop-color="#6D411A"/>
</linearGradient>

<linearGradient id="Gradient_15" gradientUnits="userSpaceOnUse" x1="261.35" y1="352.9625" x2="261.35" y2="317.3375" spreadMethod="pad">
<stop  offset="0%" stop-color="#CE8B5E"/>

<stop  offset="54.90196078431372%" stop-color="#AA6834"/>

<stop  offset="93.33333333333333%" stop-color="#6D411A"/>
</linearGradient>

<linearGradient id="Gradient_16" gradientUnits="userSpaceOnUse" x1="202.4625" y1="282.7" x2="232.5375" y2="282.7" spreadMethod="pad">
<stop  offset="8.627450980392156%" stop-color="#CE8B5E"/>

<stop  offset="49.80392156862745%" stop-color="#AA6834"/>

<stop  offset="89.80392156862744%" stop-color="#6D411A"/>
</linearGradient>

<linearGradient id="Gradient_17" gradientUnits="userSpaceOnUse" x1="222.2" y1="277.95" x2="222.2" y2="318.95" spreadMethod="pad">
<stop  offset="0%" stop-color="#A26331"/>

<stop  offset="20%" stop-color="#CE8B5E"/>

<stop  offset="54.11764705882353%" stop-color="#AA6834"/>

<stop  offset="93.33333333333333%" stop-color="#6D411A"/>
</linearGradient>

<linearGradient id="Gradient_18" gradientUnits="userSpaceOnUse" x1="213.2375" y1="424.15" x2="229.7625" y2="424.15" spreadMethod="pad">
<stop  offset="16.470588235294116%" stop-color="#CE8B5E"/>

<stop  offset="44.31372549019608%" stop-color="#AA6834"/>

<stop  offset="72.54901960784314%" stop-color="#6D411A"/>
</linearGradient>

<linearGradient id="Gradient_19" gradientUnits="userSpaceOnUse" x1="220.25" y1="409.375" x2="220.25" y2="441.32500000000005" spreadMethod="pad">
<stop  offset="8.627450980392156%" stop-color="#CE8B5E"/>

<stop  offset="49.80392156862745%" stop-color="#AA6834"/>

<stop  offset="89.80392156862744%" stop-color="#6D411A"/>
</linearGradient>

<linearGradient id="Gradient_20" gradientUnits="userSpaceOnUse" x1="215.9" y1="438.525" x2="215.9" y2="412.975" spreadMethod="pad">
<stop  offset="0%" stop-color="#CE8B5E"/>

<stop  offset="21.176470588235293%" stop-color="#AA6834"/>

<stop  offset="46.27450980392157%" stop-color="#6D411A"/>
</linearGradient>

<linearGradient id="Gradient_21" gradientUnits="userSpaceOnUse" x1="178.42499999999998" y1="410.9" x2="193.475" y2="410.9" spreadMethod="pad">
<stop  offset="0%" stop-color="#CE8B5E"/>

<stop  offset="21.176470588235293%" stop-color="#AA6834"/>

<stop  offset="49.80392156862745%" stop-color="#6D411A"/>
</linearGradient>

<linearGradient id="Gradient_22" gradientUnits="userSpaceOnUse" x1="184.4" y1="398.4625" x2="184.4" y2="427.4375" spreadMethod="pad">
<stop  offset="0%" stop-color="#CE8B5E"/>

<stop  offset="54.90196078431372%" stop-color="#AA6834"/>

<stop  offset="93.33333333333333%" stop-color="#6D411A"/>
</linearGradient>

<linearGradient id="Gradient_23" gradientUnits="userSpaceOnUse" x1="185.5" y1="399.375" x2="185.5" y2="417.625" spreadMethod="pad">
<stop  offset="0%" stop-color="#CE8B5E"/>

<stop  offset="54.90196078431372%" stop-color="#AA6834"/>

<stop  offset="93.33333333333333%" stop-color="#6D411A"/>
</linearGradient>

<linearGradient id="Gradient_24" gradientUnits="userSpaceOnUse" x1="132.1375" y1="388.25" x2="150.8625" y2="388.25" spreadMethod="pad">
<stop  offset="0%" stop-color="#CE8B5E"/>

<stop  offset="36.86274509803921%" stop-color="#AA6834"/>

<stop  offset="78.03921568627452%" stop-color="#6D411A"/>
</linearGradient>

<linearGradient id="Gradient_25" gradientUnits="userSpaceOnUse" x1="136.01250000000002" y1="389.7" x2="155.7875" y2="389.7" spreadMethod="pad">
<stop  offset="0%" stop-color="#CE8B5E"/>

<stop  offset="30.19607843137255%" stop-color="#AA6834"/>

<stop  offset="82.3529411764706%" stop-color="#70431B"/>

<stop  offset="100%" stop-color="#6D411A"/>
</linearGradient>

<linearGradient id="Gradient_26" gradientUnits="userSpaceOnUse" x1="148" y1="384.3625" x2="148" y2="406.1375" spreadMethod="pad">
<stop  offset="0%" stop-color="#CE8B5E"/>

<stop  offset="21.176470588235293%" stop-color="#AA6834"/>

<stop  offset="49.80392156862745%" stop-color="#6D411A"/>
</linearGradient>

<linearGradient id="Gradient_27" gradientUnits="userSpaceOnUse" x1="147.55" y1="386.875" x2="147.55" y2="408.125" spreadMethod="pad">
<stop  offset="0%" stop-color="#CE8B5E"/>

<stop  offset="36.86274509803921%" stop-color="#AA6834"/>

<stop  offset="78.03921568627452%" stop-color="#6D411A"/>
</linearGradient>

<linearGradient id="Gradient_28" gradientUnits="userSpaceOnUse" x1="117.8" y1="392.7" x2="127.8" y2="392.7" spreadMethod="pad">
<stop  offset="0%" stop-color="#CE8B5E"/>

<stop  offset="29.41176470588235%" stop-color="#AA6834"/>

<stop  offset="60.78431372549019%" stop-color="#6D411A"/>
</linearGradient>

<linearGradient id="Gradient_29" gradientUnits="userSpaceOnUse" x1="116.4" y1="387.25" x2="116.4" y2="399.45000000000005" spreadMethod="pad">
<stop  offset="0%" stop-color="#CE8B5E"/>

<stop  offset="41.96078431372549%" stop-color="#AA6834"/>

<stop  offset="87.45098039215686%" stop-color="#6D411A"/>
</linearGradient>

<linearGradient id="Gradient_30" gradientUnits="userSpaceOnUse" x1="126.8125" y1="390.9" x2="107.38749999999999" y2="390.9" spreadMethod="pad">
<stop  offset="0%" stop-color="#CE8B5E"/>

<stop  offset="29.41176470588235%" stop-color="#AA6834"/>

<stop  offset="60.78431372549019%" stop-color="#6D411A"/>
</linearGradient>

<linearGradient id="Gradient_31" gradientUnits="userSpaceOnUse" x1="124.8125" y1="386.6" x2="106.88749999999999" y2="386.6" spreadMethod="pad">
<stop  offset="0%" stop-color="#CE8B5E"/>

<stop  offset="41.96078431372549%" stop-color="#AA6834"/>

<stop  offset="87.45098039215686%" stop-color="#6D411A"/>
</linearGradient>

<g id="anims_pony_jump_anim_clean_gradients_10_Layer6_0_FILL">
<path fill="url(#Gradient_1)" stroke="none" d="
M 116.45 261.75
Q 114.45 262.8 112.9 263.15
L 128.05 269.1
Q 125.5 267.3 124.3 262.85
L 123.6 258.7
Q 123.05 258.35 122.7 257.45
L 122.4 256.6
Q 120.35 259.75 116.45 261.75 Z"/>
</g>

<g id="anims_pony_jump_anim_clean_gradients_10_Layer5_0_FILL">
<path fill="url(#Gradient_2)" stroke="none" d="
M 157.65 272.2
Q 155.75 271.3 153.8 272.15 151.75 272.85 150.65 273.4 147.2 275.2 145.2 279.15 143.35 282.9 143.5 287 143.65 291.15 144.7 294.05 144.55 292.45 144.65 290.3 144.9 286 146.25 283.45 149 278.5 152.75 276.9 153.75 276.45 155.6 275.85 157.15 275.3 158.05 274.5 159.6 273.1 157.65 272.2 Z"/>
</g>

<g id="anims_pony_jump_anim_clean_gradients_10_Layer4_0_FILL">
<path fill="url(#Gradient_3)" stroke="none" d="
M 112.7 100.9
Q 106.8 99.95 102.45 100.05 99.75 100.1 96.6 101
L 93.95 101.9 97.75 112.6
Q 105.05 111.9 111 107.65 114 105.55 115.5 103.55 113.95 102.35 112.7 100.9 Z"/>
</g>

<g id="anims_pony_jump_anim_clean_gradients_10_Layer3_0_FILL">
<path fill="url(#Gradient_4)" stroke="none" d="
M 68.8 113.7
Q 63.95 110.85 58.9 109 55.75 107.85 52.35 107.55
L 49.55 107.45
Q 49.65 115.55 51.5 119.7
L 57.05 120.45
Q 63.8 120.6 69.85 117.75
L 68.8 113.7 Z"/>
</g>

<g id="pony_circle_gradient_0_Layer0_0_FILL">
<path fill="url(#Gradient_5)" stroke="none" d="
M 159.1 278.45
Q 155.6 278.45 153.05 280.95 150.55 283.5 150.55 287 150.55 290.5 153.05 293 155.55 295.5 159.1 295.5 162.65 295.5 165.1 293 167.6 290.55 167.6 287 167.6 283.45 165.1 280.95 162.6 278.45 159.1 278.45 Z"/>
</g>

<g id="anims_pony_jump_anim_clean_gradients_10_Layer0_0_FILL">
<path fill="url(#Gradient_6)" stroke="none" d="
M 130.55 389.8
Q 136.4 384.95 133.2 384.95 125.3 384.95 120.65 388.75 118.75 390.3 114.8 396 112.9 398.85 111.95 403.35 111.45 405.75 110.75 409.35 110.4 410.4 107.25 415.15 104.5 419.25 104.65 420.75 104.9 423.2 105.9 426.55 107.1 430.5 108.35 431.75 107.55 429.65 107.05 426.75 106.05 420.8 109.1 418.3 111.05 417.05 112.05 415.9 113.95 413.85 114.15 410.65 114.4 406.6 114.85 404.6 115.7 400.9 117.75 399.35 127.85 392.05 130.55 389.8 Z"/>
</g>

<g id="anims_pony_jump_anim_clean_gradients_10_Layer0_1_FILL">
<path fill="url(#Gradient_7)" stroke="none" d="
M 110.9 427.35
Q 110.05 427.6 109.1 426.75
L 109.1 427 109.85 428.85
Q 110.95 430.5 112.4 429.6 115.55 427.7 114.3 423.85
L 112.45 420.4
Q 112.85 421.3 112.85 423 112.8 424.45 112.65 425 112 427.05 110.9 427.35 Z"/>
</g>

<g id="anims_pony_jump_anim_clean_gradients_10_Layer0_2_FILL">
<path fill="url(#Gradient_8)" stroke="none" d="
M 137.6 411.9
Q 134.6 411.9 133.9 412 131.6 412.4 129.6 414.05 127.5 415.8 126.5 418.35 125.65 420.55 125.95 422.3 126.45 421.2 127.35 419.95 129.2 417.5 131.35 416.7 135.35 415.25 137.6 415.25 139.6 415.25 139.55 413.6 139.55 411.9 137.6 411.9 Z"/>
</g>

<g id="pony_tail_1_Layer0_0_MEMBER_0_FILL">
<path fill="url(#Gradient_9)" stroke="none" d="
M 259.95 237.25
Q 257.6 237.15 263.15 245.75 264.7 248.1 265.8 253.4 266.4 256.3 267.4 261.6 268.25 265.25 269.6 266.95 271.1 268.85 274.1 269.6 276.75 270.3 279.55 269.7 280.95 269.4 281.85 268.95 281.05 268.4 279.55 266.15 277.75 263.45 276.9 260.9 275.55 256.45 274.55 253.6 272.7 248.55 270.45 244.65 268.25 240.85 263.85 238.7
L 259.95 237.25 Z"/>
</g>

<g id="pony_tail_1_Layer0_0_MEMBER_1_FILL">
<path fill="url(#Gradient_10)" stroke="none" d="
M 251.2 238.4
Q 253.5 237.75 256.8 239.25 259.8 240.6 261.35 242.5 262.55 243.95 263 249.5 263.25 252.55 263.45 258.25 263.65 262.45 265.15 266.45 266.95 271.3 269.65 272.75 273.15 274.65 277.35 274.05 279.4 273.75 280.8 273.05 278.9 272.7 276.55 271 271.8 267.55 269.35 260.65 268.8 259.05 268.25 254.1 267.55 247.95 267.05 245.3 264.9 234.2 258.75 233.2 252.45 232.2 246 235.05
L 240.75 238.05
Q 239.85 239.15 241.45 239.65 243.8 240.4 251.2 238.4 Z"/>
</g>

<g id="pony_tail_2_Layer0_0_MEMBER_0_FILL">
<path fill="url(#Gradient_11)" stroke="none" d="
M 251.7 283.65
Q 248.2 279.3 245.35 279.7 242.7 280.05 240.15 280.55 235.05 281.5 235.6 282.1 235.7 282.2 240.7 282.15 246.1 282.85 248.4 286.75 250.75 290.7 251.6 298.3 252 302.15 251.95 305.15
L 252.1 305.7
Q 252.45 306.2 253.75 305.9 255.25 305.55 255.9 300.7 256.55 295.9 255.75 291.9 254.95 287.7 251.7 283.65 Z"/>
</g>

<g id="pony_tail_2_Layer0_0_MEMBER_1_FILL">
<path fill="url(#Gradient_12)" stroke="none" d="
M 247 280.2
Q 244.55 280.45 243.2 280.75 241.9 281.05 242.75 281.15
L 246.15 281.75
Q 249.8 282.8 251 285 252.4 287.5 252.75 290.9 253.15 294.15 252.55 297.4 252.05 300.15 251.55 306.45 251.15 311.25 251.05 314.4
L 252.85 316.2
Q 255.15 318.05 257.5 318.3 257.85 306.1 258.15 301.5 258.4 296.55 258.15 292.45 257.8 286.6 256.4 285 254.65 282.9 252.2 281.55 249.4 279.95 247 280.2 Z"/>
</g>

<g id="pony_tail_3_Layer0_0_MEMBER_0_FILL">
<path fill="url(#Gradient_13)" stroke="none" d="
M 274.55 293.5
Q 274.95 289.6 273.65 286.1 272.45 282.95 271.2 282.65 270.25 282.45 270.1 283.8 270.05 284.5 270.15 285.2 270.4 287.75 269.2 291.5 268.05 295.2 266.55 296.55 265.35 297.7 263.75 297.25
L 262.4 296.55
Q 262.35 298.55 264.45 300 266.2 301.15 268.5 301.5 270.6 301.8 272.3 299.75 274.1 297.55 274.55 293.5 Z"/>
</g>

<g id="pony_tail_3_Layer0_0_MEMBER_1_FILL">
<path fill="url(#Gradient_14)" stroke="none" d="
M 267.25 279.25
Q 263.9 279.45 266 281.65
L 268.35 284
Q 270.75 286.95 271.1 290 271.5 293.45 273.3 295.75 274.8 297.55 278.15 299.55 280.65 301.05 283.95 301.4 285.55 301.6 286.7 301.45 285.7 300.85 284.6 299.65 282.45 297.25 282 294.3 281.5 290.75 278.65 286.3 275.85 281.85 273.3 280.55 270.4 279.1 267.25 279.25 Z"/>
</g>

<g id="pony_tail_4_Layer0_0_MEMBER_0_FILL">
<path fill="url(#Gradient_15)" stroke="none" d="
M 263.05 317.7
Q 263 317.85 261.8 321.7 260.3 325.95 258.55 328.35 256.5 331.15 254.85 332.35 253.25 333.5 251.55 333.6
L 253.3 335.8
Q 255.8 338.1 259.8 338.65
L 259.75 340.9
Q 259.85 343.55 260.6 345.8 263.05 352.95 271.15 352.95 270.4 352.35 269.5 351.05 267.75 348.55 267.15 345.25 264.9 332.1 265.05 325.9 265.1 321.5 264.45 318.95 263.75 316.5 263.05 317.7 Z"/>
</g>

<g id="pony_tail_0_Layer0_0_MEMBER_0_FILL">
<path fill="url(#Gradient_16)" stroke="none" d="
M 202.55 282.1
L 202.75 282.4
Q 203.2 282.55 204.3 281.8 205.35 281.05 210.4 280.2 215.9 279.25 219.55 279.4 222.85 279.55 227.25 284.8 229.5 287.4 231.05 290
L 232.55 290
Q 232.3 286.35 230.65 282.7 227.4 275.4 220.5 275.4 212.4 275.4 206.95 277.95
L 203.1 280.45 202.7 281.05
Q 202.35 281.7 202.55 282.1 Z"/>
</g>

<g id="pony_tail_0_Layer0_0_MEMBER_1_FILL">
<path fill="url(#Gradient_17)" stroke="none" d="
M 203.1 282.05
Q 202.65 282.3 202.8 282.65 202.95 283.15 204.1 283.05 204.95 283 205.9 282.65 208.85 281.7 212.9 281.3 219.85 280.55 223.3 282.65 227.25 285.05 228.6 289.1 229.8 292.65 229.35 298.85 228.75 307.2 230.5 311.7 233.25 318.7 241.65 318.95 240.7 318.25 239.45 316.85 237.05 314.1 235.9 310.55 234.95 307.6 234.25 298.35 233.6 289.25 232.8 287.05 231.4 283.2 228.4 280.85 224.7 277.95 219.3 277.95 214.45 277.95 208.5 279.9
L 203.1 282.05 Z"/>
</g>

<g id="anims_pony_jump_anim_clean_lines_10_Layer0_2_FILL">
<path fill="#FFFFFF" stroke="none" d="
M 129.85 402
Q 127.6 399.75 124.4 399.75 121.2 399.75 118.9 402 116.65 404.3 116.65 407.5 116.65 410.7 118.9 412.95 121.2 415.25 124.4 415.25 127.6 415.25 129.85 412.95 132.15 410.7 132.15 407.5 132.15 404.3 129.85 402 Z"/>
</g>

<g id="anims_pony_jump_anim_clean_lines_10_Layer0_3_FILL">
<path fill="#000000" stroke="none" d="
M 125.6 403.75
Q 124.1 402.2 121.9 402.2 119.7 402.2 118.2 403.75 116.65 405.3 116.65 407.5 116.65 409.7 118.2 411.2 119.75 412.75 121.9 412.75 124.1 412.75 125.6 411.2 127.15 409.7 127.15 407.5 127.15 405.3 125.6 403.75 Z"/>
</g>

<g id="anims_pony_jump_anim_clean_lines_10_Layer0_4_FILL">
<path fill="#FFFFFF" stroke="none" d="
M 124 405.15
Q 123.45 404.6 122.65 404.6 121.9 404.6 121.35 405.15 120.8 405.7 120.8 406.5 120.8 407.25 121.35 407.8 121.9 408.35 122.65 408.35 123.45 408.35 124 407.8 124.55 407.25 124.55 406.5 124.55 405.7 124 405.15 Z"/>
</g>

<g id="pony_mane4_0_Layer0_0_MEMBER_0_FILL">
<path fill="url(#Gradient_18)" stroke="none" d="
M 214.2 412.75
Q 212.95 410.35 213.3 414.85 213.6 419.15 214.65 422.75 216.3 428.35 216.75 429.7 218.05 433.55 219 434.9 220.05 436.4 222.8 436.35 225.45 436.3 227.75 434.9 229.65 433.75 229.75 430.5
L 229.5 427.45
Q 228.65 430.05 226.75 430.65 223.9 431.6 220.4 426.45 219 424.35 216.5 418.4 214.25 412.85 214.2 412.75 Z"/>
</g>

<g id="pony_mane4_0_Layer0_0_MEMBER_1_FILL">
<path fill="url(#Gradient_19)" stroke="none" d="
M 212.6 412.75
Q 212 411.55 211.45 410.55 210.25 408.6 210.3 409.8 210.3 410.65 211.1 414.5 212.15 419.6 212.75 423.5 213.75 430.05 215.6 434.5 217.85 439.95 220.9 440.95 224.3 442.05 227.6 439.9
L 230.2 437.5
Q 226.95 439.3 221.25 432.6 219.15 430.05 215.65 421.15
L 212.6 412.75 Z"/>
</g>

<g id="pony_mane4_0_Layer0_0_MEMBER_2_FILL">
<path fill="url(#Gradient_20)" stroke="none" d="
M 214.75 435.65
Q 218.1 439.55 222.35 438.15 221.65 437.85 220.7 437.2 218.9 435.9 218 434.1 212.75 423.8 211.8 414.8 211.15 412.9 209.95 412.95 209.15 413 209.7 419.2 210.25 425.15 211.15 428.5 212.3 432.8 214.75 435.65 Z"/>
</g>

<g id="pony_mane3_0_Layer0_0_MEMBER_0_FILL">
<path fill="url(#Gradient_21)" stroke="none" d="
M 189.9 419
Q 186.3 417.3 183.7 409.25
L 181.85 401.55
Q 181.7 400.15 181.65 400.05 181.3 398.9 180.15 399.05 178.95 399.2 178.6 402.35 178.4 404.2 178.45 408.9 178.45 413.15 179.65 416.45 181.2 420.7 184.4 422.05 187.35 423.35 190.7 422.3 192.4 421.8 193.45 421 192.85 420.4 189.9 419 Z"/>
</g>

<g id="pony_mane3_0_Layer0_0_MEMBER_1_FILL">
<path fill="url(#Gradient_22)" stroke="none" d="
M 176.85 398.65
Q 175.05 399.9 175.85 406.5 176 407.65 176.85 411.65 177.9 417.05 178.7 419.55 179.7 422.7 182.5 425.2 185.5 427.85 188.2 427.4 190.55 427.05 192.1 426
L 193.15 425
Q 192.3 425.35 191.1 425.25 188.7 425.05 187.15 422.85 185.5 420.6 182.5 411.3 180.25 404.2 179.3 400.3 179.05 399.25 178.3 398.75 177.55 398.2 176.85 398.65 Z"/>
</g>

<g id="pony_mane3_0_Layer0_0_MEMBER_2_FILL">
<path fill="url(#Gradient_23)" stroke="none" d="
M 186.4 411.9
Q 184.55 409.75 183 405.45
L 181.85 401.55
Q 180.4 397.95 179.25 400.15 178.2 402.15 178.45 405.3 178.9 410.25 179.35 411.65 180.75 415.7 184.75 416.95 188.65 418.2 191 417.15 192.15 416.6 192.55 415.8 191.35 416.05 190 415.25 188.5 414.35 186.4 411.9 Z"/>
</g>

<g id="pony_mane2_0_Layer0_0_MEMBER_0_FILL">
<path fill="url(#Gradient_24)" stroke="none" d="
M 132.1 380.25
Q 135.2 381.8 136.55 383.1 138.35 384.75 138.6 387.75
L 150.85 396.55 149.55 390.45
Q 146.2 382.7 140.7 380.75 137.15 379.5 132.1 380.25 Z"/>
</g>

<g id="pony_mane2_0_Layer0_0_MEMBER_1_FILL">
<path fill="url(#Gradient_25)" stroke="none" d="
M 136 382.65
L 136.55 383.1
Q 137.85 384.3 138.35 386.4 140.7 387.55 142.7 389.1 144.8 390.8 145.75 392.4 147.25 395 149.35 396.15 151.35 397.2 152.9 396.55 154.55 395.8 155.4 394.1 156.35 392.15 155.3 390.35
L 154.05 391.95
Q 152.6 393.35 151.3 392.4 148.85 389.25 146.35 387 141.65 382.6 136 382.65 Z"/>
</g>

<g id="pony_mane2_0_Layer0_0_MEMBER_2_FILL">
<path fill="url(#Gradient_26)" stroke="none" d="
M 138.6 387.55
Q 140.95 388.55 142.55 391.4 143.95 393.85 144.45 396.85 145.3 401.65 145.75 402.65 146.8 405.25 149.65 405.95 152.35 406.6 155.65 405.1 157.3 404.35 158.4 403.45 156.85 403.2 154.45 401.45
L 152.35 399.75
Q 153.9 400.25 154.8 399.25
L 155.4 398.15
Q 154.45 399.1 151.95 396.65 149.55 394.35 146.3 389.5 142.8 384.25 137.55 384.35 138.1 385.25 138.45 386.7
L 138.6 387.55 Z"/>
</g>

<g id="pony_mane2_0_Layer0_0_MEMBER_3_FILL">
<path fill="url(#Gradient_27)" stroke="none" d="
M 138.4 386.55
Q 138.85 388.4 138.65 390.3 141.45 391.95 141.65 397.7 141.75 401.4 142.55 403.7 143.75 407.1 146.65 408.35 149.35 409.55 153.25 408.15 155.25 407.45 156.65 406.5 151.3 406.6 148.25 400.45 145.65 393.1 144.25 390.7 142.1 387.05 138.4 386.55 Z"/>
</g>

<g id="pony_mane1_0_Layer0_0_MEMBER_0_FILL">
<path fill="url(#Gradient_28)" stroke="none" d="
M 127.8 389.95
Q 126.25 388.75 125.25 387 123.6 388 123.05 390 122.65 391.55 121.95 394.75 120.95 397.35 117.8 398.35
L 119.75 398.25
Q 121.95 397.8 123.05 396.1 124.3 394.05 125.05 392.9 126.4 390.9 127.8 389.95 Z"/>
</g>

<g id="pony_mane1_0_Layer0_0_MEMBER_1_FILL">
<path fill="url(#Gradient_29)" stroke="none" d="
M 118.1 392.95
Q 116.75 394.6 115.45 395.5 111.55 398.3 105.75 396.2
L 107.55 398.3
Q 110.05 400.2 113.4 399.05 116.65 397.95 119 395.4 121 392.8 121.9 392.1 123.65 390.8 127 389.15 126.05 388.2 125.5 387.25 121.9 388.45 119.9 390.65 119.4 391.2 118.1 392.95 Z"/>
</g>

<g id="pony_mane1_0_Layer0_0_MEMBER_2_FILL">
<path fill="url(#Gradient_30)" stroke="none" d="
M 107.35 393.6
L 107.35 393.8 109.2 396.05
Q 111.5 398.15 113.75 397.25 115.6 396.55 118.7 393.45 121.65 390.45 123.05 390
L 126.8 388.95
Q 125 387.15 124.3 384.4
L 124.25 384.35
Q 121.7 384.65 119.4 386.8 111.95 394 107.35 389.7
L 107.75 391.55
Q 108.4 393.55 109.9 394.3 108.95 394.35 107.35 393.6 Z"/>
</g>

<g id="pony_mane1_0_Layer0_0_MEMBER_3_FILL">
<path fill="url(#Gradient_31)" stroke="none" d="
M 115.1 392.4
Q 116.85 392.05 119.9 389.85 124.75 386.3 124.85 386.25 124.5 385.55 124.15 384.4 123.7 382.8 123.9 380.75 120.9 381.4 117.6 383.95 114.2 386.5 113 386.8 110.65 387.45 108.55 385.5
L 106.9 383.45
Q 106.8 387.5 109.4 390.3 112 393 115.1 392.4 Z"/>
</g>

<g id="anims_pony_jump_anim_clean_lines_10_Layer0_13_FILL">
<path fill="#B9533A" stroke="none" d="
M 133.8 388.9
Q 133.1 385.05 129.4 383.25 127.15 382.2 126 379.3
L 125.3 376.65 124.9 377.4
Q 123.25 380.95 124.15 384.4 125.85 390.7 133.25 392.3
L 133.7 392.4
Q 134.1 390.85 133.8 388.9 Z"/>
</g>

<path id="anims_pony_jump_anim_clean_lines_10_Layer6_0_1_STROKES" stroke="#000000" stroke-width="1.5" stroke-linejoin="round" stroke-linecap="round" fill="none" d="
M 67 94.5
Q 61.2345703125 94.372265625 55.95 91.85 56.2 89.55 56.65 86.45 57.7 80.25 59.15 76.8 60.4 73.65 65.45 71 70.25 68.3 70.55 67.35
L 72.15 62"/>

<path id="anims_pony_jump_anim_clean_lines_10_Layer5_0_1_STROKES" stroke="#000000" stroke-width="1.5" stroke-linejoin="round" stroke-linecap="round" fill="none" d="
M 33.375 68
Q 33.4400390625 66.8833984375 33.6 66.35 34.25 64.35 36.7 64.45 36.8505859375 64.4564453125 37 64.45
M 36.9 51.4
Q 36.25 51.75 32.95 52.95 29.45 54.35 26.75 56 18.35 60.85 16.75 67.95 14.65 77.2 15.5 82
L 20.65 84.1
Q 23.3205078125 84.7939453125 26 84.925"/>

<path id="anims_pony_jump_anim_clean_lines_10_Layer4_0_1_STROKES" stroke="#000000" stroke-width="1.5" stroke-linejoin="round" stroke-linecap="round" fill="none" d="
M 36.525 26.5
L 41.475 34.5"/>

<path id="anims_pony_jump_anim_clean_lines_10_Layer3_0_1_STROKES" stroke="#000000" stroke-width="1.5" stroke-linejoin="round" stroke-linecap="round" fill="none" d="
M 65.8 34.9
Q 67.95 34.9 71.8 34.1 75.85 33.25 77.55 33.2 79.4 33.121875 81.25 33.825
M 75.25 60.45
Q 70.5130859375 63.0669921875 63.9 63.35 58.7982421875 63.5818359375 52.75 62.275
M 41.25 57.375
Q 41.1478515625 57.293359375 41.05 57.2 36.65 53.1 37.25 45 37.9 36.55 43.8 33.15"/>

<path id="anims_pony_jump_anim_clean_lines_10_Layer2_0_1_STROKES" stroke="#000000" stroke-width="1.5" stroke-linejoin="round" stroke-linecap="round" fill="none" d="
M 80.61316680908203 33.27041473388671
Q 85.71003799438476 34.5883903503418 88.66509552001953 39.08421783447265 91.3697624206543 43.23039474487304 90.85034790039063 47.226443481445315 90.46830520629884 49.73738632202148 87.76912231445313 53.46448974609375 85.21419067382813 56.923886108398435 85.2175910949707 58.61555099487303 85.22331085205079 59.9910385131836 87.57252883911133 65.17804946899413 89.75098037719727 69.93694534301757 89.29163284301758 72.21017532348633 88.89691238403321 74.29416275024415 85.8422019958496 81.22803115844727 83.79833145141602 88.29579238891601 87.33379440307617 93.41245651245116 85.26820449829101 94.82017898559569 81.75098190307618 95.83781967163084 74.73153381347656 97.98387908935548 67.59798583984374 96.28733978271482 67.31536026000975 93.86637954711914 67.14931106567381 90.6399787902832 66.86452331542968 84.20333404541016 67.52471008300782 80.4138442993164 68.11911010742188 76.97168579101563 72.47880401611329 73.17771453857422 76.64809570312501 69.47720489501953 76.68736724853517 68.43405151367188
L 77.2449722290039 61.38700714111329
Q 75.16678314208984 60.20184326171875 73.2709571838379 57.86390762329101 69.47930526733398 53.18803634643555 70.29533996582032 47.549952697753895"/>

<path id="anims_pony_jump_anim_clean_lines_10_Layer1_0_1_STROKES" stroke="#000000" stroke-width="1.5" stroke-linejoin="round" stroke-linecap="round" fill="none" d="
M 41.64274597167969 49.46705627441406
L 41.80192184448242 53.77616500854492
Q 41.69457092285157 58.55268859863281 40.44032363891601 61.051935577392584 39.79605102539063 62.42527160644532 33.71547775268555 68.0886619567871 27.758845520019534 74.67707672119141 26.8465202331543 81.2585838317871 25.519688415527348 90.1026840209961 26.944836425781254 94.73857727050782
L 32.334525299072276 96.24218215942383
Q 38.9941146850586 97.3165786743164 45.323038482666014 95.31899185180664 44.52011871337891 89.10496368408204 44.01116409301758 82.22558059692383 43.79464874267578 79.42159881591797 44.42080535888673 77.08747100830078 44.89458541870118 75.48875961303712 46.37959594726563 72.41626892089845 48.88809051513671 67.4177749633789 51.20991058349609 63.402122497558594
L 53.08392333984375 60.43398742675781"/>

<path id="anims_pony_jump_anim_clean_lines_10_Layer0_0_1_STROKES" stroke="#000000" stroke-width="1.5" stroke-linejoin="round" stroke-linecap="round" fill="none" d="
M 34.560303497314436 -19.16046524047846
Q 30.68118209838869 -18.890247344970703 27.23596801757813 -16.723159790039062 26.340165710449213 -16.152442932128906 22.104414367675787 -12.707112121581986 19.43455810546874 -10.521327209472588 17.26059036254881 -6.472588348388626 16.107534027099604 -4.311389923095703 14.425897979736305 -1.0555595397948423 13.781538391113287 -0.0989227294921875 9.441707611083984 3.5241691589355355 5.653857421874989 6.684141540527378 5.376720428466797 8.164693450927757 4.928858184814459 10.584331512451172 4.947633361816401 14.07753295898442 4.989809417724615 18.2022468566895 5.837702178955084 19.751776885986374 6.787342071533203 21.487250518798817 10.07827377319336 24.116155242919945 13.33528976440428 26.683078765869197 15.28714370727539 27.306369781494197 17.71848220825197 28.069988250732422 20.652667236328114 27.471166992187534 24.260462951660145 26.70509948730472 26.137410736084007 24.026982879638638
L 30.176781463623044 25.521489715576195
Q 34.821931457519526 26.724787902832077 38.02040634155273 25.57865066528325"/>

<path id="anims_pony_jump_anim_clean_lines_10_Layer0_1_1_STROKES" stroke="#000000" stroke-width="1.5" stroke-linejoin="round" stroke-linecap="round" fill="none" d="
M 50.096070098876964 10.997499847412087
Q 51.534368133544916 2.881363677978527 51.491006469726585 -2.128637695312534 51.49903335571287 -10.871582794189408 47.81981048583984 -15.019619750976517"/>

<path id="anims_pony_jump_anim_clean_lines_10_Layer0_5_1_STROKES" stroke="#000000" stroke-width="1.5" stroke-linejoin="round" stroke-linecap="round" fill="none" d="
M 20.746872711181652 -1.1316902160644418
Q 19.848777008056658 1.9370109558105355 21.3749839782715 4.7261650085449105 22.935106658935553 7.577300262451217 26.00380783081056 8.475395965576183 29.072509002685536 9.373491668701206 31.875695800781244 7.799336242675793 34.71279830932619 6.287162017822254 35.61089401245118 3.218460845947277 36.50898971557618 0.14975967407229973 34.9488670349121 -2.7013755798339503 33.422660064697254 -5.490529632568325 30.353958892822277 -6.388625335693348 27.28525772094727 -7.286721038818314 24.448155212402355 -5.774546813964832 21.644968414306646 -4.200391387939419 20.746872711181652 -1.1316902160644418 Z"/>

<path id="anims_pony_jump_anim_clean_lines_10_Layer0_6_1_STROKES" stroke="#000000" stroke-width="1.5" stroke-linejoin="round" stroke-linecap="round" fill="none" d="
M 39.832612609863276 -0.17892150878901703
Q 37.50187454223631 0.4923957824707941 35.63651046752928 -2.916570281982331 33.906809234619146 -6.077611541748013 30.550417327880865 -7.0599037170409815 26.666592407226545 -8.196556091308537 23.337158203125 -5.891473388671898"/>

<path id="anims_pony_jump_anim_clean_lines_10_Layer0_7_1_STROKES" stroke="#000000" stroke-width="1.5" stroke-linejoin="round" stroke-linecap="round" fill="none" d="
M 12.143575286865229 25.241146087646484
Q 17.39446563720702 24.018955993652412 19.256233978271496 22.63777999877931 20.45609207153319 21.7396064758301 21.321457672119152 19.494211578369118
L 21.97281417846679 17.446460723876953"/>

<path id="anims_pony_jump_anim_clean_lines_10_Layer0_8_1_STROKES" stroke="#000000" stroke-width="1.5" stroke-linejoin="round" stroke-linecap="round" fill="none" d="
M 8.489891052246094 10.689518737793037
Q 8.802129364013666 10.156235504150402 9.38217544555664 9.597219085693382 10.514202117919922 8.575083160400368 11.755011749267567 8.782056427001976 13.187615203857433 9.045160675048805 13.189986419677723 10.815735626220771 13.26837158203125 12.50444641113279 11.951586914062489 14.513616943359409 10.752914428710938 16.2970779418946 9.613851928710915 16.276048278808673 8.728564453124989 16.277233886718818 8.056100463867182 15.195487976074219"/>

<path id="anims_pony_jump_anim_clean_lines_10_Layer0_14_1_STROKES" stroke="#000000" stroke-width="1.5" stroke-linejoin="round" stroke-linecap="round" fill="none" d="
M 45.60026550292969 -9.214338684082009
Q 46.4808494567871 -10.622394561767578 47.04215927124022 -12.540332794189453 48.16477890014647 -16.376209259033203 46.67833786010743 -18.94550399780269 46.135686492919916 -19.93720321655269 41.76530227661134 -24.39162826538086 38.840407562255876 -27.381905364990246 39.52801208496095 -29.73137969970702
L 37.03006668090819 -27.59939346313473
Q 34.52745666503907 -24.73999786376953 34.42226943969729 -21.178964996337925 34.31012420654298 -14.392538452148415 41.33518524169921 -10.826957702636719"/>
</defs>

<g transform="matrix( 2, 0, 0, 1.9998779296875, 55.6,72.4) ">
<g transform="matrix( 1, 0, 0, 1, 0.05,-3) ">
<g transform="matrix( 0.99859619140625, -0.0385284423828125, 0.0385284423828125, 0.99859619140625, -83.8,-231.6) ">
<use xlink:href="#anims_pony_jump_anim_clean_gradients_10_Layer6_0_FILL"/>
</g>

<g transform="matrix( 0.9989013671875, -0.0439300537109375, 0.0439300537109375, 0.9989013671875, -118.45,-233.35) ">
<use xlink:href="#anims_pony_jump_anim_clean_gradients_10_Layer5_0_FILL"/>
</g>

<g transform="matrix( 0.9462127685546875, 0.3231353759765625, -0.3231353759765625, 0.9462127685546875, 12,-41.9) ">
<use xlink:href="#anims_pony_jump_anim_clean_gradients_10_Layer4_0_FILL"/>
</g>

<g transform="matrix( 0.989654541015625, 0.137176513671875, -0.1371917724609375, 0.9897003173828125, -7.65,-30.8) ">
<use xlink:href="#anims_pony_jump_anim_clean_gradients_10_Layer3_0_FILL"/>
</g>

<g transform="matrix( 1, 0, 0, 1, 42.55,38.7) ">
<g transform="matrix( 1, 0, 0, 1, -150.55,-278.45) ">
<use xlink:href="#pony_circle_gradient_0_Layer0_0_FILL"/>
</g>
</g>

<g transform="matrix( 1, 0, 0, 1, 69.5,36.65) ">
<g transform="matrix( 1, 0, 0, 1, -150.55,-278.45) ">
<use xlink:href="#pony_circle_gradient_0_Layer0_0_FILL"/>
</g>
</g>

<g transform="matrix( 0.9589691162109375, 0.2806549072265625, -0.2806549072265625, 0.9589691162109375, 23.25,-424.65) ">
<use xlink:href="#anims_pony_jump_anim_clean_gradients_10_Layer0_0_FILL"/>
</g>

<g transform="matrix( 0.9589691162109375, 0.2806549072265625, -0.2806549072265625, 0.9589691162109375, 23.25,-424.65) ">
<use xlink:href="#anims_pony_jump_anim_clean_gradients_10_Layer0_1_FILL"/>
</g>

<g transform="matrix( 0.9589691162109375, 0.2806549072265625, -0.2806549072265625, 0.9589691162109375, 23.25,-424.65) ">
<use xlink:href="#anims_pony_jump_anim_clean_gradients_10_Layer0_2_FILL"/>
</g>
</g>

<g transform="matrix( 1, 0, 0, 1, 0.05,-3) ">
<g transform="matrix( 0.79754638671875, -0.715606689453125, 0.1932220458984375, 0.9632568359375, 83.75,34.05) ">
<g transform="matrix( 0.9981536865234375, -0.05743408203125, 0.05743408203125, 0.9981536865234375, 4.95,0.35) ">
<g transform="matrix( 1, 0, 0, 1, -240.45,-232.95) ">
<use xlink:href="#pony_tail_1_Layer0_0_MEMBER_0_FILL"/>
</g>

<g transform="matrix( 1, 0, 0, 1, -240.45,-232.95) ">
<use xlink:href="#pony_tail_1_Layer0_0_MEMBER_1_FILL"/>
</g>
</g>

<g transform="matrix( 0.9990692138671875, 0.0399169921875, -0.0399169921875, 0.9990692138671875, 4.5,6.55) ">
<g transform="matrix( 1, 0, 0, 1, -235.55,-279.65) ">
<use xlink:href="#pony_tail_2_Layer0_0_MEMBER_0_FILL"/>
</g>

<g transform="matrix( 1, 0, 0, 1, -235.55,-279.65) ">
<use xlink:href="#pony_tail_2_Layer0_0_MEMBER_1_FILL"/>
</g>
</g>

<g transform="matrix( 0.9992523193359375, 0.0355072021484375, -0.034149169921875, 0.9610137939453125, 16.35,6.3) ">
<g transform="matrix( 1, 0, 0, 1, -262.4,-279.25) ">
<use xlink:href="#pony_tail_3_Layer0_0_MEMBER_0_FILL"/>
</g>

<g transform="matrix( 1, 0, 0, 1, -262.4,-279.25) ">
<use xlink:href="#pony_tail_3_Layer0_0_MEMBER_1_FILL"/>
</g>
</g>

<g transform="matrix( 0.9993896484375, 0.0348968505859375, -0.0348968505859375, 0.9993896484375, 16.25,14.65) ">
<g transform="matrix( 1, 0, 0, 1, -251.55,-317.3) ">
<use xlink:href="#pony_tail_4_Layer0_0_MEMBER_0_FILL"/>
</g>
</g>

<g transform="matrix( 1, 0, 0, 1, 0,2.5) ">
<g transform="matrix( 1, 0, 0, 1, -202.5,-275.4) ">
<use xlink:href="#pony_tail_0_Layer0_0_MEMBER_0_FILL"/>
</g>

<g transform="matrix( 1, 0, 0, 1, -202.5,-275.4) ">
<use xlink:href="#pony_tail_0_Layer0_0_MEMBER_1_FILL"/>
</g>
</g>
</g>

<g transform="matrix( 1, 0, 0, 1, 0,0) ">
<use xlink:href="#anims_pony_jump_anim_clean_lines_10_Layer6_0_1_STROKES"/>
</g>

<g transform="matrix( 1, 0, 0, 1, 0,0) ">
<use xlink:href="#anims_pony_jump_anim_clean_lines_10_Layer5_0_1_STROKES"/>
</g>

<g transform="matrix( 1, 0, 0, 1, 0,0) ">
<use xlink:href="#anims_pony_jump_anim_clean_lines_10_Layer4_0_1_STROKES"/>
</g>

<g transform="matrix( 1, 0, 0, 1, 0,0) ">
<use xlink:href="#anims_pony_jump_anim_clean_lines_10_Layer3_0_1_STROKES"/>
</g>

<g transform="matrix( 0.9462127685546875, 0.3231353759765625, -0.3231353759765625, 0.9462127685546875, 11.95,-41.95) ">
<use xlink:href="#anims_pony_jump_anim_clean_lines_10_Layer2_0_1_STROKES" transform="matrix( 0.9464569091796875, -0.323211669921875, 0.323211669921875, 0.9464569091796875, 2.2,43.55) "/>
</g>

<g transform="matrix( 0.989654541015625, 0.137176513671875, -0.1371917724609375, 0.9897003173828125, -7.65,-30.8) ">
<use xlink:href="#anims_pony_jump_anim_clean_lines_10_Layer1_0_1_STROKES" transform="matrix( 0.99139404296875, -0.1374053955078125, 0.137420654296875, 0.9913482666015625, 11.8,29.45) "/>
</g>

<g transform="matrix( 0.9589691162109375, 0.2806549072265625, -0.2806549072265625, 0.9589691162109375, 23.25,-424.65) ">
<use xlink:href="#anims_pony_jump_anim_clean_lines_10_Layer0_0_1_STROKES" transform="matrix( 0.96051025390625, -0.281097412109375, 0.281097412109375, 0.96051025390625, 97,414.4) "/>
</g>

<g transform="matrix( 0.9589691162109375, 0.2806549072265625, -0.2806549072265625, 0.9589691162109375, 23.25,-424.65) ">
<use xlink:href="#anims_pony_jump_anim_clean_lines_10_Layer0_1_1_STROKES" transform="matrix( 0.96051025390625, -0.281097412109375, 0.281097412109375, 0.96051025390625, 97,414.4) "/>
</g>

<g transform="matrix( 0.9589691162109375, 0.2806549072265625, -0.2806549072265625, 0.9589691162109375, 23.25,-424.65) ">
<use xlink:href="#anims_pony_jump_anim_clean_lines_10_Layer0_2_FILL"/>
</g>

<g transform="matrix( 0.9589691162109375, 0.2806549072265625, -0.2806549072265625, 0.9589691162109375, 23.25,-424.65) ">
<use xlink:href="#anims_pony_jump_anim_clean_lines_10_Layer0_3_FILL"/>
</g>

<g transform="matrix( 0.9589691162109375, 0.2806549072265625, -0.2806549072265625, 0.9589691162109375, 23.25,-424.65) ">
<use xlink:href="#anims_pony_jump_anim_clean_lines_10_Layer0_4_FILL"/>
</g>

<g transform="matrix( 0.9589691162109375, 0.2806549072265625, -0.2806549072265625, 0.9589691162109375, 23.25,-424.65) ">
<use xlink:href="#anims_pony_jump_anim_clean_lines_10_Layer0_5_1_STROKES" transform="matrix( 0.96051025390625, -0.281097412109375, 0.281097412109375, 0.96051025390625, 97,414.4) "/>
</g>

<g transform="matrix( 0.9589691162109375, 0.2806549072265625, -0.2806549072265625, 0.9589691162109375, 23.25,-424.65) ">
<use xlink:href="#anims_pony_jump_anim_clean_lines_10_Layer0_6_1_STROKES" transform="matrix( 0.96051025390625, -0.281097412109375, 0.281097412109375, 0.96051025390625, 97,414.4) "/>
</g>

<g transform="matrix( 0.9589691162109375, 0.2806549072265625, -0.2806549072265625, 0.9589691162109375, 23.25,-424.65) ">
<use xlink:href="#anims_pony_jump_anim_clean_lines_10_Layer0_7_1_STROKES" transform="matrix( 0.96051025390625, -0.281097412109375, 0.281097412109375, 0.96051025390625, 97,414.4) "/>
</g>

<g transform="matrix( 0.9589691162109375, 0.2806549072265625, -0.2806549072265625, 0.9589691162109375, 23.25,-424.65) ">
<use xlink:href="#anims_pony_jump_anim_clean_lines_10_Layer0_8_1_STROKES" transform="matrix( 0.96051025390625, -0.281097412109375, 0.281097412109375, 0.96051025390625, 97,414.4) "/>
</g>

<g transform="matrix( 0.9441680908203125, -0.3120880126953125, 0.3242034912109375, 0.98089599609375, 48.1,9.9) ">
<g transform="matrix( 1, 0, 0, 1, -209.5,-409.35) ">
<use xlink:href="#pony_mane4_0_Layer0_0_MEMBER_0_FILL"/>
</g>

<g transform="matrix( 1, 0, 0, 1, -209.5,-409.35) ">
<use xlink:href="#pony_mane4_0_Layer0_0_MEMBER_1_FILL"/>
</g>

<g transform="matrix( 1, 0, 0, 1, -209.5,-409.35) ">
<use xlink:href="#pony_mane4_0_Layer0_0_MEMBER_2_FILL"/>
</g>
</g>

<g transform="matrix( 0.9944305419921875, -0.064605712890625, 0.0698699951171875, 1.07574462890625, 46.7,0.75) ">
<g transform="matrix( 1, 0, 0, 1, -175.6,-398.45) ">
<use xlink:href="#pony_mane3_0_Layer0_0_MEMBER_0_FILL"/>
</g>

<g transform="matrix( 1, 0, 0, 1, -175.6,-398.45) ">
<use xlink:href="#pony_mane3_0_Layer0_0_MEMBER_1_FILL"/>
</g>

<g transform="matrix( 1, 0, 0, 1, -175.6,-398.45) ">
<use xlink:href="#pony_mane3_0_Layer0_0_MEMBER_2_FILL"/>
</g>
</g>

<g transform="matrix( 0.9494171142578125, 0.31072998046875, -0.311920166015625, 0.9971923828125, 42.8,-22.9) ">
<g transform="matrix( 1, 0, 0, 1, -132.1,-379.95) ">
<use xlink:href="#pony_mane2_0_Layer0_0_MEMBER_0_FILL"/>
</g>

<g transform="matrix( 1, 0, 0, 1, -132.1,-379.95) ">
<use xlink:href="#pony_mane2_0_Layer0_0_MEMBER_1_FILL"/>
</g>

<g transform="matrix( 1, 0, 0, 1, -132.1,-379.95) ">
<use xlink:href="#pony_mane2_0_Layer0_0_MEMBER_2_FILL"/>
</g>

<g transform="matrix( 1, 0, 0, 1, -132.1,-379.95) ">
<use xlink:href="#pony_mane2_0_Layer0_0_MEMBER_3_FILL"/>
</g>
</g>

<g transform="matrix( 0.9659423828125, 0.25518798828125, -0.262908935546875, 0.9951019287109375, 17.15,-30.5) ">
<g transform="matrix( 1, 0, 0, 1, -105.75,-380.75) ">
<use xlink:href="#pony_mane1_0_Layer0_0_MEMBER_0_FILL"/>
</g>

<g transform="matrix( 1, 0, 0, 1, -105.75,-380.75) ">
<use xlink:href="#pony_mane1_0_Layer0_0_MEMBER_1_FILL"/>
</g>

<g transform="matrix( 1, 0, 0, 1, -105.75,-380.75) ">
<use xlink:href="#pony_mane1_0_Layer0_0_MEMBER_2_FILL"/>
</g>

<g transform="matrix( 1, 0, 0, 1, -105.75,-380.75) ">
<use xlink:href="#pony_mane1_0_Layer0_0_MEMBER_3_FILL"/>
</g>
</g>

<g transform="matrix( 0.9589691162109375, 0.2806549072265625, -0.2806549072265625, 0.9589691162109375, 23.25,-424.65) ">
<use xlink:href="#anims_pony_jump_anim_clean_lines_10_Layer0_13_FILL"/>
</g>

<g transform="matrix( 0.9589691162109375, 0.2806549072265625, -0.2806549072265625, 0.9589691162109375, 23.25,-424.65) ">
<use xlink:href="#anims_pony_jump_anim_clean_lines_10_Layer0_14_1_STROKES" transform="matrix( 0.96051025390625, -0.281097412109375, 0.281097412109375, 0.96051025390625, 97,414.4) "/>
</g>
</g>
</g>
</svg>
