
<svg xmlns="http://www.w3.org/2000/svg" version="1.1" xmlns:xlink="http://www.w3.org/1999/xlink" preserveAspectRatio="none" x="0px" y="0px" width="268px" height="285px" viewBox="0 0 268 285">
<defs>
<filter id="Filter_1" x="-20%" y="-20%" width="140%" height="140%" color-interpolation-filters="sRGB">
<feColorMatrix in="SourceGraphic" type="matrix" values="0 0 0 0 1 0 0 0 0 0 0 0 0 0 0.4 0 0 0 1 0" result="result1"/>
</filter>

<g id="anims_pony_walk_anim_clean_flats_1_Layer0_0_FILL">
<path fill="#FFFFFF" stroke="none" d="
M 43.65 39.05
Q 43.71953125 37.63671875 43.55 36.15 42.4 25.75 40.15 20.1 37.6998046875 13.8802734375 33.65 11.55 33.1587890625 9.5978515625 31.85 8.35 31 7.55 25.65 4.5 21.95 2.45 21.95 0
L 20.15 2.75
Q 18.55 6.2 19.45 9.65 19.7220703125 10.6599609375 20.1 11.55 17.730859375 12.462890625 15.85 14 13.95 15.55 10 21.25 8.05 24.05 7.1 28.6 6.6 31 5.9 34.6 5.55 35.7 2.4 40.4 -0.35 44.5 -0.2 46 0.1 48.5 1.05 51.8 2.25 55.75 3.5 57 4.95 58.4 8.8 60 12.7 61.55 14.75 61.6 17.3 61.65 19.95 60.25 23.2 58.5 24.2 55.4
L 28.35 55.7 30.15 60.7
Q 31.2685546875 63.831640625 32.05 66 26.2916015625 69.4451171875 25.55 77.75 24.9 85.85 29.25 90.05 29.6544921875 90.4419921875 30.1 90.8 29.8673828125 92.56953125 29.25 93.65 28.2 95.5 24.6 100.3 21.6197265625 105.189453125 20.85 111.25 20.7947265625 111.696875 20.75 112.15 20 119.8 21.45 125.65 23.6 126.45 26.95 126.45 28.29375 126.45 29.6 126.3 28.4255859375 133.838671875 28.85 138.8
L 34.2 140.05
Q 40.9 140.8 47.35 138.35
L 47.65 115.6
Q 47.65 115.5712890625 47.65 111.25 47.65 108.0515625 47.65 102.5 47.65 98.854296875 47.75 96.3 50.011328125 96.4751953125 52.1 96.4 55.4623046875 96.29140625 58.35 95.55 58.44375 95.709375 58.55 95.85 60.2 98 61.9 99
L 61.55 101.7
Q 61.25 104.7 61.4 106.35 61.55 108.1 60.3 110.85 60.22265625 111.022265625 60.1 111.25 59.2994140625 112.9359375 56.7 117.65 54.75 121.2 53 128.05 52.1 131.5 51.6 134.2 57.85 137.05 65.3 136.15 69 135.7 71.5 134.75 71.3017578125 134.0806640625 71.15 133.35 77.04453125 132.95625 82.35 130.1 83.2357421875 129.6658203125 84.1 129.15 87.3 127.3 89.1 125.4 87.65 124.15 86.6 122.45 86.2533203125 122.3625 85.9 122.25 84.1431640625 118.7802734375 84.5 113.85 84.7728515625 112.458984375 85 111.25 86 105.808984375 86 104.05 86 101.7 82.9 97.5 79.55 92.95 79.25 91.55 78.85 89.9 80.7 85.8 82.55 81.45 82.4 78.9 82.1 74.8 78.6 71.35 75.2990234375 68.13359375 71.05 67.65 68.508203125 66.2419921875 65.95 66.35 60.5 67.25 57.7 67.65 55.7380859375 67.9546875 54 67.9 53.7322265625 66.8919921875 53.2 65.65 52.1 62.95 48.05 51.05
L 44.2 39.7
Q 43.97109375 39.3626953125 43.65 39.05
M 72 96.3
L 72.15 97.4
Q 71.86640625 96.75078125 71.7 96.2 71.8486328125 96.2572265625 72 96.3 Z"/>
</g>
</defs>

<g transform="matrix( 2, 0, 0, 1.9998779296875, 9.9,2.9) ">
<g transform="matrix( 1, 0, 0, 1, 0.2,0) ">
<g transform="matrix( 1, 0, 0, 1, 0,0) ">
<use filter="url(#Filter_1)" xlink:href="#anims_pony_walk_anim_clean_flats_1_Layer0_0_FILL"/>
</g>
</g>
</g>
</svg>
