
<svg xmlns="http://www.w3.org/2000/svg" version="1.1" xmlns:xlink="http://www.w3.org/1999/xlink" preserveAspectRatio="none" x="0px" y="0px" width="330px" height="358px" viewBox="0 0 330 358">
<defs>
<filter id="Filter_1" x="-20%" y="-20%" width="140%" height="140%" color-interpolation-filters="sRGB">
<feColorMatrix in="SourceGraphic" type="matrix" values="0 0 0 0 1 0 0 0 0 0 0 0 0 0 0.4 0 0 0 1 0" result="result1"/>
</filter>

<g id="anims_pony_jump_anim_clean_flats_12_Layer0_0_FILL">
<path fill="#FFFFFF" stroke="none" d="
M 16.05 -7.65
Q 14.95 -5.45 13.4 -2.15 12.75 -1.15 8.5 2.55 4.85 5.85 4.6 7.35 4.3 9.8 4.35 13.25 4.5 17.35 5.4 18.95 6.45 20.65 9.8 23.15 13.15 25.65 15.15 26.2 17.6 26.9 20.55 26.2 24.1 25.3 25.85 22.55
L 29.95 23.9
Q 33.391796875 24.7142578125 36 24.25
L 40.4 31.85
Q 40.925 32.75390625 41.4 33.55 37.4779296875 37.2810546875 37.15 44.25 37.0482421875 46.98203125 37.5 49.25 37.426953125 49.2748046875 37.35 49.3 36.65 49.6 33.25 50.55 29.8 51.65 26.9 53.05 18.15 57.3 15.55 64.45 12.35 73.9 12.6 79.05
L 17.25 81.7
Q 21.241796875 83.2634765625 25.4 83.35 24.755078125 89.2724609375 25.7 92.75
L 31 94.5
Q 37.65 95.8 44 94 43.45 87.7 43.15 80.9 43.05 78.4 43.75 76 44.4 73.9 45.85 71.05 48.6 66.1 51 62.2
L 52 60.7
Q 52.1673828125 60.724609375 52.3 60.75 58.95 62.05 64.45 61.65 68.243359375 61.345703125 71.35 60.3
L 69.05 66.15
Q 68.7 67.15 63.6 69.45 58.35 71.85 56.8 75 55 78.4 53.4 84.55 52.65 87.7 52.2 90.05 58.55 93.8 65.8 93.8 65.9705078125 93.80234375 66.15 93.8 66.1439453125 93.8767578125 66.15 93.95 73.2 95.9 80.3 94.1 83.85 93.25 85.9 91.95 82.55 86.65 84.95 79.65 88.25 72.8 88.7 70.7 89.3 68.45 87.3 63.6 85.15 58.35 85.15 57 85.25 55.3 87.95 51.9 90.9 48.3 91.3 45.8 91.95 41.85 89.45 37.65 86.6 32.95 81.6 31.5
L 81.4 31.7
Q 79.182421875 30.815625 77 31 71.65 32.15 68.85 32.65 66.4091796875 33.14765625 64.35 33.1 64.160546875 32.8091796875 63.95 32.5 62.35 30.05 56.25 19.05
L 50.35 8.6
Q 49.9828125 8.2328125 49.5 7.95 50.86875 -1.7861328125 50.1 -7.6 49.31328125 -14.2392578125 46 -17.5 45.9966796875 -19.523046875 45.05 -21.05 44.4 -22.05 40 -26.3 36.95 -29.25 37.55 -31.6
L 35.1 -29.4
Q 32.75 -26.45 32.75 -22.9 32.7560546875 -21.856640625 32.9 -20.9 30.3626953125 -20.6150390625 28.15 -19.6 25.95 -18.55 20.65 -14.05 18.05 -11.85 16.05 -7.65
M 37.2 62.9
Q 35.66640625 64.35546875 33.4 66.35 32.3314453125 67.4443359375 31.4 68.55 31.7564453125 65.4345703125 32.15 64.5 33.05 62.45 35.45 62.8 36.333203125 62.9275390625 37.2 62.9 Z"/>
</g>
</defs>

<g transform="matrix( 2, 0, 0, 1.9998779296875, 55.6,72.4) ">
<g transform="matrix( 1, 0, 0, 1, 0.05,-3) ">
<g transform="matrix( 1, 0, 0, 1, 0,0) ">
<use filter="url(#Filter_1)" xlink:href="#anims_pony_jump_anim_clean_flats_12_Layer0_0_FILL"/>
</g>
</g>
</g>
</svg>
