
<svg xmlns="http://www.w3.org/2000/svg" version="1.1" xmlns:xlink="http://www.w3.org/1999/xlink" preserveAspectRatio="none" x="0px" y="0px" width="330px" height="358px" viewBox="0 0 330 358">
<defs>
<filter id="Filter_1" x="-20%" y="-20%" width="140%" height="140%" color-interpolation-filters="sRGB">
<feColorMatrix in="SourceGraphic" type="matrix" values="0 0 0 0 1 0 0 0 0 0 0 0 0 0 0.4 0 0 0 1 0" result="result1"/>
</filter>

<g id="anims_pony_jump_anim_clean_flats_21_Layer0_0_FILL">
<path fill="#FFFFFF" stroke="none" d="
M 8.2 41.75
Q 7.3455078125 39.9072265625 5.85 38.9 4.85 38.25 -1 36.2 -4.95 34.8 -5.35 32.4
L -6.7 35.4
Q -7.65 39.1 -6.2 42.3 -5.7462890625 43.2685546875 -5.2 44.05 -7.3986328125 45.4052734375 -9 47.25 -10.55 49.1 -13.5 55.4 -14.9 58.5 -15.05 63.15 -15.15 65.6 -15.2 69.3 -15.3 70.4 -17.6 75.6 -19.65 80.1 -19.25 81.55 -18.5 83.95 -17 87 -15.1 90.7 -13.65 91.75 -12 92.85 -7.9 93.75 -3.85 94.65 -1.75 94.35 0.75 93.9 3.1 92.1 6 89.75 6.45 86.55
L 10.75 86.1
Q 14.9673828125 85.202734375 17.3 83.15 17.8666015625 83.4755859375 18.5 83.7
L 26 86.5
Q 25.808203125 88.8673828125 26.25 91.6 27.3322265625 98.2595703125 31.15 101.5 30.83046875 102.8630859375 30.3 103.9 29.4 105.6 21.25 117.2 13.65 129.1 13.85 134.2
L 18.9 135.55
Q 22.3943359375 136.1458984375 26 136.05 25.8861328125 138.0724609375 26.2 139.55
L 31.45 140.6
Q 38.05 141.2 44.65 139.2 44.55 125.3 45.85 117.4 46.7 112.5 48.45 105.8
L 48.8 104.55
Q 52.944921875 104.2298828125 56.5 103.2 56.8328125 103.10390625 57.15 103 56.03125 106.6759765625 52.85 115.8 48.9 129.05 51.05 134.1
L 57.05 134.65
Q 59.3396484375 134.634765625 61.6 134.4 61.89609375 136.07578125 62.25 137.35 69.3 139.4 75.45 137.8 78.5 137 80.2 135.8 78.25 130.4 80.2 123.35 80.3 123.05 81.8 118.2 82.65 115.4 82.7 114.05 82.75 111.35 79.85 106.15 76.85 100.6 76.6 99 76.35 97.1 78.35 92.75 80.45 88.05 80.4 85.15 80.35 80.4 77 76.15 73.4 71.4 68.2 70.75 65.1837890625 69.8900390625 62.6 70.65 57.6 72.85 54.95 73.95 53.3689453125 74.6251953125 51.9 75 50.680078125 74.407421875 48.95 73.85 45.85 72.8 32.75 67.7
L 21.9 63.4
Q 19.063671875 53.9806640625 16 49.05 12.5255859375 43.353125 8.2 41.75 Z"/>
</g>
</defs>

<g transform="matrix( 2, 0, 0, 1.9998779296875, 55.6,72.4) ">
<g transform="matrix( 1, 0, 0, 1, 0.05,-3) ">
<g transform="matrix( 1, 0, 0, 1, 0,0) ">
<use filter="url(#Filter_1)" xlink:href="#anims_pony_jump_anim_clean_flats_21_Layer0_0_FILL"/>
</g>
</g>
</g>
</svg>
