<?xml version="1.0" encoding="UTF-8" standalone="no"?>
<svg
   version="1.1"
   preserveAspectRatio="none"
   x="0px"
   y="0px"
   width="264"
   height="283"
   viewBox="0 0 264 283"
   id="svg106"
   sodipodi:docname="pony_female_walk_bg_0001.svg"
   inkscape:export-filename="pony_female_walk_bg_0001b.svg"
   inkscape:export-xdpi="96"
   inkscape:export-ydpi="96"
   xmlns:inkscape="http://www.inkscape.org/namespaces/inkscape"
   xmlns:sodipodi="http://sodipodi.sourceforge.net/DTD/sodipodi-0.dtd"
   xmlns="http://www.w3.org/2000/svg"
   xmlns:svg="http://www.w3.org/2000/svg">
  <sodipodi:namedview
     id="namedview108"
     pagecolor="#ffffff"
     bordercolor="#000000"
     borderopacity="0.25"
     inkscape:showpageshadow="2"
     inkscape:pageopacity="0.0"
     inkscape:pagecheckerboard="0"
     inkscape:deskcolor="#d1d1d1"
     showgrid="false" />
  <defs
     id="defs52">
    <filter
       id="Filter_1"
       x="0"
       y="0"
       width="1"
       height="1"
       color-interpolation-filters="sRGB">
      <feColorMatrix
         in="SourceGraphic"
         type="matrix"
         values="0 0 0 0 0 0 0 0 0 0.8 0 0 0 0 0.4 0 0 0 1 0"
         result="result1"
         id="feColorMatrix19" />
    </filter>
  </defs>
  <path
     fill="#FFFFFF"
     id="path110"
     d="m -0.8457711,-64.622903 c -0.6906886,0.676308 -1.3221246,1.571655 -1.894683,2.685685 -1.1462801,2.261374 -1.4599246,4.551666 -0.9405528,6.871205 0.1596578,0.687124 0.369627,1.33401 0.6279545,1.941186 -2.1368406,0.731275 -4.0105454,1.82348 -5.613276,3.287767 -1.1687034,0.993152 -2.3337496,2.370263 -3.4958946,4.130778 -0.874702,1.170187 -1.477848,2.199374 -1.809073,3.088356 -1.047504,2.298177 -1.979032,5.567689 -2.794186,9.808491 -0.406414,2.087089 -0.70555,3.961866 -0.896963,5.622865 l -2.929877,2.248876 c -2.005439,2.03125 -3.055077,4.37924 -3.148135,7.044284 -0.08724,2.498477 0.688583,4.660015 2.325897,6.484934 1.18838,1.308938 2.68664,2.3290844 4.495593,3.0593267 l 10.0742818,0.901971 c 4.4755793,-0.177248 7.9273985,-0.6240227 10.3538547,-1.3397779 0.049373,-0.014564 0.094373,-0.030153 0.1432537,-0.044836 L 7.1198241,1.8735455 C 3.20084,3.9887232 0.89266081,7.8122145 0.20046915,13.349748 c -0.6333327,5.366661 0.44992749,9.500061 3.24992465,12.400058 0.2497344,0.25779 0.5208523,0.510311 0.8129328,0.757393 -0.2586561,0.785158 -0.6103334,1.475273 -1.0581633,2.067977 l -5.8982019,6.998089 c -2.6415551,4.010256 -3.8841718,8.552868 -3.7278524,13.628083 0.1780001,5.409508 0.9732929,9.373549 2.3863005,11.891062 l 4.52223368,-0.22222 c -1.22650135,5.925181 -1.52142178,10.397705 -0.87956647,13.407996 l 5.30276769,1.435036 c 0.9611448,0.142525 1.9206101,0.231349 2.8789656,0.272525 3.509377,0.176556 7.000066,-0.324764 10.472055,-1.506663 l -0.151301,-4.258139 c -0.07219,-0.062 -0.144939,-0.12296 -0.217328,-0.184466 -0.285158,-8.824208 -0.165025,-15.906119 0.364869,-21.223196 0.401439,-3.855006 1.092848,-8.383897 2.074988,-13.586125 l 0.542046,-2.706535 c 1.787552,0.248271 3.51444,0.379071 5.174501,0.379071 2.093107,0 4.049881,-0.184486 5.876131,-0.545308 0.02084,0.03056 0.04017,0.06157 0.06128,0.09204 1.015558,1.482282 2.07767,2.581052 3.186694,3.297013 l -0.492588,2.661355 c -0.302974,1.990339 -0.44046,3.539705 -0.412483,4.648883 0.05914,1.171834 -0.376404,2.64923 -1.305885,4.432991 l -3.984448,6.648623 c -1.416261,2.351646 -2.819748,5.781311 -4.211221,10.28866 l -1.713288,6.08199 c 4.064254,2.050494 8.587823,2.870482 13.571864,2.459642 2.4759,-0.221375 4.558158,-0.626002 6.246355,-1.213501 -0.508834,-2.115138 -0.476302,-4.705899 0.08841,-7.764823 0.0813,0.333083 0.160293,0.663033 0.248234,1.006408 l 1.608538,5.509051 c 4.717305,0.100061 9.161024,-0.972119 13.333071,-3.210702 0.33715,-0.172951 0.673136,-0.352199 1.006779,-0.540425 2.141761,-1.159294 3.800687,-2.352359 4.977533,-3.578702 -0.936998,-0.866562 -1.76842,-1.879907 -2.49507,-3.039306 -0.224793,-0.06461 -0.448164,-0.126795 -0.669611,-0.188533 -1.193975,-2.3777 -1.673858,-5.205939 -1.429203,-8.490145 0.977488,-5.068976 1.457519,-8.320307 1.440911,-9.755095 -0.01195,-1.568039 -1.051355,-3.789211 -3.118991,-6.663121 -2.226058,-3.112918 -3.439026,-5.139405 -3.639647,-6.080313 -0.261431,-1.1098 0.204444,-3.011724 1.39916,-5.705004 1.233844,-2.858682 1.797337,-5.14025 1.690096,-6.845031 C 57.107823,13.664206 55.830208,11.101117 53.478619,8.7175962 51.276247,6.4740105 48.748246,5.1488109 45.897168,4.7345329 44.280901,3.8125568 42.648736,3.3498209 41.000118,3.3498209 L 32.700387,4.3499204 C 31.341577,4.5197716 30.078789,4.5705669 28.909464,4.5048425 28.734284,3.7903434 28.480128,3.0005535 28.143175,2.1317816 L 20.054216,-24.116363 c -0.164773,-0.262062 -0.360985,-0.504426 -0.582276,-0.730771 0.08327,-0.854277 0.08637,-1.818765 0.0082,-2.894234 -0.524248,-6.955868 -1.470592,-12.342001 -2.838234,-16.158723 -1.488136,-4.202001 -3.54826,-7.118776 -6.179773,-8.752781 -0.295469,-1.323832 -0.8624453,-2.418047 -1.7049564,-3.279473 -0.5477099,-0.552784 -2.5685406,-1.907316 -6.0620785,-4.063885 -2.41747231,-1.451919 -3.59789848,-2.994334 -3.5409002,-4.626673 z M 44.95644,32.57098 c 0.671638,0.373238 1.340114,0.670941 2.004553,0.884022 l 0.87263,6.547544 C 47.599097,39.443738 47.342967,38.86143 47.044219,38.23553 45.814989,35.631424 45.125446,33.75214 44.95644,32.57098 Z"
     inkscape:export-filename="path110.svg"
     inkscape:export-xdpi="96"
     inkscape:export-ydpi="96"
     inkscape:label="path110"
     style="display:inline;filter:url(#Filter_1)"
     transform="matrix(1.9987793,-0.0697937,0.0697937,1.9986572,57.4,130.6)" />
</svg>
