
<svg xmlns="http://www.w3.org/2000/svg" version="1.1" xmlns:xlink="http://www.w3.org/1999/xlink" preserveAspectRatio="none" x="0px" y="0px" width="268px" height="285px" viewBox="0 0 268 285">
<defs>
<filter id="Filter_1" x="-20%" y="-20%" width="140%" height="140%" color-interpolation-filters="sRGB">
<feColorMatrix in="SourceGraphic" type="matrix" values="0 0 0 0 1 0 0 0 0 0 0 0 0 0 0.4 0 0 0 1 0" result="result1"/>
</filter>

<g id="anims_pony_walk_anim_clean_flats_7_Layer0_0_FILL">
<path fill="#FFFFFF" stroke="none" d="
M 42.8 39.15
Q 42.8177734375 37.925 42.65 36.65 41.35 26.3 38.95 20.7 36.4013671875 14.5015625 32.3 12.25 31.784765625 10.3134765625 30.45 9.1 29.6 8.3 24.2 5.35 20.45 3.35 20.4 0.9
L 18.65 3.7
Q 17.1 7.2 18.1 10.6 18.39140625 11.613671875 18.8 12.5 16.418359375 13.466015625 14.55 15.05 12.7 16.6 8.85 22.4 6.95 25.25 6.1 29.8 5.6 32.2 5 35.8 4.65 36.9 1.65 41.7 -1.05 45.85 -0.85 47.35 -0.5 49.8 0.5 53.1 1.8 57.05 3.05 58.25 4.5 59.65 8.35 61.15 12.3 62.65 14.35 62.65 16.9 62.65 19.5 61.2 22.75 59.4 23.65 56.3
L 28 56.5
Q 28.1076171875 56.4943359375 28.2 56.5
L 30.15 61.3
Q 31.2830078125 64.132421875 32.1 66.15 26.4759765625 69.4880859375 25.65 77.7 24.85 85.75 29.15 90 29.7896484375 90.6294921875 30.6 91.2 30.520703125 92.894140625 30.2 94.2 26.6 104.05 24 112.4 18.9 128.55 20.2 135.1 22.2 136 25.5 136.35 30.9841796875 136.9361328125 36.55 135.35 36.6626953125 135.9203125 36.8 136.5
L 38.5 136.45
Q 40.020703125 136.5982421875 42.05 136.5 48.25 136.2 54.45 133.85 54.1515625 133.0826171875 53.8 132.05 53.9046875 130.6771484375 53.2 129.1 52.9744140625 128.912109375 52.7 128.7 50.792578125 122.30703125 49.6 115.35 49.145703125 112.8263671875 48.95 109.5 48.919921875 108.93671875 48.9 108.35 48.788671875 105.53984375 48.85 102.2 48.8953125 98.8267578125 48.8 96.6 50.416796875 96.69140625 51.95 96.65 56.157421875 96.5599609375 59.6 95.5 59.73359375 95.627734375 59.85 95.75 61.85 98 63.8 99
L 65 106.35
Q 65.2548828125 108.0611328125 65.1 109.65 64.507421875 110.9693359375 63.55 112.7 60.45 118.35 59.4 121.55 58.8046875 123.364453125 58.25 125.4
L 58.1 125.4
Q 56.8439453125 130.0712890625 56.05 134.65 55.8365234375 135.9130859375 55.6 137.2 61.75 138.95 69.1 138 72.75 137.5 75.2 136.7 75.16328125 136.3337890625 75.1 135.95 77.4314453125 135.510546875 79.1 134.85 77.1 129.35 78.35 119.65 80.05 110.1 80.05 108.1 80.05 107.49921875 79.8 106.7 79.962890625 104.2126953125 78 100.15 75.6 95.35 75.6 93.85 75.5 92.15 77.95 87.45 80.5 82.45 80.8 79.8 81.3 75.6 77.85 71.85 74.9587890625 68.68515625 71.05 68 68.6298828125 66.7158203125 66.2 66.75 60.8 67.6 57.95 67.95 56.11015625 68.2154296875 54.5 68.2 54.1544921875 66.9427734375 53.4 65.35 52.2 62.7 47.7 50.95
L 43.4 39.75
Q 43.1447265625 39.433984375 42.8 39.15 Z"/>
</g>
</defs>

<g transform="matrix( 2, 0, 0, 1.9998779296875, 9.9,2.9) ">
<g transform="matrix( 1, 0, 0, 1, 0.2,0) ">
<g transform="matrix( 1, 0, 0, 1, 0,0) ">
<use filter="url(#Filter_1)" xlink:href="#anims_pony_walk_anim_clean_flats_7_Layer0_0_FILL"/>
</g>
</g>
</g>
</svg>
