
<svg xmlns="http://www.w3.org/2000/svg" version="1.1" xmlns:xlink="http://www.w3.org/1999/xlink" preserveAspectRatio="none" x="0px" y="0px" width="330px" height="358px" viewBox="50 364 330 358">
<defs>
<filter id="Filter_1" x="-20%" y="-20%" width="140%" height="140%" color-interpolation-filters="sRGB">
<feColorMatrix in="SourceGraphic" type="matrix" values="0 0 0 0 0.4 0 0 0 0 0.8 0 0 0 0 0.4 0 0 0 1 0" result="result1"/>
</filter>

<g id="Symbol_225_0_Layer0_0_FILL">
<path fill="#FFFFFF" stroke="none" d="
M 89.05 41.75
Q 87.6 36.5 83.1 33.85
L 69.05 44.4
Q 66.65 49.55 68.95 55.1 70.05 57.9 71.65 59.65
L 69.05 66.15
Q 68.7 67.15 63.6 69.45 58.35 71.85 56.8 75 55 78.4 53.4 84.55
L 52.2 90.05
Q 58.55 93.8 65.8 93.8
L 71.9 93.15
Q 69.95 87.25 74.05 81.05 79 75.3 80 73.45 81.1 71.4 80.4 66.2 79.65 60.6 80.05 59.3 80.55 57.7 84.05 55.1 87.75 52.35 88.8 50.1 90.45 46.4 89.05 41.75 Z"/>
</g>

<g id="Symbol_225_0_Layer0_1_FILL">
<path fill="#FFFFFF" stroke="none" d="
M 46.7 41.45
L 43.55 44.9
Q 39.95 48.45 37.35 49.3
L 33.25 50.55
Q 29.8 51.65 26.9 53.05 18.15 57.3 15.55 64.45 12.35 73.9 12.6 79.05
L 17.25 81.7
Q 23.25 84.05 29.65 83.1 30.7 76.25 31.4 68.65 31.75 65.45 32.15 64.5 33.05 62.45 35.45 62.8 39.95 63.45 44.1 60.25
L 47.35 56.9 46.7 41.45 Z"/>
</g>

<g id="Symbol_225_0_Layer0_2_FILL">
<path fill="#FFFFFF" stroke="none" d="
M 46 41.25
Q 47.35 43.25 51.3 44.4 56.4 45.85 60.95 43.35 65.7 40.6 66.05 37.9 66.3 35.95 63.95 32.5 62.35 30.05 56.25 19.05
L 50.35 8.6
Q 49.2 7.45 47.05 7.15 42.85 6.7 38.35 11.6 34.6 15.55 34.6 19.5 34.5 21.85 35.7 23.7
L 46 41.25 Z"/>
</g>

<g id="Symbol_225_0_Layer0_3_FILL">
<path fill="#FFFFFF" stroke="none" d="
M 87.35 40.6
Q 88.45 36.3 84.25 33.3 80.55 30.7 77 31
L 68.85 32.65 60.25 32.35
Q 54.45 30.15 53.15 29.95 48.1 29.1 43.3 32.1 37.55 35.75 37.15 44.25 36.85 52.3 41.4 56.3 44.75 59.3 52.3 60.75 58.95 62.05 64.45 61.65 73.8 60.9 79.2 55.7 81.85 53.05 84.3 48.2 86.4 44.15 87.35 40.6 Z"/>
</g>

<g id="Symbol_225_0_Layer0_4_FILL">
<path fill="#FFFFFF" stroke="none" d="
M 89.45 37.65
Q 86.6 32.95 81.6 31.5
L 70.75 45.3
Q 69.7 50.9 73.35 55.75 75.2 58.15 77.15 59.45
L 76.3 66.4
Q 76.25 67.5 71.85 71.05 67.4 74.7 66.7 78.1 65.85 81.9 65.9 88.25 65.95 91.5 66.15 93.95 73.2 95.9 80.3 94.1 83.85 93.25 85.9 91.95 82.55 86.65 84.95 79.65 88.25 72.8 88.7 70.7 89.3 68.45 87.3 63.6 85.15 58.35 85.15 57 85.25 55.3 87.95 51.9 90.9 48.3 91.3 45.8 91.95 41.85 89.45 37.65 Z"/>
</g>

<g id="Symbol_225_0_Layer0_5_FILL">
<path fill="#FFFFFF" stroke="none" d="
M 50.05 47.2
Q 45.45 44.25 43.55 44.85 42.15 45.3 41.95 47.95
L 42 52.3
Q 41.65 57.05 40.35 59.5 39.65 60.85 33.4 66.35 27.2 72.7 26 79.3 24.45 88.15 25.7 92.75
L 31 94.5
Q 37.65 95.8 44 94 43.45 87.7 43.15 80.9 43.05 78.4 43.75 76 44.4 73.9 45.85 71.05
L 53 59.3
Q 54 57.35 54.1 54.85 54.3 49.9 50.05 47.2 Z"/>
</g>

<g id="Symbol_225_0_Layer0_6_FILL">
<path fill="#FFFFFF" stroke="none" d="
M 40 -26.3
Q 36.95 -29.25 37.55 -31.6 36.3 -30.85 35.1 -29.4 32.7 -26.5 32.7 -22.9 32.8 -14.25 44.25 -11.3 45.1 -12.7 45.6 -14.65 46.6 -18.5 45 -21.05
L 40 -26.3 Z"/>
</g>

<g id="Symbol_225_0_Layer0_7_FILL">
<path fill="#FFFFFF" stroke="none" d="
M 26.7 -18.85
Q 24.65 -17.8 22.4 -15.6 20.7 -14.15 20 -13 17.7 -9.95 15.1 -4.05
L 13.05 1.3 9.7 2.8
Q 6.1 5.15 5.1 9 4.15 12.65 5.95 15.85 7.25 18.15 9.65 19.8 12.2 21.55 19.3 22.85
L 29.65 23.8
Q 33.6 23.55 35.8 22.4 39.6 20.4 41.05 15.2 44.55 16 46.2 15.1 48.6 13.85 49.35 8.8 50.85 -1.55 50.1 -7.6 48.8 -18.15 41.15 -20.15 32.7 -22.3 26.7 -18.85 Z"/>
</g>
</defs>

<g transform="matrix( 2, 0, 0, 1.9998779296875, 100.1,433.95) ">
<g transform="matrix( 1, 0, 0, 1, 0,0) ">
<use filter="url(#Filter_1)" xlink:href="#Symbol_225_0_Layer0_0_FILL"/>
</g>

<g transform="matrix( 1, 0, 0, 1, 0,0) ">
<use filter="url(#Filter_1)" xlink:href="#Symbol_225_0_Layer0_1_FILL"/>
</g>

<g transform="matrix( 1, 0, 0, 1, 0,0) ">
<use filter="url(#Filter_1)" xlink:href="#Symbol_225_0_Layer0_2_FILL"/>
</g>

<g transform="matrix( 1, 0, 0, 1, 0,0) ">
<use filter="url(#Filter_1)" xlink:href="#Symbol_225_0_Layer0_3_FILL"/>
</g>

<g transform="matrix( 1, 0, 0, 1, 0,0) ">
<use filter="url(#Filter_1)" xlink:href="#Symbol_225_0_Layer0_4_FILL"/>
</g>

<g transform="matrix( 1, 0, 0, 1, 0,0) ">
<use filter="url(#Filter_1)" xlink:href="#Symbol_225_0_Layer0_5_FILL"/>
</g>

<g transform="matrix( 1, 0, 0, 1, 0,0) ">
<use filter="url(#Filter_1)" xlink:href="#Symbol_225_0_Layer0_6_FILL"/>
</g>

<g transform="matrix( 1, 0, 0, 1, 0,0) ">
<use filter="url(#Filter_1)" xlink:href="#Symbol_225_0_Layer0_7_FILL"/>
</g>
</g>
</svg>
