
<svg xmlns="http://www.w3.org/2000/svg" version="1.1" xmlns:xlink="http://www.w3.org/1999/xlink" preserveAspectRatio="none" x="0px" y="0px" width="268px" height="285px" viewBox="0 0 268 285">
<defs>
<filter id="Filter_1" x="-20%" y="-20%" width="140%" height="140%" color-interpolation-filters="sRGB">
<feColorMatrix in="SourceGraphic" type="matrix" values="0 0 0 0 1 0 0 0 0 0 0 0 0 0 0.4 0 0 0 1 0" result="result1"/>
</filter>

<g id="anims_pony_walk_anim_clean_flats_12_Layer0_0_FILL">
<path fill="#FFFFFF" stroke="none" d="
M 42.1 39.65
Q 42.075390625 38.3404296875 41.85 37 40.1 26.65 37.5 21.15 34.703515625 15.085546875 30.55 13 29.915625 11.103125 28.55 9.95 27.65 9.15 22.1 6.45 18.3 4.6 18.15 2.15
L 16.5 5
Q 15.1 8.55 16.2 11.95 16.5375 12.950390625 17 13.8 14.6755859375 14.865625 12.9 16.5 11.1 18.15 7.5 24.05 5.7 26.95 5 31.55 4.65 33.95 4.15 37.6 3.85 38.75 0.95 43.6 -1.55 47.85 -1.3 49.3 -0.85 51.8 0.3 55.05 1.7 58.9 3.05 60.1 4.55 61.4 8.5 62.8 12.5 64.1 14.55 64.05 17.1 63.95 19.6 62.4 22.75 60.45 23.6 57.3
L 27.9 57.35
Q 27.964453125 57.3447265625 28 57.35
L 30.2 62.1
Q 31.271875 64.444921875 32.1 66.25 26.7375 69.5001953125 25.75 77.4 24.8 85.45 29 89.8 30.04921875 90.883203125 31.6 91.85 32.0154296875 95.366796875 32.05 98.3 32.0662109375 99.20390625 31.8 101.3 30.5556640625 103.155859375 29.5 104.9 25.1 112.35 26.55 118.9 27.158203125 121.518359375 27.9 123.7 26.7990234375 131.295703125 27 135.25
L 32.4 136.5
Q 39.1 137.25 45.5 134.8 45.5583984375 130.944921875 45.6 127.4 47.1443359375 126.48671875 48.6 125.35 48.5572265625 125.25546875 48.5 125.15 48.6828125 125.0318359375 48.85 124.9
L 46.95 121.15
Q 46.79375 121.10078125 46.65 121.05 46.1568359375 119.98671875 45.65 118.9 45.666796875 115.272265625 45.65 112.05 45.65 107.270703125 45.1 100.85 46.40390625 98.798828125 47.05 96.65 49.4017578125 96.95 51.6 96.95 57.3095703125 96.95 61.7 95.15 62.104296875 95.8875 62.6 96.6 64.15 98.85 65.85 99.95
L 65.85 102.85
Q 65.8 106.1 65.95 107.9 66.15 110.3 65.55 112.8 64.75 115.85 62.55 120.15 61.453515625 122.4005859375 60.4 125.8
L 60.1 125.75
Q 58.3 131.6 57.2 138.05 59.2525390625 139.0681640625 61.4 139.6
L 65.6 140.35 66.85 140.4
Q 68.956640625 140.516796875 71.15 140.25 74.85 139.8 77.35 138.7 76.8919921875 137.0619140625 76.75 135.05 77.2404296875 134.9962890625 77.75 134.9 81.3 134.25 83.5 133 80.95 127.55 81.85 118.35 83.3 109.35 83.05 107.25 82.8 105.15 79.4 100.4 75.95 95.7 75.8 94.1 75.784765625 93.9861328125 75.75 93.85 76.3775390625 91.92890625 78.05 88.35 80.6 83 80.75 80.25 81 76 77.85 72.3 74.92578125 68.8671875 70.7 68.35 68.6466796875 67.35 66.55 67.35 61.1 68.1 58.25 68.4 56.5212890625 68.616015625 55 68.55 54.632421875 67.1025390625 53.55 65.1 52.25 62.5 47.2 51
L 42.45 40
Q 42.299609375 39.813671875 42.1 39.65 Z"/>
</g>
</defs>

<g transform="matrix( 2, 0, 0, 1.9998779296875, 9.9,2.9) ">
<g transform="matrix( 1, 0, 0, 1, 0.2,0) ">
<g transform="matrix( 1, 0, 0, 1, 0,0) ">
<use filter="url(#Filter_1)" xlink:href="#anims_pony_walk_anim_clean_flats_12_Layer0_0_FILL"/>
</g>
</g>
</g>
</svg>
