
<svg xmlns="http://www.w3.org/2000/svg" version="1.1" xmlns:xlink="http://www.w3.org/1999/xlink" preserveAspectRatio="none" x="0px" y="0px" width="268px" height="285px" viewBox="0 0 268 285">
<defs>
<filter id="Filter_1" x="-20%" y="-20%" width="140%" height="140%" color-interpolation-filters="sRGB">
<feColorMatrix in="SourceGraphic" type="matrix" values="0 0 0 0 1 0 0 0 0 0 0 0 0 0 0.4 0 0 0 1 0" result="result1"/>
</filter>

<g id="anims_pony_walk_anim_clean_flats_22_Layer0_0_FILL">
<path fill="#FFFFFF" stroke="none" d="
M 81.6 87.6
Q 83.05 82.2 82.8 79.4 82.35 75.15 78.55 71.4 74.7724609375 67.66796875 70.1 67.3 68.0875 66.4638671875 66.05 66.55 60.65 67.4 57.8 67.8 55.8021484375 68.107421875 54.05 68.05 53.7689453125 66.977734375 53.2 65.65 52.1 62.95 48.05 51.05
L 44.2 39.7
Q 43.952734375 39.335546875 43.6 39 43.6638671875 37.6365234375 43.5 36.2 42.35 25.8 40.1 20.15 37.64921875 13.96015625 33.6 11.65 33.1060546875 9.6953125 31.8 8.45 30.95 7.65 25.6 4.6 21.9 2.55 21.9 0.1
L 20.1 2.85
Q 18.5 6.3 19.4 9.75 19.6720703125 10.7599609375 20.05 11.65 17.680859375 12.562890625 15.8 14.1 13.9 15.65 9.95 21.35 8 24.15 7.05 28.7 6.55 31.1 5.85 34.7 5.5 35.8 2.35 40.5 -0.4 44.6 -0.25 46.1 0.05 48.6 1 51.9 2.2 55.85 3.5 57.1 4.95 58.5 8.8 60.1 12.7 61.65 14.75 61.7 17.3 61.75 19.95 60.35 23.2 58.6 24.15 55.5
L 28.4 55.8 30.15 60.7
Q 31.2955078125 63.907421875 32.1 66.1 26.3408203125 69.503515625 25.6 77.8 24.9 85.9 29.2 90.05 30.0833984375 90.9056640625 31.3 91.65 31.1896484375 92.5046875 30.95 93.25 27.8 97.55 25.5 101.35 21.1 108.8 22.55 115.35 23.7841796875 120.6640625 25.6 124.25 25.4171875 125.1501953125 25.2 126
L 25.2 126
Q 23.35 134.35 24.15 138.65 24.665625 138.88203125 25.25 139.05
L 29.45 139.9 29.5 139.9
Q 36.05 140.6 42.7 138.25 42.68828125 137.77265625 42.65 137.3
L 42.6 134.7
Q 42.5333984375 128.339453125 42.7 123.15 43.6716796875 122.525 44.6 121.8 43.7880859375 120.0078125 42.95 118.15 43.144921875 115.241015625 43.45 112.8 44.405859375 105.153125 46.45 96.25 49.3748046875 96.596484375 52.05 96.5 55.78984375 96.380078125 58.95 95.5 60.45546875 97.085546875 62.05 97.75
L 61.65 105
Q 61.65 106.45 59.05 110.75 55.95 116 54.9 118.95 52.8 124.85 51.1 133.4 57.25 135 64.6 134.1 66.604296875 133.8529296875 68.2 133.5 68.25234375 134.1458984375 68.25 134.75 68.25 135.815625 68.25 136.9 68.3169921875 136.9310546875 68.35 136.95 68.3919921875 137.0814453125 68.4 137.2 74.80390625 140.1630859375 81.6 138.95 81.8591796875 138.937109375 82.1 138.9 85.65 138.35 87.85 137.2 87.794140625 137.08046875 87.75 136.95 87.8734375 136.8775390625 88 136.8 87.401953125 135.416015625 87 133.8 86.974609375 133.7005859375 86.95 133.6 85.67421875 128.409375 86.35 120.9 87.8 111.15 87.55 108.9 87.3 106.6 83.9 101.45 80.45 96.4 80.3 94.65 80.1 93 81.6 87.6 Z"/>
</g>
</defs>

<g transform="matrix( 2, 0, 0, 1.9998779296875, 9.9,2.9) ">
<g transform="matrix( 1, 0, 0, 1, 0.2,0) ">
<g transform="matrix( 1, 0, 0, 1, 0,0) ">
<use filter="url(#Filter_1)" xlink:href="#anims_pony_walk_anim_clean_flats_22_Layer0_0_FILL"/>
</g>
</g>
</g>
</svg>
