
<svg xmlns="http://www.w3.org/2000/svg" version="1.1" xmlns:xlink="http://www.w3.org/1999/xlink" preserveAspectRatio="none" x="0px" y="0px" width="330px" height="358px" viewBox="50 364 330 358">
<defs>
<filter id="Filter_1" x="-20%" y="-20%" width="140%" height="140%" color-interpolation-filters="sRGB">
<feColorMatrix in="SourceGraphic" type="matrix" values="0 0 0 0 0.4 0 0 0 0 0.8 0 0 0 0 0.4 0 0 0 1 0" result="result1"/>
</filter>

<g id="Symbol_409_0_Layer0_0_FILL">
<path fill="#FFFFFF" stroke="none" d="
M 65.9 80.7
L 55.45 96.3
Q 50.5 100.9 52 107.75 53.5 114.8 61 113.85 55.85 117.9 54.25 122.05 52.8 125.7 52.15 130.4 51.8 132.65 51.75 134.25 58.25 136.75 65.65 135.6 69.35 135 71.75 133.9 69.55 128.35 70.95 120.2
L 73.2 111.55
Q 73.65 109.6 72.5 107.85 71 105.85 67.6 104.5
L 74.15 98.25
Q 78.15 93.65 78.1 90.6 78 86.7 74.8 83.75 71.2 80.5 65.9 80.7 Z"/>
</g>

<g id="Symbol_409_0_Layer0_1_FILL">
<path fill="#FFFFFF" stroke="none" d="
M 41.3 110.15
L 43 106.6 33.45 97.2 31.7 102
Q 29.45 107.25 26.6 110.05 22.55 110.25 20.05 112.45 16.75 115.45 15.2 122.55 14.5 125.7 14.55 128.65
L 14.75 132.8 20.3 135.05
Q 27.05 137.05 33.1 136.3 33.2 131.1 32.9 124.2 32.75 122.45 34.05 120.55
L 37.1 116.85
Q 39.25 114.3 41.3 110.15 Z"/>
</g>

<g id="Symbol_409_0_Layer0_2_FILL">
<path fill="#FFFFFF" stroke="none" d="
M 19.6 80.75
L 39.35 94.3
Q 41.8 95.7 46.15 95.45 51.85 95 54.85 90.85 57.9 86.45 56.7 83.65 55.85 81.65 51.65 79.05
L 25.3 60.45 21.3 60.25
Q 16.95 61.35 15.35 67.8 14.05 73.05 16.2 76.95 17.5 79.35 19.6 80.75 Z"/>
</g>

<g id="Symbol_409_0_Layer0_3_FILL">
<path fill="#FFFFFF" stroke="none" d="
M 32.45 81.3
Q 27.2 85.05 27.95 93.4 28.75 101.4 33.85 105.2 37.6 108.05 45.45 109.3
L 57.85 109.9
Q 67.15 108.9 71.9 103.55 74.2 100.9 76 96.05 77.6 92 78.05 88.45 78.6 84.15 73.9 81.35 69.9 78.9 66.35 79.25
L 58.3 81.15
Q 53.3 82.35 49.6 81.05 43.5 79.05 42.1 78.85 36.95 78.2 32.45 81.3 Z"/>
</g>

<g id="Symbol_409_0_Layer0_4_FILL">
<path fill="#FFFFFF" stroke="none" d="
M 78.55 83.35
Q 74.55 79.65 69.3 79.65
L 60.95 96.3
Q 56.6 101.1 59 108.65 61.5 116.5 68.85 115.8 64.25 120 63.2 124.5 62.3 128.45 62.25 133.5 62.2 136 62.4 137.75 69.2 140.85 76.4 139.9 80.05 139.4 82.25 138.3 79.4 132.15 79.65 123.25
L 80.7 113.8
Q 80.9 111.7 79.5 109.7 77.75 107.45 74.15 105.85 78.1 101.7 79.85 99.25 83.25 94.45 82.8 91.05 82.2 86.75 78.55 83.35 Z"/>
</g>

<g id="Symbol_409_0_Layer0_5_FILL">
<path fill="#FFFFFF" stroke="none" d="
M 45.1 138.45
Q 44.15 133 42.35 125.8 41.9 124 42.8 121.8
L 44.9 117.3
Q 46.5 114.1 47.65 109.35
L 48.5 105.2 37.2 97.4 36.55 102.8
Q 35.45 108.85 33.2 112.4 29.35 113.5 27.4 116.3 24.8 120.15 24.75 127.9 24.75 131.35 25.45 134.5
L 26.5 138.75 32.4 139.9
Q 39.35 140.6 45.1 138.45 Z"/>
</g>

<g id="Symbol_409_0_Layer0_6_FILL">
<path fill="#FFFFFF" stroke="none" d="
M 17.05 47.4
Q 17.05 44.25 14.7 42.6 13.8 42.05 7.9 39.6 3.9 38.05 3.9 36.1 2.8 36.95 1.95 38.3 0.25 41 1.2 43.75 3.7 50.35 16.6 50.25 17.05 49 17.05 47.4 Z"/>
</g>

<g id="Symbol_409_0_Layer0_7_FILL">
<path fill="#FFFFFF" stroke="none" d="
M 27.55 64.6
Q 26.25 56.35 23.8 51.95 19.5 44.1 10.9 44.15 1.4 44.2 -4 48.05 -5.85 49.3 -7.6 51.45
L -9.45 53.95
Q -11.05 56.75 -12.05 61.8
L -12.85 66.3 -15.95 68.2
Q -19.05 70.7 -19.05 73.85 -19.05 76.85 -16.25 78.95 -14.2 80.4 -11.2 81.2
L -0.2 81.6
Q 7.05 81.15 11 80.2 15 79.15 17 77.85 20.45 75.55 20.55 71.3 24.5 71.2 26 70.15 28.15 68.65 27.55 64.6 Z"/>
</g>
</defs>

<g transform="matrix( 2, 0, 0, 1.9998779296875, 100.1,433.95) ">
<g transform="matrix( 1, 0, 0, 1, 0,0) ">
<use filter="url(#Filter_1)" xlink:href="#Symbol_409_0_Layer0_0_FILL"/>
</g>

<g transform="matrix( 1, 0, 0, 1, 0,0) ">
<use filter="url(#Filter_1)" xlink:href="#Symbol_409_0_Layer0_1_FILL"/>
</g>

<g transform="matrix( 1, 0, 0, 1, 0,0) ">
<use filter="url(#Filter_1)" xlink:href="#Symbol_409_0_Layer0_2_FILL"/>
</g>

<g transform="matrix( 1, 0, 0, 1, 0,0) ">
<use filter="url(#Filter_1)" xlink:href="#Symbol_409_0_Layer0_3_FILL"/>
</g>

<g transform="matrix( 1, 0, 0, 1, 0,0) ">
<use filter="url(#Filter_1)" xlink:href="#Symbol_409_0_Layer0_4_FILL"/>
</g>

<g transform="matrix( 1, 0, 0, 1, 0,0) ">
<use filter="url(#Filter_1)" xlink:href="#Symbol_409_0_Layer0_5_FILL"/>
</g>

<g transform="matrix( 1, 0, 0, 1, 0,0) ">
<use filter="url(#Filter_1)" xlink:href="#Symbol_409_0_Layer0_6_FILL"/>
</g>

<g transform="matrix( 1, 0, 0, 1, 0,0) ">
<use filter="url(#Filter_1)" xlink:href="#Symbol_409_0_Layer0_7_FILL"/>
</g>
</g>
</svg>
