
<svg xmlns="http://www.w3.org/2000/svg" version="1.1" xmlns:xlink="http://www.w3.org/1999/xlink" preserveAspectRatio="none" x="0px" y="0px" width="330px" height="358px" viewBox="0 0 330 358">
<defs>
<filter id="Filter_1" x="-20%" y="-20%" width="140%" height="140%" color-interpolation-filters="sRGB">
<feColorMatrix in="SourceGraphic" type="matrix" values="0 0 0 0 1 0 0 0 0 0 0 0 0 0 0.4 0 0 0 1 0" result="result1"/>
</filter>

<g id="anims_pony_jump_anim_clean_flats_8_Layer0_0_FILL">
<path fill="#FFFFFF" stroke="none" d="
M 22.2 -11.25
Q 19.55 -9.15 17.3 -5.05 16.1 -2.9 14.4 0.35 13.75 1.3 9.35 4.85 5.5 7.95 5.25 9.45 4.8 11.95 4.75 15.35 4.75 19.45 5.55 21.05 6.55 22.8 9.75 25.5 13.05 28.05 14.95 28.7 17.4 29.5 20.3 28.95 23.95 28.25 25.85 25.6
L 29.85 27.1
Q 33.591015625 28.1458984375 36.35 27.6
L 41.2 35.3
Q 41.4517578125 35.6908203125 41.7 36.05 38.1955078125 39.437109375 37.45 45.7 36.941015625 50.01328125 37.9 53.25 37.3544921875 53.7265625 36.8 54.05 36.2 54.4 33.05 56.05 29.85 57.85 27.35 59.7 19.65 65.55 19 72.45 18.35 81.45 20.1 85.85
L 25.5 87
Q 26.5177734375 87.10625 27.5 87.15 27.2376953125 93.3912109375 28.45 96.95
L 33.95 98.2
Q 40.6 99 46.85 96.8 45.85 90.55 45.05 83.75 44.75 81.3 45.3 78.85 45.75 76.7 47 73.75 49.35 68.6 51.5 64.55
L 52.1 63.55
Q 58.1875 65.146875 63.4 65.1 68.8310546875 65.0708984375 73.05 63.45
L 72.05 68.8
Q 71.85 69.8 67.35 72.95 62.7 76.1 61.8 79.3 60.8 82.8 60.5 88.85 60.4 91.9 60.45 94.2 64.566015625 95.5421875 68.75 95.6 68.9525390625 97.245703125 69.15 98.6 76.35 100 83.25 97.6 86.75 96.45 88.7 94.9 84.9 89.95 86.75 82.75 89.45 75.65 89.75 73.55 90.1 71.25 87.75 66.6 85.15 61.6 85.05 60.2 85 58.5 87.45 54.85 89.95 51.05 90.2 48.5 90.55 44.5 87.7 40.55 84.45 36.1 79.35 35.1
L 79.05 35.55
Q 78.63046875 35.5 78.2 35.5 72.75 36.2 69.9 36.55 67.7517578125 36.8185546875 65.9 36.7 65.4517578125 35.9044921875 64.8 35 63.1 32.6 56.55 21.95
L 50.25 11.7
Q 50.2095703125 11.661328125 50.15 11.6 51.8708984375 2.1958984375 51.4 -3.55 50.865625 -10.2134765625 47.65 -13.6 47.78125 -15.619921875 46.9 -17.2 46.3 -18.25 42.05 -22.7 39.15 -25.75 39.9 -28.1
L 37.3 -25.95
Q 34.8 -23.1 34.65 -19.55 34.6138671875 -18.516796875 34.75 -17.55 32.1896484375 -17.378125 29.95 -16.45 27.7 -15.55 22.2 -11.25
M 35.85 68.25
Q 36.183203125 66.9232421875 37.6 66.4 36.835546875 67.2572265625 35.85 68.25 Z"/>
</g>
</defs>

<g transform="matrix( 2, 0, 0, 1.9998779296875, 55.6,72.4) ">
<g transform="matrix( 1, 0, 0, 1, 0.05,-3) ">
<g transform="matrix( 1, 0, 0, 1, 0,0) ">
<use filter="url(#Filter_1)" xlink:href="#anims_pony_jump_anim_clean_flats_8_Layer0_0_FILL"/>
</g>
</g>
</g>
</svg>
