
<svg xmlns="http://www.w3.org/2000/svg" version="1.1" xmlns:xlink="http://www.w3.org/1999/xlink" preserveAspectRatio="none" x="0px" y="0px" width="268px" height="285px" viewBox="0 0 268 285">
<defs>
<filter id="Filter_1" x="-20%" y="-20%" width="140%" height="140%" color-interpolation-filters="sRGB">
<feColorMatrix in="SourceGraphic" type="matrix" values="0 0 0 0 1 0 0 0 0 0 0 0 0 0 0.4 0 0 0 1 0" result="result1"/>
</filter>

<g id="anims_pony_walk_anim_clean_flats_18_Layer0_0_FILL">
<path fill="#FFFFFF" stroke="none" d="
M 42.85 39.5
Q 42.8455078125 38.143359375 42.65 36.75 41.3 26.4 38.9 20.8 36.3244140625 14.6435546875 32.25 12.4 31.6876953125 10.446484375 30.35 9.2 29.45 8.45 24.05 5.5 20.3 3.55 20.25 1.1
L 18.5 3.9
Q 17 7.35 17.95 10.8 18.25 11.8166015625 18.7 12.7 16.30625 13.676171875 14.45 15.25 12.6 16.85 8.8 22.6 6.9 25.45 6.05 30.05 5.6 32.45 5 36.05 4.65 37.15 1.6 41.95 -1.05 46.1 -0.85 47.6 -0.5 50.1 0.5 53.35 1.8 57.3 3.1 58.5 4.55 59.9 8.45 61.4 12.4 62.85 14.45 62.85 17 62.85 19.6 61.4 22.8 59.55 23.75 56.45
L 28.05 56.65
Q 28.094921875 56.64765625 28.15 56.65
L 30.1 61.45
Q 31.1990234375 64.1822265625 32 66.2 26.42578125 69.5390625 25.6 77.7 24.8 85.8 29.1 90.05 30.05078125 90.9859375 31.35 91.8 31.868359375 97.659765625 30.55 101.7 30.1505859375 102.9462890625 29.8 104.15 29.25390625 105.2375 28.6 106.45 26.65 110.55 24.95 116.05 24.3208984375 118.18203125 24 121.4 23.42109375 125.0232421875 23.85 129.15 23.9490234375 130.9587890625 24.15 132.5 24.271875 132.553515625 24.4 132.6 26.390234375 133.4208984375 29.4 133.75 35.641796875 134.3306640625 41.5 131.55 41.63046875 131.4953125 41.75 131.45
L 41.75 131.4
Q 41.823828125 131.3876953125 41.9 131.35 41.858984375 130.99140625 41.8 130.65 46.2201171875 129.47265625 50.45 127.55 47.45 120.85 44.7 110.3 43.77265625 106.7234375 43.7 102.35 45.0775390625 99.000390625 46.1 96.35 49.0884765625 96.7498046875 51.85 96.7 58.1859375 96.5306640625 62.8 94.2 62.955078125 94.305078125 63.05 94.35 63.8068359375 95.4369140625 64.7 96.45 65.476171875 97.35859375 66.25 98.05
L 66.55 102.2
Q 66.65 103.15 63.05 107.5 59.3 112.05 59.2 115.3 59.1 118.95 60.35 124.75 61 127.6 61.65 129.8 63.5107421875 129.7744140625 65.3 129.5 64.6654296875 133.7439453125 64.7 138.25 70.6298828125 141.0080078125 77.25 140.45
L 77.55 140.45
Q 77.9962890625 140.4060546875 78.45 140.35 82.15 139.85 84.55 138.8 82.45 132.85 83.55 122.3 85.15 112 85.1 109.8 85.05 107.5 81.8 102.3 78.5 97.05 78.5 95.35 78.5 93.7 80.15 88.35 81.8 82.95 81.75 80.15 81.7 75.6 78.45 71.85 75.076171875 67.994140625 70 67.55 68.0888671875 66.7453125 66.15 66.8 60.7 67.6 57.85 68 56.0203125 68.26640625 54.4 68.25 54.06171875 66.9869140625 53.3 65.4 52.1 62.75 47.5 51
L 43.15 39.85
Q 43.0119140625 39.663671875 42.85 39.5 Z"/>
</g>
</defs>

<g transform="matrix( 2, 0, 0, 1.9998779296875, 9.9,2.9) ">
<g transform="matrix( 1, 0, 0, 1, 0.2,0) ">
<g transform="matrix( 1, 0, 0, 1, 0,0) ">
<use filter="url(#Filter_1)" xlink:href="#anims_pony_walk_anim_clean_flats_18_Layer0_0_FILL"/>
</g>
</g>
</g>
</svg>
