<?xml version="1.0" encoding="UTF-8" standalone="no"?>
<svg
   version="1.1"
   preserveAspectRatio="none"
   x="0px"
   y="0px"
   width="264"
   height="283"
   viewBox="0 0 264 283"
   id="svg1361"
   sodipodi:docname="pony_female_walk_bg_0016.svg"
   xmlns:inkscape="http://www.inkscape.org/namespaces/inkscape"
   xmlns:sodipodi="http://sodipodi.sourceforge.net/DTD/sodipodi-0.dtd"
   xmlns="http://www.w3.org/2000/svg"
   xmlns:svg="http://www.w3.org/2000/svg">
  <sodipodi:namedview
     id="namedview1363"
     pagecolor="#ffffff"
     bordercolor="#000000"
     borderopacity="0.25"
     inkscape:showpageshadow="2"
     inkscape:pageopacity="0.0"
     inkscape:pagecheckerboard="0"
     inkscape:deskcolor="#d1d1d1"
     showgrid="false" />
  <defs
     id="defs1307">
    <filter
       id="Filter_1"
       x="0"
       y="0"
       width="1"
       height="1"
       color-interpolation-filters="sRGB">
      <feColorMatrix
         in="SourceGraphic"
         type="matrix"
         values="0 0 0 0 0 0 0 0 0 0.8 0 0 0 0 0.4 0 0 0 1 0"
         result="result1"
         id="feColorMatrix1274" />
    </filter>
  </defs>
  <path
     fill="#FFFFFF"
     id="path1365"
     d="m -3.1279213,-37.520863 c -0.68792,0.679253 -1.3154198,1.577956 -1.8833736,2.694471 -1.1369318,2.26635 -1.4407547,4.557965 -0.9116614,6.875507 0.162533,0.686487 0.3742074,1.332575 0.6350779,1.9387 -2.1339146,0.740282 -4.0023536,1.841111 -5.5990736,3.312203 -1.16465,0.998124 -2.325055,2.379096 -3.479943,4.144616 -0.869887,1.173941 -1.46823,2.206874 -1.795771,3.097312 -1.037994,2.302743 -1.955628,5.5757004 -2.753147,9.8202454 -0.397735,2.088952 -0.688931,3.9652247 -0.873427,5.6271535 l -2.921023,2.2613833 c -1.997119,2.0398077 -3.037178,4.392533 -3.119121,7.0581716 -0.07682,2.4990362 0.707605,4.6575922 2.352663,6.4757942 1.193936,1.30406 2.697302,2.316904 4.509444,3.039624 l 10.0784206,0.860788 c 4.4751903,-0.19601 7.92482307,-0.657451 10.3484822,-1.383426 0.1296954,-0.03885 0.2506095,-0.07941 0.3768971,-0.119069 l 3.4803999,9.591265 c -3.7449696,1.882407 -6.15407353,5.425595 -7.2250092,10.631831 -1.0525697,5.301676 -0.2972065,9.507767 2.26728534,12.61914 0.89434236,1.081376 2.12240956,2.105399 3.67476756,3.074383 0.2374056,1.041378 0.4442708,2.015162 0.61324,2.90613 -0.1978437,0.352841 -0.4186174,0.679796 -0.6654894,0.978136 l -6.2035036,6.733276 c -2.816995,3.890592 -4.2595989,8.375001 -4.3278248,13.453476 -6.924e-4,0.0611 -5.67e-5,0.119528 -5.755e-4,0.180264 l -0.3677984,0.0414 c -0.017564,5.283172 0.5760096,9.176328 1.7822316,11.680117 l 0.4013566,-0.0074 c 0.014878,0.03023 0.028548,0.06278 0.043609,0.09263 l 4.60230461,-0.02219 C -1.177058,93.104155 -1.5579065,95.197092 -1.2223405,96.402075 l 4.9404125,1.596041 c 4.1178079,0.794727 8.315974,0.576188 12.59455,-0.656582 0.661968,-2.021207 1.168293,-4.188559 1.518969,-6.502018 0.61804,-3.998039 0.71274,-9.827266 0.283276,-17.487141 -0.196611,-3.63687 -0.642793,-8.157249 -1.327624,-13.520663 0.142409,-0.232049 0.274772,-0.462151 0.402671,-0.691271 1.767775,0.389444 3.485104,0.656567 5.144678,0.787125 4.025638,0.316693 7.605699,-0.07872 10.746715,-1.178403 0.295112,0.604336 0.627612,1.195383 1.001075,1.771728 1.011481,1.585291 2.05498,2.77177 3.129713,3.559357 l 0.143052,2.619947 -0.138516,4.280183 c -0.1802,0.218424 -0.357045,0.433924 -0.554626,0.667466 -2.401258,2.865666 -3.603893,5.378265 -3.607976,7.538782 -0.01485,1.289626 0.103549,2.789174 0.348715,4.487363 -0.07989,0.15159 -0.156229,0.300941 -0.238865,0.454374 -1.333016,2.469702 -2.611504,6.147333 -3.83514,11.033863 -0.629755,2.458567 -1.121365,4.661126 -1.476288,6.606334 3.169131,1.80384 6.589304,2.84305 10.259473,3.12509 1.216709,0.11473 2.460588,0.14555 3.73298,0.0912 2.485941,-0.13738 4.554871,-0.49167 6.205624,-1.06317 -0.324032,-1.397 -0.488283,-2.69756 -0.493116,-3.90202 -0.167881,-0.176367 -0.335037,-0.35035 -0.501472,-0.521894 -0.04597,-2.137336 0.166147,-4.542315 0.638045,-7.218622 0.653379,-0.243744 1.30216,-0.509241 1.945061,-0.803192 2.188837,-1.030359 3.89515,-2.08416 5.117662,-3.160263 -2.414471,-2.335509 -3.632563,-5.295966 -3.66144,-8.877522 0.567661,-2.114159 0.884356,-3.552968 0.943486,-4.298677 0.02544,-0.320816 -7.35e-4,-0.699149 -0.05783,-1.11192 0.676462,-2.893562 1.031816,-4.848613 1.060652,-5.850435 0.04785,-1.447057 -0.905896,-3.544653 -2.862018,-6.292751 -1.063161,-1.502874 -1.877805,-2.736402 -2.446039,-3.704082 0.504539,-1.196474 1.301154,-2.759147 2.411001,-4.714436 1.913283,-3.460542 2.943895,-6.121179 3.091485,-7.982488 0.226657,-2.858438 -0.596426,-5.54935 -2.470036,-8.072605 -1.844577,-2.415011 -4.195147,-3.882158 -7.04986,-4.404229 -1.346276,-0.800836 -2.731767,-1.260117 -4.156617,-1.372209 l -8.354471,0.345989 c -1.207429,0.0554 -2.332185,0.02256 -3.378085,-0.0934 -0.155251,-1.000092 -0.529792,-2.194127 -1.126624,-3.586735 L 17.700019,2.3501378 C 17.601666,2.2051969 17.49129,2.0682351 17.375252,1.9353522 c 0.0591,-0.7953816 0.05354,-1.67863766 -0.0216,-2.65637468 -0.55332,-6.95420872 -1.521896,-12.33725152 -2.905575,-16.14853852 -1.505561,-4.195454 -3.578258,-7.103063 -6.216223,-8.726315 -0.3009351,-1.3233 -0.8732857,-2.415868 -1.7197435,-3.274121 -0.55006,-0.550533 -2.5765908,-1.896104 -6.07940321,-4.038204 -2.42372149,-1.441904 -3.61082059,-2.979959 -3.56063059,-4.612662 z"
     style="filter:url(#Filter_1)"
     transform="matrix(1.9932251,-0.15802002,0.15805054,1.993103,56.7,79.65)" />
</svg>
