
<svg xmlns="http://www.w3.org/2000/svg" version="1.1" xmlns:xlink="http://www.w3.org/1999/xlink" preserveAspectRatio="none" x="0px" y="0px" width="268px" height="285px" viewBox="0 0 268 285">
<defs>
<filter id="Filter_1" x="-20%" y="-20%" width="140%" height="140%" color-interpolation-filters="sRGB">
<feColorMatrix in="SourceGraphic" type="matrix" values="0 0 0 0 1 0 0 0 0 0 0 0 0 0 0.4 0 0 0 1 0" result="result1"/>
</filter>

<g id="anims_pony_walk_anim_clean_flats_15_Layer0_0_FILL">
<path fill="#FFFFFF" stroke="none" d="
M 42.5 39.95
Q 42.360546875 39.7705078125 42.2 39.6 42.1603515625 38.319921875 41.95 37 40.25 26.65 37.75 21.1 34.992578125 15.0525390625 30.85 12.9 30.2693359375 10.98671875 28.9 9.8 28 9.05 22.55 6.25 18.75 4.4 18.65 1.95
L 16.95 4.75
Q 15.55 8.3 16.6 11.7 16.92109375 12.6935546875 17.35 13.55 15.0111328125 14.6015625 13.2 16.25 11.4 17.85 7.7 23.7 5.9 26.6 5.15 31.2 4.8 33.65 4.25 37.25 3.95 38.4 1.05 43.25 -1.5 47.45 -1.3 48.95 -0.9 51.45 0.25 54.7 1.6 58.55 2.95 59.75 4.45 61.05 8.4 62.45 12.35 63.85 14.4 63.8 16.95 63.7 19.55 62.2 22.7 60.25 23.55 57.1
L 27.8 57.2
Q 27.8916015625 57.193359375 27.95 57.15
L 30.15 62
Q 31.226171875 64.428125 32.05 66.25 26.7330078125 69.5359375 25.75 77.4 24.85 85.45 29.05 89.8 30.5083984375 91.30546875 32.9 92.55 33.41796875 94.140625 33.75 95.45 33.5318359375 96.0275390625 33.2 96.5 32 98.2 27.55 103.7 23.8 109.85 24.3 117.45 24.3052734375 117.52890625 24.3 117.6 24.1224609375 117.6529296875 23.95 117.7 24.55 125.6 26.65 129.2 26.860546875 129.2140625 27.05 129.2
L 27.1 129.25 31.65 128.85
Q 30.405078125 133.4373046875 31.05 135.2
L 36.1 136.4
Q 42.35 137.1 48.6 134.75 49.35 131.65 49.6 128.15 50.05 122.1 48.5 110.7 47.7740234375 105.2791015625 46.1 97.3 46.3046875 96.9484375 46.45 96.55 49.159765625 96.95 51.65 96.95 57.691015625 96.95 62.25 94.95 62.766796875 95.8240234375 63.4 96.65 65.1 98.9 66.8 99.95
L 67.15 102.55
Q 67.3798828125 104.8482421875 67.4 106.75 67.14140625 107.14296875 66.85 107.55 63.6 112.1 63.85 115.35 63.9810546875 117.264453125 64.55 119.75 64.453125 120.015625 64.35 120.25 62.65 124.1 61.4 131.55 60.75 135.3 60.45 138.25 64.2693359375 140.0404296875 68.4 140.4 69.7349609375 140.551171875 71.05 140.55 71.4603515625 140.5515625 71.85 140.55 73.2318359375 140.5236328125 74.65 140.35 78.35 139.85 80.75 138.8 80.1 136.75 79.95 134.95 79.676953125 134.705078125 79.4 134.45 79.0826171875 131.2796875 79.45 127.2 80.422265625 126.77265625 81.35 126.25 84.5 124.45 86.2 122.7 82.3142578125 119.5169921875 81.85 114.15 82.45 110.9271484375 82.45 109.8 82.45 109.3072265625 82.3 108.65 82.9755859375 104.2724609375 82.9 102.8 82.8 100.6 79.55 96.75 77.778515625 94.62421875 76.8 93.25 77.426953125 91.3951171875 78.85 88.35 81.3 82.95 81.3 80.15 81.3 75.85 78.2 72.3 75.169140625 68.92265625 70.85 68.45 68.725390625 67.4 66.55 67.4 61.1 68.1 58.25 68.4 56.46875 68.62265625 54.9 68.55 54.55078125 67.116796875 53.5 65.15 52.15 62.5 47.2 51
L 42.5 39.95 Z"/>
</g>
</defs>

<g transform="matrix( 2, 0, 0, 1.9998779296875, 9.9,2.9) ">
<g transform="matrix( 1, 0, 0, 1, 0.2,0) ">
<g transform="matrix( 1, 0, 0, 1, 0,0) ">
<use filter="url(#Filter_1)" xlink:href="#anims_pony_walk_anim_clean_flats_15_Layer0_0_FILL"/>
</g>
</g>
</g>
</svg>
