<?xml version="1.0" encoding="UTF-8" standalone="no"?>
<svg
   version="1.1"
   preserveAspectRatio="none"
   x="0px"
   y="0px"
   width="264"
   height="283"
   viewBox="0 0 264 283"
   id="svg879"
   sodipodi:docname="pony_female_walk_bg_0014.svg"
   xmlns:inkscape="http://www.inkscape.org/namespaces/inkscape"
   xmlns:sodipodi="http://sodipodi.sourceforge.net/DTD/sodipodi-0.dtd"
   xmlns="http://www.w3.org/2000/svg"
   xmlns:svg="http://www.w3.org/2000/svg">
  <sodipodi:namedview
     id="namedview881"
     pagecolor="#ffffff"
     bordercolor="#000000"
     borderopacity="0.25"
     inkscape:showpageshadow="2"
     inkscape:pageopacity="0.0"
     inkscape:pagecheckerboard="0"
     inkscape:deskcolor="#d1d1d1"
     showgrid="false" />
  <defs
     id="defs825">
    <filter
       id="Filter_1"
       x="0"
       y="0"
       width="1"
       height="1"
       color-interpolation-filters="sRGB">
      <feColorMatrix
         in="SourceGraphic"
         type="matrix"
         values="0 0 0 0 0 0 0 0 0 0.8 0 0 0 0 0.4 0 0 0 1 0"
         result="result1"
         id="feColorMatrix792" />
    </filter>
  </defs>
  <path
     fill="#FFFFFF"
     id="path883"
     d="m -3.7675407,-37.338895 c -0.6787701,0.688253 -1.2943815,1.593811 -1.8474005,2.717653 -1.1066196,2.281011 -1.3799229,4.576659 -0.8201498,6.88675 0.1716504,0.684325 0.3915078,1.327601 0.6604446,1.930244 -2.12351,0.768452 -3.9776727,1.893538 -5.5544536,3.385441 -1.151176,1.01339 -2.291941,2.409991 -3.423165,4.190503 -0.854133,1.185263 -1.439496,2.225206 -1.755149,3.119824 -1.007218,2.316084 -1.880962,5.6020859 -2.62196,9.8564202 -0.369917,2.0938393 -0.635645,3.9727151 -0.798035,5.63678178 l -2.891126,2.29988412 c -1.969654,2.0659223 -2.977155,4.431641 -3.02368,7.09787 -0.04362,2.4995899 0.769005,4.6473549 2.437902,6.4433939 1.211031,1.287978 2.72715,2.281634 4.548551,2.980179 l 10.0883553,0.725758 c 4.4717483,-0.255344 7.91439392,-0.761849 10.3279572,-1.519842 0.1105252,-0.03471 0.2130024,-0.07095 0.3210246,-0.106222 l 3.3804866,9.316907 c -3.7647841,1.848077 -6.2070961,5.370518 -7.3240459,10.569501 -1.098662,5.29101 -0.3797207,9.503188 2.15684923,12.636166 0.71997221,0.886224 1.66119557,1.736664 2.81754987,2.552279 0.090861,2.323232 0.057453,4.604358 -0.1046746,6.843469 -1.1078103,1.227539 -2.67723728,2.852418 -4.7412143,4.902601 -3.2060231,4.136289 -4.7836696,8.78282 -4.7329821,13.940162 0.029102,5.021612 1.0130558,9.073104 2.9519131,12.15379 l 0.071613,-5.97e-4 -1.0882731,4.730057 5.22132519,1.710669 c 4.40605981,0.887385 8.82144211,0.70553 13.24740591,-0.546811 1.244332,-7.720878 2.027756,-14.763024 2.350213,-21.125756 0.16226,-3.766834 0.08772,-8.07343 -0.224462,-12.919045 l -0.0943,-1.555238 c 0.503538,-0.776197 0.94499,-1.566064 1.324014,-2.371305 1.678239,0.374845 3.311323,0.639686 4.893158,0.778078 3.860004,0.337705 7.317858,0.01881 10.374608,-0.955002 0.246037,0.559546 0.520619,1.111848 0.831566,1.655032 0.926054,1.65366 1.919967,2.911949 2.982159,3.774468 l -0.06844,7.673071 c -0.0061,1.474973 -0.227876,2.959635 -0.659252,4.453881 l -1.31803,2.650247 c -0.312851,0.675273 -0.592298,1.464033 -0.845972,2.341562 -0.427576,0.790285 -0.900882,1.613333 -1.4324,2.478484 -0.837953,1.429524 -1.688049,3.259869 -2.549391,5.463951 l -0.279339,-0.09012 c -1.46893,3.786356 -2.72309,7.792835 -3.76199,12.018336 2.567507,1.55495 5.326944,2.56876 8.27797,3.04275 1.753162,0.3093 3.578739,0.4325 5.476982,0.36839 2.48341,-0.0839 4.587421,-0.41833 6.311649,-1.00361 -0.330185,-1.61991 -0.427523,-3.47614 -0.298659,-5.561171 0.29798,-0.04366 0.596986,-0.09134 0.897967,-0.145938 2.549459,-0.456354 4.683518,-1.134259 6.401791,-2.033916 -1.404963,-3.828749 -1.84128,-8.591892 -1.309342,-14.289391 0.853275,-5.545859 1.257026,-9.015541 1.211655,-10.409197 -0.04269,-1.424304 -0.973371,-3.605496 -2.790837,-6.543877 -1.625919,-2.553459 -2.540733,-4.3906 -2.746763,-5.512616 0.435059,-1.255174 1.358468,-3.147626 2.773484,-5.683551 1.937967,-3.410717 3.019868,-6.026471 3.246069,-7.847006 0.37977,-2.810911 -0.401888,-5.539113 -2.345307,-8.185212 -1.870681,-2.552604 -4.272639,-4.097233 -7.203305,-4.636884 -1.202621,-0.658583 -2.438169,-1.046606 -3.708106,-1.157711 l -8.356307,0.272797 c -1.163491,0.04317 -2.249499,0.0056 -3.26169,-0.108898 -0.149156,-1.01246 -0.528277,-2.228007 -1.137423,-3.649348 L 17.699516,2.3502288 C 17.568976,2.157854 17.418542,1.9787349 17.256847,1.807602 17.303059,1.0193761 17.285354,0.1462579 17.198357,-0.81798302 16.552782,-7.7635553 15.512637,-13.132291 14.078601,-16.924511 c -1.561291,-4.175481 -3.671412,-7.056941 -6.3311449,-8.644706 -0.318554,-1.318243 -0.904375,-2.401626 -1.7616806,-3.248102 -0.5572684,-0.543133 -2.6018307,-1.862697 -6.13243547,-3.957928 -2.44241693,-1.409481 -3.64937763,-2.930583 -3.62088073,-4.563648 z"
     style="filter:url(#Filter_1)"
     transform="matrix(1.9924011,-0.17430115,0.17431641,1.9922791,56.4,80.1)" />
</svg>
