
<svg xmlns="http://www.w3.org/2000/svg" version="1.1" xmlns:xlink="http://www.w3.org/1999/xlink" preserveAspectRatio="none" x="0px" y="0px" width="330px" height="358px" viewBox="50 364 330 358">
<defs>
<filter id="Filter_1" x="-20%" y="-20%" width="140%" height="140%" color-interpolation-filters="sRGB">
<feColorMatrix in="SourceGraphic" type="matrix" values="0 0 0 0 0.4 0 0 0 0 0.8 0 0 0 0 0.4 0 0 0 1 0" result="result1"/>
</filter>

<g id="Symbol_155_0_Layer0_0_FILL">
<path fill="#FFFFFF" stroke="none" d="
M 77.8 44.5
Q 74.3 40.85 69.15 40.35
L 60.5 53.95
Q 60.3 59 64.6 62.65 66.8 64.5 68.95 65.3
L 69.15 71.5
Q 69.25 72.4 65.45 76.15 61.6 80 61.4 83.1 61.15 86.45 62.15 92.05 62.65 94.85 63.25 96.9 70.5 97.6 77.25 95 80.6 93.65 82.5 92.25 78.4 88.15 79.7 81.7 81.95 75.2 82.1 73.35 82.3 71.3 79.65 67.4 76.65 63.2 76.55 61.95 76.35 60.5 78.5 57.15 80.85 53.6 80.9 51.35 80.95 47.8 77.8 44.5 Z"/>
</g>

<g id="Symbol_155_0_Layer0_1_FILL">
<path fill="#FFFFFF" stroke="none" d="
M 38.5 52.15
Q 36.65 56.55 34.5 58.45
L 31.2 61.05
Q 28.25 63.5 26.2 65.75 19.6 72.95 20.35 79.85 21.2 88.75 23.65 92.9
L 29.25 93.05
Q 36 92.55 41.65 89.05
L 37.2 76.65
Q 36.25 73.75 36.25 72.5 36.2 70.75 37.7 70.45 42.6 69.4 45.05 65.95
L 46.5 62.65
Q 48.05 61.2 49.05 58.9 51.05 54.3 47.95 50.3 44.6 45.9 42.6 45.8 41.15 45.7 40 48.2
L 38.5 52.15 Z"/>
</g>

<g id="Symbol_155_0_Layer0_2_FILL">
<path fill="#FFFFFF" stroke="none" d="
M 46.3 45.15
Q 47.7 47.1 51.65 48.15 56.7 49.55 61.25 46.95 66 44.2 66.25 41.5 66.45 39.5 64.1 36.1 62.45 33.65 56.15 22.8
L 50.15 12.4
Q 48.95 11.25 46.8 11 42.55 10.55 38.1 15.55 34.5 19.55 34.5 23.55 34.5 25.9 35.65 27.7
L 46.3 45.15 Z"/>
</g>

<g id="Symbol_155_0_Layer0_3_FILL">
<path fill="#FFFFFF" stroke="none" d="
M 87.65 47.95
Q 89 43.75 85 40.5 81.5 37.7 77.95 37.8
L 69.65 38.95
Q 64.5 39.7 61.1 38.1 55.45 35.55 54.15 35.25 49.2 34.1 44.2 36.85 38.3 40.1 37.4 48.5 36.6 56.6 40.85 60.85 43.95 64 51.45 65.95 58 67.7 63.55 67.6 72.9 67.45 78.6 62.55 81.4 60.1 84.15 55.4 86.5 51.5 87.65 47.95 Z"/>
</g>

<g id="Symbol_155_0_Layer0_4_FILL">
<path fill="#FFFFFF" stroke="none" d="
M 87.85 56.65
Q 90.2 52.7 90.25 50.25 90.3 46.3 87.15 42.7 83.65 38.65 78.5 38.1
L 69.85 53.1
Q 69.65 58.65 73.95 62.7 76.15 64.7 78.3 65.65
L 78.5 72.5
Q 78.6 73.5 74.8 77.6 70.95 81.85 70.75 85.25 70.5 89.05 71.5 95.15 72 98.25 72.6 100.55 79.85 101.3 86.6 98.4 89.95 96.95 91.85 95.35 87.75 90.85 89.05 83.7 91.3 76.6 91.45 74.55 91.65 72.25 89 68 86 63.3 85.9 62 85.7 60.35 87.85 56.65 Z"/>
</g>

<g id="Symbol_155_0_Layer0_5_FILL">
<path fill="#FFFFFF" stroke="none" d="
M 40.05 63.45
Q 35.75 69.8 35.2 70.8 31.45 77.45 30.65 83.95 30.2 87.5 31.25 92.3 31.95 95.95 33.25 99.45
L 34.85 99.75 39 99.6
Q 45.9 98.55 51.5 92.85 49.4 89.85 46.65 84.25 45.5 82 45.55 79.4 45.5 76.15 47.7 74.85 51.85 72.45 52.9 67.7
L 53.1 63.45 42.1 52 42.05 56.35
Q 41.65 61.1 40.05 63.45 Z"/>
</g>

<g id="Symbol_155_0_Layer0_6_FILL">
<path fill="#FFFFFF" stroke="none" d="
M 39.95 -26.35
Q 38.65 -25.65 37.4 -24.25 34.85 -21.4 34.7 -17.85 34.4 -9.2 45.75 -5.75 46.65 -7.15 47.2 -9.05 48.4 -12.9 46.95 -15.45
L 42.15 -21
Q 39.2 -24 39.95 -26.35 Z"/>
</g>

<g id="Symbol_155_0_Layer0_7_FILL">
<path fill="#FFFFFF" stroke="none" d="
M 28.55 -14.1
Q 26.5 -13.1 24.1 -11.05 22.35 -9.65 21.55 -8.5 19.15 -5.55 16.3 0.25
L 13.95 5.45 10.6 6.85
Q 6.85 9 5.7 12.85 4.6 16.45 6.25 19.7 7.45 22.1 9.8 23.85 12.3 25.7 19.3 27.3 25.85 28.8 29.65 28.7 33.6 28.6 35.8 27.55 39.75 25.75 41.4 20.6
L 46.6 20.75
Q 49 19.55 50 14.55 51.95 4.25 51.45 -1.8 50.6 -12.45 43.05 -14.75 34.7 -17.3 28.55 -14.1 Z"/>
</g>
</defs>

<g transform="matrix( 2, 0, 0, 1.9998779296875, 100.1,433.95) ">
<g transform="matrix( 1, 0, 0, 1, 0,0) ">
<use filter="url(#Filter_1)" xlink:href="#Symbol_155_0_Layer0_0_FILL"/>
</g>

<g transform="matrix( 1, 0, 0, 1, 0,0) ">
<use filter="url(#Filter_1)" xlink:href="#Symbol_155_0_Layer0_1_FILL"/>
</g>

<g transform="matrix( 1, 0, 0, 1, 0,0) ">
<use filter="url(#Filter_1)" xlink:href="#Symbol_155_0_Layer0_2_FILL"/>
</g>

<g transform="matrix( 1, 0, 0, 1, 0,0) ">
<use filter="url(#Filter_1)" xlink:href="#Symbol_155_0_Layer0_3_FILL"/>
</g>

<g transform="matrix( 1, 0, 0, 1, 0,0) ">
<use filter="url(#Filter_1)" xlink:href="#Symbol_155_0_Layer0_4_FILL"/>
</g>

<g transform="matrix( 1, 0, 0, 1, 0,0) ">
<use filter="url(#Filter_1)" xlink:href="#Symbol_155_0_Layer0_5_FILL"/>
</g>

<g transform="matrix( 1, 0, 0, 1, 0,0) ">
<use filter="url(#Filter_1)" xlink:href="#Symbol_155_0_Layer0_6_FILL"/>
</g>

<g transform="matrix( 1, 0, 0, 1, 0,0) ">
<use filter="url(#Filter_1)" xlink:href="#Symbol_155_0_Layer0_7_FILL"/>
</g>
</g>
</svg>
