
<svg xmlns="http://www.w3.org/2000/svg" version="1.1" xmlns:xlink="http://www.w3.org/1999/xlink" preserveAspectRatio="none" x="0px" y="0px" width="330px" height="358px" viewBox="50 364 330 358">
<defs>
<filter id="Filter_1" x="-20%" y="-20%" width="140%" height="140%" color-interpolation-filters="sRGB">
<feColorMatrix in="SourceGraphic" type="matrix" values="0 0 0 0 0.4 0 0 0 0 0.8 0 0 0 0 0.4 0 0 0 1 0" result="result1"/>
</filter>

<g id="Symbol_281_0_Layer0_0_FILL">
<path fill="#FFFFFF" stroke="none" d="
M 82.2 58.35
Q 85.9 55.3 86.95 52.8 88.55 48.9 87.1 44.05 85.45 38.65 80.95 36.05
L 67.05 47.7
Q 64.65 53.2 67.1 59 68.25 61.85 69.85 63.65
L 67.35 70.55
Q 67.05 71.6 61.95 74.25 56.7 77.05 55.15 80.35 53.5 84.05 52 90.55 51.25 93.9 50.85 96.4 57.25 100 64.6 99.7 68.25 99.6 70.65 98.7 68.65 92.6 72.65 85.95 77.5 79.65 78.5 77.65 79.55 75.45 78.75 70.1 77.9 64.25 78.3 62.9 78.8 61.2 82.2 58.35 Z"/>
</g>

<g id="Symbol_281_0_Layer0_1_FILL">
<path fill="#FFFFFF" stroke="none" d="
M 45.4 44.35
L 42.4 48.25
Q 38.8 52.35 36.35 53.5
L 32.4 55.05
Q 29.05 56.5 26.25 58.15 17.8 63.3 15.25 71.3 12.05 81.7 12.25 87.35
L 16.75 89.85
Q 22.5 92.05 28.75 90.65
L 30.55 74.9
Q 30.85 71.35 31.25 70.3 32.1 68 34.45 68.25 38.75 68.7 42.8 64.95
L 46 61.1 45.4 44.35 Z"/>
</g>

<g id="Symbol_281_0_Layer0_2_FILL">
<path fill="#FFFFFF" stroke="none" d="
M 61.7 35.55
L 46.95 12.35
Q 45.75 11.2 43.6 11.1 39.35 10.75 35.05 15.9 31.6 20 31.75 23.95 31.8 26.35 33.05 28.15
L 44.2 45.15
Q 45.65 47.05 49.65 48.05 54.8 49.25 59.2 46.5 63.85 43.55 64.05 40.85 64.15 38.9 61.7 35.55 Z"/>
</g>

<g id="Symbol_281_0_Layer0_3_FILL">
<path fill="#FFFFFF" stroke="none" d="
M 84.95 42.15
Q 85.85 37.75 81.55 35 77.7 32.6 74.2 33.05
L 66.1 35.1
Q 61 36.4 57.5 35.2 51.65 33.3 50.3 33.15 45.25 32.55 40.5 35.85 35 39.7 35.05 48.2 35.1 56.25 39.8 60.05 43.3 62.8 50.95 64 57.6 64.95 63.1 64.25 72.4 63.05 77.55 57.6 80.05 54.85 82.3 49.85 84.15 45.75 84.95 42.15 Z"/>
</g>

<g id="Symbol_281_0_Layer0_4_FILL">
<path fill="#FFFFFF" stroke="none" d="
M 89.3 48.1
Q 89.85 44.1 87.15 40 84.25 35.35 79.2 34.05
L 68.7 48.15
Q 67.8 53.8 71.6 58.5 73.45 60.85 75.5 62.15
L 74.8 69.15
Q 74.75 70.2 70.5 73.85 66.2 77.65 65.5 81.1 64.8 84.9 65.05 91.25 65.15 94.5 65.4 96.95 72.5 98.75 79.55 96.7 83.05 95.75 85.15 94.35 81.65 89.2 83.85 82.1 86.95 75.15 87.35 73.05 87.9 70.8 85.75 66.05 83.45 60.8 83.5 59.45 83.45 57.8 86.1 54.25 88.9 50.65 89.3 48.1 Z"/>
</g>

<g id="Symbol_281_0_Layer0_5_FILL">
<path fill="#FFFFFF" stroke="none" d="
M 39.2 63.3
Q 38.55 64.75 32.35 70.65 26.3 77.55 25.25 84.35 23.9 93.55 25.25 98.35
L 30.65 99.85
Q 37.3 100.95 43.65 98.9 42.95 92.45 42.55 85.3 42.35 82.8 43 80.3 43.6 78.05 45.05 75.05 47.6 69.85 50 65.75
L 51.9 62.65
Q 52.8 60.6 52.85 58.05 53 52.9 48.7 50.25 44 47.4 42.05 48.05 40.65 48.55 40.55 51.35
L 40.65 55.8
Q 40.5 60.75 39.2 63.3 Z"/>
</g>

<g id="Symbol_281_0_Layer0_6_FILL">
<path fill="#FFFFFF" stroke="none" d="
M 36.1 -7.2
L 36.8 -10.75
Q 37.1 -14.75 35.2 -17 34.4 -17.85 29.3 -21.3 25.8 -23.65 26 -26.1 24.9 -25.15 24 -23.5 22.1 -20.25 22.75 -16.7 24.25 -8.2 36.1 -7.2 Z"/>
</g>

<g id="Symbol_281_0_Layer0_7_FILL">
<path fill="#FFFFFF" stroke="none" d="
M 31.55 -15.45
Q 22.85 -16.15 17.5 -11.7 15.65 -10.3 13.8 -7.75 12.4 -6.1 11.8 -4.8 10.05 -1.4 8.55 4.9 7.8 7.95 7.4 10.45
L 4.35 12.55
Q 1.2 15.45 0.85 19.4 0.55 23.15 2.9 26.05 4.6 28.1 7.2 29.3 10 30.6 17.25 30.7
L 27.65 29.85
Q 31.5 28.95 33.4 27.45 36.85 24.8 37.35 19.5 41 19.7 42.5 18.5 44.65 16.85 44.5 11.7 44.25 1.25 42.45 -4.6 39.4 -14.75 31.55 -15.45 Z"/>
</g>
</defs>

<g transform="matrix( 2, 0, 0, 1.9998779296875, 100.1,433.95) ">
<g transform="matrix( 1, 0, 0, 1, 0,0) ">
<use filter="url(#Filter_1)" xlink:href="#Symbol_281_0_Layer0_0_FILL"/>
</g>

<g transform="matrix( 1, 0, 0, 1, 0,0) ">
<use filter="url(#Filter_1)" xlink:href="#Symbol_281_0_Layer0_1_FILL"/>
</g>

<g transform="matrix( 1, 0, 0, 1, 0,0) ">
<use filter="url(#Filter_1)" xlink:href="#Symbol_281_0_Layer0_2_FILL"/>
</g>

<g transform="matrix( 1, 0, 0, 1, 0,0) ">
<use filter="url(#Filter_1)" xlink:href="#Symbol_281_0_Layer0_3_FILL"/>
</g>

<g transform="matrix( 1, 0, 0, 1, 0,0) ">
<use filter="url(#Filter_1)" xlink:href="#Symbol_281_0_Layer0_4_FILL"/>
</g>

<g transform="matrix( 1, 0, 0, 1, 0,0) ">
<use filter="url(#Filter_1)" xlink:href="#Symbol_281_0_Layer0_5_FILL"/>
</g>

<g transform="matrix( 1, 0, 0, 1, 0,0) ">
<use filter="url(#Filter_1)" xlink:href="#Symbol_281_0_Layer0_6_FILL"/>
</g>

<g transform="matrix( 1, 0, 0, 1, 0,0) ">
<use filter="url(#Filter_1)" xlink:href="#Symbol_281_0_Layer0_7_FILL"/>
</g>
</g>
</svg>
