<?xml version="1.0" encoding="UTF-8" standalone="no"?>
<svg
   version="1.1"
   preserveAspectRatio="none"
   x="0px"
   y="0px"
   width="264"
   height="283"
   viewBox="0 0 264 283"
   id="svg1697"
   sodipodi:docname="pony_female_walk_bg_0003.svg"
   xmlns:inkscape="http://www.inkscape.org/namespaces/inkscape"
   xmlns:sodipodi="http://sodipodi.sourceforge.net/DTD/sodipodi-0.dtd"
   xmlns="http://www.w3.org/2000/svg"
   xmlns:svg="http://www.w3.org/2000/svg">
  <sodipodi:namedview
     id="namedview1699"
     pagecolor="#ffffff"
     bordercolor="#000000"
     borderopacity="0.25"
     inkscape:showpageshadow="2"
     inkscape:pageopacity="0.0"
     inkscape:pagecheckerboard="0"
     inkscape:deskcolor="#d1d1d1"
     showgrid="false" />
  <defs
     id="defs1643">
    <filter
       id="Filter_1"
       x="0"
       y="0"
       width="1"
       height="1"
       color-interpolation-filters="sRGB">
      <feColorMatrix
         in="SourceGraphic"
         type="matrix"
         values="0 0 0 0 0 0 0 0 0 0.8 0 0 0 0 0.4 0 0 0 1 0"
         result="result1"
         id="feColorMatrix1610" />
    </filter>
  </defs>
  <path
     fill="#FFFFFF"
     id="path1701"
     d="m -4.5446503,-37.391558 c -0.6669328,0.699744 -1.2673563,1.616574 -1.8011213,2.749702 -1.0675426,2.29959 -1.302083,4.599135 -0.7029612,6.899361 0.1831594,0.680759 0.4148573,1.320149 0.6937429,1.91771 -2.1100305,0.804587 -3.9440771,1.962521 -5.4951401,3.48109 -1.133726,1.032899 -2.251499,2.44896 -3.352184,4.248538 -0.83379,1.199681 -1.40052,2.249345 -1.700863,3.14923 -0.967556,2.332961 -1.785213,5.6327171 -2.453507,9.8991238 -0.334134,2.0998701 -0.568939,3.9826523 -0.702908,5.64926588 l -2.850612,2.34939292 c -1.934132,2.0992597 -2.901401,4.4818813 -2.902419,7.1485444 -9.53e-4,2.499997 0.848176,4.633712 2.547499,6.401025 1.232849,1.267136 2.766166,2.234107 4.599242,2.901472 l 10.0993071,0.554262 c 4.4667879,-0.331629 7.90008051,-0.89666 10.3003825,-1.695743 0.040047,-0.01333 0.076533,-0.02752 0.1162465,-0.04092 l 3.8175622,10.519573 c -3.8815988,2.243421 -6.07616769,6.157235 -6.57911346,11.744498 -0.44736194,5.384779 0.77818372,9.477226 3.67646246,12.27838 0.1056435,0.101763 0.21816,0.202324 0.3308109,0.302054 -0.38042,2.230011 -1.0190293,4.068131 -1.9186316,5.509581 -2.23633,3.598209 -3.6550526,6.063615 -4.2561594,7.396472 -1.3690199,2.832245 -2.2048802,5.881582 -2.507576,9.148046 -0.4709578,5.199686 -0.4417911,9.782985 0.088281,13.750145 1.3661908,0.601134 3.1158764,1.019326 5.24904649,1.254421 C 1.650346,90.30195 3.5241102,90.24466 5.3720555,89.954453 5.1222409,91.633547 4.9130573,93.204498 4.7617604,94.615439 l -0.1659581,1.112253 c -0.186028,1.519118 -0.2452591,2.822868 -0.178031,3.912261 -0.010415,0.645467 -0.00325,1.245077 0.023917,1.788247 l 5.3984628,1.25454 c 4.4663149,0.50369 8.8341069,-0.0597 13.1021779,-1.68953 l 0.168162,-22.75062 c 0.0029,-3.533381 -0.209712,-7.733031 -0.639042,-12.600121 l -0.528761,-6.584922 c 1.251105,0.08284 2.472234,0.110317 3.654295,0.06942 2.091603,-0.07236 4.039801,-0.324471 5.852268,-0.748164 0.04303,0.05891 0.08373,0.11833 0.127786,0.176876 1.032208,1.385278 2.114709,2.416945 3.2475,3.094709 l 0.09454,7.337552 c 0.132118,1.476831 -0.0029,2.984551 -0.404122,4.522473 -0.534887,1.876227 -1.536767,4.13666 -3.005633,6.781244 -1.268662,2.398629 -2.505076,5.874215 -3.708844,10.42645 -0.56855,2.276146 -1.019852,4.321209 -1.354686,6.136071 4.165177,1.880101 8.714122,2.545478 13.647977,1.995773 2.466929,-0.274853 4.534219,-0.750206 6.201465,-1.425663 -0.179909,-0.595505 -0.320079,-1.233375 -0.4291,-1.905772 3.015929,-0.542995 5.923477,-1.589693 8.723421,-3.13563 0.338211,-0.180821 0.674732,-0.367342 1.010244,-0.562687 2.167713,-1.231565 3.869357,-2.480413 5.103751,-3.74608 -0.899326,-0.834087 -1.698919,-1.818471 -2.397995,-2.952397 -0.148601,-0.03793 -0.295175,-0.07402 -0.442298,-0.110724 -1.152901,-2.348534 -1.556287,-5.177096 -1.200053,-8.490895 1.204218,-5.09908 1.823196,-8.364719 1.857711,-9.798045 0.03465,-1.599994 -0.930609,-3.80084 -2.894995,-6.602498 -2.130863,-3.035133 -3.278466,-5.020005 -3.444366,-5.953488 -0.199123,-1.066846 0.335393,-2.966005 1.60433,-5.698331 1.369074,-2.898914 2.021175,-5.198251 1.955909,-6.898329 -0.09775,-2.733453 -1.278833,-5.251402 -3.543636,-7.553301 -2.219914,-2.253223 -4.823521,-3.50367 -7.808546,-3.756721 -1.624842,-0.841553 -3.249797,-1.23514 -4.87508,-1.178911 l -8.259975,1.286261 c -1.322964,0.212057 -2.557873,0.307611 -3.707325,0.287982 -0.20026,-0.711951 -0.47803,-1.49187 -0.847682,-2.354393 L 17.700287,2.3495295 C 17.536167,2.1076683 17.34584,1.8834672 17.132475,1.675182 17.187598,0.81456852 17.157043,-0.15453252 17.04112,-1.2333183 16.277099,-8.166935 15.146605,-13.51698 13.648044,-17.284214 12.015852,-21.432108 9.8557577,-24.27627 7.1696254,-25.818523 6.8286723,-27.131673 6.2238277,-28.206068 5.351938,-29.03804 4.7854755,-29.571589 2.7197318,-30.855429 -0.84615447,-32.890121 -3.3122966,-34.257726 -4.5452734,-35.758227 -4.5446503,-37.391558 Z M 44.718563,58.891731 c 0.01952,0.0057 0.03907,0.01308 0.05858,0.0186 l 0.02033,0.209994 c -0.02939,-0.07964 -0.05304,-0.152814 -0.07891,-0.228598 z"
     style="filter:url(#Filter_1)"
     transform="matrix(1.9999695,-0.00164795,0.00164795,1.9998474,60.35,76.35)" />
</svg>
