
<svg xmlns="http://www.w3.org/2000/svg" version="1.1" xmlns:xlink="http://www.w3.org/1999/xlink" preserveAspectRatio="none" x="0px" y="0px" width="330px" height="358px" viewBox="50 364 330 358">
<defs>
<filter id="Filter_1" x="-20%" y="-20%" width="140%" height="140%" color-interpolation-filters="sRGB">
<feColorMatrix in="SourceGraphic" type="matrix" values="0 0 0 0 0.4 0 0 0 0 0.8 0 0 0 0 0.4 0 0 0 1 0" result="result1"/>
</filter>

<g id="Symbol_113_0_Layer0_0_FILL">
<path fill="#FFFFFF" stroke="none" d="
M 81.9 86.15
Q 85.55 82.25 86.5 80.05 88 76.65 86.2 73.15 84.3 69.35 79.5 68.35
L 66.05 80.7
Q 64 85.5 65.65 89.9 66.5 92.1 67.65 93.3
L 66.5 95.6
Q 65.3 98.25 64.95 99.75
L 62.95 104.65 59.85 111.55
Q 58.4 114.9 57.45 120.95 56.9 123.95 56.7 126.3 63.15 127.85 70.45 126.15 74.1 125.35 76.4 124.15 72.6 116.65 77.95 104.05 78.7 102.25 77.95 97.5 77.05 92.75 77.7 91.35 78.25 90.05 81.9 86.15 Z"/>
</g>

<g id="Symbol_113_0_Layer0_1_FILL">
<path fill="#FFFFFF" stroke="none" d="
M 38.3 74.75
L 35.3 77.85
Q 32.8 80.55 31 83.15 25.5 91 27.05 97.8 29.2 106.55 32.2 110.25
L 37.75 109.65
Q 44.25 108.2 49.5 104
L 43.35 92.3
Q 41.9 89.75 41.75 88.8 41.45 86.8 43.8 85.75 48.15 83.9 50.1 79.25
L 51.2 74.95 42.35 63.8 41.4 68.05
Q 40.05 72.7 38.3 74.75 Z"/>
</g>

<g id="Symbol_113_0_Layer0_2_FILL">
<path fill="#FFFFFF" stroke="none" d="
M 60.8 41
L 55 30.45
Q 53.8 29.3 51.7 29 47.5 28.45 42.9 33.3 39.2 37.2 39.1 41.2 39 43.55 40.2 45.45
L 50.35 63.1
Q 51.75 65.05 55.6 66.3 60.65 67.75 65.25 65.25 70.05 62.6 70.4 59.9 70.65 57.95 68.35 54.45 66.8 52 60.8 41 Z"/>
</g>

<g id="Symbol_113_0_Layer0_3_FILL">
<path fill="#FFFFFF" stroke="none" d="
M 87.45 64.95
Q 85.05 61.15 81.7 60
L 73.55 58.3
Q 68.35 57.2 65.75 54.6
L 60.15 49.6
Q 55.85 46.85 50.2 47.75 43.55 48.75 39.85 56.4 36.35 63.7 38.9 69.15 40.85 73.2 47.25 77.6 52.85 81.4 58.1 83.2 66.95 86.2 73.95 83.5 77.45 82.15 81.65 78.65 85.1 75.75 87.4 72.85 90.1 69.35 87.45 64.95 Z"/>
</g>

<g id="Symbol_113_0_Layer0_4_FILL">
<path fill="#FFFFFF" stroke="none" d="
M 89.7 65.5
Q 86.65 60.95 81.45 60.05
L 71.4 75.85
Q 70.75 81.8 73.75 87.05 75.25 89.65 76.9 91.05
L 76.4 93.95
Q 75.9 97.2 75.95 99.05 76.05 100.7 75.4 105.1
L 74.3 113.65
Q 73.85 117.75 74.65 125.2
L 75.5 131.75
Q 82.6 133.25 89.55 130.75 92.9 129.5 94.95 127.9 88.85 119.05 90.5 103.5 90.7 101.2 88.55 95.5 86.25 89.8 86.45 88.05 86.65 86.45 89.15 81.5 91.75 76.5 92 73.8 92.5 69.55 89.7 65.5 Z"/>
</g>

<g id="Symbol_113_0_Layer0_5_FILL">
<path fill="#FFFFFF" stroke="none" d="
M 39.3 80.35
Q 37.05 83.45 35.45 86.3 30.45 95.15 31.9 102.15 33.95 111.2 36.7 114.85
L 41.75 113.75
Q 47.75 111.65 52.45 106.8 49.9 101.05 46.8 94.95 45.45 92.35 45.3 91.35 45 89.35 47.1 88 51.05 85.6 52.85 80.55
L 53.8 75.9 45.65 64.95 44.8 69.45
Q 43.65 74.45 42 76.8
L 39.3 80.35 Z"/>
</g>

<g id="Symbol_113_0_Layer0_6_FILL">
<path fill="#FFFFFF" stroke="none" d="
M 39.25 -9.75
Q 36.7 -6.9 36.55 -3.35 36.25 5.3 47.6 8.75 48.5 7.35 49.05 5.45 50.25 1.6 48.8 -0.95
L 44 -6.5
Q 41.05 -9.5 41.8 -11.85 40.5 -11.15 39.25 -9.75 Z"/>
</g>

<g id="Symbol_113_0_Layer0_7_FILL">
<path fill="#FFFFFF" stroke="none" d="
M 51.85 29.05
Q 53.8 18.75 53.3 12.7 52.45 2.05 44.9 -0.25 36.55 -2.8 30.4 0.4 28.35 1.4 25.95 3.45 24.2 4.85 23.4 6 21 8.95 18.15 14.75
L 15.8 19.95 12.45 21.35
Q 8.7 23.5 7.55 27.35 6.45 30.95 8.1 34.2 9.3 36.6 11.65 38.35 14.15 40.2 21.15 41.8 27.7 43.3 31.5 43.2 35.5 43.1 37.65 42.05 41.6 40.25 43.25 35.1
L 48.45 35.25
Q 50.85 34.05 51.85 29.05 Z"/>
</g>
</defs>

<g transform="matrix( 2, 0, 0, 1.9998779296875, 100.1,433.95) ">
<g transform="matrix( 1, 0, 0, 1, 0,0) ">
<use filter="url(#Filter_1)" xlink:href="#Symbol_113_0_Layer0_0_FILL"/>
</g>

<g transform="matrix( 1, 0, 0, 1, 0,0) ">
<use filter="url(#Filter_1)" xlink:href="#Symbol_113_0_Layer0_1_FILL"/>
</g>

<g transform="matrix( 1, 0, 0, 1, 0,0) ">
<use filter="url(#Filter_1)" xlink:href="#Symbol_113_0_Layer0_2_FILL"/>
</g>

<g transform="matrix( 1, 0, 0, 1, 0,0) ">
<use filter="url(#Filter_1)" xlink:href="#Symbol_113_0_Layer0_3_FILL"/>
</g>

<g transform="matrix( 1, 0, 0, 1, 0,0) ">
<use filter="url(#Filter_1)" xlink:href="#Symbol_113_0_Layer0_4_FILL"/>
</g>

<g transform="matrix( 1, 0, 0, 1, 0,0) ">
<use filter="url(#Filter_1)" xlink:href="#Symbol_113_0_Layer0_5_FILL"/>
</g>

<g transform="matrix( 1, 0, 0, 1, 0,0) ">
<use filter="url(#Filter_1)" xlink:href="#Symbol_113_0_Layer0_6_FILL"/>
</g>

<g transform="matrix( 1, 0, 0, 1, 0,0) ">
<use filter="url(#Filter_1)" xlink:href="#Symbol_113_0_Layer0_7_FILL"/>
</g>
</g>
</svg>
