
<svg xmlns="http://www.w3.org/2000/svg" version="1.1" xmlns:xlink="http://www.w3.org/1999/xlink" preserveAspectRatio="none" x="0px" y="0px" width="330px" height="358px" viewBox="50 364 330 358">
<defs>
<filter id="Filter_1" x="-20%" y="-20%" width="140%" height="140%" color-interpolation-filters="sRGB">
<feColorMatrix in="SourceGraphic" type="matrix" values="0 0 0 0 0.4 0 0 0 0 0.8 0 0 0 0 0.4 0 0 0 1 0" result="result1"/>
</filter>

<g id="Symbol_239_0_Layer0_0_FILL">
<path fill="#FFFFFF" stroke="none" d="
M 89.35 41.35
Q 87.9 36.1 83.5 33.3
L 69.2 43.8
Q 66.7 48.95 68.85 54.65 69.95 57.45 71.45 59.3
L 68.7 65.8
Q 68.35 66.8 63.2 69.1 57.9 71.45 56.25 74.55 54.4 78 52.7 84.2 51.85 87.35 51.35 89.8 57.6 93.65 64.9 93.75
L 71 93.15
Q 69.15 87.15 73.4 80.95 78.5 75.2 79.5 73.35 80.65 71.25 80.1 66.05 79.5 60.4 79.85 59.05 80.45 57.45 83.95 54.85 87.75 52.15 88.85 49.85 90.6 46.15 89.35 41.35 Z"/>
</g>

<g id="Symbol_239_0_Layer0_1_FILL">
<path fill="#FFFFFF" stroke="none" d="
M 46.95 40.6
L 43.75 44.05
Q 40.05 47.65 37.45 48.55
L 33.35 49.7
Q 29.85 50.8 27 52.15 18.15 56.35 15.4 63.75 11.85 73.3 11.95 78.55
L 16.55 81.25
Q 22.35 83.8 28.8 82.9 30 75.9 31 68.15 31.4 64.9 31.85 63.95 32.8 61.85 35.2 62.3 39.6 63 43.8 59.8
L 47.15 56.35 46.95 40.6 Z"/>
</g>

<g id="Symbol_239_0_Layer0_2_FILL">
<path fill="#FFFFFF" stroke="none" d="
M 63.8 31.75
L 50.45 7.75
Q 49.25 6.6 47.15 6.3 42.95 5.75 38.35 10.6 34.65 14.5 34.55 18.5 34.45 20.85 35.6 22.75
L 45.8 40.4
Q 47.15 42.35 51.05 43.55 56.1 45.05 60.65 42.55 65.5 39.9 65.85 37.2 66.1 35.25 63.8 31.75 Z"/>
</g>

<g id="Symbol_239_0_Layer0_3_FILL">
<path fill="#FFFFFF" stroke="none" d="
M 87.15 39.15
Q 88.2 34.85 83.95 31.95 80.2 29.5 76.65 29.85
L 68.5 31.65
Q 63.4 32.8 59.9 31.55 54.1 29.45 52.75 29.3 47.7 28.5 42.95 31.7 37.3 35.4 37.1 43.85 36.95 52 41.55 55.85 45 58.75 52.6 60.1
L 64.75 60.7
Q 74.05 59.75 79.35 54.45 81.95 51.75 84.35 46.85 86.3 42.75 87.15 39.15 Z"/>
</g>

<g id="Symbol_239_0_Layer0_4_FILL">
<path fill="#FFFFFF" stroke="none" d="
M 89.8 36.95
Q 87.1 32.2 82.15 30.65
L 70.95 44.15
Q 69.75 49.7 73.25 54.65 75 57.15 77 58.5
L 75.95 65.4
Q 75.85 66.45 71.4 69.9 66.85 73.5 66 76.85 65.1 80.6 65 87 64.95 90.25 65.05 92.65 72.1 94.8 79.2 93.2 82.75 92.4 84.95 91.15 81.7 85.8 84.25 78.8 87.7 72.05 88.3 70 88.85 67.75 87.05 62.9 85 57.6 85.1 56.2 85.15 54.5 87.95 51.2 90.95 47.7 91.45 45.15 92.25 41.2 89.8 36.95 Z"/>
</g>

<g id="Symbol_239_0_Layer0_5_FILL">
<path fill="#FFFFFF" stroke="none" d="
M 50.15 46.6
Q 45.6 43.6 43.65 44.15 42.25 44.55 42 47.2
L 41.95 51.55
Q 41.6 56.3 40.2 58.7 39.45 60.1 33.05 65.4 26.75 71.65 25.4 78.25 23.65 87.05 24.75 91.75
L 30.05 93.5
Q 36.7 94.95 43.1 93.3 42.7 87.05 42.55 80.15 42.45 77.7 43.25 75.3 43.95 73.2 45.45 70.4 48.3 65.5 50.8 61.7
L 52.85 58.8
Q 53.85 56.9 54 54.4 54.3 49.45 50.15 46.6 Z"/>
</g>

<g id="Symbol_239_0_Layer0_6_FILL">
<path fill="#FFFFFF" stroke="none" d="
M 38.85 -27.4
Q 35.75 -30.25 36.3 -32.6 35.1 -31.8 33.9 -30.35 31.6 -27.35 31.7 -23.75 32.05 -15.15 43.55 -12.5 44.35 -13.95 44.8 -15.9 45.7 -19.8 44.05 -22.25 43.45 -23.2 38.85 -27.4 Z"/>
</g>

<g id="Symbol_239_0_Layer0_7_FILL">
<path fill="#FFFFFF" stroke="none" d="
M 40.25 -21.25
Q 31.75 -23.25 25.8 -19.6 23.8 -18.45 21.6 -16.25 20 -14.8 19.25 -13.55 17.05 -10.45 14.6 -4.45 13.4 -1.5 12.7 0.9
L 9.35 2.5
Q 5.85 4.95 4.95 8.85 4.1 12.5 5.95 15.65 7.3 17.9 9.8 19.55 12.35 21.2 19.5 22.3
L 29.9 22.95
Q 33.85 22.6 35.95 21.4 39.7 19.3 41 14.1
L 46.25 13.9
Q 48.6 12.55 49.2 7.45 50.45 -2.95 49.5 -8.95 47.95 -19.5 40.25 -21.25 Z"/>
</g>
</defs>

<g transform="matrix( 2, 0, 0, 1.9998779296875, 100.1,433.95) ">
<g transform="matrix( 1, 0, 0, 1, 0,0) ">
<use filter="url(#Filter_1)" xlink:href="#Symbol_239_0_Layer0_0_FILL"/>
</g>

<g transform="matrix( 1, 0, 0, 1, 0,0) ">
<use filter="url(#Filter_1)" xlink:href="#Symbol_239_0_Layer0_1_FILL"/>
</g>

<g transform="matrix( 1, 0, 0, 1, 0,0) ">
<use filter="url(#Filter_1)" xlink:href="#Symbol_239_0_Layer0_2_FILL"/>
</g>

<g transform="matrix( 1, 0, 0, 1, 0,0) ">
<use filter="url(#Filter_1)" xlink:href="#Symbol_239_0_Layer0_3_FILL"/>
</g>

<g transform="matrix( 1, 0, 0, 1, 0,0) ">
<use filter="url(#Filter_1)" xlink:href="#Symbol_239_0_Layer0_4_FILL"/>
</g>

<g transform="matrix( 1, 0, 0, 1, 0,0) ">
<use filter="url(#Filter_1)" xlink:href="#Symbol_239_0_Layer0_5_FILL"/>
</g>

<g transform="matrix( 1, 0, 0, 1, 0,0) ">
<use filter="url(#Filter_1)" xlink:href="#Symbol_239_0_Layer0_6_FILL"/>
</g>

<g transform="matrix( 1, 0, 0, 1, 0,0) ">
<use filter="url(#Filter_1)" xlink:href="#Symbol_239_0_Layer0_7_FILL"/>
</g>
</g>
</svg>
