
<svg xmlns="http://www.w3.org/2000/svg" version="1.1" xmlns:xlink="http://www.w3.org/1999/xlink" preserveAspectRatio="none" x="0px" y="0px" width="330px" height="358px" viewBox="0 0 330 358">
<defs>
<filter id="Filter_1" x="-20%" y="-20%" width="140%" height="140%" color-interpolation-filters="sRGB">
<feColorMatrix in="SourceGraphic" type="matrix" values="0 0 0 0 1 0 0 0 0 0 0 0 0 0 0.4 0 0 0 1 0" result="result1"/>
</filter>

<g id="anims_pony_jump_anim_clean_flats_3_Layer0_0_FILL">
<path fill="#FFFFFF" stroke="none" d="
M 42.8 -4.15
L 40.35 -2
Q 37.9 0.95 37.9 4.5 37.9 5.5419921875 38.05 6.5 35.5080078125 6.757421875 33.3 7.75 31.05 8.75 25.75 13.25 23.15 15.45 21.05 19.6 19.95 21.8 18.35 25.05 17.7 26.05 13.45 29.75 9.75 33 9.5 34.5 9.15 37 9.2 40.4 9.35 44.6 10.2 46.1 11.25 47.85 14.6 50.35 17.95 52.9 19.9 53.45 22.35 54.15 25.25 53.5 28.85 52.65 30.6 49.9
L 34.7 51.3
Q 38.3375 52.1513671875 41.05 51.6 41.20625 51.943359375 41.4 52.25
L 45.65 59.8
Q 42.783984375 62.4505859375 41.25 67.2 39.138671875 73.8357421875 41.3 78.5 40.2169921875 80.7330078125 39 81.95 38.5 82.5 35.85 84.85 33.2 87.4 31.25 89.85 25.25 97.4 26.4 104.25 28 113.1 30.75 117
L 33.15 116.9
Q 33.9958984375 118.976171875 35 120.4
L 40.55 120.15
Q 47.2 119.1 52.65 115.25 50.25 109.45 47.25 103.2 46 100.55 45.9 99.6 45.7 97.6 48.1 96.7 52.55 95.05 54.8 90.55
L 55.3 88.95
Q 59.227734375 90.592578125 62.9 91.3 63.3609375 91.390234375 63.8 91.45 63.8740234375 93.151953125 64.4 94.8 65.15 97.1 66.3 98.45
L 65.05 100.85
Q 63.65 103.55 63.2 105.15 62.85 106.55 61 110.3 58.3 115.7 57.5 117.45 55.95 120.9 54.65 127.25 54 130.4 53.65 132.9 60.2 134.7 67.7 133.15 70.1193359375 132.5865234375 72 131.9 72.0892578125 134.0859375 72.25 135.95 79.15 138.1 86.3 136.2 89.8 135.3 91.95 133.9 86.6 124.55 89.6 109.3 90 107.05 88.3 101.15 86.5 95.35 86.85 93.65 87.2 92.05 90.1 87.45 93.1 82.7 93.65 80 94.5 75.9 92.05 71.6 89.4333984375 66.9482421875 84.55 65.5 83.8953125 65.2890625 83.2 65.15 77.75 64.75 74.9 64.55 72.7953125 64.409765625 71.05 63.95 70.53515625 62.74921875 69.55 61.25 68 58.8 62 47.8
L 56.2 37.25
Q 55.4421875 36.5236328125 54.3 36.1 55.894140625 25.9025390625 55.15 19.95 54.3990234375 13.348046875 51.15 10.05 51.1525390625 8.0169921875 50.2 6.45 49.6 5.45 45.2 1.15 42.15 -1.8 42.8 -4.15
M 76.55 96.65
Q 76.6986328125 96.3412109375 77 95.9
L 76.3 98.55
Q 76.2484375 98.76640625 76.2 98.95 76.201171875 97.3724609375 76.55 96.65 Z"/>
</g>
</defs>

<g transform="matrix( 2, 0, 0, 1.9998779296875, 55.6,72.4) ">
<g transform="matrix( 1, 0, 0, 1, 0.05,-3) ">
<g transform="matrix( 1, 0, 0, 1, 0,0) ">
<use filter="url(#Filter_1)" xlink:href="#anims_pony_jump_anim_clean_flats_3_Layer0_0_FILL"/>
</g>
</g>
</g>
</svg>
