
<svg xmlns="http://www.w3.org/2000/svg" version="1.1" xmlns:xlink="http://www.w3.org/1999/xlink" preserveAspectRatio="none" x="0px" y="0px" width="268px" height="285px" viewBox="0 0 268 285">
<defs>
<filter id="Filter_1" x="-20%" y="-20%" width="140%" height="140%" color-interpolation-filters="sRGB">
<feColorMatrix in="SourceGraphic" type="matrix" values="0 0 0 0 1 0 0 0 0 0 0 0 0 0 0.4 0 0 0 1 0" result="result1"/>
</filter>

<g id="anims_pony_walk_anim_clean_flats_11_Layer0_0_FILL">
<path fill="#FFFFFF" stroke="none" d="
M 42.2 39.55
Q 42.159765625 38.2783203125 41.95 36.95 40.3 26.6 37.75 21.1 35.011328125 14.9931640625 30.85 12.9 30.2541015625 10.9734375 28.9 9.8 28 9 22.55 6.25 18.75 4.35 18.65 1.9
L 16.95 4.75
Q 15.55 8.3 16.6 11.7 16.922265625 12.6908203125 17.35 13.55 15.0203125 14.58203125 13.2 16.2 11.4 17.85 7.7 23.7 5.9 26.6 5.2 31.2 4.8 33.6 4.25 37.25 3.95 38.35 1.05 43.2 -1.5 47.45 -1.3 48.95 -0.85 51.4 0.25 54.7 1.65 58.5 2.95 59.7 4.45 61.05 8.4 62.45 12.4 63.8 14.45 63.75 17 63.7 19.55 62.15 22.75 60.25 23.6 57.1
L 27.85 57.2
Q 27.927734375 57.1935546875 28 57.15
L 30.15 61.95
Q 31.2375 64.40390625 32.05 66.25 26.7345703125 69.523046875 25.75 77.4 24.8 85.45 29 89.8 29.9875 90.8193359375 31.4 91.7 31.61484375 95.0189453125 31.2 97.7 30.75 100.65 27.3 114 24.2 127.65 24.85 135.25
L 30.2 136.5
Q 36.9 137.25 43.35 134.8
L 43.4 131
Q 47.7294921875 129.6384765625 51.3 126.85 51.11484375 126.5466796875 50.9 126.2 51.08671875 126.0890625 51.25 125.95
L 49.25 122.3
Q 48.905078125 122.205078125 48.55 122.1 47.121484375 119.5232421875 45.4 116.25 44.21328125 113.9443359375 43.65 112.25
L 43.65 112.05
Q 43.65 112.016796875 43.65 106.2 43.8427734375 105.7845703125 44.1 105.35 46.7455078125 100.7765625 47.6 96.7 49.668359375 96.95 51.6 96.95 57.1021484375 96.95 61.35 95.25 61.4087890625 95.3138671875 61.45 95.35 62.3595703125 96.145703125 63.25 96.75 64.7658203125 98.86640625 66.3 99.9
L 66.35 100.2 66.05 102.85
Q 65.75 106.1 65.9 107.9 66.05 109.8 64.8 112.75 64.15 114.35 61.2 120.1 59.25 124 57.5 131.4 56.6 135.15 56.1 138.05 61.0189453125 140.48984375 66.65 140.4 68.502734375 140.4435546875 70.4 140.2 74.15 139.7 76.6 138.65 76.23671875 137.277734375 76.05 135.6 76.533203125 135.5638671875 77 135.5 80.6 135 82.9 133.95 80.35 128.45 81.25 118.9 82.7 109.6 82.45 107.55 82.2 105.4 78.95 100.5 76.7451171875 97.2927734375 75.95 95.5 75.9453125 95.428515625 75.95 95.35 76.05 93.7 78.45 88.35 80.8 83 80.95 80.25 81.25 76 78.2 72.45 75.35546875 69.187109375 71.2 68.65 68.9048828125 67.4 66.55 67.4 61.1 68.1 58.25 68.4 56.4755859375 68.621875 54.9 68.55 54.5689453125 67.1009765625 53.5 65.1 52.15 62.45 47.2 50.95
L 42.5 39.9
Q 42.3599609375 39.7265625 42.2 39.55 Z"/>
</g>
</defs>

<g transform="matrix( 2, 0, 0, 1.9998779296875, 9.9,2.9) ">
<g transform="matrix( 1, 0, 0, 1, 0.2,0) ">
<g transform="matrix( 1, 0, 0, 1, 0,0) ">
<use filter="url(#Filter_1)" xlink:href="#anims_pony_walk_anim_clean_flats_11_Layer0_0_FILL"/>
</g>
</g>
</g>
</svg>
