<?xml version="1.0" encoding="UTF-8" standalone="no"?>
<svg
   version="1.1"
   preserveAspectRatio="none"
   x="0px"
   y="0px"
   width="264"
   height="283"
   viewBox="0 0 264 283"
   id="svg3131"
   sodipodi:docname="pony_female_walk_bg_0009.svg"
   xmlns:inkscape="http://www.inkscape.org/namespaces/inkscape"
   xmlns:sodipodi="http://sodipodi.sourceforge.net/DTD/sodipodi-0.dtd"
   xmlns="http://www.w3.org/2000/svg"
   xmlns:svg="http://www.w3.org/2000/svg">
  <sodipodi:namedview
     id="namedview3133"
     pagecolor="#ffffff"
     bordercolor="#000000"
     borderopacity="0.25"
     inkscape:showpageshadow="2"
     inkscape:pageopacity="0.0"
     inkscape:pagecheckerboard="0"
     inkscape:deskcolor="#d1d1d1"
     showgrid="false" />
  <defs
     id="defs3081">
    <filter
       id="Filter_1"
       x="0"
       y="0"
       width="1"
       height="1"
       color-interpolation-filters="sRGB">
      <feColorMatrix
         in="SourceGraphic"
         type="matrix"
         values="0 0 0 0 0 0 0 0 0 0.8 0 0 0 0 0.4 0 0 0 1 0"
         result="result1"
         id="feColorMatrix3051" />
    </filter>
  </defs>
  <path
     fill="#FFFFFF"
     id="path3135"
     d="m -3.700943,-37.392481 c -0.682001,0.685165 -1.3023155,1.588027 -1.8605699,2.709394 -1.1172445,2.27606 -1.4009862,4.570507 -0.8518511,6.883354 0.1684014,0.68477 0.3852431,1.329132 0.6512023,1.932759 -2.127217,0.75869 -3.9862052,1.875614 -5.5699983,3.360336 -1.155944,1.008141 -2.303117,2.400265 -3.442654,4.175676 -0.859674,1.1814 -1.449818,2.21861 -1.76963,3.111833 -1.017997,2.311596 -1.907211,5.5930665 -2.667929,9.8442839 -0.379624,2.0922812 -0.654278,3.9704743 -0.824372,5.63391108 l -2.901973,2.28618092 c -1.979348,2.0569666 -2.998138,4.4189907 -3.056992,7.0851981 -0.05518,2.499569 0.74795,4.651192 2.408666,6.455076 1.205165,1.29367 2.716942,2.293695 4.535246,3.000712 l 10.0854047,0.772839 c 4.4732539,-0.23469 7.9190634,-0.72515 10.3363061,-1.47204 0.1664917,-0.05144 0.3221126,-0.105688 0.4829474,-0.158422 l 3.5909318,9.89522 c -3.8101854,2.016587 -6.1498946,5.704874 -7.0098501,11.074715 -0.817843,5.342216 0.1228184,9.51104 2.8215711,12.506072 0.472076,0.522146 1.0289358,1.025061 1.6651909,1.511659 -0.080183,1.047973 -0.2229659,1.986863 -0.436399,2.802087 -2.54990165,6.451549 -4.7427494,12.420129 -6.578108,17.905065 -3.6196145,10.605197 -5.0353405,18.112867 -4.2483764,22.523652 1.3028456,0.664133 3.0472921,1.166229 5.2337266,1.50615 3.25558996,0.506142 6.5295323,0.447695 9.821387,-0.172944 l 0.2885723,-0.02216 0.010928,0.03672 4.7743396,-0.369367 c 0.2211,-0.03798 0.442111,-0.07845 0.662981,-0.120333 4.123682,-0.608274 8.164061,-1.693225 12.119037,-3.264002 C 24.267186,93.26909 23.971439,92.447257 23.67818,91.601911 23.594963,90.898537 23.354073,90.17035 22.956051,89.418287 21.789362,85.72568 20.690279,81.438892 19.662194,76.529378 18.904604,72.887717 18.840526,68.696042 19.47156,63.953643 c 0.247257,-1.881607 0.428109,-3.354163 0.577252,-4.633759 1.210462,0.161698 2.396264,0.26969 3.549317,0.30943 3.008603,0.103693 5.751753,-0.178604 8.234435,-0.839775 0.06556,0.07806 0.12869,0.156865 0.195915,0.234448 1.293578,1.541562 2.57326,2.682356 3.839076,3.421614 l 0.942226,7.393026 c 0.0851,0.707012 0.117138,1.398748 0.103461,2.076296 -0.360908,1.195881 -1.23207,3.001703 -2.621394,5.426278 -2.195421,3.965419 -3.676292,6.964016 -4.442626,8.996211 -1.608978,4.260949 -3.004023,9.266777 -4.184721,15.017178 4.035949,1.43117 8.465837,1.98033 13.288471,1.64731 l 6.000013,-0.86036 c -0.03276,-0.65105 -0.0357,-1.34668 -0.01533,-2.07886 1.973797,-0.208515 3.650503,-0.549298 5.022422,-1.027196 -1.220821,-3.725248 -1.307348,-8.812436 -0.259579,-15.261563 1.373294,-6.279275 2.075966,-10.095983 2.108391,-11.449869 0.02154,-0.860773 -0.340364,-2.076039 -1.075034,-3.63443 -0.243319,-1.093281 -0.628149,-2.312503 -1.172836,-3.674391 -1.43329,-3.474235 -2.126097,-5.709907 -2.077543,-6.708891 -0.01,-1.168718 0.858515,-3.246018 2.605788,-6.231877 1.890181,-3.179181 2.979266,-5.663063 3.26646,-7.451522 0.47542,-2.914166 -0.357909,-5.692382 -2.499268,-8.333203 -1.836236,-2.332641 -4.163852,-3.810782 -6.980445,-4.4388 -1.413964,-0.777587 -2.852965,-1.192083 -4.317556,-1.242561 l -8.33099,0.713819 C 29.978368,31.434797 28.813664,31.449673 27.7302,31.370286 27.539446,30.48263 27.197237,29.46035 26.700094,28.300351 L 17.699569,2.349513 C 17.540598,2.1152403 17.358624,1.8979041 17.15345,1.6951336 17.19167,0.94890246 17.174348,0.12796543 17.097343,-0.77199059 16.483829,-7.7210514 15.469183,-13.095434 14.052573,-16.89456 c -1.542104,-4.183007 -3.639914,-7.073873 -6.2925048,-8.674049 -0.3124997,-1.319683 -0.8942137,-2.405949 -1.7476076,-3.256389 -0.5547983,-0.545749 -2.5923439,-1.875201 -6.11351995,-3.986906 -2.43607905,-1.420875 -3.63593175,-2.947525 -3.59988365,-4.580577 z"
     style="filter:url(#Filter_1)"
     inkscape:label="path3135"
     transform="matrix(1.9973145,-0.09707642,0.09707642,1.9971924,58.1,78.35)" />
</svg>
