
<svg xmlns="http://www.w3.org/2000/svg" version="1.1" xmlns:xlink="http://www.w3.org/1999/xlink" preserveAspectRatio="none" x="0px" y="0px" width="268px" height="285px" viewBox="0 0 268 285">
<defs>
<filter id="Filter_1" x="-20%" y="-20%" width="140%" height="140%" color-interpolation-filters="sRGB">
<feColorMatrix in="SourceGraphic" type="matrix" values="0 0 0 0 1 0 0 0 0 0 0 0 0 0 0.4 0 0 0 1 0" result="result1"/>
</filter>

<g id="anims_pony_walk_anim_clean_flats_24_Layer0_0_FILL">
<path fill="#FFFFFF" stroke="none" d="
M 81.75 87.15
Q 83.05 82.2 82.8 79.4 82.35 75 78.95 71.55 75.516796875 68.116796875 70.45 67.45 68.2642578125 66.4064453125 66.05 66.5 60.6 67.35 57.75 67.75 55.779296875 68.0560546875 54.05 68 53.7767578125 66.9673828125 53.25 65.7 52.15 63 48.15 51.05
L 44.35 39.7
Q 44.08359375 39.307421875 43.7 38.95 43.7638671875 37.5873046875 43.6 36.15 42.45 25.75 40.2 20.1 37.7498046875 13.8802734375 33.7 11.55 33.2087890625 9.5978515625 31.9 8.35 31.05 7.55 25.7 4.5 22 2.45 22 0
L 20.2 2.75
Q 18.6 6.2 19.5 9.65 19.7720703125 10.6599609375 20.15 11.55 17.780859375 12.462890625 15.9 14 14 15.55 10.05 21.25 8.1 24.05 7.15 28.6 6.65 31 5.95 34.6 5.6 35.7 2.45 40.4 -0.3 44.5 -0.15 46 0.15 48.5 1.1 51.8 2.3 55.75 3.55 57 5 58.4 8.85 60 12.75 61.55 14.8 61.6 17.35 61.65 20 60.25 23.25 58.5 24.25 55.4
L 28.45 55.7 30.2 60.65
Q 31.325390625 63.8501953125 32.1 66.05 26.34140625 69.441015625 25.55 77.75 24.85 85.8 29.2 90 29.7728515625 90.555078125 30.45 91.05 30.2169921875 92.099609375 29.75 92.95 28.85 94.65 23.95 100.15 19.7 106.45 20.45 114.15 20.85 118.45 21.55 121 22.35 124 23.85 126 25.2951171875 126.192578125 27.2 126 25.7521484375 134.358984375 26.75 138.65 27.265625 138.88203125 27.85 139.05 29.6138671875 139.636328125 32.1 139.9
L 32.15 139.9
Q 38.75 140.6 45.25 138.25 45.2146484375 137.7169921875 45.15 137.2
L 45 134
Q 44.980078125 133.984375 44.95 133.95 44.1517578125 120.7513671875 44.8 112.8 45.3814453125 105.1572265625 46.95 96.25 49.5771484375 96.5373046875 52 96.45 55.3544921875 96.3423828125 58.2 95.6 58.3150390625 95.7427734375 58.4 95.85 60 97.9 61.75 98.8
L 61.4 101.65
Q 61.05 104.75 61 106.5 61 108 58.7 112.4 55.85 117.85 54.85 120.7 52.75 126.7 51.35 134.7 57.5 136.45 64.7 135.7 68.233984375 135.307421875 70.55 134.6 76.9314453125 137.034765625 84.25 133.5 87.9 131.75 90.3 129.5 86.45 122.3 86.75 115.2 87.8 108.6 87.55 106.35 87.3 104.05 84.05 99.7 80.75 95.4 80.6 93.7 80.4 92.05 81.75 87.15 Z"/>
</g>
</defs>

<g transform="matrix( 2, 0, 0, 1.9998779296875, 9.9,2.9) ">
<g transform="matrix( 1, 0, 0, 1, 0.2,0) ">
<g transform="matrix( 1, 0, 0, 1, 0,0) ">
<use filter="url(#Filter_1)" xlink:href="#anims_pony_walk_anim_clean_flats_24_Layer0_0_FILL"/>
</g>
</g>
</g>
</svg>
