
<svg xmlns="http://www.w3.org/2000/svg" version="1.1" xmlns:xlink="http://www.w3.org/1999/xlink" preserveAspectRatio="none" x="0px" y="0px" width="268px" height="285px" viewBox="0 0 268 285">
<defs>
<filter id="Filter_1" x="-20%" y="-20%" width="140%" height="140%" color-interpolation-filters="sRGB">
<feColorMatrix in="SourceGraphic" type="matrix" values="0 0 0 0 1 0 0 0 0 0 0 0 0 0 0.4 0 0 0 1 0" result="result1"/>
</filter>

<g id="anims_pony_walk_anim_clean_flats_3_Layer0_0_FILL">
<path fill="#FFFFFF" stroke="none" d="
M 43.5 39
Q 43.5611328125 37.662890625 43.4 36.25 42.25 25.85 40 20.2 37.5498046875 13.9802734375 33.5 11.65 33.0087890625 9.6978515625 31.7 8.45 30.85 7.65 25.5 4.6 21.8 2.55 21.8 0.1
L 20 2.85
Q 18.4 6.35 19.3 9.8 19.5693359375 10.79375 19.95 11.65 17.577734375 12.5953125 15.7 14.15 13.8 15.7 9.85 21.4 7.9 24.2 6.95 28.75 6.45 31.15 5.75 34.75 5.4 35.85 2.25 40.55 -0.5 44.65 -0.35 46.15 0 48.65 0.95 51.95 2.15 55.9 3.4 57.15 4.85 58.55 8.7 60.15 12.6 61.7 14.65 61.75 17.2 61.8 19.85 60.35 23.1 58.6 24.1 55.5
L 28.35 55.8 30.15 60.8
Q 31.2998046875 63.953125 32.1 66.15 26.388671875 69.528515625 25.65 77.85 25 85.9 29.35 90.1 29.6095703125 90.347265625 29.9 90.55 29.458984375 93.7681640625 28.3 95.95 27 98.45 24.6 102.9 22.65 107 20.95 112.5 20.05 115.55 19.85 120.8 19.7 125.5 20.15 128.95 22.2 129.85 25.4 130.2 29.239453125 130.5572265625 32.9 129.65 32.6826171875 131.187890625 32.35 133.1 31.9189453125 136.2904296875 32.2 138.2 32.191015625 138.5068359375 32.15 138.8
L 37.5 140.05
Q 44.2 140.8 50.65 138.35 51.5 126.65 51.15 117.1 50.9 111.45 49.8 104.25 48.9939453125 99.091796875 48.6 96.35 50.4173828125 96.496875 52.15 96.45 55.3294921875 96.3310546875 58.05 95.65 58.2091796875 95.8623046875 58.35 96.05 59.95 98.2 61.65 99.3
L 62.25 106.35
Q 62.45 108.55 61.9 110.85 61.2 113.65 59.05 117.65 57.2 121.25 55.55 128.05 54.8 131.5 54.35 134.2 60.6 137 68 136.2 71.7 135.8 74.2 134.75 73.8177734375 133.5595703125 73.6 132.15 75.2404296875 131.6849609375 76.8 131 78.4818359375 130.3111328125 80.1 129.4 80.326171875 129.2787109375 80.55 129.15 83.85 127.3 85.75 125.4 84.4 124.15 83.4 122.45 83.2150390625 122.4025390625 83 122.35 81.369140625 118.83125 82 113.85 84 106.2 84.1 104.05 84.25 101.65 81.4 97.45 78.3 92.9 78.05 91.5 77.8 89.9 79.8 85.8 82 81.45 82 78.9 81.95 74.8 78.6 71.35 75.4248046875 67.9984375 71 67.6 68.5275390625 66.2953125 66.05 66.4 60.6 67.3 57.8 67.7 55.827734375 68.003515625 54.1 67.95 53.808203125 66.9025390625 53.25 65.6 52.15 62.95 48 51.05
L 44.1 39.7
Q 43.853125 39.3361328125 43.5 39 Z"/>
</g>
</defs>

<g transform="matrix( 2, 0, 0, 1.9998779296875, 9.9,2.9) ">
<g transform="matrix( 1, 0, 0, 1, 0.2,0) ">
<g transform="matrix( 1, 0, 0, 1, 0,0) ">
<use filter="url(#Filter_1)" xlink:href="#anims_pony_walk_anim_clean_flats_3_Layer0_0_FILL"/>
</g>
</g>
</g>
</svg>
