
<svg xmlns="http://www.w3.org/2000/svg" version="1.1" xmlns:xlink="http://www.w3.org/1999/xlink" preserveAspectRatio="none" x="0px" y="0px" width="330px" height="358px" viewBox="0 0 330 358">
<defs>
<filter id="Filter_1" x="-20%" y="-20%" width="140%" height="140%" color-interpolation-filters="sRGB">
<feColorMatrix in="SourceGraphic" type="matrix" values="0 0 0 0 1 0 0 0 0 0 0 0 0 0 0.4 0 0 0 1 0" result="result1"/>
</filter>

<g id="anims_pony_jump_anim_clean_flats_13_Layer0_0_FILL">
<path fill="#FFFFFF" stroke="none" d="
M 15.4 -8
Q 14.45 -5.8 12.9 -2.4 12.3 -1.45 8.2 2.4 4.6 5.8 4.4 7.3 4.15 9.8 4.3 13.2 4.6 17.35 5.55 18.85 6.6 20.55 10 22.95 13.45 25.35 15.45 25.85 17.95 26.45 20.8 25.7 24.4 24.75 26.05 21.95
L 30.15 23.2
Q 33.4423828125 23.83046875 35.95 23.4
L 40.25 30.9
Q 40.8546875 31.9583984375 41.4 32.9 37.2703125 36.6521484375 37.1 43.85 37.0529296875 46.4076171875 37.45 48.55
L 37.45 48.55
Q 36.75 48.85 33.35 49.7 29.85 50.8 27 52.15 18.15 56.35 15.4 63.75 11.85 73.3 11.95 78.55
L 16.55 81.25
Q 20.4349609375 82.9580078125 24.6 83.1 23.976953125 88.4466796875 24.75 91.75
L 30.05 93.5
Q 36.7 94.95 43.1 93.3 42.7 87.05 42.55 80.15 42.45 77.7 43.25 75.3 43.95 73.2 45.45 70.4 48.3 65.5 50.8 61.7
L 52 60
Q 52.30078125 60.046875 52.6 60.1 59.2 61.25 64.75 60.7 68.4017578125 60.326953125 71.4 59.25
L 71.45 59.3 68.7 65.8
Q 68.35 66.8 63.2 69.1 57.9 71.45 56.25 74.55 54.4 78 52.7 84.2 51.85 87.35 51.35 89.8 57.6 93.6 64.9 93.75 67.189453125 93.8126953125 69 93.55 74.0904296875 94.3515625 79.2 93.2 82.75 92.4 84.95 91.15 81.7 85.8 84.25 78.8 87.7 72.05 88.3 70 88.85 67.75 87.05 62.9 85 57.6 85.1 56.2 85.143359375 54.72578125 87.25 52.05 87.7822265625 51.4826171875 88.15 50.9 90.969140625 47.60234375 91.45 45.15 92.25 41.2 89.8 36.95 87.1 32.2 82.15 30.65
L 81.95 30.85
Q 79.2625 29.5923828125 76.65 29.85 71.35 31.05 68.5 31.65 66.1205078125 32.1865234375 64.1 32.2 63.9501953125 31.9787109375 63.8 31.75 62.25 29.3 56.2 18.3
L 50.45 7.75
Q 49.9421875 7.2634765625 49.25 6.9 50.423046875 -3.0302734375 49.55 -8.85 48.543359375 -15.4564453125 45.1 -18.65 45.0767578125 -20.6544921875 44.1 -22.15 43.45 -23.1 38.9 -27.3 35.75 -30.15 36.3 -32.5
L 33.95 -30.25
Q 31.6 -27.25 31.75 -23.65 31.7859375 -22.6216796875 31.95 -21.7 29.426171875 -21.3279296875 27.25 -20.25 25.05 -19.15 19.9 -14.5 17.4 -12.2 15.4 -8
M 36.55 62.4
Q 35.0857421875 63.7142578125 33.05 65.4 31.998046875 66.44375 31.05 67.5 31.446875 64.8009765625 31.85 63.95 32.8 61.85 35.2 62.3 35.8771484375 62.4078125 36.55 62.4 Z"/>
</g>
</defs>

<g transform="matrix( 2, 0, 0, 1.9998779296875, 55.6,72.4) ">
<g transform="matrix( 1, 0, 0, 1, 0.05,-3) ">
<g transform="matrix( 1, 0, 0, 1, 0,0) ">
<use filter="url(#Filter_1)" xlink:href="#anims_pony_jump_anim_clean_flats_13_Layer0_0_FILL"/>
</g>
</g>
</g>
</svg>
