
<svg xmlns="http://www.w3.org/2000/svg" version="1.1" xmlns:xlink="http://www.w3.org/1999/xlink" preserveAspectRatio="none" x="0px" y="0px" width="330px" height="358px" viewBox="0 0 330 358">
<defs>
<filter id="Filter_1" x="-20%" y="-20%" width="140%" height="140%" color-interpolation-filters="sRGB">
<feColorMatrix in="SourceGraphic" type="matrix" values="0 0 0 0 1 0 0 0 0 0 0 0 0 0 0.4 0 0 0 1 0" result="result1"/>
</filter>

<g id="anims_pony_jump_anim_clean_flats_17_Layer0_0_FILL">
<path fill="#FFFFFF" stroke="none" d="
M 17.55 -8.55
Q 15.1544921875 -7.63984375 13.25 -6.1 11.35 -4.6 7.35 1.1 5.4 3.9 4.45 8.45 3.9 10.85 3.2 14.45 2.85 15.55 -0.35 20.2 -3.1 24.3 -2.95 25.8 -2.65 28.3 -1.75 31.6 -0.55 35.55 0.7 36.8 2.15 38.2 5.95 39.85 9.85 41.4 11.9 41.5 14.45 41.55 17.1 40.15 20.4 38.4 21.4 35.35
L 25.7 35.65
Q 29.1470703125 35.5421875 31.5 34.5
L 36.2 40.85
Q 36.3826171875 41.1005859375 36.55 41.35 33.0705078125 45.194140625 33.15 51.95 33.219921875 55.72421875 34.3 58.55 33.31875 59.0138671875 31.55 59.8 28.25 61.45 25.6 63.3 17.45 69 15.25 77.35 12.5 88.1 12.9 93.8
L 17.5 96.2
Q 21.0341796875 97.3677734375 24.7 97.15 24.719140625 101.6310546875 25.6 104.45
L 31.05 105.75
Q 37.75 106.55 44.05 104.1 43.1 97.45 42.35 90.2 42.05 87.6 42.65 84.95 43.15 82.65 44.45 79.5 46.85 73.95 49.05 69.55
L 50.05 67.7
Q 56.240234375 68.503515625 61.4 67.8 64.74453125 67.348046875 67.55 66.3 68.073828125 67.023828125 68.65 67.6
L 66.35 74.65
Q 66.1 75.75 61.15 78.75 56 81.8 54.6 85.2 53.05 88.95 51.85 95.65 51.2 99.05 50.95 101.6 57.45 104.9 64.8 104.3 68.5 104 70.8 102.95 70.47265625 102.0697265625 70.25 101.15 75.005859375 101.3203125 79.65 99.75 83.15 98.6 85.15 97.15 81.45 92.15 83.3 85 86.1 77.9 86.45 75.8 86.8 73.55 84.5 68.85 82 63.8 81.9 62.4 81.86796875 61.3111328125 82.85 59.45 84.577734375 57.5029296875 85.2 55.8
L 85.2 55.75
Q 87.00625 52.871484375 87.25 50.8 87.6 46.75 84.75 42.75 82.30234375 39.2365234375 78.55 37.85 75.293359375 36.1142578125 72.2 36.55 66.9 37.95 64.15 38.65 61.8720703125 39.2306640625 59.9 39.3 59.7853515625 39.162890625 59.65 39 57.8 36.75 50.6 26.5
L 43.65 16.75
Q 42.5345703125 15.80625 40.8 15.65 39.694140625 5.606640625 37.55 0.1 35.1259765625 -6.1330078125 31.1 -8.45 30.6013671875 -10.4287109375 29.3 -11.7 28.45 -12.5 23.1 -15.55 19.4 -17.65 19.45 -20.1
L 17.6 -17.35
Q 16 -13.9 16.9 -10.45 17.166796875 -9.4376953125 17.55 -8.55
M 31.7 75.6
Q 31.21328125 76.216796875 30.75 76.8 30.8716796875 75.891796875 31 75.4 31.712890625 73.1662109375 33.85 73.2 32.89453125 74.294140625 31.7 75.6 Z"/>
</g>
</defs>

<g transform="matrix( 2, 0, 0, 1.9998779296875, 55.6,72.4) ">
<g transform="matrix( 1, 0, 0, 1, 0.05,-3) ">
<g transform="matrix( 1, 0, 0, 1, 0,0) ">
<use filter="url(#Filter_1)" xlink:href="#anims_pony_jump_anim_clean_flats_17_Layer0_0_FILL"/>
</g>
</g>
</g>
</svg>
