
<svg xmlns="http://www.w3.org/2000/svg" version="1.1" xmlns:xlink="http://www.w3.org/1999/xlink" preserveAspectRatio="none" x="0px" y="0px" width="268px" height="285px" viewBox="0 0 268 285">
<defs>
<filter id="Filter_1" x="-20%" y="-20%" width="140%" height="140%" color-interpolation-filters="sRGB">
<feColorMatrix in="SourceGraphic" type="matrix" values="0 0 0 0 1 0 0 0 0 0 0 0 0 0 0.4 0 0 0 1 0" result="result1"/>
</filter>

<g id="anims_pony_walk_anim_clean_flats_8_Layer0_0_FILL">
<path fill="#FFFFFF" stroke="none" d="
M 42.65 39.3
Q 42.6296875 38.0689453125 42.45 36.8 41 26.4 38.6 20.85 35.98828125 14.6826171875 31.9 12.5 31.3287109375 10.5580078125 30 9.35 29.15 8.55 23.7 5.65 19.95 3.7 19.9 1.25
L 18.15 4.05
Q 16.65 7.55 17.65 10.95 17.9482421875 11.9607421875 18.35 12.85 15.9966796875 13.8171875 14.15 15.4 12.3 17 8.5 22.75 6.6 25.6 5.8 30.2 5.35 32.6 4.75 36.25 4.4 37.35 1.4 42.1 -1.25 46.3 -1.05 47.8 -0.7 50.3 0.35 53.55 1.65 57.45 2.95 58.7 4.4 60.05 8.3 61.55 12.25 63 14.3 63 16.85 62.95 19.45 61.5 22.7 59.65 23.6 56.55
L 27.9 56.75
Q 28.028125 56.7419921875 28.15 56.7
L 30.1 61.5
Q 31.20703125 64.177734375 32 66.15 26.5123046875 69.434765625 25.6 77.55 24.8 85.6 29.05 89.9 29.82265625 90.67265625 30.85 91.35 30.811328125 92.95859375 30.55 94.2 27.2 104.05 24.85 112.4 20.2 128.55 21.7 135.1 23.7 136 27 136.35 31.9140625 136.87109375 36.8 135.7 36.944921875 135.6962890625 37.1 135.7 38.84921875 135.615234375 41.45 135.15
L 41.85 135.1
Q 42.1248046875 135.0388671875 42.4 134.95 48.5888671875 133.7642578125 54.45 131.1 53.9458984375 129.97421875 53.45 128.75 53.0220703125 127.673046875 52.6 126.5 50.5884765625 121.0947265625 48.7 113.85 47.3 108.45 47.9 101.3 48.130078125 98.5029296875 48.25 96.6 50.028515625 96.73046875 51.7 96.7 56.2478515625 96.6513671875 59.9 95.45 60.0666015625 95.61171875 60.2 95.75 62.25 98 64.2 99
L 65.5 106.35
Q 65.6779296875 107.395703125 65.7 108.4 65.2533203125 110.2193359375 63.35 113.95 60.35 120.05 59.35 123.15 58.849609375 124.6986328125 58.4 126.35
L 58.1 126.35
Q 56.5 132.4 55.7 138.35 55.9513671875 138.39609375 56.2 138.45 62.2271484375 140.1791015625 69.25 139.35 72.85 139 75.2 138.2 75.1037109375 137.229296875 75.05 136.1 78.025 135.6515625 80.05 134.85 77.95 129.35 79.05 119.65 80.65 110.1 80.6 108.1 80.56953125 106.79140625 79.35 104.5 78.9095703125 102.8884765625 78 100.9 75.6 95.8 75.6 94.3 75.5 92.55 77.9 87.95 80.5 83.05 80.8 80.35 81.3 75.95 77.9 72.15 74.9998046875 68.812890625 70.75 68.05 68.5328125 66.9177734375 66.25 66.95 60.8 67.75 57.95 68.05 56.1158203125 68.314453125 54.5 68.25 54.1623046875 66.996484375 53.35 65.35 52.1 62.7 47.55 51
L 43.15 39.85
Q 42.9234375 39.5587890625 42.65 39.3 Z"/>
</g>
</defs>

<g transform="matrix( 2, 0, 0, 1.9998779296875, 9.9,2.9) ">
<g transform="matrix( 1, 0, 0, 1, 0.2,0) ">
<g transform="matrix( 1, 0, 0, 1, 0,0) ">
<use filter="url(#Filter_1)" xlink:href="#anims_pony_walk_anim_clean_flats_8_Layer0_0_FILL"/>
</g>
</g>
</g>
</svg>
