
<svg xmlns="http://www.w3.org/2000/svg" version="1.1" xmlns:xlink="http://www.w3.org/1999/xlink" preserveAspectRatio="none" x="0px" y="0px" width="330px" height="358px" viewBox="50 364 330 358">
<defs>
<filter id="Filter_1" x="-20%" y="-20%" width="140%" height="140%" color-interpolation-filters="sRGB">
<feColorMatrix in="SourceGraphic" type="matrix" values="0 0 0 0 0.4 0 0 0 0 0.8 0 0 0 0 0.4 0 0 0 1 0" result="result1"/>
</filter>

<g id="Symbol_465_0_Layer0_0_FILL">
<path fill="#FFFFFF" stroke="none" d="
M 65.05 67.75
L 55.35 84.15
Q 54.9 89.9 58.1 94.35 59.7 96.55 61.4 97.55
L 61 100.35
Q 60.65 103.45 60.75 105.15 60.9 106.95 59.6 109.8
L 55.85 116.8
Q 53.85 120.45 52 127.5
L 50.5 133.85
Q 56.7 136.8 64.15 135.85 67.85 135.4 70.35 134.4 68.85 128.85 71.95 118.8 75.5 109 75.65 106.9 75.85 104.7 73.35 99.75 70.9 94.8 71 93.2 71.15 91.65 73.6 86.55 76.05 81.45 76.25 78.85 76.6 74.8 73.6 71.45 70.3 67.75 65.05 67.75 Z"/>
</g>

<g id="Symbol_465_0_Layer0_1_FILL">
<path fill="#FFFFFF" stroke="none" d="
M 29.4 78.6
L 30.15 82.45
Q 30.7 86.9 30.05 89.55 29.5 91.7 23.95 106.45 19 121.45 20.35 127.75
L 25.65 129.15
Q 32.35 130.2 38.9 128.25 38.35 112.85 39.4 104.2 40.15 98.8 41.7 91.45
L 43.15 85.2
Q 43.65 83.15 43.1 80.9 42.05 76.3 37.15 75.25 31.95 74.1 30.2 75.25 28.9 76.1 29.4 78.6 Z"/>
</g>

<g id="Symbol_465_0_Layer0_2_FILL">
<path fill="#FFFFFF" stroke="none" d="
M 38.7 35.65
Q 37.55 34.3 35.4 33.95 31.2 33.3 26.65 38.4 22.9 42.5 22.85 46.75 22.75 49.3 23.95 51.35
L 34.2 70.55
Q 35.55 72.7 39.5 74.05 44.55 75.8 49.1 73.2 53.95 70.45 54.3 67.6 54.5 65.5 52.25 61.7
L 38.7 35.65 Z"/>
</g>

<g id="Symbol_465_0_Layer0_3_FILL">
<path fill="#FFFFFF" stroke="none" d="
M 29.5 87.3
Q 32.6 90.45 39.9 92.35 46.2 94 51.6 93.8 60.65 93.45 66.1 88.35 68.8 85.8 71.45 80.95 73.6 76.95 74.65 73.35 75.9 69 72 65.8 68.55 63 65.1 63.15
L 57.1 64.45
Q 52.1 65.3 48.8 63.75 43.3 61.25 42 61 37.2 59.9 32.4 62.8 26.7 66.2 25.9 74.8 25.3 83 29.5 87.3 Z"/>
</g>

<g id="Symbol_465_0_Layer0_4_FILL">
<path fill="#FFFFFF" stroke="none" d="
M 74.6 67.15
Q 70.35 63.1 65.15 63.1
L 59.7 80.85
Q 60.7 86.95 65.75 90.85 68.25 92.9 70.6 93.6
L 72.3 101.05
Q 72.55 102.2 69.75 107.25 66.8 112.45 67.3 116.2 67.8 120.4 70.05 127.1
L 72.25 132.9
Q 79.55 132.8 85.6 128.7 88.6 126.65 90.15 124.65 85.2 120.2 85 112.2 85.7 104.05 85.45 101.75 85.2 99.3 81.65 94.85 77.85 90 77.4 88.55 76.85 86.75 78.2 82.4 79.65 77.8 79.2 75.1 78.5 70.75 74.6 67.15 Z"/>
</g>

<g id="Symbol_465_0_Layer0_5_FILL">
<path fill="#FFFFFF" stroke="none" d="
M 33.65 83.5
L 34.55 87.85
Q 35.35 92.75 34.8 95.7 34.4 98.1 29.65 114.8 25.55 131.8 27.2 138.7
L 32.55 140
Q 39.2 140.8 45.65 138.2 44.35 121.15 44.95 111.45 45.35 105.4 46.55 97.25
L 47.65 90.25
Q 48 87.9 47.4 85.4 46.15 80.35 41.25 79.4 35.9 78.4 34.25 79.75 33 80.8 33.65 83.5 Z"/>
</g>

<g id="Symbol_465_0_Layer0_6_FILL">
<path fill="#FFFFFF" stroke="none" d="
M 30.3 17.95
Q 30.75 16.35 30.75 14.35 30.75 10.35 28.6 8.3 27.75 7.5 22.4 4.45 18.7 2.4 18.7 -0.05 17.7 1 16.9 2.7 15.3 6.15 16.2 9.6 18.45 17.95 30.3 17.95 Z"/>
</g>

<g id="Symbol_465_0_Layer0_7_FILL">
<path fill="#FFFFFF" stroke="none" d="
M 36.9 20.05
Q 33 10.15 25.1 10.15 16.35 10.15 11.4 15 9.7 16.55 8.05 19.25 6.8 21.05 6.35 22.4 4.9 25.9 3.9 32.3 3.4 35.45 3.2 37.95
L 0.35 40.3
Q -2.55 43.45 -2.55 47.45 -2.55 51.2 0 53.85 1.85 55.75 4.6 56.75
L 14.7 57.3
Q 21.4 56.8 25 55.6 28.75 54.35 30.55 52.7 33.75 49.8 33.85 44.45 37.45 44.35 38.85 43.05 40.85 41.2 40.3 36.1 39.15 25.7 36.9 20.05 Z"/>
</g>
</defs>

<g transform="matrix( 2, 0, 0, 1.9998779296875, 100.1,433.95) ">
<g transform="matrix( 1, 0, 0, 1, 0,0) ">
<use filter="url(#Filter_1)" xlink:href="#Symbol_465_0_Layer0_0_FILL"/>
</g>

<g transform="matrix( 1, 0, 0, 1, 0,0) ">
<use filter="url(#Filter_1)" xlink:href="#Symbol_465_0_Layer0_1_FILL"/>
</g>

<g transform="matrix( 1, 0, 0, 1, 0,0) ">
<use filter="url(#Filter_1)" xlink:href="#Symbol_465_0_Layer0_2_FILL"/>
</g>

<g transform="matrix( 1, 0, 0, 1, 0,0) ">
<use filter="url(#Filter_1)" xlink:href="#Symbol_465_0_Layer0_3_FILL"/>
</g>

<g transform="matrix( 1, 0, 0, 1, 0,0) ">
<use filter="url(#Filter_1)" xlink:href="#Symbol_465_0_Layer0_4_FILL"/>
</g>

<g transform="matrix( 1, 0, 0, 1, 0,0) ">
<use filter="url(#Filter_1)" xlink:href="#Symbol_465_0_Layer0_5_FILL"/>
</g>

<g transform="matrix( 1, 0, 0, 1, 0,0) ">
<use filter="url(#Filter_1)" xlink:href="#Symbol_465_0_Layer0_6_FILL"/>
</g>

<g transform="matrix( 1, 0, 0, 1, 0,0) ">
<use filter="url(#Filter_1)" xlink:href="#Symbol_465_0_Layer0_7_FILL"/>
</g>
</g>
</svg>
