
<svg xmlns="http://www.w3.org/2000/svg" version="1.1" xmlns:xlink="http://www.w3.org/1999/xlink" preserveAspectRatio="none" x="0px" y="0px" width="330px" height="358px" viewBox="0 0 330 358">
<defs>
<filter id="Filter_1" x="-20%" y="-20%" width="140%" height="140%" color-interpolation-filters="sRGB">
<feColorMatrix in="SourceGraphic" type="matrix" values="0 0 0 0 1 0 0 0 0 0 0 0 0 0 0.4 0 0 0 1 0" result="result1"/>
</filter>

<g id="anims_pony_jump_anim_clean_flats_20_Layer0_0_FILL">
<path fill="#FFFFFF" stroke="none" d="
M 83 97.95
Q 83.45 95.35 83.3 94.1 83 91.75 79.4 87.7 75.65 83.35 75.2 82 74.65 80.35 76 76.15 77.45 71.6 76.95 69.05 76.2 64.9 72.35 61.75 68.15 58.25 62.9 58.65
L 62.85 58.75
Q 61.4927734375 58.8603515625 60.25 59.35 55.4 61.95 52.85 63.3 51.51171875 64.0126953125 50.25 64.5 49.4044921875 63.636328125 48.15 62.7 45.85 60.95 36.35 52.7
L 27.3 44.8
Q 25.8 44.1 23.65 44.5 22.96328125 44.667578125 22.3 44.95 17.848046875 35.9353515625 13.9 31.5 9.4412109375 26.507421875 4.85 25.7 3.72734375 24.0533203125 2.1 23.3 1 22.85 -5.1 21.85 -9.25 21.15 -10.05 18.85
L -10.85 22.05
Q -11.15 25.85 -9.1 28.8 -8.51484375 29.633203125 -7.85 30.3 -9.8076171875 32.0021484375 -11.05 34.1 -12.3 36.2 -14.05 42.95 -14.95 46.2 -14.3 50.85 -13.9 53.25 -13.35 56.85 -13.3 58 -14.65 63.5 -15.85 68.3 -15.2 69.7 -14.05 71.9 -12 74.7 -9.55 78 -7.9 78.7 -6.1 79.55 -1.95 79.75 2.3 79.85 4.2 79.2 6.6 78.4 8.65 76.15 11.1 73.4 11 70.15
L 15.15 68.95
Q 18.5873046875 67.5595703125 20.5 65.6
L 25.7 70
Q 26.503515625 70.6787109375 27.2 71.3 23.941015625 76.1197265625 25.75 83.4 26.92265625 87.8900390625 29.2 90.65 28.9638671875 91.862109375 28.6 92.85 27.8 95.15 20.3 110.7 13.25 126.55 13.75 133.4
L 18.9 135.2
Q 22.417578125 135.984765625 26.05 135.85 25.9623046875 137.666796875 26.2 139.05
L 31.45 140.25
Q 38.05 140.95 44.7 138.65 44.8 122.8 46.25 113.85 47.2 108.25 49.05 100.6
L 50.75 94.1
Q 54.075 93.455859375 56.95 92.35 57.621484375 92.0875 58.25 91.8 57.1671875 96.896484375 54.25 108.8 50.5 126.8 52.25 133.8
L 57.5 134.45
Q 64 134.45 70.2 131.15 69.5775390625 124.341015625 69.25 118.65 74.8677734375 118.5490234375 79.55 116.45 82.45 115.15 83.95 113.8 81.3 109.4 82.2 102.8 82.25 102.5 83 97.95
M 70.15 94.4
Q 70.3388671875 95.0748046875 69.55 96.45 69.7033203125 94.8646484375 69.85 93.15
L 70.15 94.4 Z"/>
</g>
</defs>

<g transform="matrix( 2, 0, 0, 1.9998779296875, 55.6,72.4) ">
<g transform="matrix( 1, 0, 0, 1, 0.05,-3) ">
<g transform="matrix( 1, 0, 0, 1, 0,0) ">
<use filter="url(#Filter_1)" xlink:href="#anims_pony_jump_anim_clean_flats_20_Layer0_0_FILL"/>
</g>
</g>
</g>
</svg>
