
<svg xmlns="http://www.w3.org/2000/svg" version="1.1" xmlns:xlink="http://www.w3.org/1999/xlink" preserveAspectRatio="none" x="0px" y="0px" width="330px" height="358px" viewBox="50 364 330 358">
<defs>
<filter id="Filter_1" x="-20%" y="-20%" width="140%" height="140%" color-interpolation-filters="sRGB">
<feColorMatrix in="SourceGraphic" type="matrix" values="0 0 0 0 0.4 0 0 0 0 0.8 0 0 0 0 0.4 0 0 0 1 0" result="result1"/>
</filter>

<g id="Symbol_169_0_Layer0_0_FILL">
<path fill="#FFFFFF" stroke="none" d="
M 84.2 73.6
Q 84.9 71.5 83.15 66.8 81.25 61.8 81.4 60.45 81.55 58.9 84.45 55.85 87.5 52.6 88.05 50.25 89 46.55 86.6 42.45 84.05 37.85 79.15 36.2
L 67.55 48.55
Q 66.3 53.8 69.6 58.55 71.3 60.95 73.25 62.35
L 72.05 68.8
Q 71.85 69.8 67.35 72.95 62.7 76.1 61.8 79.3 60.8 82.8 60.5 88.85
L 60.45 94.2
Q 67.35 96.45 74.5 95.15 78.1 94.55 80.35 93.45 77.2 88.25 79.95 81.8 83.65 75.5 84.2 73.6 Z"/>
</g>

<g id="Symbol_169_0_Layer0_1_FILL">
<path fill="#FFFFFF" stroke="none" d="
M 44.1 44.9
L 41.9 48.65
Q 39.2 52.65 36.8 54.05
L 33.05 56.05
Q 29.85 57.85 27.35 59.7 19.65 65.55 19 72.45 18.35 81.45 20.1 85.85
L 25.5 87
Q 32.2 87.7 38.4 85.3
L 36.25 72.3
Q 35.7 69.45 35.85 68.45 36.15 66.5 38.65 66.2 43.4 65.7 46.7 61.95
L 49.05 58.2 44.1 44.9 Z"/>
</g>

<g id="Symbol_169_0_Layer0_2_FILL">
<path fill="#FFFFFF" stroke="none" d="
M 64.8 35
L 50.25 11.7
Q 49.05 10.55 46.9 10.35 42.7 10.05 38.35 15.15 34.85 19.2 34.95 23.15 34.95 25.55 36.2 27.35
L 47.2 44.45
Q 48.7 46.4 52.65 47.4 57.75 48.65 62.2 45.95 66.9 43.05 67.1 40.3 67.25 38.4 64.8 35 Z"/>
</g>

<g id="Symbol_169_0_Layer0_3_FILL">
<path fill="#FFFFFF" stroke="none" d="
M 87.75 45.8
Q 89.15 41.6 85.2 38.3 81.75 35.5 78.2 35.5
L 69.9 36.55
Q 64.7 37.2 61.35 35.6 55.7 32.95 54.4 32.65 49.45 31.45 44.4 34.1 38.45 37.3 37.45 45.7 36.5 53.75 40.75 58.1 43.85 61.25 51.3 63.35 57.85 65.15 63.4 65.1 72.75 65.05 78.5 60.25 81.35 57.85 84.15 53.15 86.55 49.3 87.75 45.8 Z"/>
</g>

<g id="Symbol_169_0_Layer0_4_FILL">
<path fill="#FFFFFF" stroke="none" d="
M 90.2 48.5
Q 90.55 44.5 87.7 40.55 84.45 36.1 79.35 35.1
L 69.7 49.75
Q 69.15 55.4 73.2 59.9 75.15 62.2 77.3 63.3
L 77 70.35
Q 77 71.35 72.95 75.3 68.8 79.35 68.4 82.8 67.9 86.6 68.5 92.95
L 69.15 98.6
Q 76.35 100 83.25 97.6 86.75 96.45 88.7 94.9 84.9 89.95 86.75 82.75 89.45 75.65 89.75 73.55 90.1 71.25 87.75 66.6 85.15 61.6 85.05 60.2 85 58.5 87.45 54.85 89.95 51.05 90.2 48.5 Z"/>
</g>

<g id="Symbol_169_0_Layer0_5_FILL">
<path fill="#FFFFFF" stroke="none" d="
M 34.2 70
Q 28.5 76.8 27.8 83.45 26.9 92.4 28.45 96.95
L 33.95 98.2
Q 40.6 99 46.85 96.8
L 45.05 83.75
Q 44.75 81.3 45.3 78.85 45.75 76.7 47 73.75 49.35 68.6 51.5 64.55
L 53.3 61.55
Q 54.1 59.5 54.05 57 53.85 52.05 49.4 49.65 44.65 47.05 42.75 47.75 41.35 48.35 41.4 51
L 41.75 55.3
Q 41.8 60.1 40.65 62.65 40.05 64 34.2 70 Z"/>
</g>

<g id="Symbol_169_0_Layer0_6_FILL">
<path fill="#FFFFFF" stroke="none" d="
M 39.9 -28.1
Q 38.6 -27.4 37.35 -26 34.8 -23.15 34.65 -19.6 34.35 -10.95 45.7 -7.5 46.6 -8.9 47.15 -10.8 48.35 -14.65 46.9 -17.2
L 42.1 -22.75
Q 39.15 -25.75 39.9 -28.1 Z"/>
</g>

<g id="Symbol_169_0_Layer0_7_FILL">
<path fill="#FFFFFF" stroke="none" d="
M 28.5 -15.85
Q 26.45 -14.85 24.05 -12.75 22.3 -11.4 21.5 -10.25 19.1 -7.3 16.25 -1.5
L 13.9 3.7 10.55 5.1
Q 6.8 7.25 5.65 11.1 4.55 14.7 6.2 17.95 7.45 20.35 9.75 22.1 12.25 23.95 19.25 25.55 25.8 27.05 29.6 26.95 33.55 26.85 35.75 25.8 39.7 24 41.35 18.9 44.8 19.85 46.55 19 48.95 17.8 49.95 12.8 51.9 2.5 51.4 -3.55 50.55 -14.2 43 -16.5 34.65 -19.05 28.5 -15.85 Z"/>
</g>
</defs>

<g transform="matrix( 2, 0, 0, 1.9998779296875, 100.1,433.95) ">
<g transform="matrix( 1, 0, 0, 1, 0,0) ">
<use filter="url(#Filter_1)" xlink:href="#Symbol_169_0_Layer0_0_FILL"/>
</g>

<g transform="matrix( 1, 0, 0, 1, 0,0) ">
<use filter="url(#Filter_1)" xlink:href="#Symbol_169_0_Layer0_1_FILL"/>
</g>

<g transform="matrix( 1, 0, 0, 1, 0,0) ">
<use filter="url(#Filter_1)" xlink:href="#Symbol_169_0_Layer0_2_FILL"/>
</g>

<g transform="matrix( 1, 0, 0, 1, 0,0) ">
<use filter="url(#Filter_1)" xlink:href="#Symbol_169_0_Layer0_3_FILL"/>
</g>

<g transform="matrix( 1, 0, 0, 1, 0,0) ">
<use filter="url(#Filter_1)" xlink:href="#Symbol_169_0_Layer0_4_FILL"/>
</g>

<g transform="matrix( 1, 0, 0, 1, 0,0) ">
<use filter="url(#Filter_1)" xlink:href="#Symbol_169_0_Layer0_5_FILL"/>
</g>

<g transform="matrix( 1, 0, 0, 1, 0,0) ">
<use filter="url(#Filter_1)" xlink:href="#Symbol_169_0_Layer0_6_FILL"/>
</g>

<g transform="matrix( 1, 0, 0, 1, 0,0) ">
<use filter="url(#Filter_1)" xlink:href="#Symbol_169_0_Layer0_7_FILL"/>
</g>
</g>
</svg>
