
<svg xmlns="http://www.w3.org/2000/svg" version="1.1" xmlns:xlink="http://www.w3.org/1999/xlink" preserveAspectRatio="none" x="0px" y="0px" width="330px" height="358px" viewBox="0 0 330 358">
<defs>
<filter id="Filter_1" x="-20%" y="-20%" width="140%" height="140%" color-interpolation-filters="sRGB">
<feColorMatrix in="SourceGraphic" type="matrix" values="0 0 0 0 1 0 0 0 0 0 0 0 0 0 0.4 0 0 0 1 0" result="result1"/>
</filter>

<g id="anims_pony_jump_anim_clean_flats_25_Layer0_0_FILL">
<path fill="#FFFFFF" stroke="none" d="
M 16.7 45.2
Q 16.1587890625 43.6591796875 14.75 42.7 13.8 42.05 8 39.7 3.95 38.05 3.95 36.1
L 1.95 38.3
Q 0.3 41.05 1.25 43.75 1.5546875 44.5607421875 2 45.25 -0.6046875 46.0146484375 -2.65 47.25 -4.75 48.5 -9 53 -11.1 55.3 -12.15 58.9 -12.65 60.8 -13.4 63.65 -13.75 64.5 -17.2 68.25 -20.15 71.55 -19.95 72.75 -19.65 74.7 -18.6 77.3 -17.25 80.45 -15.9 81.4 -14.3 82.55 -10.15 83.8 -5.9 85 -3.65 85 -0.9 85.05 2 83.9 5.55 82.5 6.6 80.05
L 11.3 80.25
Q 15.1794921875 80.1380859375 17.8 79.25 18.63203125 80.1046875 19.6 80.75
L 28.45 86.9
Q 27.616796875 89.690625 27.95 93.4 28.5287109375 99.1873046875 31.35 102.75 29.2353515625 107.4609375 26.6 110.05 22.55 110.25 20.05 112.45 16.75 115.45 15.2 122.55 14.5 125.7 14.55 128.65 14.6 130.3 14.75 132.8
L 20.3 135.05
Q 23.1380859375 135.891015625 25.85 136.25 26.1263671875 137.3625 26.5 138.75
L 32.4 139.9
Q 39.35 140.6 45.1 138.45 44.15 133 42.35 125.8 41.9 124 42.8 121.8 43 121.15 44.9 117.3 46.45234375 114.1955078125 47.55 109.6 50.2822265625 110.0021484375 52.75 110.05 54.8845703125 114.624609375 61 113.85 55.85 117.9 54.25 122.05 52.8 125.7 52.15 130.4 51.8 132.65 51.75 134.25 56.74296875 136.1703125 62.25 135.9 62.305859375 136.9265625 62.4 137.75 69.2 140.85 76.4 139.9 80.05 139.4 82.25 138.3 79.4 132.15 79.65 123.25 80.6 114.95 80.7 113.8 80.9 111.7 79.5 109.7 77.75 107.45 74.15 105.85 78.1 101.7 79.85 99.25 83.25 94.45 82.8 91.05 82.2 86.75 78.55 83.35 74.9361328125 80.0072265625 70.3 79.65 68.2607421875 79.0615234375 66.35 79.25 61.1 80.55 58.3 81.15 56.6767578125 81.5396484375 55.2 81.65 53.9017578125 80.4439453125 51.65 79.05 48.8 77.2 36.8 68.65
L 27.05 61.7
Q 25.793359375 55.59375 23.85 51.95 21.140234375 47.003125 16.7 45.2 Z"/>
</g>
</defs>

<g transform="matrix( 2, 0, 0, 1.9998779296875, 55.6,72.4) ">
<g transform="matrix( 1, 0, 0, 1, 0.05,-3) ">
<g transform="matrix( 1, 0, 0, 1, 0,0) ">
<use filter="url(#Filter_1)" xlink:href="#anims_pony_jump_anim_clean_flats_25_Layer0_0_FILL"/>
</g>
</g>
</g>
</svg>
