
<svg xmlns="http://www.w3.org/2000/svg" version="1.1" xmlns:xlink="http://www.w3.org/1999/xlink" preserveAspectRatio="none" x="0px" y="0px" width="330px" height="358px" viewBox="0 0 330 358">
<defs>
<filter id="Filter_1" x="-20%" y="-20%" width="140%" height="140%" color-interpolation-filters="sRGB">
<feColorMatrix in="SourceGraphic" type="matrix" values="0 0 0 0 1 0 0 0 0 0 0 0 0 0 0.4 0 0 0 1 0" result="result1"/>
</filter>

<g id="anims_pony_jump_anim_clean_flats_7_Layer0_0_FILL">
<path fill="#FFFFFF" stroke="none" d="
M 39.9 -26.35
L 37.35 -24.2
Q 34.8 -21.35 34.7 -17.8 34.6634765625 -16.749609375 34.8 -15.8 32.240625 -15.6083984375 30 -14.7 27.7 -13.75 22.25 -9.45 19.6 -7.4 17.3 -3.3 16.15 -1.15 14.45 2.1 13.8 3.05 9.4 6.6 5.55 9.75 5.3 11.2 4.85 13.7 4.8 17.1 4.8 21.25 5.6 22.85 6.55 24.55 9.8 27.25 13.1 29.85 15 30.5 17.45 31.3 20.35 30.75 23.95 30 25.9 27.35
L 29.9 28.9
Q 33.7935546875 29.9466796875 36.6 29.35
L 40.5 35.8
Q 41.332421875 37.1734375 42.05 38.35 38.120703125 41.7728515625 37.4 48.5 37.088671875 51.65234375 37.55 54.2 36.1046875 57.0318359375 34.5 58.45 33.95 58.95 31.2 61.05 28.25 63.5 26.2 65.75 19.6 72.95 20.35 79.85 21.2 88.75 23.65 92.9
L 29.25 93.05
Q 30.3150390625 92.97109375 31.35 92.8 32.0423828125 96.1984375 33.25 99.45
L 34.85 99.75
Q 36.85 99.9 39 99.6 45.9 98.55 51.5 92.85 49.4 89.85 46.65 84.25 45.5 82 45.55 79.4 45.5 76.15 47.7 74.85 51.85 72.45 52.9 67.7
L 52.95 66.3
Q 58.6474609375 67.68828125 63.55 67.6 66.4548828125 67.5533203125 69 67.05
L 69.15 71.5
Q 69.25 72.4 65.45 76.15 61.6 80 61.4 83.1 61.15 86.45 62.15 92.05 62.65 94.85 63.25 96.9 67.5841796875 97.3185546875 71.75 96.55 72.1404296875 98.7884765625 72.6 100.55 79.85 101.3 86.6 98.4 89.95 96.95 91.85 95.35 87.75 90.85 89.05 83.7 91.3 76.6 91.45 74.55 91.65 72.25 89 68 86 63.3 85.9 62 85.7 60.35 87.85 56.65 90.2 52.7 90.25 50.25 90.3 46.3 87.15 42.7 86.8724609375 42.37890625 86.55 42.05 85.93984375 41.263671875 85 40.5 81.5 37.7 77.95 37.8 72.5 38.6 69.65 38.95 67.5970703125 39.2490234375 65.8 39.15 65.2857421875 37.8154296875 64.1 36.1 62.45 33.65 56.15 22.8
L 50.35 12.7
Q 51.9037109375 3.73984375 51.45 -1.75 50.915625 -8.4150390625 47.7 -11.8 47.8376953125 -13.8583984375 46.95 -15.45 46.35 -16.45 42.1 -20.9 39.15 -24 39.9 -26.35 Z"/>
</g>
</defs>

<g transform="matrix( 2, 0, 0, 1.9998779296875, 55.6,72.4) ">
<g transform="matrix( 1, 0, 0, 1, 0.05,-3) ">
<g transform="matrix( 1, 0, 0, 1, 0,0) ">
<use filter="url(#Filter_1)" xlink:href="#anims_pony_jump_anim_clean_flats_7_Layer0_0_FILL"/>
</g>
</g>
</g>
</svg>
