
<svg xmlns="http://www.w3.org/2000/svg" version="1.1" xmlns:xlink="http://www.w3.org/1999/xlink" preserveAspectRatio="none" x="0px" y="0px" width="330px" height="358px" viewBox="50 364 330 358">
<defs>
<filter id="Filter_1" x="-20%" y="-20%" width="140%" height="140%" color-interpolation-filters="sRGB">
<feColorMatrix in="SourceGraphic" type="matrix" values="0 0 0 0 0.4 0 0 0 0 0.8 0 0 0 0 0.4 0 0 0 1 0" result="result1"/>
</filter>

<g id="Symbol_35_0_Layer0_0_FILL">
<path fill="#FFFFFF" stroke="none" d="
M 72 97.95
L 77.85 92.6 57.8 92.6
Q 55.95 96.35 55.95 101.1 55.85 110 63.45 109.2 57.5 113.9 55 118.95 52.75 123.45 51.1 129.15
L 49.85 133.95
Q 55.65 137.4 63.2 136.35 67 135.8 69.55 134.6 68.7 127.6 71.85 117.6
L 75.95 106.95
Q 76.85 104.6 76.05 102.35 75.1 99.8 72 97.95 Z"/>
</g>

<g id="Symbol_35_0_Layer0_1_FILL">
<path fill="#FFFFFF" stroke="none" d="
M 40.25 87.1
L 40 88.8
Q 39.05 90.75 35.8 92.2 31.1 94.4 29.55 95.45 25.3 98.1 23.1 101.8 20.95 105.55 19.9 112.7 18.75 120.55 20.4 124.7
L 26.85 125
Q 34.1 124.45 38 120.3 37.5 116 34.95 109.65 33.85 106.8 37.1 103.9 40.15 100.95 43.15 100.8 48.1 100.6 49.75 97.25
L 50.5 94.05 45.4 90.7
Q 40.4 87.4 40.25 87.1 Z"/>
</g>

<g id="Symbol_35_0_Layer0_2_FILL">
<path fill="#FFFFFF" stroke="none" d="
M 49.15 46.2
Q 48.2 44.8 46.15 44.15 42.1 42.9 36.75 46.9 32.4 50.1 31.65 54 31.15 56.3 31.95 58.35
L 38.9 77.5
Q 39.9 79.7 43.55 81.55 48.25 83.9 53.2 82.25 58.4 80.45 59.2 77.85 59.8 76 58.15 72.15
L 49.15 46.2 Z"/>
</g>

<g id="Symbol_35_0_Layer0_3_FILL">
<path fill="#FFFFFF" stroke="none" d="
M 32.7 79.85
Q 31.15 87.75 34.55 92.45 37.1 95.85 43.55 98.45 49.2 100.8 54.15 101.25 62.5 101.95 68.1 97.6 70.85 95.4 73.8 91 76.25 87.35 77.6 83.95 79.25 79.9 76.05 76.3 73.15 73.2 69.95 72.95
L 62.5 73.3
Q 57.8 73.6 54.9 71.7 50.15 68.6 49 68.2 44.65 66.65 39.95 68.85 34.35 71.55 32.7 79.85 Z"/>
</g>

<g id="Symbol_35_0_Layer0_4_FILL">
<path fill="#FFFFFF" stroke="none" d="
M 84.6 95.45
Q 87.7 90.2 86.95 86.5 86.15 82.05 80.9 77.75 75.5 73.3 70.15 73.3
L 65.5 92.25
Q 61.45 97.5 63.7 104.05 66.1 110.95 73.4 110.15 71.25 112.45 69.65 122.95 69 127.3 69.3 132.8
L 69.7 137.45
Q 76.75 140.75 83.9 139.75 87.5 139.2 89.65 138.05 86.35 131.3 86.05 121.6
L 86.45 111.3
Q 86.5 109.05 84.95 106.85 83.05 104.4 79.35 102.65 83.05 98.15 84.6 95.45 Z"/>
</g>

<g id="Symbol_35_0_Layer0_5_FILL">
<path fill="#FFFFFF" stroke="none" d="
M 39.6 89.3
L 39.95 93.4
Q 40.05 97.9 38.95 100.3 38.35 101.65 32.55 107.05 26.85 113.3 26.2 119.6 25.35 128.1 26.95 132.45
L 32.4 133.9
Q 39.1 134.95 45.35 133.05 44.3 127.1 43.4 120.6 43.1 118.25 43.6 115.9 44.1 113.9 45.35 111.15 47.65 106.3 49.8 102.55
L 51.55 99.75
Q 52.35 97.85 52.25 95.5 52.05 90.75 47.6 88.3 42.8 85.6 40.9 86.2 39.55 86.75 39.6 89.3 Z"/>
</g>

<g id="Symbol_35_0_Layer0_6_FILL">
<path fill="#FFFFFF" stroke="none" d="
M 37.65 23.85
Q 38.25 22.25 38.45 20.25 38.8 16.25 36.85 14.05 36.1 13.15 31 9.7 27.45 7.3 27.7 4.85 26.6 5.85 25.65 7.45 23.8 10.7 24.4 14.25 25.85 22.8 37.65 23.85 Z"/>
</g>

<g id="Symbol_35_0_Layer0_7_FILL">
<path fill="#FFFFFF" stroke="none" d="
M 46.1 42.75
Q 45.85 32.3 44.1 26.45 41.05 16.25 33.2 15.6 24.5 14.8 19.1 19.25 17.3 20.65 15.4 23.15 14 24.85 13.45 26.15 11.65 29.5 10.1 35.8 9.35 38.9 8.95 41.35
L 5.9 43.45
Q 2.75 46.35 2.4 50.3 2.05 54.05 4.4 56.95 6.05 59 8.7 60.25 11.5 61.55 18.75 61.65
L 29.15 60.85
Q 33 59.95 34.9 58.45 38.35 55.85 38.9 50.55 42.5 50.75 44.05 49.55 46.2 47.9 46.1 42.75 Z"/>
</g>
</defs>

<g transform="matrix( 2, 0, 0, 1.9998779296875, 100.1,433.95) ">
<g transform="matrix( 1, 0, 0, 1, 0,0) ">
<use filter="url(#Filter_1)" xlink:href="#Symbol_35_0_Layer0_0_FILL"/>
</g>

<g transform="matrix( 1, 0, 0, 1, 0,0) ">
<use filter="url(#Filter_1)" xlink:href="#Symbol_35_0_Layer0_1_FILL"/>
</g>

<g transform="matrix( 1, 0, 0, 1, 0,0) ">
<use filter="url(#Filter_1)" xlink:href="#Symbol_35_0_Layer0_2_FILL"/>
</g>

<g transform="matrix( 1, 0, 0, 1, 0,0) ">
<use filter="url(#Filter_1)" xlink:href="#Symbol_35_0_Layer0_3_FILL"/>
</g>

<g transform="matrix( 1, 0, 0, 1, 0,0) ">
<use filter="url(#Filter_1)" xlink:href="#Symbol_35_0_Layer0_4_FILL"/>
</g>

<g transform="matrix( 1, 0, 0, 1, 0,0) ">
<use filter="url(#Filter_1)" xlink:href="#Symbol_35_0_Layer0_5_FILL"/>
</g>

<g transform="matrix( 1, 0, 0, 1, 0,0) ">
<use filter="url(#Filter_1)" xlink:href="#Symbol_35_0_Layer0_6_FILL"/>
</g>

<g transform="matrix( 1, 0, 0, 1, 0,0) ">
<use filter="url(#Filter_1)" xlink:href="#Symbol_35_0_Layer0_7_FILL"/>
</g>
</g>
</svg>
