<?xml version="1.0" encoding="UTF-8" standalone="no"?>
<svg
   version="1.1"
   preserveAspectRatio="none"
   x="0px"
   y="0px"
   width="264"
   height="283"
   viewBox="0 0 264 283"
   id="svg1843"
   sodipodi:docname="pony_female_walk_bg_0018.svg"
   xmlns:inkscape="http://www.inkscape.org/namespaces/inkscape"
   xmlns:sodipodi="http://sodipodi.sourceforge.net/DTD/sodipodi-0.dtd"
   xmlns="http://www.w3.org/2000/svg"
   xmlns:svg="http://www.w3.org/2000/svg">
  <sodipodi:namedview
     id="namedview1845"
     pagecolor="#ffffff"
     bordercolor="#000000"
     borderopacity="0.25"
     inkscape:showpageshadow="2"
     inkscape:pageopacity="0.0"
     inkscape:pagecheckerboard="0"
     inkscape:deskcolor="#d1d1d1"
     showgrid="false" />
  <defs
     id="defs1789">
    <filter
       id="Filter_1"
       x="0"
       y="0"
       width="1"
       height="1"
       color-interpolation-filters="sRGB">
      <feColorMatrix
         in="SourceGraphic"
         type="matrix"
         values="0 0 0 0 0 0 0 0 0 0.8 0 0 0 0 0.4 0 0 0 1 0"
         result="result1"
         id="feColorMatrix1756" />
    </filter>
  </defs>
  <path
     fill="#FFFFFF"
     id="path1847"
     d="m -3.2093509,-37.452118 c -0.6873465,0.679529 -1.3147083,1.57738 -1.8818404,2.694004 -1.1352673,2.26656 -1.4371836,4.558129 -0.9067521,6.874852 0.1628561,0.685937 0.3748189,1.331472 0.6358542,1.937075 -2.1330697,0.741429 -4.0001189,1.843353 -5.5956208,3.315149 -1.163774,0.998623 -2.322929,2.381449 -3.476462,4.147297 -0.868965,1.174222 -1.467041,2.206179 -1.793953,3.096627 -1.036328,2.302884 -1.951539,5.5758473 -2.746227,9.8199716 -0.396341,2.0887482 -0.686069,3.9640165 -0.869484,5.62570243 l -2.919021,2.26364467 c -1.995412,2.0405921 -3.033185,4.3927494 -3.11344,7.0578677 -0.07524,2.4985486 0.709418,4.6568116 2.355261,6.4736186 1.194496,1.303052 2.698338,2.314632 4.510543,3.036091 l 10.0779387,0.854209 c 4.4741048,-0.198704 7.9215904,-0.661424 10.3442733,-1.388726 0.1503242,-0.04513 0.2912683,-0.09241 0.437011,-0.138626 l 3.5450592,9.767433 c -3.8484584,1.977253 -6.23315464,5.64906 -7.144476,11.026433 -0.8661723,5.333643 0.036919,9.510379 2.70789838,12.52925 0.74310312,0.83707 1.69394342,1.630947 2.85306022,2.381885 0.1914025,1.81962 0.3008362,3.501067 0.3203339,5.032161 -0.3597504,0.835123 -0.7709287,1.581474 -1.235399,2.234539 -2.44893602,3.456914 -4.0135394,5.832349 -4.6938171,7.126556 -1.5370853,2.744595 -2.5550637,5.737994 -3.0539322,8.980236 -0.7832533,5.161783 -1.0301766,9.738433 -0.7400053,13.730244 1.3274807,0.682317 3.0487708,1.205126 5.1638693,1.568271 0.72148648,0.111884 1.4408621,0.186954 2.1589287,0.229902 0.1621439,0.548937 0.3386849,1.095267 0.5318392,1.638157 l 4.9287791,0.501087 c 4.1378126,0.05273 8.3177196,-0.576152 12.5389676,-1.887534 L 18.341128,87.930782 C 17.306074,83.559454 16.531355,79.020322 16.01775,74.31354 15.820061,72.631674 15.72343,70.672156 15.72669,68.434858 l 0.01949,-1.150436 c 0.03469,-1.366221 0.102882,-2.831698 0.202995,-4.390579 0.74053,-1.289992 1.385335,-2.578944 1.933953,-3.865927 1.84133,0.346398 3.622707,0.562974 5.339169,0.637732 4.170281,0.181629 7.839388,-0.381258 11.011711,-1.679593 0.421862,0.733967 0.897964,1.451843 1.435784,2.151362 0.882183,1.20071 1.769671,2.174859 2.661904,2.931819 l 0.132672,2.981605 c 0.0271,0.648919 -1.196066,2.346438 -3.668313,5.09248 -2.614721,2.891437 -3.987267,5.41242 -4.118739,7.561916 -0.148376,2.425859 0.124355,5.601244 0.819292,9.52732 l 1.090657,5.106676 c 0.387403,0.01882 0.773483,0.02734 1.158423,0.03172 -0.615604,2.713318 -1.025024,5.530432 -1.226297,8.452127 3.802923,2.10635 7.900084,3.09865 12.291102,2.98072 0.432172,-0.006 0.866574,-0.0187 1.305007,-0.0454 2.482403,-0.18211 4.543086,-0.57359 6.182829,-1.1746 -1.088675,-4.040652 -1.002431,-9.545676 0.258728,-16.514978 1.550423,-6.784631 2.370589,-10.908696 2.460128,-12.37262 0.09361,-1.530465 -0.818606,-4.09139 -2.73631,-7.681822 -1.915669,-3.623702 -2.839128,-6.000822 -2.769938,-7.132036 0.06715,-1.097943 0.791875,-3.391732 2.174104,-6.880499 1.350994,-3.524073 2.08365,-6.217414 2.19761,-8.080589 0.185185,-3.027661 -0.663541,-5.801226 -2.546552,-8.32088 -1.913489,-2.560945 -4.497966,-4.095938 -7.749591,-4.609909 -1.354793,-0.733177 -2.736052,-1.133418 -4.14376,-1.194728 l -8.334733,0.637895 c -1.196933,0.09696 -2.31505,0.105137 -3.358513,0.02744 -0.186392,-0.908609 -0.534875,-1.960838 -1.04921,-3.160952 L 17.700409,2.3501748 c -0.113315,-0.1669904 -0.243164,-0.323319 -0.379954,-0.4743035 0.05027,-0.7676191 0.04236,-1.61472231 -0.03,-2.54872405 -0.55756,-6.95238245 -1.529596,-12.33396625 -2.915364,-16.14359225 -1.507944,-4.193854 -3.581716,-7.100475 -6.2203262,-8.721717 -0.3017364,-1.322561 -0.8747596,-2.41412 -1.7214444,-3.271541 -0.5502865,-0.550079 -2.5770556,-1.894744 -6.08045659,-4.034244 -2.42410351,-1.440114 -3.61137091,-2.975786 -3.56221471,-4.608171 z"
     style="filter:url(#Filter_1)"
     transform="matrix(1.9962769,-0.12210083,0.12210083,1.9961548,57.55,78.8)" />
</svg>
