
<svg xmlns="http://www.w3.org/2000/svg" version="1.1" xmlns:xlink="http://www.w3.org/1999/xlink" preserveAspectRatio="none" x="0px" y="0px" width="374px" height="389px" viewBox="0 0 374 389">
<defs>
<linearGradient id="Gradient_1" gradientUnits="userSpaceOnUse" x1="28.099999999999998" y1="86.05" x2="26.8" y2="75.64999999999999" spreadMethod="pad">
<stop  offset="2.7450980392156863%" stop-color="#FFFFFF" stop-opacity="0"/>

<stop  offset="76.86274509803921%" stop-color="#FFFFFF" stop-opacity="0.4980392156862745"/>
</linearGradient>

<linearGradient id="Gradient_2" gradientUnits="userSpaceOnUse" x1="25.0375" y1="101.075" x2="40.4625" y2="82.22500000000001" spreadMethod="pad">
<stop  offset="9.803921568627452%" stop-color="#FFFFFF" stop-opacity="0"/>

<stop  offset="43.13725490196079%" stop-color="#FFFFFF" stop-opacity="0.6980392156862745"/>

<stop  offset="61.96078431372549%" stop-color="#FFFFFF" stop-opacity="0.6980392156862745"/>

<stop  offset="92.94117647058823%" stop-color="#FFFFFF" stop-opacity="0"/>
</linearGradient>

<linearGradient id="Gradient_3" gradientUnits="userSpaceOnUse" x1="62.1125" y1="132.9" x2="81.8875" y2="132.9" spreadMethod="pad">
<stop  offset="23.529411764705884%" stop-color="#FFFFFF" stop-opacity="0.6980392156862745"/>

<stop  offset="98.43137254901961%" stop-color="#FFFFFF" stop-opacity="0"/>
</linearGradient>

<linearGradient id="Gradient_4" gradientUnits="userSpaceOnUse" x1="25.737500000000004" y1="132.6875" x2="43.6625" y2="133.5125" spreadMethod="pad">
<stop  offset="23.529411764705884%" stop-color="#FFFFFF" stop-opacity="0.6980392156862745"/>

<stop  offset="98.43137254901961%" stop-color="#FFFFFF" stop-opacity="0"/>
</linearGradient>

<radialGradient id="Gradient_5" gradientUnits="userSpaceOnUse" cx="0" cy="0" r="8.5125" fx="0" fy="0" gradientTransform="matrix( 1, 0, 0, -1, 8.55,8.55) " spreadMethod="pad">
<stop  offset="29.41176470588235%" stop-color="#FFFFFF" stop-opacity="0.6"/>

<stop  offset="100%" stop-color="#FFFFFF" stop-opacity="0"/>
</radialGradient>

<linearGradient id="Gradient_6" gradientUnits="userSpaceOnUse" x1="-3.5" y1="70.1" x2="-15.100000000000001" y2="66.4" spreadMethod="pad">
<stop  offset="38.8235294117647%" stop-color="#FFFFFF" stop-opacity="0"/>

<stop  offset="70.98039215686275%" stop-color="#FFFFFF" stop-opacity="0.6980392156862745"/>
</linearGradient>

<linearGradient id="Gradient_7" gradientUnits="userSpaceOnUse" x1="-12.462499999999999" y1="80.0625" x2="-11.9375" y2="86.73750000000001" spreadMethod="pad">
<stop  offset="17.254901960784313%" stop-color="#FFFFFF" stop-opacity="0.2"/>

<stop  offset="88.62745098039215%" stop-color="#FFFFFF" stop-opacity="0.6980392156862745"/>
</linearGradient>

<linearGradient id="Gradient_8" gradientUnits="userSpaceOnUse" x1="10.9375" y1="78.3" x2="5.0625" y2="74.8" spreadMethod="pad">
<stop  offset="0%" stop-color="#FFFFFF" stop-opacity="0"/>

<stop  offset="100%" stop-color="#FFFFFF" stop-opacity="0.6980392156862745"/>
</linearGradient>

<linearGradient id="Gradient_9" gradientUnits="userSpaceOnUse" x1="20.237499999999997" y1="6.050000000000001" x2="41.0625" y2="34.05" spreadMethod="pad">
<stop  offset="2.3529411764705883%" stop-color="#F22698"/>

<stop  offset="12.549019607843137%" stop-color="#F32E9A"/>

<stop  offset="24.313725490196077%" stop-color="#F343A0"/>

<stop  offset="36.86274509803921%" stop-color="#F55FAB"/>

<stop  offset="49.80392156862745%" stop-color="#F683B9"/>

<stop  offset="69.41176470588235%" stop-color="#FEF1F7"/>

<stop  offset="75.29411764705883%" stop-color="#BCDF9D"/>

<stop  offset="79.6078431372549%" stop-color="#8DD15E"/>

<stop  offset="81.96078431372548%" stop-color="#7BCB46"/>

<stop  offset="85.88235294117646%" stop-color="#60C54B"/>

<stop  offset="92.15686274509804%" stop-color="#20BA54"/>
</linearGradient>

<linearGradient id="Gradient_10" gradientUnits="userSpaceOnUse" x1="0.6624999999999996" y1="12.65" x2="22.0375" y2="12.65" spreadMethod="pad">
<stop  offset="24.313725490196077%" stop-color="#37B8ED"/>

<stop  offset="50.98039215686274%" stop-color="#A3DBED"/>

<stop  offset="81.17647058823529%" stop-color="#37B8ED"/>
</linearGradient>

<linearGradient id="Gradient_11" gradientUnits="userSpaceOnUse" x1="1.3125" y1="15.1" x2="24.9875" y2="15.1" spreadMethod="pad">
<stop  offset="0%" stop-color="#37B8ED"/>

<stop  offset="27.84313725490196%" stop-color="#FEF1F7"/>

<stop  offset="43.13725490196079%" stop-color="#F57BB5"/>

<stop  offset="49.411764705882355%" stop-color="#F45EA9"/>

<stop  offset="56.470588235294116%" stop-color="#F342A0"/>

<stop  offset="63.529411764705884%" stop-color="#F22E9A"/>

<stop  offset="69.41176470588235%" stop-color="#F22698"/>

<stop  offset="76.07843137254902%" stop-color="#F32E9A"/>

<stop  offset="83.92156862745098%" stop-color="#F343A0"/>

<stop  offset="91.76470588235294%" stop-color="#F55FAB"/>

<stop  offset="100%" stop-color="#F683B9"/>
</linearGradient>

<linearGradient id="Gradient_12" gradientUnits="userSpaceOnUse" x1="26.95" y1="19.762500000000003" x2="23.150000000000002" y2="39.4375" spreadMethod="pad">
<stop  offset="24.313725490196077%" stop-color="#37B8ED"/>

<stop  offset="50.98039215686274%" stop-color="#A3DBED"/>

<stop  offset="81.17647058823529%" stop-color="#37B8ED"/>
</linearGradient>

<linearGradient id="Gradient_13" gradientUnits="userSpaceOnUse" x1="22.9375" y1="22.975" x2="33.4625" y2="44.925000000000004" spreadMethod="pad">
<stop  offset="3.5294117647058822%" stop-color="#F351A2"/>

<stop  offset="6.666666666666667%" stop-color="#DE5DA9"/>

<stop  offset="24.313725490196077%" stop-color="#619FD9"/>

<stop  offset="32.15686274509804%" stop-color="#37B8ED"/>

<stop  offset="47.450980392156865%" stop-color="#FEF1F7"/>

<stop  offset="69.41176470588235%" stop-color="#F22698"/>

<stop  offset="76.07843137254902%" stop-color="#F32E9A"/>

<stop  offset="83.52941176470588%" stop-color="#F343A0"/>

<stop  offset="91.76470588235294%" stop-color="#F55FAB"/>

<stop  offset="100%" stop-color="#F683B9"/>
</linearGradient>

<linearGradient id="Gradient_14" gradientUnits="userSpaceOnUse" x1="30.762500000000003" y1="23.225" x2="12.8375" y2="4.174999999999999" spreadMethod="pad">
<stop  offset="0%" stop-color="#37B8ED"/>

<stop  offset="27.84313725490196%" stop-color="#FEF1F7"/>

<stop  offset="43.13725490196079%" stop-color="#F57BB5"/>

<stop  offset="49.411764705882355%" stop-color="#F45EA9"/>

<stop  offset="56.470588235294116%" stop-color="#F342A0"/>

<stop  offset="63.529411764705884%" stop-color="#F22E9A"/>

<stop  offset="69.41176470588235%" stop-color="#F22698"/>

<stop  offset="76.07843137254902%" stop-color="#F32E9A"/>

<stop  offset="83.92156862745098%" stop-color="#F343A0"/>

<stop  offset="91.76470588235294%" stop-color="#F55FAB"/>

<stop  offset="100%" stop-color="#F683B9"/>
</linearGradient>

<linearGradient id="Gradient_15" gradientUnits="userSpaceOnUse" x1="12.812499999999998" y1="6.1625" x2="26.487499999999997" y2="25.637500000000003" spreadMethod="pad">
<stop  offset="2.3529411764705883%" stop-color="#F22698"/>

<stop  offset="12.549019607843137%" stop-color="#F32E9A"/>

<stop  offset="24.313725490196077%" stop-color="#F343A0"/>

<stop  offset="36.86274509803921%" stop-color="#F55FAB"/>

<stop  offset="49.80392156862745%" stop-color="#F683B9"/>

<stop  offset="69.41176470588235%" stop-color="#FEF1F7"/>

<stop  offset="75.29411764705883%" stop-color="#BCDF9D"/>

<stop  offset="79.6078431372549%" stop-color="#8DD15E"/>

<stop  offset="81.96078431372548%" stop-color="#7BCB46"/>

<stop  offset="85.88235294117646%" stop-color="#60C54B"/>

<stop  offset="92.15686274509804%" stop-color="#20BA54"/>
</linearGradient>

<linearGradient id="Gradient_16" gradientUnits="userSpaceOnUse" x1="0.1875" y1="5.15" x2="26.1125" y2="5.15" spreadMethod="pad">
<stop  offset="24.313725490196077%" stop-color="#01BA45"/>

<stop  offset="50.98039215686274%" stop-color="#A3DBED"/>

<stop  offset="81.17647058823529%" stop-color="#01BA45"/>
</linearGradient>

<linearGradient id="Gradient_17" gradientUnits="userSpaceOnUse" x1="13.3625" y1="7.175000000000001" x2="33.7375" y2="38.525000000000006" spreadMethod="pad">
<stop  offset="0%" stop-color="#39BD48"/>

<stop  offset="27.84313725490196%" stop-color="#FEF1F7"/>

<stop  offset="43.13725490196079%" stop-color="#F57BB5"/>

<stop  offset="49.411764705882355%" stop-color="#F45EA9"/>

<stop  offset="56.470588235294116%" stop-color="#F342A0"/>

<stop  offset="63.529411764705884%" stop-color="#F22E9A"/>

<stop  offset="69.41176470588235%" stop-color="#F22698"/>

<stop  offset="76.07843137254902%" stop-color="#F32E9A"/>

<stop  offset="83.92156862745098%" stop-color="#F343A0"/>

<stop  offset="91.76470588235294%" stop-color="#F55FAB"/>

<stop  offset="100%" stop-color="#F683B9"/>
</linearGradient>

<linearGradient id="Gradient_18" gradientUnits="userSpaceOnUse" x1="29.1" y1="26.637500000000003" x2="19.6" y2="6.5625" spreadMethod="pad">
<stop  offset="28.627450980392158%" stop-color="#D6018F"/>

<stop  offset="80.7843137254902%" stop-color="#01843F"/>
</linearGradient>

<linearGradient id="Gradient_19" gradientUnits="userSpaceOnUse" x1="14.1" y1="21.975" x2="6.1" y2="8.725" spreadMethod="pad">
<stop  offset="0%" stop-color="#37B8ED"/>

<stop  offset="27.84313725490196%" stop-color="#FEF1F7"/>

<stop  offset="43.13725490196079%" stop-color="#F57BB5"/>

<stop  offset="49.411764705882355%" stop-color="#F45EA9"/>

<stop  offset="56.470588235294116%" stop-color="#F342A0"/>

<stop  offset="63.529411764705884%" stop-color="#F22E9A"/>

<stop  offset="69.41176470588235%" stop-color="#F22698"/>

<stop  offset="76.07843137254902%" stop-color="#F32E9A"/>

<stop  offset="83.92156862745098%" stop-color="#F343A0"/>

<stop  offset="91.76470588235294%" stop-color="#F55FAB"/>

<stop  offset="100%" stop-color="#F683B9"/>
</linearGradient>

<linearGradient id="Gradient_20" gradientUnits="userSpaceOnUse" x1="4.612500000000001" y1="-0.2500000000000018" x2="12.4875" y2="22.450000000000003" spreadMethod="pad">
<stop  offset="2.3529411764705883%" stop-color="#F22698"/>

<stop  offset="12.549019607843137%" stop-color="#F32E9A"/>

<stop  offset="24.313725490196077%" stop-color="#F343A0"/>

<stop  offset="36.86274509803921%" stop-color="#F55FAB"/>

<stop  offset="49.80392156862745%" stop-color="#F683B9"/>

<stop  offset="69.41176470588235%" stop-color="#FEF1F7"/>

<stop  offset="75.29411764705883%" stop-color="#BCDF9D"/>

<stop  offset="79.6078431372549%" stop-color="#8DD15E"/>

<stop  offset="81.96078431372548%" stop-color="#7BCB46"/>

<stop  offset="85.88235294117646%" stop-color="#60C54B"/>

<stop  offset="92.15686274509804%" stop-color="#20BA54"/>
</linearGradient>

<linearGradient id="Gradient_21" gradientUnits="userSpaceOnUse" x1="3.625" y1="10.5125" x2="13.875" y2="19.8875" spreadMethod="pad">
<stop  offset="28.627450980392158%" stop-color="#D6018F"/>

<stop  offset="70.19607843137256%" stop-color="#01843F"/>
</linearGradient>

<linearGradient id="Gradient_22" gradientUnits="userSpaceOnUse" x1="4.987499999999999" y1="8.6" x2="17.2125" y2="8.6" spreadMethod="pad">
<stop  offset="24.313725490196077%" stop-color="#D458A6"/>

<stop  offset="50.98039215686274%" stop-color="#E5B2D6"/>

<stop  offset="81.17647058823529%" stop-color="#D458A6"/>
</linearGradient>

<linearGradient id="Gradient_23" gradientUnits="userSpaceOnUse" x1="3.5" y1="7.2" x2="16.8" y2="7.2" spreadMethod="pad">
<stop  offset="24.313725490196077%" stop-color="#37B8ED"/>

<stop  offset="50.98039215686274%" stop-color="#A3DBED"/>

<stop  offset="81.17647058823529%" stop-color="#37B8ED"/>
</linearGradient>

<linearGradient id="Gradient_24" gradientUnits="userSpaceOnUse" x1="4.274999999999999" y1="8.8375" x2="20.425" y2="23.762500000000003" spreadMethod="pad">
<stop  offset="3.5294117647058822%" stop-color="#F351A2"/>

<stop  offset="6.666666666666667%" stop-color="#DE5DA9"/>

<stop  offset="24.313725490196077%" stop-color="#619FD9"/>

<stop  offset="32.15686274509804%" stop-color="#37B8ED"/>

<stop  offset="47.450980392156865%" stop-color="#FEF1F7"/>

<stop  offset="69.41176470588235%" stop-color="#F22698"/>

<stop  offset="76.07843137254902%" stop-color="#F32E9A"/>

<stop  offset="83.52941176470588%" stop-color="#F343A0"/>

<stop  offset="91.76470588235294%" stop-color="#F55FAB"/>

<stop  offset="100%" stop-color="#F683B9"/>
</linearGradient>

<linearGradient id="Gradient_25" gradientUnits="userSpaceOnUse" x1="9.325" y1="17.700000000000003" x2="2.575" y2="2.4000000000000004" spreadMethod="pad">
<stop  offset="0%" stop-color="#39BD48"/>

<stop  offset="27.84313725490196%" stop-color="#FEF1F7"/>

<stop  offset="43.13725490196079%" stop-color="#F57BB5"/>

<stop  offset="49.411764705882355%" stop-color="#F45EA9"/>

<stop  offset="56.470588235294116%" stop-color="#F342A0"/>

<stop  offset="63.529411764705884%" stop-color="#F22E9A"/>

<stop  offset="69.41176470588235%" stop-color="#F22698"/>

<stop  offset="76.07843137254902%" stop-color="#F32E9A"/>

<stop  offset="83.92156862745098%" stop-color="#F343A0"/>

<stop  offset="91.76470588235294%" stop-color="#F55FAB"/>

<stop  offset="100%" stop-color="#F683B9"/>
</linearGradient>

<linearGradient id="Gradient_26" gradientUnits="userSpaceOnUse" x1="5.512500000000001" y1="10.2375" x2="11.0875" y2="17.7625" spreadMethod="pad">
<stop  offset="28.627450980392158%" stop-color="#D6018F"/>

<stop  offset="80.7843137254902%" stop-color="#01843F"/>
</linearGradient>

<linearGradient id="Gradient_27" gradientUnits="userSpaceOnUse" x1="7.8125" y1="2.875" x2="18.9875" y2="11.125" spreadMethod="pad">
<stop  offset="0%" stop-color="#20BA54"/>

<stop  offset="22.745098039215687%" stop-color="#FEF1F7"/>

<stop  offset="23.137254901960784%" stop-color="#F6EFED"/>

<stop  offset="25.098039215686274%" stop-color="#D9E7C5"/>

<stop  offset="27.058823529411764%" stop-color="#C0E0A2"/>

<stop  offset="29.41176470588235%" stop-color="#AADA85"/>

<stop  offset="31.764705882352942%" stop-color="#99D46E"/>

<stop  offset="34.509803921568626%" stop-color="#8CD05C"/>

<stop  offset="38.03921568627451%" stop-color="#82CD4F"/>

<stop  offset="42.745098039215684%" stop-color="#7DCB48"/>

<stop  offset="53.72549019607843%" stop-color="#7BCB46"/>

<stop  offset="59.6078431372549%" stop-color="#96AF57"/>

<stop  offset="71.37254901960785%" stop-color="#D06580"/>

<stop  offset="71.37254901960785%" stop-color="#D06580" stop-opacity="0"/>

<stop  offset="100%" stop-color="#000000" stop-opacity="0"/>
</linearGradient>

<linearGradient id="Gradient_28" gradientUnits="userSpaceOnUse" x1="7.8125" y1="2.875" x2="18.9875" y2="11.125" spreadMethod="pad">
<stop  offset="0%" stop-color="#000000" stop-opacity="0"/>

<stop  offset="71.37254901960785%" stop-color="#D06580" stop-opacity="0"/>

<stop  offset="71.37254901960785%" stop-color="#D06580"/>

<stop  offset="78.43137254901961%" stop-color="#F22698"/>

<stop  offset="83.13725490196079%" stop-color="#F32E9A"/>

<stop  offset="88.62745098039215%" stop-color="#F343A0"/>

<stop  offset="94.11764705882354%" stop-color="#F55FAB"/>

<stop  offset="100%" stop-color="#F683B9"/>
</linearGradient>

<linearGradient id="Gradient_29" gradientUnits="userSpaceOnUse" x1="3.112499999999999" y1="12.95" x2="26.2875" y2="12.95" spreadMethod="pad">
<stop  offset="18.03921568627451%" stop-color="#1C8BB4"/>

<stop  offset="34.11764705882353%" stop-color="#AEDFF0"/>

<stop  offset="47.450980392156865%" stop-color="#F57BB5"/>

<stop  offset="49.411764705882355%" stop-color="#EF58A6"/>

<stop  offset="52.15686274509804%" stop-color="#E92F98"/>

<stop  offset="54.90196078431372%" stop-color="#E5018E"/>

<stop  offset="57.64705882352941%" stop-color="#E20188"/>

<stop  offset="59.6078431372549%" stop-color="#E10186"/>

<stop  offset="62.745098039215684%" stop-color="#E20188"/>

<stop  offset="65.88235294117646%" stop-color="#E5018F"/>

<stop  offset="69.41176470588235%" stop-color="#E93099"/>

<stop  offset="72.94117647058823%" stop-color="#F05AA8"/>

<stop  offset="76.07843137254902%" stop-color="#F683B9"/>

<stop  offset="98.82352941176471%" stop-color="#E3098C"/>
</linearGradient>

<linearGradient id="Gradient_30" gradientUnits="userSpaceOnUse" x1="6.8875" y1="10.6875" x2="20.212500000000002" y2="24.512500000000003" spreadMethod="pad">
<stop  offset="0%" stop-color="#37B8ED"/>

<stop  offset="27.84313725490196%" stop-color="#FEF1F7"/>

<stop  offset="43.13725490196079%" stop-color="#F57BB5"/>

<stop  offset="49.411764705882355%" stop-color="#F45EA9"/>

<stop  offset="56.470588235294116%" stop-color="#F342A0"/>

<stop  offset="63.529411764705884%" stop-color="#F22E9A"/>

<stop  offset="69.41176470588235%" stop-color="#F22698"/>

<stop  offset="76.07843137254902%" stop-color="#F32E9A"/>

<stop  offset="83.92156862745098%" stop-color="#F343A0"/>

<stop  offset="91.76470588235294%" stop-color="#F55FAB"/>

<stop  offset="100%" stop-color="#F683B9"/>
</linearGradient>

<linearGradient id="Gradient_31" gradientUnits="userSpaceOnUse" x1="0.07499999999999929" y1="4.65" x2="17.125" y2="4.65" spreadMethod="pad">
<stop  offset="24.313725490196077%" stop-color="#D458A6"/>

<stop  offset="50.98039215686274%" stop-color="#E5B2D6"/>

<stop  offset="81.17647058823529%" stop-color="#D458A6"/>
</linearGradient>

<linearGradient id="Gradient_32" gradientUnits="userSpaceOnUse" x1="17.4875" y1="2.2374999999999994" x2="9.3125" y2="6.9625" spreadMethod="pad">
<stop  offset="10.980392156862745%" stop-color="#F683B9"/>

<stop  offset="58.03921568627451%" stop-color="#FEF1F7"/>

<stop  offset="58.8235294117647%" stop-color="#FBF0F3"/>

<stop  offset="78.43137254901961%" stop-color="#B6DD96"/>

<stop  offset="92.15686274509804%" stop-color="#8CD05C"/>

<stop  offset="98.82352941176471%" stop-color="#7BCB46"/>
</linearGradient>

<linearGradient id="Gradient_33" gradientUnits="userSpaceOnUse" x1="0.025000000000000355" y1="9.4" x2="18.775" y2="9.4" spreadMethod="pad">
<stop  offset="24.313725490196077%" stop-color="#01BA45"/>

<stop  offset="50.98039215686274%" stop-color="#A3DBED"/>

<stop  offset="81.17647058823529%" stop-color="#01BA45"/>
</linearGradient>

<linearGradient id="Gradient_34" gradientUnits="userSpaceOnUse" x1="10.325" y1="15.3375" x2="19.675" y2="7.4625" spreadMethod="pad">
<stop  offset="24.313725490196077%" stop-color="#37B8ED"/>

<stop  offset="50.98039215686274%" stop-color="#A3DBED"/>

<stop  offset="81.17647058823529%" stop-color="#37B8ED"/>
</linearGradient>

<g id="Symbol_382_0_Layer0_0_FILL">
<path fill="url(#Gradient_1)" stroke="none" d="
M 18.6 84.75
L 37.4 84.9
Q 33.65 84.15 29.4 80.35
L 25.8 76.65
Q 25 76.5 24 75.8
L 23.1 75.1
Q 23.4 78.85 21.05 82.15 19.85 83.9 18.6 84.75 Z"/>
</g>

<g id="Symbol_382_0_Layer0_1_FILL">
<path fill="url(#Gradient_2)" stroke="none" d="
M 28 89.9
Q 26.6 93.75 27.3 97.7 28 101.65 29.5 104.35 29.1 102.8 28.95 100.75 28.6 96.6 29.6 93.95 31.75 88.9 35.3 86.95 36.3 86.4 38.05 85.6 39.6 84.9 40.4 84 41.8 82.5 39.65 81.85 37.6 81.15 35.75 82.2 33.75 83.1 32.75 83.75 29.45 85.9 28 89.9 Z"/>
</g>

<g id="Symbol_382_0_Layer0_2_FILL">
<path fill="url(#Gradient_3)" stroke="none" d="
M 62.85 137.85
Q 69.65 140.8 76.85 139.9 80.5 139.45 82.7 138.4 81.9 136.75 81.35 134.6 76.5 130.8 72.55 128.75 70.15 127.5 66.45 126.5
L 63.25 125.75
Q 62.6 131.5 62.85 137.85 Z"/>
</g>

<g id="Symbol_382_0_Layer0_3_FILL">
<path fill="url(#Gradient_4)" stroke="none" d="
M 44.5 138.3
Q 44.55 136.4 43.95 134 40.15 131.15 35.4 128.85 32.4 127.4 28.5 126.7
L 25.2 126.3
Q 25.35 135.75 26.75 138.95
L 32.25 139.8
Q 38.85 140.25 44.5 138.3 Z"/>
</g>

<g id="Symbol_3_0_Layer0_0_FILL">
<path fill="url(#Gradient_5)" stroke="none" d="
M 17.05 8.55
Q 17.05 5 14.55 2.5 12.05 0 8.55 0 5.05 0 2.5 2.5 0 5.05 0 8.55 0 12.05 2.5 14.55 5 17.05 8.55 17.05 12.1 17.05 14.55 14.55 17.05 12.1 17.05 8.55 Z"/>
</g>

<g id="Symbol_383_0_Layer0_0_FILL">
<path fill="url(#Gradient_6)" stroke="none" d="
M 4.85 55.7
Q 10.95 51.45 7.45 51.75 -1.25 52.45 -6.5 55.9 -9.45 57.95 -12.05 61.95 -13.95 64.75 -14.75 70.3 -15.2 73.05 -15.25 75.3
L -18.2 77.45
Q -21.2 80.2 -20.95 83.15 -20.8 85.05 -19.45 86.5
L -18.2 87.65
Q -18.65 86.15 -18.7 84.5 -18.8 81.05 -16.9 79.75
L -13.8 77.65
Q -11.95 75.9 -11.95 73.35 -11.85 70.1 -11.45 68.6 -10.8 65.6 -8.65 64.3 2 57.7 4.85 55.7 Z"/>
</g>

<g id="Symbol_383_0_Layer0_1_FILL">
<path fill="url(#Gradient_7)" stroke="none" d="
M -11.55 83.35
Q -12.45 85.95 -15.1 84.95
L -15.05 85.6 -14.05 86.45 -11.3 86.4
Q -7.95 84.6 -9.85 82.15
L -12.3 80.05
Q -11.8 80.75 -11.6 81.9
L -11.55 83.35 Z"/>
</g>

<g id="Symbol_383_0_Layer0_2_FILL">
<path fill="url(#Gradient_8)" stroke="none" d="
M 13.9 72.3
L 9.8 72.7
Q 7.35 73.2 5.3 74.65 3.1 76.2 2.15 78.3 1.35 80.05 1.8 81.3 2.25 80.45 3.2 79.45 5.05 77.35 7.3 76.55 11.45 75.1 14.1 74.9 16.3 74.75 16.15 73.45 16.05 72.15 13.9 72.3 Z"/>
</g>

<g id="Mask_Mask_Symbol_378_0_Layer0_0_FILL">
<path fill="#FFFFFF" stroke="none" d="
M 90.4 75.9
L 120.4 85.65 136.25 65.4 131.95 42.35 105.15 42.25 69.35 62.55 72.9 82.25 78.25 85
Q 90.35 75.85 90.4 75.9 Z"/>
</g>

<g id="Symbol_51_0_Layer0_0_FILL">
<path fill="url(#Gradient_9)" stroke="none" d="
M 42.45 38.2
Q 46.25 37.1 46.85 32.75 47.35 28.7 45.1 26.45 42.4 23.75 40.6 24.6
L 39.35 25.95 40.35 25.75
Q 41.4 25.75 41.6 26.65 41.85 27.65 41.2 28.5 40.45 29.6 38.95 28.35 37.8 27.4 37.2 24.55
L 36.3 18.55
Q 35.85 15.6 33.25 13.1 31.15 11.1 28.65 10.15 27.4 9.7 28.45 15.6 29.9 23.55 29.35 27.3 28.6 32.6 33.45 36.15 38.05 39.45 42.45 38.2 Z"/>
</g>

<g id="Symbol_51_0_Layer0_1_FILL">
<path fill="#015C49" stroke="none" d="
M 43 34.6
L 43.25 35.8
Q 44.05 35.55 44.8 34.6 46.25 32.65 46 29.15
L 45.65 31.75
Q 44.9 34.35 43 34.6 Z"/>
</g>

<g id="Symbol_51_0_Layer0_2_FILL">
<path fill="#016C48" stroke="none" d="
M 33.85 24.8
L 34.75 27
Q 35.95 29.3 37.7 29.75
L 38.35 29.75
Q 37.4 29.45 36.5 28.65 34.65 27.05 34.75 24.65
L 33.85 24.8 Z"/>
</g>

<g id="Symbol_51_0_Layer0_3_FILL">
<path fill="#016C48" stroke="none" d="
M 42.35 28
Q 42.3 29 41.4 29.65
L 40.05 30.25 40.45 30.5
Q 42.25 30.05 42.4 28.55
L 42.35 28 Z"/>
</g>

<g id="Symbol_52_0_Layer0_0_FILL">
<path fill="url(#Gradient_10)" stroke="none" d="
M 20.35 17.6
Q 20.3 19 20.85 19.4 21.35 19.85 21.85 18.95 22.55 17.7 21.6 12.5 20.6 6.85 18.35 6.2
L 10.65 5.85 4.1 6.6
Q 2.2 7.15 0.65 7.95
L 1.05 8.8
Q 7.95 7.3 10.25 7.25 13.4 7.2 14.4 10.1 14.85 11.3 15.85 11.9
L 17.75 12.85
Q 18.75 13.45 19.55 14.8 20.35 16.2 20.35 17.6 Z"/>
</g>

<g id="Symbol_52_0_Layer0_1_FILL">
<path fill="url(#Gradient_11)" stroke="none" d="
M 24.95 22.1
L 24.95 16.1
Q 24.75 9.6 23.7 7.15 22.55 4.55 17.65 4.25 13.75 4 9.55 5.15 5.2 6.4 2.55 7.65
L 1.3 8.15 6.85 6.95
Q 12.75 5.5 15.8 7.45 17.3 8.45 19 11.7 20.05 13.6 20 15.45 19.9 16.9 18.9 19.9 17.4 24.35 21.8 25.9 23.15 26.4 24.15 24.85 25.05 23.55 24.95 22.1 Z"/>
</g>

<g id="Symbol_52_0_Layer0_2_FILL">
<path fill="url(#Gradient_12)" stroke="none" d="
M 27.5 13.55
Q 24.05 6.5 23.2 8.1 22.65 9.2 22.7 14.35 22.75 19.2 23.2 21.75
L 23.85 28.35
Q 23.4 27.7 22.6 27.4 21.05 26.75 19.45 28.35 18.4 29.5 18.6 31.35 18.75 33.2 20.1 34.6 25.2 39.7 28.7 36.7 30.75 34.95 31.2 29.9 31.55 26.25 31.1 22.95 30.8 20.3 27.5 13.55 Z"/>
</g>

<g id="Symbol_52_0_Layer0_3_FILL">
<path fill="#AA014B" stroke="none" d="
M 21.7 22.8
Q 21.75 23.2 21.45 23.25
L 20.95 23.05
Q 20.45 22.65 21.4 22.05 22.3 21.5 23.45 23.85
L 23.25 22.15
Q 22.65 21.25 21.4 21.25 20.65 21.25 20.25 21.95 19.85 22.65 20.25 23.2 20.5 23.55 21 23.75 21.55 23.95 21.9 23.55 22.5 22.95 21.7 22.8 Z"/>
</g>

<g id="Symbol_52_0_Layer0_4_FILL">
<path fill="#2E448E" stroke="none" d="
M 14.85 6.95
L 13.3 6.5
Q 13.6 6.6 13.95 6.95 14.55 7.5 14.7 8.15 14.9 9.4 15.35 10.1 15.85 10.75 17.05 11 17.95 11.15 19.3 12.8 18.2 10.7 16.55 10.4 16 10.25 15.7 9.55
L 14.85 6.95 Z"/>
</g>

<g id="Symbol_52_0_Layer0_5_FILL">
<path fill="#2E448E" stroke="none" d="
M 23.85 28.35
L 24 29.45 22.85 29.05
Q 21.85 29 21.55 30.1 21.15 31.4 21.9 31.7
L 22.7 31.8
Q 22.340625 31.74375 22.05 31.55 21.4 31.05 21.85 30.1 22.15 29.4 23.25 29.65
L 24.25 30.1 24.05 29 23.85 28.35 Z"/>
</g>

<g id="Symbol_52_0_Layer0_6_FILL">
<path fill="#2E448E" stroke="none" d="
M 23.45 13.7
L 23.1 13.15
Q 24.05 16.15 23.55 18.25 23.05 20.5 24.25 24.3
L 25.1 28 25.25 27.3
Q 25.25 26.05 24.7 24.3 23.45 19.9 24.2 18.15 24.8 16.6 23.45 13.7 Z"/>
</g>

<g id="Symbol_53_0_Layer0_0_FILL">
<path fill="url(#Gradient_13)" stroke="none" d="
M 28.2 17.5
Q 26.3 12.15 25.25 11.7 24.85 11.5 25.35 17.35 26 24.4 25.25 27.3 24.15 31.7 24.15 35.2 24.2 39.3 25.85 41.4 27.05 42.9 28.65 44 29.65 44.7 29.7 45.4 29.75 46.45 28.75 47
L 26.45 46.95 28 47.95
Q 30.65 49.3 32.55 49.3 34.85 49.3 36.2 47.55 37.55 45.7 36.95 43.05 36.75 42.2 33.1 36.1 29.95 30.8 30.1 27.3 30.25 23.35 28.2 17.5 Z"/>
</g>

<g id="Symbol_53_0_Layer0_1_FILL">
<path fill="#AA014B" stroke="none" d="
M 32.6 43.9
L 32.15 43.65
Q 33.3 45.6 32.7 46.85 32 48.25 30.8 48.6
L 29.7 48.7
Q 31.3 49.45 32.4 48.25 33.3 47.3 33.3 46 33.3 45.15 32.95 44.45
L 32.6 43.9 Z"/>
</g>

<g id="Symbol_53_0_Layer0_2_FILL">
<path fill="#AA014B" stroke="none" d="
M 32.55 49.3
Q 33.3 49.25 34.15 48.7 35.2 48.05 35.6 46.95 36 45.95 35.85 45.25
L 35.6 44.75 35.05 44.7 35.3 45.5
Q 35.5 46.4 35.1 47.2 34.35 48.55 32.55 49.3 Z"/>
</g>

<g id="Symbol_53_0_Layer0_3_FILL">
<path fill="#AA014B" stroke="none" d="
M 27.55 37.85
L 27.45 39.45
Q 27.5 41.25 28.45 42.05
L 29.75 42.95 30.8 43.95
Q 30.45 42.8 29.2 42 28.15 41.25 27.95 40.2
L 28 38.85 27.55 37.85 Z"/>
</g>

<g id="Symbol_54_0_Layer0_0_FILL">
<path fill="url(#Gradient_14)" stroke="none" d="
M 23.8 7.05
Q 25.9 9.65 26.8 11.75 27.7 13.85 29.65 16.55
L 29.35 19.65
Q 29.25 22.95 30.2 23.9 31.85 25.55 35.2 24.55 39 23.5 38.95 19.05 38.9 14.85 35.85 12.4
L 31.35 9.65
Q 30.35 8.9 29.6 6.25 28.8 3.5 27.55 2.45 26.15 1.3 23.8 1.75
L 20.35 1.95
Q 18.3 0.85 17.05 0.4
L 12.3 0.5
Q 8.4 1.95 0 7
L 0.85 8.8 9.2 6.2
Q 17.85 3.6 19.45 3.75 21.2 3.9 23.8 7.05 Z"/>
</g>

<g id="Symbol_54_0_Layer0_1_FILL">
<path fill="#2E448E" stroke="none" d="
M 29.95 13.8
L 30.3 15.05 33.5 16
Q 34.35 16.1 34.85 16.8 35.35 17.55 35.25 18.75 35.2 19.85 34.45 19.65 33.7 19.45 33.6 18.9 33.55 18.6 33.95 18.05
L 34.35 17.6 33.55 17.7
Q 32.8 17.95 32.85 18.85 32.95 19.95 34 20.4 35.1 20.9 35.6 19.9 36.15 18.8 36.1 17.5 36 16.05 35.15 15.5 34.65 15.15 32.55 14.75 30.6 14.35 29.95 13.8 Z"/>
</g>

<g id="Symbol_54_0_Layer0_2_FILL">
<path fill="#AA014B" stroke="none" d="
M 33.65 11
Q 31.4 10.4 30.4 9.7 28.8 8.6 28.2 6.65 27.9 5.6 26.9 5
L 25 4.2 22.6 3.75 23.5 4.15 24.9 4.5
Q 26.35 5 26.9 5.8
L 28.1 8.05
Q 28.9 9.55 29.95 10.1 31.7 11.05 33.65 11 Z"/>
</g>

<g id="Symbol_54_0_Layer0_3_FILL">
<path fill="#2E448E" stroke="none" d="
M 31 18.15
L 31.15 16.95
Q 31.519140625 15.842578125 32.45 15.8
L 31.65 15.8
Q 30.7 15.95 30.65 16.5
L 31 18.15 Z"/>
</g>

<g id="Symbol_55_0_Layer0_0_FILL">
<path fill="url(#Gradient_15)" stroke="none" d="
M 27.55 7.55
Q 25.15 3.2 21 3.25 15.35 3.3 8.1 5 0.1 6.9 0.85 8.8
L 6.9 6.9
Q 13.45 5.2 15.85 6.15 19.25 7.5 20.2 8.15 21.7 9.2 22.3 11.4
L 24.9 15.7
Q 26.8 18.7 26.8 23
L 26.95 30.05
Q 27.1 31.75 27.85 31.95 28.75 32.15 29.95 25.2 31.25 17.95 30.3 15.05 28.35 9.05 27.55 7.55 Z"/>
</g>

<g id="Symbol_55_0_Layer0_1_FILL">
<path fill="url(#Gradient_16)" stroke="none" d="
M 25.15 7.1
L 24.15 6.05
Q 21.45 3.35 18.05 1.95 14.7 0.55 7.1 3.95 3.35 5.65 0.2 7.65
L 0.85 8.8
Q 2.9 7.35 5.25 6.6 12.85 4 18.75 4.25 21.95 4.35 24.4 6.4
L 25.15 7.1 Z"/>
</g>

<g id="Symbol_55_0_Layer0_2_FILL">
<path fill="url(#Gradient_17)" stroke="none" d="
M 41.9 41.3
Q 44.35 38 42.65 33.4 41.25 29.6 37.55 29.8
L 34.1 30.7
Q 32.3 29.3 31.8 25.05
L 30.9 17.6
Q 29.4 11.2 27.8 8.5 24.6 3 18.55 3 12.75 3 6.1 5.5 2.8 6.7 0.65 7.95
L 0.85 8.8
Q 13.55 4.55 19.05 5.8 22.65 6.6 24.4 9.8 25.5 11.85 26.7 17.2 27.3 19.7 26.55 24.7 25.8 30 26.7 34.9 27.55 39.4 30.5 42.35 33.5 45.3 36.6 44.6 39.95 43.9 41.9 41.3 Z"/>
</g>

<g id="Symbol_55_0_Layer0_3_FILL">
<path fill="#AA014B" stroke="none" d="
M 34.1 30.7
L 32.15 31.85
Q 30.3 33.35 30.65 34.9 31.15 36.9 32.4 37.9 33.75 38.95 35.65 38.5 36.75 38.2 37.05 37.25
L 37.1 36.3
Q 36.7 37.25 35.3 37.5 34.05 37.75 32.95 36.85 31.85 36 31.8 34.65 31.75 32.3 34.1 30.7 Z"/>
</g>

<g id="Symbol_55_0_Layer0_4_FILL">
<path fill="url(#Gradient_18)" stroke="none" d="
M 21.4 6.7
Q 24.8 8.25 25.65 10.45
L 27.6 15.4
Q 28.75 18.7 28.65 20.75
L 27.85 27.65
Q 27.5 30.7 29.2 37 28.7 35 28.45 32.1 28 27.05 29 23.85 29.95 20.9 29.05 17.65
L 26.45 11
Q 25.05 7.75 22.2 6.55
L 18.2 5.65 21.4 6.7 Z"/>
</g>

<g id="Symbol_56_0_Layer0_0_FILL">
<path fill="#FFFFFF" stroke="none" d="
M 14.6 27.2
Q 12.35 29.45 12.35 32.65 12.35 35.9 14.6 38.15 16.9 40.4 20.1 40.4 23.35 40.4 25.6 38.15 27.85 35.9 27.85 32.65 27.85 29.45 25.6 27.2 23.3 24.9 20.1 24.9 16.9 24.9 14.6 27.2 Z"/>
</g>

<g id="Symbol_56_0_Layer0_1_FILL">
<path fill="#000000" stroke="none" d="
M 12.35 32.65
Q 12.35 34.85 13.9 36.4 15.45 37.95 17.6 37.95 19.8 37.95 21.35 36.4 22.9 34.85 22.9 32.65 22.9 30.45 21.35 28.95 19.8 27.4 17.6 27.4 15.45 27.4 13.9 28.95 12.35 30.5 12.35 32.65 Z"/>
</g>

<g id="Symbol_56_0_Layer0_2_FILL">
<path fill="#FFFFFF" stroke="none" d="
M 16.5 31.65
Q 16.5 32.45 17.05 33 17.6 33.55 18.4 33.55 19.15 33.55 19.7 33 20.25 32.45 20.25 31.65 20.25 30.85 19.7 30.35 19.15 29.8 18.4 29.8 17.6 29.8 17.05 30.35 16.5 30.85 16.5 31.65 Z"/>
</g>

<g id="Symbol_56_0_Layer0_11_FILL">
<path fill="#000000" stroke="none" d="
M 28.2 32.95
L 28 35.05
Q 29.6 33.5 30.15 31.75
L 30.9 28.9
Q 29.65 29.35 27.65 28.2
L 25.9 26.95 27.05 28.75
Q 28.2 30.55 28.2 32.95 Z"/>
</g>

<g id="Mask_Mask_Symbol_14_0_Layer0_0_FILL">
<path fill="#FFFFFF" stroke="none" d="
M 94.2 -5.65
L -10.6 -3.75 -4.25 32.85 31.15 24.6 29.4 17.65
Q 21.65 16.2 19.85 9.65 18.95 6.2 20.55 2.75
L 22.35 0
Q 22.35 2.45 26 4.5 31.45 7.55 32.25 8.35 34.4 10.4 34.4 14.4 34.4 16.4 33.95 18
L 34.9 82.5 94.25 81.75 94.2 -5.65 Z"/>
</g>

<g id="Symbol_58_0_Layer0_0_FILL">
<path fill="url(#Gradient_19)" stroke="none" d="
M 7.35 0.1
Q 6.05 0.45 5.45 1.4 4.9 2.25 4.7 7.95
L 4.65 16.55
Q 4.75 19.75 6 22 7.35 24.6 9.95 25.5
L 12.4 25.25 13.6 24.5 14.15 25.1
Q 14.9 25.7 16 25.7 17.45 25.65 18.85 23.9 20.35 21.95 20.05 19.95 19.8 18 18.35 17.5 17.35 17.15 15.1 17.45 12.05 17.8 10.2 13.9 9.55 12.6 9.35 6.35
L 9.25 0.4
Q 8.65 -0.25 7.35 0.1 Z"/>
</g>

<g id="Symbol_58_0_Layer0_1_FILL">
<path fill="url(#Gradient_20)" stroke="none" d="
M 16.85 10.85
Q 15 9.35 12.45 11.35 9.9 13.4 12.2 15.6
L 11.75 16.25
Q 11 16.7 9.6 15.6 7.05 13.65 7.2 2.85 7.25 0.25 3.7 0.65
L 0.2 1.55 0 7.9
Q 0.2 14.8 2.05 17.45 4.5 20.95 7.9 22.35 11.75 23.9 14.95 21.7 18.15 19.5 18.45 15.8 18.75 12.4 16.85 10.85 Z"/>
</g>

<g id="Symbol_58_0_Layer0_2_FILL">
<path fill="#AA014B" stroke="none" d="
M 12.2 15.6
L 12.75 16.05 14.3 16.25
Q 15.35 15.95 15.7 15.1 16.05 14.25 15.3 13.45
L 15.35 14.35
Q 15.25 15.3 14.35 15.6
L 12.75 15.8 12.2 15.6 Z"/>
</g>

<g id="Symbol_58_0_Layer0_3_FILL">
<path fill="url(#Gradient_21)" stroke="none" d="
M 14.45 20
Q 16 18.95 16.8 17.05 16.2 18.3 14.95 19.25 12.45 21.1 9.25 19.55 5.7 17.8 3.2 12.75
L 1.45 8.05
Q 1.85 12.7 3.65 15.55 5.4 18.25 9 20.1 12.05 21.7 14.45 20 Z"/>
</g>

<g id="Symbol_58_0_Layer0_4_FILL">
<path fill="#2E448E" stroke="none" d="
M 13.05 23.45
Q 13.15 24.2 13.6 24.5 13.4 23.85 13.55 23.05
L 13.7 22.4 13.05 22.65 13.05 23.45 Z"/>
</g>

<g id="Symbol_58_0_Layer0_5_FILL">
<path fill="#2E448E" stroke="none" d="
M 16.5 21.6
L 15.6 21.2 15.1 21.6 15.9 21.75
Q 16.7 22.05 17 23
L 16.75 23.85
Q 16.35 24.3 15.9 24.1 15.55 24 15.6 23.6
L 15.7 23.25
Q 15.45 23.3 15.35 23.7 15.2 24.1 15.45 24.4 15.85 24.85 16.5 24.65 17.25 24.45 17.35 23.3 17.4 22.2 16.5 21.6 Z"/>
</g>

<g id="Symbol_59_0_Layer0_0_FILL">
<path fill="url(#Gradient_22)" stroke="none" d="
M 11.3 6.9
Q 10.6 5.2 10.3 2.55
L 10.15 0.25 5 1.35 5.05 3.15
Q 5.15 5.4 5.55 7.45 6 9.7 7.15 11.2
L 10.85 14.8
Q 12.95 16.7 15.65 16.85
L 17 16.65
Q 15.55 16.6 13.75 12.75
L 11.3 6.9 Z"/>
</g>

<g id="Symbol_59_0_Layer0_1_FILL">
<path fill="url(#Gradient_23)" stroke="none" d="
M 13.05 5.3
L 11.2 6.4 13.25 6.7
Q 14.15 7.2 14 7.75 13.75 8.8 12.8 8.8 11.7 8.85 10 7.45 8.5 6.25 8.3 3.25
L 8.4 0.55 3.65 1.15 3.65 6.4
Q 3.8 8.5 6.05 10.6 8.35 12.85 11.45 13.6 14.5 14.4 16 12.4 17.5 10.45 16.35 7.7 15.15 4.75 13.05 5.3 Z"/>
</g>

<g id="Symbol_59_0_Layer0_2_FILL">
<path fill="url(#Gradient_24)" stroke="none" d="
M 2.45 1.15
L 1.65 5
Q 0.95 9.35 1.55 11.75 2.55 15.9 5 18.35
L 8.35 21.95
Q 10.85 24.3 12.7 24 14.5 23.7 16.05 22.6
L 17.25 21.5 15.15 20.95
Q 12.85 19.8 11.9 16.9 10.1 9.5 8.6 5.6 5.8 -1.7 2.45 1.15 Z"/>
</g>

<g id="Symbol_59_0_Layer0_3_FILL">
<path fill="url(#Gradient_25)" stroke="none" d="
M 0.2 0.8
Q -0.1 1.35 0.1 4.75 0.35 8.8 1.65 10.25 2.8 11.45 5.25 12.2 7.05 12.7 7.05 13.95 7.05 15.65 6.4 16.3
L 5.15 16.35
Q 4.65 15.95 4.75 15.45
L 5.15 14.65
Q 4.2 14.9 3.7 15.7 2.65 17.3 4.9 20 6.9 22.35 9.95 20.5 12.65 18.9 13.3 16.5 13.9 14.15 12.5 12 10.85 9.45 7.15 9.3 6.2 9 5.45 8.1 3.95 6.2 4.85 3 5.75 -0.2 3.05 0
L 0.2 0.8 Z"/>
</g>

<g id="Symbol_59_0_Layer0_4_FILL">
<path fill="url(#Gradient_26)" stroke="none" d="
M 6.05 8.65
L 4.65 6.4 5.55 8.6
Q 6.65 10.8 7.8 11.05
L 10.25 11.7
Q 11.8 12.65 11.65 15.4 11.5 18.1 10.2 19.85 9.55 20.75 8.9 21.05 10.65 20.35 11.5 19.1 12.25 17.9 12.55 15.65 12.8 13.6 11.4 12.05 10.1 10.6 8.2 10.35 7.15 10.2 6.05 8.65 Z"/>
</g>

<g id="Symbol_60_0_Layer0_0_FILL">
<path fill="url(#Gradient_27)" stroke="none" d="
M 23.2 11
Q 23.2 9.45 22.6 8 21.75 5.9 19.95 5.9 18.25 5.9 17.3 6.7
L 16.7 7.45
Q 16 5.2 14.35 3.75 12.5 2.1 8.95 0.9 5.9 -0.15 2.65 0
L 0 0.35 1.75 1.3
Q 3.35 2 4.9 3.6 8.7 3.6 11.3 6.3 12.6 7.6 13.15 8.95
L 12.75 11.85
Q 13.1 14.75 16.7 14.75 20.45 14.75 22.1 13.3 23.2 12.3 23.2 11 Z"/>
</g>

<g id="Symbol_60_0_Layer0_1_FILL">
<path fill="url(#Gradient_28)" stroke="none" d="
M 23.2 11
Q 23.2 9.45 22.6 8 21.75 5.9 19.95 5.9 18.25 5.9 17.3 6.7
L 16.7 7.45
Q 16 5.2 14.35 3.75 12.5 2.1 8.95 0.9 5.9 -0.15 2.65 0
L 0 0.35 1.75 1.3
Q 3.35 2 4.9 3.6 8.7 3.6 11.3 6.3 12.6 7.6 13.15 8.95
L 12.75 11.85
Q 13.1 14.75 16.7 14.75 20.45 14.75 22.1 13.3 23.2 12.3 23.2 11 Z"/>
</g>

<g id="Symbol_60_0_Layer0_2_FILL">
<path fill="url(#Gradient_29)" stroke="none" d="
M 23.05 14.75
Q 24.75 16.9 23.8 17.65 22.6 18.7 21.1 15.7 20.4 14.35 18.1 12.8
L 15.95 11.55
Q 16.1 10.8 15.65 9.55 14.8 7 11.9 4.4 9 1.8 5.8 1.8
L 3.2 2.3
Q 4.6 2.85 5.3 4.25
L 5.75 5.6
Q 8.45 5.6 10.7 8.5 12.65 11.05 13.2 14.2 14.5 22.55 19.95 23.95 23 24.75 24.9 22.55 26.4 20.75 26.4 18.3 26.4 16.7 24.75 15.55
L 23.05 14.75 Z"/>
</g>

<g id="Symbol_60_0_Layer0_3_FILL">
<path fill="url(#Gradient_30)" stroke="none" d="
M 25.95 21.15
Q 25.95 19 23.5 17.45 21.15 16 19.25 16.55
L 18.15 14.65
Q 16.55 12.7 14.35 12.7 14.05 10.5 12.7 8.3 10.1 3.9 5.15 3.9
L 6 5.9
Q 6.75 8.25 6.35 10.15
L 8 11.6
Q 9.65 13.75 9.65 17.2 9.65 22.5 10.9 25.1 12.65 28.8 17.2 28.8 21.7 28.8 24.1 26.1 25.95 24 25.95 21.15 Z"/>
</g>

<g id="Symbol_60_0_Layer0_4_FILL">
<path fill="#AA014B" stroke="none" d="
M 18.85 16.55
Q 17.55 16.85 16.25 17.9 14.7 19.15 14.7 20.5 14.7 22.05 15.6 23.45 16.55 24.9 17.75 24.9 18.95 24.9 19.9 24.15 20.8 23.4 20.8 22.5 20.8 21.7 20 21.35
L 19.2 21.15
Q 20.8 22.45 19.9 23.1
L 17.9 23.55
Q 17 23.55 16.3 22.65 15.6 21.7 15.6 20.35 15.6 19.25 17.25 17.8
L 18.85 16.55 Z"/>
</g>

<g id="Symbol_60_0_Layer0_5_FILL">
<path fill="#AA014B" stroke="none" d="
M 11.05 7.4
Q 12 8.8 12.15 11.4
L 12.05 13.95
Q 13.75 13.95 15.3 16 16.05 17.05 16.45 18.05
L 17 17.35
Q 16.85 15.75 14.85 14.25
L 12.85 13.1
Q 12.85 10.35 11.85 8.45
L 11.05 7.4 Z"/>
</g>

<g id="Symbol_60_0_Layer0_6_FILL">
<path fill="#2E448E" stroke="none" d="
M 7.8 6.8
L 6.1 6.2 6.4 7.05
Q 8.1 7.05 10.25 8.5 9.65 7.6 7.8 6.8 Z"/>
</g>

<g id="Symbol_60_0_Layer0_7_FILL">
<path fill="#AA014B" stroke="none" d="
M 16.7 7.45
Q 16.35 8.45 16.7 9.5 17.15 10.85 18.8 10.6 20.05 10.4 20.2 9.45
L 20.1 8.5 19.95 9.3
Q 19.65 10.1 18.8 10.1 17.5 10.1 17 8.8
L 16.7 7.45 Z"/>
</g>

<g id="Symbol_60_0_Layer0_8_FILL">
<path fill="#016C48" stroke="none" d="
M 3.65 0.75
L 1.25 1.05 2.05 1.55 9.55 1.8
Q 6.65 0.65 3.65 0.75 Z"/>
</g>

<g id="Symbol_61_0_Layer0_0_FILL">
<path fill="url(#Gradient_31)" stroke="none" d="
M 17.1 0
Q 13.95 0 10.65 2.1 7.5 4.05 6.4 3.95 3.45 3.7 1.25 4.6 0.3 5.05 0.05 6.75 -0.2 8.55 1.25 8.95
L 8.7 8.65
Q 11.05 8.15 14.3 5.55
L 17.1 3.05
Q 16.9 2.1 17 0.95
L 17.1 0 Z"/>
</g>

<g id="Symbol_62_0_Layer0_0_FILL">
<path fill="#FFFFFF" stroke="none" d="
M -9.95 -9.95
Q -10.7 -9.1 -9.25 -7.2
L 10.35 19.55 17.55 12.25 -7.05 -8.9
Q -9.2 -10.85 -9.95 -9.95 Z"/>
</g>

<g id="Symbol_62_0_Layer0_1_FILL">
<path fill="#907255" stroke="none" d="
M 6.6 7.75
Q 7.8 6.1 7.45 3.7
L 5.45 1.95
Q 6.65 5.1 5.4 6.9 4.2 8.55 4.45 11.65
L 6.55 14.5
Q 5.95 12.65 5.9 10.9 5.85 8.85 6.6 7.75 Z"/>
</g>

<g id="Symbol_62_0_Layer0_2_FILL">
<path fill="#907255" stroke="none" d="
M 11.1 18.7
Q 10.6 16.85 10.6 15.2 10.6 13.3 11.35 12.3 12.7 10.45 12.15 7.75
L 10.05 5.9
Q 11.55 9.4 10.15 11.45 8.45 13.85 9.5 18.5
L 10.25 19.55 11.1 18.7 Z"/>
</g>

<g id="Symbol_62_0_Layer0_3_FILL">
<path fill="#907255" stroke="none" d="
M 2.45 3
Q 3.35 1.75 3.25 0.05
L 1.4 -1.55
Q 2.2 0.75 1.25 2.15 0.25 3.6 0.4 6.1
L 2.55 9.05
Q 2 7.45 1.9 5.85 1.8 3.95 2.45 3 Z"/>
</g>

<g id="Symbol_62_0_Layer0_4_FILL">
<path fill="#907255" stroke="none" d="
M -1.55 -1.2
Q -0.9 -2.15 -0.9 -3.5
L -2.3 -4.7
Q -1.8 -3 -2.6 -1.95 -3.3 -0.95 -3.3 1.05
L -1.75 3.15
Q -2.55 0.2 -1.55 -1.2 Z"/>
</g>

<g id="Symbol_62_0_Layer0_5_FILL">
<path fill="#907255" stroke="none" d="
M -5.4 -5.45
Q -4.95 -6.05 -4.85 -6.95
L -6.2 -8.1
Q -5.9 -6.85 -6.4 -6.2 -7 -5.4 -7 -4
L -5.4 -1.85
Q -6.15 -4.4 -5.4 -5.45 Z"/>
</g>

<g id="Symbol_62_0_Layer0_6_FILL">
<path fill="#5A4B38" stroke="none" d="
M -10.4 -10.45
Q -11.5 -9.15 -9.7 -6.75
L 9.9 20 11.1 19.1 -8.5 -7.65 -9.15 -8.75 -9.3 -9.45
Q -8.8 -9.55 -7.4 -8.35
L 17.2 12.85 18.15 11.7 -6.4 -9.5
Q -8.2 -11 -9.4 -10.95 -10.05 -10.85 -10.4 -10.45 Z"/>
</g>

<g id="Symbol_63_0_Layer0_0_FILL">
<path fill="url(#Gradient_32)" stroke="none" d="
M 17.8 0.65
Q 16.35 0.65 13.8 2.2
L 9.8 4.85
Q 7.1 6.55 3.9 6.45 10.65 9.05 12.35 8.65 13.7 8.35 16.05 6.3 18.45 4.25 18.15 3.5
L 18.15 3.4 17.85 1.65 17.8 0.65 Z"/>
</g>

<g id="Symbol_63_0_Layer0_1_FILL">
<path fill="#016C48" stroke="none" d="
M 9.95 5.45
L 14.65 1.65
Q 13.65 2.2 12 3.3
L 9.55 4.95
Q 6.85 6.65 3.7 6.55
L 5.95 7.35
Q 8.3 6.75 9.95 5.45 Z"/>
</g>

<g id="Symbol_63_0_Layer0_2_FILL">
<path fill="url(#Gradient_33)" stroke="none" d="
M 18 2.75
L 16.8 2.75
Q 15.5 2.9 14.85 3.5
L 13 6
Q 11.65 7.7 10.65 7.7
L 3.35 6.15
Q 0 6.15 0 10.3 0 12.8 0.6 13.95 1.25 15.2 3 15.95
L 5.3 15.85
Q 6.65 15.4 7.15 14.65
L 9.65 14.55
Q 12.35 14.25 13.2 13.1
L 16 8.9
Q 17.9 6 18.75 5.55 18.15 3.9 18 2.75 Z"/>
</g>

<g id="Symbol_63_0_Layer0_3_FILL">
<path fill="url(#Gradient_34)" stroke="none" d="
M 19.9 7.3
Q 18.65 5.45 18.35 4.7
L 17.2 5.45
Q 15.9 6.45 15.35 7.6 14.4 9.5 14.3 10.1
L 12.25 9.85
Q 8.15 9.85 8.15 13.85 8.15 16.05 9.75 17.05
L 14.75 16.9
Q 15.95 16.45 16.7 15.05 17.4 13.7 17.4 12.1 17.4 10.55 18.2 9.05 18.95 7.55 19.9 7.3 Z"/>
</g>

<g id="Symbol_63_0_Layer0_4_FILL">
<path fill="#2E448E" stroke="none" d="
M 11.8 11.4
L 12.65 11.5
Q 13.55 11.7 13.5 12.35 13.45 13.1 13 13.25 12.55 13.4 12.05 13
L 12.25 13.7
Q 12.65 14.35 13.5 14.35 14.55 14.35 15.2 13.7 15.8 13.05 15.8 12 15.8 11.15 15.05 10.55
L 14.3 10.1 14.8 10.6
Q 15.3 11.25 15.3 12.1 15.3 12.9 14.45 13.65 13.6 14.4 12.95 13.85
L 13.75 13.5
Q 14.4 12.95 13.8 11.8 13.15 10.55 11.8 11.4 Z"/>
</g>

<g id="Symbol_63_0_Layer0_5_FILL">
<path fill="#2E448E" stroke="none" d="
M 15.6 10.1
L 16.4 8.6
Q 17.55 6.95 19.3 6.15
L 18.8 5.3 17.15 6.75
Q 15.5 8.55 15.6 10.1 Z"/>
</g>

<g id="Symbol_63_0_Layer0_6_FILL">
<path fill="#016C48" stroke="none" d="
M 8.15 11.8
Q 8.1 10.5 7.15 9.55 6.1 8.5 4.7 8.7 3.4 8.85 3.05 10.2 2.7 11.4 3.3 12.05 3.8 12.6 4.5 12.45 5.25 12.3 5.15 11.65 4.35 12.45 3.65 11.65 3.1 11.05 3.6 10.4 4.15 9.7 5.15 9.75 6.55 9.8 7.25 10.95 8.15 12.4 7 14.85 8.2 13.4 8.15 11.8 Z"/>
</g>

<g id="Symbol_63_0_Layer0_7_FILL">
<path fill="#015C49" stroke="none" d="
M 0.1 9.4
Q -0.05 10.55 0.45 11.9 1.1 13.85 2.7 14.55 6 16 7.05 12.4
L 6.05 13.75 2.9 13.85
Q 1.1 12.8 0.4 11
L 0.1 9.4 Z"/>
</g>

<g id="Symbol_63_0_Layer0_8_FILL">
<path fill="#016C48" stroke="none" d="
M 14.35 6.25
Q 13.4 7.75 12.3 7.9
L 8.45 7.35 6 6.7 9.2 8
Q 11.5 8.9 12.6 8.6 13.6 8.3 14.7 6.8 15.85 5.25 16.45 5
L 18.35 4.35 18.35 4.15 15.9 4.3
Q 15.45 4.55 14.35 6.25 Z"/>
</g>

<g id="Symbol_63_0_Layer0_9_FILL">
<path fill="#AA014B" stroke="none" d="
M 14 1.85
L 13.3 2.55 15.55 1.25
Q 16.6 0.75 17.8 0.65
L 17.8 0
Q 16.45 0.15 15.55 0.65 14.85 1.05 14 1.85 Z"/>
</g>

<g id="Symbol_19_0_Layer0_0_FILL">
<path fill="#B9533A" stroke="none" d="
M 29.5 14.05
Q 28.8 10.25 25.1 8.45 22.9 7.35 21.7 4.45
L 21 1.8 20.65 2.55
Q 18.95 6.1 19.85 9.6 21.6 15.9 28.95 17.5
L 29.4 17.55
Q 29.8 16 29.5 14.05 Z"/>
</g>

<path id="Layer0_5_1_STROKES" stroke="#000000" stroke-width="3" stroke-linejoin="round" stroke-linecap="round" fill="none" d="
M 213.6 373.03340454101556
Q 202.8 373.3333862304687 192.8 369.8335998535156
L 192.89999999999998 362.6340393066406
Q 193.39999999999998 354.0345642089844 195.6 347.1349853515625 198.1 339.3354614257812 207.7 331.8359191894531 196.7 333.13583984375 191.6 326.1362670898437"/>

<path id="Layer0_5_MEMBER_0_1_STROKES" stroke="#000000" stroke-width="3" stroke-linejoin="round" stroke-linecap="round" fill="none" d="
M 148.3 314.1369995117187
L 146.3 316.93682861328125
Q 140.6 327.4361877441406 145.5 332.23589477539065 137.1 331.2359558105469 131.3 333.63580932617185 122.39999999999999 337.2355895996094 120 348.5348999023438 117.8 358.83427124023433 118.6 367.3337524414062
L 130.1 370.83353881835933 140.6 372.6334289550781"/>

<path id="Layer0_5_MEMBER_1_1_STROKES" stroke="#000000" stroke-width="3" stroke-linejoin="round" stroke-linecap="round" fill="none" d="
M 124.6 272.23955688476565
L 144.6 281.3390014648437
M 204.7 268.6397766113281
L 152.1 244.94122314453128"/>

<path id="Layer0_5_MEMBER_2_1_STROKES" stroke="#000000" stroke-width="3" stroke-linejoin="round" stroke-linecap="round" fill="none" d="
M 157.1 318.23674926757815
L 153.3 315.8368957519531
Q 143.6 308.33735351562495 143.3 292.5383178710938 143.2 285.53874511718755 145.2 280.23906860351565
M 199.8 269.2397399902344
L 223.6 264.4400329589844
Q 230.79999999999998 263.64008178710935 238.6 268.4397888183594
L 239.7 269.13974609375
M 207.6 323.8364074707031
L 201.2 324.7363525390625
Q 193.5 325.53630371093755 184.6 324.83634643554683"/>

<path id="Layer0_5_MEMBER_3_1_STROKES" stroke="#000000" stroke-width="3" stroke-linejoin="round" stroke-linecap="round" fill="none" d="
M 228.2 264.5400268554688
Q 238.7 264.5400268554688 246.7 271.7395874023438 254 278.23919067382815 255.2 286.5386840820313 256.1 293.13828125 249.29999999999998 302.4377136230469 245.79999999999998 307.2374206542969 237.9 315.1369384765625 245.1 318.33674316406245 248.6 322.6364807128906 251.4 326.5362426757813 251 330.5359985351563
L 248.9 348.83488159179683
Q 248.4 365.933837890625 254.1 377.93310546875 249.7 380.0329772949218 242.4 380.93292236328125 228 382.7328125 214.39999999999998 376.83317260742183 214 373.4333801269531 214.1 368.6336730957031 214.2 358.83427124023433 216 351.1347412109375 218.1 342.5352661132813 227.29999999999998 334.4357604980469 212.6 335.8356750488281 207.6 320.6366027832031 202.8 306.0374938964844 211.5 296.7380615234375"/>

<path id="Layer0_5_MEMBER_4_1_STROKES" stroke="#000000" stroke-width="3" stroke-linejoin="round" stroke-linecap="round" fill="none" d="
M 224.4 335.4356994628906
L 233.29999999999998 332.93585205078125
Q 238.9 330.735986328125 242 328.83610229492183"/>

<path id="Layer0_5_MEMBER_5_1_STROKES" stroke="#000000" stroke-width="3" stroke-linejoin="round" stroke-linecap="round" fill="none" d="
M 163.39999999999998 303.53764648437505
L 158.89999999999998 315.7369018554688
Q 155.6 328.7361083984375 161.3 333.63580932617185 153.1 333.935791015625 147.89999999999998 337.7355590820313 140.1 343.53520507812505 140 356.93438720703125 140.1 369.133642578125 142.6 378.83305053710933
L 154.39999999999998 380.83292846679683
Q 168.3 382.1328491210937 179.8 378.23308715820315
L 174.3 355.7344604492188
Q 173.2 351.7347045898438 173.7 349.7348266601563 174.2 347.03499145507817 177.6 343.7351928710938 181.89999999999998 339.4354553222656 184.39999999999998 328.93609619140625
L 185.8 319.2366882324219"/>

<path id="Symbol_56_0_Layer0_3_1_STROKES" stroke="#000000" stroke-width="1.5" stroke-linejoin="round" stroke-linecap="round" fill="none" d="
M 20.55 11.45
Q 16.75 12.9 14.05 15.8 12.2 17.8 10.4 21.2 8.6 24.5 7.45 31.55 6.9 35.1 6.65 37.95
L 3.8 40.3
Q 0.9 43.45 0.9 47.45 0.9 51.2 3.45 53.85 5.3 55.75 8.1 56.75
L 18.15 57.3
Q 24.8 56.8 28.45 55.6 32.25 54.35 34.1 52.65 37.35 49.6 37.35 44"/>

<path id="Symbol_56_0_Layer0_4_1_STROKES" stroke="#282425" stroke-width="1.5" stroke-linejoin="round" stroke-linecap="round" fill="none" d="
M 43.95 36.1
Q 43.1 28.1 41.65 23.1 39.15 14.7 34.45 11.75"/>

<path id="Symbol_56_0_Layer0_5_1_STROKES" stroke="#000000" stroke-width="1.5" stroke-linejoin="round" stroke-linecap="round" fill="none" d="
M 12.35 32.65
Q 12.35 35.9 14.6 38.15 16.9 40.4 20.1 40.4 23.35 40.4 25.6 38.15 27.85 35.9 27.85 32.65 27.85 29.45 25.6 27.2 23.3 24.9 20.1 24.9 16.9 24.9 14.6 27.2 12.35 29.45 12.35 32.65 Z"/>

<path id="Symbol_56_0_Layer0_6_1_STROKES" stroke="#000000" stroke-width="1.5" stroke-linejoin="round" stroke-linecap="round" fill="none" d="
M 31.7 27.05
Q 30.6 29.15 28.45 28.45 27.45 28.1 26.15 26.8 23.75 24.25 20.1 24.25 16 24.25 13.5 27.4"/>

<path id="Symbol_56_0_Layer0_7_1_STROKES" stroke="#000000" stroke-width="1.5" stroke-linejoin="round" stroke-linecap="round" fill="none" d="
M 12.7 57.45
Q 16.7 55.6 17.25 52.8
L 16.95 50.35"/>

<path id="Symbol_56_0_Layer0_8_1_STROKES" stroke="#000000" stroke-width="1.5" stroke-linejoin="round" stroke-linecap="round" fill="none" d="
M 7.55 43.75
Q 9 43.6 9.5 45.6 9.95 47.55 9.05 49.75 8.7 50.6 7.8 50.8 6.85 51 6.1 50.35"/>

<path id="Symbol_56_0_Layer0_9_1_STROKES" stroke="#000000" stroke-width="1.5" stroke-linejoin="round" stroke-linecap="round" fill="none" d="
M 29.55 25.75
L 29 26.45
Q 28.1 27.1 26.45 26.9"/>

<path id="Symbol_56_0_Layer0_10_1_STROKES" stroke="#000000" stroke-width="1.5" stroke-linejoin="round" stroke-linecap="round" fill="none" d="
M 26.45 24.5
Q 26.15 24.85 25.45 25.05 24.1 25.45 22.05 24.65"/>

<path id="Symbol_19_0_Layer0_1_1_STROKES" stroke="#000000" stroke-width="1.5" stroke-linejoin="round" stroke-linecap="round" fill="none" d="
M 34 17.95
Q 34.45 16.35 34.4 14.35 34.4 10.35 32.25 8.3
L 26.05 4.45
Q 22.35 2.4 22.35 -0.05 21.35 1 20.55 2.7 18.95 6.15 19.85 9.6 21.65 16.1 29.4 17.55"/>
</defs>

<g transform="matrix( 2, 0, 0, 1.9998779296875, 89.6,101.15) ">
<g transform="matrix( 1, 0, 0, 1, 0,0) ">
<use xlink:href="#Symbol_382_0_Layer0_0_FILL"/>
</g>

<g transform="matrix( 1, 0, 0, 1, 0,0) ">
<use xlink:href="#Symbol_382_0_Layer0_1_FILL"/>
</g>

<g transform="matrix( 1, 0, 0, 1, 0,0) ">
<use xlink:href="#Symbol_382_0_Layer0_2_FILL"/>
</g>

<g transform="matrix( 1, 0, 0, 1, 0,0) ">
<use xlink:href="#Symbol_382_0_Layer0_3_FILL"/>
</g>
</g>

<g transform="matrix( 2, 0, 0, 1.9998779296875, 157.3,280.25) ">
<g transform="matrix( 1, 0, 0, 1, 0,0) ">
<use xlink:href="#Symbol_3_0_Layer0_0_FILL"/>
</g>
</g>

<g transform="matrix( 2, 0, 0, 1.9998779296875, 214.2,271.75) ">
<g transform="matrix( 1, 0, 0, 1, 0,0) ">
<use xlink:href="#Symbol_3_0_Layer0_0_FILL"/>
</g>
</g>

<g transform="matrix( 2, 0, 0, 1.9998779296875, 89.6,101.15) ">
<g transform="matrix( 1, 0, 0, 1, 0,0) ">
<use xlink:href="#Symbol_383_0_Layer0_0_FILL"/>
</g>

<g transform="matrix( 1, 0, 0, 1, 0,0) ">
<use xlink:href="#Symbol_383_0_Layer0_1_FILL"/>
</g>

<g transform="matrix( 1, 0, 0, 1, 0,0) ">
<use xlink:href="#Symbol_383_0_Layer0_2_FILL"/>
</g>
</g>

<g transform="matrix( 1, 0, 0, 1, -316.7,-332.8) ">
<mask id="Mask_Mask_1">
<g transform="matrix( 2, 0, 0, 1.9998779296875, 406.3,433.95) ">
<g transform="matrix( 1, 0, 0, 1, 0,0) ">
<use xlink:href="#Mask_Mask_Symbol_378_0_Layer0_0_FILL"/>
</g>
</g>
</mask>

<g mask="url(#Mask_Mask_1)">
<g transform="matrix( 0.640869140625, -1.82958984375, 1.888916015625, 0.155548095703125, 545.8,605.15) ">
<g transform="matrix( 1, 0, 0, 1, 0,0) ">
<use xlink:href="#Symbol_51_0_Layer0_0_FILL"/>
</g>

<g transform="matrix( 1, 0, 0, 1, 0,0) ">
<use xlink:href="#Symbol_51_0_Layer0_1_FILL"/>
</g>

<g transform="matrix( 1, 0, 0, 1, 0,0) ">
<use xlink:href="#Symbol_51_0_Layer0_2_FILL"/>
</g>

<g transform="matrix( 1, 0, 0, 1, 0,0) ">
<use xlink:href="#Symbol_51_0_Layer0_3_FILL"/>
</g>
</g>

<g transform="matrix( 0.93511962890625, -1.7113037109375, 1.72491455078125, 0.51092529296875, 541.75,600.65) ">
<g transform="matrix( 1, 0, 0, 1, 0,0) ">
<use xlink:href="#Symbol_52_0_Layer0_0_FILL"/>
</g>

<g transform="matrix( 1, 0, 0, 1, 0,0) ">
<use xlink:href="#Symbol_52_0_Layer0_1_FILL"/>
</g>

<g transform="matrix( 1, 0, 0, 1, 0,0) ">
<use xlink:href="#Symbol_52_0_Layer0_2_FILL"/>
</g>

<g transform="matrix( 1, 0, 0, 1, 0,0) ">
<use xlink:href="#Symbol_52_0_Layer0_3_FILL"/>
</g>

<g transform="matrix( 1, 0, 0, 1, 0,0) ">
<use xlink:href="#Symbol_52_0_Layer0_4_FILL"/>
</g>

<g transform="matrix( 1, 0, 0, 1, 0,0) ">
<use xlink:href="#Symbol_52_0_Layer0_5_FILL"/>
</g>

<g transform="matrix( 1, 0, 0, 1, 0,0) ">
<use xlink:href="#Symbol_52_0_Layer0_6_FILL"/>
</g>
</g>

<g transform="matrix( 1.0126190185546875, -1.75799560546875, 1.55126953125, 0.4749755859375, 540.05,599.45) ">
<g transform="matrix( 1, 0, 0, 1, 0,0) ">
<use xlink:href="#Symbol_53_0_Layer0_0_FILL"/>
</g>

<g transform="matrix( 1, 0, 0, 1, 0,0) ">
<use xlink:href="#Symbol_53_0_Layer0_1_FILL"/>
</g>

<g transform="matrix( 1, 0, 0, 1, 0,0) ">
<use xlink:href="#Symbol_53_0_Layer0_2_FILL"/>
</g>

<g transform="matrix( 1, 0, 0, 1, 0,0) ">
<use xlink:href="#Symbol_53_0_Layer0_3_FILL"/>
</g>
</g>

<g transform="matrix( 0.656585693359375, -1.8309326171875, 1.86126708984375, 0.21661376953125, 541.1,603.1) ">
<g transform="matrix( 1, 0, 0, 1, 0,0) ">
<use xlink:href="#Symbol_54_0_Layer0_0_FILL"/>
</g>

<g transform="matrix( 1, 0, 0, 1, 0,0) ">
<use xlink:href="#Symbol_54_0_Layer0_1_FILL"/>
</g>

<g transform="matrix( 1, 0, 0, 1, 0,0) ">
<use xlink:href="#Symbol_54_0_Layer0_2_FILL"/>
</g>

<g transform="matrix( 1, 0, 0, 1, 0,0) ">
<use xlink:href="#Symbol_54_0_Layer0_3_FILL"/>
</g>
</g>

<g transform="matrix( 0.7693939208984375, -1.81536865234375, 1.8153228759765625, 0.337646484375, 541.35,602.15) ">
<g transform="matrix( 1, 0, 0, 1, 0,0) ">
<use xlink:href="#Symbol_55_0_Layer0_0_FILL"/>
</g>

<g transform="matrix( 1, 0, 0, 1, 0,0) ">
<use xlink:href="#Symbol_55_0_Layer0_1_FILL"/>
</g>

<g transform="matrix( 1, 0, 0, 1, 0,0) ">
<use xlink:href="#Symbol_55_0_Layer0_2_FILL"/>
</g>

<g transform="matrix( 1, 0, 0, 1, 0,0) ">
<use xlink:href="#Symbol_55_0_Layer0_3_FILL"/>
</g>

<g transform="matrix( 1, 0, 0, 1, 0,0) ">
<use xlink:href="#Symbol_55_0_Layer0_4_FILL"/>
</g>
</g>
</g>
</g>

<g transform="matrix( 2, 0, 0, 1.9998779296875, 89.6,101.15) ">
<use xlink:href="#Layer0_5_1_STROKES" transform="matrix( 0.5, 0, 0, 0.500030517578125, -44.8,-50.55) "/>
</g>

<g transform="matrix( 2, 0, 0, 1.9998779296875, 89.6,101.15) ">
<use xlink:href="#Layer0_5_MEMBER_0_1_STROKES" transform="matrix( 0.5, 0, 0, 0.500030517578125, -44.8,-50.55) "/>
</g>

<g transform="matrix( 2, 0, 0, 1.9998779296875, 89.6,101.15) ">
<use xlink:href="#Layer0_5_MEMBER_1_1_STROKES" transform="matrix( 0.5, 0, 0, 0.500030517578125, -44.8,-50.55) "/>
</g>

<g transform="matrix( 2, 0, 0, 1.9998779296875, 89.6,101.15) ">
<use xlink:href="#Layer0_5_MEMBER_2_1_STROKES" transform="matrix( 0.5, 0, 0, 0.500030517578125, -44.8,-50.55) "/>
</g>

<g transform="matrix( 2, 0, 0, 1.9998779296875, 89.6,101.15) ">
<use xlink:href="#Layer0_5_MEMBER_3_1_STROKES" transform="matrix( 0.5, 0, 0, 0.500030517578125, -44.8,-50.55) "/>
</g>

<g transform="matrix( 2, 0, 0, 1.9998779296875, 89.6,101.15) ">
<use xlink:href="#Layer0_5_MEMBER_4_1_STROKES" transform="matrix( 0.5, 0, 0, 0.500030517578125, -44.8,-50.55) "/>
</g>

<g transform="matrix( 2, 0, 0, 1.9998779296875, 89.6,101.15) ">
<use xlink:href="#Layer0_5_MEMBER_5_1_STROKES" transform="matrix( 0.5, 0, 0, 0.500030517578125, -44.8,-50.55) "/>
</g>

<g transform="matrix( 2.1908416748046875, -0.1744384765625, 0.12359619140625, 1.5529022216796875, 40,193.95) ">
<g transform="matrix( 1, 0, 0, 1, 0,0) ">
<use xlink:href="#Symbol_56_0_Layer0_0_FILL"/>
</g>

<g transform="matrix( 1, 0, 0, 1, 0,0) ">
<use xlink:href="#Symbol_56_0_Layer0_1_FILL"/>
</g>

<g transform="matrix( 1, 0, 0, 1, 0,0) ">
<use xlink:href="#Symbol_56_0_Layer0_2_FILL"/>
</g>

<g transform="matrix( 1, 0, 0, 1, 0,0) ">
<use xlink:href="#Symbol_56_0_Layer0_3_1_STROKES"/>
</g>

<g transform="matrix( 1, 0, 0, 1, 0,0) ">
<use xlink:href="#Symbol_56_0_Layer0_4_1_STROKES"/>
</g>

<g transform="matrix( 1, 0, 0, 1, 0,0) ">
<use xlink:href="#Symbol_56_0_Layer0_5_1_STROKES"/>
</g>

<g transform="matrix( 1, 0, 0, 1, 0,0) ">
<use xlink:href="#Symbol_56_0_Layer0_6_1_STROKES"/>
</g>

<g transform="matrix( 1, 0, 0, 1, 0,0) ">
<use xlink:href="#Symbol_56_0_Layer0_7_1_STROKES"/>
</g>

<g transform="matrix( 1, 0, 0, 1, 0,0) ">
<use xlink:href="#Symbol_56_0_Layer0_8_1_STROKES"/>
</g>

<g transform="matrix( 1, 0, 0, 1, 0,0) ">
<use xlink:href="#Symbol_56_0_Layer0_9_1_STROKES"/>
</g>

<g transform="matrix( 1, 0, 0, 1, 0,0) ">
<use xlink:href="#Symbol_56_0_Layer0_10_1_STROKES"/>
</g>

<g transform="matrix( 1, 0, 0, 1, 0,0) ">
<use xlink:href="#Symbol_56_0_Layer0_11_FILL"/>
</g>
</g>

<g transform="matrix( 1, 0, 0, 1, -316.7,-332.8) ">
<mask id="Mask_Mask_2">
<g transform="matrix( 2.1908416748046875, -0.1744384765625, 0.12359619140625, 1.5529022216796875, 356.7,526.75) ">
<g transform="matrix( 1, 0, 0, 1, 0,0) ">
<use xlink:href="#Mask_Mask_Symbol_14_0_Layer0_0_FILL"/>
</g>
</g>
</mask>

<g mask="url(#Mask_Mask_2)">
<g transform="matrix( 1.52569580078125, -1.467254638671875, 1.3590087890625, 1.446258544921875, 461.05,584.35) ">
<g transform="matrix( 1, 0, 0, 1, 0,0) ">
<use xlink:href="#Symbol_58_0_Layer0_0_FILL"/>
</g>

<g transform="matrix( 1, 0, 0, 1, 0,0) ">
<use xlink:href="#Symbol_58_0_Layer0_1_FILL"/>
</g>

<g transform="matrix( 1, 0, 0, 1, 0,0) ">
<use xlink:href="#Symbol_58_0_Layer0_2_FILL"/>
</g>

<g transform="matrix( 1, 0, 0, 1, 0,0) ">
<use xlink:href="#Symbol_58_0_Layer0_3_FILL"/>
</g>

<g transform="matrix( 1, 0, 0, 1, 0,0) ">
<use xlink:href="#Symbol_58_0_Layer0_4_FILL"/>
</g>

<g transform="matrix( 1, 0, 0, 1, 0,0) ">
<use xlink:href="#Symbol_58_0_Layer0_5_FILL"/>
</g>
</g>

<g transform="matrix( 2.51104736328125, -0.7227783203125, 0.092254638671875, 1.6795654296875, 448.9,563.1) ">
<g transform="matrix( 1, 0, 0, 1, 0,0) ">
<use xlink:href="#Symbol_59_0_Layer0_0_FILL"/>
</g>

<g transform="matrix( 1, 0, 0, 1, 0,0) ">
<use xlink:href="#Symbol_59_0_Layer0_1_FILL"/>
</g>

<g transform="matrix( 1, 0, 0, 1, 0,0) ">
<use xlink:href="#Symbol_59_0_Layer0_2_FILL"/>
</g>

<g transform="matrix( 1, 0, 0, 1, 0,0) ">
<use xlink:href="#Symbol_59_0_Layer0_3_FILL"/>
</g>

<g transform="matrix( 1, 0, 0, 1, 0,0) ">
<use xlink:href="#Symbol_59_0_Layer0_4_FILL"/>
</g>
</g>

<g transform="matrix( 2.359588623046875, -0.49542236328125, 0.2911376953125, 1.51593017578125, 414.35,531.5) ">
<g transform="matrix( 1, 0, 0, 1, 0,0) ">
<use xlink:href="#Symbol_60_0_Layer0_0_FILL"/>
</g>

<g transform="matrix( 1, 0, 0, 1, 0,0) ">
<use xlink:href="#Symbol_60_0_Layer0_1_FILL"/>
</g>

<g transform="matrix( 1, 0, 0, 1, 0,0) ">
<use xlink:href="#Symbol_60_0_Layer0_2_FILL"/>
</g>

<g transform="matrix( 1, 0, 0, 1, 0,0) ">
<use xlink:href="#Symbol_60_0_Layer0_3_FILL"/>
</g>

<g transform="matrix( 1, 0, 0, 1, 0,0) ">
<use xlink:href="#Symbol_60_0_Layer0_4_FILL"/>
</g>

<g transform="matrix( 1, 0, 0, 1, 0,0) ">
<use xlink:href="#Symbol_60_0_Layer0_5_FILL"/>
</g>

<g transform="matrix( 1, 0, 0, 1, 0,0) ">
<use xlink:href="#Symbol_60_0_Layer0_6_FILL"/>
</g>

<g transform="matrix( 1, 0, 0, 1, 0,0) ">
<use xlink:href="#Symbol_60_0_Layer0_7_FILL"/>
</g>

<g transform="matrix( 1, 0, 0, 1, 0,0) ">
<use xlink:href="#Symbol_60_0_Layer0_8_FILL"/>
</g>
</g>

<g transform="matrix( 2.1908416748046875, -0.1744384765625, 0.12359619140625, 1.5529022216796875, 362.9,534) ">
<g transform="matrix( 1, 0, 0, 1, 0,0) ">
<use xlink:href="#Symbol_61_0_Layer0_0_FILL"/>
</g>
</g>
</g>
</g>

<g transform="matrix( 2.1908416748046875, -0.1744384765625, 0.12359619140625, 1.5529022216796875, 40,193.95) ">
<g transform="matrix( 1, 0, 0, 1, 0,0) ">
<use xlink:href="#Symbol_62_0_Layer0_0_FILL"/>
</g>

<g transform="matrix( 1, 0, 0, 1, 0,0) ">
<use xlink:href="#Symbol_62_0_Layer0_1_FILL"/>
</g>

<g transform="matrix( 1, 0, 0, 1, 0,0) ">
<use xlink:href="#Symbol_62_0_Layer0_2_FILL"/>
</g>

<g transform="matrix( 1, 0, 0, 1, 0,0) ">
<use xlink:href="#Symbol_62_0_Layer0_3_FILL"/>
</g>

<g transform="matrix( 1, 0, 0, 1, 0,0) ">
<use xlink:href="#Symbol_62_0_Layer0_4_FILL"/>
</g>

<g transform="matrix( 1, 0, 0, 1, 0,0) ">
<use xlink:href="#Symbol_62_0_Layer0_5_FILL"/>
</g>

<g transform="matrix( 1, 0, 0, 1, 0,0) ">
<use xlink:href="#Symbol_62_0_Layer0_6_FILL"/>
</g>
</g>

<g transform="matrix( 2.1908416748046875, -0.1744384765625, 0.12359619140625, 1.5529022216796875, 44.7,203.2) ">
<g transform="matrix( 1, 0, 0, 1, 0,0) ">
<use xlink:href="#Symbol_63_0_Layer0_0_FILL"/>
</g>

<g transform="matrix( 1, 0, 0, 1, 0,0) ">
<use xlink:href="#Symbol_63_0_Layer0_1_FILL"/>
</g>

<g transform="matrix( 1, 0, 0, 1, 0,0) ">
<use xlink:href="#Symbol_63_0_Layer0_2_FILL"/>
</g>

<g transform="matrix( 1, 0, 0, 1, 0,0) ">
<use xlink:href="#Symbol_63_0_Layer0_3_FILL"/>
</g>

<g transform="matrix( 1, 0, 0, 1, 0,0) ">
<use xlink:href="#Symbol_63_0_Layer0_4_FILL"/>
</g>

<g transform="matrix( 1, 0, 0, 1, 0,0) ">
<use xlink:href="#Symbol_63_0_Layer0_5_FILL"/>
</g>

<g transform="matrix( 1, 0, 0, 1, 0,0) ">
<use xlink:href="#Symbol_63_0_Layer0_6_FILL"/>
</g>

<g transform="matrix( 1, 0, 0, 1, 0,0) ">
<use xlink:href="#Symbol_63_0_Layer0_7_FILL"/>
</g>

<g transform="matrix( 1, 0, 0, 1, 0,0) ">
<use xlink:href="#Symbol_63_0_Layer0_8_FILL"/>
</g>

<g transform="matrix( 1, 0, 0, 1, 0,0) ">
<use xlink:href="#Symbol_63_0_Layer0_9_FILL"/>
</g>
</g>

<g transform="matrix( 2.1908416748046875, -0.1744384765625, 0.12359619140625, 1.5529022216796875, 40,193.95) ">
<g transform="matrix( 1, 0, 0, 1, 0,0) ">
<use xlink:href="#Symbol_19_0_Layer0_0_FILL"/>
</g>

<g transform="matrix( 1, 0, 0, 1, 0,0) ">
<use xlink:href="#Symbol_19_0_Layer0_1_1_STROKES"/>
</g>
</g>
</svg>
