<?xml version="1.0" encoding="UTF-8" standalone="no"?>
<!-- Created with Inkscape (http://www.inkscape.org/) -->

<svg
   version="1.1"
   id="svg1"
   width="106.66669"
   height="106.66669"
   viewBox="0 0 106.66669 106.66669"
   xmlns="http://www.w3.org/2000/svg"
   xmlns:svg="http://www.w3.org/2000/svg">
  <defs
     id="defs1">
    <clipPath
       clipPathUnits="userSpaceOnUse"
       id="clipPath325">
      <path
         d="M 0,500 H 750 V 0 H 0 Z"
         transform="translate(-306.69201,-101.0768)"
         id="path325" />
    </clipPath>
    <clipPath
       clipPathUnits="userSpaceOnUse"
       id="clipPath327">
      <path
         d="M 0,500 H 750 V 0 H 0 Z"
         transform="translate(-283.30821,-78.923504)"
         id="path327" />
    </clipPath>
    <clipPath
       clipPathUnits="userSpaceOnUse"
       id="clipPath329">
      <path
         d="M 0,500 H 750 V 0 H 0 Z"
         transform="translate(-306.07631,-78.308302)"
         id="path329" />
    </clipPath>
    <clipPath
       clipPathUnits="userSpaceOnUse"
       id="clipPath331">
      <path
         d="M 0,500 H 750 V 0 H 0 Z"
         transform="translate(-295.00011,-117.4997)"
         id="path331" />
    </clipPath>
    <clipPath
       clipPathUnits="userSpaceOnUse"
       id="clipPath333">
      <path
         d="M 0,500 H 750 V 0 H 0 Z"
         transform="translate(-283.92351,-101.6921)"
         id="path333" />
    </clipPath>
    <clipPath
       clipPathUnits="userSpaceOnUse"
       id="clipPath335">
      <path
         d="M 0,500 H 750 V 0 H 0 Z"
         transform="translate(-267.8263,-109.63841)"
         id="path335" />
    </clipPath>
    <clipPath
       clipPathUnits="userSpaceOnUse"
       id="clipPath337">
      <path
         d="M 0,500 H 750 V 0 H 0 Z"
         transform="translate(-260.17351,-102.3884)"
         id="path337" />
    </clipPath>
    <clipPath
       clipPathUnits="userSpaceOnUse"
       id="clipPath339">
      <path
         d="M 0,500 H 750 V 0 H 0 Z"
         transform="translate(-267.62511,-102.1872)"
         id="path339" />
    </clipPath>
    <clipPath
       clipPathUnits="userSpaceOnUse"
       id="clipPath341">
      <path
         d="M 0,500 H 750 V 0 H 0 Z"
         transform="translate(-264.0001,-115.0134)"
         id="path341" />
    </clipPath>
    <clipPath
       clipPathUnits="userSpaceOnUse"
       id="clipPath343">
      <path
         d="M 0,500 H 750 V 0 H 0 Z"
         transform="translate(-260.37511,-109.8395)"
         id="path343" />
    </clipPath>
    <clipPath
       clipPathUnits="userSpaceOnUse"
       id="clipPath345">
      <path
         d="M 0,500 H 750 V 0 H 0 Z"
         transform="translate(-329.82631,-72.624704)"
         id="path345" />
    </clipPath>
    <clipPath
       clipPathUnits="userSpaceOnUse"
       id="clipPath347">
      <path
         d="M 0,500 H 750 V 0 H 0 Z"
         transform="translate(-322.17351,-65.374702)"
         id="path347" />
    </clipPath>
    <clipPath
       clipPathUnits="userSpaceOnUse"
       id="clipPath349">
      <path
         d="M 0,500 H 750 V 0 H 0 Z"
         transform="translate(-329.62511,-65.173499)"
         id="path349" />
    </clipPath>
    <clipPath
       clipPathUnits="userSpaceOnUse"
       id="clipPath351">
      <path
         d="M 0,500 H 750 V 0 H 0 Z"
         transform="translate(-326.00011,-77.999699)"
         id="path351" />
    </clipPath>
    <clipPath
       clipPathUnits="userSpaceOnUse"
       id="clipPath353">
      <path
         d="M 0,500 H 750 V 0 H 0 Z"
         transform="translate(-322.37511,-72.826799)"
         id="path353" />
    </clipPath>
    <clipPath
       clipPathUnits="userSpaceOnUse"
       id="clipPath355">
      <path
         d="M 0,500 H 750 V 0 H 0 Z"
         transform="translate(-322.12561,-127.0143)"
         id="path355" />
    </clipPath>
    <clipPath
       clipPathUnits="userSpaceOnUse"
       id="clipPath357">
      <path
         d="M 0,500 H 750 V 0 H 0 Z"
         transform="translate(-317.87411,-122.98601)"
         id="path357" />
    </clipPath>
    <clipPath
       clipPathUnits="userSpaceOnUse"
       id="clipPath359">
      <path
         d="M 0,500 H 750 V 0 H 0 Z"
         transform="translate(-322.01381,-122.8737)"
         id="path359" />
    </clipPath>
    <clipPath
       clipPathUnits="userSpaceOnUse"
       id="clipPath361">
      <path
         d="M 0,500 H 750 V 0 H 0 Z"
         transform="translate(-320.00011,-129.99971)"
         id="path361" />
    </clipPath>
    <clipPath
       clipPathUnits="userSpaceOnUse"
       id="clipPath363">
      <path
         d="M 0,500 H 750 V 0 H 0 Z"
         transform="translate(-317.98601,-127.12571)"
         id="path363" />
    </clipPath>
    <clipPath
       clipPathUnits="userSpaceOnUse"
       id="clipPath365">
      <path
         d="M 0,500 H 750 V 0 H 0 Z"
         transform="translate(-275.79261,-57.014301)"
         id="path365" />
    </clipPath>
    <clipPath
       clipPathUnits="userSpaceOnUse"
       id="clipPath367">
      <path
         d="M 0,500 H 750 V 0 H 0 Z"
         transform="translate(-271.5406,-52.985999)"
         id="path367" />
    </clipPath>
    <clipPath
       clipPathUnits="userSpaceOnUse"
       id="clipPath369">
      <path
         d="M 0,500 H 750 V 0 H 0 Z"
         transform="translate(-275.6803,-52.873701)"
         id="path369" />
    </clipPath>
    <clipPath
       clipPathUnits="userSpaceOnUse"
       id="clipPath371">
      <path
         d="M 0,500 H 750 V 0 H 0 Z"
         transform="translate(-273.66661,-59.999699)"
         id="path371" />
    </clipPath>
    <clipPath
       clipPathUnits="userSpaceOnUse"
       id="clipPath373">
      <path
         d="M 0,500 H 750 V 0 H 0 Z"
         transform="translate(-271.65301,-57.125699)"
         id="path373" />
    </clipPath>
  </defs>
  <g
     id="layer-MC0"
     style="display:none"
     transform="translate(-340.00012,-493.33374)">
    <path
       id="path1"
       d="M 0,0 H 750 V 500 H 0 Z"
       style="fill:#302a42;fill-opacity:1;fill-rule:nonzero;stroke:none"
       transform="matrix(1.3333333,0,0,-1.3333333,0,666.66667)" />
  </g>
  <g
     id="layer-MC1"
     transform="translate(-340.00012,-493.33374)">
    <path
       id="path324"
       d="m 0,0 c -2.009,-2.01 -3.686,-3.879 -4.618,-5.104 1.226,0.931 3.095,2.608 5.104,4.618 C 2.495,1.522 4.172,3.392 5.104,4.618 3.878,3.686 2.009,2.009 0,0"
       style="fill:#ffe47d;fill-opacity:1;fill-rule:nonzero;stroke:none"
       transform="matrix(1.3333333,0,0,-1.3333333,408.92267,531.8976)"
       clip-path="url(#clipPath325)" />
    <path
       id="path326"
       d="M 0,0 C 2.009,2.009 3.686,3.878 4.618,5.104 3.392,4.172 1.523,2.495 -0.486,0.486 -2.496,-1.522 -4.172,-3.392 -5.104,-4.618 -3.878,-3.686 -2.009,-2.009 0,0"
       style="fill:#ffe47d;fill-opacity:1;fill-rule:nonzero;stroke:none"
       transform="matrix(1.3333333,0,0,-1.3333333,377.74427,561.43533)"
       clip-path="url(#clipPath327)" />
    <path
       id="path328"
       d="M 0,0 C -2.009,2.009 -3.878,3.686 -5.104,4.618 -4.172,3.392 -2.495,1.522 -0.486,-0.486 1.523,-2.495 3.392,-4.172 4.618,-5.104 3.686,-3.879 2.009,-2.01 0,0"
       style="fill:#ffe47d;fill-opacity:1;fill-rule:nonzero;stroke:none"
       transform="matrix(1.3333333,0,0,-1.3333333,408.10173,562.2556)"
       clip-path="url(#clipPath329)" />
    <path
       id="path330"
       d="M 0,0 V 0 C -0.972,-26.049 -1.208,-26.35 -27.5,-27.5 -1.451,-28.472 -1.15,-28.708 0,-55 0.972,-28.95 1.208,-28.649 27.5,-27.5 1.451,-26.527 1.15,-26.291 0,0"
       style="fill:#ffe47d;fill-opacity:1;fill-rule:nonzero;stroke:none"
       transform="matrix(1.3333333,0,0,-1.3333333,393.33347,510.0004)"
       clip-path="url(#clipPath331)" />
    <path
       id="path332"
       d="M 0,0 C 2.009,-2.009 3.878,-3.687 5.104,-4.618 4.172,-3.393 2.496,-1.523 0.486,0.486 -1.523,2.495 -3.392,4.172 -4.618,5.104 -3.686,3.878 -2.009,2.009 0,0"
       style="fill:#ffe47d;fill-opacity:1;fill-rule:nonzero;stroke:none"
       transform="matrix(1.3333333,0,0,-1.3333333,378.56467,531.0772)"
       clip-path="url(#clipPath333)" />
    <path
       id="path334"
       d="m 0,0 c -0.657,-0.657 -1.206,-1.27 -1.511,-1.671 0.401,0.306 1.012,0.855 1.67,1.512 C 0.817,0.499 1.366,1.11 1.671,1.512 1.27,1.206 0.658,0.657 0,0"
       style="fill:#ffe47d;fill-opacity:1;fill-rule:nonzero;stroke:none"
       transform="matrix(1.3333333,0,0,-1.3333333,357.10173,520.48213)"
       clip-path="url(#clipPath335)" />
    <path
       id="path336"
       d="M 0,0 C 0.658,0.657 1.207,1.27 1.512,1.671 1.11,1.365 0.499,0.816 -0.159,0.159 -0.816,-0.498 -1.365,-1.11 -1.67,-1.512 -1.269,-1.206 -0.657,-0.657 0,0"
       style="fill:#ffe47d;fill-opacity:1;fill-rule:nonzero;stroke:none"
       transform="matrix(1.3333333,0,0,-1.3333333,346.898,530.1488)"
       clip-path="url(#clipPath337)" />
    <path
       id="path338"
       d="M 0,0 C -0.658,0.657 -1.27,1.206 -1.671,1.512 -1.366,1.11 -0.817,0.498 -0.159,-0.159 0.498,-0.816 1.11,-1.365 1.511,-1.671 1.206,-1.27 0.657,-0.657 0,0"
       style="fill:#ffe47d;fill-opacity:1;fill-rule:nonzero;stroke:none"
       transform="matrix(1.3333333,0,0,-1.3333333,356.83347,530.41707)"
       clip-path="url(#clipPath339)" />
    <path
       id="path340"
       d="m 0,0 v 0 c -0.318,-8.525 -0.396,-8.624 -9,-9 8.525,-0.318 8.624,-0.396 9,-9 0.318,8.525 0.396,8.624 9,9 -8.525,0.318 -8.624,0.396 -9,9"
       style="fill:#ffe47d;fill-opacity:1;fill-rule:nonzero;stroke:none"
       transform="matrix(1.3333333,0,0,-1.3333333,352.00013,513.31547)"
       clip-path="url(#clipPath341)" />
    <path
       id="path342"
       d="M 0,0 C 0.657,-0.657 1.269,-1.206 1.67,-1.511 1.365,-1.109 0.816,-0.498 0.159,0.159 -0.499,0.817 -1.11,1.366 -1.512,1.671 -1.207,1.27 -0.658,0.658 0,0"
       style="fill:#ffe47d;fill-opacity:1;fill-rule:nonzero;stroke:none"
       transform="matrix(1.3333333,0,0,-1.3333333,347.1668,520.214)"
       clip-path="url(#clipPath343)" />
    <path
       id="path344"
       d="m 0,0 c -0.657,-0.657 -1.206,-1.269 -1.511,-1.67 0.401,0.305 1.013,0.854 1.67,1.511 C 0.817,0.499 1.366,1.11 1.671,1.512 1.27,1.207 0.658,0.658 0,0"
       style="fill:#ffe47d;fill-opacity:1;fill-rule:nonzero;stroke:none"
       transform="matrix(1.3333333,0,0,-1.3333333,439.7684,569.83373)"
       clip-path="url(#clipPath345)" />
    <path
       id="path346"
       d="M 0,0 C 0.658,0.658 1.207,1.27 1.512,1.671 1.11,1.365 0.499,0.817 -0.159,0.159 -0.816,-0.498 -1.365,-1.109 -1.67,-1.511 -1.269,-1.206 -0.657,-0.657 0,0"
       style="fill:#ffe47d;fill-opacity:1;fill-rule:nonzero;stroke:none"
       transform="matrix(1.3333333,0,0,-1.3333333,429.56467,579.5004)"
       clip-path="url(#clipPath347)" />
    <path
       id="path348"
       d="M 0,0 C -0.658,0.657 -1.27,1.206 -1.671,1.512 -1.366,1.11 -0.817,0.498 -0.159,-0.159 0.498,-0.816 1.11,-1.365 1.511,-1.671 1.206,-1.27 0.657,-0.657 0,0"
       style="fill:#ffe47d;fill-opacity:1;fill-rule:nonzero;stroke:none"
       transform="matrix(1.3333333,0,0,-1.3333333,439.50013,579.76867)"
       clip-path="url(#clipPath349)" />
    <path
       id="path350"
       d="m 0,0 v 0 c -0.318,-8.525 -0.396,-8.623 -9,-9 8.525,-0.317 8.624,-0.396 9,-9 0.318,8.525 0.396,8.624 9,9 -8.525,0.318 -8.624,0.396 -9,9"
       style="fill:#ffe47d;fill-opacity:1;fill-rule:nonzero;stroke:none"
       transform="matrix(1.3333333,0,0,-1.3333333,434.6668,562.66707)"
       clip-path="url(#clipPath351)" />
    <path
       id="path352"
       d="M 0,0 C 0.657,-0.658 1.269,-1.207 1.67,-1.512 1.365,-1.11 0.816,-0.499 0.159,0.159 -0.499,0.816 -1.11,1.365 -1.512,1.67 -1.207,1.269 -0.658,0.657 0,0"
       style="fill:#ffe47d;fill-opacity:1;fill-rule:nonzero;stroke:none"
       transform="matrix(1.3333333,0,0,-1.3333333,429.83347,569.56427)"
       clip-path="url(#clipPath353)" />
    <path
       id="path354"
       d="m 0,0 c -0.365,-0.366 -0.67,-0.706 -0.839,-0.929 0.222,0.17 0.562,0.475 0.927,0.84 0.366,0.365 0.671,0.705 0.84,0.928 C 0.705,0.67 0.365,0.365 0,0"
       style="fill:#ffe47d;fill-opacity:1;fill-rule:nonzero;stroke:none"
       transform="matrix(1.3333333,0,0,-1.3333333,429.5008,497.31427)"
       clip-path="url(#clipPath355)" />
    <path
       id="path356"
       d="M 0,0 C 0.365,0.365 0.67,0.705 0.84,0.928 0.617,0.759 0.277,0.454 -0.088,0.089 -0.454,-0.276 -0.758,-0.616 -0.928,-0.84 -0.705,-0.67 -0.365,-0.365 0,0"
       style="fill:#ffe47d;fill-opacity:1;fill-rule:nonzero;stroke:none"
       transform="matrix(1.3333333,0,0,-1.3333333,423.83213,502.68533)"
       clip-path="url(#clipPath357)" />
    <path
       id="path358"
       d="m 0,0 c -0.365,0.366 -0.705,0.671 -0.928,0.84 0.17,-0.223 0.474,-0.563 0.84,-0.928 0.365,-0.365 0.705,-0.67 0.928,-0.84 C 0.67,-0.705 0.365,-0.365 0,0"
       style="fill:#ffe47d;fill-opacity:1;fill-rule:nonzero;stroke:none"
       transform="matrix(1.3333333,0,0,-1.3333333,429.35173,502.83507)"
       clip-path="url(#clipPath359)" />
    <path
       id="path360"
       d="m 0,0 v 0 c -0.177,-4.736 -0.22,-4.791 -5,-5 4.736,-0.177 4.791,-0.22 5,-5 0.177,4.736 0.22,4.791 5,5 -4.736,0.177 -4.791,0.22 -5,5"
       style="fill:#ffe47d;fill-opacity:1;fill-rule:nonzero;stroke:none"
       transform="matrix(1.3333333,0,0,-1.3333333,426.6668,493.33373)"
       clip-path="url(#clipPath361)" />
    <path
       id="path362"
       d="M 0,0 C 0.365,-0.365 0.705,-0.67 0.928,-0.84 0.759,-0.616 0.454,-0.276 0.088,0.089 -0.277,0.454 -0.617,0.759 -0.839,0.928 -0.67,0.705 -0.365,0.365 0,0"
       style="fill:#ffe47d;fill-opacity:1;fill-rule:nonzero;stroke:none"
       transform="matrix(1.3333333,0,0,-1.3333333,423.98133,497.16573)"
       clip-path="url(#clipPath363)" />
    <path
       id="path364"
       d="m 0,0 c -0.365,-0.366 -0.67,-0.706 -0.84,-0.929 0.223,0.17 0.563,0.475 0.928,0.84 0.366,0.365 0.67,0.705 0.84,0.928 C 0.705,0.67 0.365,0.365 0,0"
       style="fill:#ffe47d;fill-opacity:1;fill-rule:nonzero;stroke:none"
       transform="matrix(1.3333333,0,0,-1.3333333,367.72347,590.6476)"
       clip-path="url(#clipPath365)" />
    <path
       id="path366"
       d="M 0,0 C 0.366,0.365 0.67,0.705 0.84,0.928 0.617,0.759 0.277,0.454 -0.088,0.089 -0.454,-0.276 -0.758,-0.616 -0.928,-0.84 -0.705,-0.67 -0.365,-0.365 0,0"
       style="fill:#ffe47d;fill-opacity:1;fill-rule:nonzero;stroke:none"
       transform="matrix(1.3333333,0,0,-1.3333333,362.05413,596.01867)"
       clip-path="url(#clipPath367)" />
    <path
       id="path368"
       d="m 0,0 c -0.365,0.366 -0.705,0.671 -0.928,0.84 0.17,-0.223 0.474,-0.563 0.84,-0.928 0.365,-0.365 0.705,-0.67 0.928,-0.84 C 0.67,-0.705 0.366,-0.365 0,0"
       style="fill:#ffe47d;fill-opacity:1;fill-rule:nonzero;stroke:none"
       transform="matrix(1.3333333,0,0,-1.3333333,367.57373,596.1684)"
       clip-path="url(#clipPath369)" />
    <path
       id="path370"
       d="m 0,0 v 0 c -0.177,-4.736 -0.22,-4.791 -5,-5 4.736,-0.177 4.791,-0.22 5,-5 0.177,4.736 0.22,4.791 5,5 -4.736,0.177 -4.791,0.22 -5,5"
       style="fill:#ffe47d;fill-opacity:1;fill-rule:nonzero;stroke:none"
       transform="matrix(1.3333333,0,0,-1.3333333,364.8888,586.66707)"
       clip-path="url(#clipPath371)" />
    <path
       id="path372"
       d="M 0,0 C 0.365,-0.365 0.705,-0.67 0.928,-0.84 0.758,-0.616 0.454,-0.276 0.088,0.089 -0.277,0.454 -0.617,0.759 -0.84,0.928 -0.67,0.705 -0.365,0.365 0,0"
       style="fill:#ffe47d;fill-opacity:1;fill-rule:nonzero;stroke:none"
       transform="matrix(1.3333333,0,0,-1.3333333,362.204,590.49907)"
       clip-path="url(#clipPath373)" />
  </g>
</svg>
