<?xml version="1.0" encoding="UTF-8" standalone="no"?>
<!-- Created with Inkscape (http://www.inkscape.org/) -->

<svg
   version="1.1"
   id="svg1"
   width="106.66666"
   height="106.66669"
   viewBox="0 0 106.66666 106.66669"
   xmlns="http://www.w3.org/2000/svg"
   xmlns:svg="http://www.w3.org/2000/svg">
  <defs
     id="defs1">
    <clipPath
       clipPathUnits="userSpaceOnUse"
       id="clipPath245">
      <path
         d="M 0,500 H 750 V 0 H 0 Z"
         transform="translate(-135.0001,-89.9997)"
         id="path245" />
    </clipPath>
    <clipPath
       clipPathUnits="userSpaceOnUse"
       id="clipPath247">
      <path
         d="M 0,500 H 750 V 0 H 0 Z"
         transform="translate(-135.0001,-89.9997)"
         id="path247" />
    </clipPath>
    <clipPath
       clipPathUnits="userSpaceOnUse"
       id="clipPath249">
      <path
         d="M 0,500 H 750 V 0 H 0 Z"
         transform="translate(-135.0001,-89.9997)"
         id="path249" />
    </clipPath>
    <clipPath
       clipPathUnits="userSpaceOnUse"
       id="clipPath251">
      <path
         d="M 0,500 H 750 V 0 H 0 Z"
         transform="translate(-135.0001,-89.9997)"
         id="path251" />
    </clipPath>
    <clipPath
       clipPathUnits="userSpaceOnUse"
       id="clipPath253">
      <path
         d="M 0,500 H 750 V 0 H 0 Z"
         transform="translate(-135.0001,-89.9997)"
         id="path253" />
    </clipPath>
    <clipPath
       clipPathUnits="userSpaceOnUse"
       id="clipPath255">
      <path
         d="M 0,500 H 750 V 0 H 0 Z"
         transform="translate(-135.0001,-89.9997)"
         id="path255" />
    </clipPath>
    <clipPath
       clipPathUnits="userSpaceOnUse"
       id="clipPath257">
      <path
         d="M 0,500 H 750 V 0 H 0 Z"
         transform="translate(-135.0001,-89.9997)"
         id="path257" />
    </clipPath>
    <clipPath
       clipPathUnits="userSpaceOnUse"
       id="clipPath259">
      <path
         d="M 0,500 H 750 V 0 H 0 Z"
         transform="translate(-135.0001,-89.9997)"
         id="path259" />
    </clipPath>
    <clipPath
       clipPathUnits="userSpaceOnUse"
       id="clipPath261">
      <path
         d="M 0,500 H 750 V 0 H 0 Z"
         transform="translate(-100.00011,-124.9997)"
         id="path261" />
    </clipPath>
    <clipPath
       clipPathUnits="userSpaceOnUse"
       id="clipPath263">
      <path
         d="M 0,500 H 750 V 0 H 0 Z"
         transform="translate(-100.00011,-124.9997)"
         id="path263" />
    </clipPath>
    <clipPath
       clipPathUnits="userSpaceOnUse"
       id="clipPath265">
      <path
         d="M 0,500 H 750 V 0 H 0 Z"
         transform="translate(-100.00011,-124.9997)"
         id="path265" />
    </clipPath>
    <clipPath
       clipPathUnits="userSpaceOnUse"
       id="clipPath267">
      <path
         d="M 0,500 H 750 V 0 H 0 Z"
         transform="translate(-100.00011,-124.9997)"
         id="path267" />
    </clipPath>
    <clipPath
       clipPathUnits="userSpaceOnUse"
       id="clipPath269">
      <path
         d="M 0,500 H 750 V 0 H 0 Z"
         transform="translate(-100.00011,-124.9997)"
         id="path269" />
    </clipPath>
    <clipPath
       clipPathUnits="userSpaceOnUse"
       id="clipPath271">
      <path
         d="M 0,500 H 750 V 0 H 0 Z"
         transform="translate(-100.00011,-124.9997)"
         id="path271" />
    </clipPath>
    <clipPath
       clipPathUnits="userSpaceOnUse"
       id="clipPath273">
      <path
         d="M 0,500 H 750 V 0 H 0 Z"
         transform="translate(-100.00011,-124.9997)"
         id="path273" />
    </clipPath>
    <clipPath
       clipPathUnits="userSpaceOnUse"
       id="clipPath275">
      <path
         d="M 0,500 H 750 V 0 H 0 Z"
         transform="translate(-100.00011,-124.9997)"
         id="path275" />
    </clipPath>
    <clipPath
       clipPathUnits="userSpaceOnUse"
       id="clipPath277">
      <path
         d="M 0,500 H 750 V 0 H 0 Z"
         transform="translate(-171.0001,-53.999699)"
         id="path277" />
    </clipPath>
    <clipPath
       clipPathUnits="userSpaceOnUse"
       id="clipPath279">
      <path
         d="M 0,500 H 750 V 0 H 0 Z"
         transform="translate(-171.0001,-53.999699)"
         id="path279" />
    </clipPath>
    <clipPath
       clipPathUnits="userSpaceOnUse"
       id="clipPath281">
      <path
         d="M 0,500 H 750 V 0 H 0 Z"
         transform="translate(-171.0001,-53.999699)"
         id="path281" />
    </clipPath>
    <clipPath
       clipPathUnits="userSpaceOnUse"
       id="clipPath283">
      <path
         d="M 0,500 H 750 V 0 H 0 Z"
         transform="translate(-171.0001,-53.999699)"
         id="path283" />
    </clipPath>
    <clipPath
       clipPathUnits="userSpaceOnUse"
       id="clipPath285">
      <path
         d="M 0,500 H 750 V 0 H 0 Z"
         transform="translate(-171.0001,-53.999699)"
         id="path285" />
    </clipPath>
    <clipPath
       clipPathUnits="userSpaceOnUse"
       id="clipPath287">
      <path
         d="M 0,500 H 750 V 0 H 0 Z"
         transform="translate(-171.0001,-53.999699)"
         id="path287" />
    </clipPath>
    <clipPath
       clipPathUnits="userSpaceOnUse"
       id="clipPath289">
      <path
         d="M 0,500 H 750 V 0 H 0 Z"
         transform="translate(-171.0001,-53.999699)"
         id="path289" />
    </clipPath>
    <clipPath
       clipPathUnits="userSpaceOnUse"
       id="clipPath291">
      <path
         d="M 0,500 H 750 V 0 H 0 Z"
         transform="translate(-171.0001,-53.999699)"
         id="path291" />
    </clipPath>
    <clipPath
       clipPathUnits="userSpaceOnUse"
       id="clipPath293">
      <path
         d="M 0,500 H 750 V 0 H 0 Z"
         transform="translate(-122.4733,-61.768199)"
         id="path293" />
    </clipPath>
    <clipPath
       clipPathUnits="userSpaceOnUse"
       id="clipPath295">
      <path
         d="M 0,500 H 750 V 0 H 0 Z"
         transform="translate(-122.4733,-61.768199)"
         id="path295" />
    </clipPath>
    <clipPath
       clipPathUnits="userSpaceOnUse"
       id="clipPath297">
      <path
         d="M 0,500 H 750 V 0 H 0 Z"
         transform="translate(-122.4733,-61.768199)"
         id="path297" />
    </clipPath>
    <clipPath
       clipPathUnits="userSpaceOnUse"
       id="clipPath299">
      <path
         d="M 0,500 H 750 V 0 H 0 Z"
         transform="translate(-122.4733,-61.768199)"
         id="path299" />
    </clipPath>
    <clipPath
       clipPathUnits="userSpaceOnUse"
       id="clipPath301">
      <path
         d="M 0,500 H 750 V 0 H 0 Z"
         transform="translate(-122.4733,-61.768199)"
         id="path301" />
    </clipPath>
    <clipPath
       clipPathUnits="userSpaceOnUse"
       id="clipPath303">
      <path
         d="M 0,500 H 750 V 0 H 0 Z"
         transform="translate(-122.4733,-61.768199)"
         id="path303" />
    </clipPath>
    <clipPath
       clipPathUnits="userSpaceOnUse"
       id="clipPath305">
      <path
         d="M 0,500 H 750 V 0 H 0 Z"
         transform="translate(-122.4733,-61.768199)"
         id="path305" />
    </clipPath>
    <clipPath
       clipPathUnits="userSpaceOnUse"
       id="clipPath307">
      <path
         d="M 0,500 H 750 V 0 H 0 Z"
         transform="translate(-122.4733,-61.768199)"
         id="path307" />
    </clipPath>
    <clipPath
       clipPathUnits="userSpaceOnUse"
       id="clipPath309">
      <path
         d="M 0,500 H 750 V 0 H 0 Z"
         transform="translate(-146.319,-116.79851)"
         id="path309" />
    </clipPath>
    <clipPath
       clipPathUnits="userSpaceOnUse"
       id="clipPath311">
      <path
         d="M 0,500 H 750 V 0 H 0 Z"
         transform="translate(-146.319,-116.79851)"
         id="path311" />
    </clipPath>
    <clipPath
       clipPathUnits="userSpaceOnUse"
       id="clipPath313">
      <path
         d="M 0,500 H 750 V 0 H 0 Z"
         transform="translate(-146.319,-116.79851)"
         id="path313" />
    </clipPath>
    <clipPath
       clipPathUnits="userSpaceOnUse"
       id="clipPath315">
      <path
         d="M 0,500 H 750 V 0 H 0 Z"
         transform="translate(-146.319,-116.79851)"
         id="path315" />
    </clipPath>
    <clipPath
       clipPathUnits="userSpaceOnUse"
       id="clipPath317">
      <path
         d="M 0,500 H 750 V 0 H 0 Z"
         transform="translate(-146.319,-116.79851)"
         id="path317" />
    </clipPath>
    <clipPath
       clipPathUnits="userSpaceOnUse"
       id="clipPath319">
      <path
         d="M 0,500 H 750 V 0 H 0 Z"
         transform="translate(-146.319,-116.79851)"
         id="path319" />
    </clipPath>
    <clipPath
       clipPathUnits="userSpaceOnUse"
       id="clipPath321">
      <path
         d="M 0,500 H 750 V 0 H 0 Z"
         transform="translate(-146.319,-116.79851)"
         id="path321" />
    </clipPath>
    <clipPath
       clipPathUnits="userSpaceOnUse"
       id="clipPath323">
      <path
         d="M 0,500 H 750 V 0 H 0 Z"
         transform="translate(-146.319,-116.79851)"
         id="path323" />
    </clipPath>
  </defs>
  <g
     id="layer-MC0"
     style="display:none"
     transform="translate(-126.6668,-493.33374)">
    <path
       id="path1"
       d="M 0,0 H 750 V 500 H 0 Z"
       style="fill:#302a42;fill-opacity:1;fill-rule:nonzero;stroke:none"
       transform="matrix(1.3333333,0,0,-1.3333333,0,666.66667)" />
  </g>
  <g
     id="layer-MC1"
     transform="translate(-126.6668,-493.33374)">
    <path
       id="path244"
       d="M 0,0 V 30 C 1.223,0 0,1.146 30,0 Z"
       style="fill:#ffe47d;fill-opacity:1;fill-rule:nonzero;stroke:none"
       transform="matrix(1.3333333,0,0,-1.3333333,180.00013,546.66707)"
       clip-path="url(#clipPath245)" />
    <path
       id="path246"
       d="M 0,0 V 30 C -1.223,0 0,1.146 -30,0 Z"
       style="fill:#ffe47d;fill-opacity:1;fill-rule:nonzero;stroke:none"
       transform="matrix(1.3333333,0,0,-1.3333333,180.00013,546.66707)"
       clip-path="url(#clipPath247)" />
    <path
       id="path248"
       d="M 0,0 V -30 C -1.223,0 0,-1.146 -30,0 Z"
       style="fill:#ffe47d;fill-opacity:1;fill-rule:nonzero;stroke:none"
       transform="matrix(1.3333333,0,0,-1.3333333,180.00013,546.66707)"
       clip-path="url(#clipPath249)" />
    <path
       id="path250"
       d="M 0,0 V -30 C 1.223,0 0,-1.146 30,0 Z"
       style="fill:#ffe47d;fill-opacity:1;fill-rule:nonzero;stroke:none"
       transform="matrix(1.3333333,0,0,-1.3333333,180.00013,546.66707)"
       clip-path="url(#clipPath251)" />
    <path
       id="path252"
       d="M 0,0 21.213,21.214 C 0.865,-0.864 0.811,0.811 21.213,-21.213 Z"
       style="fill:#ffe47d;fill-opacity:1;fill-rule:nonzero;stroke:none"
       transform="matrix(1.3333333,0,0,-1.3333333,180.00013,546.66707)"
       clip-path="url(#clipPath253)" />
    <path
       id="path254"
       d="M 0,0 21.213,21.214 C -0.865,0.865 0.811,0.811 -21.213,21.214 Z"
       style="fill:#ffe47d;fill-opacity:1;fill-rule:nonzero;stroke:none"
       transform="matrix(1.3333333,0,0,-1.3333333,180.00013,546.66707)"
       clip-path="url(#clipPath255)" />
    <path
       id="path256"
       d="m 0,0 -21.213,-21.213 c 20.348,22.078 20.402,20.402 0,42.427 z"
       style="fill:#ffe47d;fill-opacity:1;fill-rule:nonzero;stroke:none"
       transform="matrix(1.3333333,0,0,-1.3333333,180.00013,546.66707)"
       clip-path="url(#clipPath257)" />
    <path
       id="path258"
       d="m 0,0 -21.213,-21.213 c 22.078,20.349 20.402,20.402 42.426,0 z"
       style="fill:#ffe47d;fill-opacity:1;fill-rule:nonzero;stroke:none"
       transform="matrix(1.3333333,0,0,-1.3333333,180.00013,546.66707)"
       clip-path="url(#clipPath259)" />
    <path
       id="path260"
       d="M 0,0 V 5 C 0.204,0 0,0.191 5,0 Z"
       style="fill:#ffe47d;fill-opacity:1;fill-rule:nonzero;stroke:none"
       transform="matrix(1.3333333,0,0,-1.3333333,133.33347,500.0004)"
       clip-path="url(#clipPath261)" />
    <path
       id="path262"
       d="M 0,0 V 5 C -0.204,0 0,0.191 -5,0 Z"
       style="fill:#ffe47d;fill-opacity:1;fill-rule:nonzero;stroke:none"
       transform="matrix(1.3333333,0,0,-1.3333333,133.33347,500.0004)"
       clip-path="url(#clipPath263)" />
    <path
       id="path264"
       d="m 0,0 v -5 c -0.204,5 0,4.81 -5,5 z"
       style="fill:#ffe47d;fill-opacity:1;fill-rule:nonzero;stroke:none"
       transform="matrix(1.3333333,0,0,-1.3333333,133.33347,500.0004)"
       clip-path="url(#clipPath265)" />
    <path
       id="path266"
       d="m 0,0 v -5 c 0.204,5 0,4.81 5,5 z"
       style="fill:#ffe47d;fill-opacity:1;fill-rule:nonzero;stroke:none"
       transform="matrix(1.3333333,0,0,-1.3333333,133.33347,500.0004)"
       clip-path="url(#clipPath267)" />
    <path
       id="path268"
       d="m 0,0 3.535,3.536 c -3.391,-3.68 -3.4,-3.4 0,-7.071 z"
       style="fill:#ffe47d;fill-opacity:1;fill-rule:nonzero;stroke:none"
       transform="matrix(1.3333333,0,0,-1.3333333,133.33347,500.0004)"
       clip-path="url(#clipPath269)" />
    <path
       id="path270"
       d="m 0,0 3.535,3.536 c -3.679,-3.391 -3.4,-3.4 -7.071,0 z"
       style="fill:#ffe47d;fill-opacity:1;fill-rule:nonzero;stroke:none"
       transform="matrix(1.3333333,0,0,-1.3333333,133.33347,500.0004)"
       clip-path="url(#clipPath271)" />
    <path
       id="path272"
       d="m 0,0 -3.536,-3.535 c 3.392,3.68 3.401,3.4 0,7.071 z"
       style="fill:#ffe47d;fill-opacity:1;fill-rule:nonzero;stroke:none"
       transform="matrix(1.3333333,0,0,-1.3333333,133.33347,500.0004)"
       clip-path="url(#clipPath273)" />
    <path
       id="path274"
       d="m 0,0 -3.536,-3.535 c 3.68,3.391 3.401,3.4 7.071,0 z"
       style="fill:#ffe47d;fill-opacity:1;fill-rule:nonzero;stroke:none"
       transform="matrix(1.3333333,0,0,-1.3333333,133.33347,500.0004)"
       clip-path="url(#clipPath275)" />
    <path
       id="path276"
       d="M 0,0 V 4 C 0.163,0 0,0.153 4,0 Z"
       style="fill:#ffe47d;fill-opacity:1;fill-rule:nonzero;stroke:none"
       transform="matrix(1.3333333,0,0,-1.3333333,228.00013,594.66707)"
       clip-path="url(#clipPath277)" />
    <path
       id="path278"
       d="M 0,0 V 4 C -0.163,0 0,0.153 -4,0 Z"
       style="fill:#ffe47d;fill-opacity:1;fill-rule:nonzero;stroke:none"
       transform="matrix(1.3333333,0,0,-1.3333333,228.00013,594.66707)"
       clip-path="url(#clipPath279)" />
    <path
       id="path280"
       d="m 0,0 v -4 c -0.163,4 0,3.848 -4,4 z"
       style="fill:#ffe47d;fill-opacity:1;fill-rule:nonzero;stroke:none"
       transform="matrix(1.3333333,0,0,-1.3333333,228.00013,594.66707)"
       clip-path="url(#clipPath281)" />
    <path
       id="path282"
       d="m 0,0 v -4 c 0.163,4 0,3.848 4,4 z"
       style="fill:#ffe47d;fill-opacity:1;fill-rule:nonzero;stroke:none"
       transform="matrix(1.3333333,0,0,-1.3333333,228.00013,594.66707)"
       clip-path="url(#clipPath283)" />
    <path
       id="path284"
       d="m 0,0 2.828,2.829 c -2.713,-2.944 -2.72,-2.721 0,-5.657 z"
       style="fill:#ffe47d;fill-opacity:1;fill-rule:nonzero;stroke:none"
       transform="matrix(1.3333333,0,0,-1.3333333,228.00013,594.66707)"
       clip-path="url(#clipPath285)" />
    <path
       id="path286"
       d="m 0,0 2.828,2.829 c -2.943,-2.714 -2.72,-2.721 -5.657,0 z"
       style="fill:#ffe47d;fill-opacity:1;fill-rule:nonzero;stroke:none"
       transform="matrix(1.3333333,0,0,-1.3333333,228.00013,594.66707)"
       clip-path="url(#clipPath287)" />
    <path
       id="path288"
       d="m 0,0 -2.829,-2.828 c 2.714,2.943 2.721,2.721 0,5.657 z"
       style="fill:#ffe47d;fill-opacity:1;fill-rule:nonzero;stroke:none"
       transform="matrix(1.3333333,0,0,-1.3333333,228.00013,594.66707)"
       clip-path="url(#clipPath289)" />
    <path
       id="path290"
       d="m 0,0 -2.829,-2.828 c 2.944,2.713 2.721,2.721 5.657,0 z"
       style="fill:#ffe47d;fill-opacity:1;fill-rule:nonzero;stroke:none"
       transform="matrix(1.3333333,0,0,-1.3333333,228.00013,594.66707)"
       clip-path="url(#clipPath291)" />
    <path
       id="path292"
       d="M 0,0 V 5 C 0.204,0 0,0.19 5,0 Z"
       style="fill:#ffe47d;fill-opacity:1;fill-rule:nonzero;stroke:none"
       transform="matrix(1.3333333,0,0,-1.3333333,163.29773,584.30907)"
       clip-path="url(#clipPath293)" />
    <path
       id="path294"
       d="M 0,0 V 5 C -0.204,0 0,0.19 -5,0 Z"
       style="fill:#ffe47d;fill-opacity:1;fill-rule:nonzero;stroke:none"
       transform="matrix(1.3333333,0,0,-1.3333333,163.29773,584.30907)"
       clip-path="url(#clipPath295)" />
    <path
       id="path296"
       d="m 0,0 v -5 c -0.204,5 0,4.809 -5,5 z"
       style="fill:#ffe47d;fill-opacity:1;fill-rule:nonzero;stroke:none"
       transform="matrix(1.3333333,0,0,-1.3333333,163.29773,584.30907)"
       clip-path="url(#clipPath297)" />
    <path
       id="path298"
       d="m 0,0 v -5 c 0.204,5 0,4.809 5,5 z"
       style="fill:#ffe47d;fill-opacity:1;fill-rule:nonzero;stroke:none"
       transform="matrix(1.3333333,0,0,-1.3333333,163.29773,584.30907)"
       clip-path="url(#clipPath299)" />
    <path
       id="path300"
       d="m 0,0 3.536,3.535 c -3.392,-3.68 -3.401,-3.4 0,-7.071 z"
       style="fill:#ffe47d;fill-opacity:1;fill-rule:nonzero;stroke:none"
       transform="matrix(1.3333333,0,0,-1.3333333,163.29773,584.30907)"
       clip-path="url(#clipPath301)" />
    <path
       id="path302"
       d="m 0,0 3.536,3.535 c -3.68,-3.391 -3.401,-3.4 -7.072,0 z"
       style="fill:#ffe47d;fill-opacity:1;fill-rule:nonzero;stroke:none"
       transform="matrix(1.3333333,0,0,-1.3333333,163.29773,584.30907)"
       clip-path="url(#clipPath303)" />
    <path
       id="path304"
       d="m 0,0 -3.536,-3.536 c 3.392,3.68 3.401,3.4 0,7.071 z"
       style="fill:#ffe47d;fill-opacity:1;fill-rule:nonzero;stroke:none"
       transform="matrix(1.3333333,0,0,-1.3333333,163.29773,584.30907)"
       clip-path="url(#clipPath305)" />
    <path
       id="path306"
       d="m 0,0 -3.536,-3.536 c 3.68,3.391 3.401,3.4 7.072,0 z"
       style="fill:#ffe47d;fill-opacity:1;fill-rule:nonzero;stroke:none"
       transform="matrix(1.3333333,0,0,-1.3333333,163.29773,584.30907)"
       clip-path="url(#clipPath307)" />
    <path
       id="path308"
       d="M 0,0 V 5 C 0.204,0 0,0.191 5,0 Z"
       style="fill:#ffe47d;fill-opacity:1;fill-rule:nonzero;stroke:none"
       transform="matrix(1.3333333,0,0,-1.3333333,195.092,510.93533)"
       clip-path="url(#clipPath309)" />
    <path
       id="path310"
       d="M 0,0 V 5 C -0.204,0 0,0.191 -5,0 Z"
       style="fill:#ffe47d;fill-opacity:1;fill-rule:nonzero;stroke:none"
       transform="matrix(1.3333333,0,0,-1.3333333,195.092,510.93533)"
       clip-path="url(#clipPath311)" />
    <path
       id="path312"
       d="m 0,0 v -5 c -0.204,5 0,4.809 -5,5 z"
       style="fill:#ffe47d;fill-opacity:1;fill-rule:nonzero;stroke:none"
       transform="matrix(1.3333333,0,0,-1.3333333,195.092,510.93533)"
       clip-path="url(#clipPath313)" />
    <path
       id="path314"
       d="m 0,0 v -5 c 0.204,5 0,4.809 5,5 z"
       style="fill:#ffe47d;fill-opacity:1;fill-rule:nonzero;stroke:none"
       transform="matrix(1.3333333,0,0,-1.3333333,195.092,510.93533)"
       clip-path="url(#clipPath315)" />
    <path
       id="path316"
       d="m 0,0 3.536,3.535 c -3.392,-3.68 -3.401,-3.4 0,-7.07 z"
       style="fill:#ffe47d;fill-opacity:1;fill-rule:nonzero;stroke:none"
       transform="matrix(1.3333333,0,0,-1.3333333,195.092,510.93533)"
       clip-path="url(#clipPath317)" />
    <path
       id="path318"
       d="m 0,0 3.536,3.535 c -3.68,-3.39 -3.401,-3.4 -7.072,0 z"
       style="fill:#ffe47d;fill-opacity:1;fill-rule:nonzero;stroke:none"
       transform="matrix(1.3333333,0,0,-1.3333333,195.092,510.93533)"
       clip-path="url(#clipPath319)" />
    <path
       id="path320"
       d="m 0,0 -3.536,-3.535 c 3.392,3.68 3.401,3.4 0,7.07 z"
       style="fill:#ffe47d;fill-opacity:1;fill-rule:nonzero;stroke:none"
       transform="matrix(1.3333333,0,0,-1.3333333,195.092,510.93533)"
       clip-path="url(#clipPath321)" />
    <path
       id="path322"
       d="m 0,0 -3.536,-3.535 c 3.68,3.39 3.401,3.4 7.072,0 z"
       style="fill:#ffe47d;fill-opacity:1;fill-rule:nonzero;stroke:none"
       transform="matrix(1.3333333,0,0,-1.3333333,195.092,510.93533)"
       clip-path="url(#clipPath323)" />
  </g>
</svg>
