<?xml version="1.0" encoding="UTF-8" standalone="no"?>
<!-- Created with Inkscape (http://www.inkscape.org/) -->

<svg
   version="1.1"
   id="svg1"
   width="106.66663"
   height="106.66669"
   viewBox="0 0 106.66663 106.66669"
   xmlns="http://www.w3.org/2000/svg"
   xmlns:svg="http://www.w3.org/2000/svg">
  <defs
     id="defs1">
    <clipPath
       clipPathUnits="userSpaceOnUse"
       id="clipPath375">
      <path
         d="M 0,500 H 750 V 0 H 0 Z"
         transform="translate(-454.99961,-86.9997)"
         id="path375" />
    </clipPath>
    <clipPath
       clipPathUnits="userSpaceOnUse"
       id="clipPath377">
      <path
         d="M 0,500 H 750 V 0 H 0 Z"
         transform="translate(-454.99961,-86.9997)"
         id="path377" />
    </clipPath>
    <clipPath
       clipPathUnits="userSpaceOnUse"
       id="clipPath379">
      <path
         d="M 0,500 H 750 V 0 H 0 Z"
         transform="translate(-454.99961,-86.9997)"
         id="path379" />
    </clipPath>
    <clipPath
       clipPathUnits="userSpaceOnUse"
       id="clipPath381">
      <path
         d="M 0,500 H 750 V 0 H 0 Z"
         transform="translate(-454.99961,-86.9997)"
         id="path381" />
    </clipPath>
    <clipPath
       clipPathUnits="userSpaceOnUse"
       id="clipPath383">
      <path
         d="M 0,500 H 750 V 0 H 0 Z"
         transform="translate(-454.20471,-87.7956)"
         id="path383" />
    </clipPath>
    <clipPath
       clipPathUnits="userSpaceOnUse"
       id="clipPath385">
      <path
         d="M 0,500 H 750 V 0 H 0 Z"
         transform="translate(-455.79551,-87.7956)"
         id="path385" />
    </clipPath>
    <clipPath
       clipPathUnits="userSpaceOnUse"
       id="clipPath387">
      <path
         d="M 0,500 H 750 V 0 H 0 Z"
         transform="translate(-487.49961,-122.49971)"
         id="path387" />
    </clipPath>
    <clipPath
       clipPathUnits="userSpaceOnUse"
       id="clipPath389">
      <path
         d="M 0,500 H 750 V 0 H 0 Z"
         transform="translate(-487.49961,-122.49971)"
         id="path389" />
    </clipPath>
    <clipPath
       clipPathUnits="userSpaceOnUse"
       id="clipPath391">
      <path
         d="M 0,500 H 750 V 0 H 0 Z"
         transform="translate(-487.49961,-122.49971)"
         id="path391" />
    </clipPath>
    <clipPath
       clipPathUnits="userSpaceOnUse"
       id="clipPath393">
      <path
         d="M 0,500 H 750 V 0 H 0 Z"
         transform="translate(-487.49961,-122.49971)"
         id="path393" />
    </clipPath>
    <clipPath
       clipPathUnits="userSpaceOnUse"
       id="clipPath395">
      <path
         d="M 0,500 H 750 V 0 H 0 Z"
         transform="translate(-487.30141,-122.69891)"
         id="path395" />
    </clipPath>
    <clipPath
       clipPathUnits="userSpaceOnUse"
       id="clipPath397">
      <path
         d="M 0,500 H 750 V 0 H 0 Z"
         transform="translate(-487.69891,-122.69891)"
         id="path397" />
    </clipPath>
    <clipPath
       clipPathUnits="userSpaceOnUse"
       id="clipPath399">
      <path
         d="M 0,500 H 750 V 0 H 0 Z"
         transform="translate(-424.99961,-112.94501)"
         id="path399" />
    </clipPath>
    <clipPath
       clipPathUnits="userSpaceOnUse"
       id="clipPath401">
      <path
         d="M 0,500 H 750 V 0 H 0 Z"
         transform="translate(-424.99961,-112.94501)"
         id="path401" />
    </clipPath>
    <clipPath
       clipPathUnits="userSpaceOnUse"
       id="clipPath403">
      <path
         d="M 0,500 H 750 V 0 H 0 Z"
         transform="translate(-424.99961,-112.94501)"
         id="path403" />
    </clipPath>
    <clipPath
       clipPathUnits="userSpaceOnUse"
       id="clipPath405">
      <path
         d="M 0,500 H 750 V 0 H 0 Z"
         transform="translate(-424.99961,-112.94501)"
         id="path405" />
    </clipPath>
    <clipPath
       clipPathUnits="userSpaceOnUse"
       id="clipPath407">
      <path
         d="M 0,500 H 750 V 0 H 0 Z"
         transform="translate(-424.73501,-113.2106)"
         id="path407" />
    </clipPath>
    <clipPath
       clipPathUnits="userSpaceOnUse"
       id="clipPath409">
      <path
         d="M 0,500 H 750 V 0 H 0 Z"
         transform="translate(-425.26531,-113.2097)"
         id="path409" />
    </clipPath>
    <clipPath
       clipPathUnits="userSpaceOnUse"
       id="clipPath411">
      <path
         d="M 0,500 H 750 V 0 H 0 Z"
         transform="translate(-471.90981,-57.499701)"
         id="path411" />
    </clipPath>
    <clipPath
       clipPathUnits="userSpaceOnUse"
       id="clipPath413">
      <path
         d="M 0,500 H 750 V 0 H 0 Z"
         transform="translate(-471.90981,-57.499701)"
         id="path413" />
    </clipPath>
    <clipPath
       clipPathUnits="userSpaceOnUse"
       id="clipPath415">
      <path
         d="M 0,500 H 750 V 0 H 0 Z"
         transform="translate(-471.90981,-57.499701)"
         id="path415" />
    </clipPath>
    <clipPath
       clipPathUnits="userSpaceOnUse"
       id="clipPath417">
      <path
         d="M 0,500 H 750 V 0 H 0 Z"
         transform="translate(-471.90981,-57.499701)"
         id="path417" />
    </clipPath>
    <clipPath
       clipPathUnits="userSpaceOnUse"
       id="clipPath419">
      <path
         d="M 0,500 H 750 V 0 H 0 Z"
         transform="translate(-471.71061,-57.698901)"
         id="path419" />
    </clipPath>
    <clipPath
       clipPathUnits="userSpaceOnUse"
       id="clipPath421">
      <path
         d="M 0,500 H 750 V 0 H 0 Z"
         transform="translate(-472.10901,-57.698901)"
         id="path421" />
    </clipPath>
  </defs>
  <g
     id="layer-MC0"
     style="display:none"
     transform="translate(-553.33282,-493.33374)">
    <path
       id="path1"
       d="M 0,0 H 750 V 500 H 0 Z"
       style="fill:#302a42;fill-opacity:1;fill-rule:nonzero;stroke:none"
       transform="matrix(1.3333333,0,0,-1.3333333,0,666.66667)" />
  </g>
  <g
     id="layer-MC1"
     transform="translate(-553.33282,-493.33374)">
    <path
       id="path374"
       d="M 0,0 V 30 C 4.052,0 0,3.928 30,0 Z"
       style="fill:#ffe47d;fill-opacity:1;fill-rule:nonzero;stroke:none"
       transform="matrix(1.3333333,0,0,-1.3333333,606.66613,550.66707)"
       clip-path="url(#clipPath375)" />
    <path
       id="path376"
       d="M 0,0 V 30 C -4.051,0 0,3.928 -30,0 Z"
       style="fill:#ffe47d;fill-opacity:1;fill-rule:nonzero;stroke:none"
       transform="matrix(1.3333333,0,0,-1.3333333,606.66613,550.66707)"
       clip-path="url(#clipPath377)" />
    <path
       id="path378"
       d="M 0,0 V -30 C -4.051,0 0,-3.927 -30,0 Z"
       style="fill:#ffe47d;fill-opacity:1;fill-rule:nonzero;stroke:none"
       transform="matrix(1.3333333,0,0,-1.3333333,606.66613,550.66707)"
       clip-path="url(#clipPath379)" />
    <path
       id="path380"
       d="M 0,0 V -30 C 4.052,0 0,-3.927 30,0 Z"
       style="fill:#ffe47d;fill-opacity:1;fill-rule:nonzero;stroke:none"
       transform="matrix(1.3333333,0,0,-1.3333333,606.66613,550.66707)"
       clip-path="url(#clipPath381)" />
    <path
       id="path382"
       d="M 0,0 C -6.31,-6.31 -11.66,-12.276 -15.114,-16.705 -10.686,-13.251 -4.719,-7.9 1.591,-1.591 7.9,4.719 13.251,10.685 16.705,15.114 12.275,11.66 6.31,6.31 0,0"
       style="fill:#ffe47d;fill-opacity:1;fill-rule:nonzero;stroke:none"
       transform="matrix(1.3333333,0,0,-1.3333333,605.60627,549.60587)"
       clip-path="url(#clipPath383)" />
    <path
       id="path384"
       d="M 0,0 C -6.31,6.31 -12.276,11.66 -16.705,15.114 -13.251,10.685 -7.9,4.719 -1.591,-1.591 4.719,-7.9 10.685,-13.251 15.114,-16.705 11.66,-12.276 6.31,-6.31 0,0"
       style="fill:#ffe47d;fill-opacity:1;fill-rule:nonzero;stroke:none"
       transform="matrix(1.3333333,0,0,-1.3333333,607.72733,549.60587)"
       clip-path="url(#clipPath385)" />
    <path
       id="path386"
       d="M 0,0 V 7.5 C 1.013,0 0,0.982 7.5,0 Z"
       style="fill:#ffe47d;fill-opacity:1;fill-rule:nonzero;stroke:none"
       transform="matrix(1.3333333,0,0,-1.3333333,649.99947,503.33373)"
       clip-path="url(#clipPath387)" />
    <path
       id="path388"
       d="M 0,0 V 7.5 C -1.013,0 0,0.982 -7.5,0 Z"
       style="fill:#ffe47d;fill-opacity:1;fill-rule:nonzero;stroke:none"
       transform="matrix(1.3333333,0,0,-1.3333333,649.99947,503.33373)"
       clip-path="url(#clipPath389)" />
    <path
       id="path390"
       d="M 0,0 V -7.5 C -1.013,0 0,-0.981 -7.5,0 Z"
       style="fill:#ffe47d;fill-opacity:1;fill-rule:nonzero;stroke:none"
       transform="matrix(1.3333333,0,0,-1.3333333,649.99947,503.33373)"
       clip-path="url(#clipPath391)" />
    <path
       id="path392"
       d="M 0,0 V -7.5 C 1.013,0 0,-0.981 7.5,0 Z"
       style="fill:#ffe47d;fill-opacity:1;fill-rule:nonzero;stroke:none"
       transform="matrix(1.3333333,0,0,-1.3333333,649.99947,503.33373)"
       clip-path="url(#clipPath393)" />
    <path
       id="path394"
       d="m 0,0 c -1.578,-1.577 -2.915,-3.069 -3.779,-4.177 1.107,0.864 2.599,2.201 4.176,3.78 C 1.975,1.18 3.313,2.671 4.176,3.778 3.068,2.915 1.577,1.577 0,0"
       style="fill:#ffe47d;fill-opacity:1;fill-rule:nonzero;stroke:none"
       transform="matrix(1.3333333,0,0,-1.3333333,649.7352,503.06813)"
       clip-path="url(#clipPath395)" />
    <path
       id="path396"
       d="M 0,0 C -1.577,1.577 -3.069,2.915 -4.177,3.778 -3.313,2.671 -1.976,1.18 -0.397,-0.397 1.18,-1.976 2.671,-3.313 3.778,-4.177 2.915,-3.069 1.577,-1.577 0,0"
       style="fill:#ffe47d;fill-opacity:1;fill-rule:nonzero;stroke:none"
       transform="matrix(1.3333333,0,0,-1.3333333,650.2652,503.06813)"
       clip-path="url(#clipPath397)" />
    <path
       id="path398"
       d="M 0,0 V 10 C 1.351,0 0,1.31 10,0 Z"
       style="fill:#ffe47d;fill-opacity:1;fill-rule:nonzero;stroke:none"
       transform="matrix(1.3333333,0,0,-1.3333333,566.66613,516.07333)"
       clip-path="url(#clipPath399)" />
    <path
       id="path400"
       d="M 0,0 V 10 C -1.35,0 0,1.31 -10,0 Z"
       style="fill:#ffe47d;fill-opacity:1;fill-rule:nonzero;stroke:none"
       transform="matrix(1.3333333,0,0,-1.3333333,566.66613,516.07333)"
       clip-path="url(#clipPath401)" />
    <path
       id="path402"
       d="M 0,0 V -10 C -1.35,0 0,-1.31 -10,0 Z"
       style="fill:#ffe47d;fill-opacity:1;fill-rule:nonzero;stroke:none"
       transform="matrix(1.3333333,0,0,-1.3333333,566.66613,516.07333)"
       clip-path="url(#clipPath403)" />
    <path
       id="path404"
       d="M 0,0 V -10 C 1.351,0 0,-1.31 10,0 Z"
       style="fill:#ffe47d;fill-opacity:1;fill-rule:nonzero;stroke:none"
       transform="matrix(1.3333333,0,0,-1.3333333,566.66613,516.07333)"
       clip-path="url(#clipPath405)" />
    <path
       id="path406"
       d="m 0,0 c -2.104,-2.104 -3.887,-4.093 -5.038,-5.569 1.476,1.151 3.465,2.935 5.568,5.039 C 2.634,1.572 4.417,3.562 5.568,5.038 4.092,3.887 2.104,2.103 0,0"
       style="fill:#ffe47d;fill-opacity:1;fill-rule:nonzero;stroke:none"
       transform="matrix(1.3333333,0,0,-1.3333333,566.31333,515.7192)"
       clip-path="url(#clipPath407)" />
    <path
       id="path408"
       d="M 0,0 C -2.104,2.104 -4.092,3.888 -5.568,5.039 -4.417,3.563 -2.634,1.573 -0.53,-0.53 1.573,-2.633 3.562,-4.417 5.038,-5.568 3.887,-4.092 2.104,-2.103 0,0"
       style="fill:#ffe47d;fill-opacity:1;fill-rule:nonzero;stroke:none"
       transform="matrix(1.3333333,0,0,-1.3333333,567.0204,515.7204)"
       clip-path="url(#clipPath409)" />
    <path
       id="path410"
       d="M 0,0 V 7.5 C 1.013,0 0,0.982 7.5,0 Z"
       style="fill:#ffe47d;fill-opacity:1;fill-rule:nonzero;stroke:none"
       transform="matrix(1.3333333,0,0,-1.3333333,629.21307,590.0004)"
       clip-path="url(#clipPath411)" />
    <path
       id="path412"
       d="M 0,0 V 7.5 C -1.013,0 0,0.982 -7.5,0 Z"
       style="fill:#ffe47d;fill-opacity:1;fill-rule:nonzero;stroke:none"
       transform="matrix(1.3333333,0,0,-1.3333333,629.21307,590.0004)"
       clip-path="url(#clipPath413)" />
    <path
       id="path414"
       d="M 0,0 V -7.5 C -1.013,0 0,-0.981 -7.5,0 Z"
       style="fill:#ffe47d;fill-opacity:1;fill-rule:nonzero;stroke:none"
       transform="matrix(1.3333333,0,0,-1.3333333,629.21307,590.0004)"
       clip-path="url(#clipPath415)" />
    <path
       id="path416"
       d="M 0,0 V -7.5 C 1.013,0 0,-0.981 7.5,0 Z"
       style="fill:#ffe47d;fill-opacity:1;fill-rule:nonzero;stroke:none"
       transform="matrix(1.3333333,0,0,-1.3333333,629.21307,590.0004)"
       clip-path="url(#clipPath417)" />
    <path
       id="path418"
       d="m 0,0 c -1.577,-1.577 -2.915,-3.069 -3.778,-4.177 1.107,0.864 2.599,2.201 4.176,3.78 C 1.976,1.18 3.313,2.671 4.177,3.778 3.069,2.915 1.578,1.577 0,0"
       style="fill:#ffe47d;fill-opacity:1;fill-rule:nonzero;stroke:none"
       transform="matrix(1.3333333,0,0,-1.3333333,628.94747,589.7348)"
       clip-path="url(#clipPath419)" />
    <path
       id="path420"
       d="M 0,0 C -1.577,1.577 -3.069,2.915 -4.177,3.778 -3.313,2.671 -1.976,1.18 -0.398,-0.397 1.18,-1.976 2.671,-3.313 3.778,-4.177 2.915,-3.069 1.577,-1.577 0,0"
       style="fill:#ffe47d;fill-opacity:1;fill-rule:nonzero;stroke:none"
       transform="matrix(1.3333333,0,0,-1.3333333,629.47867,589.7348)"
       clip-path="url(#clipPath421)" />
  </g>
</svg>
