<?xml version="1.0" encoding="UTF-8" standalone="no"?>
<!-- Created with Inkscape (http://www.inkscape.org/) -->

<svg
   version="1.1"
   id="svg1"
   width="106.66666"
   height="106.66736"
   viewBox="0 0 106.66666 106.66736"
   xmlns="http://www.w3.org/2000/svg"
   xmlns:svg="http://www.w3.org/2000/svg">
  <defs
     id="defs1">
    <clipPath
       clipPathUnits="userSpaceOnUse"
       id="clipPath155">
      <path
         d="M 0,500 H 750 V 0 H 0 Z"
         transform="translate(-135.0001,-280.0002)"
         id="path155" />
    </clipPath>
    <clipPath
       clipPathUnits="userSpaceOnUse"
       id="clipPath157">
      <path
         d="M 0,500 H 750 V 0 H 0 Z"
         transform="translate(-109.0192,-234.99971)"
         id="path157" />
    </clipPath>
    <clipPath
       clipPathUnits="userSpaceOnUse"
       id="clipPath159">
      <path
         d="M 0,500 H 750 V 0 H 0 Z"
         transform="translate(-160.9806,-234.99971)"
         id="path159" />
    </clipPath>
    <clipPath
       clipPathUnits="userSpaceOnUse"
       id="clipPath161">
      <path
         d="M 0,500 H 750 V 0 H 0 Z"
         transform="translate(-135.0001,-219.99971)"
         id="path161" />
    </clipPath>
    <clipPath
       clipPathUnits="userSpaceOnUse"
       id="clipPath163">
      <path
         d="M 0,500 H 750 V 0 H 0 Z"
         transform="translate(-160.9806,-265.0002)"
         id="path163" />
    </clipPath>
    <clipPath
       clipPathUnits="userSpaceOnUse"
       id="clipPath165">
      <path
         d="M 0,500 H 750 V 0 H 0 Z"
         transform="translate(-109.0192,-265.0002)"
         id="path165" />
    </clipPath>
    <clipPath
       clipPathUnits="userSpaceOnUse"
       id="clipPath167">
      <path
         d="M 0,500 H 750 V 0 H 0 Z"
         transform="translate(-153.6237,-290.00021)"
         id="path167" />
    </clipPath>
    <clipPath
       clipPathUnits="userSpaceOnUse"
       id="clipPath169">
      <path
         d="M 0,500 H 750 V 0 H 0 Z"
         transform="translate(-149.2936,-282.50021)"
         id="path169" />
    </clipPath>
    <clipPath
       clipPathUnits="userSpaceOnUse"
       id="clipPath171">
      <path
         d="M 0,500 H 750 V 0 H 0 Z"
         transform="translate(-157.95381,-282.50021)"
         id="path171" />
    </clipPath>
    <clipPath
       clipPathUnits="userSpaceOnUse"
       id="clipPath173">
      <path
         d="M 0,500 H 750 V 0 H 0 Z"
         transform="translate(-153.6237,-280.0002)"
         id="path173" />
    </clipPath>
    <clipPath
       clipPathUnits="userSpaceOnUse"
       id="clipPath175">
      <path
         d="M 0,500 H 750 V 0 H 0 Z"
         transform="translate(-157.95381,-287.5002)"
         id="path175" />
    </clipPath>
    <clipPath
       clipPathUnits="userSpaceOnUse"
       id="clipPath177">
      <path
         d="M 0,500 H 750 V 0 H 0 Z"
         transform="translate(-149.2936,-287.5002)"
         id="path177" />
    </clipPath>
    <clipPath
       clipPathUnits="userSpaceOnUse"
       id="clipPath179">
      <path
         d="M 0,500 H 750 V 0 H 0 Z"
         transform="translate(-114.4855,-231.4929)"
         id="path179" />
    </clipPath>
    <clipPath
       clipPathUnits="userSpaceOnUse"
       id="clipPath181">
      <path
         d="M 0,500 H 750 V 0 H 0 Z"
         transform="translate(-110.15541,-223.9929)"
         id="path181" />
    </clipPath>
    <clipPath
       clipPathUnits="userSpaceOnUse"
       id="clipPath183">
      <path
         d="M 0,500 H 750 V 0 H 0 Z"
         transform="translate(-118.8156,-223.9929)"
         id="path183" />
    </clipPath>
    <clipPath
       clipPathUnits="userSpaceOnUse"
       id="clipPath185">
      <path
         d="M 0,500 H 750 V 0 H 0 Z"
         transform="translate(-114.4855,-221.49291)"
         id="path185" />
    </clipPath>
    <clipPath
       clipPathUnits="userSpaceOnUse"
       id="clipPath187">
      <path
         d="M 0,500 H 750 V 0 H 0 Z"
         transform="translate(-118.8156,-228.99291)"
         id="path187" />
    </clipPath>
    <clipPath
       clipPathUnits="userSpaceOnUse"
       id="clipPath189">
      <path
         d="M 0,500 H 750 V 0 H 0 Z"
         transform="translate(-110.15541,-228.99291)"
         id="path189" />
    </clipPath>
    <clipPath
       clipPathUnits="userSpaceOnUse"
       id="clipPath191">
      <path
         d="M 0,500 H 750 V 0 H 0 Z"
         transform="translate(-168.505,-224.9997)"
         id="path191" />
    </clipPath>
    <clipPath
       clipPathUnits="userSpaceOnUse"
       id="clipPath193">
      <path
         d="M 0,500 H 750 V 0 H 0 Z"
         transform="translate(-162.0094,-213.7497)"
         id="path193" />
    </clipPath>
    <clipPath
       clipPathUnits="userSpaceOnUse"
       id="clipPath195">
      <path
         d="M 0,500 H 750 V 0 H 0 Z"
         transform="translate(-175.00011,-213.7497)"
         id="path195" />
    </clipPath>
    <clipPath
       clipPathUnits="userSpaceOnUse"
       id="clipPath197">
      <path
         d="M 0,500 H 750 V 0 H 0 Z"
         transform="translate(-168.505,-209.9997)"
         id="path197" />
    </clipPath>
    <clipPath
       clipPathUnits="userSpaceOnUse"
       id="clipPath199">
      <path
         d="M 0,500 H 750 V 0 H 0 Z"
         transform="translate(-175.00011,-221.2497)"
         id="path199" />
    </clipPath>
    <clipPath
       clipPathUnits="userSpaceOnUse"
       id="clipPath201">
      <path
         d="M 0,500 H 750 V 0 H 0 Z"
         transform="translate(-162.0094,-221.2497)"
         id="path201" />
    </clipPath>
    <clipPath
       clipPathUnits="userSpaceOnUse"
       id="clipPath203">
      <path
         d="M 0,500 H 750 V 0 H 0 Z"
         transform="translate(-101.49531,-282.50021)"
         id="path203" />
    </clipPath>
    <clipPath
       clipPathUnits="userSpaceOnUse"
       id="clipPath205">
      <path
         d="M 0,500 H 750 V 0 H 0 Z"
         transform="translate(-95.000102,-271.25021)"
         id="path205" />
    </clipPath>
    <clipPath
       clipPathUnits="userSpaceOnUse"
       id="clipPath207">
      <path
         d="M 0,500 H 750 V 0 H 0 Z"
         transform="translate(-107.9904,-271.25021)"
         id="path207" />
    </clipPath>
    <clipPath
       clipPathUnits="userSpaceOnUse"
       id="clipPath209">
      <path
         d="M 0,500 H 750 V 0 H 0 Z"
         transform="translate(-101.49531,-267.50021)"
         id="path209" />
    </clipPath>
    <clipPath
       clipPathUnits="userSpaceOnUse"
       id="clipPath211">
      <path
         d="M 0,500 H 750 V 0 H 0 Z"
         transform="translate(-107.9904,-278.75021)"
         id="path211" />
    </clipPath>
    <clipPath
       clipPathUnits="userSpaceOnUse"
       id="clipPath213">
      <path
         d="M 0,500 H 750 V 0 H 0 Z"
         transform="translate(-95.000102,-278.75021)"
         id="path213" />
    </clipPath>
  </defs>
  <g
     id="layer-MC0"
     style="display:none"
     transform="translate(-126.6668,-279.99972)">
    <path
       id="path1"
       d="M 0,0 H 750 V 500 H 0 Z"
       style="fill:#302a42;fill-opacity:1;fill-rule:nonzero;stroke:none"
       transform="matrix(1.3333333,0,0,-1.3333333,0,666.66667)" />
  </g>
  <g
     id="layer-MC1"
     transform="translate(-126.6668,-279.99972)">
    <path
       id="path154"
       d="M 0,0 C 0,-14.542 -6.895,-30 -6.895,-30 H 0 6.895 C 6.895,-30 0,-14.542 0,0"
       style="fill:#ffe47d;fill-opacity:1;fill-rule:nonzero;stroke:none"
       transform="matrix(1.3333333,0,0,-1.3333333,180.00013,293.33307)"
       clip-path="url(#clipPath155)" />
    <path
       id="path156"
       d="M 0,0 C 12.593,7.271 29.428,9.029 29.428,9.029 L 25.981,15 22.533,20.972 C 22.533,20.972 12.593,7.271 0,0"
       style="fill:#ffe47d;fill-opacity:1;fill-rule:nonzero;stroke:none"
       transform="matrix(1.3333333,0,0,-1.3333333,145.35893,353.33373)"
       clip-path="url(#clipPath157)" />
    <path
       id="path158"
       d="M 0,0 C -12.593,7.271 -22.533,20.972 -22.533,20.972 L -25.98,15 -29.428,9.029 c 0,0 16.835,-1.758 29.428,-9.029"
       style="fill:#ffe47d;fill-opacity:1;fill-rule:nonzero;stroke:none"
       transform="matrix(1.3333333,0,0,-1.3333333,214.6408,353.33373)"
       clip-path="url(#clipPath159)" />
    <path
       id="path160"
       d="M 0,0 C 0,14.542 6.895,30 6.895,30 H 0 -6.895 C -6.895,30 0,14.542 0,0"
       style="fill:#ffe47d;fill-opacity:1;fill-rule:nonzero;stroke:none"
       transform="matrix(1.3333333,0,0,-1.3333333,180.00013,373.33373)"
       clip-path="url(#clipPath161)" />
    <path
       id="path162"
       d="m 0,0 c -12.593,-7.271 -29.428,-9.029 -29.428,-9.029 l 3.448,-5.971 3.447,-5.971 c 0,0 9.94,13.7 22.533,20.971"
       style="fill:#ffe47d;fill-opacity:1;fill-rule:nonzero;stroke:none"
       transform="matrix(1.3333333,0,0,-1.3333333,214.6408,313.33307)"
       clip-path="url(#clipPath163)" />
    <path
       id="path164"
       d="m 0,0 c 12.593,-7.271 22.533,-20.971 22.533,-20.971 l 3.448,5.971 3.447,5.971 c 0,0 -16.835,1.758 -29.428,9.029"
       style="fill:#ffe47d;fill-opacity:1;fill-rule:nonzero;stroke:none"
       transform="matrix(1.3333333,0,0,-1.3333333,145.35893,313.33307)"
       clip-path="url(#clipPath165)" />
    <path
       id="path166"
       d="M 0,0 C 0,-2.424 -1.149,-5 -1.149,-5 H 0 1.149 C 1.149,-5 0,-2.424 0,0"
       style="fill:#ffe47d;fill-opacity:1;fill-rule:nonzero;stroke:none"
       transform="matrix(1.3333333,0,0,-1.3333333,204.8316,279.99973)"
       clip-path="url(#clipPath167)" />
    <path
       id="path168"
       d="M 0,0 C 2.099,1.211 4.905,1.504 4.905,1.504 L 4.33,2.5 3.755,3.495 C 3.755,3.495 2.099,1.211 0,0"
       style="fill:#ffe47d;fill-opacity:1;fill-rule:nonzero;stroke:none"
       transform="matrix(1.3333333,0,0,-1.3333333,199.05813,289.99973)"
       clip-path="url(#clipPath169)" />
    <path
       id="path170"
       d="M 0,0 C -2.099,1.211 -3.755,3.495 -3.755,3.495 L -4.33,2.5 -4.905,1.504 c 0,0 2.806,-0.293 4.905,-1.504"
       style="fill:#ffe47d;fill-opacity:1;fill-rule:nonzero;stroke:none"
       transform="matrix(1.3333333,0,0,-1.3333333,210.60507,289.99973)"
       clip-path="url(#clipPath171)" />
    <path
       id="path172"
       d="M 0,0 C 0,2.423 1.149,5 1.149,5 H 0 -1.149 C -1.149,5 0,2.423 0,0"
       style="fill:#ffe47d;fill-opacity:1;fill-rule:nonzero;stroke:none"
       transform="matrix(1.3333333,0,0,-1.3333333,204.8316,293.33307)"
       clip-path="url(#clipPath173)" />
    <path
       id="path174"
       d="M 0,0 C -2.099,-1.212 -4.905,-1.505 -4.905,-1.505 L -4.33,-2.5 -3.755,-3.496 c 0,0 1.656,2.284 3.755,3.496"
       style="fill:#ffe47d;fill-opacity:1;fill-rule:nonzero;stroke:none"
       transform="matrix(1.3333333,0,0,-1.3333333,210.60507,283.33307)"
       clip-path="url(#clipPath175)" />
    <path
       id="path176"
       d="M 0,0 C 2.099,-1.212 3.755,-3.496 3.755,-3.496 L 4.33,-2.5 4.905,-1.505 c 0,0 -2.806,0.293 -4.905,1.505"
       style="fill:#ffe47d;fill-opacity:1;fill-rule:nonzero;stroke:none"
       transform="matrix(1.3333333,0,0,-1.3333333,199.05813,283.33307)"
       clip-path="url(#clipPath177)" />
    <path
       id="path178"
       d="M 0,0 C 0,-2.424 -1.149,-5 -1.149,-5 H 0 1.149 C 1.149,-5 0,-2.424 0,0"
       style="fill:#ffe47d;fill-opacity:1;fill-rule:nonzero;stroke:none"
       transform="matrix(1.3333333,0,0,-1.3333333,152.64733,358.00947)"
       clip-path="url(#clipPath179)" />
    <path
       id="path180"
       d="M 0,0 C 2.099,1.212 4.905,1.505 4.905,1.505 L 4.33,2.5 3.755,3.495 C 3.755,3.495 2.099,1.212 0,0"
       style="fill:#ffe47d;fill-opacity:1;fill-rule:nonzero;stroke:none"
       transform="matrix(1.3333333,0,0,-1.3333333,146.87387,368.00947)"
       clip-path="url(#clipPath181)" />
    <path
       id="path182"
       d="M 0,0 C -2.099,1.212 -3.755,3.495 -3.755,3.495 L -4.33,2.5 -4.905,1.505 c 0,0 2.806,-0.293 4.905,-1.505"
       style="fill:#ffe47d;fill-opacity:1;fill-rule:nonzero;stroke:none"
       transform="matrix(1.3333333,0,0,-1.3333333,158.4208,368.00947)"
       clip-path="url(#clipPath183)" />
    <path
       id="path184"
       d="M 0,0 C 0,2.424 1.149,5 1.149,5 H 0 -1.149 C -1.149,5 0,2.424 0,0"
       style="fill:#ffe47d;fill-opacity:1;fill-rule:nonzero;stroke:none"
       transform="matrix(1.3333333,0,0,-1.3333333,152.64733,371.3428)"
       clip-path="url(#clipPath185)" />
    <path
       id="path186"
       d="M 0,0 C -2.099,-1.212 -4.905,-1.505 -4.905,-1.505 L -4.33,-2.5 -3.755,-3.495 c 0,0 1.656,2.283 3.755,3.495"
       style="fill:#ffe47d;fill-opacity:1;fill-rule:nonzero;stroke:none"
       transform="matrix(1.3333333,0,0,-1.3333333,158.4208,361.3428)"
       clip-path="url(#clipPath187)" />
    <path
       id="path188"
       d="M 0,0 C 2.099,-1.212 3.755,-3.495 3.755,-3.495 L 4.33,-2.5 4.905,-1.505 c 0,0 -2.806,0.293 -4.905,1.505"
       style="fill:#ffe47d;fill-opacity:1;fill-rule:nonzero;stroke:none"
       transform="matrix(1.3333333,0,0,-1.3333333,146.87387,361.3428)"
       clip-path="url(#clipPath189)" />
    <path
       id="path190"
       d="M 0,0 C 0,-3.635 -1.724,-7.5 -1.724,-7.5 H 0 1.724 C 1.724,-7.5 0,-3.635 0,0"
       style="fill:#ffe47d;fill-opacity:1;fill-rule:nonzero;stroke:none"
       transform="matrix(1.3333333,0,0,-1.3333333,224.67333,366.66707)"
       clip-path="url(#clipPath191)" />
    <path
       id="path192"
       d="M 0,0 C 3.148,1.818 7.357,2.258 7.357,2.258 L 6.496,3.75 5.633,5.243 C 5.633,5.243 3.148,1.818 0,0"
       style="fill:#ffe47d;fill-opacity:1;fill-rule:nonzero;stroke:none"
       transform="matrix(1.3333333,0,0,-1.3333333,216.01253,381.66707)"
       clip-path="url(#clipPath193)" />
    <path
       id="path194"
       d="M 0,0 C -3.148,1.818 -5.633,5.243 -5.633,5.243 L -6.495,3.75 -7.357,2.258 c 0,0 4.209,-0.44 7.357,-2.258"
       style="fill:#ffe47d;fill-opacity:1;fill-rule:nonzero;stroke:none"
       transform="matrix(1.3333333,0,0,-1.3333333,233.33347,381.66707)"
       clip-path="url(#clipPath195)" />
    <path
       id="path196"
       d="M 0,0 C 0,3.636 1.724,7.5 1.724,7.5 H 0 -1.724 C -1.724,7.5 0,3.636 0,0"
       style="fill:#ffe47d;fill-opacity:1;fill-rule:nonzero;stroke:none"
       transform="matrix(1.3333333,0,0,-1.3333333,224.67333,386.66707)"
       clip-path="url(#clipPath197)" />
    <path
       id="path198"
       d="m 0,0 c -3.148,-1.817 -7.357,-2.257 -7.357,-2.257 l 0.862,-1.493 0.862,-1.492 c 0,0 2.485,3.425 5.633,5.242"
       style="fill:#ffe47d;fill-opacity:1;fill-rule:nonzero;stroke:none"
       transform="matrix(1.3333333,0,0,-1.3333333,233.33347,371.66707)"
       clip-path="url(#clipPath199)" />
    <path
       id="path200"
       d="m 0,0 c 3.148,-1.817 5.633,-5.242 5.633,-5.242 l 0.863,1.492 0.861,1.493 c 0,0 -4.209,0.44 -7.357,2.257"
       style="fill:#ffe47d;fill-opacity:1;fill-rule:nonzero;stroke:none"
       transform="matrix(1.3333333,0,0,-1.3333333,216.01253,371.66707)"
       clip-path="url(#clipPath201)" />
    <path
       id="path202"
       d="M 0,0 C 0,-3.635 -1.724,-7.5 -1.724,-7.5 H 0 1.724 C 1.724,-7.5 0,-3.635 0,0"
       style="fill:#ffe47d;fill-opacity:1;fill-rule:nonzero;stroke:none"
       transform="matrix(1.3333333,0,0,-1.3333333,135.32707,289.99973)"
       clip-path="url(#clipPath203)" />
    <path
       id="path204"
       d="M 0,0 C 3.148,1.817 7.357,2.257 7.357,2.257 L 6.495,3.75 5.633,5.243 C 5.633,5.243 3.148,1.817 0,0"
       style="fill:#ffe47d;fill-opacity:1;fill-rule:nonzero;stroke:none"
       transform="matrix(1.3333333,0,0,-1.3333333,126.6668,304.99973)"
       clip-path="url(#clipPath205)" />
    <path
       id="path206"
       d="M 0,0 C -3.148,1.817 -5.633,5.243 -5.633,5.243 L -6.495,3.75 -7.357,2.257 c 0,0 4.209,-0.44 7.357,-2.257"
       style="fill:#ffe47d;fill-opacity:1;fill-rule:nonzero;stroke:none"
       transform="matrix(1.3333333,0,0,-1.3333333,143.9872,304.99973)"
       clip-path="url(#clipPath207)" />
    <path
       id="path208"
       d="M 0,0 C 0,3.635 1.724,7.5 1.724,7.5 H 0 -1.724 C -1.724,7.5 0,3.635 0,0"
       style="fill:#ffe47d;fill-opacity:1;fill-rule:nonzero;stroke:none"
       transform="matrix(1.3333333,0,0,-1.3333333,135.32707,309.99973)"
       clip-path="url(#clipPath209)" />
    <path
       id="path210"
       d="m 0,0 c -3.148,-1.818 -7.357,-2.257 -7.357,-2.257 l 0.862,-1.493 0.862,-1.493 c 0,0 2.485,3.425 5.633,5.243"
       style="fill:#ffe47d;fill-opacity:1;fill-rule:nonzero;stroke:none"
       transform="matrix(1.3333333,0,0,-1.3333333,143.9872,294.99973)"
       clip-path="url(#clipPath211)" />
    <path
       id="path212"
       d="m 0,0 c 3.148,-1.818 5.633,-5.243 5.633,-5.243 l 0.862,1.493 0.862,1.493 c 0,0 -4.209,0.439 -7.357,2.257"
       style="fill:#ffe47d;fill-opacity:1;fill-rule:nonzero;stroke:none"
       transform="matrix(1.3333333,0,0,-1.3333333,126.6668,294.99973)"
       clip-path="url(#clipPath213)" />
  </g>
</svg>
