<?xml version="1.0" encoding="UTF-8" standalone="no"?>
<!-- Created with Inkscape (http://www.inkscape.org/) -->

<svg
   version="1.1"
   id="svg1"
   width="106.66663"
   height="106.66667"
   viewBox="0 0 106.66663 106.66667"
   xmlns="http://www.w3.org/2000/svg"
   xmlns:svg="http://www.w3.org/2000/svg">
  <defs
     id="defs1">
    <clipPath
       clipPathUnits="userSpaceOnUse"
       id="clipPath35">
      <path
         d="M 0,500 H 750 V 0 H 0 Z"
         transform="translate(-454.99961,-445.00021)"
         id="path35" />
    </clipPath>
    <clipPath
       clipPathUnits="userSpaceOnUse"
       id="clipPath37">
      <path
         d="M 0,500 H 750 V 0 H 0 Z"
         transform="translate(-419.99961,-410.00021)"
         id="path37" />
    </clipPath>
    <clipPath
       clipPathUnits="userSpaceOnUse"
       id="clipPath39">
      <path
         d="M 0,500 H 750 V 0 H 0 Z"
         transform="translate(-467.37461,-422.37421)"
         id="path39" />
    </clipPath>
    <clipPath
       clipPathUnits="userSpaceOnUse"
       id="clipPath41">
      <path
         d="M 0,500 H 750 V 0 H 0 Z"
         transform="translate(-442.62561,-422.37421)"
         id="path41" />
    </clipPath>
    <clipPath
       clipPathUnits="userSpaceOnUse"
       id="clipPath43">
      <path
         d="M 0,500 H 750 V 0 H 0 Z"
         transform="translate(-475.34441,-390.00021)"
         id="path43" />
    </clipPath>
    <clipPath
       clipPathUnits="userSpaceOnUse"
       id="clipPath45">
      <path
         d="M 0,500 H 750 V 0 H 0 Z"
         transform="translate(-465.34441,-380.00021)"
         id="path45" />
    </clipPath>
    <clipPath
       clipPathUnits="userSpaceOnUse"
       id="clipPath47">
      <path
         d="M 0,500 H 750 V 0 H 0 Z"
         transform="translate(-478.88051,-383.53531)"
         id="path47" />
    </clipPath>
    <clipPath
       clipPathUnits="userSpaceOnUse"
       id="clipPath49">
      <path
         d="M 0,500 H 750 V 0 H 0 Z"
         transform="translate(-471.80921,-383.53531)"
         id="path49" />
    </clipPath>
    <clipPath
       clipPathUnits="userSpaceOnUse"
       id="clipPath51">
      <path
         d="M 0,500 H 750 V 0 H 0 Z"
         transform="translate(-476.09441,-439.25021)"
         id="path51" />
    </clipPath>
    <clipPath
       clipPathUnits="userSpaceOnUse"
       id="clipPath53">
      <path
         d="M 0,500 H 750 V 0 H 0 Z"
         transform="translate(-466.09441,-429.25021)"
         id="path53" />
    </clipPath>
    <clipPath
       clipPathUnits="userSpaceOnUse"
       id="clipPath55">
      <path
         d="M 0,500 H 750 V 0 H 0 Z"
         transform="translate(-479.63051,-432.78531)"
         id="path55" />
    </clipPath>
    <clipPath
       clipPathUnits="userSpaceOnUse"
       id="clipPath57">
      <path
         d="M 0,500 H 750 V 0 H 0 Z"
         transform="translate(-472.55921,-432.78531)"
         id="path57" />
    </clipPath>
    <clipPath
       clipPathUnits="userSpaceOnUse"
       id="clipPath59">
      <path
         d="M 0,500 H 750 V 0 H 0 Z"
         transform="translate(-489.99961,-450.00021)"
         id="path59" />
    </clipPath>
    <clipPath
       clipPathUnits="userSpaceOnUse"
       id="clipPath61">
      <path
         d="M 0,500 H 750 V 0 H 0 Z"
         transform="translate(-484.99961,-445.00021)"
         id="path61" />
    </clipPath>
    <clipPath
       clipPathUnits="userSpaceOnUse"
       id="clipPath63">
      <path
         d="M 0,500 H 750 V 0 H 0 Z"
         transform="translate(-491.76821,-446.76781)"
         id="path63" />
    </clipPath>
    <clipPath
       clipPathUnits="userSpaceOnUse"
       id="clipPath65">
      <path
         d="M 0,500 H 750 V 0 H 0 Z"
         transform="translate(-488.23211,-446.76781)"
         id="path65" />
    </clipPath>
    <clipPath
       clipPathUnits="userSpaceOnUse"
       id="clipPath67">
      <path
         d="M 0,500 H 750 V 0 H 0 Z"
         transform="translate(-432.46151,-439.74871)"
         id="path67" />
    </clipPath>
    <clipPath
       clipPathUnits="userSpaceOnUse"
       id="clipPath69">
      <path
         d="M 0,500 H 750 V 0 H 0 Z"
         transform="translate(-427.46151,-434.74871)"
         id="path69" />
    </clipPath>
    <clipPath
       clipPathUnits="userSpaceOnUse"
       id="clipPath71">
      <path
         d="M 0,500 H 750 V 0 H 0 Z"
         transform="translate(-434.22911,-436.51631)"
         id="path71" />
    </clipPath>
    <clipPath
       clipPathUnits="userSpaceOnUse"
       id="clipPath73">
      <path
         d="M 0,500 H 750 V 0 H 0 Z"
         transform="translate(-430.69301,-436.51631)"
         id="path73" />
    </clipPath>
    <clipPath
       clipPathUnits="userSpaceOnUse"
       id="clipPath75">
      <path
         d="M 0,500 H 750 V 0 H 0 Z"
         transform="translate(-419.99961,-388.53531)"
         id="path75" />
    </clipPath>
    <clipPath
       clipPathUnits="userSpaceOnUse"
       id="clipPath77">
      <path
         d="M 0,500 H 750 V 0 H 0 Z"
         transform="translate(-414.99961,-383.53531)"
         id="path77" />
    </clipPath>
    <clipPath
       clipPathUnits="userSpaceOnUse"
       id="clipPath79">
      <path
         d="M 0,500 H 750 V 0 H 0 Z"
         transform="translate(-421.76821,-385.30341)"
         id="path79" />
    </clipPath>
    <clipPath
       clipPathUnits="userSpaceOnUse"
       id="clipPath81">
      <path
         d="M 0,500 H 750 V 0 H 0 Z"
         transform="translate(-418.23211,-385.30341)"
         id="path81" />
    </clipPath>
  </defs>
  <g
     id="layer-MC0"
     style="display:none"
     transform="translate(-553.33282,-66.666397)">
    <path
       id="path1"
       d="M 0,0 H 750 V 500 H 0 Z"
       style="fill:#302a42;fill-opacity:1;fill-rule:nonzero;stroke:none"
       transform="matrix(1.3333333,0,0,-1.3333333,0,666.66667)" />
  </g>
  <g
     id="layer-MC1"
     transform="translate(-553.33282,-66.666397)">
    <path
       id="path34"
       d="M 0,0 -2.625,-35 0,-70 2.625,-35 Z"
       style="fill:#ffe47d;fill-opacity:1;fill-rule:nonzero;stroke:none"
       transform="matrix(1.3333333,0,0,-1.3333333,606.66613,73.333067)"
       clip-path="url(#clipPath35)" />
    <path
       id="path36"
       d="M 0,0 35,-2.625 70,0 35,2.625 Z"
       style="fill:#ffe47d;fill-opacity:1;fill-rule:nonzero;stroke:none"
       transform="matrix(1.3333333,0,0,-1.3333333,559.99947,119.99973)"
       clip-path="url(#clipPath37)" />
    <path
       id="path38"
       d="m 0,0 -13.303,-11.446 -11.446,-13.303 13.303,11.447 z"
       style="fill:#ffe47d;fill-opacity:1;fill-rule:nonzero;stroke:none"
       transform="matrix(1.3333333,0,0,-1.3333333,623.16613,103.50107)"
       clip-path="url(#clipPath39)" />
    <path
       id="path40"
       d="M 0,0 11.446,-13.302 24.749,-24.749 13.303,-11.446 Z"
       style="fill:#ffe47d;fill-opacity:1;fill-rule:nonzero;stroke:none"
       transform="matrix(1.3333333,0,0,-1.3333333,590.16747,103.50107)"
       clip-path="url(#clipPath41)" />
    <path
       id="path42"
       d="M 0,0 -0.75,-10 0,-20 0.75,-10 Z"
       style="fill:#ffe47d;fill-opacity:1;fill-rule:nonzero;stroke:none"
       transform="matrix(1.3333333,0,0,-1.3333333,633.79253,146.6664)"
       clip-path="url(#clipPath43)" />
    <path
       id="path44"
       d="M 0,0 10,-0.75 20,0 10,0.75 Z"
       style="fill:#ffe47d;fill-opacity:1;fill-rule:nonzero;stroke:none"
       transform="matrix(1.3333333,0,0,-1.3333333,620.4592,159.99973)"
       clip-path="url(#clipPath45)" />
    <path
       id="path46"
       d="m 0,0 -3.801,-3.27 -3.27,-3.801 3.8,3.271 z"
       style="fill:#ffe47d;fill-opacity:1;fill-rule:nonzero;stroke:none"
       transform="matrix(1.3333333,0,0,-1.3333333,638.50733,155.28627)"
       clip-path="url(#clipPath47)" />
    <path
       id="path48"
       d="m 0,0 3.271,-3.8 3.8,-3.271 -3.27,3.801 z"
       style="fill:#ffe47d;fill-opacity:1;fill-rule:nonzero;stroke:none"
       transform="matrix(1.3333333,0,0,-1.3333333,629.07893,155.28627)"
       clip-path="url(#clipPath49)" />
    <path
       id="path50"
       d="M 0,0 -0.75,-10 0,-20 0.75,-10 Z"
       style="fill:#ffe47d;fill-opacity:1;fill-rule:nonzero;stroke:none"
       transform="matrix(1.3333333,0,0,-1.3333333,634.79253,80.999733)"
       clip-path="url(#clipPath51)" />
    <path
       id="path52"
       d="M 0,0 10,-0.75 20,0 10,0.75 Z"
       style="fill:#ffe47d;fill-opacity:1;fill-rule:nonzero;stroke:none"
       transform="matrix(1.3333333,0,0,-1.3333333,621.4592,94.333067)"
       clip-path="url(#clipPath53)" />
    <path
       id="path54"
       d="m 0,0 -3.801,-3.27 -3.27,-3.801 3.8,3.271 z"
       style="fill:#ffe47d;fill-opacity:1;fill-rule:nonzero;stroke:none"
       transform="matrix(1.3333333,0,0,-1.3333333,639.50733,89.6196)"
       clip-path="url(#clipPath55)" />
    <path
       id="path56"
       d="m 0,0 3.271,-3.8 3.8,-3.271 -3.27,3.801 z"
       style="fill:#ffe47d;fill-opacity:1;fill-rule:nonzero;stroke:none"
       transform="matrix(1.3333333,0,0,-1.3333333,630.07893,89.6196)"
       clip-path="url(#clipPath57)" />
    <path
       id="path58"
       d="M 0,0 -0.375,-5 0,-10 0.375,-5 Z"
       style="fill:#ffe47d;fill-opacity:1;fill-rule:nonzero;stroke:none"
       transform="matrix(1.3333333,0,0,-1.3333333,653.3328,66.6664)"
       clip-path="url(#clipPath59)" />
    <path
       id="path60"
       d="M 0,0 5,-0.375 10,0 5,0.375 Z"
       style="fill:#ffe47d;fill-opacity:1;fill-rule:nonzero;stroke:none"
       transform="matrix(1.3333333,0,0,-1.3333333,646.66613,73.333067)"
       clip-path="url(#clipPath61)" />
    <path
       id="path62"
       d="m 0,0 -1.9,-1.635 -1.636,-1.901 1.9,1.636 z"
       style="fill:#ffe47d;fill-opacity:1;fill-rule:nonzero;stroke:none"
       transform="matrix(1.3333333,0,0,-1.3333333,655.69093,70.976267)"
       clip-path="url(#clipPath63)" />
    <path
       id="path64"
       d="M 0,0 1.636,-1.9 3.536,-3.536 1.9,-1.635 Z"
       style="fill:#ffe47d;fill-opacity:1;fill-rule:nonzero;stroke:none"
       transform="matrix(1.3333333,0,0,-1.3333333,650.97613,70.976267)"
       clip-path="url(#clipPath65)" />
    <path
       id="path66"
       d="M 0,0 -0.375,-5 0,-10 0.375,-5 Z"
       style="fill:#ffe47d;fill-opacity:1;fill-rule:nonzero;stroke:none"
       transform="matrix(1.3333333,0,0,-1.3333333,576.61533,80.335067)"
       clip-path="url(#clipPath67)" />
    <path
       id="path68"
       d="M 0,0 5,-0.375 10,0 5,0.375 Z"
       style="fill:#ffe47d;fill-opacity:1;fill-rule:nonzero;stroke:none"
       transform="matrix(1.3333333,0,0,-1.3333333,569.94867,87.001733)"
       clip-path="url(#clipPath69)" />
    <path
       id="path70"
       d="m 0,0 -1.9,-1.635 -1.636,-1.9 1.9,1.635 z"
       style="fill:#ffe47d;fill-opacity:1;fill-rule:nonzero;stroke:none"
       transform="matrix(1.3333333,0,0,-1.3333333,578.97213,84.644933)"
       clip-path="url(#clipPath71)" />
    <path
       id="path72"
       d="m 0,0 1.636,-1.9 1.9,-1.635 -1.636,1.9 z"
       style="fill:#ffe47d;fill-opacity:1;fill-rule:nonzero;stroke:none"
       transform="matrix(1.3333333,0,0,-1.3333333,574.25733,84.644933)"
       clip-path="url(#clipPath73)" />
    <path
       id="path74"
       d="M 0,0 -0.375,-5 0,-10 0.375,-5 Z"
       style="fill:#ffe47d;fill-opacity:1;fill-rule:nonzero;stroke:none"
       transform="matrix(1.3333333,0,0,-1.3333333,559.99947,148.6196)"
       clip-path="url(#clipPath75)" />
    <path
       id="path76"
       d="M 0,0 5,-0.375 10,0 5,0.375 Z"
       style="fill:#ffe47d;fill-opacity:1;fill-rule:nonzero;stroke:none"
       transform="matrix(1.3333333,0,0,-1.3333333,553.3328,155.28627)"
       clip-path="url(#clipPath77)" />
    <path
       id="path78"
       d="m 0,0 -1.9,-1.635 -1.636,-1.901 1.9,1.636 z"
       style="fill:#ffe47d;fill-opacity:1;fill-rule:nonzero;stroke:none"
       transform="matrix(1.3333333,0,0,-1.3333333,562.3576,152.9288)"
       clip-path="url(#clipPath79)" />
    <path
       id="path80"
       d="M 0,0 1.636,-1.9 3.536,-3.536 1.9,-1.635 Z"
       style="fill:#ffe47d;fill-opacity:1;fill-rule:nonzero;stroke:none"
       transform="matrix(1.3333333,0,0,-1.3333333,557.6428,152.9288)"
       clip-path="url(#clipPath81)" />
  </g>
</svg>
