<?xml version="1.0" encoding="UTF-8" standalone="no"?>
<!-- Created with Inkscape (http://www.inkscape.org/) -->

<svg
   version="1.1"
   id="svg1"
   width="88"
   height="106.66669"
   viewBox="0 0 88 106.66669"
   xmlns="http://www.w3.org/2000/svg"
   xmlns:svg="http://www.w3.org/2000/svg">
  <defs
     id="defs1">
    <clipPath
       clipPathUnits="userSpaceOnUse"
       id="clipPath423">
      <path
         d="M 0,500 H 750 V 0 H 0 Z"
         transform="translate(-614.99962,-118.9997)"
         id="path423" />
    </clipPath>
    <clipPath
       clipPathUnits="userSpaceOnUse"
       id="clipPath425">
      <path
         d="M 0,500 H 750 V 0 H 0 Z"
         transform="translate(-589.88542,-75.499702)"
         id="path425" />
    </clipPath>
    <clipPath
       clipPathUnits="userSpaceOnUse"
       id="clipPath427">
      <path
         d="M 0,500 H 750 V 0 H 0 Z"
         transform="translate(-640.11491,-75.499702)"
         id="path427" />
    </clipPath>
    <clipPath
       clipPathUnits="userSpaceOnUse"
       id="clipPath429">
      <path
         d="M 0,500 H 750 V 0 H 0 Z"
         transform="translate(-633.74962,-89.9997)"
         id="path429" />
    </clipPath>
    <clipPath
       clipPathUnits="userSpaceOnUse"
       id="clipPath431">
      <path
         d="M 0,500 H 750 V 0 H 0 Z"
         transform="translate(-605.62462,-106.238)"
         id="path431" />
    </clipPath>
    <clipPath
       clipPathUnits="userSpaceOnUse"
       id="clipPath433">
      <path
         d="M 0,500 H 750 V 0 H 0 Z"
         transform="translate(-605.62462,-73.762402)"
         id="path433" />
    </clipPath>
    <clipPath
       clipPathUnits="userSpaceOnUse"
       id="clipPath435">
      <path
         d="M 0,500 H 750 V 0 H 0 Z"
         transform="translate(-641.50451,-64.999702)"
         id="path435" />
    </clipPath>
    <clipPath
       clipPathUnits="userSpaceOnUse"
       id="clipPath437">
      <path
         d="M 0,500 H 750 V 0 H 0 Z"
         transform="translate(-635.00942,-53.749701)"
         id="path437" />
    </clipPath>
    <clipPath
       clipPathUnits="userSpaceOnUse"
       id="clipPath439">
      <path
         d="M 0,500 H 750 V 0 H 0 Z"
         transform="translate(-647.99962,-53.749701)"
         id="path439" />
    </clipPath>
    <clipPath
       clipPathUnits="userSpaceOnUse"
       id="clipPath441">
      <path
         d="M 0,500 H 750 V 0 H 0 Z"
         transform="translate(-646.35412,-57.499701)"
         id="path441" />
    </clipPath>
    <clipPath
       clipPathUnits="userSpaceOnUse"
       id="clipPath443">
      <path
         d="M 0,500 H 750 V 0 H 0 Z"
         transform="translate(-639.08072,-61.699904)"
         id="path443" />
    </clipPath>
    <clipPath
       clipPathUnits="userSpaceOnUse"
       id="clipPath445">
      <path
         d="M 0,500 H 750 V 0 H 0 Z"
         transform="translate(-639.08072,-53.300504)"
         id="path445" />
    </clipPath>
    <clipPath
       clipPathUnits="userSpaceOnUse"
       id="clipPath447">
      <path
         d="M 0,500 H 750 V 0 H 0 Z"
         transform="translate(-588.49481,-122.945)"
         id="path447" />
    </clipPath>
    <clipPath
       clipPathUnits="userSpaceOnUse"
       id="clipPath449">
      <path
         d="M 0,500 H 750 V 0 H 0 Z"
         transform="translate(-594.99082,-111.695)"
         id="path449" />
    </clipPath>
    <clipPath
       clipPathUnits="userSpaceOnUse"
       id="clipPath451">
      <path
         d="M 0,500 H 750 V 0 H 0 Z"
         transform="translate(-581.99962,-111.695)"
         id="path451" />
    </clipPath>
    <clipPath
       clipPathUnits="userSpaceOnUse"
       id="clipPath453">
      <path
         d="M 0,500 H 750 V 0 H 0 Z"
         transform="translate(-583.64611,-115.445)"
         id="path453" />
    </clipPath>
    <clipPath
       clipPathUnits="userSpaceOnUse"
       id="clipPath455">
      <path
         d="M 0,500 H 750 V 0 H 0 Z"
         transform="translate(-590.91961,-119.6442)"
         id="path455" />
    </clipPath>
    <clipPath
       clipPathUnits="userSpaceOnUse"
       id="clipPath457">
      <path
         d="M 0,500 H 750 V 0 H 0 Z"
         transform="translate(-590.91961,-111.24581)"
         id="path457" />
    </clipPath>
    <clipPath
       clipPathUnits="userSpaceOnUse"
       id="clipPath459">
      <path
         d="M 0,500 H 750 V 0 H 0 Z"
         transform="translate(-635.78482,-129.99971)"
         id="path459" />
    </clipPath>
    <clipPath
       clipPathUnits="userSpaceOnUse"
       id="clipPath461">
      <path
         d="M 0,500 H 750 V 0 H 0 Z"
         transform="translate(-639.24872,-123.99971)"
         id="path461" />
    </clipPath>
    <clipPath
       clipPathUnits="userSpaceOnUse"
       id="clipPath463">
      <path
         d="M 0,500 H 750 V 0 H 0 Z"
         transform="translate(-632.32091,-123.99971)"
         id="path463" />
    </clipPath>
    <clipPath
       clipPathUnits="userSpaceOnUse"
       id="clipPath465">
      <path
         d="M 0,500 H 750 V 0 H 0 Z"
         transform="translate(-633.19892,-125.9997)"
         id="path465" />
    </clipPath>
    <clipPath
       clipPathUnits="userSpaceOnUse"
       id="clipPath467">
      <path
         d="M 0,500 H 750 V 0 H 0 Z"
         transform="translate(-637.07782,-128.23991)"
         id="path467" />
    </clipPath>
    <clipPath
       clipPathUnits="userSpaceOnUse"
       id="clipPath469">
      <path
         d="M 0,500 H 750 V 0 H 0 Z"
         transform="translate(-637.07782,-123.7604)"
         id="path469" />
    </clipPath>
    <clipPath
       clipPathUnits="userSpaceOnUse"
       id="clipPath471">
      <path
         d="M 0,500 H 750 V 0 H 0 Z"
         transform="translate(-591.95962,-63.955702)"
         id="path471" />
    </clipPath>
    <clipPath
       clipPathUnits="userSpaceOnUse"
       id="clipPath473">
      <path
         d="M 0,500 H 750 V 0 H 0 Z"
         transform="translate(-595.42351,-57.955701)"
         id="path473" />
    </clipPath>
    <clipPath
       clipPathUnits="userSpaceOnUse"
       id="clipPath475">
      <path
         d="M 0,500 H 750 V 0 H 0 Z"
         transform="translate(-588.49481,-57.955701)"
         id="path475" />
    </clipPath>
    <clipPath
       clipPathUnits="userSpaceOnUse"
       id="clipPath477">
      <path
         d="M 0,500 H 750 V 0 H 0 Z"
         transform="translate(-589.37272,-59.955704)"
         id="path477" />
    </clipPath>
    <clipPath
       clipPathUnits="userSpaceOnUse"
       id="clipPath479">
      <path
         d="M 0,500 H 750 V 0 H 0 Z"
         transform="translate(-593.25262,-62.195002)"
         id="path479" />
    </clipPath>
    <clipPath
       clipPathUnits="userSpaceOnUse"
       id="clipPath481">
      <path
         d="M 0,500 H 750 V 0 H 0 Z"
         transform="translate(-593.25262,-57.715499)"
         id="path481" />
    </clipPath>
  </defs>
  <g
     id="layer-MC0"
     style="display:none"
     transform="translate(-775.99945,-493.33374)">
    <path
       id="path1"
       d="M 0,0 H 750 V 500 H 0 Z"
       style="fill:#302a42;fill-opacity:1;fill-rule:nonzero;stroke:none"
       transform="matrix(1.3333333,0,0,-1.3333333,0,666.66667)" />
  </g>
  <g
     id="layer-MC1"
     transform="translate(-775.99945,-493.33374)">
    <path
       id="path422"
       d="m 0,0 -3,-29 3,-29 3,29 z"
       style="fill:#ffe47d;fill-opacity:1;fill-rule:nonzero;stroke:none"
       transform="matrix(1.3333333,0,0,-1.3333333,819.99947,508.0004)"
       clip-path="url(#clipPath423)" />
    <path
       id="path424"
       d="M 0,0 26.614,11.902 50.229,29 23.614,17.099 Z"
       style="fill:#ffe47d;fill-opacity:1;fill-rule:nonzero;stroke:none"
       transform="matrix(1.3333333,0,0,-1.3333333,786.51387,566.0004)"
       clip-path="url(#clipPath425)" />
    <path
       id="path426"
       d="M 0,0 -23.615,17.099 -50.229,29 -26.615,11.902 Z"
       style="fill:#ffe47d;fill-opacity:1;fill-rule:nonzero;stroke:none"
       transform="matrix(1.3333333,0,0,-1.3333333,853.48653,566.0004)"
       clip-path="url(#clipPath427)" />
    <path
       id="path428"
       d="M 0,0 -18.75,1.25 -37.5,0 -18.75,-1.25 Z"
       style="fill:#ffe47d;fill-opacity:1;fill-rule:nonzero;stroke:none"
       transform="matrix(1.3333333,0,0,-1.3333333,844.99947,546.66707)"
       clip-path="url(#clipPath429)" />
    <path
       id="path430"
       d="M 0,0 8.293,-16.863 18.75,-32.476 10.458,-15.613 Z"
       style="fill:#ffe47d;fill-opacity:1;fill-rule:nonzero;stroke:none"
       transform="matrix(1.3333333,0,0,-1.3333333,807.49947,525.016)"
       clip-path="url(#clipPath431)" />
    <path
       id="path432"
       d="M 0,0 10.458,15.612 18.75,32.476 8.293,16.862 Z"
       style="fill:#ffe47d;fill-opacity:1;fill-rule:nonzero;stroke:none"
       transform="matrix(1.3333333,0,0,-1.3333333,807.49947,568.3168)"
       clip-path="url(#clipPath433)" />
    <path
       id="path434"
       d="M 0,0 -0.775,-7.5 0,-15 0.776,-7.5 Z"
       style="fill:#ffe47d;fill-opacity:1;fill-rule:nonzero;stroke:none"
       transform="matrix(1.3333333,0,0,-1.3333333,855.33933,580.0004)"
       clip-path="url(#clipPath435)" />
    <path
       id="path436"
       d="M 0,0 6.884,3.078 12.99,7.5 6.107,4.422 Z"
       style="fill:#ffe47d;fill-opacity:1;fill-rule:nonzero;stroke:none"
       transform="matrix(1.3333333,0,0,-1.3333333,846.6792,595.0004)"
       clip-path="url(#clipPath437)" />
    <path
       id="path438"
       d="M 0,0 -6.106,4.422 -12.99,7.5 -6.883,3.078 Z"
       style="fill:#ffe47d;fill-opacity:1;fill-rule:nonzero;stroke:none"
       transform="matrix(1.3333333,0,0,-1.3333333,863.99947,595.0004)"
       clip-path="url(#clipPath439)" />
    <path
       id="path440"
       d="M 0,0 -4.85,0.323 -9.698,0 -4.85,-0.323 Z"
       style="fill:#ffe47d;fill-opacity:1;fill-rule:nonzero;stroke:none"
       transform="matrix(1.3333333,0,0,-1.3333333,861.80547,590.0004)"
       clip-path="url(#clipPath441)" />
    <path
       id="path442"
       d="M 0,0 2.145,-4.361 4.849,-8.399 2.704,-4.038 Z"
       style="fill:#ffe47d;fill-opacity:1;fill-rule:nonzero;stroke:none"
       transform="matrix(1.3333333,0,0,-1.3333333,852.1076,584.40013)"
       clip-path="url(#clipPath443)" />
    <path
       id="path444"
       d="M 0,0 2.704,4.038 4.849,8.399 2.145,4.361 Z"
       style="fill:#ffe47d;fill-opacity:1;fill-rule:nonzero;stroke:none"
       transform="matrix(1.3333333,0,0,-1.3333333,852.1076,595.59933)"
       clip-path="url(#clipPath445)" />
    <path
       id="path446"
       d="M 0,0 0.776,-7.5 0,-15 -0.775,-7.5 Z"
       style="fill:#ffe47d;fill-opacity:1;fill-rule:nonzero;stroke:none"
       transform="matrix(1.3333333,0,0,-1.3333333,784.65973,502.74)"
       clip-path="url(#clipPath447)" />
    <path
       id="path448"
       d="M 0,0 -6.884,3.078 -12.991,7.5 -6.107,4.422 Z"
       style="fill:#ffe47d;fill-opacity:1;fill-rule:nonzero;stroke:none"
       transform="matrix(1.3333333,0,0,-1.3333333,793.32107,517.74)"
       clip-path="url(#clipPath449)" />
    <path
       id="path450"
       d="M 0,0 6.107,4.422 12.991,7.5 6.884,3.078 Z"
       style="fill:#ffe47d;fill-opacity:1;fill-rule:nonzero;stroke:none"
       transform="matrix(1.3333333,0,0,-1.3333333,775.99947,517.74)"
       clip-path="url(#clipPath451)" />
    <path
       id="path452"
       d="M 0,0 4.849,0.323 9.698,0 4.849,-0.323 Z"
       style="fill:#ffe47d;fill-opacity:1;fill-rule:nonzero;stroke:none"
       transform="matrix(1.3333333,0,0,-1.3333333,778.1948,512.74)"
       clip-path="url(#clipPath453)" />
    <path
       id="path454"
       d="m 0,0 -2.145,-4.361 -2.704,-4.037 2.145,4.361 z"
       style="fill:#ffe47d;fill-opacity:1;fill-rule:nonzero;stroke:none"
       transform="matrix(1.3333333,0,0,-1.3333333,787.8928,507.14107)"
       clip-path="url(#clipPath455)" />
    <path
       id="path456"
       d="M 0,0 -2.704,4.037 -4.849,8.398 -2.145,4.361 Z"
       style="fill:#ffe47d;fill-opacity:1;fill-rule:nonzero;stroke:none"
       transform="matrix(1.3333333,0,0,-1.3333333,787.8928,518.33893)"
       clip-path="url(#clipPath457)" />
    <path
       id="path458"
       d="M 0,0 0.414,-4 0,-8 -0.414,-4 Z"
       style="fill:#ffe47d;fill-opacity:1;fill-rule:nonzero;stroke:none"
       transform="matrix(1.3333333,0,0,-1.3333333,847.71307,493.33373)"
       clip-path="url(#clipPath459)" />
    <path
       id="path460"
       d="M 0,0 -3.671,1.642 -6.928,4 -3.257,2.358 Z"
       style="fill:#ffe47d;fill-opacity:1;fill-rule:nonzero;stroke:none"
       transform="matrix(1.3333333,0,0,-1.3333333,852.3316,501.33373)"
       clip-path="url(#clipPath461)" />
    <path
       id="path462"
       d="M 0,0 3.257,2.358 6.928,4 3.671,1.642 Z"
       style="fill:#ffe47d;fill-opacity:1;fill-rule:nonzero;stroke:none"
       transform="matrix(1.3333333,0,0,-1.3333333,843.09453,501.33373)"
       clip-path="url(#clipPath463)" />
    <path
       id="path464"
       d="M 0,0 2.586,0.173 5.172,0 2.586,-0.172 Z"
       style="fill:#ffe47d;fill-opacity:1;fill-rule:nonzero;stroke:none"
       transform="matrix(1.3333333,0,0,-1.3333333,844.2652,498.66707)"
       clip-path="url(#clipPath465)" />
    <path
       id="path466"
       d="m 0,0 -1.144,-2.326 -1.442,-2.153 1.144,2.326 z"
       style="fill:#ffe47d;fill-opacity:1;fill-rule:nonzero;stroke:none"
       transform="matrix(1.3333333,0,0,-1.3333333,849.43707,495.68013)"
       clip-path="url(#clipPath467)" />
    <path
       id="path468"
       d="M 0,0 -1.442,2.153 -2.586,4.479 -1.144,2.326 Z"
       style="fill:#ffe47d;fill-opacity:1;fill-rule:nonzero;stroke:none"
       transform="matrix(1.3333333,0,0,-1.3333333,849.43707,501.6528)"
       clip-path="url(#clipPath469)" />
    <path
       id="path470"
       d="M 0,0 0.413,-4 0,-8 -0.414,-4 Z"
       style="fill:#ffe47d;fill-opacity:1;fill-rule:nonzero;stroke:none"
       transform="matrix(1.3333333,0,0,-1.3333333,789.27947,581.3924)"
       clip-path="url(#clipPath471)" />
    <path
       id="path472"
       d="M 0,0 -3.671,1.642 -6.929,4 -3.257,2.357 Z"
       style="fill:#ffe47d;fill-opacity:1;fill-rule:nonzero;stroke:none"
       transform="matrix(1.3333333,0,0,-1.3333333,793.898,589.3924)"
       clip-path="url(#clipPath473)" />
    <path
       id="path474"
       d="M 0,0 3.258,2.357 6.929,4 3.672,1.642 Z"
       style="fill:#ffe47d;fill-opacity:1;fill-rule:nonzero;stroke:none"
       transform="matrix(1.3333333,0,0,-1.3333333,784.65973,589.3924)"
       clip-path="url(#clipPath475)" />
    <path
       id="path476"
       d="M 0,0 2.587,0.172 5.173,0 2.587,-0.173 Z"
       style="fill:#ffe47d;fill-opacity:1;fill-rule:nonzero;stroke:none"
       transform="matrix(1.3333333,0,0,-1.3333333,785.83027,586.72573)"
       clip-path="url(#clipPath477)" />
    <path
       id="path478"
       d="m 0,0 -1.144,-2.326 -1.442,-2.153 1.144,2.326 z"
       style="fill:#ffe47d;fill-opacity:1;fill-rule:nonzero;stroke:none"
       transform="matrix(1.3333333,0,0,-1.3333333,791.00347,583.74)"
       clip-path="url(#clipPath479)" />
    <path
       id="path480"
       d="M 0,0 -1.442,2.153 -2.586,4.479 -1.144,2.326 Z"
       style="fill:#ffe47d;fill-opacity:1;fill-rule:nonzero;stroke:none"
       transform="matrix(1.3333333,0,0,-1.3333333,791.00347,589.71267)"
       clip-path="url(#clipPath481)" />
  </g>
</svg>
