<?xml version="1.0" encoding="UTF-8" standalone="no"?>
<!-- Created with Inkscape (http://www.inkscape.org/) -->

<svg
   version="1.1"
   id="svg1"
   width="106.66669"
   height="106.66667"
   viewBox="0 0 106.66669 106.66667"
   xmlns="http://www.w3.org/2000/svg"
   xmlns:svg="http://www.w3.org/2000/svg">
  <defs
     id="defs1">
    <clipPath
       clipPathUnits="userSpaceOnUse"
       id="clipPath83">
      <path
         d="M 0,500 H 750 V 0 H 0 Z"
         transform="translate(-624.99962,-410.00021)"
         id="path83" />
    </clipPath>
    <clipPath
       clipPathUnits="userSpaceOnUse"
       id="clipPath85">
      <path
         d="M 0,500 H 750 V 0 H 0 Z"
         transform="translate(-614.99962,-450.00021)"
         id="path85" />
    </clipPath>
    <clipPath
       clipPathUnits="userSpaceOnUse"
       id="clipPath87">
      <path
         d="M 0,500 H 750 V 0 H 0 Z"
         transform="translate(-574.99961,-410.00021)"
         id="path87" />
    </clipPath>
    <clipPath
       clipPathUnits="userSpaceOnUse"
       id="clipPath89">
      <path
         d="M 0,500 H 750 V 0 H 0 Z"
         transform="translate(-610.49962,-410.00021)"
         id="path89" />
    </clipPath>
    <clipPath
       clipPathUnits="userSpaceOnUse"
       id="clipPath91">
      <path
         d="M 0,500 H 750 V 0 H 0 Z"
         transform="translate(-614.99962,-414.50021)"
         id="path91" />
    </clipPath>
    <clipPath
       clipPathUnits="userSpaceOnUse"
       id="clipPath93">
      <path
         d="M 0,500 H 750 V 0 H 0 Z"
         transform="translate(-612.87851,-412.12131)"
         id="path93" />
    </clipPath>
    <clipPath
       clipPathUnits="userSpaceOnUse"
       id="clipPath95">
      <path
         d="M 0,500 H 750 V 0 H 0 Z"
         transform="translate(-612.87851,-412.12131)"
         id="path95" />
    </clipPath>
    <clipPath
       clipPathUnits="userSpaceOnUse"
       id="clipPath97">
      <path
         d="M 0,500 H 750 V 0 H 0 Z"
         transform="translate(-598.73692,-426.26341)"
         id="path97" />
    </clipPath>
    <clipPath
       clipPathUnits="userSpaceOnUse"
       id="clipPath99">
      <path
         d="M 0,500 H 750 V 0 H 0 Z"
         transform="translate(-617.12171,-412.12131)"
         id="path99" />
    </clipPath>
    <clipPath
       clipPathUnits="userSpaceOnUse"
       id="clipPath101">
      <path
         d="M 0,500 H 750 V 0 H 0 Z"
         transform="translate(-590.62462,-437.50021)"
         id="path101" />
    </clipPath>
    <clipPath
       clipPathUnits="userSpaceOnUse"
       id="clipPath103">
      <path
         d="M 0,500 H 750 V 0 H 0 Z"
         transform="translate(-587.49961,-450.00021)"
         id="path103" />
    </clipPath>
    <clipPath
       clipPathUnits="userSpaceOnUse"
       id="clipPath105">
      <path
         d="M 0,500 H 750 V 0 H 0 Z"
         transform="translate(-574.99961,-437.50021)"
         id="path105" />
    </clipPath>
    <clipPath
       clipPathUnits="userSpaceOnUse"
       id="clipPath107">
      <path
         d="M 0,500 H 750 V 0 H 0 Z"
         transform="translate(-586.09342,-437.50021)"
         id="path107" />
    </clipPath>
    <clipPath
       clipPathUnits="userSpaceOnUse"
       id="clipPath109">
      <path
         d="M 0,500 H 750 V 0 H 0 Z"
         transform="translate(-587.49961,-438.90641)"
         id="path109" />
    </clipPath>
    <clipPath
       clipPathUnits="userSpaceOnUse"
       id="clipPath111">
      <path
         d="M 0,500 H 750 V 0 H 0 Z"
         transform="translate(-586.83751,-438.16281)"
         id="path111" />
    </clipPath>
    <clipPath
       clipPathUnits="userSpaceOnUse"
       id="clipPath113">
      <path
         d="M 0,500 H 750 V 0 H 0 Z"
         transform="translate(-586.83751,-438.16281)"
         id="path113" />
    </clipPath>
    <clipPath
       clipPathUnits="userSpaceOnUse"
       id="clipPath115">
      <path
         d="M 0,500 H 750 V 0 H 0 Z"
         transform="translate(-582.41761,-442.58221)"
         id="path115" />
    </clipPath>
    <clipPath
       clipPathUnits="userSpaceOnUse"
       id="clipPath117">
      <path
         d="M 0,500 H 750 V 0 H 0 Z"
         transform="translate(-588.16271,-438.16281)"
         id="path117" />
    </clipPath>
    <clipPath
       clipPathUnits="userSpaceOnUse"
       id="clipPath119">
      <path
         d="M 0,500 H 750 V 0 H 0 Z"
         transform="translate(-597.49961,-384.28191)"
         id="path119" />
    </clipPath>
    <clipPath
       clipPathUnits="userSpaceOnUse"
       id="clipPath121">
      <path
         d="M 0,500 H 750 V 0 H 0 Z"
         transform="translate(-594.99961,-394.28191)"
         id="path121" />
    </clipPath>
    <clipPath
       clipPathUnits="userSpaceOnUse"
       id="clipPath123">
      <path
         d="M 0,500 H 750 V 0 H 0 Z"
         transform="translate(-584.99962,-384.28191)"
         id="path123" />
    </clipPath>
    <clipPath
       clipPathUnits="userSpaceOnUse"
       id="clipPath125">
      <path
         d="M 0,500 H 750 V 0 H 0 Z"
         transform="translate(-593.87461,-384.28191)"
         id="path125" />
    </clipPath>
    <clipPath
       clipPathUnits="userSpaceOnUse"
       id="clipPath127">
      <path
         d="M 0,500 H 750 V 0 H 0 Z"
         transform="translate(-594.99961,-385.40691)"
         id="path127" />
    </clipPath>
    <clipPath
       clipPathUnits="userSpaceOnUse"
       id="clipPath129">
      <path
         d="M 0,500 H 750 V 0 H 0 Z"
         transform="translate(-594.46942,-384.81221)"
         id="path129" />
    </clipPath>
    <clipPath
       clipPathUnits="userSpaceOnUse"
       id="clipPath131">
      <path
         d="M 0,500 H 750 V 0 H 0 Z"
         transform="translate(-594.46942,-384.81221)"
         id="path131" />
    </clipPath>
    <clipPath
       clipPathUnits="userSpaceOnUse"
       id="clipPath133">
      <path
         d="M 0,500 H 750 V 0 H 0 Z"
         transform="translate(-590.93422,-388.34781)"
         id="path133" />
    </clipPath>
    <clipPath
       clipPathUnits="userSpaceOnUse"
       id="clipPath135">
      <path
         d="M 0,500 H 750 V 0 H 0 Z"
         transform="translate(-595.52992,-384.81221)"
         id="path135" />
    </clipPath>
    <clipPath
       clipPathUnits="userSpaceOnUse"
       id="clipPath137">
      <path
         d="M 0,500 H 750 V 0 H 0 Z"
         transform="translate(-645.32972,-435.29021)"
         id="path137" />
    </clipPath>
    <clipPath
       clipPathUnits="userSpaceOnUse"
       id="clipPath139">
      <path
         d="M 0,500 H 750 V 0 H 0 Z"
         transform="translate(-642.82972,-445.29021)"
         id="path139" />
    </clipPath>
    <clipPath
       clipPathUnits="userSpaceOnUse"
       id="clipPath141">
      <path
         d="M 0,500 H 750 V 0 H 0 Z"
         transform="translate(-632.82971,-435.29021)"
         id="path141" />
    </clipPath>
    <clipPath
       clipPathUnits="userSpaceOnUse"
       id="clipPath143">
      <path
         d="M 0,500 H 750 V 0 H 0 Z"
         transform="translate(-641.70472,-435.29021)"
         id="path143" />
    </clipPath>
    <clipPath
       clipPathUnits="userSpaceOnUse"
       id="clipPath145">
      <path
         d="M 0,500 H 750 V 0 H 0 Z"
         transform="translate(-642.82972,-436.41521)"
         id="path145" />
    </clipPath>
    <clipPath
       clipPathUnits="userSpaceOnUse"
       id="clipPath147">
      <path
         d="M 0,500 H 750 V 0 H 0 Z"
         transform="translate(-642.29942,-435.82051)"
         id="path147" />
    </clipPath>
    <clipPath
       clipPathUnits="userSpaceOnUse"
       id="clipPath149">
      <path
         d="M 0,500 H 750 V 0 H 0 Z"
         transform="translate(-642.29942,-435.82051)"
         id="path149" />
    </clipPath>
    <clipPath
       clipPathUnits="userSpaceOnUse"
       id="clipPath151">
      <path
         d="M 0,500 H 750 V 0 H 0 Z"
         transform="translate(-638.76332,-439.35611)"
         id="path151" />
    </clipPath>
    <clipPath
       clipPathUnits="userSpaceOnUse"
       id="clipPath153">
      <path
         d="M 0,500 H 750 V 0 H 0 Z"
         transform="translate(-643.36001,-435.82051)"
         id="path153" />
    </clipPath>
  </defs>
  <g
     id="layer-MC0"
     style="display:none"
     transform="translate(-766.66614,-66.666397)">
    <path
       id="path1"
       d="M 0,0 H 750 V 500 H 0 Z"
       style="fill:#302a42;fill-opacity:1;fill-rule:nonzero;stroke:none"
       transform="matrix(1.3333333,0,0,-1.3333333,0,666.66667)" />
  </g>
  <g
     id="layer-MC1"
     transform="translate(-766.66614,-66.666397)">
    <path
       id="path82"
       d="m 0,0 c 0,5.522 -4.477,10 -10,10 -5.522,0 -10,-4.478 -10,-10 0,-5.523 4.478,-10 10,-10 5.523,0 10,4.477 10,10"
       style="fill:#ffe47d;fill-opacity:1;fill-rule:nonzero;stroke:none"
       transform="matrix(1.3333333,0,0,-1.3333333,833.3328,119.99973)"
       clip-path="url(#clipPath83)" />
    <path
       id="path84"
       d="m 0,0 c 0,-20.805 -4.5,-40 -4.5,-40 h 9 C 4.5,-40 0,-20.805 0,0"
       style="fill:#ffe47d;fill-opacity:1;fill-rule:nonzero;stroke:none"
       transform="matrix(1.3333333,0,0,-1.3333333,819.99947,66.6664)"
       clip-path="url(#clipPath85)" />
    <path
       id="path86"
       d="m 0,0 c 20.806,0 40,-4.5 40,-4.5 v 9 C 40,4.5 20.806,0 0,0"
       style="fill:#ffe47d;fill-opacity:1;fill-rule:nonzero;stroke:none"
       transform="matrix(1.3333333,0,0,-1.3333333,766.66613,119.99973)"
       clip-path="url(#clipPath87)" />
    <path
       id="path88"
       d="M 0,0 C 0,0 4.5,-19.195 4.5,-40 4.5,-19.195 9,0 9,0 Z"
       style="fill:#ffe47d;fill-opacity:1;fill-rule:nonzero;stroke:none"
       transform="matrix(1.3333333,0,0,-1.3333333,813.99947,119.99973)"
       clip-path="url(#clipPath89)" />
    <path
       id="path90"
       d="m 0,0 v -9 c 0,0 19.195,4.5 40,4.5 C 19.195,-4.5 0,0 0,0"
       style="fill:#ffe47d;fill-opacity:1;fill-rule:nonzero;stroke:none"
       transform="matrix(1.3333333,0,0,-1.3333333,819.99947,113.99973)"
       clip-path="url(#clipPath91)" />
    <path
       id="path92"
       d="M 0,0 C 0,0 -5.683,-9.926 -14.142,-18.385 -5.683,-9.926 4.243,-4.243 4.243,-4.243 Z"
       style="fill:#ffe47d;fill-opacity:1;fill-rule:nonzero;stroke:none"
       transform="matrix(1.3333333,0,0,-1.3333333,817.17133,117.1716)"
       clip-path="url(#clipPath93)" />
    <path
       id="path94"
       d="m 0,0 4.243,-4.243 c 0,0 5.683,9.926 14.142,18.385 C 9.926,5.683 0,0 0,0"
       style="fill:#ffe47d;fill-opacity:1;fill-rule:nonzero;stroke:none"
       transform="matrix(1.3333333,0,0,-1.3333333,817.17133,117.1716)"
       clip-path="url(#clipPath95)" />
    <path
       id="path96"
       d="m 0,0 c 8.459,-8.459 14.142,-18.385 14.142,-18.385 l 4.243,4.243 c 0,0 -9.926,5.683 -18.385,14.142"
       style="fill:#ffe47d;fill-opacity:1;fill-rule:nonzero;stroke:none"
       transform="matrix(1.3333333,0,0,-1.3333333,798.31587,98.315467)"
       clip-path="url(#clipPath97)" />
    <path
       id="path98"
       d="m 0,0 -4.243,-4.243 c 0,0 9.926,-5.683 18.385,-14.142 C 5.683,-9.926 0,0 0,0"
       style="fill:#ffe47d;fill-opacity:1;fill-rule:nonzero;stroke:none"
       transform="matrix(1.3333333,0,0,-1.3333333,822.82893,117.1716)"
       clip-path="url(#clipPath99)" />
    <path
       id="path100"
       d="M 0,0 C 0,1.726 -1.398,3.125 -3.125,3.125 -4.851,3.125 -6.25,1.726 -6.25,0 c 0,-1.726 1.399,-3.125 3.125,-3.125 C -1.398,-3.125 0,-1.726 0,0"
       style="fill:#ffe47d;fill-opacity:1;fill-rule:nonzero;stroke:none"
       transform="matrix(1.3333333,0,0,-1.3333333,787.49947,83.333067)"
       clip-path="url(#clipPath101)" />
    <path
       id="path102"
       d="M 0,0 C 0,-6.502 -1.406,-12.5 -1.406,-12.5 H 1.406 C 1.406,-12.5 0,-6.502 0,0"
       style="fill:#ffe47d;fill-opacity:1;fill-rule:nonzero;stroke:none"
       transform="matrix(1.3333333,0,0,-1.3333333,783.3328,66.6664)"
       clip-path="url(#clipPath103)" />
    <path
       id="path104"
       d="M 0,0 C 6.502,0 12.5,-1.406 12.5,-1.406 V 1.406 C 12.5,1.406 6.502,0 0,0"
       style="fill:#ffe47d;fill-opacity:1;fill-rule:nonzero;stroke:none"
       transform="matrix(1.3333333,0,0,-1.3333333,766.66613,83.333067)"
       clip-path="url(#clipPath105)" />
    <path
       id="path106"
       d="M 0,0 C 0,0 1.406,-5.999 1.406,-12.5 1.406,-5.999 2.813,0 2.813,0 Z"
       style="fill:#ffe47d;fill-opacity:1;fill-rule:nonzero;stroke:none"
       transform="matrix(1.3333333,0,0,-1.3333333,781.45787,83.333067)"
       clip-path="url(#clipPath107)" />
    <path
       id="path108"
       d="m 0,0 v -2.813 c 0,0 5.999,1.407 12.5,1.407 C 5.999,-1.406 0,0 0,0"
       style="fill:#ffe47d;fill-opacity:1;fill-rule:nonzero;stroke:none"
       transform="matrix(1.3333333,0,0,-1.3333333,783.3328,81.458133)"
       clip-path="url(#clipPath109)" />
    <path
       id="path110"
       d="m 0,0 c 0,0 -1.776,-3.102 -4.42,-5.745 2.644,2.643 5.745,4.419 5.745,4.419 z"
       style="fill:#ffe47d;fill-opacity:1;fill-rule:nonzero;stroke:none"
       transform="matrix(1.3333333,0,0,-1.3333333,782.45,82.4496)"
       clip-path="url(#clipPath111)" />
    <path
       id="path112"
       d="m 0,0 1.325,-1.326 c 0,0 1.777,3.102 4.42,5.745 C 3.102,1.776 0,0 0,0"
       style="fill:#ffe47d;fill-opacity:1;fill-rule:nonzero;stroke:none"
       transform="matrix(1.3333333,0,0,-1.3333333,782.45,82.4496)"
       clip-path="url(#clipPath113)" />
    <path
       id="path114"
       d="m 0,0 c 2.644,-2.644 4.42,-5.745 4.42,-5.745 l 1.325,1.326 c 0,0 -3.101,1.775 -5.745,4.419"
       style="fill:#ffe47d;fill-opacity:1;fill-rule:nonzero;stroke:none"
       transform="matrix(1.3333333,0,0,-1.3333333,776.5568,76.557067)"
       clip-path="url(#clipPath115)" />
    <path
       id="path116"
       d="m 0,0 -1.325,-1.326 c 0,0 3.101,-1.776 5.745,-4.419 C 1.776,-3.102 0,0 0,0"
       style="fill:#ffe47d;fill-opacity:1;fill-rule:nonzero;stroke:none"
       transform="matrix(1.3333333,0,0,-1.3333333,784.21693,82.4496)"
       clip-path="url(#clipPath117)" />
    <path
       id="path118"
       d="M 0,0 C 0,1.381 -1.119,2.5 -2.5,2.5 -3.88,2.5 -5,1.381 -5,0 c 0,-1.38 1.12,-2.5 2.5,-2.5 1.381,0 2.5,1.12 2.5,2.5"
       style="fill:#ffe47d;fill-opacity:1;fill-rule:nonzero;stroke:none"
       transform="matrix(1.3333333,0,0,-1.3333333,796.66613,154.2908)"
       clip-path="url(#clipPath119)" />
    <path
       id="path120"
       d="m 0,0 c 0,-5.201 -1.125,-10 -1.125,-10 h 2.25 C 1.125,-10 0,-5.201 0,0"
       style="fill:#ffe47d;fill-opacity:1;fill-rule:nonzero;stroke:none"
       transform="matrix(1.3333333,0,0,-1.3333333,793.3328,140.95747)"
       clip-path="url(#clipPath121)" />
    <path
       id="path122"
       d="m 0,0 c 5.201,0 10,-1.125 10,-1.125 v 2.25 C 10,1.125 5.201,0 0,0"
       style="fill:#ffe47d;fill-opacity:1;fill-rule:nonzero;stroke:none"
       transform="matrix(1.3333333,0,0,-1.3333333,779.99947,154.2908)"
       clip-path="url(#clipPath123)" />
    <path
       id="path124"
       d="m 0,0 c 0,0 1.125,-4.798 1.125,-10 0,5.202 1.125,10 1.125,10 z"
       style="fill:#ffe47d;fill-opacity:1;fill-rule:nonzero;stroke:none"
       transform="matrix(1.3333333,0,0,-1.3333333,791.8328,154.2908)"
       clip-path="url(#clipPath125)" />
    <path
       id="path126"
       d="m 0,0 v -2.25 c 0,0 4.799,1.125 10,1.125 C 4.799,-1.125 0,0 0,0"
       style="fill:#ffe47d;fill-opacity:1;fill-rule:nonzero;stroke:none"
       transform="matrix(1.3333333,0,0,-1.3333333,793.3328,152.7908)"
       clip-path="url(#clipPath127)" />
    <path
       id="path128"
       d="m 0,0 c 0,0 -1.421,-2.481 -3.535,-4.596 2.114,2.115 4.596,3.535 4.596,3.535 z"
       style="fill:#ffe47d;fill-opacity:1;fill-rule:nonzero;stroke:none"
       transform="matrix(1.3333333,0,0,-1.3333333,792.62587,153.58373)"
       clip-path="url(#clipPath129)" />
    <path
       id="path130"
       d="m 0,0 1.061,-1.061 c 0,0 1.42,2.482 3.536,4.597 C 2.481,1.421 0,0 0,0"
       style="fill:#ffe47d;fill-opacity:1;fill-rule:nonzero;stroke:none"
       transform="matrix(1.3333333,0,0,-1.3333333,792.62587,153.58373)"
       clip-path="url(#clipPath131)" />
    <path
       id="path132"
       d="m 0,0 c 2.114,-2.115 3.535,-4.596 3.535,-4.596 l 1.061,1.06 c 0,0 -2.482,1.421 -4.596,3.536"
       style="fill:#ffe47d;fill-opacity:1;fill-rule:nonzero;stroke:none"
       transform="matrix(1.3333333,0,0,-1.3333333,787.91227,148.8696)"
       clip-path="url(#clipPath133)" />
    <path
       id="path134"
       d="m 0,0 -1.061,-1.061 c 0,0 2.482,-1.42 4.597,-3.535 C 1.421,-2.481 0,0 0,0"
       style="fill:#ffe47d;fill-opacity:1;fill-rule:nonzero;stroke:none"
       transform="matrix(1.3333333,0,0,-1.3333333,794.03987,153.58373)"
       clip-path="url(#clipPath135)" />
    <path
       id="path136"
       d="M 0,0 C 0,1.381 -1.119,2.5 -2.5,2.5 -3.881,2.5 -5,1.381 -5,0 c 0,-1.381 1.119,-2.5 2.5,-2.5 1.381,0 2.5,1.119 2.5,2.5"
       style="fill:#ffe47d;fill-opacity:1;fill-rule:nonzero;stroke:none"
       transform="matrix(1.3333333,0,0,-1.3333333,860.4396,86.279733)"
       clip-path="url(#clipPath137)" />
    <path
       id="path138"
       d="m 0,0 c 0,-5.201 -1.125,-10 -1.125,-10 h 2.25 C 1.125,-10 0,-5.201 0,0"
       style="fill:#ffe47d;fill-opacity:1;fill-rule:nonzero;stroke:none"
       transform="matrix(1.3333333,0,0,-1.3333333,857.10627,72.9464)"
       clip-path="url(#clipPath139)" />
    <path
       id="path140"
       d="m 0,0 c 5.201,0 10,-1.125 10,-1.125 v 2.25 C 10,1.125 5.201,0 0,0"
       style="fill:#ffe47d;fill-opacity:1;fill-rule:nonzero;stroke:none"
       transform="matrix(1.3333333,0,0,-1.3333333,843.77293,86.279733)"
       clip-path="url(#clipPath141)" />
    <path
       id="path142"
       d="m 0,0 c 0,0 1.125,-4.799 1.125,-10 0,5.201 1.125,10 1.125,10 z"
       style="fill:#ffe47d;fill-opacity:1;fill-rule:nonzero;stroke:none"
       transform="matrix(1.3333333,0,0,-1.3333333,855.60627,86.279733)"
       clip-path="url(#clipPath143)" />
    <path
       id="path144"
       d="m 0,0 v -2.25 c 0,0 4.799,1.125 10,1.125 C 4.799,-1.125 0,0 0,0"
       style="fill:#ffe47d;fill-opacity:1;fill-rule:nonzero;stroke:none"
       transform="matrix(1.3333333,0,0,-1.3333333,857.10627,84.779733)"
       clip-path="url(#clipPath145)" />
    <path
       id="path146"
       d="m 0,0 c 0,0 -1.421,-2.481 -3.536,-4.596 2.115,2.115 4.597,3.535 4.597,3.535 z"
       style="fill:#ffe47d;fill-opacity:1;fill-rule:nonzero;stroke:none"
       transform="matrix(1.3333333,0,0,-1.3333333,856.3992,85.572667)"
       clip-path="url(#clipPath147)" />
    <path
       id="path148"
       d="m 0,0 1.061,-1.061 c 0,0 1.42,2.482 3.535,4.597 C 2.481,1.421 0,0 0,0"
       style="fill:#ffe47d;fill-opacity:1;fill-rule:nonzero;stroke:none"
       transform="matrix(1.3333333,0,0,-1.3333333,856.3992,85.572667)"
       clip-path="url(#clipPath149)" />
    <path
       id="path150"
       d="m 0,0 c 2.115,-2.115 3.536,-4.596 3.536,-4.596 l 1.061,1.06 c 0,0 -2.482,1.421 -4.597,3.536"
       style="fill:#ffe47d;fill-opacity:1;fill-rule:nonzero;stroke:none"
       transform="matrix(1.3333333,0,0,-1.3333333,851.6844,80.858533)"
       clip-path="url(#clipPath151)" />
    <path
       id="path152"
       d="m 0,0 -1.061,-1.061 c 0,0 2.482,-1.42 4.596,-3.535 C 1.421,-2.481 0,0 0,0"
       style="fill:#ffe47d;fill-opacity:1;fill-rule:nonzero;stroke:none"
       transform="matrix(1.3333333,0,0,-1.3333333,857.81333,85.572667)"
       clip-path="url(#clipPath153)" />
  </g>
</svg>
