<?xml version="1.0" encoding="UTF-8" standalone="no"?>
<!-- Created with Inkscape (http://www.inkscape.org/) -->

<svg
   version="1.1"
   id="svg1"
   width="106.66614"
   height="106.66695"
   viewBox="0 0 106.66614 106.66695"
   sodipodi:docname="5655429.ai"
   xmlns:inkscape="http://www.inkscape.org/namespaces/inkscape"
   xmlns:sodipodi="http://sodipodi.sourceforge.net/DTD/sodipodi-0.dtd"
   xmlns="http://www.w3.org/2000/svg"
   xmlns:svg="http://www.w3.org/2000/svg">
  <defs
     id="defs1">
    <clipPath
       clipPathUnits="userSpaceOnUse"
       id="clipPath3">
      <path
         d="M 0,500 H 750 V 0 H 0 Z"
         transform="translate(-154.4083,-410.00021)"
         id="path3" />
    </clipPath>
    <clipPath
       clipPathUnits="userSpaceOnUse"
       id="clipPath5">
      <path
         d="M 0,500 H 750 V 0 H 0 Z"
         transform="translate(-159.93321,-438.88891)"
         id="path5" />
    </clipPath>
    <clipPath
       clipPathUnits="userSpaceOnUse"
       id="clipPath7">
      <path
         d="M 0,500 H 750 V 0 H 0 Z"
         transform="translate(-117.1906,-381.11101)"
         id="path7" />
    </clipPath>
    <clipPath
       clipPathUnits="userSpaceOnUse"
       id="clipPath9">
      <path
         d="M 0,500 H 750 V 0 H 0 Z"
         transform="translate(-175.00011,-425.55541)"
         id="path9" />
    </clipPath>
    <clipPath
       clipPathUnits="userSpaceOnUse"
       id="clipPath11">
      <path
         d="M 0,500 H 750 V 0 H 0 Z"
         transform="translate(-153.4572,-392.77411)"
         id="path11" />
    </clipPath>
    <clipPath
       clipPathUnits="userSpaceOnUse"
       id="clipPath13">
      <path
         d="M 0,500 H 750 V 0 H 0 Z"
         transform="translate(-104.7145,-443.33321)"
         id="path13" />
    </clipPath>
  </defs>
  <sodipodi:namedview
     id="namedview1"
     pagecolor="#ffffff"
     bordercolor="#000000"
     borderopacity="0.25"
     inkscape:showpageshadow="2"
     inkscape:pageopacity="0.0"
     inkscape:pagecheckerboard="0"
     inkscape:deskcolor="#d1d1d1" />
  <g
     id="layer-MC0"
     inkscape:groupmode="layer"
     inkscape:label="BACKGROUND"
     style="display:none"
     transform="translate(-126.66733,-66.666397)">
    <path
       id="path1"
       d="M 0,0 H 750 V 500 H 0 Z"
       style="fill:#302a42;fill-opacity:1;fill-rule:nonzero;stroke:none"
       transform="matrix(1.3333333,0,0,-1.3333333,0,666.66667)" />
  </g>
  <g
     id="layer-MC1"
     inkscape:groupmode="layer"
     inkscape:label="OBJECTS"
     transform="translate(-126.66733,-66.666397)">
    <path
       id="path2"
       d="m 0,0 c -12.402,-1.913 -21.902,-11.719 -23.089,-23.841 l -0.853,-8.659 -0.852,8.659 C -25.981,-11.719 -35.481,-1.913 -47.883,0 c 12.402,1.913 21.902,11.718 23.089,23.841 l 0.852,8.659 0.853,-8.659 C -21.902,11.718 -12.402,1.913 0,0"
       style="fill:#ffe47d;fill-opacity:1;fill-rule:nonzero;stroke:none"
       transform="matrix(1.3333333,0,0,-1.3333333,205.87773,119.99973)"
       clip-path="url(#clipPath3)" />
    <path
       id="path4"
       d="m 0,0 c -4.193,-0.654 -7.405,-4.006 -7.807,-8.151 l -0.288,-2.96 -0.288,2.96 c -0.402,4.145 -3.614,7.497 -7.807,8.151 4.193,0.654 7.405,4.006 7.807,8.151 l 0.288,2.96 0.288,-2.96 C -7.405,4.006 -4.193,0.654 0,0"
       style="fill:#ffe47d;fill-opacity:1;fill-rule:nonzero;stroke:none"
       transform="matrix(1.3333333,0,0,-1.3333333,213.24427,81.481467)"
       clip-path="url(#clipPath5)" />
    <path
       id="path6"
       d="m 0,0 c -4.193,-0.654 -7.406,-4.006 -7.807,-8.151 l -0.288,-2.96 -0.288,2.96 c -0.402,4.145 -3.614,7.497 -7.807,8.151 4.193,0.654 7.405,4.006 7.807,8.151 l 0.288,2.96 0.288,-2.96 C -7.406,4.006 -4.193,0.654 0,0"
       style="fill:#ffe47d;fill-opacity:1;fill-rule:nonzero;stroke:none"
       transform="matrix(1.3333333,0,0,-1.3333333,156.25413,158.51867)"
       clip-path="url(#clipPath7)" />
    <path
       id="path8"
       d="M 0,0 C -2.516,-0.392 -4.443,-2.404 -4.685,-4.89 L -4.857,-6.667 -5.03,-4.89 c -0.241,2.486 -2.168,4.498 -4.684,4.89 2.516,0.393 4.443,2.404 4.684,4.891 l 0.173,1.776 0.172,-1.776 C -4.443,2.404 -2.516,0.393 0,0"
       style="fill:#ffe47d;fill-opacity:1;fill-rule:nonzero;stroke:none"
       transform="matrix(1.3333333,0,0,-1.3333333,233.33347,99.259467)"
       clip-path="url(#clipPath9)" />
    <path
       id="path10"
       d="m 0,0 c -2.516,-0.393 -4.443,-2.404 -4.684,-4.891 l -0.173,-1.776 -0.173,1.776 c -0.241,2.487 -2.168,4.498 -4.684,4.891 2.516,0.393 4.443,2.404 4.684,4.891 l 0.173,1.776 0.173,-1.776 C -4.443,2.404 -2.516,0.393 0,0"
       style="fill:#ffe47d;fill-opacity:1;fill-rule:nonzero;stroke:none"
       transform="matrix(1.3333333,0,0,-1.3333333,204.6096,142.96787)"
       clip-path="url(#clipPath11)" />
    <path
       id="path12"
       d="M 0,0 C -2.516,-0.392 -4.443,-2.404 -4.685,-4.89 L -4.857,-6.667 -5.03,-4.89 c -0.241,2.486 -2.169,4.498 -4.684,4.89 2.515,0.393 4.443,2.404 4.684,4.891 l 0.173,1.776 0.172,-1.776 C -4.443,2.404 -2.516,0.393 0,0"
       style="fill:#ffe47d;fill-opacity:1;fill-rule:nonzero;stroke:none"
       transform="matrix(1.3333333,0,0,-1.3333333,139.61933,75.555733)"
       clip-path="url(#clipPath13)" />
  </g>
</svg>
