<?xml version="1.0" encoding="UTF-8" standalone="no"?>
<!-- Created with Inkscape (http://www.inkscape.org/) -->

<svg
   width="16.3097cm"
   height="17.28701cm"
   viewBox="0 0 577.90276 612.53184"
   id="svg4214"
   version="1.1"
   inkscape:version="0.91 r13725"
   sodipodi:docname="magnifying-glass.svg"
   inkscape:export-filename="magnifying-glass-transparent.svg"
   inkscape:export-xdpi="96"
   inkscape:export-ydpi="96"
   xmlns:inkscape="http://www.inkscape.org/namespaces/inkscape"
   xmlns:sodipodi="http://sodipodi.sourceforge.net/DTD/sodipodi-0.dtd"
   xmlns="http://www.w3.org/2000/svg"
   xmlns:svg="http://www.w3.org/2000/svg"
   xmlns:rdf="http://www.w3.org/1999/02/22-rdf-syntax-ns#"
   xmlns:cc="http://creativecommons.org/ns#"
   xmlns:dc="http://purl.org/dc/elements/1.1/">
  <defs
     id="defs4216" />
  <sodipodi:namedview
     id="base"
     pagecolor="#ffffff"
     bordercolor="#666666"
     borderopacity="1.0"
     inkscape:pageopacity="0.0"
     inkscape:pageshadow="2"
     inkscape:zoom="0.35"
     inkscape:cx="487.85714"
     inkscape:cy="422.85714"
     inkscape:document-units="px"
     inkscape:current-layer="layer1"
     showgrid="false"
     units="cm"
     inkscape:window-width="1366"
     inkscape:window-height="718"
     inkscape:window-x="-8"
     inkscape:window-y="-8"
     inkscape:window-maximized="1"
     inkscape:showpageshadow="2"
     inkscape:pagecheckerboard="0"
     inkscape:deskcolor="#d1d1d1" />
  <metadata
     id="metadata4219">
    <rdf:RDF>
      <cc:Work
         rdf:about="">
        <dc:format>image/svg+xml</dc:format>
        <dc:type
           rdf:resource="http://purl.org/dc/dcmitype/StillImage" />
        <dc:title />
      </cc:Work>
    </rdf:RDF>
  </metadata>
  <g
     inkscape:label="Layer 1"
     inkscape:groupmode="layer"
     id="layer1"
     transform="translate(-85.395736,-361.79621)"
     style="display:inline">
    <path
       id="path4191"
       style="opacity:1;fill:#c1c1c1;fill-opacity:1;stroke:#000000;stroke-width:4.6875;stroke-miterlimit:4;stroke-dasharray:none;stroke-opacity:1"
       d="m -50.56859,446.57729 a 180.0849,180.0849 0 0 0 -117.92994,-43.98625 180.0849,180.0849 0 0 0 -180.08562,180.0855 180.0849,180.0849 0 0 0 180.0855,180.08562 A 180.0849,180.0849 0 0 0 11.585615,582.67543 180.0849,180.0849 0 0 0 -50.56859,446.57729 Z m -11.031676,12.73064 a 163.23851,163.23851 0 0 1 56.3397791,123.36877 163.23851,163.23851 0 0 1 -163.2382031,163.238 163.23851,163.23851 0 0 1 -163.238,-163.2382 163.23851,163.23851 0 0 1 163.2382,-163.238 163.23851,163.23851 0 0 1 106.898224,39.86943 z"
       transform="rotate(-42.330531)" />
    <rect
       style="opacity:1;fill:#c1c1c1;fill-opacity:1;stroke:#000000;stroke-width:4.6875;stroke-miterlimit:4;stroke-dasharray:none;stroke-opacity:1"
       id="rect4197"
       width="103.7289"
       height="51.86446"
       x="-220.3633"
       y="732.50684"
       ry="25.93223"
       transform="rotate(-42.330531)" />
    <rect
       ry="172.93173"
       y="791.68768"
       x="-216.3876"
       height="345.86346"
       width="95.777565"
       id="rect4199"
       style="opacity:1;fill:#ffcc37;fill-opacity:1;stroke:#000000;stroke-width:4.6875;stroke-miterlimit:4;stroke-dasharray:none;stroke-opacity:1"
       rx="23.27927"
       transform="rotate(-42.330531)" />
    <path
       style="opacity:1;fill:#ffffff;fill-opacity:0.8;stroke:none;stroke-width:4.6875;stroke-miterlimit:4;stroke-dasharray:none;stroke-opacity:1"
       d="m 164.59526,519.2147 c -5.36851,39.09482 55.10761,79.7288 15.82567,75.96686 -39.28195,-3.76194 -68.07659,-38.65592 -64.31465,-77.93784 3.76192,-39.28196 44.3706,-85.0623 77.93781,-64.31467 39.59639,24.47425 -25.52441,37.70699 -29.44883,66.28565 z"
       id="circle4201"
       inkscape:connector-curvature="0"
       sodipodi:nodetypes="sssss" />
  </g>
</svg>
